G04 #@! TF.GenerationSoftware,KiCad,Pcbnew,(5.1.2)-2*
G04 #@! TF.CreationDate,2020-01-08T22:38:54+05:30*
G04 #@! TF.ProjectId,controller,636f6e74-726f-46c6-9c65-722e6b696361,rev?*
G04 #@! TF.SameCoordinates,Original*
G04 #@! TF.FileFunction,Copper,L2,Bot*
G04 #@! TF.FilePolarity,Positive*
%FSLAX46Y46*%
G04 Gerber Fmt 4.6, Leading zero omitted, Abs format (unit mm)*
G04 Created by KiCad (PCBNEW (5.1.2)-2) date 2020-01-08 22:38:54*
%MOMM*%
%LPD*%
G04 APERTURE LIST*
%ADD10C,2.175000*%
%ADD11R,2.400000X2.400000*%
%ADD12C,2.400000*%
%ADD13C,1.600000*%
%ADD14R,1.600000X1.600000*%
%ADD15R,2.200000X2.200000*%
%ADD16O,2.200000X2.200000*%
%ADD17R,1.800000X1.800000*%
%ADD18C,1.800000*%
%ADD19R,2.600000X2.600000*%
%ADD20C,2.600000*%
%ADD21C,2.100000*%
%ADD22O,1.600000X1.600000*%
%ADD23C,1.522000*%
%ADD24O,1.905000X2.000000*%
%ADD25R,1.905000X2.000000*%
%ADD26C,2.000000*%
%ADD27C,1.000000*%
%ADD28C,0.254000*%
G04 APERTURE END LIST*
D10*
X57200000Y-17350000D03*
X57200000Y-22450000D03*
X57200000Y-27550000D03*
X57200000Y-32650000D03*
D11*
X45000000Y-18000000D03*
D12*
X45000000Y-25500000D03*
D13*
X26300000Y-33630000D03*
D14*
X28300000Y-33630000D03*
D13*
X34590000Y-33450000D03*
D14*
X36590000Y-33450000D03*
X28350000Y-40250000D03*
D13*
X26350000Y-40250000D03*
D14*
X36570000Y-40100000D03*
D13*
X34570000Y-40100000D03*
D15*
X32290000Y-95490000D03*
D16*
X44990000Y-95490000D03*
D17*
X46140000Y-50760000D03*
D18*
X46140000Y-48220000D03*
X54690000Y-49510000D03*
D17*
X52150000Y-49510000D03*
D12*
X116690000Y-77700000D03*
X94090000Y-77700000D03*
X94070000Y-68790000D03*
X116670000Y-68790000D03*
D19*
X18290000Y-46220000D03*
D20*
X18290000Y-51220000D03*
X18290000Y-56220000D03*
X18290000Y-61220000D03*
X18290000Y-66220000D03*
X18290000Y-71220000D03*
X18290000Y-76220000D03*
X18290000Y-81220000D03*
X18290000Y-86220000D03*
X18290000Y-91220000D03*
X18290000Y-96220000D03*
X18290000Y-101220000D03*
D19*
X127620000Y-60190000D03*
D20*
X127620000Y-55190000D03*
D19*
X35740000Y-103770000D03*
D20*
X40740000Y-103770000D03*
X127690000Y-91320000D03*
D19*
X127690000Y-96320000D03*
X127620000Y-42300000D03*
D20*
X127620000Y-37300000D03*
X127620000Y-32300000D03*
X127620000Y-27300000D03*
X18290000Y-39760000D03*
D19*
X18290000Y-34760000D03*
D21*
X85780000Y-86170000D03*
X100780000Y-86170000D03*
X105780000Y-86170000D03*
X110780000Y-86170000D03*
X110780000Y-93670000D03*
X105780000Y-93670000D03*
X100780000Y-93670000D03*
X85780000Y-93670000D03*
X85850000Y-108310000D03*
X100850000Y-108310000D03*
X105850000Y-108310000D03*
X110850000Y-108310000D03*
X110850000Y-100810000D03*
X105850000Y-100810000D03*
X100850000Y-100810000D03*
X85850000Y-100810000D03*
D13*
X40270000Y-49720000D03*
D22*
X27570000Y-49720000D03*
X40310000Y-41190000D03*
D13*
X53010000Y-41190000D03*
D23*
X76070000Y-57160000D03*
X86230000Y-57160000D03*
X96390000Y-57160000D03*
X106550000Y-57160000D03*
X76070000Y-20076000D03*
X86230000Y-20076000D03*
X96390000Y-20076000D03*
X106550000Y-20076000D03*
D14*
X36710000Y-81530000D03*
D22*
X29090000Y-58670000D03*
X36710000Y-78990000D03*
X29090000Y-61210000D03*
X36710000Y-76450000D03*
X29090000Y-63750000D03*
X36710000Y-73910000D03*
X29090000Y-66290000D03*
X36710000Y-71370000D03*
X29090000Y-68830000D03*
X36710000Y-68830000D03*
X29090000Y-71370000D03*
X36710000Y-66290000D03*
X29090000Y-73910000D03*
X36710000Y-63750000D03*
X29090000Y-76450000D03*
X36710000Y-61210000D03*
X29090000Y-78990000D03*
X36710000Y-58670000D03*
X29090000Y-81530000D03*
D14*
X42300000Y-61010000D03*
D22*
X49920000Y-78790000D03*
X42300000Y-63550000D03*
X49920000Y-76250000D03*
X42300000Y-66090000D03*
X49920000Y-73710000D03*
X42300000Y-68630000D03*
X49920000Y-71170000D03*
X42300000Y-71170000D03*
X49920000Y-68630000D03*
X42300000Y-73710000D03*
X49920000Y-66090000D03*
X42300000Y-76250000D03*
X49920000Y-63550000D03*
X42300000Y-78790000D03*
X49920000Y-61010000D03*
D24*
X21750000Y-28010000D03*
X19210000Y-28010000D03*
D25*
X16670000Y-28010000D03*
X27710000Y-27940000D03*
D24*
X30250000Y-27940000D03*
X32790000Y-27940000D03*
D19*
X127630000Y-81600000D03*
D20*
X127630000Y-76600000D03*
X127630000Y-71600000D03*
X127630000Y-66600000D03*
D26*
X124320000Y-60190000D02*
X127620000Y-60190000D01*
X95810000Y-60190000D02*
X124320000Y-60190000D01*
X91000000Y-65000000D02*
X95810000Y-60190000D01*
X91000000Y-72912944D02*
X91000000Y-65000000D01*
X94090000Y-77700000D02*
X94090000Y-76002944D01*
X94090000Y-76002944D02*
X91000000Y-72912944D01*
D27*
X95787056Y-77700000D02*
X103380000Y-85292944D01*
X103380000Y-88670000D02*
X100780000Y-91270000D01*
X100780000Y-91270000D02*
X100780000Y-93670000D01*
X103380000Y-85292944D02*
X103380000Y-88670000D01*
X94090000Y-77700000D02*
X95787056Y-77700000D01*
D26*
X96170000Y-86170000D02*
X100780000Y-86170000D01*
X87000000Y-77000000D02*
X96170000Y-86170000D01*
X87000000Y-65272002D02*
X87000000Y-77000000D01*
X76070000Y-57160000D02*
X79160000Y-57160000D01*
X79160000Y-57160000D02*
X79160000Y-57432002D01*
X79160000Y-57432002D02*
X87000000Y-65272002D01*
D27*
X94070000Y-68790000D02*
X108180000Y-82900000D01*
X108180000Y-91070000D02*
X110780000Y-93670000D01*
X108180000Y-82900000D02*
X108180000Y-91070000D01*
D26*
X110780000Y-84685076D02*
X110780000Y-86170000D01*
X110780000Y-69220000D02*
X110780000Y-84685076D01*
X114699999Y-65300001D02*
X110780000Y-69220000D01*
X127630000Y-66600000D02*
X126330001Y-65300001D01*
X126330001Y-65300001D02*
X114699999Y-65300001D01*
X125781523Y-55190000D02*
X127620000Y-55190000D01*
X106550000Y-57160000D02*
X106550000Y-56083784D01*
X106550000Y-56083784D02*
X107443784Y-55190000D01*
X107443784Y-55190000D02*
X125781523Y-55190000D01*
D27*
X120340000Y-91320000D02*
X127690000Y-91320000D01*
X110850000Y-100810000D02*
X120340000Y-91320000D01*
X122840000Y-96320000D02*
X127690000Y-96320000D01*
X110850000Y-108310000D02*
X122840000Y-96320000D01*
X103280000Y-98240000D02*
X105850000Y-100810000D01*
X103280000Y-91840000D02*
X103280000Y-98240000D01*
X105780000Y-86170000D02*
X105780000Y-89340000D01*
X105780000Y-89340000D02*
X103280000Y-91840000D01*
X105780000Y-95154924D02*
X108330000Y-97704924D01*
X108330000Y-97704924D02*
X108330000Y-105830000D01*
X108330000Y-105830000D02*
X105850000Y-108310000D01*
X105780000Y-93670000D02*
X105780000Y-95154924D01*
D26*
X86230000Y-57160000D02*
X96390000Y-57160000D01*
X120590000Y-81600000D02*
X116690000Y-77700000D01*
X127630000Y-81600000D02*
X120590000Y-81600000D01*
X124820000Y-68790000D02*
X127630000Y-71600000D01*
X116670000Y-68790000D02*
X124820000Y-68790000D01*
D28*
G36*
X64873000Y-111873000D02*
G01*
X14127000Y-111873000D01*
X14127000Y-108040715D01*
X15084216Y-108040715D01*
X15147655Y-108606285D01*
X15319739Y-109148761D01*
X15593913Y-109647482D01*
X15959734Y-110083451D01*
X16403268Y-110440062D01*
X16907622Y-110703731D01*
X17453583Y-110864416D01*
X18020358Y-110915997D01*
X18586357Y-110856508D01*
X19130022Y-110688216D01*
X19630645Y-110417530D01*
X20069157Y-110054761D01*
X20428855Y-109613727D01*
X20696039Y-109111227D01*
X20860532Y-108566401D01*
X20916068Y-108000000D01*
X20914931Y-107918579D01*
X20843602Y-107353950D01*
X20663961Y-106813928D01*
X20382850Y-106319084D01*
X20010977Y-105888266D01*
X19562507Y-105537882D01*
X19054522Y-105281280D01*
X18506370Y-105128234D01*
X17938930Y-105084572D01*
X17373817Y-105151957D01*
X16832555Y-105327824D01*
X16335760Y-105605473D01*
X15902356Y-105974329D01*
X15548851Y-106420342D01*
X15288709Y-106926524D01*
X15131839Y-107473594D01*
X15084216Y-108040715D01*
X14127000Y-108040715D01*
X14127000Y-101029419D01*
X16355000Y-101029419D01*
X16355000Y-101410581D01*
X16429361Y-101784419D01*
X16575225Y-102136566D01*
X16786987Y-102453491D01*
X17056509Y-102723013D01*
X17373434Y-102934775D01*
X17725581Y-103080639D01*
X18099419Y-103155000D01*
X18480581Y-103155000D01*
X18854419Y-103080639D01*
X19206566Y-102934775D01*
X19523491Y-102723013D01*
X19776504Y-102470000D01*
X33801928Y-102470000D01*
X33801928Y-105070000D01*
X33814188Y-105194482D01*
X33850498Y-105314180D01*
X33909463Y-105424494D01*
X33988815Y-105521185D01*
X34085506Y-105600537D01*
X34195820Y-105659502D01*
X34315518Y-105695812D01*
X34440000Y-105708072D01*
X37040000Y-105708072D01*
X37164482Y-105695812D01*
X37284180Y-105659502D01*
X37394494Y-105600537D01*
X37491185Y-105521185D01*
X37570537Y-105424494D01*
X37629502Y-105314180D01*
X37665812Y-105194482D01*
X37678072Y-105070000D01*
X37678072Y-103579419D01*
X38805000Y-103579419D01*
X38805000Y-103960581D01*
X38879361Y-104334419D01*
X39025225Y-104686566D01*
X39236987Y-105003491D01*
X39506509Y-105273013D01*
X39823434Y-105484775D01*
X40175581Y-105630639D01*
X40549419Y-105705000D01*
X40930581Y-105705000D01*
X41304419Y-105630639D01*
X41656566Y-105484775D01*
X41973491Y-105273013D01*
X42243013Y-105003491D01*
X42454775Y-104686566D01*
X42600639Y-104334419D01*
X42675000Y-103960581D01*
X42675000Y-103579419D01*
X42600639Y-103205581D01*
X42454775Y-102853434D01*
X42243013Y-102536509D01*
X41973491Y-102266987D01*
X41656566Y-102055225D01*
X41304419Y-101909361D01*
X40930581Y-101835000D01*
X40549419Y-101835000D01*
X40175581Y-101909361D01*
X39823434Y-102055225D01*
X39506509Y-102266987D01*
X39236987Y-102536509D01*
X39025225Y-102853434D01*
X38879361Y-103205581D01*
X38805000Y-103579419D01*
X37678072Y-103579419D01*
X37678072Y-102470000D01*
X37665812Y-102345518D01*
X37629502Y-102225820D01*
X37570537Y-102115506D01*
X37491185Y-102018815D01*
X37394494Y-101939463D01*
X37284180Y-101880498D01*
X37164482Y-101844188D01*
X37040000Y-101831928D01*
X34440000Y-101831928D01*
X34315518Y-101844188D01*
X34195820Y-101880498D01*
X34085506Y-101939463D01*
X33988815Y-102018815D01*
X33909463Y-102115506D01*
X33850498Y-102225820D01*
X33814188Y-102345518D01*
X33801928Y-102470000D01*
X19776504Y-102470000D01*
X19793013Y-102453491D01*
X20004775Y-102136566D01*
X20150639Y-101784419D01*
X20225000Y-101410581D01*
X20225000Y-101029419D01*
X20150639Y-100655581D01*
X20004775Y-100303434D01*
X19793013Y-99986509D01*
X19523491Y-99716987D01*
X19206566Y-99505225D01*
X18854419Y-99359361D01*
X18480581Y-99285000D01*
X18099419Y-99285000D01*
X17725581Y-99359361D01*
X17373434Y-99505225D01*
X17056509Y-99716987D01*
X16786987Y-99986509D01*
X16575225Y-100303434D01*
X16429361Y-100655581D01*
X16355000Y-101029419D01*
X14127000Y-101029419D01*
X14127000Y-96029419D01*
X16355000Y-96029419D01*
X16355000Y-96410581D01*
X16429361Y-96784419D01*
X16575225Y-97136566D01*
X16786987Y-97453491D01*
X17056509Y-97723013D01*
X17373434Y-97934775D01*
X17725581Y-98080639D01*
X18099419Y-98155000D01*
X18480581Y-98155000D01*
X18854419Y-98080639D01*
X19206566Y-97934775D01*
X19523491Y-97723013D01*
X19793013Y-97453491D01*
X20004775Y-97136566D01*
X20150639Y-96784419D01*
X20225000Y-96410581D01*
X20225000Y-96029419D01*
X20150639Y-95655581D01*
X20004775Y-95303434D01*
X19793013Y-94986509D01*
X19523491Y-94716987D01*
X19206566Y-94505225D01*
X18928389Y-94390000D01*
X30551928Y-94390000D01*
X30551928Y-96590000D01*
X30564188Y-96714482D01*
X30600498Y-96834180D01*
X30659463Y-96944494D01*
X30738815Y-97041185D01*
X30835506Y-97120537D01*
X30945820Y-97179502D01*
X31065518Y-97215812D01*
X31190000Y-97228072D01*
X33390000Y-97228072D01*
X33514482Y-97215812D01*
X33634180Y-97179502D01*
X33744494Y-97120537D01*
X33841185Y-97041185D01*
X33920537Y-96944494D01*
X33979502Y-96834180D01*
X34015812Y-96714482D01*
X34028072Y-96590000D01*
X34028072Y-95490000D01*
X43246606Y-95490000D01*
X43280105Y-95830119D01*
X43379314Y-96157168D01*
X43540421Y-96458578D01*
X43757234Y-96722766D01*
X44021422Y-96939579D01*
X44322832Y-97100686D01*
X44649881Y-97199895D01*
X44904775Y-97225000D01*
X45075225Y-97225000D01*
X45330119Y-97199895D01*
X45657168Y-97100686D01*
X45958578Y-96939579D01*
X46222766Y-96722766D01*
X46439579Y-96458578D01*
X46600686Y-96157168D01*
X46699895Y-95830119D01*
X46733394Y-95490000D01*
X46699895Y-95149881D01*
X46600686Y-94822832D01*
X46439579Y-94521422D01*
X46222766Y-94257234D01*
X45958578Y-94040421D01*
X45657168Y-93879314D01*
X45330119Y-93780105D01*
X45075225Y-93755000D01*
X44904775Y-93755000D01*
X44649881Y-93780105D01*
X44322832Y-93879314D01*
X44021422Y-94040421D01*
X43757234Y-94257234D01*
X43540421Y-94521422D01*
X43379314Y-94822832D01*
X43280105Y-95149881D01*
X43246606Y-95490000D01*
X34028072Y-95490000D01*
X34028072Y-94390000D01*
X34015812Y-94265518D01*
X33979502Y-94145820D01*
X33920537Y-94035506D01*
X33841185Y-93938815D01*
X33744494Y-93859463D01*
X33634180Y-93800498D01*
X33514482Y-93764188D01*
X33390000Y-93751928D01*
X31190000Y-93751928D01*
X31065518Y-93764188D01*
X30945820Y-93800498D01*
X30835506Y-93859463D01*
X30738815Y-93938815D01*
X30659463Y-94035506D01*
X30600498Y-94145820D01*
X30564188Y-94265518D01*
X30551928Y-94390000D01*
X18928389Y-94390000D01*
X18854419Y-94359361D01*
X18480581Y-94285000D01*
X18099419Y-94285000D01*
X17725581Y-94359361D01*
X17373434Y-94505225D01*
X17056509Y-94716987D01*
X16786987Y-94986509D01*
X16575225Y-95303434D01*
X16429361Y-95655581D01*
X16355000Y-96029419D01*
X14127000Y-96029419D01*
X14127000Y-91029419D01*
X16355000Y-91029419D01*
X16355000Y-91410581D01*
X16429361Y-91784419D01*
X16575225Y-92136566D01*
X16786987Y-92453491D01*
X17056509Y-92723013D01*
X17373434Y-92934775D01*
X17725581Y-93080639D01*
X18099419Y-93155000D01*
X18480581Y-93155000D01*
X18854419Y-93080639D01*
X19206566Y-92934775D01*
X19523491Y-92723013D01*
X19793013Y-92453491D01*
X20004775Y-92136566D01*
X20150639Y-91784419D01*
X20225000Y-91410581D01*
X20225000Y-91029419D01*
X20150639Y-90655581D01*
X20004775Y-90303434D01*
X19793013Y-89986509D01*
X19523491Y-89716987D01*
X19206566Y-89505225D01*
X18854419Y-89359361D01*
X18480581Y-89285000D01*
X18099419Y-89285000D01*
X17725581Y-89359361D01*
X17373434Y-89505225D01*
X17056509Y-89716987D01*
X16786987Y-89986509D01*
X16575225Y-90303434D01*
X16429361Y-90655581D01*
X16355000Y-91029419D01*
X14127000Y-91029419D01*
X14127000Y-87569224D01*
X17120381Y-87569224D01*
X17252317Y-87864312D01*
X17593045Y-88035159D01*
X17960557Y-88136250D01*
X18340729Y-88163701D01*
X18718951Y-88116457D01*
X19080690Y-87996333D01*
X19327683Y-87864312D01*
X19459619Y-87569224D01*
X18290000Y-86399605D01*
X17120381Y-87569224D01*
X14127000Y-87569224D01*
X14127000Y-86270729D01*
X16346299Y-86270729D01*
X16393543Y-86648951D01*
X16513667Y-87010690D01*
X16645688Y-87257683D01*
X16940776Y-87389619D01*
X18110395Y-86220000D01*
X18469605Y-86220000D01*
X19639224Y-87389619D01*
X19934312Y-87257683D01*
X20105159Y-86916955D01*
X20206250Y-86549443D01*
X20233701Y-86169271D01*
X20186457Y-85791049D01*
X20066333Y-85429310D01*
X19934312Y-85182317D01*
X19639224Y-85050381D01*
X18469605Y-86220000D01*
X18110395Y-86220000D01*
X16940776Y-85050381D01*
X16645688Y-85182317D01*
X16474841Y-85523045D01*
X16373750Y-85890557D01*
X16346299Y-86270729D01*
X14127000Y-86270729D01*
X14127000Y-84870776D01*
X17120381Y-84870776D01*
X18290000Y-86040395D01*
X19459619Y-84870776D01*
X19327683Y-84575688D01*
X18986955Y-84404841D01*
X18619443Y-84303750D01*
X18239271Y-84276299D01*
X17861049Y-84323543D01*
X17499310Y-84443667D01*
X17252317Y-84575688D01*
X17120381Y-84870776D01*
X14127000Y-84870776D01*
X14127000Y-81029419D01*
X16355000Y-81029419D01*
X16355000Y-81410581D01*
X16429361Y-81784419D01*
X16575225Y-82136566D01*
X16786987Y-82453491D01*
X17056509Y-82723013D01*
X17373434Y-82934775D01*
X17725581Y-83080639D01*
X18099419Y-83155000D01*
X18480581Y-83155000D01*
X18854419Y-83080639D01*
X19206566Y-82934775D01*
X19523491Y-82723013D01*
X19793013Y-82453491D01*
X20004775Y-82136566D01*
X20150639Y-81784419D01*
X20225000Y-81410581D01*
X20225000Y-81029419D01*
X20150639Y-80655581D01*
X20004775Y-80303434D01*
X19793013Y-79986509D01*
X19523491Y-79716987D01*
X19206566Y-79505225D01*
X18854419Y-79359361D01*
X18480581Y-79285000D01*
X18099419Y-79285000D01*
X17725581Y-79359361D01*
X17373434Y-79505225D01*
X17056509Y-79716987D01*
X16786987Y-79986509D01*
X16575225Y-80303434D01*
X16429361Y-80655581D01*
X16355000Y-81029419D01*
X14127000Y-81029419D01*
X14127000Y-76029419D01*
X16355000Y-76029419D01*
X16355000Y-76410581D01*
X16429361Y-76784419D01*
X16575225Y-77136566D01*
X16786987Y-77453491D01*
X17056509Y-77723013D01*
X17373434Y-77934775D01*
X17725581Y-78080639D01*
X18099419Y-78155000D01*
X18480581Y-78155000D01*
X18854419Y-78080639D01*
X19206566Y-77934775D01*
X19523491Y-77723013D01*
X19793013Y-77453491D01*
X20004775Y-77136566D01*
X20150639Y-76784419D01*
X20225000Y-76410581D01*
X20225000Y-76029419D01*
X20150639Y-75655581D01*
X20004775Y-75303434D01*
X19793013Y-74986509D01*
X19523491Y-74716987D01*
X19206566Y-74505225D01*
X18854419Y-74359361D01*
X18480581Y-74285000D01*
X18099419Y-74285000D01*
X17725581Y-74359361D01*
X17373434Y-74505225D01*
X17056509Y-74716987D01*
X16786987Y-74986509D01*
X16575225Y-75303434D01*
X16429361Y-75655581D01*
X16355000Y-76029419D01*
X14127000Y-76029419D01*
X14127000Y-71029419D01*
X16355000Y-71029419D01*
X16355000Y-71410581D01*
X16429361Y-71784419D01*
X16575225Y-72136566D01*
X16786987Y-72453491D01*
X17056509Y-72723013D01*
X17373434Y-72934775D01*
X17725581Y-73080639D01*
X18099419Y-73155000D01*
X18480581Y-73155000D01*
X18854419Y-73080639D01*
X19206566Y-72934775D01*
X19523491Y-72723013D01*
X19793013Y-72453491D01*
X20004775Y-72136566D01*
X20150639Y-71784419D01*
X20225000Y-71410581D01*
X20225000Y-71029419D01*
X20150639Y-70655581D01*
X20004775Y-70303434D01*
X19793013Y-69986509D01*
X19523491Y-69716987D01*
X19206566Y-69505225D01*
X18854419Y-69359361D01*
X18480581Y-69285000D01*
X18099419Y-69285000D01*
X17725581Y-69359361D01*
X17373434Y-69505225D01*
X17056509Y-69716987D01*
X16786987Y-69986509D01*
X16575225Y-70303434D01*
X16429361Y-70655581D01*
X16355000Y-71029419D01*
X14127000Y-71029419D01*
X14127000Y-67569224D01*
X17120381Y-67569224D01*
X17252317Y-67864312D01*
X17593045Y-68035159D01*
X17960557Y-68136250D01*
X18340729Y-68163701D01*
X18718951Y-68116457D01*
X19080690Y-67996333D01*
X19327683Y-67864312D01*
X19459619Y-67569224D01*
X18290000Y-66399605D01*
X17120381Y-67569224D01*
X14127000Y-67569224D01*
X14127000Y-66270729D01*
X16346299Y-66270729D01*
X16393543Y-66648951D01*
X16513667Y-67010690D01*
X16645688Y-67257683D01*
X16940776Y-67389619D01*
X18110395Y-66220000D01*
X18469605Y-66220000D01*
X19639224Y-67389619D01*
X19934312Y-67257683D01*
X20105159Y-66916955D01*
X20206250Y-66549443D01*
X20233701Y-66169271D01*
X20186457Y-65791049D01*
X20066333Y-65429310D01*
X19934312Y-65182317D01*
X19639224Y-65050381D01*
X18469605Y-66220000D01*
X18110395Y-66220000D01*
X16940776Y-65050381D01*
X16645688Y-65182317D01*
X16474841Y-65523045D01*
X16373750Y-65890557D01*
X16346299Y-66270729D01*
X14127000Y-66270729D01*
X14127000Y-64870776D01*
X17120381Y-64870776D01*
X18290000Y-66040395D01*
X19459619Y-64870776D01*
X19327683Y-64575688D01*
X18986955Y-64404841D01*
X18619443Y-64303750D01*
X18239271Y-64276299D01*
X17861049Y-64323543D01*
X17499310Y-64443667D01*
X17252317Y-64575688D01*
X17120381Y-64870776D01*
X14127000Y-64870776D01*
X14127000Y-61029419D01*
X16355000Y-61029419D01*
X16355000Y-61410581D01*
X16429361Y-61784419D01*
X16575225Y-62136566D01*
X16786987Y-62453491D01*
X17056509Y-62723013D01*
X17373434Y-62934775D01*
X17725581Y-63080639D01*
X18099419Y-63155000D01*
X18480581Y-63155000D01*
X18854419Y-63080639D01*
X19206566Y-62934775D01*
X19523491Y-62723013D01*
X19793013Y-62453491D01*
X20004775Y-62136566D01*
X20150639Y-61784419D01*
X20225000Y-61410581D01*
X20225000Y-61029419D01*
X20150639Y-60655581D01*
X20004775Y-60303434D01*
X19793013Y-59986509D01*
X19523491Y-59716987D01*
X19206566Y-59505225D01*
X18854419Y-59359361D01*
X18480581Y-59285000D01*
X18099419Y-59285000D01*
X17725581Y-59359361D01*
X17373434Y-59505225D01*
X17056509Y-59716987D01*
X16786987Y-59986509D01*
X16575225Y-60303434D01*
X16429361Y-60655581D01*
X16355000Y-61029419D01*
X14127000Y-61029419D01*
X14127000Y-58670000D01*
X27648057Y-58670000D01*
X27675764Y-58951309D01*
X27757818Y-59221808D01*
X27891068Y-59471101D01*
X28070392Y-59689608D01*
X28288899Y-59868932D01*
X28421858Y-59940000D01*
X28288899Y-60011068D01*
X28070392Y-60190392D01*
X27891068Y-60408899D01*
X27757818Y-60658192D01*
X27675764Y-60928691D01*
X27648057Y-61210000D01*
X27675764Y-61491309D01*
X27757818Y-61761808D01*
X27891068Y-62011101D01*
X28070392Y-62229608D01*
X28288899Y-62408932D01*
X28421858Y-62480000D01*
X28288899Y-62551068D01*
X28070392Y-62730392D01*
X27891068Y-62948899D01*
X27757818Y-63198192D01*
X27675764Y-63468691D01*
X27648057Y-63750000D01*
X27675764Y-64031309D01*
X27757818Y-64301808D01*
X27891068Y-64551101D01*
X28070392Y-64769608D01*
X28288899Y-64948932D01*
X28421858Y-65020000D01*
X28288899Y-65091068D01*
X28070392Y-65270392D01*
X27891068Y-65488899D01*
X27757818Y-65738192D01*
X27675764Y-66008691D01*
X27648057Y-66290000D01*
X27675764Y-66571309D01*
X27757818Y-66841808D01*
X27891068Y-67091101D01*
X28070392Y-67309608D01*
X28288899Y-67488932D01*
X28421858Y-67560000D01*
X28288899Y-67631068D01*
X28070392Y-67810392D01*
X27891068Y-68028899D01*
X27757818Y-68278192D01*
X27675764Y-68548691D01*
X27648057Y-68830000D01*
X27675764Y-69111309D01*
X27757818Y-69381808D01*
X27891068Y-69631101D01*
X28070392Y-69849608D01*
X28288899Y-70028932D01*
X28421858Y-70100000D01*
X28288899Y-70171068D01*
X28070392Y-70350392D01*
X27891068Y-70568899D01*
X27757818Y-70818192D01*
X27675764Y-71088691D01*
X27648057Y-71370000D01*
X27675764Y-71651309D01*
X27757818Y-71921808D01*
X27891068Y-72171101D01*
X28070392Y-72389608D01*
X28288899Y-72568932D01*
X28421858Y-72640000D01*
X28288899Y-72711068D01*
X28070392Y-72890392D01*
X27891068Y-73108899D01*
X27757818Y-73358192D01*
X27675764Y-73628691D01*
X27648057Y-73910000D01*
X27675764Y-74191309D01*
X27757818Y-74461808D01*
X27891068Y-74711101D01*
X28070392Y-74929608D01*
X28288899Y-75108932D01*
X28421858Y-75180000D01*
X28288899Y-75251068D01*
X28070392Y-75430392D01*
X27891068Y-75648899D01*
X27757818Y-75898192D01*
X27675764Y-76168691D01*
X27648057Y-76450000D01*
X27675764Y-76731309D01*
X27757818Y-77001808D01*
X27891068Y-77251101D01*
X28070392Y-77469608D01*
X28288899Y-77648932D01*
X28421858Y-77720000D01*
X28288899Y-77791068D01*
X28070392Y-77970392D01*
X27891068Y-78188899D01*
X27757818Y-78438192D01*
X27675764Y-78708691D01*
X27648057Y-78990000D01*
X27675764Y-79271309D01*
X27757818Y-79541808D01*
X27891068Y-79791101D01*
X28070392Y-80009608D01*
X28288899Y-80188932D01*
X28421858Y-80260000D01*
X28288899Y-80331068D01*
X28070392Y-80510392D01*
X27891068Y-80728899D01*
X27757818Y-80978192D01*
X27675764Y-81248691D01*
X27648057Y-81530000D01*
X27675764Y-81811309D01*
X27757818Y-82081808D01*
X27891068Y-82331101D01*
X28070392Y-82549608D01*
X28288899Y-82728932D01*
X28538192Y-82862182D01*
X28808691Y-82944236D01*
X29019508Y-82965000D01*
X29160492Y-82965000D01*
X29371309Y-82944236D01*
X29641808Y-82862182D01*
X29891101Y-82728932D01*
X30109608Y-82549608D01*
X30288932Y-82331101D01*
X30422182Y-82081808D01*
X30504236Y-81811309D01*
X30531943Y-81530000D01*
X30504236Y-81248691D01*
X30422182Y-80978192D01*
X30288932Y-80728899D01*
X30109608Y-80510392D01*
X29891101Y-80331068D01*
X29758142Y-80260000D01*
X29891101Y-80188932D01*
X30109608Y-80009608D01*
X30288932Y-79791101D01*
X30422182Y-79541808D01*
X30504236Y-79271309D01*
X30531943Y-78990000D01*
X30504236Y-78708691D01*
X30422182Y-78438192D01*
X30288932Y-78188899D01*
X30109608Y-77970392D01*
X29891101Y-77791068D01*
X29758142Y-77720000D01*
X29891101Y-77648932D01*
X30109608Y-77469608D01*
X30288932Y-77251101D01*
X30422182Y-77001808D01*
X30504236Y-76731309D01*
X30531943Y-76450000D01*
X30504236Y-76168691D01*
X30422182Y-75898192D01*
X30288932Y-75648899D01*
X30109608Y-75430392D01*
X29891101Y-75251068D01*
X29758142Y-75180000D01*
X29891101Y-75108932D01*
X30109608Y-74929608D01*
X30288932Y-74711101D01*
X30422182Y-74461808D01*
X30504236Y-74191309D01*
X30531943Y-73910000D01*
X30504236Y-73628691D01*
X30422182Y-73358192D01*
X30288932Y-73108899D01*
X30109608Y-72890392D01*
X29891101Y-72711068D01*
X29758142Y-72640000D01*
X29891101Y-72568932D01*
X30109608Y-72389608D01*
X30288932Y-72171101D01*
X30422182Y-71921808D01*
X30504236Y-71651309D01*
X30531943Y-71370000D01*
X30504236Y-71088691D01*
X30422182Y-70818192D01*
X30288932Y-70568899D01*
X30109608Y-70350392D01*
X29891101Y-70171068D01*
X29758142Y-70100000D01*
X29891101Y-70028932D01*
X30109608Y-69849608D01*
X30288932Y-69631101D01*
X30422182Y-69381808D01*
X30504236Y-69111309D01*
X30531943Y-68830000D01*
X30504236Y-68548691D01*
X30422182Y-68278192D01*
X30288932Y-68028899D01*
X30109608Y-67810392D01*
X29891101Y-67631068D01*
X29758142Y-67560000D01*
X29891101Y-67488932D01*
X30109608Y-67309608D01*
X30288932Y-67091101D01*
X30422182Y-66841808D01*
X30504236Y-66571309D01*
X30531943Y-66290000D01*
X30504236Y-66008691D01*
X30422182Y-65738192D01*
X30288932Y-65488899D01*
X30109608Y-65270392D01*
X29891101Y-65091068D01*
X29758142Y-65020000D01*
X29891101Y-64948932D01*
X30109608Y-64769608D01*
X30288932Y-64551101D01*
X30422182Y-64301808D01*
X30504236Y-64031309D01*
X30531943Y-63750000D01*
X30504236Y-63468691D01*
X30422182Y-63198192D01*
X30288932Y-62948899D01*
X30109608Y-62730392D01*
X29891101Y-62551068D01*
X29758142Y-62480000D01*
X29891101Y-62408932D01*
X30109608Y-62229608D01*
X30288932Y-62011101D01*
X30422182Y-61761808D01*
X30504236Y-61491309D01*
X30531943Y-61210000D01*
X35268057Y-61210000D01*
X35295764Y-61491309D01*
X35377818Y-61761808D01*
X35511068Y-62011101D01*
X35690392Y-62229608D01*
X35908899Y-62408932D01*
X36041858Y-62480000D01*
X35908899Y-62551068D01*
X35690392Y-62730392D01*
X35511068Y-62948899D01*
X35377818Y-63198192D01*
X35295764Y-63468691D01*
X35268057Y-63750000D01*
X35295764Y-64031309D01*
X35377818Y-64301808D01*
X35511068Y-64551101D01*
X35690392Y-64769608D01*
X35908899Y-64948932D01*
X36041858Y-65020000D01*
X35908899Y-65091068D01*
X35690392Y-65270392D01*
X35511068Y-65488899D01*
X35377818Y-65738192D01*
X35295764Y-66008691D01*
X35268057Y-66290000D01*
X35295764Y-66571309D01*
X35377818Y-66841808D01*
X35511068Y-67091101D01*
X35690392Y-67309608D01*
X35908899Y-67488932D01*
X36041858Y-67560000D01*
X35908899Y-67631068D01*
X35690392Y-67810392D01*
X35511068Y-68028899D01*
X35377818Y-68278192D01*
X35295764Y-68548691D01*
X35268057Y-68830000D01*
X35295764Y-69111309D01*
X35377818Y-69381808D01*
X35511068Y-69631101D01*
X35690392Y-69849608D01*
X35908899Y-70028932D01*
X36041858Y-70100000D01*
X35908899Y-70171068D01*
X35690392Y-70350392D01*
X35511068Y-70568899D01*
X35377818Y-70818192D01*
X35295764Y-71088691D01*
X35268057Y-71370000D01*
X35295764Y-71651309D01*
X35377818Y-71921808D01*
X35511068Y-72171101D01*
X35690392Y-72389608D01*
X35908899Y-72568932D01*
X36041858Y-72640000D01*
X35908899Y-72711068D01*
X35690392Y-72890392D01*
X35511068Y-73108899D01*
X35377818Y-73358192D01*
X35295764Y-73628691D01*
X35268057Y-73910000D01*
X35295764Y-74191309D01*
X35377818Y-74461808D01*
X35511068Y-74711101D01*
X35690392Y-74929608D01*
X35908899Y-75108932D01*
X36041858Y-75180000D01*
X35908899Y-75251068D01*
X35690392Y-75430392D01*
X35511068Y-75648899D01*
X35377818Y-75898192D01*
X35295764Y-76168691D01*
X35268057Y-76450000D01*
X35295764Y-76731309D01*
X35377818Y-77001808D01*
X35511068Y-77251101D01*
X35690392Y-77469608D01*
X35908899Y-77648932D01*
X36041858Y-77720000D01*
X35908899Y-77791068D01*
X35690392Y-77970392D01*
X35511068Y-78188899D01*
X35377818Y-78438192D01*
X35295764Y-78708691D01*
X35268057Y-78990000D01*
X35295764Y-79271309D01*
X35377818Y-79541808D01*
X35511068Y-79791101D01*
X35690392Y-80009608D01*
X35803482Y-80102419D01*
X35785518Y-80104188D01*
X35665820Y-80140498D01*
X35555506Y-80199463D01*
X35458815Y-80278815D01*
X35379463Y-80375506D01*
X35320498Y-80485820D01*
X35284188Y-80605518D01*
X35271928Y-80730000D01*
X35271928Y-82330000D01*
X35284188Y-82454482D01*
X35320498Y-82574180D01*
X35379463Y-82684494D01*
X35458815Y-82781185D01*
X35555506Y-82860537D01*
X35665820Y-82919502D01*
X35785518Y-82955812D01*
X35910000Y-82968072D01*
X37510000Y-82968072D01*
X37634482Y-82955812D01*
X37754180Y-82919502D01*
X37864494Y-82860537D01*
X37961185Y-82781185D01*
X38040537Y-82684494D01*
X38099502Y-82574180D01*
X38135812Y-82454482D01*
X38148072Y-82330000D01*
X38148072Y-80730000D01*
X38135812Y-80605518D01*
X38099502Y-80485820D01*
X38040537Y-80375506D01*
X37961185Y-80278815D01*
X37864494Y-80199463D01*
X37754180Y-80140498D01*
X37634482Y-80104188D01*
X37616518Y-80102419D01*
X37729608Y-80009608D01*
X37908932Y-79791101D01*
X38042182Y-79541808D01*
X38124236Y-79271309D01*
X38137263Y-79139039D01*
X40908096Y-79139039D01*
X40948754Y-79273087D01*
X41068963Y-79527420D01*
X41236481Y-79753414D01*
X41444869Y-79942385D01*
X41686119Y-80087070D01*
X41950960Y-80181909D01*
X42173000Y-80060624D01*
X42173000Y-78917000D01*
X42427000Y-78917000D01*
X42427000Y-80060624D01*
X42649040Y-80181909D01*
X42913881Y-80087070D01*
X43155131Y-79942385D01*
X43363519Y-79753414D01*
X43531037Y-79527420D01*
X43651246Y-79273087D01*
X43691904Y-79139039D01*
X43569915Y-78917000D01*
X42427000Y-78917000D01*
X42173000Y-78917000D01*
X41030085Y-78917000D01*
X40908096Y-79139039D01*
X38137263Y-79139039D01*
X38151943Y-78990000D01*
X38124236Y-78708691D01*
X38042182Y-78438192D01*
X37908932Y-78188899D01*
X37729608Y-77970392D01*
X37511101Y-77791068D01*
X37378142Y-77720000D01*
X37511101Y-77648932D01*
X37729608Y-77469608D01*
X37908932Y-77251101D01*
X38042182Y-77001808D01*
X38124236Y-76731309D01*
X38151943Y-76450000D01*
X38124236Y-76168691D01*
X38042182Y-75898192D01*
X37908932Y-75648899D01*
X37729608Y-75430392D01*
X37511101Y-75251068D01*
X37378142Y-75180000D01*
X37511101Y-75108932D01*
X37729608Y-74929608D01*
X37908932Y-74711101D01*
X38042182Y-74461808D01*
X38124236Y-74191309D01*
X38151943Y-73910000D01*
X38124236Y-73628691D01*
X38042182Y-73358192D01*
X37908932Y-73108899D01*
X37729608Y-72890392D01*
X37511101Y-72711068D01*
X37378142Y-72640000D01*
X37511101Y-72568932D01*
X37729608Y-72389608D01*
X37908932Y-72171101D01*
X38042182Y-71921808D01*
X38124236Y-71651309D01*
X38151943Y-71370000D01*
X38124236Y-71088691D01*
X38042182Y-70818192D01*
X37908932Y-70568899D01*
X37729608Y-70350392D01*
X37511101Y-70171068D01*
X37378142Y-70100000D01*
X37511101Y-70028932D01*
X37729608Y-69849608D01*
X37908932Y-69631101D01*
X38042182Y-69381808D01*
X38124236Y-69111309D01*
X38151943Y-68830000D01*
X38124236Y-68548691D01*
X38042182Y-68278192D01*
X37908932Y-68028899D01*
X37729608Y-67810392D01*
X37511101Y-67631068D01*
X37378142Y-67560000D01*
X37511101Y-67488932D01*
X37729608Y-67309608D01*
X37908932Y-67091101D01*
X38042182Y-66841808D01*
X38124236Y-66571309D01*
X38151943Y-66290000D01*
X38124236Y-66008691D01*
X38042182Y-65738192D01*
X37908932Y-65488899D01*
X37729608Y-65270392D01*
X37511101Y-65091068D01*
X37378142Y-65020000D01*
X37511101Y-64948932D01*
X37729608Y-64769608D01*
X37908932Y-64551101D01*
X38042182Y-64301808D01*
X38124236Y-64031309D01*
X38151943Y-63750000D01*
X38132245Y-63550000D01*
X40858057Y-63550000D01*
X40885764Y-63831309D01*
X40967818Y-64101808D01*
X41101068Y-64351101D01*
X41280392Y-64569608D01*
X41498899Y-64748932D01*
X41631858Y-64820000D01*
X41498899Y-64891068D01*
X41280392Y-65070392D01*
X41101068Y-65288899D01*
X40967818Y-65538192D01*
X40885764Y-65808691D01*
X40858057Y-66090000D01*
X40885764Y-66371309D01*
X40967818Y-66641808D01*
X41101068Y-66891101D01*
X41280392Y-67109608D01*
X41498899Y-67288932D01*
X41631858Y-67360000D01*
X41498899Y-67431068D01*
X41280392Y-67610392D01*
X41101068Y-67828899D01*
X40967818Y-68078192D01*
X40885764Y-68348691D01*
X40858057Y-68630000D01*
X40885764Y-68911309D01*
X40967818Y-69181808D01*
X41101068Y-69431101D01*
X41280392Y-69649608D01*
X41498899Y-69828932D01*
X41631858Y-69900000D01*
X41498899Y-69971068D01*
X41280392Y-70150392D01*
X41101068Y-70368899D01*
X40967818Y-70618192D01*
X40885764Y-70888691D01*
X40858057Y-71170000D01*
X40885764Y-71451309D01*
X40967818Y-71721808D01*
X41101068Y-71971101D01*
X41280392Y-72189608D01*
X41498899Y-72368932D01*
X41631858Y-72440000D01*
X41498899Y-72511068D01*
X41280392Y-72690392D01*
X41101068Y-72908899D01*
X40967818Y-73158192D01*
X40885764Y-73428691D01*
X40858057Y-73710000D01*
X40885764Y-73991309D01*
X40967818Y-74261808D01*
X41101068Y-74511101D01*
X41280392Y-74729608D01*
X41498899Y-74908932D01*
X41631858Y-74980000D01*
X41498899Y-75051068D01*
X41280392Y-75230392D01*
X41101068Y-75448899D01*
X40967818Y-75698192D01*
X40885764Y-75968691D01*
X40858057Y-76250000D01*
X40885764Y-76531309D01*
X40967818Y-76801808D01*
X41101068Y-77051101D01*
X41280392Y-77269608D01*
X41498899Y-77448932D01*
X41636682Y-77522579D01*
X41444869Y-77637615D01*
X41236481Y-77826586D01*
X41068963Y-78052580D01*
X40948754Y-78306913D01*
X40908096Y-78440961D01*
X41030085Y-78663000D01*
X42173000Y-78663000D01*
X42173000Y-78643000D01*
X42427000Y-78643000D01*
X42427000Y-78663000D01*
X43569915Y-78663000D01*
X43691904Y-78440961D01*
X43651246Y-78306913D01*
X43531037Y-78052580D01*
X43363519Y-77826586D01*
X43155131Y-77637615D01*
X42963318Y-77522579D01*
X43101101Y-77448932D01*
X43319608Y-77269608D01*
X43498932Y-77051101D01*
X43632182Y-76801808D01*
X43714236Y-76531309D01*
X43741943Y-76250000D01*
X43714236Y-75968691D01*
X43632182Y-75698192D01*
X43498932Y-75448899D01*
X43319608Y-75230392D01*
X43101101Y-75051068D01*
X42968142Y-74980000D01*
X43101101Y-74908932D01*
X43319608Y-74729608D01*
X43498932Y-74511101D01*
X43632182Y-74261808D01*
X43714236Y-73991309D01*
X43741943Y-73710000D01*
X43714236Y-73428691D01*
X43632182Y-73158192D01*
X43498932Y-72908899D01*
X43319608Y-72690392D01*
X43101101Y-72511068D01*
X42968142Y-72440000D01*
X43101101Y-72368932D01*
X43319608Y-72189608D01*
X43498932Y-71971101D01*
X43632182Y-71721808D01*
X43714236Y-71451309D01*
X43741943Y-71170000D01*
X43714236Y-70888691D01*
X43632182Y-70618192D01*
X43498932Y-70368899D01*
X43319608Y-70150392D01*
X43101101Y-69971068D01*
X42968142Y-69900000D01*
X43101101Y-69828932D01*
X43319608Y-69649608D01*
X43498932Y-69431101D01*
X43632182Y-69181808D01*
X43714236Y-68911309D01*
X43741943Y-68630000D01*
X43714236Y-68348691D01*
X43632182Y-68078192D01*
X43498932Y-67828899D01*
X43319608Y-67610392D01*
X43101101Y-67431068D01*
X42968142Y-67360000D01*
X43101101Y-67288932D01*
X43319608Y-67109608D01*
X43498932Y-66891101D01*
X43632182Y-66641808D01*
X43714236Y-66371309D01*
X43741943Y-66090000D01*
X43714236Y-65808691D01*
X43632182Y-65538192D01*
X43498932Y-65288899D01*
X43319608Y-65070392D01*
X43101101Y-64891068D01*
X42968142Y-64820000D01*
X43101101Y-64748932D01*
X43319608Y-64569608D01*
X43498932Y-64351101D01*
X43632182Y-64101808D01*
X43714236Y-63831309D01*
X43741943Y-63550000D01*
X43714236Y-63268691D01*
X43632182Y-62998192D01*
X43498932Y-62748899D01*
X43319608Y-62530392D01*
X43206518Y-62437581D01*
X43224482Y-62435812D01*
X43344180Y-62399502D01*
X43454494Y-62340537D01*
X43551185Y-62261185D01*
X43630537Y-62164494D01*
X43689502Y-62054180D01*
X43725812Y-61934482D01*
X43738072Y-61810000D01*
X43738072Y-61010000D01*
X48478057Y-61010000D01*
X48505764Y-61291309D01*
X48587818Y-61561808D01*
X48721068Y-61811101D01*
X48900392Y-62029608D01*
X49118899Y-62208932D01*
X49251858Y-62280000D01*
X49118899Y-62351068D01*
X48900392Y-62530392D01*
X48721068Y-62748899D01*
X48587818Y-62998192D01*
X48505764Y-63268691D01*
X48478057Y-63550000D01*
X48505764Y-63831309D01*
X48587818Y-64101808D01*
X48721068Y-64351101D01*
X48900392Y-64569608D01*
X49118899Y-64748932D01*
X49251858Y-64820000D01*
X49118899Y-64891068D01*
X48900392Y-65070392D01*
X48721068Y-65288899D01*
X48587818Y-65538192D01*
X48505764Y-65808691D01*
X48478057Y-66090000D01*
X48505764Y-66371309D01*
X48587818Y-66641808D01*
X48721068Y-66891101D01*
X48900392Y-67109608D01*
X49118899Y-67288932D01*
X49251858Y-67360000D01*
X49118899Y-67431068D01*
X48900392Y-67610392D01*
X48721068Y-67828899D01*
X48587818Y-68078192D01*
X48505764Y-68348691D01*
X48478057Y-68630000D01*
X48505764Y-68911309D01*
X48587818Y-69181808D01*
X48721068Y-69431101D01*
X48900392Y-69649608D01*
X49118899Y-69828932D01*
X49251858Y-69900000D01*
X49118899Y-69971068D01*
X48900392Y-70150392D01*
X48721068Y-70368899D01*
X48587818Y-70618192D01*
X48505764Y-70888691D01*
X48478057Y-71170000D01*
X48505764Y-71451309D01*
X48587818Y-71721808D01*
X48721068Y-71971101D01*
X48900392Y-72189608D01*
X49118899Y-72368932D01*
X49251858Y-72440000D01*
X49118899Y-72511068D01*
X48900392Y-72690392D01*
X48721068Y-72908899D01*
X48587818Y-73158192D01*
X48505764Y-73428691D01*
X48478057Y-73710000D01*
X48505764Y-73991309D01*
X48587818Y-74261808D01*
X48721068Y-74511101D01*
X48900392Y-74729608D01*
X49118899Y-74908932D01*
X49251858Y-74980000D01*
X49118899Y-75051068D01*
X48900392Y-75230392D01*
X48721068Y-75448899D01*
X48587818Y-75698192D01*
X48505764Y-75968691D01*
X48478057Y-76250000D01*
X48505764Y-76531309D01*
X48587818Y-76801808D01*
X48721068Y-77051101D01*
X48900392Y-77269608D01*
X49118899Y-77448932D01*
X49251858Y-77520000D01*
X49118899Y-77591068D01*
X48900392Y-77770392D01*
X48721068Y-77988899D01*
X48587818Y-78238192D01*
X48505764Y-78508691D01*
X48478057Y-78790000D01*
X48505764Y-79071309D01*
X48587818Y-79341808D01*
X48721068Y-79591101D01*
X48900392Y-79809608D01*
X49118899Y-79988932D01*
X49368192Y-80122182D01*
X49638691Y-80204236D01*
X49849508Y-80225000D01*
X49990492Y-80225000D01*
X50201309Y-80204236D01*
X50471808Y-80122182D01*
X50721101Y-79988932D01*
X50939608Y-79809608D01*
X51118932Y-79591101D01*
X51252182Y-79341808D01*
X51334236Y-79071309D01*
X51361943Y-78790000D01*
X51334236Y-78508691D01*
X51252182Y-78238192D01*
X51118932Y-77988899D01*
X50939608Y-77770392D01*
X50721101Y-77591068D01*
X50588142Y-77520000D01*
X50721101Y-77448932D01*
X50939608Y-77269608D01*
X51118932Y-77051101D01*
X51252182Y-76801808D01*
X51334236Y-76531309D01*
X51361943Y-76250000D01*
X51334236Y-75968691D01*
X51252182Y-75698192D01*
X51118932Y-75448899D01*
X50939608Y-75230392D01*
X50721101Y-75051068D01*
X50588142Y-74980000D01*
X50721101Y-74908932D01*
X50939608Y-74729608D01*
X51118932Y-74511101D01*
X51252182Y-74261808D01*
X51334236Y-73991309D01*
X51361943Y-73710000D01*
X51334236Y-73428691D01*
X51252182Y-73158192D01*
X51118932Y-72908899D01*
X50939608Y-72690392D01*
X50721101Y-72511068D01*
X50588142Y-72440000D01*
X50721101Y-72368932D01*
X50939608Y-72189608D01*
X51118932Y-71971101D01*
X51252182Y-71721808D01*
X51334236Y-71451309D01*
X51361943Y-71170000D01*
X51334236Y-70888691D01*
X51252182Y-70618192D01*
X51118932Y-70368899D01*
X50939608Y-70150392D01*
X50721101Y-69971068D01*
X50588142Y-69900000D01*
X50721101Y-69828932D01*
X50939608Y-69649608D01*
X51118932Y-69431101D01*
X51252182Y-69181808D01*
X51334236Y-68911309D01*
X51361943Y-68630000D01*
X51334236Y-68348691D01*
X51252182Y-68078192D01*
X51118932Y-67828899D01*
X50939608Y-67610392D01*
X50721101Y-67431068D01*
X50588142Y-67360000D01*
X50721101Y-67288932D01*
X50939608Y-67109608D01*
X51118932Y-66891101D01*
X51252182Y-66641808D01*
X51334236Y-66371309D01*
X51361943Y-66090000D01*
X51334236Y-65808691D01*
X51252182Y-65538192D01*
X51118932Y-65288899D01*
X50939608Y-65070392D01*
X50721101Y-64891068D01*
X50588142Y-64820000D01*
X50721101Y-64748932D01*
X50939608Y-64569608D01*
X51118932Y-64351101D01*
X51252182Y-64101808D01*
X51334236Y-63831309D01*
X51361943Y-63550000D01*
X51334236Y-63268691D01*
X51252182Y-62998192D01*
X51118932Y-62748899D01*
X50939608Y-62530392D01*
X50721101Y-62351068D01*
X50588142Y-62280000D01*
X50721101Y-62208932D01*
X50939608Y-62029608D01*
X51118932Y-61811101D01*
X51252182Y-61561808D01*
X51334236Y-61291309D01*
X51361943Y-61010000D01*
X51334236Y-60728691D01*
X51252182Y-60458192D01*
X51118932Y-60208899D01*
X50939608Y-59990392D01*
X50721101Y-59811068D01*
X50471808Y-59677818D01*
X50201309Y-59595764D01*
X49990492Y-59575000D01*
X49849508Y-59575000D01*
X49638691Y-59595764D01*
X49368192Y-59677818D01*
X49118899Y-59811068D01*
X48900392Y-59990392D01*
X48721068Y-60208899D01*
X48587818Y-60458192D01*
X48505764Y-60728691D01*
X48478057Y-61010000D01*
X43738072Y-61010000D01*
X43738072Y-60210000D01*
X43725812Y-60085518D01*
X43689502Y-59965820D01*
X43630537Y-59855506D01*
X43551185Y-59758815D01*
X43454494Y-59679463D01*
X43344180Y-59620498D01*
X43224482Y-59584188D01*
X43100000Y-59571928D01*
X41500000Y-59571928D01*
X41375518Y-59584188D01*
X41255820Y-59620498D01*
X41145506Y-59679463D01*
X41048815Y-59758815D01*
X40969463Y-59855506D01*
X40910498Y-59965820D01*
X40874188Y-60085518D01*
X40861928Y-60210000D01*
X40861928Y-61810000D01*
X40874188Y-61934482D01*
X40910498Y-62054180D01*
X40969463Y-62164494D01*
X41048815Y-62261185D01*
X41145506Y-62340537D01*
X41255820Y-62399502D01*
X41375518Y-62435812D01*
X41393482Y-62437581D01*
X41280392Y-62530392D01*
X41101068Y-62748899D01*
X40967818Y-62998192D01*
X40885764Y-63268691D01*
X40858057Y-63550000D01*
X38132245Y-63550000D01*
X38124236Y-63468691D01*
X38042182Y-63198192D01*
X37908932Y-62948899D01*
X37729608Y-62730392D01*
X37511101Y-62551068D01*
X37378142Y-62480000D01*
X37511101Y-62408932D01*
X37729608Y-62229608D01*
X37908932Y-62011101D01*
X38042182Y-61761808D01*
X38124236Y-61491309D01*
X38151943Y-61210000D01*
X38124236Y-60928691D01*
X38042182Y-60658192D01*
X37908932Y-60408899D01*
X37729608Y-60190392D01*
X37511101Y-60011068D01*
X37373318Y-59937421D01*
X37565131Y-59822385D01*
X37773519Y-59633414D01*
X37941037Y-59407420D01*
X38061246Y-59153087D01*
X38101904Y-59019039D01*
X37979915Y-58797000D01*
X36837000Y-58797000D01*
X36837000Y-58817000D01*
X36583000Y-58817000D01*
X36583000Y-58797000D01*
X35440085Y-58797000D01*
X35318096Y-59019039D01*
X35358754Y-59153087D01*
X35478963Y-59407420D01*
X35646481Y-59633414D01*
X35854869Y-59822385D01*
X36046682Y-59937421D01*
X35908899Y-60011068D01*
X35690392Y-60190392D01*
X35511068Y-60408899D01*
X35377818Y-60658192D01*
X35295764Y-60928691D01*
X35268057Y-61210000D01*
X30531943Y-61210000D01*
X30504236Y-60928691D01*
X30422182Y-60658192D01*
X30288932Y-60408899D01*
X30109608Y-60190392D01*
X29891101Y-60011068D01*
X29758142Y-59940000D01*
X29891101Y-59868932D01*
X30109608Y-59689608D01*
X30288932Y-59471101D01*
X30422182Y-59221808D01*
X30504236Y-58951309D01*
X30531943Y-58670000D01*
X30504236Y-58388691D01*
X30483691Y-58320961D01*
X35318096Y-58320961D01*
X35440085Y-58543000D01*
X36583000Y-58543000D01*
X36583000Y-57399376D01*
X36837000Y-57399376D01*
X36837000Y-58543000D01*
X37979915Y-58543000D01*
X38101904Y-58320961D01*
X38061246Y-58186913D01*
X37941037Y-57932580D01*
X37773519Y-57706586D01*
X37565131Y-57517615D01*
X37323881Y-57372930D01*
X37059040Y-57278091D01*
X36837000Y-57399376D01*
X36583000Y-57399376D01*
X36360960Y-57278091D01*
X36096119Y-57372930D01*
X35854869Y-57517615D01*
X35646481Y-57706586D01*
X35478963Y-57932580D01*
X35358754Y-58186913D01*
X35318096Y-58320961D01*
X30483691Y-58320961D01*
X30422182Y-58118192D01*
X30288932Y-57868899D01*
X30109608Y-57650392D01*
X29891101Y-57471068D01*
X29641808Y-57337818D01*
X29371309Y-57255764D01*
X29160492Y-57235000D01*
X29019508Y-57235000D01*
X28808691Y-57255764D01*
X28538192Y-57337818D01*
X28288899Y-57471068D01*
X28070392Y-57650392D01*
X27891068Y-57868899D01*
X27757818Y-58118192D01*
X27675764Y-58388691D01*
X27648057Y-58670000D01*
X14127000Y-58670000D01*
X14127000Y-57569224D01*
X17120381Y-57569224D01*
X17252317Y-57864312D01*
X17593045Y-58035159D01*
X17960557Y-58136250D01*
X18340729Y-58163701D01*
X18718951Y-58116457D01*
X19080690Y-57996333D01*
X19327683Y-57864312D01*
X19459619Y-57569224D01*
X18290000Y-56399605D01*
X17120381Y-57569224D01*
X14127000Y-57569224D01*
X14127000Y-56270729D01*
X16346299Y-56270729D01*
X16393543Y-56648951D01*
X16513667Y-57010690D01*
X16645688Y-57257683D01*
X16940776Y-57389619D01*
X18110395Y-56220000D01*
X18469605Y-56220000D01*
X19639224Y-57389619D01*
X19934312Y-57257683D01*
X20105159Y-56916955D01*
X20206250Y-56549443D01*
X20233701Y-56169271D01*
X20186457Y-55791049D01*
X20066333Y-55429310D01*
X19934312Y-55182317D01*
X19639224Y-55050381D01*
X18469605Y-56220000D01*
X18110395Y-56220000D01*
X16940776Y-55050381D01*
X16645688Y-55182317D01*
X16474841Y-55523045D01*
X16373750Y-55890557D01*
X16346299Y-56270729D01*
X14127000Y-56270729D01*
X14127000Y-54870776D01*
X17120381Y-54870776D01*
X18290000Y-56040395D01*
X19459619Y-54870776D01*
X19327683Y-54575688D01*
X18986955Y-54404841D01*
X18619443Y-54303750D01*
X18239271Y-54276299D01*
X17861049Y-54323543D01*
X17499310Y-54443667D01*
X17252317Y-54575688D01*
X17120381Y-54870776D01*
X14127000Y-54870776D01*
X14127000Y-51029419D01*
X16355000Y-51029419D01*
X16355000Y-51410581D01*
X16429361Y-51784419D01*
X16575225Y-52136566D01*
X16786987Y-52453491D01*
X17056509Y-52723013D01*
X17373434Y-52934775D01*
X17725581Y-53080639D01*
X18099419Y-53155000D01*
X18480581Y-53155000D01*
X18854419Y-53080639D01*
X19206566Y-52934775D01*
X19523491Y-52723013D01*
X19793013Y-52453491D01*
X20004775Y-52136566D01*
X20150639Y-51784419D01*
X20175387Y-51660000D01*
X44601928Y-51660000D01*
X44614188Y-51784482D01*
X44650498Y-51904180D01*
X44709463Y-52014494D01*
X44788815Y-52111185D01*
X44885506Y-52190537D01*
X44995820Y-52249502D01*
X45115518Y-52285812D01*
X45240000Y-52298072D01*
X45854250Y-52295000D01*
X46013000Y-52136250D01*
X46013000Y-50887000D01*
X46267000Y-50887000D01*
X46267000Y-52136250D01*
X46425750Y-52295000D01*
X47040000Y-52298072D01*
X47164482Y-52285812D01*
X47284180Y-52249502D01*
X47394494Y-52190537D01*
X47491185Y-52111185D01*
X47570537Y-52014494D01*
X47629502Y-51904180D01*
X47665812Y-51784482D01*
X47678072Y-51660000D01*
X47675000Y-51045750D01*
X47516250Y-50887000D01*
X46267000Y-50887000D01*
X46013000Y-50887000D01*
X44763750Y-50887000D01*
X44605000Y-51045750D01*
X44601928Y-51660000D01*
X20175387Y-51660000D01*
X20225000Y-51410581D01*
X20225000Y-51029419D01*
X20150639Y-50655581D01*
X20004775Y-50303434D01*
X19793013Y-49986509D01*
X19526504Y-49720000D01*
X26128057Y-49720000D01*
X26155764Y-50001309D01*
X26237818Y-50271808D01*
X26371068Y-50521101D01*
X26550392Y-50739608D01*
X26768899Y-50918932D01*
X27018192Y-51052182D01*
X27288691Y-51134236D01*
X27499508Y-51155000D01*
X27640492Y-51155000D01*
X27851309Y-51134236D01*
X28121808Y-51052182D01*
X28371101Y-50918932D01*
X28589608Y-50739608D01*
X28768932Y-50521101D01*
X28902182Y-50271808D01*
X28984236Y-50001309D01*
X29011943Y-49720000D01*
X28998023Y-49578665D01*
X38835000Y-49578665D01*
X38835000Y-49861335D01*
X38890147Y-50138574D01*
X38998320Y-50399727D01*
X39155363Y-50634759D01*
X39355241Y-50834637D01*
X39590273Y-50991680D01*
X39851426Y-51099853D01*
X40128665Y-51155000D01*
X40411335Y-51155000D01*
X40688574Y-51099853D01*
X40949727Y-50991680D01*
X41184759Y-50834637D01*
X41384637Y-50634759D01*
X41541680Y-50399727D01*
X41649853Y-50138574D01*
X41705000Y-49861335D01*
X41705000Y-49860000D01*
X44601928Y-49860000D01*
X44605000Y-50474250D01*
X44763750Y-50633000D01*
X46013000Y-50633000D01*
X46013000Y-50613000D01*
X46267000Y-50613000D01*
X46267000Y-50633000D01*
X47516250Y-50633000D01*
X47675000Y-50474250D01*
X47675321Y-50410000D01*
X50611928Y-50410000D01*
X50624188Y-50534482D01*
X50660498Y-50654180D01*
X50719463Y-50764494D01*
X50798815Y-50861185D01*
X50895506Y-50940537D01*
X51005820Y-50999502D01*
X51125518Y-51035812D01*
X51250000Y-51048072D01*
X51864250Y-51045000D01*
X52023000Y-50886250D01*
X52023000Y-49637000D01*
X50773750Y-49637000D01*
X50615000Y-49795750D01*
X50611928Y-50410000D01*
X47675321Y-50410000D01*
X47678072Y-49860000D01*
X47665812Y-49735518D01*
X47629502Y-49615820D01*
X47570537Y-49505506D01*
X47491185Y-49408815D01*
X47394494Y-49329463D01*
X47284180Y-49270498D01*
X47265873Y-49264944D01*
X47332312Y-49198505D01*
X47500299Y-48947095D01*
X47616011Y-48667743D01*
X47627496Y-48610000D01*
X50611928Y-48610000D01*
X50615000Y-49224250D01*
X50773750Y-49383000D01*
X52023000Y-49383000D01*
X52023000Y-48133750D01*
X52277000Y-48133750D01*
X52277000Y-49383000D01*
X52297000Y-49383000D01*
X52297000Y-49637000D01*
X52277000Y-49637000D01*
X52277000Y-50886250D01*
X52435750Y-51045000D01*
X53050000Y-51048072D01*
X53174482Y-51035812D01*
X53294180Y-50999502D01*
X53404494Y-50940537D01*
X53501185Y-50861185D01*
X53580537Y-50764494D01*
X53639502Y-50654180D01*
X53645056Y-50635873D01*
X53711495Y-50702312D01*
X53962905Y-50870299D01*
X54242257Y-50986011D01*
X54538816Y-51045000D01*
X54841184Y-51045000D01*
X55137743Y-50986011D01*
X55417095Y-50870299D01*
X55668505Y-50702312D01*
X55882312Y-50488505D01*
X56050299Y-50237095D01*
X56166011Y-49957743D01*
X56225000Y-49661184D01*
X56225000Y-49358816D01*
X56166011Y-49062257D01*
X56050299Y-48782905D01*
X55882312Y-48531495D01*
X55668505Y-48317688D01*
X55417095Y-48149701D01*
X55137743Y-48033989D01*
X54841184Y-47975000D01*
X54538816Y-47975000D01*
X54242257Y-48033989D01*
X53962905Y-48149701D01*
X53711495Y-48317688D01*
X53645056Y-48384127D01*
X53639502Y-48365820D01*
X53580537Y-48255506D01*
X53501185Y-48158815D01*
X53404494Y-48079463D01*
X53294180Y-48020498D01*
X53174482Y-47984188D01*
X53050000Y-47971928D01*
X52435750Y-47975000D01*
X52277000Y-48133750D01*
X52023000Y-48133750D01*
X51864250Y-47975000D01*
X51250000Y-47971928D01*
X51125518Y-47984188D01*
X51005820Y-48020498D01*
X50895506Y-48079463D01*
X50798815Y-48158815D01*
X50719463Y-48255506D01*
X50660498Y-48365820D01*
X50624188Y-48485518D01*
X50611928Y-48610000D01*
X47627496Y-48610000D01*
X47675000Y-48371184D01*
X47675000Y-48068816D01*
X47616011Y-47772257D01*
X47500299Y-47492905D01*
X47332312Y-47241495D01*
X47118505Y-47027688D01*
X46867095Y-46859701D01*
X46587743Y-46743989D01*
X46291184Y-46685000D01*
X45988816Y-46685000D01*
X45692257Y-46743989D01*
X45412905Y-46859701D01*
X45161495Y-47027688D01*
X44947688Y-47241495D01*
X44779701Y-47492905D01*
X44663989Y-47772257D01*
X44605000Y-48068816D01*
X44605000Y-48371184D01*
X44663989Y-48667743D01*
X44779701Y-48947095D01*
X44947688Y-49198505D01*
X45014127Y-49264944D01*
X44995820Y-49270498D01*
X44885506Y-49329463D01*
X44788815Y-49408815D01*
X44709463Y-49505506D01*
X44650498Y-49615820D01*
X44614188Y-49735518D01*
X44601928Y-49860000D01*
X41705000Y-49860000D01*
X41705000Y-49578665D01*
X41649853Y-49301426D01*
X41541680Y-49040273D01*
X41384637Y-48805241D01*
X41184759Y-48605363D01*
X40949727Y-48448320D01*
X40688574Y-48340147D01*
X40411335Y-48285000D01*
X40128665Y-48285000D01*
X39851426Y-48340147D01*
X39590273Y-48448320D01*
X39355241Y-48605363D01*
X39155363Y-48805241D01*
X38998320Y-49040273D01*
X38890147Y-49301426D01*
X38835000Y-49578665D01*
X28998023Y-49578665D01*
X28984236Y-49438691D01*
X28902182Y-49168192D01*
X28768932Y-48918899D01*
X28589608Y-48700392D01*
X28371101Y-48521068D01*
X28121808Y-48387818D01*
X27851309Y-48305764D01*
X27640492Y-48285000D01*
X27499508Y-48285000D01*
X27288691Y-48305764D01*
X27018192Y-48387818D01*
X26768899Y-48521068D01*
X26550392Y-48700392D01*
X26371068Y-48918899D01*
X26237818Y-49168192D01*
X26155764Y-49438691D01*
X26128057Y-49720000D01*
X19526504Y-49720000D01*
X19523491Y-49716987D01*
X19206566Y-49505225D01*
X18854419Y-49359361D01*
X18480581Y-49285000D01*
X18099419Y-49285000D01*
X17725581Y-49359361D01*
X17373434Y-49505225D01*
X17056509Y-49716987D01*
X16786987Y-49986509D01*
X16575225Y-50303434D01*
X16429361Y-50655581D01*
X16355000Y-51029419D01*
X14127000Y-51029419D01*
X14127000Y-47520000D01*
X16351928Y-47520000D01*
X16364188Y-47644482D01*
X16400498Y-47764180D01*
X16459463Y-47874494D01*
X16538815Y-47971185D01*
X16635506Y-48050537D01*
X16745820Y-48109502D01*
X16865518Y-48145812D01*
X16990000Y-48158072D01*
X18004250Y-48155000D01*
X18163000Y-47996250D01*
X18163000Y-46347000D01*
X18417000Y-46347000D01*
X18417000Y-47996250D01*
X18575750Y-48155000D01*
X19590000Y-48158072D01*
X19714482Y-48145812D01*
X19834180Y-48109502D01*
X19944494Y-48050537D01*
X20041185Y-47971185D01*
X20120537Y-47874494D01*
X20179502Y-47764180D01*
X20215812Y-47644482D01*
X20228072Y-47520000D01*
X20225000Y-46505750D01*
X20066250Y-46347000D01*
X18417000Y-46347000D01*
X18163000Y-46347000D01*
X16513750Y-46347000D01*
X16355000Y-46505750D01*
X16351928Y-47520000D01*
X14127000Y-47520000D01*
X14127000Y-44920000D01*
X16351928Y-44920000D01*
X16355000Y-45934250D01*
X16513750Y-46093000D01*
X18163000Y-46093000D01*
X18163000Y-44443750D01*
X18417000Y-44443750D01*
X18417000Y-46093000D01*
X20066250Y-46093000D01*
X20225000Y-45934250D01*
X20228072Y-44920000D01*
X20215812Y-44795518D01*
X20179502Y-44675820D01*
X20120537Y-44565506D01*
X20041185Y-44468815D01*
X19944494Y-44389463D01*
X19834180Y-44330498D01*
X19714482Y-44294188D01*
X19590000Y-44281928D01*
X18575750Y-44285000D01*
X18417000Y-44443750D01*
X18163000Y-44443750D01*
X18004250Y-44285000D01*
X16990000Y-44281928D01*
X16865518Y-44294188D01*
X16745820Y-44330498D01*
X16635506Y-44389463D01*
X16538815Y-44468815D01*
X16459463Y-44565506D01*
X16400498Y-44675820D01*
X16364188Y-44795518D01*
X16351928Y-44920000D01*
X14127000Y-44920000D01*
X14127000Y-41109224D01*
X17120381Y-41109224D01*
X17252317Y-41404312D01*
X17593045Y-41575159D01*
X17960557Y-41676250D01*
X18340729Y-41703701D01*
X18718951Y-41656457D01*
X19080690Y-41536333D01*
X19327683Y-41404312D01*
X19459619Y-41109224D01*
X18290000Y-39939605D01*
X17120381Y-41109224D01*
X14127000Y-41109224D01*
X14127000Y-39810729D01*
X16346299Y-39810729D01*
X16393543Y-40188951D01*
X16513667Y-40550690D01*
X16645688Y-40797683D01*
X16940776Y-40929619D01*
X18110395Y-39760000D01*
X18469605Y-39760000D01*
X19639224Y-40929619D01*
X19934312Y-40797683D01*
X20105159Y-40456955D01*
X20142690Y-40320512D01*
X24909783Y-40320512D01*
X24951213Y-40600130D01*
X25046397Y-40866292D01*
X25113329Y-40991514D01*
X25357298Y-41063097D01*
X26170395Y-40250000D01*
X25357298Y-39436903D01*
X25113329Y-39508486D01*
X24992429Y-39763996D01*
X24923700Y-40038184D01*
X24909783Y-40320512D01*
X20142690Y-40320512D01*
X20206250Y-40089443D01*
X20233701Y-39709271D01*
X20186457Y-39331049D01*
X20161967Y-39257298D01*
X25536903Y-39257298D01*
X26350000Y-40070395D01*
X26364143Y-40056253D01*
X26543748Y-40235858D01*
X26529605Y-40250000D01*
X26543748Y-40264143D01*
X26364143Y-40443748D01*
X26350000Y-40429605D01*
X25536903Y-41242702D01*
X25608486Y-41486671D01*
X25863996Y-41607571D01*
X26138184Y-41676300D01*
X26420512Y-41690217D01*
X26700130Y-41648787D01*
X26966292Y-41553603D01*
X27088309Y-41488384D01*
X27098815Y-41501185D01*
X27195506Y-41580537D01*
X27305820Y-41639502D01*
X27425518Y-41675812D01*
X27550000Y-41688072D01*
X29150000Y-41688072D01*
X29274482Y-41675812D01*
X29394180Y-41639502D01*
X29504494Y-41580537D01*
X29601185Y-41501185D01*
X29680537Y-41404494D01*
X29739502Y-41294180D01*
X29775812Y-41174482D01*
X29788072Y-41050000D01*
X29788072Y-40170512D01*
X33129783Y-40170512D01*
X33171213Y-40450130D01*
X33266397Y-40716292D01*
X33333329Y-40841514D01*
X33577298Y-40913097D01*
X34390395Y-40100000D01*
X33577298Y-39286903D01*
X33333329Y-39358486D01*
X33212429Y-39613996D01*
X33143700Y-39888184D01*
X33129783Y-40170512D01*
X29788072Y-40170512D01*
X29788072Y-39450000D01*
X29775812Y-39325518D01*
X29739502Y-39205820D01*
X29686841Y-39107298D01*
X33756903Y-39107298D01*
X34570000Y-39920395D01*
X34584143Y-39906253D01*
X34763748Y-40085858D01*
X34749605Y-40100000D01*
X34763748Y-40114143D01*
X34584143Y-40293748D01*
X34570000Y-40279605D01*
X33756903Y-41092702D01*
X33828486Y-41336671D01*
X34083996Y-41457571D01*
X34358184Y-41526300D01*
X34640512Y-41540217D01*
X34920130Y-41498787D01*
X35186292Y-41403603D01*
X35308309Y-41338384D01*
X35318815Y-41351185D01*
X35415506Y-41430537D01*
X35525820Y-41489502D01*
X35645518Y-41525812D01*
X35770000Y-41538072D01*
X37370000Y-41538072D01*
X37494482Y-41525812D01*
X37614180Y-41489502D01*
X37724494Y-41430537D01*
X37821185Y-41351185D01*
X37900537Y-41254494D01*
X37935010Y-41190000D01*
X38868057Y-41190000D01*
X38895764Y-41471309D01*
X38977818Y-41741808D01*
X39111068Y-41991101D01*
X39290392Y-42209608D01*
X39508899Y-42388932D01*
X39758192Y-42522182D01*
X40028691Y-42604236D01*
X40239508Y-42625000D01*
X40380492Y-42625000D01*
X40591309Y-42604236D01*
X40861808Y-42522182D01*
X41111101Y-42388932D01*
X41329608Y-42209608D01*
X41508932Y-41991101D01*
X41642182Y-41741808D01*
X41724236Y-41471309D01*
X41751943Y-41190000D01*
X41738023Y-41048665D01*
X51575000Y-41048665D01*
X51575000Y-41331335D01*
X51630147Y-41608574D01*
X51738320Y-41869727D01*
X51895363Y-42104759D01*
X52095241Y-42304637D01*
X52330273Y-42461680D01*
X52591426Y-42569853D01*
X52868665Y-42625000D01*
X53151335Y-42625000D01*
X53428574Y-42569853D01*
X53689727Y-42461680D01*
X53924759Y-42304637D01*
X54124637Y-42104759D01*
X54281680Y-41869727D01*
X54389853Y-41608574D01*
X54445000Y-41331335D01*
X54445000Y-41048665D01*
X54389853Y-40771426D01*
X54281680Y-40510273D01*
X54124637Y-40275241D01*
X53924759Y-40075363D01*
X53689727Y-39918320D01*
X53428574Y-39810147D01*
X53151335Y-39755000D01*
X52868665Y-39755000D01*
X52591426Y-39810147D01*
X52330273Y-39918320D01*
X52095241Y-40075363D01*
X51895363Y-40275241D01*
X51738320Y-40510273D01*
X51630147Y-40771426D01*
X51575000Y-41048665D01*
X41738023Y-41048665D01*
X41724236Y-40908691D01*
X41642182Y-40638192D01*
X41508932Y-40388899D01*
X41329608Y-40170392D01*
X41111101Y-39991068D01*
X40861808Y-39857818D01*
X40591309Y-39775764D01*
X40380492Y-39755000D01*
X40239508Y-39755000D01*
X40028691Y-39775764D01*
X39758192Y-39857818D01*
X39508899Y-39991068D01*
X39290392Y-40170392D01*
X39111068Y-40388899D01*
X38977818Y-40638192D01*
X38895764Y-40908691D01*
X38868057Y-41190000D01*
X37935010Y-41190000D01*
X37959502Y-41144180D01*
X37995812Y-41024482D01*
X38008072Y-40900000D01*
X38008072Y-39300000D01*
X37995812Y-39175518D01*
X37959502Y-39055820D01*
X37900537Y-38945506D01*
X37821185Y-38848815D01*
X37724494Y-38769463D01*
X37614180Y-38710498D01*
X37494482Y-38674188D01*
X37370000Y-38661928D01*
X35770000Y-38661928D01*
X35645518Y-38674188D01*
X35525820Y-38710498D01*
X35415506Y-38769463D01*
X35318815Y-38848815D01*
X35308193Y-38861758D01*
X35056004Y-38742429D01*
X34781816Y-38673700D01*
X34499488Y-38659783D01*
X34219870Y-38701213D01*
X33953708Y-38796397D01*
X33828486Y-38863329D01*
X33756903Y-39107298D01*
X29686841Y-39107298D01*
X29680537Y-39095506D01*
X29601185Y-38998815D01*
X29504494Y-38919463D01*
X29394180Y-38860498D01*
X29274482Y-38824188D01*
X29150000Y-38811928D01*
X27550000Y-38811928D01*
X27425518Y-38824188D01*
X27305820Y-38860498D01*
X27195506Y-38919463D01*
X27098815Y-38998815D01*
X27088193Y-39011758D01*
X26836004Y-38892429D01*
X26561816Y-38823700D01*
X26279488Y-38809783D01*
X25999870Y-38851213D01*
X25733708Y-38946397D01*
X25608486Y-39013329D01*
X25536903Y-39257298D01*
X20161967Y-39257298D01*
X20066333Y-38969310D01*
X19934312Y-38722317D01*
X19639224Y-38590381D01*
X18469605Y-39760000D01*
X18110395Y-39760000D01*
X16940776Y-38590381D01*
X16645688Y-38722317D01*
X16474841Y-39063045D01*
X16373750Y-39430557D01*
X16346299Y-39810729D01*
X14127000Y-39810729D01*
X14127000Y-38410776D01*
X17120381Y-38410776D01*
X18290000Y-39580395D01*
X19459619Y-38410776D01*
X19327683Y-38115688D01*
X18986955Y-37944841D01*
X18619443Y-37843750D01*
X18239271Y-37816299D01*
X17861049Y-37863543D01*
X17499310Y-37983667D01*
X17252317Y-38115688D01*
X17120381Y-38410776D01*
X14127000Y-38410776D01*
X14127000Y-33460000D01*
X16351928Y-33460000D01*
X16351928Y-36060000D01*
X16364188Y-36184482D01*
X16400498Y-36304180D01*
X16459463Y-36414494D01*
X16538815Y-36511185D01*
X16635506Y-36590537D01*
X16745820Y-36649502D01*
X16865518Y-36685812D01*
X16990000Y-36698072D01*
X19590000Y-36698072D01*
X19714482Y-36685812D01*
X19834180Y-36649502D01*
X19944494Y-36590537D01*
X20041185Y-36511185D01*
X20120537Y-36414494D01*
X20179502Y-36304180D01*
X20215812Y-36184482D01*
X20228072Y-36060000D01*
X20228072Y-33700512D01*
X24859783Y-33700512D01*
X24901213Y-33980130D01*
X24996397Y-34246292D01*
X25063329Y-34371514D01*
X25307298Y-34443097D01*
X26120395Y-33630000D01*
X25307298Y-32816903D01*
X25063329Y-32888486D01*
X24942429Y-33143996D01*
X24873700Y-33418184D01*
X24859783Y-33700512D01*
X20228072Y-33700512D01*
X20228072Y-33460000D01*
X20215812Y-33335518D01*
X20179502Y-33215820D01*
X20120537Y-33105506D01*
X20041185Y-33008815D01*
X19944494Y-32929463D01*
X19834180Y-32870498D01*
X19714482Y-32834188D01*
X19590000Y-32821928D01*
X16990000Y-32821928D01*
X16865518Y-32834188D01*
X16745820Y-32870498D01*
X16635506Y-32929463D01*
X16538815Y-33008815D01*
X16459463Y-33105506D01*
X16400498Y-33215820D01*
X16364188Y-33335518D01*
X16351928Y-33460000D01*
X14127000Y-33460000D01*
X14127000Y-32637298D01*
X25486903Y-32637298D01*
X26300000Y-33450395D01*
X26314143Y-33436253D01*
X26493748Y-33615858D01*
X26479605Y-33630000D01*
X26493748Y-33644143D01*
X26314143Y-33823748D01*
X26300000Y-33809605D01*
X25486903Y-34622702D01*
X25558486Y-34866671D01*
X25813996Y-34987571D01*
X26088184Y-35056300D01*
X26370512Y-35070217D01*
X26650130Y-35028787D01*
X26916292Y-34933603D01*
X27038309Y-34868384D01*
X27048815Y-34881185D01*
X27145506Y-34960537D01*
X27255820Y-35019502D01*
X27375518Y-35055812D01*
X27500000Y-35068072D01*
X29100000Y-35068072D01*
X29224482Y-35055812D01*
X29344180Y-35019502D01*
X29454494Y-34960537D01*
X29551185Y-34881185D01*
X29630537Y-34784494D01*
X29689502Y-34674180D01*
X29725812Y-34554482D01*
X29738072Y-34430000D01*
X29738072Y-33520512D01*
X33149783Y-33520512D01*
X33191213Y-33800130D01*
X33286397Y-34066292D01*
X33353329Y-34191514D01*
X33597298Y-34263097D01*
X34410395Y-33450000D01*
X33597298Y-32636903D01*
X33353329Y-32708486D01*
X33232429Y-32963996D01*
X33163700Y-33238184D01*
X33149783Y-33520512D01*
X29738072Y-33520512D01*
X29738072Y-32830000D01*
X29725812Y-32705518D01*
X29689502Y-32585820D01*
X29630537Y-32475506D01*
X29615595Y-32457298D01*
X33776903Y-32457298D01*
X34590000Y-33270395D01*
X34604143Y-33256253D01*
X34783748Y-33435858D01*
X34769605Y-33450000D01*
X34783748Y-33464143D01*
X34604143Y-33643748D01*
X34590000Y-33629605D01*
X33776903Y-34442702D01*
X33848486Y-34686671D01*
X34103996Y-34807571D01*
X34378184Y-34876300D01*
X34660512Y-34890217D01*
X34940130Y-34848787D01*
X35206292Y-34753603D01*
X35328309Y-34688384D01*
X35338815Y-34701185D01*
X35435506Y-34780537D01*
X35545820Y-34839502D01*
X35665518Y-34875812D01*
X35790000Y-34888072D01*
X37390000Y-34888072D01*
X37514482Y-34875812D01*
X37634180Y-34839502D01*
X37744494Y-34780537D01*
X37841185Y-34701185D01*
X37920537Y-34604494D01*
X37979502Y-34494180D01*
X38015812Y-34374482D01*
X38028072Y-34250000D01*
X38028072Y-33847801D01*
X56181804Y-33847801D01*
X56288129Y-34121148D01*
X56592658Y-34270778D01*
X56920525Y-34358122D01*
X57259134Y-34379824D01*
X57595470Y-34335049D01*
X57916607Y-34225519D01*
X58111871Y-34121148D01*
X58218196Y-33847801D01*
X57200000Y-32829605D01*
X56181804Y-33847801D01*
X38028072Y-33847801D01*
X38028072Y-32709134D01*
X55470176Y-32709134D01*
X55514951Y-33045470D01*
X55624481Y-33366607D01*
X55728852Y-33561871D01*
X56002199Y-33668196D01*
X57020395Y-32650000D01*
X57379605Y-32650000D01*
X58397801Y-33668196D01*
X58671148Y-33561871D01*
X58820778Y-33257342D01*
X58908122Y-32929475D01*
X58929824Y-32590866D01*
X58885049Y-32254530D01*
X58775519Y-31933393D01*
X58671148Y-31738129D01*
X58397801Y-31631804D01*
X57379605Y-32650000D01*
X57020395Y-32650000D01*
X56002199Y-31631804D01*
X55728852Y-31738129D01*
X55579222Y-32042658D01*
X55491878Y-32370525D01*
X55470176Y-32709134D01*
X38028072Y-32709134D01*
X38028072Y-32650000D01*
X38015812Y-32525518D01*
X37979502Y-32405820D01*
X37920537Y-32295506D01*
X37841185Y-32198815D01*
X37744494Y-32119463D01*
X37634180Y-32060498D01*
X37514482Y-32024188D01*
X37390000Y-32011928D01*
X35790000Y-32011928D01*
X35665518Y-32024188D01*
X35545820Y-32060498D01*
X35435506Y-32119463D01*
X35338815Y-32198815D01*
X35328193Y-32211758D01*
X35076004Y-32092429D01*
X34801816Y-32023700D01*
X34519488Y-32009783D01*
X34239870Y-32051213D01*
X33973708Y-32146397D01*
X33848486Y-32213329D01*
X33776903Y-32457298D01*
X29615595Y-32457298D01*
X29551185Y-32378815D01*
X29454494Y-32299463D01*
X29344180Y-32240498D01*
X29224482Y-32204188D01*
X29100000Y-32191928D01*
X27500000Y-32191928D01*
X27375518Y-32204188D01*
X27255820Y-32240498D01*
X27145506Y-32299463D01*
X27048815Y-32378815D01*
X27038193Y-32391758D01*
X26786004Y-32272429D01*
X26511816Y-32203700D01*
X26229488Y-32189783D01*
X25949870Y-32231213D01*
X25683708Y-32326397D01*
X25558486Y-32393329D01*
X25486903Y-32637298D01*
X14127000Y-32637298D01*
X14127000Y-31452199D01*
X56181804Y-31452199D01*
X57200000Y-32470395D01*
X58218196Y-31452199D01*
X58111871Y-31178852D01*
X57807342Y-31029222D01*
X57479475Y-30941878D01*
X57140866Y-30920176D01*
X56804530Y-30964951D01*
X56483393Y-31074481D01*
X56288129Y-31178852D01*
X56181804Y-31452199D01*
X14127000Y-31452199D01*
X14127000Y-27010000D01*
X15079428Y-27010000D01*
X15079428Y-29010000D01*
X15091688Y-29134482D01*
X15127998Y-29254180D01*
X15186963Y-29364494D01*
X15266315Y-29461185D01*
X15363006Y-29540537D01*
X15473320Y-29599502D01*
X15593018Y-29635812D01*
X15717500Y-29648072D01*
X17622500Y-29648072D01*
X17746982Y-29635812D01*
X17866680Y-29599502D01*
X17976994Y-29540537D01*
X18073685Y-29461185D01*
X18153037Y-29364494D01*
X18202059Y-29272781D01*
X18343077Y-29385969D01*
X18618906Y-29529571D01*
X18837020Y-29600563D01*
X19083000Y-29480594D01*
X19083000Y-28137000D01*
X19063000Y-28137000D01*
X19063000Y-27883000D01*
X19083000Y-27883000D01*
X19083000Y-26539406D01*
X19337000Y-26539406D01*
X19337000Y-27883000D01*
X19357000Y-27883000D01*
X19357000Y-28137000D01*
X19337000Y-28137000D01*
X19337000Y-29480594D01*
X19582980Y-29600563D01*
X19801094Y-29529571D01*
X20076923Y-29385969D01*
X20319437Y-29191315D01*
X20474837Y-29006101D01*
X20622037Y-29185463D01*
X20863766Y-29383845D01*
X21139552Y-29531255D01*
X21438797Y-29622030D01*
X21750000Y-29652681D01*
X22061204Y-29622030D01*
X22360449Y-29531255D01*
X22636235Y-29383845D01*
X22877963Y-29185463D01*
X23076345Y-28943734D01*
X23223755Y-28667948D01*
X23314530Y-28368703D01*
X23337500Y-28135485D01*
X23337500Y-27884514D01*
X23314530Y-27651296D01*
X23223755Y-27352051D01*
X23076345Y-27076265D01*
X22964515Y-26940000D01*
X26119428Y-26940000D01*
X26119428Y-28940000D01*
X26131688Y-29064482D01*
X26167998Y-29184180D01*
X26226963Y-29294494D01*
X26306315Y-29391185D01*
X26403006Y-29470537D01*
X26513320Y-29529502D01*
X26633018Y-29565812D01*
X26757500Y-29578072D01*
X28662500Y-29578072D01*
X28786982Y-29565812D01*
X28906680Y-29529502D01*
X29016994Y-29470537D01*
X29113685Y-29391185D01*
X29193037Y-29294494D01*
X29242059Y-29202781D01*
X29383077Y-29315969D01*
X29658906Y-29459571D01*
X29877020Y-29530563D01*
X30123000Y-29410594D01*
X30123000Y-28067000D01*
X30103000Y-28067000D01*
X30103000Y-27813000D01*
X30123000Y-27813000D01*
X30123000Y-26469406D01*
X30377000Y-26469406D01*
X30377000Y-27813000D01*
X30397000Y-27813000D01*
X30397000Y-28067000D01*
X30377000Y-28067000D01*
X30377000Y-29410594D01*
X30622980Y-29530563D01*
X30841094Y-29459571D01*
X31116923Y-29315969D01*
X31359437Y-29121315D01*
X31514837Y-28936101D01*
X31662037Y-29115463D01*
X31903766Y-29313845D01*
X32179552Y-29461255D01*
X32478797Y-29552030D01*
X32790000Y-29582681D01*
X33101204Y-29552030D01*
X33400449Y-29461255D01*
X33676235Y-29313845D01*
X33917963Y-29115463D01*
X34116345Y-28873734D01*
X34263755Y-28597948D01*
X34354530Y-28298703D01*
X34377500Y-28065485D01*
X34377500Y-27814514D01*
X34354530Y-27581296D01*
X34293574Y-27380349D01*
X55477500Y-27380349D01*
X55477500Y-27719651D01*
X55543695Y-28052435D01*
X55673541Y-28365909D01*
X55862047Y-28648029D01*
X56101971Y-28887953D01*
X56384091Y-29076459D01*
X56697565Y-29206305D01*
X57030349Y-29272500D01*
X57369651Y-29272500D01*
X57702435Y-29206305D01*
X58015909Y-29076459D01*
X58298029Y-28887953D01*
X58537953Y-28648029D01*
X58726459Y-28365909D01*
X58856305Y-28052435D01*
X58922500Y-27719651D01*
X58922500Y-27380349D01*
X58856305Y-27047565D01*
X58726459Y-26734091D01*
X58537953Y-26451971D01*
X58298029Y-26212047D01*
X58015909Y-26023541D01*
X57702435Y-25893695D01*
X57369651Y-25827500D01*
X57030349Y-25827500D01*
X56697565Y-25893695D01*
X56384091Y-26023541D01*
X56101971Y-26212047D01*
X55862047Y-26451971D01*
X55673541Y-26734091D01*
X55543695Y-27047565D01*
X55477500Y-27380349D01*
X34293574Y-27380349D01*
X34263755Y-27282051D01*
X34116345Y-27006265D01*
X33928996Y-26777980D01*
X43901626Y-26777980D01*
X44021514Y-27062836D01*
X44345210Y-27223699D01*
X44694069Y-27318322D01*
X45054684Y-27343067D01*
X45413198Y-27296985D01*
X45755833Y-27181846D01*
X45978486Y-27062836D01*
X46098374Y-26777980D01*
X45000000Y-25679605D01*
X43901626Y-26777980D01*
X33928996Y-26777980D01*
X33917963Y-26764537D01*
X33676234Y-26566155D01*
X33400448Y-26418745D01*
X33101203Y-26327970D01*
X32790000Y-26297319D01*
X32478796Y-26327970D01*
X32179551Y-26418745D01*
X31903765Y-26566155D01*
X31662037Y-26764537D01*
X31514838Y-26943900D01*
X31359437Y-26758685D01*
X31116923Y-26564031D01*
X30841094Y-26420429D01*
X30622980Y-26349437D01*
X30377000Y-26469406D01*
X30123000Y-26469406D01*
X29877020Y-26349437D01*
X29658906Y-26420429D01*
X29383077Y-26564031D01*
X29242059Y-26677219D01*
X29193037Y-26585506D01*
X29113685Y-26488815D01*
X29016994Y-26409463D01*
X28906680Y-26350498D01*
X28786982Y-26314188D01*
X28662500Y-26301928D01*
X26757500Y-26301928D01*
X26633018Y-26314188D01*
X26513320Y-26350498D01*
X26403006Y-26409463D01*
X26306315Y-26488815D01*
X26226963Y-26585506D01*
X26167998Y-26695820D01*
X26131688Y-26815518D01*
X26119428Y-26940000D01*
X22964515Y-26940000D01*
X22877963Y-26834537D01*
X22636234Y-26636155D01*
X22360448Y-26488745D01*
X22061203Y-26397970D01*
X21750000Y-26367319D01*
X21438796Y-26397970D01*
X21139551Y-26488745D01*
X20863765Y-26636155D01*
X20622037Y-26834537D01*
X20474838Y-27013900D01*
X20319437Y-26828685D01*
X20076923Y-26634031D01*
X19801094Y-26490429D01*
X19582980Y-26419437D01*
X19337000Y-26539406D01*
X19083000Y-26539406D01*
X18837020Y-26419437D01*
X18618906Y-26490429D01*
X18343077Y-26634031D01*
X18202059Y-26747219D01*
X18153037Y-26655506D01*
X18073685Y-26558815D01*
X17976994Y-26479463D01*
X17866680Y-26420498D01*
X17746982Y-26384188D01*
X17622500Y-26371928D01*
X15717500Y-26371928D01*
X15593018Y-26384188D01*
X15473320Y-26420498D01*
X15363006Y-26479463D01*
X15266315Y-26558815D01*
X15186963Y-26655506D01*
X15127998Y-26765820D01*
X15091688Y-26885518D01*
X15079428Y-27010000D01*
X14127000Y-27010000D01*
X14127000Y-25554684D01*
X43156933Y-25554684D01*
X43203015Y-25913198D01*
X43318154Y-26255833D01*
X43437164Y-26478486D01*
X43722020Y-26598374D01*
X44820395Y-25500000D01*
X45179605Y-25500000D01*
X46277980Y-26598374D01*
X46562836Y-26478486D01*
X46723699Y-26154790D01*
X46818322Y-25805931D01*
X46843067Y-25445316D01*
X46796985Y-25086802D01*
X46681846Y-24744167D01*
X46562836Y-24521514D01*
X46277980Y-24401626D01*
X45179605Y-25500000D01*
X44820395Y-25500000D01*
X43722020Y-24401626D01*
X43437164Y-24521514D01*
X43276301Y-24845210D01*
X43181678Y-25194069D01*
X43156933Y-25554684D01*
X14127000Y-25554684D01*
X14127000Y-24222020D01*
X43901626Y-24222020D01*
X45000000Y-25320395D01*
X46098374Y-24222020D01*
X45978486Y-23937164D01*
X45654790Y-23776301D01*
X45305931Y-23681678D01*
X44945316Y-23656933D01*
X44586802Y-23703015D01*
X44244167Y-23818154D01*
X44021514Y-23937164D01*
X43901626Y-24222020D01*
X14127000Y-24222020D01*
X14127000Y-22280349D01*
X55477500Y-22280349D01*
X55477500Y-22619651D01*
X55543695Y-22952435D01*
X55673541Y-23265909D01*
X55862047Y-23548029D01*
X56101971Y-23787953D01*
X56384091Y-23976459D01*
X56697565Y-24106305D01*
X57030349Y-24172500D01*
X57369651Y-24172500D01*
X57702435Y-24106305D01*
X58015909Y-23976459D01*
X58298029Y-23787953D01*
X58537953Y-23548029D01*
X58726459Y-23265909D01*
X58856305Y-22952435D01*
X58922500Y-22619651D01*
X58922500Y-22280349D01*
X58856305Y-21947565D01*
X58726459Y-21634091D01*
X58537953Y-21351971D01*
X58298029Y-21112047D01*
X58015909Y-20923541D01*
X57702435Y-20793695D01*
X57369651Y-20727500D01*
X57030349Y-20727500D01*
X56697565Y-20793695D01*
X56384091Y-20923541D01*
X56101971Y-21112047D01*
X55862047Y-21351971D01*
X55673541Y-21634091D01*
X55543695Y-21947565D01*
X55477500Y-22280349D01*
X14127000Y-22280349D01*
X14127000Y-18040715D01*
X15084216Y-18040715D01*
X15147655Y-18606285D01*
X15319739Y-19148761D01*
X15593913Y-19647482D01*
X15959734Y-20083451D01*
X16403268Y-20440062D01*
X16907622Y-20703731D01*
X17453583Y-20864416D01*
X18020358Y-20915997D01*
X18586357Y-20856508D01*
X19130022Y-20688216D01*
X19630645Y-20417530D01*
X20069157Y-20054761D01*
X20428855Y-19613727D01*
X20696039Y-19111227D01*
X20860532Y-18566401D01*
X20916068Y-18000000D01*
X20914931Y-17918579D01*
X20843602Y-17353950D01*
X20663961Y-16813928D01*
X20656049Y-16800000D01*
X43161928Y-16800000D01*
X43161928Y-19200000D01*
X43174188Y-19324482D01*
X43210498Y-19444180D01*
X43269463Y-19554494D01*
X43348815Y-19651185D01*
X43445506Y-19730537D01*
X43555820Y-19789502D01*
X43675518Y-19825812D01*
X43800000Y-19838072D01*
X46200000Y-19838072D01*
X46324482Y-19825812D01*
X46444180Y-19789502D01*
X46554494Y-19730537D01*
X46651185Y-19651185D01*
X46730537Y-19554494D01*
X46789502Y-19444180D01*
X46825812Y-19324482D01*
X46838072Y-19200000D01*
X46838072Y-17180349D01*
X55477500Y-17180349D01*
X55477500Y-17519651D01*
X55543695Y-17852435D01*
X55673541Y-18165909D01*
X55862047Y-18448029D01*
X56101971Y-18687953D01*
X56384091Y-18876459D01*
X56697565Y-19006305D01*
X57030349Y-19072500D01*
X57369651Y-19072500D01*
X57702435Y-19006305D01*
X58015909Y-18876459D01*
X58298029Y-18687953D01*
X58537953Y-18448029D01*
X58726459Y-18165909D01*
X58856305Y-17852435D01*
X58922500Y-17519651D01*
X58922500Y-17180349D01*
X58856305Y-16847565D01*
X58726459Y-16534091D01*
X58537953Y-16251971D01*
X58298029Y-16012047D01*
X58015909Y-15823541D01*
X57702435Y-15693695D01*
X57369651Y-15627500D01*
X57030349Y-15627500D01*
X56697565Y-15693695D01*
X56384091Y-15823541D01*
X56101971Y-16012047D01*
X55862047Y-16251971D01*
X55673541Y-16534091D01*
X55543695Y-16847565D01*
X55477500Y-17180349D01*
X46838072Y-17180349D01*
X46838072Y-16800000D01*
X46825812Y-16675518D01*
X46789502Y-16555820D01*
X46730537Y-16445506D01*
X46651185Y-16348815D01*
X46554494Y-16269463D01*
X46444180Y-16210498D01*
X46324482Y-16174188D01*
X46200000Y-16161928D01*
X43800000Y-16161928D01*
X43675518Y-16174188D01*
X43555820Y-16210498D01*
X43445506Y-16269463D01*
X43348815Y-16348815D01*
X43269463Y-16445506D01*
X43210498Y-16555820D01*
X43174188Y-16675518D01*
X43161928Y-16800000D01*
X20656049Y-16800000D01*
X20382850Y-16319084D01*
X20010977Y-15888266D01*
X19562507Y-15537882D01*
X19054522Y-15281280D01*
X18506370Y-15128234D01*
X17938930Y-15084572D01*
X17373817Y-15151957D01*
X16832555Y-15327824D01*
X16335760Y-15605473D01*
X15902356Y-15974329D01*
X15548851Y-16420342D01*
X15288709Y-16926524D01*
X15131839Y-17473594D01*
X15084216Y-18040715D01*
X14127000Y-18040715D01*
X14127000Y-14127000D01*
X64873000Y-14127000D01*
X64873000Y-111873000D01*
X64873000Y-111873000D01*
G37*
X64873000Y-111873000D02*
X14127000Y-111873000D01*
X14127000Y-108040715D01*
X15084216Y-108040715D01*
X15147655Y-108606285D01*
X15319739Y-109148761D01*
X15593913Y-109647482D01*
X15959734Y-110083451D01*
X16403268Y-110440062D01*
X16907622Y-110703731D01*
X17453583Y-110864416D01*
X18020358Y-110915997D01*
X18586357Y-110856508D01*
X19130022Y-110688216D01*
X19630645Y-110417530D01*
X20069157Y-110054761D01*
X20428855Y-109613727D01*
X20696039Y-109111227D01*
X20860532Y-108566401D01*
X20916068Y-108000000D01*
X20914931Y-107918579D01*
X20843602Y-107353950D01*
X20663961Y-106813928D01*
X20382850Y-106319084D01*
X20010977Y-105888266D01*
X19562507Y-105537882D01*
X19054522Y-105281280D01*
X18506370Y-105128234D01*
X17938930Y-105084572D01*
X17373817Y-105151957D01*
X16832555Y-105327824D01*
X16335760Y-105605473D01*
X15902356Y-105974329D01*
X15548851Y-106420342D01*
X15288709Y-106926524D01*
X15131839Y-107473594D01*
X15084216Y-108040715D01*
X14127000Y-108040715D01*
X14127000Y-101029419D01*
X16355000Y-101029419D01*
X16355000Y-101410581D01*
X16429361Y-101784419D01*
X16575225Y-102136566D01*
X16786987Y-102453491D01*
X17056509Y-102723013D01*
X17373434Y-102934775D01*
X17725581Y-103080639D01*
X18099419Y-103155000D01*
X18480581Y-103155000D01*
X18854419Y-103080639D01*
X19206566Y-102934775D01*
X19523491Y-102723013D01*
X19776504Y-102470000D01*
X33801928Y-102470000D01*
X33801928Y-105070000D01*
X33814188Y-105194482D01*
X33850498Y-105314180D01*
X33909463Y-105424494D01*
X33988815Y-105521185D01*
X34085506Y-105600537D01*
X34195820Y-105659502D01*
X34315518Y-105695812D01*
X34440000Y-105708072D01*
X37040000Y-105708072D01*
X37164482Y-105695812D01*
X37284180Y-105659502D01*
X37394494Y-105600537D01*
X37491185Y-105521185D01*
X37570537Y-105424494D01*
X37629502Y-105314180D01*
X37665812Y-105194482D01*
X37678072Y-105070000D01*
X37678072Y-103579419D01*
X38805000Y-103579419D01*
X38805000Y-103960581D01*
X38879361Y-104334419D01*
X39025225Y-104686566D01*
X39236987Y-105003491D01*
X39506509Y-105273013D01*
X39823434Y-105484775D01*
X40175581Y-105630639D01*
X40549419Y-105705000D01*
X40930581Y-105705000D01*
X41304419Y-105630639D01*
X41656566Y-105484775D01*
X41973491Y-105273013D01*
X42243013Y-105003491D01*
X42454775Y-104686566D01*
X42600639Y-104334419D01*
X42675000Y-103960581D01*
X42675000Y-103579419D01*
X42600639Y-103205581D01*
X42454775Y-102853434D01*
X42243013Y-102536509D01*
X41973491Y-102266987D01*
X41656566Y-102055225D01*
X41304419Y-101909361D01*
X40930581Y-101835000D01*
X40549419Y-101835000D01*
X40175581Y-101909361D01*
X39823434Y-102055225D01*
X39506509Y-102266987D01*
X39236987Y-102536509D01*
X39025225Y-102853434D01*
X38879361Y-103205581D01*
X38805000Y-103579419D01*
X37678072Y-103579419D01*
X37678072Y-102470000D01*
X37665812Y-102345518D01*
X37629502Y-102225820D01*
X37570537Y-102115506D01*
X37491185Y-102018815D01*
X37394494Y-101939463D01*
X37284180Y-101880498D01*
X37164482Y-101844188D01*
X37040000Y-101831928D01*
X34440000Y-101831928D01*
X34315518Y-101844188D01*
X34195820Y-101880498D01*
X34085506Y-101939463D01*
X33988815Y-102018815D01*
X33909463Y-102115506D01*
X33850498Y-102225820D01*
X33814188Y-102345518D01*
X33801928Y-102470000D01*
X19776504Y-102470000D01*
X19793013Y-102453491D01*
X20004775Y-102136566D01*
X20150639Y-101784419D01*
X20225000Y-101410581D01*
X20225000Y-101029419D01*
X20150639Y-100655581D01*
X20004775Y-100303434D01*
X19793013Y-99986509D01*
X19523491Y-99716987D01*
X19206566Y-99505225D01*
X18854419Y-99359361D01*
X18480581Y-99285000D01*
X18099419Y-99285000D01*
X17725581Y-99359361D01*
X17373434Y-99505225D01*
X17056509Y-99716987D01*
X16786987Y-99986509D01*
X16575225Y-100303434D01*
X16429361Y-100655581D01*
X16355000Y-101029419D01*
X14127000Y-101029419D01*
X14127000Y-96029419D01*
X16355000Y-96029419D01*
X16355000Y-96410581D01*
X16429361Y-96784419D01*
X16575225Y-97136566D01*
X16786987Y-97453491D01*
X17056509Y-97723013D01*
X17373434Y-97934775D01*
X17725581Y-98080639D01*
X18099419Y-98155000D01*
X18480581Y-98155000D01*
X18854419Y-98080639D01*
X19206566Y-97934775D01*
X19523491Y-97723013D01*
X19793013Y-97453491D01*
X20004775Y-97136566D01*
X20150639Y-96784419D01*
X20225000Y-96410581D01*
X20225000Y-96029419D01*
X20150639Y-95655581D01*
X20004775Y-95303434D01*
X19793013Y-94986509D01*
X19523491Y-94716987D01*
X19206566Y-94505225D01*
X18928389Y-94390000D01*
X30551928Y-94390000D01*
X30551928Y-96590000D01*
X30564188Y-96714482D01*
X30600498Y-96834180D01*
X30659463Y-96944494D01*
X30738815Y-97041185D01*
X30835506Y-97120537D01*
X30945820Y-97179502D01*
X31065518Y-97215812D01*
X31190000Y-97228072D01*
X33390000Y-97228072D01*
X33514482Y-97215812D01*
X33634180Y-97179502D01*
X33744494Y-97120537D01*
X33841185Y-97041185D01*
X33920537Y-96944494D01*
X33979502Y-96834180D01*
X34015812Y-96714482D01*
X34028072Y-96590000D01*
X34028072Y-95490000D01*
X43246606Y-95490000D01*
X43280105Y-95830119D01*
X43379314Y-96157168D01*
X43540421Y-96458578D01*
X43757234Y-96722766D01*
X44021422Y-96939579D01*
X44322832Y-97100686D01*
X44649881Y-97199895D01*
X44904775Y-97225000D01*
X45075225Y-97225000D01*
X45330119Y-97199895D01*
X45657168Y-97100686D01*
X45958578Y-96939579D01*
X46222766Y-96722766D01*
X46439579Y-96458578D01*
X46600686Y-96157168D01*
X46699895Y-95830119D01*
X46733394Y-95490000D01*
X46699895Y-95149881D01*
X46600686Y-94822832D01*
X46439579Y-94521422D01*
X46222766Y-94257234D01*
X45958578Y-94040421D01*
X45657168Y-93879314D01*
X45330119Y-93780105D01*
X45075225Y-93755000D01*
X44904775Y-93755000D01*
X44649881Y-93780105D01*
X44322832Y-93879314D01*
X44021422Y-94040421D01*
X43757234Y-94257234D01*
X43540421Y-94521422D01*
X43379314Y-94822832D01*
X43280105Y-95149881D01*
X43246606Y-95490000D01*
X34028072Y-95490000D01*
X34028072Y-94390000D01*
X34015812Y-94265518D01*
X33979502Y-94145820D01*
X33920537Y-94035506D01*
X33841185Y-93938815D01*
X33744494Y-93859463D01*
X33634180Y-93800498D01*
X33514482Y-93764188D01*
X33390000Y-93751928D01*
X31190000Y-93751928D01*
X31065518Y-93764188D01*
X30945820Y-93800498D01*
X30835506Y-93859463D01*
X30738815Y-93938815D01*
X30659463Y-94035506D01*
X30600498Y-94145820D01*
X30564188Y-94265518D01*
X30551928Y-94390000D01*
X18928389Y-94390000D01*
X18854419Y-94359361D01*
X18480581Y-94285000D01*
X18099419Y-94285000D01*
X17725581Y-94359361D01*
X17373434Y-94505225D01*
X17056509Y-94716987D01*
X16786987Y-94986509D01*
X16575225Y-95303434D01*
X16429361Y-95655581D01*
X16355000Y-96029419D01*
X14127000Y-96029419D01*
X14127000Y-91029419D01*
X16355000Y-91029419D01*
X16355000Y-91410581D01*
X16429361Y-91784419D01*
X16575225Y-92136566D01*
X16786987Y-92453491D01*
X17056509Y-92723013D01*
X17373434Y-92934775D01*
X17725581Y-93080639D01*
X18099419Y-93155000D01*
X18480581Y-93155000D01*
X18854419Y-93080639D01*
X19206566Y-92934775D01*
X19523491Y-92723013D01*
X19793013Y-92453491D01*
X20004775Y-92136566D01*
X20150639Y-91784419D01*
X20225000Y-91410581D01*
X20225000Y-91029419D01*
X20150639Y-90655581D01*
X20004775Y-90303434D01*
X19793013Y-89986509D01*
X19523491Y-89716987D01*
X19206566Y-89505225D01*
X18854419Y-89359361D01*
X18480581Y-89285000D01*
X18099419Y-89285000D01*
X17725581Y-89359361D01*
X17373434Y-89505225D01*
X17056509Y-89716987D01*
X16786987Y-89986509D01*
X16575225Y-90303434D01*
X16429361Y-90655581D01*
X16355000Y-91029419D01*
X14127000Y-91029419D01*
X14127000Y-87569224D01*
X17120381Y-87569224D01*
X17252317Y-87864312D01*
X17593045Y-88035159D01*
X17960557Y-88136250D01*
X18340729Y-88163701D01*
X18718951Y-88116457D01*
X19080690Y-87996333D01*
X19327683Y-87864312D01*
X19459619Y-87569224D01*
X18290000Y-86399605D01*
X17120381Y-87569224D01*
X14127000Y-87569224D01*
X14127000Y-86270729D01*
X16346299Y-86270729D01*
X16393543Y-86648951D01*
X16513667Y-87010690D01*
X16645688Y-87257683D01*
X16940776Y-87389619D01*
X18110395Y-86220000D01*
X18469605Y-86220000D01*
X19639224Y-87389619D01*
X19934312Y-87257683D01*
X20105159Y-86916955D01*
X20206250Y-86549443D01*
X20233701Y-86169271D01*
X20186457Y-85791049D01*
X20066333Y-85429310D01*
X19934312Y-85182317D01*
X19639224Y-85050381D01*
X18469605Y-86220000D01*
X18110395Y-86220000D01*
X16940776Y-85050381D01*
X16645688Y-85182317D01*
X16474841Y-85523045D01*
X16373750Y-85890557D01*
X16346299Y-86270729D01*
X14127000Y-86270729D01*
X14127000Y-84870776D01*
X17120381Y-84870776D01*
X18290000Y-86040395D01*
X19459619Y-84870776D01*
X19327683Y-84575688D01*
X18986955Y-84404841D01*
X18619443Y-84303750D01*
X18239271Y-84276299D01*
X17861049Y-84323543D01*
X17499310Y-84443667D01*
X17252317Y-84575688D01*
X17120381Y-84870776D01*
X14127000Y-84870776D01*
X14127000Y-81029419D01*
X16355000Y-81029419D01*
X16355000Y-81410581D01*
X16429361Y-81784419D01*
X16575225Y-82136566D01*
X16786987Y-82453491D01*
X17056509Y-82723013D01*
X17373434Y-82934775D01*
X17725581Y-83080639D01*
X18099419Y-83155000D01*
X18480581Y-83155000D01*
X18854419Y-83080639D01*
X19206566Y-82934775D01*
X19523491Y-82723013D01*
X19793013Y-82453491D01*
X20004775Y-82136566D01*
X20150639Y-81784419D01*
X20225000Y-81410581D01*
X20225000Y-81029419D01*
X20150639Y-80655581D01*
X20004775Y-80303434D01*
X19793013Y-79986509D01*
X19523491Y-79716987D01*
X19206566Y-79505225D01*
X18854419Y-79359361D01*
X18480581Y-79285000D01*
X18099419Y-79285000D01*
X17725581Y-79359361D01*
X17373434Y-79505225D01*
X17056509Y-79716987D01*
X16786987Y-79986509D01*
X16575225Y-80303434D01*
X16429361Y-80655581D01*
X16355000Y-81029419D01*
X14127000Y-81029419D01*
X14127000Y-76029419D01*
X16355000Y-76029419D01*
X16355000Y-76410581D01*
X16429361Y-76784419D01*
X16575225Y-77136566D01*
X16786987Y-77453491D01*
X17056509Y-77723013D01*
X17373434Y-77934775D01*
X17725581Y-78080639D01*
X18099419Y-78155000D01*
X18480581Y-78155000D01*
X18854419Y-78080639D01*
X19206566Y-77934775D01*
X19523491Y-77723013D01*
X19793013Y-77453491D01*
X20004775Y-77136566D01*
X20150639Y-76784419D01*
X20225000Y-76410581D01*
X20225000Y-76029419D01*
X20150639Y-75655581D01*
X20004775Y-75303434D01*
X19793013Y-74986509D01*
X19523491Y-74716987D01*
X19206566Y-74505225D01*
X18854419Y-74359361D01*
X18480581Y-74285000D01*
X18099419Y-74285000D01*
X17725581Y-74359361D01*
X17373434Y-74505225D01*
X17056509Y-74716987D01*
X16786987Y-74986509D01*
X16575225Y-75303434D01*
X16429361Y-75655581D01*
X16355000Y-76029419D01*
X14127000Y-76029419D01*
X14127000Y-71029419D01*
X16355000Y-71029419D01*
X16355000Y-71410581D01*
X16429361Y-71784419D01*
X16575225Y-72136566D01*
X16786987Y-72453491D01*
X17056509Y-72723013D01*
X17373434Y-72934775D01*
X17725581Y-73080639D01*
X18099419Y-73155000D01*
X18480581Y-73155000D01*
X18854419Y-73080639D01*
X19206566Y-72934775D01*
X19523491Y-72723013D01*
X19793013Y-72453491D01*
X20004775Y-72136566D01*
X20150639Y-71784419D01*
X20225000Y-71410581D01*
X20225000Y-71029419D01*
X20150639Y-70655581D01*
X20004775Y-70303434D01*
X19793013Y-69986509D01*
X19523491Y-69716987D01*
X19206566Y-69505225D01*
X18854419Y-69359361D01*
X18480581Y-69285000D01*
X18099419Y-69285000D01*
X17725581Y-69359361D01*
X17373434Y-69505225D01*
X17056509Y-69716987D01*
X16786987Y-69986509D01*
X16575225Y-70303434D01*
X16429361Y-70655581D01*
X16355000Y-71029419D01*
X14127000Y-71029419D01*
X14127000Y-67569224D01*
X17120381Y-67569224D01*
X17252317Y-67864312D01*
X17593045Y-68035159D01*
X17960557Y-68136250D01*
X18340729Y-68163701D01*
X18718951Y-68116457D01*
X19080690Y-67996333D01*
X19327683Y-67864312D01*
X19459619Y-67569224D01*
X18290000Y-66399605D01*
X17120381Y-67569224D01*
X14127000Y-67569224D01*
X14127000Y-66270729D01*
X16346299Y-66270729D01*
X16393543Y-66648951D01*
X16513667Y-67010690D01*
X16645688Y-67257683D01*
X16940776Y-67389619D01*
X18110395Y-66220000D01*
X18469605Y-66220000D01*
X19639224Y-67389619D01*
X19934312Y-67257683D01*
X20105159Y-66916955D01*
X20206250Y-66549443D01*
X20233701Y-66169271D01*
X20186457Y-65791049D01*
X20066333Y-65429310D01*
X19934312Y-65182317D01*
X19639224Y-65050381D01*
X18469605Y-66220000D01*
X18110395Y-66220000D01*
X16940776Y-65050381D01*
X16645688Y-65182317D01*
X16474841Y-65523045D01*
X16373750Y-65890557D01*
X16346299Y-66270729D01*
X14127000Y-66270729D01*
X14127000Y-64870776D01*
X17120381Y-64870776D01*
X18290000Y-66040395D01*
X19459619Y-64870776D01*
X19327683Y-64575688D01*
X18986955Y-64404841D01*
X18619443Y-64303750D01*
X18239271Y-64276299D01*
X17861049Y-64323543D01*
X17499310Y-64443667D01*
X17252317Y-64575688D01*
X17120381Y-64870776D01*
X14127000Y-64870776D01*
X14127000Y-61029419D01*
X16355000Y-61029419D01*
X16355000Y-61410581D01*
X16429361Y-61784419D01*
X16575225Y-62136566D01*
X16786987Y-62453491D01*
X17056509Y-62723013D01*
X17373434Y-62934775D01*
X17725581Y-63080639D01*
X18099419Y-63155000D01*
X18480581Y-63155000D01*
X18854419Y-63080639D01*
X19206566Y-62934775D01*
X19523491Y-62723013D01*
X19793013Y-62453491D01*
X20004775Y-62136566D01*
X20150639Y-61784419D01*
X20225000Y-61410581D01*
X20225000Y-61029419D01*
X20150639Y-60655581D01*
X20004775Y-60303434D01*
X19793013Y-59986509D01*
X19523491Y-59716987D01*
X19206566Y-59505225D01*
X18854419Y-59359361D01*
X18480581Y-59285000D01*
X18099419Y-59285000D01*
X17725581Y-59359361D01*
X17373434Y-59505225D01*
X17056509Y-59716987D01*
X16786987Y-59986509D01*
X16575225Y-60303434D01*
X16429361Y-60655581D01*
X16355000Y-61029419D01*
X14127000Y-61029419D01*
X14127000Y-58670000D01*
X27648057Y-58670000D01*
X27675764Y-58951309D01*
X27757818Y-59221808D01*
X27891068Y-59471101D01*
X28070392Y-59689608D01*
X28288899Y-59868932D01*
X28421858Y-59940000D01*
X28288899Y-60011068D01*
X28070392Y-60190392D01*
X27891068Y-60408899D01*
X27757818Y-60658192D01*
X27675764Y-60928691D01*
X27648057Y-61210000D01*
X27675764Y-61491309D01*
X27757818Y-61761808D01*
X27891068Y-62011101D01*
X28070392Y-62229608D01*
X28288899Y-62408932D01*
X28421858Y-62480000D01*
X28288899Y-62551068D01*
X28070392Y-62730392D01*
X27891068Y-62948899D01*
X27757818Y-63198192D01*
X27675764Y-63468691D01*
X27648057Y-63750000D01*
X27675764Y-64031309D01*
X27757818Y-64301808D01*
X27891068Y-64551101D01*
X28070392Y-64769608D01*
X28288899Y-64948932D01*
X28421858Y-65020000D01*
X28288899Y-65091068D01*
X28070392Y-65270392D01*
X27891068Y-65488899D01*
X27757818Y-65738192D01*
X27675764Y-66008691D01*
X27648057Y-66290000D01*
X27675764Y-66571309D01*
X27757818Y-66841808D01*
X27891068Y-67091101D01*
X28070392Y-67309608D01*
X28288899Y-67488932D01*
X28421858Y-67560000D01*
X28288899Y-67631068D01*
X28070392Y-67810392D01*
X27891068Y-68028899D01*
X27757818Y-68278192D01*
X27675764Y-68548691D01*
X27648057Y-68830000D01*
X27675764Y-69111309D01*
X27757818Y-69381808D01*
X27891068Y-69631101D01*
X28070392Y-69849608D01*
X28288899Y-70028932D01*
X28421858Y-70100000D01*
X28288899Y-70171068D01*
X28070392Y-70350392D01*
X27891068Y-70568899D01*
X27757818Y-70818192D01*
X27675764Y-71088691D01*
X27648057Y-71370000D01*
X27675764Y-71651309D01*
X27757818Y-71921808D01*
X27891068Y-72171101D01*
X28070392Y-72389608D01*
X28288899Y-72568932D01*
X28421858Y-72640000D01*
X28288899Y-72711068D01*
X28070392Y-72890392D01*
X27891068Y-73108899D01*
X27757818Y-73358192D01*
X27675764Y-73628691D01*
X27648057Y-73910000D01*
X27675764Y-74191309D01*
X27757818Y-74461808D01*
X27891068Y-74711101D01*
X28070392Y-74929608D01*
X28288899Y-75108932D01*
X28421858Y-75180000D01*
X28288899Y-75251068D01*
X28070392Y-75430392D01*
X27891068Y-75648899D01*
X27757818Y-75898192D01*
X27675764Y-76168691D01*
X27648057Y-76450000D01*
X27675764Y-76731309D01*
X27757818Y-77001808D01*
X27891068Y-77251101D01*
X28070392Y-77469608D01*
X28288899Y-77648932D01*
X28421858Y-77720000D01*
X28288899Y-77791068D01*
X28070392Y-77970392D01*
X27891068Y-78188899D01*
X27757818Y-78438192D01*
X27675764Y-78708691D01*
X27648057Y-78990000D01*
X27675764Y-79271309D01*
X27757818Y-79541808D01*
X27891068Y-79791101D01*
X28070392Y-80009608D01*
X28288899Y-80188932D01*
X28421858Y-80260000D01*
X28288899Y-80331068D01*
X28070392Y-80510392D01*
X27891068Y-80728899D01*
X27757818Y-80978192D01*
X27675764Y-81248691D01*
X27648057Y-81530000D01*
X27675764Y-81811309D01*
X27757818Y-82081808D01*
X27891068Y-82331101D01*
X28070392Y-82549608D01*
X28288899Y-82728932D01*
X28538192Y-82862182D01*
X28808691Y-82944236D01*
X29019508Y-82965000D01*
X29160492Y-82965000D01*
X29371309Y-82944236D01*
X29641808Y-82862182D01*
X29891101Y-82728932D01*
X30109608Y-82549608D01*
X30288932Y-82331101D01*
X30422182Y-82081808D01*
X30504236Y-81811309D01*
X30531943Y-81530000D01*
X30504236Y-81248691D01*
X30422182Y-80978192D01*
X30288932Y-80728899D01*
X30109608Y-80510392D01*
X29891101Y-80331068D01*
X29758142Y-80260000D01*
X29891101Y-80188932D01*
X30109608Y-80009608D01*
X30288932Y-79791101D01*
X30422182Y-79541808D01*
X30504236Y-79271309D01*
X30531943Y-78990000D01*
X30504236Y-78708691D01*
X30422182Y-78438192D01*
X30288932Y-78188899D01*
X30109608Y-77970392D01*
X29891101Y-77791068D01*
X29758142Y-77720000D01*
X29891101Y-77648932D01*
X30109608Y-77469608D01*
X30288932Y-77251101D01*
X30422182Y-77001808D01*
X30504236Y-76731309D01*
X30531943Y-76450000D01*
X30504236Y-76168691D01*
X30422182Y-75898192D01*
X30288932Y-75648899D01*
X30109608Y-75430392D01*
X29891101Y-75251068D01*
X29758142Y-75180000D01*
X29891101Y-75108932D01*
X30109608Y-74929608D01*
X30288932Y-74711101D01*
X30422182Y-74461808D01*
X30504236Y-74191309D01*
X30531943Y-73910000D01*
X30504236Y-73628691D01*
X30422182Y-73358192D01*
X30288932Y-73108899D01*
X30109608Y-72890392D01*
X29891101Y-72711068D01*
X29758142Y-72640000D01*
X29891101Y-72568932D01*
X30109608Y-72389608D01*
X30288932Y-72171101D01*
X30422182Y-71921808D01*
X30504236Y-71651309D01*
X30531943Y-71370000D01*
X30504236Y-71088691D01*
X30422182Y-70818192D01*
X30288932Y-70568899D01*
X30109608Y-70350392D01*
X29891101Y-70171068D01*
X29758142Y-70100000D01*
X29891101Y-70028932D01*
X30109608Y-69849608D01*
X30288932Y-69631101D01*
X30422182Y-69381808D01*
X30504236Y-69111309D01*
X30531943Y-68830000D01*
X30504236Y-68548691D01*
X30422182Y-68278192D01*
X30288932Y-68028899D01*
X30109608Y-67810392D01*
X29891101Y-67631068D01*
X29758142Y-67560000D01*
X29891101Y-67488932D01*
X30109608Y-67309608D01*
X30288932Y-67091101D01*
X30422182Y-66841808D01*
X30504236Y-66571309D01*
X30531943Y-66290000D01*
X30504236Y-66008691D01*
X30422182Y-65738192D01*
X30288932Y-65488899D01*
X30109608Y-65270392D01*
X29891101Y-65091068D01*
X29758142Y-65020000D01*
X29891101Y-64948932D01*
X30109608Y-64769608D01*
X30288932Y-64551101D01*
X30422182Y-64301808D01*
X30504236Y-64031309D01*
X30531943Y-63750000D01*
X30504236Y-63468691D01*
X30422182Y-63198192D01*
X30288932Y-62948899D01*
X30109608Y-62730392D01*
X29891101Y-62551068D01*
X29758142Y-62480000D01*
X29891101Y-62408932D01*
X30109608Y-62229608D01*
X30288932Y-62011101D01*
X30422182Y-61761808D01*
X30504236Y-61491309D01*
X30531943Y-61210000D01*
X35268057Y-61210000D01*
X35295764Y-61491309D01*
X35377818Y-61761808D01*
X35511068Y-62011101D01*
X35690392Y-62229608D01*
X35908899Y-62408932D01*
X36041858Y-62480000D01*
X35908899Y-62551068D01*
X35690392Y-62730392D01*
X35511068Y-62948899D01*
X35377818Y-63198192D01*
X35295764Y-63468691D01*
X35268057Y-63750000D01*
X35295764Y-64031309D01*
X35377818Y-64301808D01*
X35511068Y-64551101D01*
X35690392Y-64769608D01*
X35908899Y-64948932D01*
X36041858Y-65020000D01*
X35908899Y-65091068D01*
X35690392Y-65270392D01*
X35511068Y-65488899D01*
X35377818Y-65738192D01*
X35295764Y-66008691D01*
X35268057Y-66290000D01*
X35295764Y-66571309D01*
X35377818Y-66841808D01*
X35511068Y-67091101D01*
X35690392Y-67309608D01*
X35908899Y-67488932D01*
X36041858Y-67560000D01*
X35908899Y-67631068D01*
X35690392Y-67810392D01*
X35511068Y-68028899D01*
X35377818Y-68278192D01*
X35295764Y-68548691D01*
X35268057Y-68830000D01*
X35295764Y-69111309D01*
X35377818Y-69381808D01*
X35511068Y-69631101D01*
X35690392Y-69849608D01*
X35908899Y-70028932D01*
X36041858Y-70100000D01*
X35908899Y-70171068D01*
X35690392Y-70350392D01*
X35511068Y-70568899D01*
X35377818Y-70818192D01*
X35295764Y-71088691D01*
X35268057Y-71370000D01*
X35295764Y-71651309D01*
X35377818Y-71921808D01*
X35511068Y-72171101D01*
X35690392Y-72389608D01*
X35908899Y-72568932D01*
X36041858Y-72640000D01*
X35908899Y-72711068D01*
X35690392Y-72890392D01*
X35511068Y-73108899D01*
X35377818Y-73358192D01*
X35295764Y-73628691D01*
X35268057Y-73910000D01*
X35295764Y-74191309D01*
X35377818Y-74461808D01*
X35511068Y-74711101D01*
X35690392Y-74929608D01*
X35908899Y-75108932D01*
X36041858Y-75180000D01*
X35908899Y-75251068D01*
X35690392Y-75430392D01*
X35511068Y-75648899D01*
X35377818Y-75898192D01*
X35295764Y-76168691D01*
X35268057Y-76450000D01*
X35295764Y-76731309D01*
X35377818Y-77001808D01*
X35511068Y-77251101D01*
X35690392Y-77469608D01*
X35908899Y-77648932D01*
X36041858Y-77720000D01*
X35908899Y-77791068D01*
X35690392Y-77970392D01*
X35511068Y-78188899D01*
X35377818Y-78438192D01*
X35295764Y-78708691D01*
X35268057Y-78990000D01*
X35295764Y-79271309D01*
X35377818Y-79541808D01*
X35511068Y-79791101D01*
X35690392Y-80009608D01*
X35803482Y-80102419D01*
X35785518Y-80104188D01*
X35665820Y-80140498D01*
X35555506Y-80199463D01*
X35458815Y-80278815D01*
X35379463Y-80375506D01*
X35320498Y-80485820D01*
X35284188Y-80605518D01*
X35271928Y-80730000D01*
X35271928Y-82330000D01*
X35284188Y-82454482D01*
X35320498Y-82574180D01*
X35379463Y-82684494D01*
X35458815Y-82781185D01*
X35555506Y-82860537D01*
X35665820Y-82919502D01*
X35785518Y-82955812D01*
X35910000Y-82968072D01*
X37510000Y-82968072D01*
X37634482Y-82955812D01*
X37754180Y-82919502D01*
X37864494Y-82860537D01*
X37961185Y-82781185D01*
X38040537Y-82684494D01*
X38099502Y-82574180D01*
X38135812Y-82454482D01*
X38148072Y-82330000D01*
X38148072Y-80730000D01*
X38135812Y-80605518D01*
X38099502Y-80485820D01*
X38040537Y-80375506D01*
X37961185Y-80278815D01*
X37864494Y-80199463D01*
X37754180Y-80140498D01*
X37634482Y-80104188D01*
X37616518Y-80102419D01*
X37729608Y-80009608D01*
X37908932Y-79791101D01*
X38042182Y-79541808D01*
X38124236Y-79271309D01*
X38137263Y-79139039D01*
X40908096Y-79139039D01*
X40948754Y-79273087D01*
X41068963Y-79527420D01*
X41236481Y-79753414D01*
X41444869Y-79942385D01*
X41686119Y-80087070D01*
X41950960Y-80181909D01*
X42173000Y-80060624D01*
X42173000Y-78917000D01*
X42427000Y-78917000D01*
X42427000Y-80060624D01*
X42649040Y-80181909D01*
X42913881Y-80087070D01*
X43155131Y-79942385D01*
X43363519Y-79753414D01*
X43531037Y-79527420D01*
X43651246Y-79273087D01*
X43691904Y-79139039D01*
X43569915Y-78917000D01*
X42427000Y-78917000D01*
X42173000Y-78917000D01*
X41030085Y-78917000D01*
X40908096Y-79139039D01*
X38137263Y-79139039D01*
X38151943Y-78990000D01*
X38124236Y-78708691D01*
X38042182Y-78438192D01*
X37908932Y-78188899D01*
X37729608Y-77970392D01*
X37511101Y-77791068D01*
X37378142Y-77720000D01*
X37511101Y-77648932D01*
X37729608Y-77469608D01*
X37908932Y-77251101D01*
X38042182Y-77001808D01*
X38124236Y-76731309D01*
X38151943Y-76450000D01*
X38124236Y-76168691D01*
X38042182Y-75898192D01*
X37908932Y-75648899D01*
X37729608Y-75430392D01*
X37511101Y-75251068D01*
X37378142Y-75180000D01*
X37511101Y-75108932D01*
X37729608Y-74929608D01*
X37908932Y-74711101D01*
X38042182Y-74461808D01*
X38124236Y-74191309D01*
X38151943Y-73910000D01*
X38124236Y-73628691D01*
X38042182Y-73358192D01*
X37908932Y-73108899D01*
X37729608Y-72890392D01*
X37511101Y-72711068D01*
X37378142Y-72640000D01*
X37511101Y-72568932D01*
X37729608Y-72389608D01*
X37908932Y-72171101D01*
X38042182Y-71921808D01*
X38124236Y-71651309D01*
X38151943Y-71370000D01*
X38124236Y-71088691D01*
X38042182Y-70818192D01*
X37908932Y-70568899D01*
X37729608Y-70350392D01*
X37511101Y-70171068D01*
X37378142Y-70100000D01*
X37511101Y-70028932D01*
X37729608Y-69849608D01*
X37908932Y-69631101D01*
X38042182Y-69381808D01*
X38124236Y-69111309D01*
X38151943Y-68830000D01*
X38124236Y-68548691D01*
X38042182Y-68278192D01*
X37908932Y-68028899D01*
X37729608Y-67810392D01*
X37511101Y-67631068D01*
X37378142Y-67560000D01*
X37511101Y-67488932D01*
X37729608Y-67309608D01*
X37908932Y-67091101D01*
X38042182Y-66841808D01*
X38124236Y-66571309D01*
X38151943Y-66290000D01*
X38124236Y-66008691D01*
X38042182Y-65738192D01*
X37908932Y-65488899D01*
X37729608Y-65270392D01*
X37511101Y-65091068D01*
X37378142Y-65020000D01*
X37511101Y-64948932D01*
X37729608Y-64769608D01*
X37908932Y-64551101D01*
X38042182Y-64301808D01*
X38124236Y-64031309D01*
X38151943Y-63750000D01*
X38132245Y-63550000D01*
X40858057Y-63550000D01*
X40885764Y-63831309D01*
X40967818Y-64101808D01*
X41101068Y-64351101D01*
X41280392Y-64569608D01*
X41498899Y-64748932D01*
X41631858Y-64820000D01*
X41498899Y-64891068D01*
X41280392Y-65070392D01*
X41101068Y-65288899D01*
X40967818Y-65538192D01*
X40885764Y-65808691D01*
X40858057Y-66090000D01*
X40885764Y-66371309D01*
X40967818Y-66641808D01*
X41101068Y-66891101D01*
X41280392Y-67109608D01*
X41498899Y-67288932D01*
X41631858Y-67360000D01*
X41498899Y-67431068D01*
X41280392Y-67610392D01*
X41101068Y-67828899D01*
X40967818Y-68078192D01*
X40885764Y-68348691D01*
X40858057Y-68630000D01*
X40885764Y-68911309D01*
X40967818Y-69181808D01*
X41101068Y-69431101D01*
X41280392Y-69649608D01*
X41498899Y-69828932D01*
X41631858Y-69900000D01*
X41498899Y-69971068D01*
X41280392Y-70150392D01*
X41101068Y-70368899D01*
X40967818Y-70618192D01*
X40885764Y-70888691D01*
X40858057Y-71170000D01*
X40885764Y-71451309D01*
X40967818Y-71721808D01*
X41101068Y-71971101D01*
X41280392Y-72189608D01*
X41498899Y-72368932D01*
X41631858Y-72440000D01*
X41498899Y-72511068D01*
X41280392Y-72690392D01*
X41101068Y-72908899D01*
X40967818Y-73158192D01*
X40885764Y-73428691D01*
X40858057Y-73710000D01*
X40885764Y-73991309D01*
X40967818Y-74261808D01*
X41101068Y-74511101D01*
X41280392Y-74729608D01*
X41498899Y-74908932D01*
X41631858Y-74980000D01*
X41498899Y-75051068D01*
X41280392Y-75230392D01*
X41101068Y-75448899D01*
X40967818Y-75698192D01*
X40885764Y-75968691D01*
X40858057Y-76250000D01*
X40885764Y-76531309D01*
X40967818Y-76801808D01*
X41101068Y-77051101D01*
X41280392Y-77269608D01*
X41498899Y-77448932D01*
X41636682Y-77522579D01*
X41444869Y-77637615D01*
X41236481Y-77826586D01*
X41068963Y-78052580D01*
X40948754Y-78306913D01*
X40908096Y-78440961D01*
X41030085Y-78663000D01*
X42173000Y-78663000D01*
X42173000Y-78643000D01*
X42427000Y-78643000D01*
X42427000Y-78663000D01*
X43569915Y-78663000D01*
X43691904Y-78440961D01*
X43651246Y-78306913D01*
X43531037Y-78052580D01*
X43363519Y-77826586D01*
X43155131Y-77637615D01*
X42963318Y-77522579D01*
X43101101Y-77448932D01*
X43319608Y-77269608D01*
X43498932Y-77051101D01*
X43632182Y-76801808D01*
X43714236Y-76531309D01*
X43741943Y-76250000D01*
X43714236Y-75968691D01*
X43632182Y-75698192D01*
X43498932Y-75448899D01*
X43319608Y-75230392D01*
X43101101Y-75051068D01*
X42968142Y-74980000D01*
X43101101Y-74908932D01*
X43319608Y-74729608D01*
X43498932Y-74511101D01*
X43632182Y-74261808D01*
X43714236Y-73991309D01*
X43741943Y-73710000D01*
X43714236Y-73428691D01*
X43632182Y-73158192D01*
X43498932Y-72908899D01*
X43319608Y-72690392D01*
X43101101Y-72511068D01*
X42968142Y-72440000D01*
X43101101Y-72368932D01*
X43319608Y-72189608D01*
X43498932Y-71971101D01*
X43632182Y-71721808D01*
X43714236Y-71451309D01*
X43741943Y-71170000D01*
X43714236Y-70888691D01*
X43632182Y-70618192D01*
X43498932Y-70368899D01*
X43319608Y-70150392D01*
X43101101Y-69971068D01*
X42968142Y-69900000D01*
X43101101Y-69828932D01*
X43319608Y-69649608D01*
X43498932Y-69431101D01*
X43632182Y-69181808D01*
X43714236Y-68911309D01*
X43741943Y-68630000D01*
X43714236Y-68348691D01*
X43632182Y-68078192D01*
X43498932Y-67828899D01*
X43319608Y-67610392D01*
X43101101Y-67431068D01*
X42968142Y-67360000D01*
X43101101Y-67288932D01*
X43319608Y-67109608D01*
X43498932Y-66891101D01*
X43632182Y-66641808D01*
X43714236Y-66371309D01*
X43741943Y-66090000D01*
X43714236Y-65808691D01*
X43632182Y-65538192D01*
X43498932Y-65288899D01*
X43319608Y-65070392D01*
X43101101Y-64891068D01*
X42968142Y-64820000D01*
X43101101Y-64748932D01*
X43319608Y-64569608D01*
X43498932Y-64351101D01*
X43632182Y-64101808D01*
X43714236Y-63831309D01*
X43741943Y-63550000D01*
X43714236Y-63268691D01*
X43632182Y-62998192D01*
X43498932Y-62748899D01*
X43319608Y-62530392D01*
X43206518Y-62437581D01*
X43224482Y-62435812D01*
X43344180Y-62399502D01*
X43454494Y-62340537D01*
X43551185Y-62261185D01*
X43630537Y-62164494D01*
X43689502Y-62054180D01*
X43725812Y-61934482D01*
X43738072Y-61810000D01*
X43738072Y-61010000D01*
X48478057Y-61010000D01*
X48505764Y-61291309D01*
X48587818Y-61561808D01*
X48721068Y-61811101D01*
X48900392Y-62029608D01*
X49118899Y-62208932D01*
X49251858Y-62280000D01*
X49118899Y-62351068D01*
X48900392Y-62530392D01*
X48721068Y-62748899D01*
X48587818Y-62998192D01*
X48505764Y-63268691D01*
X48478057Y-63550000D01*
X48505764Y-63831309D01*
X48587818Y-64101808D01*
X48721068Y-64351101D01*
X48900392Y-64569608D01*
X49118899Y-64748932D01*
X49251858Y-64820000D01*
X49118899Y-64891068D01*
X48900392Y-65070392D01*
X48721068Y-65288899D01*
X48587818Y-65538192D01*
X48505764Y-65808691D01*
X48478057Y-66090000D01*
X48505764Y-66371309D01*
X48587818Y-66641808D01*
X48721068Y-66891101D01*
X48900392Y-67109608D01*
X49118899Y-67288932D01*
X49251858Y-67360000D01*
X49118899Y-67431068D01*
X48900392Y-67610392D01*
X48721068Y-67828899D01*
X48587818Y-68078192D01*
X48505764Y-68348691D01*
X48478057Y-68630000D01*
X48505764Y-68911309D01*
X48587818Y-69181808D01*
X48721068Y-69431101D01*
X48900392Y-69649608D01*
X49118899Y-69828932D01*
X49251858Y-69900000D01*
X49118899Y-69971068D01*
X48900392Y-70150392D01*
X48721068Y-70368899D01*
X48587818Y-70618192D01*
X48505764Y-70888691D01*
X48478057Y-71170000D01*
X48505764Y-71451309D01*
X48587818Y-71721808D01*
X48721068Y-71971101D01*
X48900392Y-72189608D01*
X49118899Y-72368932D01*
X49251858Y-72440000D01*
X49118899Y-72511068D01*
X48900392Y-72690392D01*
X48721068Y-72908899D01*
X48587818Y-73158192D01*
X48505764Y-73428691D01*
X48478057Y-73710000D01*
X48505764Y-73991309D01*
X48587818Y-74261808D01*
X48721068Y-74511101D01*
X48900392Y-74729608D01*
X49118899Y-74908932D01*
X49251858Y-74980000D01*
X49118899Y-75051068D01*
X48900392Y-75230392D01*
X48721068Y-75448899D01*
X48587818Y-75698192D01*
X48505764Y-75968691D01*
X48478057Y-76250000D01*
X48505764Y-76531309D01*
X48587818Y-76801808D01*
X48721068Y-77051101D01*
X48900392Y-77269608D01*
X49118899Y-77448932D01*
X49251858Y-77520000D01*
X49118899Y-77591068D01*
X48900392Y-77770392D01*
X48721068Y-77988899D01*
X48587818Y-78238192D01*
X48505764Y-78508691D01*
X48478057Y-78790000D01*
X48505764Y-79071309D01*
X48587818Y-79341808D01*
X48721068Y-79591101D01*
X48900392Y-79809608D01*
X49118899Y-79988932D01*
X49368192Y-80122182D01*
X49638691Y-80204236D01*
X49849508Y-80225000D01*
X49990492Y-80225000D01*
X50201309Y-80204236D01*
X50471808Y-80122182D01*
X50721101Y-79988932D01*
X50939608Y-79809608D01*
X51118932Y-79591101D01*
X51252182Y-79341808D01*
X51334236Y-79071309D01*
X51361943Y-78790000D01*
X51334236Y-78508691D01*
X51252182Y-78238192D01*
X51118932Y-77988899D01*
X50939608Y-77770392D01*
X50721101Y-77591068D01*
X50588142Y-77520000D01*
X50721101Y-77448932D01*
X50939608Y-77269608D01*
X51118932Y-77051101D01*
X51252182Y-76801808D01*
X51334236Y-76531309D01*
X51361943Y-76250000D01*
X51334236Y-75968691D01*
X51252182Y-75698192D01*
X51118932Y-75448899D01*
X50939608Y-75230392D01*
X50721101Y-75051068D01*
X50588142Y-74980000D01*
X50721101Y-74908932D01*
X50939608Y-74729608D01*
X51118932Y-74511101D01*
X51252182Y-74261808D01*
X51334236Y-73991309D01*
X51361943Y-73710000D01*
X51334236Y-73428691D01*
X51252182Y-73158192D01*
X51118932Y-72908899D01*
X50939608Y-72690392D01*
X50721101Y-72511068D01*
X50588142Y-72440000D01*
X50721101Y-72368932D01*
X50939608Y-72189608D01*
X51118932Y-71971101D01*
X51252182Y-71721808D01*
X51334236Y-71451309D01*
X51361943Y-71170000D01*
X51334236Y-70888691D01*
X51252182Y-70618192D01*
X51118932Y-70368899D01*
X50939608Y-70150392D01*
X50721101Y-69971068D01*
X50588142Y-69900000D01*
X50721101Y-69828932D01*
X50939608Y-69649608D01*
X51118932Y-69431101D01*
X51252182Y-69181808D01*
X51334236Y-68911309D01*
X51361943Y-68630000D01*
X51334236Y-68348691D01*
X51252182Y-68078192D01*
X51118932Y-67828899D01*
X50939608Y-67610392D01*
X50721101Y-67431068D01*
X50588142Y-67360000D01*
X50721101Y-67288932D01*
X50939608Y-67109608D01*
X51118932Y-66891101D01*
X51252182Y-66641808D01*
X51334236Y-66371309D01*
X51361943Y-66090000D01*
X51334236Y-65808691D01*
X51252182Y-65538192D01*
X51118932Y-65288899D01*
X50939608Y-65070392D01*
X50721101Y-64891068D01*
X50588142Y-64820000D01*
X50721101Y-64748932D01*
X50939608Y-64569608D01*
X51118932Y-64351101D01*
X51252182Y-64101808D01*
X51334236Y-63831309D01*
X51361943Y-63550000D01*
X51334236Y-63268691D01*
X51252182Y-62998192D01*
X51118932Y-62748899D01*
X50939608Y-62530392D01*
X50721101Y-62351068D01*
X50588142Y-62280000D01*
X50721101Y-62208932D01*
X50939608Y-62029608D01*
X51118932Y-61811101D01*
X51252182Y-61561808D01*
X51334236Y-61291309D01*
X51361943Y-61010000D01*
X51334236Y-60728691D01*
X51252182Y-60458192D01*
X51118932Y-60208899D01*
X50939608Y-59990392D01*
X50721101Y-59811068D01*
X50471808Y-59677818D01*
X50201309Y-59595764D01*
X49990492Y-59575000D01*
X49849508Y-59575000D01*
X49638691Y-59595764D01*
X49368192Y-59677818D01*
X49118899Y-59811068D01*
X48900392Y-59990392D01*
X48721068Y-60208899D01*
X48587818Y-60458192D01*
X48505764Y-60728691D01*
X48478057Y-61010000D01*
X43738072Y-61010000D01*
X43738072Y-60210000D01*
X43725812Y-60085518D01*
X43689502Y-59965820D01*
X43630537Y-59855506D01*
X43551185Y-59758815D01*
X43454494Y-59679463D01*
X43344180Y-59620498D01*
X43224482Y-59584188D01*
X43100000Y-59571928D01*
X41500000Y-59571928D01*
X41375518Y-59584188D01*
X41255820Y-59620498D01*
X41145506Y-59679463D01*
X41048815Y-59758815D01*
X40969463Y-59855506D01*
X40910498Y-59965820D01*
X40874188Y-60085518D01*
X40861928Y-60210000D01*
X40861928Y-61810000D01*
X40874188Y-61934482D01*
X40910498Y-62054180D01*
X40969463Y-62164494D01*
X41048815Y-62261185D01*
X41145506Y-62340537D01*
X41255820Y-62399502D01*
X41375518Y-62435812D01*
X41393482Y-62437581D01*
X41280392Y-62530392D01*
X41101068Y-62748899D01*
X40967818Y-62998192D01*
X40885764Y-63268691D01*
X40858057Y-63550000D01*
X38132245Y-63550000D01*
X38124236Y-63468691D01*
X38042182Y-63198192D01*
X37908932Y-62948899D01*
X37729608Y-62730392D01*
X37511101Y-62551068D01*
X37378142Y-62480000D01*
X37511101Y-62408932D01*
X37729608Y-62229608D01*
X37908932Y-62011101D01*
X38042182Y-61761808D01*
X38124236Y-61491309D01*
X38151943Y-61210000D01*
X38124236Y-60928691D01*
X38042182Y-60658192D01*
X37908932Y-60408899D01*
X37729608Y-60190392D01*
X37511101Y-60011068D01*
X37373318Y-59937421D01*
X37565131Y-59822385D01*
X37773519Y-59633414D01*
X37941037Y-59407420D01*
X38061246Y-59153087D01*
X38101904Y-59019039D01*
X37979915Y-58797000D01*
X36837000Y-58797000D01*
X36837000Y-58817000D01*
X36583000Y-58817000D01*
X36583000Y-58797000D01*
X35440085Y-58797000D01*
X35318096Y-59019039D01*
X35358754Y-59153087D01*
X35478963Y-59407420D01*
X35646481Y-59633414D01*
X35854869Y-59822385D01*
X36046682Y-59937421D01*
X35908899Y-60011068D01*
X35690392Y-60190392D01*
X35511068Y-60408899D01*
X35377818Y-60658192D01*
X35295764Y-60928691D01*
X35268057Y-61210000D01*
X30531943Y-61210000D01*
X30504236Y-60928691D01*
X30422182Y-60658192D01*
X30288932Y-60408899D01*
X30109608Y-60190392D01*
X29891101Y-60011068D01*
X29758142Y-59940000D01*
X29891101Y-59868932D01*
X30109608Y-59689608D01*
X30288932Y-59471101D01*
X30422182Y-59221808D01*
X30504236Y-58951309D01*
X30531943Y-58670000D01*
X30504236Y-58388691D01*
X30483691Y-58320961D01*
X35318096Y-58320961D01*
X35440085Y-58543000D01*
X36583000Y-58543000D01*
X36583000Y-57399376D01*
X36837000Y-57399376D01*
X36837000Y-58543000D01*
X37979915Y-58543000D01*
X38101904Y-58320961D01*
X38061246Y-58186913D01*
X37941037Y-57932580D01*
X37773519Y-57706586D01*
X37565131Y-57517615D01*
X37323881Y-57372930D01*
X37059040Y-57278091D01*
X36837000Y-57399376D01*
X36583000Y-57399376D01*
X36360960Y-57278091D01*
X36096119Y-57372930D01*
X35854869Y-57517615D01*
X35646481Y-57706586D01*
X35478963Y-57932580D01*
X35358754Y-58186913D01*
X35318096Y-58320961D01*
X30483691Y-58320961D01*
X30422182Y-58118192D01*
X30288932Y-57868899D01*
X30109608Y-57650392D01*
X29891101Y-57471068D01*
X29641808Y-57337818D01*
X29371309Y-57255764D01*
X29160492Y-57235000D01*
X29019508Y-57235000D01*
X28808691Y-57255764D01*
X28538192Y-57337818D01*
X28288899Y-57471068D01*
X28070392Y-57650392D01*
X27891068Y-57868899D01*
X27757818Y-58118192D01*
X27675764Y-58388691D01*
X27648057Y-58670000D01*
X14127000Y-58670000D01*
X14127000Y-57569224D01*
X17120381Y-57569224D01*
X17252317Y-57864312D01*
X17593045Y-58035159D01*
X17960557Y-58136250D01*
X18340729Y-58163701D01*
X18718951Y-58116457D01*
X19080690Y-57996333D01*
X19327683Y-57864312D01*
X19459619Y-57569224D01*
X18290000Y-56399605D01*
X17120381Y-57569224D01*
X14127000Y-57569224D01*
X14127000Y-56270729D01*
X16346299Y-56270729D01*
X16393543Y-56648951D01*
X16513667Y-57010690D01*
X16645688Y-57257683D01*
X16940776Y-57389619D01*
X18110395Y-56220000D01*
X18469605Y-56220000D01*
X19639224Y-57389619D01*
X19934312Y-57257683D01*
X20105159Y-56916955D01*
X20206250Y-56549443D01*
X20233701Y-56169271D01*
X20186457Y-55791049D01*
X20066333Y-55429310D01*
X19934312Y-55182317D01*
X19639224Y-55050381D01*
X18469605Y-56220000D01*
X18110395Y-56220000D01*
X16940776Y-55050381D01*
X16645688Y-55182317D01*
X16474841Y-55523045D01*
X16373750Y-55890557D01*
X16346299Y-56270729D01*
X14127000Y-56270729D01*
X14127000Y-54870776D01*
X17120381Y-54870776D01*
X18290000Y-56040395D01*
X19459619Y-54870776D01*
X19327683Y-54575688D01*
X18986955Y-54404841D01*
X18619443Y-54303750D01*
X18239271Y-54276299D01*
X17861049Y-54323543D01*
X17499310Y-54443667D01*
X17252317Y-54575688D01*
X17120381Y-54870776D01*
X14127000Y-54870776D01*
X14127000Y-51029419D01*
X16355000Y-51029419D01*
X16355000Y-51410581D01*
X16429361Y-51784419D01*
X16575225Y-52136566D01*
X16786987Y-52453491D01*
X17056509Y-52723013D01*
X17373434Y-52934775D01*
X17725581Y-53080639D01*
X18099419Y-53155000D01*
X18480581Y-53155000D01*
X18854419Y-53080639D01*
X19206566Y-52934775D01*
X19523491Y-52723013D01*
X19793013Y-52453491D01*
X20004775Y-52136566D01*
X20150639Y-51784419D01*
X20175387Y-51660000D01*
X44601928Y-51660000D01*
X44614188Y-51784482D01*
X44650498Y-51904180D01*
X44709463Y-52014494D01*
X44788815Y-52111185D01*
X44885506Y-52190537D01*
X44995820Y-52249502D01*
X45115518Y-52285812D01*
X45240000Y-52298072D01*
X45854250Y-52295000D01*
X46013000Y-52136250D01*
X46013000Y-50887000D01*
X46267000Y-50887000D01*
X46267000Y-52136250D01*
X46425750Y-52295000D01*
X47040000Y-52298072D01*
X47164482Y-52285812D01*
X47284180Y-52249502D01*
X47394494Y-52190537D01*
X47491185Y-52111185D01*
X47570537Y-52014494D01*
X47629502Y-51904180D01*
X47665812Y-51784482D01*
X47678072Y-51660000D01*
X47675000Y-51045750D01*
X47516250Y-50887000D01*
X46267000Y-50887000D01*
X46013000Y-50887000D01*
X44763750Y-50887000D01*
X44605000Y-51045750D01*
X44601928Y-51660000D01*
X20175387Y-51660000D01*
X20225000Y-51410581D01*
X20225000Y-51029419D01*
X20150639Y-50655581D01*
X20004775Y-50303434D01*
X19793013Y-49986509D01*
X19526504Y-49720000D01*
X26128057Y-49720000D01*
X26155764Y-50001309D01*
X26237818Y-50271808D01*
X26371068Y-50521101D01*
X26550392Y-50739608D01*
X26768899Y-50918932D01*
X27018192Y-51052182D01*
X27288691Y-51134236D01*
X27499508Y-51155000D01*
X27640492Y-51155000D01*
X27851309Y-51134236D01*
X28121808Y-51052182D01*
X28371101Y-50918932D01*
X28589608Y-50739608D01*
X28768932Y-50521101D01*
X28902182Y-50271808D01*
X28984236Y-50001309D01*
X29011943Y-49720000D01*
X28998023Y-49578665D01*
X38835000Y-49578665D01*
X38835000Y-49861335D01*
X38890147Y-50138574D01*
X38998320Y-50399727D01*
X39155363Y-50634759D01*
X39355241Y-50834637D01*
X39590273Y-50991680D01*
X39851426Y-51099853D01*
X40128665Y-51155000D01*
X40411335Y-51155000D01*
X40688574Y-51099853D01*
X40949727Y-50991680D01*
X41184759Y-50834637D01*
X41384637Y-50634759D01*
X41541680Y-50399727D01*
X41649853Y-50138574D01*
X41705000Y-49861335D01*
X41705000Y-49860000D01*
X44601928Y-49860000D01*
X44605000Y-50474250D01*
X44763750Y-50633000D01*
X46013000Y-50633000D01*
X46013000Y-50613000D01*
X46267000Y-50613000D01*
X46267000Y-50633000D01*
X47516250Y-50633000D01*
X47675000Y-50474250D01*
X47675321Y-50410000D01*
X50611928Y-50410000D01*
X50624188Y-50534482D01*
X50660498Y-50654180D01*
X50719463Y-50764494D01*
X50798815Y-50861185D01*
X50895506Y-50940537D01*
X51005820Y-50999502D01*
X51125518Y-51035812D01*
X51250000Y-51048072D01*
X51864250Y-51045000D01*
X52023000Y-50886250D01*
X52023000Y-49637000D01*
X50773750Y-49637000D01*
X50615000Y-49795750D01*
X50611928Y-50410000D01*
X47675321Y-50410000D01*
X47678072Y-49860000D01*
X47665812Y-49735518D01*
X47629502Y-49615820D01*
X47570537Y-49505506D01*
X47491185Y-49408815D01*
X47394494Y-49329463D01*
X47284180Y-49270498D01*
X47265873Y-49264944D01*
X47332312Y-49198505D01*
X47500299Y-48947095D01*
X47616011Y-48667743D01*
X47627496Y-48610000D01*
X50611928Y-48610000D01*
X50615000Y-49224250D01*
X50773750Y-49383000D01*
X52023000Y-49383000D01*
X52023000Y-48133750D01*
X52277000Y-48133750D01*
X52277000Y-49383000D01*
X52297000Y-49383000D01*
X52297000Y-49637000D01*
X52277000Y-49637000D01*
X52277000Y-50886250D01*
X52435750Y-51045000D01*
X53050000Y-51048072D01*
X53174482Y-51035812D01*
X53294180Y-50999502D01*
X53404494Y-50940537D01*
X53501185Y-50861185D01*
X53580537Y-50764494D01*
X53639502Y-50654180D01*
X53645056Y-50635873D01*
X53711495Y-50702312D01*
X53962905Y-50870299D01*
X54242257Y-50986011D01*
X54538816Y-51045000D01*
X54841184Y-51045000D01*
X55137743Y-50986011D01*
X55417095Y-50870299D01*
X55668505Y-50702312D01*
X55882312Y-50488505D01*
X56050299Y-50237095D01*
X56166011Y-49957743D01*
X56225000Y-49661184D01*
X56225000Y-49358816D01*
X56166011Y-49062257D01*
X56050299Y-48782905D01*
X55882312Y-48531495D01*
X55668505Y-48317688D01*
X55417095Y-48149701D01*
X55137743Y-48033989D01*
X54841184Y-47975000D01*
X54538816Y-47975000D01*
X54242257Y-48033989D01*
X53962905Y-48149701D01*
X53711495Y-48317688D01*
X53645056Y-48384127D01*
X53639502Y-48365820D01*
X53580537Y-48255506D01*
X53501185Y-48158815D01*
X53404494Y-48079463D01*
X53294180Y-48020498D01*
X53174482Y-47984188D01*
X53050000Y-47971928D01*
X52435750Y-47975000D01*
X52277000Y-48133750D01*
X52023000Y-48133750D01*
X51864250Y-47975000D01*
X51250000Y-47971928D01*
X51125518Y-47984188D01*
X51005820Y-48020498D01*
X50895506Y-48079463D01*
X50798815Y-48158815D01*
X50719463Y-48255506D01*
X50660498Y-48365820D01*
X50624188Y-48485518D01*
X50611928Y-48610000D01*
X47627496Y-48610000D01*
X47675000Y-48371184D01*
X47675000Y-48068816D01*
X47616011Y-47772257D01*
X47500299Y-47492905D01*
X47332312Y-47241495D01*
X47118505Y-47027688D01*
X46867095Y-46859701D01*
X46587743Y-46743989D01*
X46291184Y-46685000D01*
X45988816Y-46685000D01*
X45692257Y-46743989D01*
X45412905Y-46859701D01*
X45161495Y-47027688D01*
X44947688Y-47241495D01*
X44779701Y-47492905D01*
X44663989Y-47772257D01*
X44605000Y-48068816D01*
X44605000Y-48371184D01*
X44663989Y-48667743D01*
X44779701Y-48947095D01*
X44947688Y-49198505D01*
X45014127Y-49264944D01*
X44995820Y-49270498D01*
X44885506Y-49329463D01*
X44788815Y-49408815D01*
X44709463Y-49505506D01*
X44650498Y-49615820D01*
X44614188Y-49735518D01*
X44601928Y-49860000D01*
X41705000Y-49860000D01*
X41705000Y-49578665D01*
X41649853Y-49301426D01*
X41541680Y-49040273D01*
X41384637Y-48805241D01*
X41184759Y-48605363D01*
X40949727Y-48448320D01*
X40688574Y-48340147D01*
X40411335Y-48285000D01*
X40128665Y-48285000D01*
X39851426Y-48340147D01*
X39590273Y-48448320D01*
X39355241Y-48605363D01*
X39155363Y-48805241D01*
X38998320Y-49040273D01*
X38890147Y-49301426D01*
X38835000Y-49578665D01*
X28998023Y-49578665D01*
X28984236Y-49438691D01*
X28902182Y-49168192D01*
X28768932Y-48918899D01*
X28589608Y-48700392D01*
X28371101Y-48521068D01*
X28121808Y-48387818D01*
X27851309Y-48305764D01*
X27640492Y-48285000D01*
X27499508Y-48285000D01*
X27288691Y-48305764D01*
X27018192Y-48387818D01*
X26768899Y-48521068D01*
X26550392Y-48700392D01*
X26371068Y-48918899D01*
X26237818Y-49168192D01*
X26155764Y-49438691D01*
X26128057Y-49720000D01*
X19526504Y-49720000D01*
X19523491Y-49716987D01*
X19206566Y-49505225D01*
X18854419Y-49359361D01*
X18480581Y-49285000D01*
X18099419Y-49285000D01*
X17725581Y-49359361D01*
X17373434Y-49505225D01*
X17056509Y-49716987D01*
X16786987Y-49986509D01*
X16575225Y-50303434D01*
X16429361Y-50655581D01*
X16355000Y-51029419D01*
X14127000Y-51029419D01*
X14127000Y-47520000D01*
X16351928Y-47520000D01*
X16364188Y-47644482D01*
X16400498Y-47764180D01*
X16459463Y-47874494D01*
X16538815Y-47971185D01*
X16635506Y-48050537D01*
X16745820Y-48109502D01*
X16865518Y-48145812D01*
X16990000Y-48158072D01*
X18004250Y-48155000D01*
X18163000Y-47996250D01*
X18163000Y-46347000D01*
X18417000Y-46347000D01*
X18417000Y-47996250D01*
X18575750Y-48155000D01*
X19590000Y-48158072D01*
X19714482Y-48145812D01*
X19834180Y-48109502D01*
X19944494Y-48050537D01*
X20041185Y-47971185D01*
X20120537Y-47874494D01*
X20179502Y-47764180D01*
X20215812Y-47644482D01*
X20228072Y-47520000D01*
X20225000Y-46505750D01*
X20066250Y-46347000D01*
X18417000Y-46347000D01*
X18163000Y-46347000D01*
X16513750Y-46347000D01*
X16355000Y-46505750D01*
X16351928Y-47520000D01*
X14127000Y-47520000D01*
X14127000Y-44920000D01*
X16351928Y-44920000D01*
X16355000Y-45934250D01*
X16513750Y-46093000D01*
X18163000Y-46093000D01*
X18163000Y-44443750D01*
X18417000Y-44443750D01*
X18417000Y-46093000D01*
X20066250Y-46093000D01*
X20225000Y-45934250D01*
X20228072Y-44920000D01*
X20215812Y-44795518D01*
X20179502Y-44675820D01*
X20120537Y-44565506D01*
X20041185Y-44468815D01*
X19944494Y-44389463D01*
X19834180Y-44330498D01*
X19714482Y-44294188D01*
X19590000Y-44281928D01*
X18575750Y-44285000D01*
X18417000Y-44443750D01*
X18163000Y-44443750D01*
X18004250Y-44285000D01*
X16990000Y-44281928D01*
X16865518Y-44294188D01*
X16745820Y-44330498D01*
X16635506Y-44389463D01*
X16538815Y-44468815D01*
X16459463Y-44565506D01*
X16400498Y-44675820D01*
X16364188Y-44795518D01*
X16351928Y-44920000D01*
X14127000Y-44920000D01*
X14127000Y-41109224D01*
X17120381Y-41109224D01*
X17252317Y-41404312D01*
X17593045Y-41575159D01*
X17960557Y-41676250D01*
X18340729Y-41703701D01*
X18718951Y-41656457D01*
X19080690Y-41536333D01*
X19327683Y-41404312D01*
X19459619Y-41109224D01*
X18290000Y-39939605D01*
X17120381Y-41109224D01*
X14127000Y-41109224D01*
X14127000Y-39810729D01*
X16346299Y-39810729D01*
X16393543Y-40188951D01*
X16513667Y-40550690D01*
X16645688Y-40797683D01*
X16940776Y-40929619D01*
X18110395Y-39760000D01*
X18469605Y-39760000D01*
X19639224Y-40929619D01*
X19934312Y-40797683D01*
X20105159Y-40456955D01*
X20142690Y-40320512D01*
X24909783Y-40320512D01*
X24951213Y-40600130D01*
X25046397Y-40866292D01*
X25113329Y-40991514D01*
X25357298Y-41063097D01*
X26170395Y-40250000D01*
X25357298Y-39436903D01*
X25113329Y-39508486D01*
X24992429Y-39763996D01*
X24923700Y-40038184D01*
X24909783Y-40320512D01*
X20142690Y-40320512D01*
X20206250Y-40089443D01*
X20233701Y-39709271D01*
X20186457Y-39331049D01*
X20161967Y-39257298D01*
X25536903Y-39257298D01*
X26350000Y-40070395D01*
X26364143Y-40056253D01*
X26543748Y-40235858D01*
X26529605Y-40250000D01*
X26543748Y-40264143D01*
X26364143Y-40443748D01*
X26350000Y-40429605D01*
X25536903Y-41242702D01*
X25608486Y-41486671D01*
X25863996Y-41607571D01*
X26138184Y-41676300D01*
X26420512Y-41690217D01*
X26700130Y-41648787D01*
X26966292Y-41553603D01*
X27088309Y-41488384D01*
X27098815Y-41501185D01*
X27195506Y-41580537D01*
X27305820Y-41639502D01*
X27425518Y-41675812D01*
X27550000Y-41688072D01*
X29150000Y-41688072D01*
X29274482Y-41675812D01*
X29394180Y-41639502D01*
X29504494Y-41580537D01*
X29601185Y-41501185D01*
X29680537Y-41404494D01*
X29739502Y-41294180D01*
X29775812Y-41174482D01*
X29788072Y-41050000D01*
X29788072Y-40170512D01*
X33129783Y-40170512D01*
X33171213Y-40450130D01*
X33266397Y-40716292D01*
X33333329Y-40841514D01*
X33577298Y-40913097D01*
X34390395Y-40100000D01*
X33577298Y-39286903D01*
X33333329Y-39358486D01*
X33212429Y-39613996D01*
X33143700Y-39888184D01*
X33129783Y-40170512D01*
X29788072Y-40170512D01*
X29788072Y-39450000D01*
X29775812Y-39325518D01*
X29739502Y-39205820D01*
X29686841Y-39107298D01*
X33756903Y-39107298D01*
X34570000Y-39920395D01*
X34584143Y-39906253D01*
X34763748Y-40085858D01*
X34749605Y-40100000D01*
X34763748Y-40114143D01*
X34584143Y-40293748D01*
X34570000Y-40279605D01*
X33756903Y-41092702D01*
X33828486Y-41336671D01*
X34083996Y-41457571D01*
X34358184Y-41526300D01*
X34640512Y-41540217D01*
X34920130Y-41498787D01*
X35186292Y-41403603D01*
X35308309Y-41338384D01*
X35318815Y-41351185D01*
X35415506Y-41430537D01*
X35525820Y-41489502D01*
X35645518Y-41525812D01*
X35770000Y-41538072D01*
X37370000Y-41538072D01*
X37494482Y-41525812D01*
X37614180Y-41489502D01*
X37724494Y-41430537D01*
X37821185Y-41351185D01*
X37900537Y-41254494D01*
X37935010Y-41190000D01*
X38868057Y-41190000D01*
X38895764Y-41471309D01*
X38977818Y-41741808D01*
X39111068Y-41991101D01*
X39290392Y-42209608D01*
X39508899Y-42388932D01*
X39758192Y-42522182D01*
X40028691Y-42604236D01*
X40239508Y-42625000D01*
X40380492Y-42625000D01*
X40591309Y-42604236D01*
X40861808Y-42522182D01*
X41111101Y-42388932D01*
X41329608Y-42209608D01*
X41508932Y-41991101D01*
X41642182Y-41741808D01*
X41724236Y-41471309D01*
X41751943Y-41190000D01*
X41738023Y-41048665D01*
X51575000Y-41048665D01*
X51575000Y-41331335D01*
X51630147Y-41608574D01*
X51738320Y-41869727D01*
X51895363Y-42104759D01*
X52095241Y-42304637D01*
X52330273Y-42461680D01*
X52591426Y-42569853D01*
X52868665Y-42625000D01*
X53151335Y-42625000D01*
X53428574Y-42569853D01*
X53689727Y-42461680D01*
X53924759Y-42304637D01*
X54124637Y-42104759D01*
X54281680Y-41869727D01*
X54389853Y-41608574D01*
X54445000Y-41331335D01*
X54445000Y-41048665D01*
X54389853Y-40771426D01*
X54281680Y-40510273D01*
X54124637Y-40275241D01*
X53924759Y-40075363D01*
X53689727Y-39918320D01*
X53428574Y-39810147D01*
X53151335Y-39755000D01*
X52868665Y-39755000D01*
X52591426Y-39810147D01*
X52330273Y-39918320D01*
X52095241Y-40075363D01*
X51895363Y-40275241D01*
X51738320Y-40510273D01*
X51630147Y-40771426D01*
X51575000Y-41048665D01*
X41738023Y-41048665D01*
X41724236Y-40908691D01*
X41642182Y-40638192D01*
X41508932Y-40388899D01*
X41329608Y-40170392D01*
X41111101Y-39991068D01*
X40861808Y-39857818D01*
X40591309Y-39775764D01*
X40380492Y-39755000D01*
X40239508Y-39755000D01*
X40028691Y-39775764D01*
X39758192Y-39857818D01*
X39508899Y-39991068D01*
X39290392Y-40170392D01*
X39111068Y-40388899D01*
X38977818Y-40638192D01*
X38895764Y-40908691D01*
X38868057Y-41190000D01*
X37935010Y-41190000D01*
X37959502Y-41144180D01*
X37995812Y-41024482D01*
X38008072Y-40900000D01*
X38008072Y-39300000D01*
X37995812Y-39175518D01*
X37959502Y-39055820D01*
X37900537Y-38945506D01*
X37821185Y-38848815D01*
X37724494Y-38769463D01*
X37614180Y-38710498D01*
X37494482Y-38674188D01*
X37370000Y-38661928D01*
X35770000Y-38661928D01*
X35645518Y-38674188D01*
X35525820Y-38710498D01*
X35415506Y-38769463D01*
X35318815Y-38848815D01*
X35308193Y-38861758D01*
X35056004Y-38742429D01*
X34781816Y-38673700D01*
X34499488Y-38659783D01*
X34219870Y-38701213D01*
X33953708Y-38796397D01*
X33828486Y-38863329D01*
X33756903Y-39107298D01*
X29686841Y-39107298D01*
X29680537Y-39095506D01*
X29601185Y-38998815D01*
X29504494Y-38919463D01*
X29394180Y-38860498D01*
X29274482Y-38824188D01*
X29150000Y-38811928D01*
X27550000Y-38811928D01*
X27425518Y-38824188D01*
X27305820Y-38860498D01*
X27195506Y-38919463D01*
X27098815Y-38998815D01*
X27088193Y-39011758D01*
X26836004Y-38892429D01*
X26561816Y-38823700D01*
X26279488Y-38809783D01*
X25999870Y-38851213D01*
X25733708Y-38946397D01*
X25608486Y-39013329D01*
X25536903Y-39257298D01*
X20161967Y-39257298D01*
X20066333Y-38969310D01*
X19934312Y-38722317D01*
X19639224Y-38590381D01*
X18469605Y-39760000D01*
X18110395Y-39760000D01*
X16940776Y-38590381D01*
X16645688Y-38722317D01*
X16474841Y-39063045D01*
X16373750Y-39430557D01*
X16346299Y-39810729D01*
X14127000Y-39810729D01*
X14127000Y-38410776D01*
X17120381Y-38410776D01*
X18290000Y-39580395D01*
X19459619Y-38410776D01*
X19327683Y-38115688D01*
X18986955Y-37944841D01*
X18619443Y-37843750D01*
X18239271Y-37816299D01*
X17861049Y-37863543D01*
X17499310Y-37983667D01*
X17252317Y-38115688D01*
X17120381Y-38410776D01*
X14127000Y-38410776D01*
X14127000Y-33460000D01*
X16351928Y-33460000D01*
X16351928Y-36060000D01*
X16364188Y-36184482D01*
X16400498Y-36304180D01*
X16459463Y-36414494D01*
X16538815Y-36511185D01*
X16635506Y-36590537D01*
X16745820Y-36649502D01*
X16865518Y-36685812D01*
X16990000Y-36698072D01*
X19590000Y-36698072D01*
X19714482Y-36685812D01*
X19834180Y-36649502D01*
X19944494Y-36590537D01*
X20041185Y-36511185D01*
X20120537Y-36414494D01*
X20179502Y-36304180D01*
X20215812Y-36184482D01*
X20228072Y-36060000D01*
X20228072Y-33700512D01*
X24859783Y-33700512D01*
X24901213Y-33980130D01*
X24996397Y-34246292D01*
X25063329Y-34371514D01*
X25307298Y-34443097D01*
X26120395Y-33630000D01*
X25307298Y-32816903D01*
X25063329Y-32888486D01*
X24942429Y-33143996D01*
X24873700Y-33418184D01*
X24859783Y-33700512D01*
X20228072Y-33700512D01*
X20228072Y-33460000D01*
X20215812Y-33335518D01*
X20179502Y-33215820D01*
X20120537Y-33105506D01*
X20041185Y-33008815D01*
X19944494Y-32929463D01*
X19834180Y-32870498D01*
X19714482Y-32834188D01*
X19590000Y-32821928D01*
X16990000Y-32821928D01*
X16865518Y-32834188D01*
X16745820Y-32870498D01*
X16635506Y-32929463D01*
X16538815Y-33008815D01*
X16459463Y-33105506D01*
X16400498Y-33215820D01*
X16364188Y-33335518D01*
X16351928Y-33460000D01*
X14127000Y-33460000D01*
X14127000Y-32637298D01*
X25486903Y-32637298D01*
X26300000Y-33450395D01*
X26314143Y-33436253D01*
X26493748Y-33615858D01*
X26479605Y-33630000D01*
X26493748Y-33644143D01*
X26314143Y-33823748D01*
X26300000Y-33809605D01*
X25486903Y-34622702D01*
X25558486Y-34866671D01*
X25813996Y-34987571D01*
X26088184Y-35056300D01*
X26370512Y-35070217D01*
X26650130Y-35028787D01*
X26916292Y-34933603D01*
X27038309Y-34868384D01*
X27048815Y-34881185D01*
X27145506Y-34960537D01*
X27255820Y-35019502D01*
X27375518Y-35055812D01*
X27500000Y-35068072D01*
X29100000Y-35068072D01*
X29224482Y-35055812D01*
X29344180Y-35019502D01*
X29454494Y-34960537D01*
X29551185Y-34881185D01*
X29630537Y-34784494D01*
X29689502Y-34674180D01*
X29725812Y-34554482D01*
X29738072Y-34430000D01*
X29738072Y-33520512D01*
X33149783Y-33520512D01*
X33191213Y-33800130D01*
X33286397Y-34066292D01*
X33353329Y-34191514D01*
X33597298Y-34263097D01*
X34410395Y-33450000D01*
X33597298Y-32636903D01*
X33353329Y-32708486D01*
X33232429Y-32963996D01*
X33163700Y-33238184D01*
X33149783Y-33520512D01*
X29738072Y-33520512D01*
X29738072Y-32830000D01*
X29725812Y-32705518D01*
X29689502Y-32585820D01*
X29630537Y-32475506D01*
X29615595Y-32457298D01*
X33776903Y-32457298D01*
X34590000Y-33270395D01*
X34604143Y-33256253D01*
X34783748Y-33435858D01*
X34769605Y-33450000D01*
X34783748Y-33464143D01*
X34604143Y-33643748D01*
X34590000Y-33629605D01*
X33776903Y-34442702D01*
X33848486Y-34686671D01*
X34103996Y-34807571D01*
X34378184Y-34876300D01*
X34660512Y-34890217D01*
X34940130Y-34848787D01*
X35206292Y-34753603D01*
X35328309Y-34688384D01*
X35338815Y-34701185D01*
X35435506Y-34780537D01*
X35545820Y-34839502D01*
X35665518Y-34875812D01*
X35790000Y-34888072D01*
X37390000Y-34888072D01*
X37514482Y-34875812D01*
X37634180Y-34839502D01*
X37744494Y-34780537D01*
X37841185Y-34701185D01*
X37920537Y-34604494D01*
X37979502Y-34494180D01*
X38015812Y-34374482D01*
X38028072Y-34250000D01*
X38028072Y-33847801D01*
X56181804Y-33847801D01*
X56288129Y-34121148D01*
X56592658Y-34270778D01*
X56920525Y-34358122D01*
X57259134Y-34379824D01*
X57595470Y-34335049D01*
X57916607Y-34225519D01*
X58111871Y-34121148D01*
X58218196Y-33847801D01*
X57200000Y-32829605D01*
X56181804Y-33847801D01*
X38028072Y-33847801D01*
X38028072Y-32709134D01*
X55470176Y-32709134D01*
X55514951Y-33045470D01*
X55624481Y-33366607D01*
X55728852Y-33561871D01*
X56002199Y-33668196D01*
X57020395Y-32650000D01*
X57379605Y-32650000D01*
X58397801Y-33668196D01*
X58671148Y-33561871D01*
X58820778Y-33257342D01*
X58908122Y-32929475D01*
X58929824Y-32590866D01*
X58885049Y-32254530D01*
X58775519Y-31933393D01*
X58671148Y-31738129D01*
X58397801Y-31631804D01*
X57379605Y-32650000D01*
X57020395Y-32650000D01*
X56002199Y-31631804D01*
X55728852Y-31738129D01*
X55579222Y-32042658D01*
X55491878Y-32370525D01*
X55470176Y-32709134D01*
X38028072Y-32709134D01*
X38028072Y-32650000D01*
X38015812Y-32525518D01*
X37979502Y-32405820D01*
X37920537Y-32295506D01*
X37841185Y-32198815D01*
X37744494Y-32119463D01*
X37634180Y-32060498D01*
X37514482Y-32024188D01*
X37390000Y-32011928D01*
X35790000Y-32011928D01*
X35665518Y-32024188D01*
X35545820Y-32060498D01*
X35435506Y-32119463D01*
X35338815Y-32198815D01*
X35328193Y-32211758D01*
X35076004Y-32092429D01*
X34801816Y-32023700D01*
X34519488Y-32009783D01*
X34239870Y-32051213D01*
X33973708Y-32146397D01*
X33848486Y-32213329D01*
X33776903Y-32457298D01*
X29615595Y-32457298D01*
X29551185Y-32378815D01*
X29454494Y-32299463D01*
X29344180Y-32240498D01*
X29224482Y-32204188D01*
X29100000Y-32191928D01*
X27500000Y-32191928D01*
X27375518Y-32204188D01*
X27255820Y-32240498D01*
X27145506Y-32299463D01*
X27048815Y-32378815D01*
X27038193Y-32391758D01*
X26786004Y-32272429D01*
X26511816Y-32203700D01*
X26229488Y-32189783D01*
X25949870Y-32231213D01*
X25683708Y-32326397D01*
X25558486Y-32393329D01*
X25486903Y-32637298D01*
X14127000Y-32637298D01*
X14127000Y-31452199D01*
X56181804Y-31452199D01*
X57200000Y-32470395D01*
X58218196Y-31452199D01*
X58111871Y-31178852D01*
X57807342Y-31029222D01*
X57479475Y-30941878D01*
X57140866Y-30920176D01*
X56804530Y-30964951D01*
X56483393Y-31074481D01*
X56288129Y-31178852D01*
X56181804Y-31452199D01*
X14127000Y-31452199D01*
X14127000Y-27010000D01*
X15079428Y-27010000D01*
X15079428Y-29010000D01*
X15091688Y-29134482D01*
X15127998Y-29254180D01*
X15186963Y-29364494D01*
X15266315Y-29461185D01*
X15363006Y-29540537D01*
X15473320Y-29599502D01*
X15593018Y-29635812D01*
X15717500Y-29648072D01*
X17622500Y-29648072D01*
X17746982Y-29635812D01*
X17866680Y-29599502D01*
X17976994Y-29540537D01*
X18073685Y-29461185D01*
X18153037Y-29364494D01*
X18202059Y-29272781D01*
X18343077Y-29385969D01*
X18618906Y-29529571D01*
X18837020Y-29600563D01*
X19083000Y-29480594D01*
X19083000Y-28137000D01*
X19063000Y-28137000D01*
X19063000Y-27883000D01*
X19083000Y-27883000D01*
X19083000Y-26539406D01*
X19337000Y-26539406D01*
X19337000Y-27883000D01*
X19357000Y-27883000D01*
X19357000Y-28137000D01*
X19337000Y-28137000D01*
X19337000Y-29480594D01*
X19582980Y-29600563D01*
X19801094Y-29529571D01*
X20076923Y-29385969D01*
X20319437Y-29191315D01*
X20474837Y-29006101D01*
X20622037Y-29185463D01*
X20863766Y-29383845D01*
X21139552Y-29531255D01*
X21438797Y-29622030D01*
X21750000Y-29652681D01*
X22061204Y-29622030D01*
X22360449Y-29531255D01*
X22636235Y-29383845D01*
X22877963Y-29185463D01*
X23076345Y-28943734D01*
X23223755Y-28667948D01*
X23314530Y-28368703D01*
X23337500Y-28135485D01*
X23337500Y-27884514D01*
X23314530Y-27651296D01*
X23223755Y-27352051D01*
X23076345Y-27076265D01*
X22964515Y-26940000D01*
X26119428Y-26940000D01*
X26119428Y-28940000D01*
X26131688Y-29064482D01*
X26167998Y-29184180D01*
X26226963Y-29294494D01*
X26306315Y-29391185D01*
X26403006Y-29470537D01*
X26513320Y-29529502D01*
X26633018Y-29565812D01*
X26757500Y-29578072D01*
X28662500Y-29578072D01*
X28786982Y-29565812D01*
X28906680Y-29529502D01*
X29016994Y-29470537D01*
X29113685Y-29391185D01*
X29193037Y-29294494D01*
X29242059Y-29202781D01*
X29383077Y-29315969D01*
X29658906Y-29459571D01*
X29877020Y-29530563D01*
X30123000Y-29410594D01*
X30123000Y-28067000D01*
X30103000Y-28067000D01*
X30103000Y-27813000D01*
X30123000Y-27813000D01*
X30123000Y-26469406D01*
X30377000Y-26469406D01*
X30377000Y-27813000D01*
X30397000Y-27813000D01*
X30397000Y-28067000D01*
X30377000Y-28067000D01*
X30377000Y-29410594D01*
X30622980Y-29530563D01*
X30841094Y-29459571D01*
X31116923Y-29315969D01*
X31359437Y-29121315D01*
X31514837Y-28936101D01*
X31662037Y-29115463D01*
X31903766Y-29313845D01*
X32179552Y-29461255D01*
X32478797Y-29552030D01*
X32790000Y-29582681D01*
X33101204Y-29552030D01*
X33400449Y-29461255D01*
X33676235Y-29313845D01*
X33917963Y-29115463D01*
X34116345Y-28873734D01*
X34263755Y-28597948D01*
X34354530Y-28298703D01*
X34377500Y-28065485D01*
X34377500Y-27814514D01*
X34354530Y-27581296D01*
X34293574Y-27380349D01*
X55477500Y-27380349D01*
X55477500Y-27719651D01*
X55543695Y-28052435D01*
X55673541Y-28365909D01*
X55862047Y-28648029D01*
X56101971Y-28887953D01*
X56384091Y-29076459D01*
X56697565Y-29206305D01*
X57030349Y-29272500D01*
X57369651Y-29272500D01*
X57702435Y-29206305D01*
X58015909Y-29076459D01*
X58298029Y-28887953D01*
X58537953Y-28648029D01*
X58726459Y-28365909D01*
X58856305Y-28052435D01*
X58922500Y-27719651D01*
X58922500Y-27380349D01*
X58856305Y-27047565D01*
X58726459Y-26734091D01*
X58537953Y-26451971D01*
X58298029Y-26212047D01*
X58015909Y-26023541D01*
X57702435Y-25893695D01*
X57369651Y-25827500D01*
X57030349Y-25827500D01*
X56697565Y-25893695D01*
X56384091Y-26023541D01*
X56101971Y-26212047D01*
X55862047Y-26451971D01*
X55673541Y-26734091D01*
X55543695Y-27047565D01*
X55477500Y-27380349D01*
X34293574Y-27380349D01*
X34263755Y-27282051D01*
X34116345Y-27006265D01*
X33928996Y-26777980D01*
X43901626Y-26777980D01*
X44021514Y-27062836D01*
X44345210Y-27223699D01*
X44694069Y-27318322D01*
X45054684Y-27343067D01*
X45413198Y-27296985D01*
X45755833Y-27181846D01*
X45978486Y-27062836D01*
X46098374Y-26777980D01*
X45000000Y-25679605D01*
X43901626Y-26777980D01*
X33928996Y-26777980D01*
X33917963Y-26764537D01*
X33676234Y-26566155D01*
X33400448Y-26418745D01*
X33101203Y-26327970D01*
X32790000Y-26297319D01*
X32478796Y-26327970D01*
X32179551Y-26418745D01*
X31903765Y-26566155D01*
X31662037Y-26764537D01*
X31514838Y-26943900D01*
X31359437Y-26758685D01*
X31116923Y-26564031D01*
X30841094Y-26420429D01*
X30622980Y-26349437D01*
X30377000Y-26469406D01*
X30123000Y-26469406D01*
X29877020Y-26349437D01*
X29658906Y-26420429D01*
X29383077Y-26564031D01*
X29242059Y-26677219D01*
X29193037Y-26585506D01*
X29113685Y-26488815D01*
X29016994Y-26409463D01*
X28906680Y-26350498D01*
X28786982Y-26314188D01*
X28662500Y-26301928D01*
X26757500Y-26301928D01*
X26633018Y-26314188D01*
X26513320Y-26350498D01*
X26403006Y-26409463D01*
X26306315Y-26488815D01*
X26226963Y-26585506D01*
X26167998Y-26695820D01*
X26131688Y-26815518D01*
X26119428Y-26940000D01*
X22964515Y-26940000D01*
X22877963Y-26834537D01*
X22636234Y-26636155D01*
X22360448Y-26488745D01*
X22061203Y-26397970D01*
X21750000Y-26367319D01*
X21438796Y-26397970D01*
X21139551Y-26488745D01*
X20863765Y-26636155D01*
X20622037Y-26834537D01*
X20474838Y-27013900D01*
X20319437Y-26828685D01*
X20076923Y-26634031D01*
X19801094Y-26490429D01*
X19582980Y-26419437D01*
X19337000Y-26539406D01*
X19083000Y-26539406D01*
X18837020Y-26419437D01*
X18618906Y-26490429D01*
X18343077Y-26634031D01*
X18202059Y-26747219D01*
X18153037Y-26655506D01*
X18073685Y-26558815D01*
X17976994Y-26479463D01*
X17866680Y-26420498D01*
X17746982Y-26384188D01*
X17622500Y-26371928D01*
X15717500Y-26371928D01*
X15593018Y-26384188D01*
X15473320Y-26420498D01*
X15363006Y-26479463D01*
X15266315Y-26558815D01*
X15186963Y-26655506D01*
X15127998Y-26765820D01*
X15091688Y-26885518D01*
X15079428Y-27010000D01*
X14127000Y-27010000D01*
X14127000Y-25554684D01*
X43156933Y-25554684D01*
X43203015Y-25913198D01*
X43318154Y-26255833D01*
X43437164Y-26478486D01*
X43722020Y-26598374D01*
X44820395Y-25500000D01*
X45179605Y-25500000D01*
X46277980Y-26598374D01*
X46562836Y-26478486D01*
X46723699Y-26154790D01*
X46818322Y-25805931D01*
X46843067Y-25445316D01*
X46796985Y-25086802D01*
X46681846Y-24744167D01*
X46562836Y-24521514D01*
X46277980Y-24401626D01*
X45179605Y-25500000D01*
X44820395Y-25500000D01*
X43722020Y-24401626D01*
X43437164Y-24521514D01*
X43276301Y-24845210D01*
X43181678Y-25194069D01*
X43156933Y-25554684D01*
X14127000Y-25554684D01*
X14127000Y-24222020D01*
X43901626Y-24222020D01*
X45000000Y-25320395D01*
X46098374Y-24222020D01*
X45978486Y-23937164D01*
X45654790Y-23776301D01*
X45305931Y-23681678D01*
X44945316Y-23656933D01*
X44586802Y-23703015D01*
X44244167Y-23818154D01*
X44021514Y-23937164D01*
X43901626Y-24222020D01*
X14127000Y-24222020D01*
X14127000Y-22280349D01*
X55477500Y-22280349D01*
X55477500Y-22619651D01*
X55543695Y-22952435D01*
X55673541Y-23265909D01*
X55862047Y-23548029D01*
X56101971Y-23787953D01*
X56384091Y-23976459D01*
X56697565Y-24106305D01*
X57030349Y-24172500D01*
X57369651Y-24172500D01*
X57702435Y-24106305D01*
X58015909Y-23976459D01*
X58298029Y-23787953D01*
X58537953Y-23548029D01*
X58726459Y-23265909D01*
X58856305Y-22952435D01*
X58922500Y-22619651D01*
X58922500Y-22280349D01*
X58856305Y-21947565D01*
X58726459Y-21634091D01*
X58537953Y-21351971D01*
X58298029Y-21112047D01*
X58015909Y-20923541D01*
X57702435Y-20793695D01*
X57369651Y-20727500D01*
X57030349Y-20727500D01*
X56697565Y-20793695D01*
X56384091Y-20923541D01*
X56101971Y-21112047D01*
X55862047Y-21351971D01*
X55673541Y-21634091D01*
X55543695Y-21947565D01*
X55477500Y-22280349D01*
X14127000Y-22280349D01*
X14127000Y-18040715D01*
X15084216Y-18040715D01*
X15147655Y-18606285D01*
X15319739Y-19148761D01*
X15593913Y-19647482D01*
X15959734Y-20083451D01*
X16403268Y-20440062D01*
X16907622Y-20703731D01*
X17453583Y-20864416D01*
X18020358Y-20915997D01*
X18586357Y-20856508D01*
X19130022Y-20688216D01*
X19630645Y-20417530D01*
X20069157Y-20054761D01*
X20428855Y-19613727D01*
X20696039Y-19111227D01*
X20860532Y-18566401D01*
X20916068Y-18000000D01*
X20914931Y-17918579D01*
X20843602Y-17353950D01*
X20663961Y-16813928D01*
X20656049Y-16800000D01*
X43161928Y-16800000D01*
X43161928Y-19200000D01*
X43174188Y-19324482D01*
X43210498Y-19444180D01*
X43269463Y-19554494D01*
X43348815Y-19651185D01*
X43445506Y-19730537D01*
X43555820Y-19789502D01*
X43675518Y-19825812D01*
X43800000Y-19838072D01*
X46200000Y-19838072D01*
X46324482Y-19825812D01*
X46444180Y-19789502D01*
X46554494Y-19730537D01*
X46651185Y-19651185D01*
X46730537Y-19554494D01*
X46789502Y-19444180D01*
X46825812Y-19324482D01*
X46838072Y-19200000D01*
X46838072Y-17180349D01*
X55477500Y-17180349D01*
X55477500Y-17519651D01*
X55543695Y-17852435D01*
X55673541Y-18165909D01*
X55862047Y-18448029D01*
X56101971Y-18687953D01*
X56384091Y-18876459D01*
X56697565Y-19006305D01*
X57030349Y-19072500D01*
X57369651Y-19072500D01*
X57702435Y-19006305D01*
X58015909Y-18876459D01*
X58298029Y-18687953D01*
X58537953Y-18448029D01*
X58726459Y-18165909D01*
X58856305Y-17852435D01*
X58922500Y-17519651D01*
X58922500Y-17180349D01*
X58856305Y-16847565D01*
X58726459Y-16534091D01*
X58537953Y-16251971D01*
X58298029Y-16012047D01*
X58015909Y-15823541D01*
X57702435Y-15693695D01*
X57369651Y-15627500D01*
X57030349Y-15627500D01*
X56697565Y-15693695D01*
X56384091Y-15823541D01*
X56101971Y-16012047D01*
X55862047Y-16251971D01*
X55673541Y-16534091D01*
X55543695Y-16847565D01*
X55477500Y-17180349D01*
X46838072Y-17180349D01*
X46838072Y-16800000D01*
X46825812Y-16675518D01*
X46789502Y-16555820D01*
X46730537Y-16445506D01*
X46651185Y-16348815D01*
X46554494Y-16269463D01*
X46444180Y-16210498D01*
X46324482Y-16174188D01*
X46200000Y-16161928D01*
X43800000Y-16161928D01*
X43675518Y-16174188D01*
X43555820Y-16210498D01*
X43445506Y-16269463D01*
X43348815Y-16348815D01*
X43269463Y-16445506D01*
X43210498Y-16555820D01*
X43174188Y-16675518D01*
X43161928Y-16800000D01*
X20656049Y-16800000D01*
X20382850Y-16319084D01*
X20010977Y-15888266D01*
X19562507Y-15537882D01*
X19054522Y-15281280D01*
X18506370Y-15128234D01*
X17938930Y-15084572D01*
X17373817Y-15151957D01*
X16832555Y-15327824D01*
X16335760Y-15605473D01*
X15902356Y-15974329D01*
X15548851Y-16420342D01*
X15288709Y-16926524D01*
X15131839Y-17473594D01*
X15084216Y-18040715D01*
X14127000Y-18040715D01*
X14127000Y-14127000D01*
X64873000Y-14127000D01*
X64873000Y-111873000D01*
M02*
