G04 #@! TF.GenerationSoftware,KiCad,Pcbnew,(5.1.2)-2*
G04 #@! TF.CreationDate,2020-01-13T23:24:32+05:30*
G04 #@! TF.ProjectId,controller,636f6e74-726f-46c6-9c65-722e6b696361,rev?*
G04 #@! TF.SameCoordinates,Original*
G04 #@! TF.FileFunction,Copper,L1,Top*
G04 #@! TF.FilePolarity,Positive*
%FSLAX46Y46*%
G04 Gerber Fmt 4.6, Leading zero omitted, Abs format (unit mm)*
G04 Created by KiCad (PCBNEW (5.1.2)-2) date 2020-01-13 23:24:32*
%MOMM*%
%LPD*%
G04 APERTURE LIST*
%ADD10C,2.175000*%
%ADD11R,2.400000X2.400000*%
%ADD12C,2.400000*%
%ADD13C,1.600000*%
%ADD14R,1.600000X1.600000*%
%ADD15R,2.200000X2.200000*%
%ADD16O,2.200000X2.200000*%
%ADD17R,1.800000X1.800000*%
%ADD18C,1.800000*%
%ADD19R,2.600000X2.600000*%
%ADD20C,2.600000*%
%ADD21C,2.100000*%
%ADD22O,1.600000X1.600000*%
%ADD23C,1.522000*%
%ADD24O,1.905000X2.000000*%
%ADD25R,1.905000X2.000000*%
%ADD26C,2.000000*%
%ADD27C,1.000000*%
%ADD28C,0.500000*%
%ADD29C,0.254000*%
G04 APERTURE END LIST*
D10*
X57200000Y-17350000D03*
X57200000Y-22450000D03*
X57200000Y-27550000D03*
X57200000Y-32650000D03*
D11*
X45000000Y-18000000D03*
D12*
X45000000Y-25500000D03*
D13*
X26300000Y-33630000D03*
D14*
X28300000Y-33630000D03*
D13*
X34590000Y-33450000D03*
D14*
X36590000Y-33450000D03*
X28350000Y-40250000D03*
D13*
X26350000Y-40250000D03*
D14*
X36570000Y-40100000D03*
D13*
X34570000Y-40100000D03*
D15*
X32290000Y-95490000D03*
D16*
X44990000Y-95490000D03*
D17*
X46140000Y-50760000D03*
D18*
X46140000Y-48220000D03*
X54690000Y-49510000D03*
D17*
X52150000Y-49510000D03*
D12*
X116690000Y-77700000D03*
X94090000Y-77700000D03*
X94070000Y-68790000D03*
X116670000Y-68790000D03*
D19*
X18290000Y-46220000D03*
D20*
X18290000Y-51220000D03*
X18290000Y-56220000D03*
X18290000Y-61220000D03*
X18290000Y-66220000D03*
X18290000Y-71220000D03*
X18290000Y-76220000D03*
X18290000Y-81220000D03*
X18290000Y-86220000D03*
X18290000Y-91220000D03*
X18290000Y-96220000D03*
X18290000Y-101220000D03*
D19*
X127620000Y-60190000D03*
D20*
X127620000Y-55190000D03*
D19*
X35740000Y-103770000D03*
D20*
X40740000Y-103770000D03*
X127690000Y-91320000D03*
D19*
X127690000Y-96320000D03*
X127620000Y-42300000D03*
D20*
X127620000Y-37300000D03*
X127620000Y-32300000D03*
X127620000Y-27300000D03*
X18290000Y-39760000D03*
D19*
X18290000Y-34760000D03*
D21*
X85780000Y-86170000D03*
X100780000Y-86170000D03*
X105780000Y-86170000D03*
X110780000Y-86170000D03*
X110780000Y-93670000D03*
X105780000Y-93670000D03*
X100780000Y-93670000D03*
X85780000Y-93670000D03*
X85850000Y-108310000D03*
X100850000Y-108310000D03*
X105850000Y-108310000D03*
X110850000Y-108310000D03*
X110850000Y-100810000D03*
X105850000Y-100810000D03*
X100850000Y-100810000D03*
X85850000Y-100810000D03*
D13*
X40270000Y-49720000D03*
D22*
X27570000Y-49720000D03*
X40310000Y-41190000D03*
D13*
X53010000Y-41190000D03*
D23*
X76070000Y-57160000D03*
X86230000Y-57160000D03*
X96390000Y-57160000D03*
X106550000Y-57160000D03*
X76070000Y-20076000D03*
X86230000Y-20076000D03*
X96390000Y-20076000D03*
X106550000Y-20076000D03*
D14*
X36710000Y-81530000D03*
D22*
X29090000Y-58670000D03*
X36710000Y-78990000D03*
X29090000Y-61210000D03*
X36710000Y-76450000D03*
X29090000Y-63750000D03*
X36710000Y-73910000D03*
X29090000Y-66290000D03*
X36710000Y-71370000D03*
X29090000Y-68830000D03*
X36710000Y-68830000D03*
X29090000Y-71370000D03*
X36710000Y-66290000D03*
X29090000Y-73910000D03*
X36710000Y-63750000D03*
X29090000Y-76450000D03*
X36710000Y-61210000D03*
X29090000Y-78990000D03*
X36710000Y-58670000D03*
X29090000Y-81530000D03*
D14*
X42300000Y-61010000D03*
D22*
X49920000Y-78790000D03*
X42300000Y-63550000D03*
X49920000Y-76250000D03*
X42300000Y-66090000D03*
X49920000Y-73710000D03*
X42300000Y-68630000D03*
X49920000Y-71170000D03*
X42300000Y-71170000D03*
X49920000Y-68630000D03*
X42300000Y-73710000D03*
X49920000Y-66090000D03*
X42300000Y-76250000D03*
X49920000Y-63550000D03*
X42300000Y-78790000D03*
X49920000Y-61010000D03*
D24*
X21750000Y-28010000D03*
X19210000Y-28010000D03*
D25*
X16670000Y-28010000D03*
X27710000Y-27940000D03*
D24*
X30250000Y-27940000D03*
X32790000Y-27940000D03*
D19*
X127630000Y-81600000D03*
D20*
X127630000Y-76600000D03*
X127630000Y-71600000D03*
X127630000Y-66600000D03*
D26*
X41800000Y-18000000D02*
X36800000Y-23000000D01*
X45000000Y-18000000D02*
X41800000Y-18000000D01*
X16670000Y-25010000D02*
X16670000Y-28010000D01*
X18680000Y-23000000D02*
X16670000Y-25010000D01*
X27710000Y-23710000D02*
X27000000Y-23000000D01*
X27710000Y-27940000D02*
X27710000Y-23710000D01*
X36800000Y-23000000D02*
X27000000Y-23000000D01*
X27000000Y-23000000D02*
X18680000Y-23000000D01*
X45650000Y-17350000D02*
X45000000Y-18000000D01*
X57200000Y-17350000D02*
X45650000Y-17350000D01*
X73696000Y-22450000D02*
X76070000Y-20076000D01*
X57200000Y-22450000D02*
X73696000Y-22450000D01*
X99076000Y-27550000D02*
X57200000Y-27550000D01*
X106550000Y-20076000D02*
X99076000Y-27550000D01*
D27*
X28300000Y-31830000D02*
X28300000Y-33630000D01*
X24480000Y-28010000D02*
X28300000Y-31830000D01*
X21750000Y-28010000D02*
X24480000Y-28010000D01*
X28300000Y-40200000D02*
X28350000Y-40250000D01*
X28300000Y-33630000D02*
X28300000Y-40200000D01*
X29889999Y-80730001D02*
X29090000Y-81530000D01*
X31150000Y-79470000D02*
X29889999Y-80730001D01*
X31150000Y-55700000D02*
X31150000Y-79470000D01*
X27570000Y-49720000D02*
X27570000Y-52120000D01*
X27570000Y-52120000D02*
X31150000Y-55700000D01*
X27570000Y-44410000D02*
X27570000Y-49720000D01*
X28350000Y-40250000D02*
X28350000Y-43630000D01*
X28350000Y-43630000D02*
X27570000Y-44410000D01*
D28*
X41770000Y-48220000D02*
X46140000Y-48220000D01*
X40270000Y-49720000D02*
X41770000Y-48220000D01*
D27*
X54690000Y-42870000D02*
X54690000Y-49510000D01*
X53010000Y-41190000D02*
X54690000Y-42870000D01*
D28*
X28290001Y-79789999D02*
X29090000Y-78990000D01*
X24650000Y-83430000D02*
X28290001Y-79789999D01*
X18290000Y-101220000D02*
X24650000Y-94860000D01*
X24650000Y-94860000D02*
X24650000Y-83430000D01*
X28290001Y-77249999D02*
X29090000Y-76450000D01*
X23450000Y-82090000D02*
X28290001Y-77249999D01*
X18290000Y-96220000D02*
X23450000Y-91060000D01*
X23450000Y-91060000D02*
X23450000Y-82090000D01*
X28290001Y-74709999D02*
X29090000Y-73910000D01*
X22320000Y-80680000D02*
X28290001Y-74709999D01*
X18290000Y-91220000D02*
X22320000Y-87190000D01*
X22320000Y-87190000D02*
X22320000Y-80680000D01*
X28140000Y-71370000D02*
X29090000Y-71370000D01*
X18290000Y-81220000D02*
X28140000Y-71370000D01*
X25680000Y-68830000D02*
X29090000Y-68830000D01*
X18290000Y-76220000D02*
X25680000Y-68830000D01*
X23220000Y-66290000D02*
X29090000Y-66290000D01*
X18290000Y-71220000D02*
X23220000Y-66290000D01*
X20820000Y-63750000D02*
X29090000Y-63750000D01*
X18290000Y-61220000D02*
X20820000Y-63750000D01*
X28280000Y-61210000D02*
X29090000Y-61210000D01*
X18290000Y-51220000D02*
X28280000Y-61210000D01*
D26*
X100780000Y-86170000D02*
X105830000Y-81120000D01*
X121130000Y-81120000D02*
X125650000Y-76600000D01*
X125650000Y-76600000D02*
X127630000Y-76600000D01*
X105830000Y-81120000D02*
X121130000Y-81120000D01*
D27*
X40740000Y-99740000D02*
X40740000Y-103770000D01*
X44990000Y-95490000D02*
X40740000Y-99740000D01*
X44670000Y-95170000D02*
X44990000Y-95490000D01*
X49920000Y-66090000D02*
X44670000Y-71340000D01*
X44670000Y-71340000D02*
X44670000Y-95170000D01*
X125320000Y-42300000D02*
X127620000Y-42300000D01*
X74639326Y-42300000D02*
X125320000Y-42300000D01*
X64580000Y-52359326D02*
X74639326Y-42300000D01*
X64580000Y-61590000D02*
X64580000Y-52359326D01*
X49920000Y-76250000D02*
X64580000Y-61590000D01*
X59450000Y-64180000D02*
X59450000Y-42110000D01*
X49920000Y-73710000D02*
X59450000Y-64180000D01*
X59450000Y-42110000D02*
X69380000Y-32180000D01*
X69380000Y-32180000D02*
X69500000Y-32300000D01*
X69500000Y-32300000D02*
X127620000Y-32300000D01*
X84295076Y-86170000D02*
X85780000Y-86170000D01*
X55079998Y-86170000D02*
X84295076Y-86170000D01*
X47840000Y-78930002D02*
X55079998Y-86170000D01*
X47840000Y-73250000D02*
X47840000Y-78930002D01*
X49920000Y-71170000D02*
X47840000Y-73250000D01*
X84365076Y-100810000D02*
X85850000Y-100810000D01*
X62500000Y-100810000D02*
X84365076Y-100810000D01*
X46400000Y-84710000D02*
X62500000Y-100810000D01*
X49920000Y-68630000D02*
X46400000Y-72150000D01*
X46400000Y-72150000D02*
X46400000Y-84710000D01*
D26*
X86230000Y-20076000D02*
X96390000Y-20076000D01*
D28*
X39560000Y-78990000D02*
X42300000Y-76250000D01*
X36710000Y-78990000D02*
X39560000Y-78990000D01*
X39560000Y-76450000D02*
X42300000Y-73710000D01*
X36710000Y-76450000D02*
X39560000Y-76450000D01*
X39960000Y-68830000D02*
X42300000Y-71170000D01*
X36710000Y-68830000D02*
X39960000Y-68830000D01*
X36710000Y-66290000D02*
X37509999Y-67089999D01*
X37509999Y-67089999D02*
X40759999Y-67089999D01*
X41500001Y-67830001D02*
X42300000Y-68630000D01*
X40759999Y-67089999D02*
X41500001Y-67830001D01*
X39050000Y-66090000D02*
X42300000Y-66090000D01*
X36710000Y-63750000D02*
X39050000Y-66090000D01*
X18290000Y-36560000D02*
X23750000Y-42020000D01*
X18290000Y-34760000D02*
X18290000Y-36560000D01*
X23750000Y-53330000D02*
X29090000Y-58670000D01*
X23750000Y-42020000D02*
X23750000Y-53330000D01*
D29*
G36*
X131873000Y-47873000D02*
G01*
X70671457Y-47873000D01*
X75109458Y-43435000D01*
X125681928Y-43435000D01*
X125681928Y-43600000D01*
X125694188Y-43724482D01*
X125730498Y-43844180D01*
X125789463Y-43954494D01*
X125868815Y-44051185D01*
X125965506Y-44130537D01*
X126075820Y-44189502D01*
X126195518Y-44225812D01*
X126320000Y-44238072D01*
X128920000Y-44238072D01*
X129044482Y-44225812D01*
X129164180Y-44189502D01*
X129274494Y-44130537D01*
X129371185Y-44051185D01*
X129450537Y-43954494D01*
X129509502Y-43844180D01*
X129545812Y-43724482D01*
X129558072Y-43600000D01*
X129558072Y-41000000D01*
X129545812Y-40875518D01*
X129509502Y-40755820D01*
X129450537Y-40645506D01*
X129371185Y-40548815D01*
X129274494Y-40469463D01*
X129164180Y-40410498D01*
X129044482Y-40374188D01*
X128920000Y-40361928D01*
X126320000Y-40361928D01*
X126195518Y-40374188D01*
X126075820Y-40410498D01*
X125965506Y-40469463D01*
X125868815Y-40548815D01*
X125789463Y-40645506D01*
X125730498Y-40755820D01*
X125694188Y-40875518D01*
X125681928Y-41000000D01*
X125681928Y-41165000D01*
X74695067Y-41165000D01*
X74639325Y-41159510D01*
X74583583Y-41165000D01*
X74583574Y-41165000D01*
X74416827Y-41181423D01*
X74202879Y-41246324D01*
X74005703Y-41351716D01*
X73832877Y-41493551D01*
X73797335Y-41536859D01*
X67461195Y-47873000D01*
X66000000Y-47873000D01*
X65975224Y-47875440D01*
X65951399Y-47882667D01*
X65929443Y-47894403D01*
X65910197Y-47910197D01*
X65894403Y-47929443D01*
X65882667Y-47951399D01*
X65875440Y-47975224D01*
X65873000Y-48000000D01*
X65873000Y-49461195D01*
X63816860Y-51517335D01*
X63773552Y-51552877D01*
X63631717Y-51725703D01*
X63600333Y-51784419D01*
X63526324Y-51922880D01*
X63461423Y-52136828D01*
X63439509Y-52359326D01*
X63445001Y-52415087D01*
X63445000Y-61119868D01*
X60585000Y-63979868D01*
X60585000Y-42580131D01*
X64515907Y-38649224D01*
X126450381Y-38649224D01*
X126582317Y-38944312D01*
X126923045Y-39115159D01*
X127290557Y-39216250D01*
X127670729Y-39243701D01*
X128048951Y-39196457D01*
X128410690Y-39076333D01*
X128657683Y-38944312D01*
X128789619Y-38649224D01*
X127620000Y-37479605D01*
X126450381Y-38649224D01*
X64515907Y-38649224D01*
X65814403Y-37350729D01*
X125676299Y-37350729D01*
X125723543Y-37728951D01*
X125843667Y-38090690D01*
X125975688Y-38337683D01*
X126270776Y-38469619D01*
X127440395Y-37300000D01*
X127799605Y-37300000D01*
X128969224Y-38469619D01*
X129264312Y-38337683D01*
X129435159Y-37996955D01*
X129536250Y-37629443D01*
X129563701Y-37249271D01*
X129516457Y-36871049D01*
X129396333Y-36509310D01*
X129264312Y-36262317D01*
X128969224Y-36130381D01*
X127799605Y-37300000D01*
X127440395Y-37300000D01*
X126270776Y-36130381D01*
X125975688Y-36262317D01*
X125804841Y-36603045D01*
X125703750Y-36970557D01*
X125676299Y-37350729D01*
X65814403Y-37350729D01*
X67214356Y-35950776D01*
X126450381Y-35950776D01*
X127620000Y-37120395D01*
X128789619Y-35950776D01*
X128657683Y-35655688D01*
X128316955Y-35484841D01*
X127949443Y-35383750D01*
X127569271Y-35356299D01*
X127191049Y-35403543D01*
X126829310Y-35523667D01*
X126582317Y-35655688D01*
X126450381Y-35950776D01*
X67214356Y-35950776D01*
X69730133Y-33435000D01*
X126051178Y-33435000D01*
X126116987Y-33533491D01*
X126386509Y-33803013D01*
X126703434Y-34014775D01*
X127055581Y-34160639D01*
X127429419Y-34235000D01*
X127810581Y-34235000D01*
X128184419Y-34160639D01*
X128536566Y-34014775D01*
X128853491Y-33803013D01*
X129123013Y-33533491D01*
X129334775Y-33216566D01*
X129480639Y-32864419D01*
X129555000Y-32490581D01*
X129555000Y-32109419D01*
X129480639Y-31735581D01*
X129334775Y-31383434D01*
X129123013Y-31066509D01*
X128853491Y-30796987D01*
X128536566Y-30585225D01*
X128184419Y-30439361D01*
X127810581Y-30365000D01*
X127429419Y-30365000D01*
X127055581Y-30439361D01*
X126703434Y-30585225D01*
X126386509Y-30796987D01*
X126116987Y-31066509D01*
X126051178Y-31165000D01*
X69888805Y-31165000D01*
X69816447Y-31126324D01*
X69602499Y-31061423D01*
X69380000Y-31039509D01*
X69157501Y-31061423D01*
X68943553Y-31126324D01*
X68746377Y-31231716D01*
X68616856Y-31338011D01*
X68616844Y-31338023D01*
X68573552Y-31373552D01*
X68538023Y-31416844D01*
X58686860Y-41268009D01*
X58643552Y-41303551D01*
X58501717Y-41476377D01*
X58475225Y-41525941D01*
X58396324Y-41673554D01*
X58331423Y-41887502D01*
X58309509Y-42110000D01*
X58315001Y-42165762D01*
X58315000Y-63709868D01*
X51288139Y-70736729D01*
X51252182Y-70618192D01*
X51118932Y-70368899D01*
X50939608Y-70150392D01*
X50721101Y-69971068D01*
X50588142Y-69900000D01*
X50721101Y-69828932D01*
X50939608Y-69649608D01*
X51118932Y-69431101D01*
X51252182Y-69181808D01*
X51334236Y-68911309D01*
X51361943Y-68630000D01*
X51334236Y-68348691D01*
X51252182Y-68078192D01*
X51118932Y-67828899D01*
X50939608Y-67610392D01*
X50721101Y-67431068D01*
X50588142Y-67360000D01*
X50721101Y-67288932D01*
X50939608Y-67109608D01*
X51118932Y-66891101D01*
X51252182Y-66641808D01*
X51334236Y-66371309D01*
X51361943Y-66090000D01*
X51334236Y-65808691D01*
X51252182Y-65538192D01*
X51118932Y-65288899D01*
X50939608Y-65070392D01*
X50721101Y-64891068D01*
X50588142Y-64820000D01*
X50721101Y-64748932D01*
X50939608Y-64569608D01*
X51118932Y-64351101D01*
X51252182Y-64101808D01*
X51334236Y-63831309D01*
X51361943Y-63550000D01*
X51334236Y-63268691D01*
X51252182Y-62998192D01*
X51118932Y-62748899D01*
X50939608Y-62530392D01*
X50721101Y-62351068D01*
X50588142Y-62280000D01*
X50721101Y-62208932D01*
X50939608Y-62029608D01*
X51118932Y-61811101D01*
X51252182Y-61561808D01*
X51334236Y-61291309D01*
X51361943Y-61010000D01*
X51334236Y-60728691D01*
X51252182Y-60458192D01*
X51118932Y-60208899D01*
X50939608Y-59990392D01*
X50721101Y-59811068D01*
X50471808Y-59677818D01*
X50201309Y-59595764D01*
X49990492Y-59575000D01*
X49849508Y-59575000D01*
X49638691Y-59595764D01*
X49368192Y-59677818D01*
X49118899Y-59811068D01*
X48900392Y-59990392D01*
X48721068Y-60208899D01*
X48587818Y-60458192D01*
X48505764Y-60728691D01*
X48478057Y-61010000D01*
X48505764Y-61291309D01*
X48587818Y-61561808D01*
X48721068Y-61811101D01*
X48900392Y-62029608D01*
X49118899Y-62208932D01*
X49251858Y-62280000D01*
X49118899Y-62351068D01*
X48900392Y-62530392D01*
X48721068Y-62748899D01*
X48587818Y-62998192D01*
X48505764Y-63268691D01*
X48478057Y-63550000D01*
X48505764Y-63831309D01*
X48587818Y-64101808D01*
X48721068Y-64351101D01*
X48900392Y-64569608D01*
X49118899Y-64748932D01*
X49251858Y-64820000D01*
X49118899Y-64891068D01*
X48900392Y-65070392D01*
X48721068Y-65288899D01*
X48587818Y-65538192D01*
X48505764Y-65808691D01*
X48495886Y-65908982D01*
X43906865Y-70498004D01*
X43863551Y-70533551D01*
X43721716Y-70706377D01*
X43681663Y-70781311D01*
X43632182Y-70618192D01*
X43498932Y-70368899D01*
X43319608Y-70150392D01*
X43101101Y-69971068D01*
X42968142Y-69900000D01*
X43101101Y-69828932D01*
X43319608Y-69649608D01*
X43498932Y-69431101D01*
X43632182Y-69181808D01*
X43714236Y-68911309D01*
X43741943Y-68630000D01*
X43714236Y-68348691D01*
X43632182Y-68078192D01*
X43498932Y-67828899D01*
X43319608Y-67610392D01*
X43101101Y-67431068D01*
X42968142Y-67360000D01*
X43101101Y-67288932D01*
X43319608Y-67109608D01*
X43498932Y-66891101D01*
X43632182Y-66641808D01*
X43714236Y-66371309D01*
X43741943Y-66090000D01*
X43714236Y-65808691D01*
X43632182Y-65538192D01*
X43498932Y-65288899D01*
X43319608Y-65070392D01*
X43101101Y-64891068D01*
X42968142Y-64820000D01*
X43101101Y-64748932D01*
X43319608Y-64569608D01*
X43498932Y-64351101D01*
X43632182Y-64101808D01*
X43714236Y-63831309D01*
X43741943Y-63550000D01*
X43714236Y-63268691D01*
X43632182Y-62998192D01*
X43498932Y-62748899D01*
X43319608Y-62530392D01*
X43206518Y-62437581D01*
X43224482Y-62435812D01*
X43344180Y-62399502D01*
X43454494Y-62340537D01*
X43551185Y-62261185D01*
X43630537Y-62164494D01*
X43689502Y-62054180D01*
X43725812Y-61934482D01*
X43738072Y-61810000D01*
X43738072Y-60210000D01*
X43725812Y-60085518D01*
X43689502Y-59965820D01*
X43630537Y-59855506D01*
X43551185Y-59758815D01*
X43454494Y-59679463D01*
X43344180Y-59620498D01*
X43224482Y-59584188D01*
X43100000Y-59571928D01*
X41500000Y-59571928D01*
X41375518Y-59584188D01*
X41255820Y-59620498D01*
X41145506Y-59679463D01*
X41048815Y-59758815D01*
X40969463Y-59855506D01*
X40910498Y-59965820D01*
X40874188Y-60085518D01*
X40861928Y-60210000D01*
X40861928Y-61810000D01*
X40874188Y-61934482D01*
X40910498Y-62054180D01*
X40969463Y-62164494D01*
X41048815Y-62261185D01*
X41145506Y-62340537D01*
X41255820Y-62399502D01*
X41375518Y-62435812D01*
X41393482Y-62437581D01*
X41280392Y-62530392D01*
X41101068Y-62748899D01*
X40967818Y-62998192D01*
X40885764Y-63268691D01*
X40858057Y-63550000D01*
X40885764Y-63831309D01*
X40967818Y-64101808D01*
X41101068Y-64351101D01*
X41280392Y-64569608D01*
X41498899Y-64748932D01*
X41631858Y-64820000D01*
X41498899Y-64891068D01*
X41280392Y-65070392D01*
X41169922Y-65205000D01*
X39416579Y-65205000D01*
X38134875Y-63923296D01*
X38151943Y-63750000D01*
X38124236Y-63468691D01*
X38042182Y-63198192D01*
X37908932Y-62948899D01*
X37729608Y-62730392D01*
X37511101Y-62551068D01*
X37378142Y-62480000D01*
X37511101Y-62408932D01*
X37729608Y-62229608D01*
X37908932Y-62011101D01*
X38042182Y-61761808D01*
X38124236Y-61491309D01*
X38151943Y-61210000D01*
X38124236Y-60928691D01*
X38042182Y-60658192D01*
X37908932Y-60408899D01*
X37729608Y-60190392D01*
X37511101Y-60011068D01*
X37378142Y-59940000D01*
X37511101Y-59868932D01*
X37729608Y-59689608D01*
X37908932Y-59471101D01*
X38042182Y-59221808D01*
X38124236Y-58951309D01*
X38151943Y-58670000D01*
X38124236Y-58388691D01*
X38042182Y-58118192D01*
X37908932Y-57868899D01*
X37729608Y-57650392D01*
X37511101Y-57471068D01*
X37261808Y-57337818D01*
X36991309Y-57255764D01*
X36780492Y-57235000D01*
X36639508Y-57235000D01*
X36428691Y-57255764D01*
X36158192Y-57337818D01*
X35908899Y-57471068D01*
X35690392Y-57650392D01*
X35511068Y-57868899D01*
X35377818Y-58118192D01*
X35295764Y-58388691D01*
X35268057Y-58670000D01*
X35295764Y-58951309D01*
X35377818Y-59221808D01*
X35511068Y-59471101D01*
X35690392Y-59689608D01*
X35908899Y-59868932D01*
X36041858Y-59940000D01*
X35908899Y-60011068D01*
X35690392Y-60190392D01*
X35511068Y-60408899D01*
X35377818Y-60658192D01*
X35295764Y-60928691D01*
X35268057Y-61210000D01*
X35295764Y-61491309D01*
X35377818Y-61761808D01*
X35511068Y-62011101D01*
X35690392Y-62229608D01*
X35908899Y-62408932D01*
X36041858Y-62480000D01*
X35908899Y-62551068D01*
X35690392Y-62730392D01*
X35511068Y-62948899D01*
X35377818Y-63198192D01*
X35295764Y-63468691D01*
X35268057Y-63750000D01*
X35295764Y-64031309D01*
X35377818Y-64301808D01*
X35511068Y-64551101D01*
X35690392Y-64769608D01*
X35908899Y-64948932D01*
X36041858Y-65020000D01*
X35908899Y-65091068D01*
X35690392Y-65270392D01*
X35511068Y-65488899D01*
X35377818Y-65738192D01*
X35295764Y-66008691D01*
X35268057Y-66290000D01*
X35295764Y-66571309D01*
X35377818Y-66841808D01*
X35511068Y-67091101D01*
X35690392Y-67309608D01*
X35908899Y-67488932D01*
X36041858Y-67560000D01*
X35908899Y-67631068D01*
X35690392Y-67810392D01*
X35511068Y-68028899D01*
X35377818Y-68278192D01*
X35295764Y-68548691D01*
X35268057Y-68830000D01*
X35295764Y-69111309D01*
X35377818Y-69381808D01*
X35511068Y-69631101D01*
X35690392Y-69849608D01*
X35908899Y-70028932D01*
X36041858Y-70100000D01*
X35908899Y-70171068D01*
X35690392Y-70350392D01*
X35511068Y-70568899D01*
X35377818Y-70818192D01*
X35295764Y-71088691D01*
X35268057Y-71370000D01*
X35295764Y-71651309D01*
X35377818Y-71921808D01*
X35511068Y-72171101D01*
X35690392Y-72389608D01*
X35908899Y-72568932D01*
X36041858Y-72640000D01*
X35908899Y-72711068D01*
X35690392Y-72890392D01*
X35511068Y-73108899D01*
X35377818Y-73358192D01*
X35295764Y-73628691D01*
X35268057Y-73910000D01*
X35295764Y-74191309D01*
X35377818Y-74461808D01*
X35511068Y-74711101D01*
X35690392Y-74929608D01*
X35908899Y-75108932D01*
X36041858Y-75180000D01*
X35908899Y-75251068D01*
X35690392Y-75430392D01*
X35511068Y-75648899D01*
X35377818Y-75898192D01*
X35295764Y-76168691D01*
X35268057Y-76450000D01*
X35295764Y-76731309D01*
X35377818Y-77001808D01*
X35511068Y-77251101D01*
X35690392Y-77469608D01*
X35908899Y-77648932D01*
X36041858Y-77720000D01*
X35908899Y-77791068D01*
X35690392Y-77970392D01*
X35511068Y-78188899D01*
X35377818Y-78438192D01*
X35295764Y-78708691D01*
X35268057Y-78990000D01*
X35295764Y-79271309D01*
X35377818Y-79541808D01*
X35511068Y-79791101D01*
X35690392Y-80009608D01*
X35803482Y-80102419D01*
X35785518Y-80104188D01*
X35665820Y-80140498D01*
X35555506Y-80199463D01*
X35458815Y-80278815D01*
X35379463Y-80375506D01*
X35320498Y-80485820D01*
X35284188Y-80605518D01*
X35271928Y-80730000D01*
X35271928Y-82330000D01*
X35284188Y-82454482D01*
X35320498Y-82574180D01*
X35379463Y-82684494D01*
X35458815Y-82781185D01*
X35555506Y-82860537D01*
X35665820Y-82919502D01*
X35785518Y-82955812D01*
X35910000Y-82968072D01*
X37510000Y-82968072D01*
X37634482Y-82955812D01*
X37754180Y-82919502D01*
X37864494Y-82860537D01*
X37961185Y-82781185D01*
X38040537Y-82684494D01*
X38099502Y-82574180D01*
X38135812Y-82454482D01*
X38148072Y-82330000D01*
X38148072Y-80730000D01*
X38135812Y-80605518D01*
X38099502Y-80485820D01*
X38040537Y-80375506D01*
X37961185Y-80278815D01*
X37864494Y-80199463D01*
X37754180Y-80140498D01*
X37634482Y-80104188D01*
X37616518Y-80102419D01*
X37729608Y-80009608D01*
X37840078Y-79875000D01*
X39516531Y-79875000D01*
X39560000Y-79879281D01*
X39603469Y-79875000D01*
X39603477Y-79875000D01*
X39733490Y-79862195D01*
X39900313Y-79811589D01*
X40054059Y-79729411D01*
X40188817Y-79618817D01*
X40216534Y-79585044D01*
X40871822Y-78929756D01*
X40885764Y-79071309D01*
X40967818Y-79341808D01*
X41101068Y-79591101D01*
X41280392Y-79809608D01*
X41498899Y-79988932D01*
X41748192Y-80122182D01*
X42018691Y-80204236D01*
X42229508Y-80225000D01*
X42370492Y-80225000D01*
X42581309Y-80204236D01*
X42851808Y-80122182D01*
X43101101Y-79988932D01*
X43319608Y-79809608D01*
X43498932Y-79591101D01*
X43535000Y-79523622D01*
X43535001Y-94531562D01*
X43379314Y-94822832D01*
X43280105Y-95149881D01*
X43246606Y-95490000D01*
X43259003Y-95615865D01*
X39976865Y-98898004D01*
X39933551Y-98933551D01*
X39791716Y-99106377D01*
X39696241Y-99285000D01*
X39686324Y-99303554D01*
X39621423Y-99517502D01*
X39599509Y-99740000D01*
X39605000Y-99795752D01*
X39605001Y-102201177D01*
X39506509Y-102266987D01*
X39236987Y-102536509D01*
X39025225Y-102853434D01*
X38879361Y-103205581D01*
X38805000Y-103579419D01*
X38805000Y-103960581D01*
X38879361Y-104334419D01*
X39025225Y-104686566D01*
X39236987Y-105003491D01*
X39506509Y-105273013D01*
X39823434Y-105484775D01*
X40175581Y-105630639D01*
X40549419Y-105705000D01*
X40930581Y-105705000D01*
X41304419Y-105630639D01*
X41656566Y-105484775D01*
X41973491Y-105273013D01*
X42243013Y-105003491D01*
X42454775Y-104686566D01*
X42600639Y-104334419D01*
X42675000Y-103960581D01*
X42675000Y-103579419D01*
X42600639Y-103205581D01*
X42454775Y-102853434D01*
X42243013Y-102536509D01*
X41973491Y-102266987D01*
X41875000Y-102201178D01*
X41875000Y-100210131D01*
X44864135Y-97220997D01*
X44904775Y-97225000D01*
X45075225Y-97225000D01*
X45330119Y-97199895D01*
X45657168Y-97100686D01*
X45958578Y-96939579D01*
X46222766Y-96722766D01*
X46439579Y-96458578D01*
X46600686Y-96157168D01*
X46699895Y-95830119D01*
X46733394Y-95490000D01*
X46699895Y-95149881D01*
X46600686Y-94822832D01*
X46439579Y-94521422D01*
X46222766Y-94257234D01*
X45958578Y-94040421D01*
X45805000Y-93958332D01*
X45805000Y-85720131D01*
X61658009Y-101573141D01*
X61693551Y-101616449D01*
X61866377Y-101758284D01*
X62063553Y-101863676D01*
X62277501Y-101928577D01*
X62444248Y-101945000D01*
X62444257Y-101945000D01*
X62499999Y-101950490D01*
X62555741Y-101945000D01*
X84602050Y-101945000D01*
X84775875Y-102118825D01*
X85051853Y-102303228D01*
X85358504Y-102430246D01*
X85684042Y-102495000D01*
X86015958Y-102495000D01*
X86341496Y-102430246D01*
X86648147Y-102303228D01*
X86924125Y-102118825D01*
X87158825Y-101884125D01*
X87343228Y-101608147D01*
X87470246Y-101301496D01*
X87535000Y-100975958D01*
X87535000Y-100644042D01*
X87470246Y-100318504D01*
X87343228Y-100011853D01*
X87158825Y-99735875D01*
X86924125Y-99501175D01*
X86648147Y-99316772D01*
X86341496Y-99189754D01*
X86015958Y-99125000D01*
X85684042Y-99125000D01*
X85358504Y-99189754D01*
X85051853Y-99316772D01*
X84775875Y-99501175D01*
X84602050Y-99675000D01*
X62970132Y-99675000D01*
X58136198Y-94841066D01*
X84788539Y-94841066D01*
X84890339Y-95110579D01*
X85188477Y-95256463D01*
X85509346Y-95341380D01*
X85840617Y-95362066D01*
X86169557Y-95317728D01*
X86483527Y-95210069D01*
X86669661Y-95110579D01*
X86771461Y-94841066D01*
X85780000Y-93849605D01*
X84788539Y-94841066D01*
X58136198Y-94841066D01*
X57025749Y-93730617D01*
X84087934Y-93730617D01*
X84132272Y-94059557D01*
X84239931Y-94373527D01*
X84339421Y-94559661D01*
X84608934Y-94661461D01*
X85600395Y-93670000D01*
X85959605Y-93670000D01*
X86951066Y-94661461D01*
X87220579Y-94559661D01*
X87366463Y-94261523D01*
X87451380Y-93940654D01*
X87472066Y-93609383D01*
X87427728Y-93280443D01*
X87320069Y-92966473D01*
X87220579Y-92780339D01*
X86951066Y-92678539D01*
X85959605Y-93670000D01*
X85600395Y-93670000D01*
X84608934Y-92678539D01*
X84339421Y-92780339D01*
X84193537Y-93078477D01*
X84108620Y-93399346D01*
X84087934Y-93730617D01*
X57025749Y-93730617D01*
X55794066Y-92498934D01*
X84788539Y-92498934D01*
X85780000Y-93490395D01*
X86771461Y-92498934D01*
X86669661Y-92229421D01*
X86371523Y-92083537D01*
X86050654Y-91998620D01*
X85719383Y-91977934D01*
X85390443Y-92022272D01*
X85076473Y-92129931D01*
X84890339Y-92229421D01*
X84788539Y-92498934D01*
X55794066Y-92498934D01*
X47535000Y-84239869D01*
X47535000Y-80230133D01*
X54238007Y-86933141D01*
X54273549Y-86976449D01*
X54446375Y-87118284D01*
X54643551Y-87223676D01*
X54857499Y-87288577D01*
X55024246Y-87305000D01*
X55024255Y-87305000D01*
X55079997Y-87310490D01*
X55135739Y-87305000D01*
X78873000Y-87305000D01*
X78873000Y-89000000D01*
X78875440Y-89024776D01*
X78882667Y-89048601D01*
X78894403Y-89070557D01*
X78910197Y-89089803D01*
X78929443Y-89105597D01*
X78951399Y-89117333D01*
X78975224Y-89124560D01*
X79000000Y-89127000D01*
X87873000Y-89127000D01*
X87873000Y-111873000D01*
X14127000Y-111873000D01*
X14127000Y-108040715D01*
X15084216Y-108040715D01*
X15147655Y-108606285D01*
X15319739Y-109148761D01*
X15593913Y-109647482D01*
X15959734Y-110083451D01*
X16403268Y-110440062D01*
X16907622Y-110703731D01*
X17453583Y-110864416D01*
X18020358Y-110915997D01*
X18586357Y-110856508D01*
X19130022Y-110688216D01*
X19630645Y-110417530D01*
X20069157Y-110054761D01*
X20428855Y-109613727D01*
X20499392Y-109481066D01*
X84858539Y-109481066D01*
X84960339Y-109750579D01*
X85258477Y-109896463D01*
X85579346Y-109981380D01*
X85910617Y-110002066D01*
X86239557Y-109957728D01*
X86553527Y-109850069D01*
X86739661Y-109750579D01*
X86841461Y-109481066D01*
X85850000Y-108489605D01*
X84858539Y-109481066D01*
X20499392Y-109481066D01*
X20696039Y-109111227D01*
X20860532Y-108566401D01*
X20879728Y-108370617D01*
X84157934Y-108370617D01*
X84202272Y-108699557D01*
X84309931Y-109013527D01*
X84409421Y-109199661D01*
X84678934Y-109301461D01*
X85670395Y-108310000D01*
X86029605Y-108310000D01*
X87021066Y-109301461D01*
X87290579Y-109199661D01*
X87436463Y-108901523D01*
X87521380Y-108580654D01*
X87542066Y-108249383D01*
X87497728Y-107920443D01*
X87390069Y-107606473D01*
X87290579Y-107420339D01*
X87021066Y-107318539D01*
X86029605Y-108310000D01*
X85670395Y-108310000D01*
X84678934Y-107318539D01*
X84409421Y-107420339D01*
X84263537Y-107718477D01*
X84178620Y-108039346D01*
X84157934Y-108370617D01*
X20879728Y-108370617D01*
X20916068Y-108000000D01*
X20914931Y-107918579D01*
X20843602Y-107353950D01*
X20772076Y-107138934D01*
X84858539Y-107138934D01*
X85850000Y-108130395D01*
X86841461Y-107138934D01*
X86739661Y-106869421D01*
X86441523Y-106723537D01*
X86120654Y-106638620D01*
X85789383Y-106617934D01*
X85460443Y-106662272D01*
X85146473Y-106769931D01*
X84960339Y-106869421D01*
X84858539Y-107138934D01*
X20772076Y-107138934D01*
X20663961Y-106813928D01*
X20382850Y-106319084D01*
X20010977Y-105888266D01*
X19562507Y-105537882D01*
X19054522Y-105281280D01*
X18506370Y-105128234D01*
X17938930Y-105084572D01*
X17373817Y-105151957D01*
X16832555Y-105327824D01*
X16335760Y-105605473D01*
X15902356Y-105974329D01*
X15548851Y-106420342D01*
X15288709Y-106926524D01*
X15131839Y-107473594D01*
X15084216Y-108040715D01*
X14127000Y-108040715D01*
X14127000Y-105070000D01*
X33801928Y-105070000D01*
X33814188Y-105194482D01*
X33850498Y-105314180D01*
X33909463Y-105424494D01*
X33988815Y-105521185D01*
X34085506Y-105600537D01*
X34195820Y-105659502D01*
X34315518Y-105695812D01*
X34440000Y-105708072D01*
X35454250Y-105705000D01*
X35613000Y-105546250D01*
X35613000Y-103897000D01*
X35867000Y-103897000D01*
X35867000Y-105546250D01*
X36025750Y-105705000D01*
X37040000Y-105708072D01*
X37164482Y-105695812D01*
X37284180Y-105659502D01*
X37394494Y-105600537D01*
X37491185Y-105521185D01*
X37570537Y-105424494D01*
X37629502Y-105314180D01*
X37665812Y-105194482D01*
X37678072Y-105070000D01*
X37675000Y-104055750D01*
X37516250Y-103897000D01*
X35867000Y-103897000D01*
X35613000Y-103897000D01*
X33963750Y-103897000D01*
X33805000Y-104055750D01*
X33801928Y-105070000D01*
X14127000Y-105070000D01*
X14127000Y-86029419D01*
X16355000Y-86029419D01*
X16355000Y-86410581D01*
X16429361Y-86784419D01*
X16575225Y-87136566D01*
X16786987Y-87453491D01*
X17056509Y-87723013D01*
X17373434Y-87934775D01*
X17725581Y-88080639D01*
X18099419Y-88155000D01*
X18480581Y-88155000D01*
X18854419Y-88080639D01*
X19206566Y-87934775D01*
X19523491Y-87723013D01*
X19793013Y-87453491D01*
X20004775Y-87136566D01*
X20150639Y-86784419D01*
X20225000Y-86410581D01*
X20225000Y-86029419D01*
X20150639Y-85655581D01*
X20004775Y-85303434D01*
X19793013Y-84986509D01*
X19523491Y-84716987D01*
X19206566Y-84505225D01*
X18854419Y-84359361D01*
X18480581Y-84285000D01*
X18099419Y-84285000D01*
X17725581Y-84359361D01*
X17373434Y-84505225D01*
X17056509Y-84716987D01*
X16786987Y-84986509D01*
X16575225Y-85303434D01*
X16429361Y-85655581D01*
X16355000Y-86029419D01*
X14127000Y-86029419D01*
X14127000Y-66029419D01*
X16355000Y-66029419D01*
X16355000Y-66410581D01*
X16429361Y-66784419D01*
X16575225Y-67136566D01*
X16786987Y-67453491D01*
X17056509Y-67723013D01*
X17373434Y-67934775D01*
X17725581Y-68080639D01*
X18099419Y-68155000D01*
X18480581Y-68155000D01*
X18854419Y-68080639D01*
X19206566Y-67934775D01*
X19523491Y-67723013D01*
X19793013Y-67453491D01*
X20004775Y-67136566D01*
X20150639Y-66784419D01*
X20225000Y-66410581D01*
X20225000Y-66029419D01*
X20150639Y-65655581D01*
X20004775Y-65303434D01*
X19793013Y-64986509D01*
X19523491Y-64716987D01*
X19206566Y-64505225D01*
X18854419Y-64359361D01*
X18480581Y-64285000D01*
X18099419Y-64285000D01*
X17725581Y-64359361D01*
X17373434Y-64505225D01*
X17056509Y-64716987D01*
X16786987Y-64986509D01*
X16575225Y-65303434D01*
X16429361Y-65655581D01*
X16355000Y-66029419D01*
X14127000Y-66029419D01*
X14127000Y-56029419D01*
X16355000Y-56029419D01*
X16355000Y-56410581D01*
X16429361Y-56784419D01*
X16575225Y-57136566D01*
X16786987Y-57453491D01*
X17056509Y-57723013D01*
X17373434Y-57934775D01*
X17725581Y-58080639D01*
X18099419Y-58155000D01*
X18480581Y-58155000D01*
X18854419Y-58080639D01*
X19206566Y-57934775D01*
X19523491Y-57723013D01*
X19793013Y-57453491D01*
X20004775Y-57136566D01*
X20150639Y-56784419D01*
X20225000Y-56410581D01*
X20225000Y-56029419D01*
X20150639Y-55655581D01*
X20004775Y-55303434D01*
X19793013Y-54986509D01*
X19523491Y-54716987D01*
X19206566Y-54505225D01*
X18854419Y-54359361D01*
X18480581Y-54285000D01*
X18099419Y-54285000D01*
X17725581Y-54359361D01*
X17373434Y-54505225D01*
X17056509Y-54716987D01*
X16786987Y-54986509D01*
X16575225Y-55303434D01*
X16429361Y-55655581D01*
X16355000Y-56029419D01*
X14127000Y-56029419D01*
X14127000Y-44920000D01*
X16351928Y-44920000D01*
X16351928Y-47520000D01*
X16364188Y-47644482D01*
X16400498Y-47764180D01*
X16459463Y-47874494D01*
X16538815Y-47971185D01*
X16635506Y-48050537D01*
X16745820Y-48109502D01*
X16865518Y-48145812D01*
X16990000Y-48158072D01*
X19590000Y-48158072D01*
X19714482Y-48145812D01*
X19834180Y-48109502D01*
X19944494Y-48050537D01*
X20041185Y-47971185D01*
X20120537Y-47874494D01*
X20179502Y-47764180D01*
X20215812Y-47644482D01*
X20228072Y-47520000D01*
X20228072Y-44920000D01*
X20215812Y-44795518D01*
X20179502Y-44675820D01*
X20120537Y-44565506D01*
X20041185Y-44468815D01*
X19944494Y-44389463D01*
X19834180Y-44330498D01*
X19714482Y-44294188D01*
X19590000Y-44281928D01*
X16990000Y-44281928D01*
X16865518Y-44294188D01*
X16745820Y-44330498D01*
X16635506Y-44389463D01*
X16538815Y-44468815D01*
X16459463Y-44565506D01*
X16400498Y-44675820D01*
X16364188Y-44795518D01*
X16351928Y-44920000D01*
X14127000Y-44920000D01*
X14127000Y-25010000D01*
X15027089Y-25010000D01*
X15035000Y-25090320D01*
X15035001Y-28090322D01*
X15058658Y-28330516D01*
X15079428Y-28398986D01*
X15079428Y-29010000D01*
X15091688Y-29134482D01*
X15127998Y-29254180D01*
X15186963Y-29364494D01*
X15266315Y-29461185D01*
X15363006Y-29540537D01*
X15473320Y-29599502D01*
X15593018Y-29635812D01*
X15717500Y-29648072D01*
X16620869Y-29648072D01*
X16670000Y-29652911D01*
X16719131Y-29648072D01*
X17622500Y-29648072D01*
X17746982Y-29635812D01*
X17866680Y-29599502D01*
X17976994Y-29540537D01*
X18073685Y-29461185D01*
X18153037Y-29364494D01*
X18197905Y-29280553D01*
X18323766Y-29383845D01*
X18599552Y-29531255D01*
X18898797Y-29622030D01*
X19210000Y-29652681D01*
X19521204Y-29622030D01*
X19820449Y-29531255D01*
X20096235Y-29383845D01*
X20337963Y-29185463D01*
X20480000Y-29012391D01*
X20622037Y-29185463D01*
X20863766Y-29383845D01*
X21139552Y-29531255D01*
X21438797Y-29622030D01*
X21750000Y-29652681D01*
X22061204Y-29622030D01*
X22360449Y-29531255D01*
X22636235Y-29383845D01*
X22877963Y-29185463D01*
X22911170Y-29145000D01*
X24009869Y-29145000D01*
X27157774Y-32292906D01*
X27145506Y-32299463D01*
X27048815Y-32378815D01*
X27035210Y-32395393D01*
X26979727Y-32358320D01*
X26718574Y-32250147D01*
X26441335Y-32195000D01*
X26158665Y-32195000D01*
X25881426Y-32250147D01*
X25620273Y-32358320D01*
X25385241Y-32515363D01*
X25185363Y-32715241D01*
X25028320Y-32950273D01*
X24920147Y-33211426D01*
X24865000Y-33488665D01*
X24865000Y-33771335D01*
X24920147Y-34048574D01*
X25028320Y-34309727D01*
X25185363Y-34544759D01*
X25385241Y-34744637D01*
X25620273Y-34901680D01*
X25881426Y-35009853D01*
X26158665Y-35065000D01*
X26441335Y-35065000D01*
X26718574Y-35009853D01*
X26979727Y-34901680D01*
X27035210Y-34864607D01*
X27048815Y-34881185D01*
X27145506Y-34960537D01*
X27165000Y-34970957D01*
X27165001Y-38944498D01*
X27098815Y-38998815D01*
X27085210Y-39015393D01*
X27029727Y-38978320D01*
X26768574Y-38870147D01*
X26491335Y-38815000D01*
X26208665Y-38815000D01*
X25931426Y-38870147D01*
X25670273Y-38978320D01*
X25435241Y-39135363D01*
X25235363Y-39335241D01*
X25078320Y-39570273D01*
X24970147Y-39831426D01*
X24915000Y-40108665D01*
X24915000Y-40391335D01*
X24970147Y-40668574D01*
X25078320Y-40929727D01*
X25235363Y-41164759D01*
X25435241Y-41364637D01*
X25670273Y-41521680D01*
X25931426Y-41629853D01*
X26208665Y-41685000D01*
X26491335Y-41685000D01*
X26768574Y-41629853D01*
X27029727Y-41521680D01*
X27085210Y-41484607D01*
X27098815Y-41501185D01*
X27195506Y-41580537D01*
X27215000Y-41590957D01*
X27215001Y-43159867D01*
X26806864Y-43568005D01*
X26763551Y-43603551D01*
X26621716Y-43776377D01*
X26542984Y-43923676D01*
X26516324Y-43973554D01*
X26451423Y-44187502D01*
X26429509Y-44410000D01*
X26435000Y-44465752D01*
X26435001Y-48840997D01*
X26371068Y-48918899D01*
X26237818Y-49168192D01*
X26155764Y-49438691D01*
X26128057Y-49720000D01*
X26155764Y-50001309D01*
X26237818Y-50271808D01*
X26371068Y-50521101D01*
X26435000Y-50599003D01*
X26435001Y-52064239D01*
X26429509Y-52120000D01*
X26451423Y-52342498D01*
X26516324Y-52556446D01*
X26549008Y-52617593D01*
X26621717Y-52753623D01*
X26763552Y-52926449D01*
X26806860Y-52961991D01*
X30015000Y-56170133D01*
X30015000Y-57572749D01*
X29891101Y-57471068D01*
X29641808Y-57337818D01*
X29371309Y-57255764D01*
X29160492Y-57235000D01*
X29019508Y-57235000D01*
X28916704Y-57245125D01*
X24635000Y-52963422D01*
X24635000Y-42063466D01*
X24639281Y-42019999D01*
X24635000Y-41976533D01*
X24635000Y-41976523D01*
X24622195Y-41846510D01*
X24571589Y-41679687D01*
X24489411Y-41525941D01*
X24433663Y-41458012D01*
X24406532Y-41424953D01*
X24406530Y-41424951D01*
X24378817Y-41391183D01*
X24345051Y-41363472D01*
X19671612Y-36690034D01*
X19714482Y-36685812D01*
X19834180Y-36649502D01*
X19944494Y-36590537D01*
X20041185Y-36511185D01*
X20120537Y-36414494D01*
X20179502Y-36304180D01*
X20215812Y-36184482D01*
X20228072Y-36060000D01*
X20228072Y-33460000D01*
X20215812Y-33335518D01*
X20179502Y-33215820D01*
X20120537Y-33105506D01*
X20041185Y-33008815D01*
X19944494Y-32929463D01*
X19834180Y-32870498D01*
X19714482Y-32834188D01*
X19590000Y-32821928D01*
X16990000Y-32821928D01*
X16865518Y-32834188D01*
X16745820Y-32870498D01*
X16635506Y-32929463D01*
X16538815Y-33008815D01*
X16459463Y-33105506D01*
X16400498Y-33215820D01*
X16364188Y-33335518D01*
X16351928Y-33460000D01*
X16351928Y-36060000D01*
X16364188Y-36184482D01*
X16400498Y-36304180D01*
X16459463Y-36414494D01*
X16538815Y-36511185D01*
X16635506Y-36590537D01*
X16745820Y-36649502D01*
X16865518Y-36685812D01*
X16990000Y-36698072D01*
X17414317Y-36698072D01*
X17417805Y-36733490D01*
X17468412Y-36900313D01*
X17550590Y-37054059D01*
X17633468Y-37155046D01*
X17633471Y-37155049D01*
X17661184Y-37188817D01*
X17694952Y-37216530D01*
X18303422Y-37825000D01*
X18099419Y-37825000D01*
X17725581Y-37899361D01*
X17373434Y-38045225D01*
X17056509Y-38256987D01*
X16786987Y-38526509D01*
X16575225Y-38843434D01*
X16429361Y-39195581D01*
X16355000Y-39569419D01*
X16355000Y-39950581D01*
X16429361Y-40324419D01*
X16575225Y-40676566D01*
X16786987Y-40993491D01*
X17056509Y-41263013D01*
X17373434Y-41474775D01*
X17725581Y-41620639D01*
X18099419Y-41695000D01*
X18480581Y-41695000D01*
X18854419Y-41620639D01*
X19206566Y-41474775D01*
X19523491Y-41263013D01*
X19793013Y-40993491D01*
X20004775Y-40676566D01*
X20150639Y-40324419D01*
X20225000Y-39950581D01*
X20225000Y-39746578D01*
X22865000Y-42386579D01*
X22865001Y-53286521D01*
X22860719Y-53330000D01*
X22877805Y-53503490D01*
X22928412Y-53670313D01*
X23010590Y-53824059D01*
X23093468Y-53925046D01*
X23093471Y-53925049D01*
X23121184Y-53958817D01*
X23154952Y-53986530D01*
X27665125Y-58496704D01*
X27648057Y-58670000D01*
X27675764Y-58951309D01*
X27757818Y-59221808D01*
X27891068Y-59471101D01*
X28070392Y-59689608D01*
X28288899Y-59868932D01*
X28421858Y-59940000D01*
X28317408Y-59995829D01*
X20137564Y-51815986D01*
X20150639Y-51784419D01*
X20225000Y-51410581D01*
X20225000Y-51029419D01*
X20150639Y-50655581D01*
X20004775Y-50303434D01*
X19793013Y-49986509D01*
X19523491Y-49716987D01*
X19206566Y-49505225D01*
X18854419Y-49359361D01*
X18480581Y-49285000D01*
X18099419Y-49285000D01*
X17725581Y-49359361D01*
X17373434Y-49505225D01*
X17056509Y-49716987D01*
X16786987Y-49986509D01*
X16575225Y-50303434D01*
X16429361Y-50655581D01*
X16355000Y-51029419D01*
X16355000Y-51410581D01*
X16429361Y-51784419D01*
X16575225Y-52136566D01*
X16786987Y-52453491D01*
X17056509Y-52723013D01*
X17373434Y-52934775D01*
X17725581Y-53080639D01*
X18099419Y-53155000D01*
X18480581Y-53155000D01*
X18854419Y-53080639D01*
X18885986Y-53067564D01*
X27623470Y-61805049D01*
X27651183Y-61838817D01*
X27684951Y-61866530D01*
X27684953Y-61866532D01*
X27756452Y-61925210D01*
X27785941Y-61949411D01*
X27886953Y-62003402D01*
X27891068Y-62011101D01*
X28070392Y-62229608D01*
X28288899Y-62408932D01*
X28421858Y-62480000D01*
X28288899Y-62551068D01*
X28070392Y-62730392D01*
X27959922Y-62865000D01*
X21186579Y-62865000D01*
X20137564Y-61815985D01*
X20150639Y-61784419D01*
X20225000Y-61410581D01*
X20225000Y-61029419D01*
X20150639Y-60655581D01*
X20004775Y-60303434D01*
X19793013Y-59986509D01*
X19523491Y-59716987D01*
X19206566Y-59505225D01*
X18854419Y-59359361D01*
X18480581Y-59285000D01*
X18099419Y-59285000D01*
X17725581Y-59359361D01*
X17373434Y-59505225D01*
X17056509Y-59716987D01*
X16786987Y-59986509D01*
X16575225Y-60303434D01*
X16429361Y-60655581D01*
X16355000Y-61029419D01*
X16355000Y-61410581D01*
X16429361Y-61784419D01*
X16575225Y-62136566D01*
X16786987Y-62453491D01*
X17056509Y-62723013D01*
X17373434Y-62934775D01*
X17725581Y-63080639D01*
X18099419Y-63155000D01*
X18480581Y-63155000D01*
X18854419Y-63080639D01*
X18885985Y-63067564D01*
X20163470Y-64345049D01*
X20191183Y-64378817D01*
X20224951Y-64406530D01*
X20224953Y-64406532D01*
X20296452Y-64465210D01*
X20325941Y-64489411D01*
X20479687Y-64571589D01*
X20646510Y-64622195D01*
X20776523Y-64635000D01*
X20776533Y-64635000D01*
X20819999Y-64639281D01*
X20863465Y-64635000D01*
X27959922Y-64635000D01*
X28070392Y-64769608D01*
X28288899Y-64948932D01*
X28421858Y-65020000D01*
X28288899Y-65091068D01*
X28070392Y-65270392D01*
X27959922Y-65405000D01*
X23263469Y-65405000D01*
X23220000Y-65400719D01*
X23176531Y-65405000D01*
X23176523Y-65405000D01*
X23046510Y-65417805D01*
X22879687Y-65468411D01*
X22725941Y-65550589D01*
X22624953Y-65633468D01*
X22624951Y-65633470D01*
X22591183Y-65661183D01*
X22563470Y-65694951D01*
X18885985Y-69372436D01*
X18854419Y-69359361D01*
X18480581Y-69285000D01*
X18099419Y-69285000D01*
X17725581Y-69359361D01*
X17373434Y-69505225D01*
X17056509Y-69716987D01*
X16786987Y-69986509D01*
X16575225Y-70303434D01*
X16429361Y-70655581D01*
X16355000Y-71029419D01*
X16355000Y-71410581D01*
X16429361Y-71784419D01*
X16575225Y-72136566D01*
X16786987Y-72453491D01*
X17056509Y-72723013D01*
X17373434Y-72934775D01*
X17725581Y-73080639D01*
X18099419Y-73155000D01*
X18480581Y-73155000D01*
X18854419Y-73080639D01*
X19206566Y-72934775D01*
X19523491Y-72723013D01*
X19793013Y-72453491D01*
X20004775Y-72136566D01*
X20150639Y-71784419D01*
X20225000Y-71410581D01*
X20225000Y-71029419D01*
X20150639Y-70655581D01*
X20137564Y-70624015D01*
X23586579Y-67175000D01*
X27959922Y-67175000D01*
X28070392Y-67309608D01*
X28288899Y-67488932D01*
X28421858Y-67560000D01*
X28288899Y-67631068D01*
X28070392Y-67810392D01*
X27959922Y-67945000D01*
X25723465Y-67945000D01*
X25679999Y-67940719D01*
X25636533Y-67945000D01*
X25636523Y-67945000D01*
X25506510Y-67957805D01*
X25339687Y-68008411D01*
X25185941Y-68090589D01*
X25156452Y-68114790D01*
X25084953Y-68173468D01*
X25084951Y-68173470D01*
X25051183Y-68201183D01*
X25023470Y-68234951D01*
X18885986Y-74372436D01*
X18854419Y-74359361D01*
X18480581Y-74285000D01*
X18099419Y-74285000D01*
X17725581Y-74359361D01*
X17373434Y-74505225D01*
X17056509Y-74716987D01*
X16786987Y-74986509D01*
X16575225Y-75303434D01*
X16429361Y-75655581D01*
X16355000Y-76029419D01*
X16355000Y-76410581D01*
X16429361Y-76784419D01*
X16575225Y-77136566D01*
X16786987Y-77453491D01*
X17056509Y-77723013D01*
X17373434Y-77934775D01*
X17725581Y-78080639D01*
X18099419Y-78155000D01*
X18480581Y-78155000D01*
X18854419Y-78080639D01*
X19206566Y-77934775D01*
X19523491Y-77723013D01*
X19793013Y-77453491D01*
X20004775Y-77136566D01*
X20150639Y-76784419D01*
X20225000Y-76410581D01*
X20225000Y-76029419D01*
X20150639Y-75655581D01*
X20137564Y-75624014D01*
X26046579Y-69715000D01*
X27959922Y-69715000D01*
X28070392Y-69849608D01*
X28288899Y-70028932D01*
X28421858Y-70100000D01*
X28288899Y-70171068D01*
X28070392Y-70350392D01*
X27943746Y-70504710D01*
X27799686Y-70548411D01*
X27645941Y-70630589D01*
X27544953Y-70713468D01*
X27544951Y-70713470D01*
X27511183Y-70741183D01*
X27483470Y-70774951D01*
X18885986Y-79372436D01*
X18854419Y-79359361D01*
X18480581Y-79285000D01*
X18099419Y-79285000D01*
X17725581Y-79359361D01*
X17373434Y-79505225D01*
X17056509Y-79716987D01*
X16786987Y-79986509D01*
X16575225Y-80303434D01*
X16429361Y-80655581D01*
X16355000Y-81029419D01*
X16355000Y-81410581D01*
X16429361Y-81784419D01*
X16575225Y-82136566D01*
X16786987Y-82453491D01*
X17056509Y-82723013D01*
X17373434Y-82934775D01*
X17725581Y-83080639D01*
X18099419Y-83155000D01*
X18480581Y-83155000D01*
X18854419Y-83080639D01*
X19206566Y-82934775D01*
X19523491Y-82723013D01*
X19793013Y-82453491D01*
X20004775Y-82136566D01*
X20150639Y-81784419D01*
X20225000Y-81410581D01*
X20225000Y-81029419D01*
X20150639Y-80655581D01*
X20137564Y-80624014D01*
X28236033Y-72525546D01*
X28288899Y-72568932D01*
X28421858Y-72640000D01*
X28288899Y-72711068D01*
X28070392Y-72890392D01*
X27891068Y-73108899D01*
X27757818Y-73358192D01*
X27675764Y-73628691D01*
X27648057Y-73910000D01*
X27665125Y-74083296D01*
X21724952Y-80023470D01*
X21691184Y-80051183D01*
X21663471Y-80084951D01*
X21663468Y-80084954D01*
X21580590Y-80185941D01*
X21498412Y-80339687D01*
X21447805Y-80506510D01*
X21430719Y-80680000D01*
X21435001Y-80723479D01*
X21435000Y-86823421D01*
X18885985Y-89372436D01*
X18854419Y-89359361D01*
X18480581Y-89285000D01*
X18099419Y-89285000D01*
X17725581Y-89359361D01*
X17373434Y-89505225D01*
X17056509Y-89716987D01*
X16786987Y-89986509D01*
X16575225Y-90303434D01*
X16429361Y-90655581D01*
X16355000Y-91029419D01*
X16355000Y-91410581D01*
X16429361Y-91784419D01*
X16575225Y-92136566D01*
X16786987Y-92453491D01*
X17056509Y-92723013D01*
X17373434Y-92934775D01*
X17725581Y-93080639D01*
X18099419Y-93155000D01*
X18480581Y-93155000D01*
X18854419Y-93080639D01*
X19206566Y-92934775D01*
X19523491Y-92723013D01*
X19793013Y-92453491D01*
X20004775Y-92136566D01*
X20150639Y-91784419D01*
X20225000Y-91410581D01*
X20225000Y-91029419D01*
X20150639Y-90655581D01*
X20137564Y-90624015D01*
X22565000Y-88196579D01*
X22565000Y-90693421D01*
X18885985Y-94372436D01*
X18854419Y-94359361D01*
X18480581Y-94285000D01*
X18099419Y-94285000D01*
X17725581Y-94359361D01*
X17373434Y-94505225D01*
X17056509Y-94716987D01*
X16786987Y-94986509D01*
X16575225Y-95303434D01*
X16429361Y-95655581D01*
X16355000Y-96029419D01*
X16355000Y-96410581D01*
X16429361Y-96784419D01*
X16575225Y-97136566D01*
X16786987Y-97453491D01*
X17056509Y-97723013D01*
X17373434Y-97934775D01*
X17725581Y-98080639D01*
X18099419Y-98155000D01*
X18480581Y-98155000D01*
X18854419Y-98080639D01*
X19206566Y-97934775D01*
X19523491Y-97723013D01*
X19793013Y-97453491D01*
X20004775Y-97136566D01*
X20150639Y-96784419D01*
X20225000Y-96410581D01*
X20225000Y-96029419D01*
X20150639Y-95655581D01*
X20137564Y-95624015D01*
X23765000Y-91996579D01*
X23765000Y-94493421D01*
X18885986Y-99372436D01*
X18854419Y-99359361D01*
X18480581Y-99285000D01*
X18099419Y-99285000D01*
X17725581Y-99359361D01*
X17373434Y-99505225D01*
X17056509Y-99716987D01*
X16786987Y-99986509D01*
X16575225Y-100303434D01*
X16429361Y-100655581D01*
X16355000Y-101029419D01*
X16355000Y-101410581D01*
X16429361Y-101784419D01*
X16575225Y-102136566D01*
X16786987Y-102453491D01*
X17056509Y-102723013D01*
X17373434Y-102934775D01*
X17725581Y-103080639D01*
X18099419Y-103155000D01*
X18480581Y-103155000D01*
X18854419Y-103080639D01*
X19206566Y-102934775D01*
X19523491Y-102723013D01*
X19776504Y-102470000D01*
X33801928Y-102470000D01*
X33805000Y-103484250D01*
X33963750Y-103643000D01*
X35613000Y-103643000D01*
X35613000Y-101993750D01*
X35867000Y-101993750D01*
X35867000Y-103643000D01*
X37516250Y-103643000D01*
X37675000Y-103484250D01*
X37678072Y-102470000D01*
X37665812Y-102345518D01*
X37629502Y-102225820D01*
X37570537Y-102115506D01*
X37491185Y-102018815D01*
X37394494Y-101939463D01*
X37284180Y-101880498D01*
X37164482Y-101844188D01*
X37040000Y-101831928D01*
X36025750Y-101835000D01*
X35867000Y-101993750D01*
X35613000Y-101993750D01*
X35454250Y-101835000D01*
X34440000Y-101831928D01*
X34315518Y-101844188D01*
X34195820Y-101880498D01*
X34085506Y-101939463D01*
X33988815Y-102018815D01*
X33909463Y-102115506D01*
X33850498Y-102225820D01*
X33814188Y-102345518D01*
X33801928Y-102470000D01*
X19776504Y-102470000D01*
X19793013Y-102453491D01*
X20004775Y-102136566D01*
X20150639Y-101784419D01*
X20225000Y-101410581D01*
X20225000Y-101029419D01*
X20150639Y-100655581D01*
X20137564Y-100624014D01*
X24171578Y-96590000D01*
X30551928Y-96590000D01*
X30564188Y-96714482D01*
X30600498Y-96834180D01*
X30659463Y-96944494D01*
X30738815Y-97041185D01*
X30835506Y-97120537D01*
X30945820Y-97179502D01*
X31065518Y-97215812D01*
X31190000Y-97228072D01*
X32004250Y-97225000D01*
X32163000Y-97066250D01*
X32163000Y-95617000D01*
X32417000Y-95617000D01*
X32417000Y-97066250D01*
X32575750Y-97225000D01*
X33390000Y-97228072D01*
X33514482Y-97215812D01*
X33634180Y-97179502D01*
X33744494Y-97120537D01*
X33841185Y-97041185D01*
X33920537Y-96944494D01*
X33979502Y-96834180D01*
X34015812Y-96714482D01*
X34028072Y-96590000D01*
X34025000Y-95775750D01*
X33866250Y-95617000D01*
X32417000Y-95617000D01*
X32163000Y-95617000D01*
X30713750Y-95617000D01*
X30555000Y-95775750D01*
X30551928Y-96590000D01*
X24171578Y-96590000D01*
X25245051Y-95516528D01*
X25278817Y-95488817D01*
X25389411Y-95354059D01*
X25471589Y-95200313D01*
X25522195Y-95033490D01*
X25535000Y-94903477D01*
X25535000Y-94903467D01*
X25539281Y-94860001D01*
X25535000Y-94816535D01*
X25535000Y-94390000D01*
X30551928Y-94390000D01*
X30555000Y-95204250D01*
X30713750Y-95363000D01*
X32163000Y-95363000D01*
X32163000Y-93913750D01*
X32417000Y-93913750D01*
X32417000Y-95363000D01*
X33866250Y-95363000D01*
X34025000Y-95204250D01*
X34028072Y-94390000D01*
X34015812Y-94265518D01*
X33979502Y-94145820D01*
X33920537Y-94035506D01*
X33841185Y-93938815D01*
X33744494Y-93859463D01*
X33634180Y-93800498D01*
X33514482Y-93764188D01*
X33390000Y-93751928D01*
X32575750Y-93755000D01*
X32417000Y-93913750D01*
X32163000Y-93913750D01*
X32004250Y-93755000D01*
X31190000Y-93751928D01*
X31065518Y-93764188D01*
X30945820Y-93800498D01*
X30835506Y-93859463D01*
X30738815Y-93938815D01*
X30659463Y-94035506D01*
X30600498Y-94145820D01*
X30564188Y-94265518D01*
X30551928Y-94390000D01*
X25535000Y-94390000D01*
X25535000Y-83796578D01*
X27661822Y-81669757D01*
X27675764Y-81811309D01*
X27757818Y-82081808D01*
X27891068Y-82331101D01*
X28070392Y-82549608D01*
X28288899Y-82728932D01*
X28538192Y-82862182D01*
X28808691Y-82944236D01*
X29019508Y-82965000D01*
X29160492Y-82965000D01*
X29371309Y-82944236D01*
X29641808Y-82862182D01*
X29891101Y-82728932D01*
X30109608Y-82549608D01*
X30288932Y-82331101D01*
X30422182Y-82081808D01*
X30504236Y-81811309D01*
X30514114Y-81711018D01*
X30731987Y-81493145D01*
X30731991Y-81493140D01*
X31913146Y-80311987D01*
X31956449Y-80276449D01*
X31998673Y-80225000D01*
X32098284Y-80103623D01*
X32203676Y-79906447D01*
X32268577Y-79692499D01*
X32290491Y-79470000D01*
X32285000Y-79414248D01*
X32285000Y-55755752D01*
X32290491Y-55700000D01*
X32268577Y-55477501D01*
X32203676Y-55263553D01*
X32098284Y-55066377D01*
X31991989Y-54936856D01*
X31991987Y-54936854D01*
X31956449Y-54893551D01*
X31913146Y-54858013D01*
X28705000Y-51649869D01*
X28705000Y-50599002D01*
X28768932Y-50521101D01*
X28902182Y-50271808D01*
X28984236Y-50001309D01*
X29011943Y-49720000D01*
X28998023Y-49578665D01*
X38835000Y-49578665D01*
X38835000Y-49861335D01*
X38890147Y-50138574D01*
X38998320Y-50399727D01*
X39155363Y-50634759D01*
X39355241Y-50834637D01*
X39590273Y-50991680D01*
X39851426Y-51099853D01*
X40128665Y-51155000D01*
X40411335Y-51155000D01*
X40688574Y-51099853D01*
X40949727Y-50991680D01*
X41184759Y-50834637D01*
X41384637Y-50634759D01*
X41541680Y-50399727D01*
X41649853Y-50138574D01*
X41705000Y-49861335D01*
X41705000Y-49578665D01*
X41698017Y-49543561D01*
X42136579Y-49105000D01*
X44885210Y-49105000D01*
X44947688Y-49198505D01*
X45014127Y-49264944D01*
X44995820Y-49270498D01*
X44885506Y-49329463D01*
X44788815Y-49408815D01*
X44709463Y-49505506D01*
X44650498Y-49615820D01*
X44614188Y-49735518D01*
X44601928Y-49860000D01*
X44601928Y-51660000D01*
X44614188Y-51784482D01*
X44650498Y-51904180D01*
X44709463Y-52014494D01*
X44788815Y-52111185D01*
X44885506Y-52190537D01*
X44995820Y-52249502D01*
X45115518Y-52285812D01*
X45240000Y-52298072D01*
X47040000Y-52298072D01*
X47164482Y-52285812D01*
X47284180Y-52249502D01*
X47394494Y-52190537D01*
X47491185Y-52111185D01*
X47570537Y-52014494D01*
X47629502Y-51904180D01*
X47665812Y-51784482D01*
X47678072Y-51660000D01*
X47678072Y-49860000D01*
X47665812Y-49735518D01*
X47629502Y-49615820D01*
X47570537Y-49505506D01*
X47491185Y-49408815D01*
X47394494Y-49329463D01*
X47284180Y-49270498D01*
X47265873Y-49264944D01*
X47332312Y-49198505D01*
X47500299Y-48947095D01*
X47616011Y-48667743D01*
X47627496Y-48610000D01*
X50611928Y-48610000D01*
X50611928Y-50410000D01*
X50624188Y-50534482D01*
X50660498Y-50654180D01*
X50719463Y-50764494D01*
X50798815Y-50861185D01*
X50895506Y-50940537D01*
X51005820Y-50999502D01*
X51125518Y-51035812D01*
X51250000Y-51048072D01*
X53050000Y-51048072D01*
X53174482Y-51035812D01*
X53294180Y-50999502D01*
X53404494Y-50940537D01*
X53501185Y-50861185D01*
X53580537Y-50764494D01*
X53639502Y-50654180D01*
X53645056Y-50635873D01*
X53711495Y-50702312D01*
X53962905Y-50870299D01*
X54242257Y-50986011D01*
X54538816Y-51045000D01*
X54841184Y-51045000D01*
X55137743Y-50986011D01*
X55417095Y-50870299D01*
X55668505Y-50702312D01*
X55882312Y-50488505D01*
X56050299Y-50237095D01*
X56166011Y-49957743D01*
X56225000Y-49661184D01*
X56225000Y-49358816D01*
X56166011Y-49062257D01*
X56050299Y-48782905D01*
X55882312Y-48531495D01*
X55825000Y-48474183D01*
X55825000Y-42925752D01*
X55830491Y-42870000D01*
X55808577Y-42647501D01*
X55743676Y-42433553D01*
X55638284Y-42236377D01*
X55603087Y-42193490D01*
X55496449Y-42063551D01*
X55453140Y-42028009D01*
X54437850Y-41012718D01*
X54389853Y-40771426D01*
X54281680Y-40510273D01*
X54124637Y-40275241D01*
X53924759Y-40075363D01*
X53689727Y-39918320D01*
X53428574Y-39810147D01*
X53151335Y-39755000D01*
X52868665Y-39755000D01*
X52591426Y-39810147D01*
X52330273Y-39918320D01*
X52095241Y-40075363D01*
X51895363Y-40275241D01*
X51738320Y-40510273D01*
X51630147Y-40771426D01*
X51575000Y-41048665D01*
X51575000Y-41331335D01*
X51630147Y-41608574D01*
X51738320Y-41869727D01*
X51895363Y-42104759D01*
X52095241Y-42304637D01*
X52330273Y-42461680D01*
X52591426Y-42569853D01*
X52832718Y-42617850D01*
X53555000Y-43340132D01*
X53555001Y-48224390D01*
X53501185Y-48158815D01*
X53404494Y-48079463D01*
X53294180Y-48020498D01*
X53174482Y-47984188D01*
X53050000Y-47971928D01*
X51250000Y-47971928D01*
X51125518Y-47984188D01*
X51005820Y-48020498D01*
X50895506Y-48079463D01*
X50798815Y-48158815D01*
X50719463Y-48255506D01*
X50660498Y-48365820D01*
X50624188Y-48485518D01*
X50611928Y-48610000D01*
X47627496Y-48610000D01*
X47675000Y-48371184D01*
X47675000Y-48068816D01*
X47616011Y-47772257D01*
X47500299Y-47492905D01*
X47332312Y-47241495D01*
X47118505Y-47027688D01*
X46867095Y-46859701D01*
X46587743Y-46743989D01*
X46291184Y-46685000D01*
X45988816Y-46685000D01*
X45692257Y-46743989D01*
X45412905Y-46859701D01*
X45161495Y-47027688D01*
X44947688Y-47241495D01*
X44885210Y-47335000D01*
X41813465Y-47335000D01*
X41769999Y-47330719D01*
X41726533Y-47335000D01*
X41726523Y-47335000D01*
X41596510Y-47347805D01*
X41429687Y-47398411D01*
X41275941Y-47480589D01*
X41275939Y-47480590D01*
X41275940Y-47480590D01*
X41174953Y-47563468D01*
X41174951Y-47563470D01*
X41141183Y-47591183D01*
X41113470Y-47624951D01*
X40446439Y-48291983D01*
X40411335Y-48285000D01*
X40128665Y-48285000D01*
X39851426Y-48340147D01*
X39590273Y-48448320D01*
X39355241Y-48605363D01*
X39155363Y-48805241D01*
X38998320Y-49040273D01*
X38890147Y-49301426D01*
X38835000Y-49578665D01*
X28998023Y-49578665D01*
X28984236Y-49438691D01*
X28902182Y-49168192D01*
X28768932Y-48918899D01*
X28705000Y-48840998D01*
X28705000Y-44880132D01*
X29113145Y-44471988D01*
X29156449Y-44436449D01*
X29298284Y-44263623D01*
X29403676Y-44066447D01*
X29468577Y-43852499D01*
X29485000Y-43685752D01*
X29490491Y-43630000D01*
X29485000Y-43574248D01*
X29485000Y-41590957D01*
X29504494Y-41580537D01*
X29555059Y-41539039D01*
X38918096Y-41539039D01*
X38958754Y-41673087D01*
X39078963Y-41927420D01*
X39246481Y-42153414D01*
X39454869Y-42342385D01*
X39696119Y-42487070D01*
X39960960Y-42581909D01*
X40183000Y-42460624D01*
X40183000Y-41317000D01*
X40437000Y-41317000D01*
X40437000Y-42460624D01*
X40659040Y-42581909D01*
X40923881Y-42487070D01*
X41165131Y-42342385D01*
X41373519Y-42153414D01*
X41541037Y-41927420D01*
X41661246Y-41673087D01*
X41701904Y-41539039D01*
X41579915Y-41317000D01*
X40437000Y-41317000D01*
X40183000Y-41317000D01*
X39040085Y-41317000D01*
X38918096Y-41539039D01*
X29555059Y-41539039D01*
X29601185Y-41501185D01*
X29680537Y-41404494D01*
X29739502Y-41294180D01*
X29775812Y-41174482D01*
X29788072Y-41050000D01*
X29788072Y-39958665D01*
X33135000Y-39958665D01*
X33135000Y-40241335D01*
X33190147Y-40518574D01*
X33298320Y-40779727D01*
X33455363Y-41014759D01*
X33655241Y-41214637D01*
X33890273Y-41371680D01*
X34151426Y-41479853D01*
X34428665Y-41535000D01*
X34711335Y-41535000D01*
X34988574Y-41479853D01*
X35249727Y-41371680D01*
X35305210Y-41334607D01*
X35318815Y-41351185D01*
X35415506Y-41430537D01*
X35525820Y-41489502D01*
X35645518Y-41525812D01*
X35770000Y-41538072D01*
X36284250Y-41535000D01*
X36443000Y-41376250D01*
X36443000Y-40227000D01*
X36697000Y-40227000D01*
X36697000Y-41376250D01*
X36855750Y-41535000D01*
X37370000Y-41538072D01*
X37494482Y-41525812D01*
X37614180Y-41489502D01*
X37724494Y-41430537D01*
X37821185Y-41351185D01*
X37900537Y-41254494D01*
X37959502Y-41144180D01*
X37995812Y-41024482D01*
X38008072Y-40900000D01*
X38007720Y-40840961D01*
X38918096Y-40840961D01*
X39040085Y-41063000D01*
X40183000Y-41063000D01*
X40183000Y-39919376D01*
X40437000Y-39919376D01*
X40437000Y-41063000D01*
X41579915Y-41063000D01*
X41701904Y-40840961D01*
X41661246Y-40706913D01*
X41541037Y-40452580D01*
X41373519Y-40226586D01*
X41165131Y-40037615D01*
X40923881Y-39892930D01*
X40659040Y-39798091D01*
X40437000Y-39919376D01*
X40183000Y-39919376D01*
X39960960Y-39798091D01*
X39696119Y-39892930D01*
X39454869Y-40037615D01*
X39246481Y-40226586D01*
X39078963Y-40452580D01*
X38958754Y-40706913D01*
X38918096Y-40840961D01*
X38007720Y-40840961D01*
X38005000Y-40385750D01*
X37846250Y-40227000D01*
X36697000Y-40227000D01*
X36443000Y-40227000D01*
X36423000Y-40227000D01*
X36423000Y-39973000D01*
X36443000Y-39973000D01*
X36443000Y-38823750D01*
X36697000Y-38823750D01*
X36697000Y-39973000D01*
X37846250Y-39973000D01*
X38005000Y-39814250D01*
X38008072Y-39300000D01*
X37995812Y-39175518D01*
X37959502Y-39055820D01*
X37900537Y-38945506D01*
X37821185Y-38848815D01*
X37724494Y-38769463D01*
X37614180Y-38710498D01*
X37494482Y-38674188D01*
X37370000Y-38661928D01*
X36855750Y-38665000D01*
X36697000Y-38823750D01*
X36443000Y-38823750D01*
X36284250Y-38665000D01*
X35770000Y-38661928D01*
X35645518Y-38674188D01*
X35525820Y-38710498D01*
X35415506Y-38769463D01*
X35318815Y-38848815D01*
X35305210Y-38865393D01*
X35249727Y-38828320D01*
X34988574Y-38720147D01*
X34711335Y-38665000D01*
X34428665Y-38665000D01*
X34151426Y-38720147D01*
X33890273Y-38828320D01*
X33655241Y-38985363D01*
X33455363Y-39185241D01*
X33298320Y-39420273D01*
X33190147Y-39681426D01*
X33135000Y-39958665D01*
X29788072Y-39958665D01*
X29788072Y-39450000D01*
X29775812Y-39325518D01*
X29739502Y-39205820D01*
X29680537Y-39095506D01*
X29601185Y-38998815D01*
X29504494Y-38919463D01*
X29435000Y-38882317D01*
X29435000Y-34970957D01*
X29454494Y-34960537D01*
X29551185Y-34881185D01*
X29630537Y-34784494D01*
X29689502Y-34674180D01*
X29725812Y-34554482D01*
X29738072Y-34430000D01*
X29738072Y-33308665D01*
X33155000Y-33308665D01*
X33155000Y-33591335D01*
X33210147Y-33868574D01*
X33318320Y-34129727D01*
X33475363Y-34364759D01*
X33675241Y-34564637D01*
X33910273Y-34721680D01*
X34171426Y-34829853D01*
X34448665Y-34885000D01*
X34731335Y-34885000D01*
X35008574Y-34829853D01*
X35269727Y-34721680D01*
X35325210Y-34684607D01*
X35338815Y-34701185D01*
X35435506Y-34780537D01*
X35545820Y-34839502D01*
X35665518Y-34875812D01*
X35790000Y-34888072D01*
X36304250Y-34885000D01*
X36463000Y-34726250D01*
X36463000Y-33577000D01*
X36717000Y-33577000D01*
X36717000Y-34726250D01*
X36875750Y-34885000D01*
X37390000Y-34888072D01*
X37514482Y-34875812D01*
X37634180Y-34839502D01*
X37744494Y-34780537D01*
X37841185Y-34701185D01*
X37920537Y-34604494D01*
X37979502Y-34494180D01*
X38015812Y-34374482D01*
X38028072Y-34250000D01*
X38025000Y-33735750D01*
X37866250Y-33577000D01*
X36717000Y-33577000D01*
X36463000Y-33577000D01*
X36443000Y-33577000D01*
X36443000Y-33323000D01*
X36463000Y-33323000D01*
X36463000Y-32173750D01*
X36717000Y-32173750D01*
X36717000Y-33323000D01*
X37866250Y-33323000D01*
X38025000Y-33164250D01*
X38028072Y-32650000D01*
X38015812Y-32525518D01*
X38002111Y-32480349D01*
X55477500Y-32480349D01*
X55477500Y-32819651D01*
X55543695Y-33152435D01*
X55673541Y-33465909D01*
X55862047Y-33748029D01*
X56101971Y-33987953D01*
X56384091Y-34176459D01*
X56697565Y-34306305D01*
X57030349Y-34372500D01*
X57369651Y-34372500D01*
X57702435Y-34306305D01*
X58015909Y-34176459D01*
X58298029Y-33987953D01*
X58537953Y-33748029D01*
X58726459Y-33465909D01*
X58856305Y-33152435D01*
X58922500Y-32819651D01*
X58922500Y-32480349D01*
X58856305Y-32147565D01*
X58726459Y-31834091D01*
X58537953Y-31551971D01*
X58298029Y-31312047D01*
X58015909Y-31123541D01*
X57702435Y-30993695D01*
X57369651Y-30927500D01*
X57030349Y-30927500D01*
X56697565Y-30993695D01*
X56384091Y-31123541D01*
X56101971Y-31312047D01*
X55862047Y-31551971D01*
X55673541Y-31834091D01*
X55543695Y-32147565D01*
X55477500Y-32480349D01*
X38002111Y-32480349D01*
X37979502Y-32405820D01*
X37920537Y-32295506D01*
X37841185Y-32198815D01*
X37744494Y-32119463D01*
X37634180Y-32060498D01*
X37514482Y-32024188D01*
X37390000Y-32011928D01*
X36875750Y-32015000D01*
X36717000Y-32173750D01*
X36463000Y-32173750D01*
X36304250Y-32015000D01*
X35790000Y-32011928D01*
X35665518Y-32024188D01*
X35545820Y-32060498D01*
X35435506Y-32119463D01*
X35338815Y-32198815D01*
X35325210Y-32215393D01*
X35269727Y-32178320D01*
X35008574Y-32070147D01*
X34731335Y-32015000D01*
X34448665Y-32015000D01*
X34171426Y-32070147D01*
X33910273Y-32178320D01*
X33675241Y-32335363D01*
X33475363Y-32535241D01*
X33318320Y-32770273D01*
X33210147Y-33031426D01*
X33155000Y-33308665D01*
X29738072Y-33308665D01*
X29738072Y-32830000D01*
X29725812Y-32705518D01*
X29689502Y-32585820D01*
X29630537Y-32475506D01*
X29551185Y-32378815D01*
X29454494Y-32299463D01*
X29435000Y-32289043D01*
X29435000Y-31885752D01*
X29440491Y-31830000D01*
X29418577Y-31607501D01*
X29353676Y-31393553D01*
X29248284Y-31196377D01*
X29106449Y-31023551D01*
X29063141Y-30988009D01*
X27653204Y-29578072D01*
X27660869Y-29578072D01*
X27710000Y-29582911D01*
X27759131Y-29578072D01*
X28662500Y-29578072D01*
X28786982Y-29565812D01*
X28906680Y-29529502D01*
X29016994Y-29470537D01*
X29113685Y-29391185D01*
X29193037Y-29294494D01*
X29237905Y-29210553D01*
X29363766Y-29313845D01*
X29639552Y-29461255D01*
X29938797Y-29552030D01*
X30250000Y-29582681D01*
X30561204Y-29552030D01*
X30860449Y-29461255D01*
X31136235Y-29313845D01*
X31377963Y-29115463D01*
X31525162Y-28936100D01*
X31680563Y-29121315D01*
X31923077Y-29315969D01*
X32198906Y-29459571D01*
X32417020Y-29530563D01*
X32663000Y-29410594D01*
X32663000Y-28067000D01*
X32917000Y-28067000D01*
X32917000Y-29410594D01*
X33162980Y-29530563D01*
X33381094Y-29459571D01*
X33656923Y-29315969D01*
X33899437Y-29121315D01*
X34099316Y-28883089D01*
X34248879Y-28610446D01*
X34342378Y-28313863D01*
X34215570Y-28067000D01*
X32917000Y-28067000D01*
X32663000Y-28067000D01*
X32643000Y-28067000D01*
X32643000Y-27813000D01*
X32663000Y-27813000D01*
X32663000Y-26469406D01*
X32917000Y-26469406D01*
X32917000Y-27813000D01*
X34215570Y-27813000D01*
X34342378Y-27566137D01*
X34283808Y-27380349D01*
X55477500Y-27380349D01*
X55477500Y-27719651D01*
X55543695Y-28052435D01*
X55673541Y-28365909D01*
X55862047Y-28648029D01*
X56101971Y-28887953D01*
X56384091Y-29076459D01*
X56697565Y-29206305D01*
X57030349Y-29272500D01*
X57369651Y-29272500D01*
X57702435Y-29206305D01*
X57753869Y-29185000D01*
X98995681Y-29185000D01*
X99076000Y-29192911D01*
X99156319Y-29185000D01*
X99156322Y-29185000D01*
X99396516Y-29161343D01*
X99704715Y-29067852D01*
X99988752Y-28916031D01*
X100237714Y-28711714D01*
X100288925Y-28649313D01*
X100289014Y-28649224D01*
X126450381Y-28649224D01*
X126582317Y-28944312D01*
X126923045Y-29115159D01*
X127290557Y-29216250D01*
X127670729Y-29243701D01*
X128048951Y-29196457D01*
X128410690Y-29076333D01*
X128657683Y-28944312D01*
X128789619Y-28649224D01*
X127620000Y-27479605D01*
X126450381Y-28649224D01*
X100289014Y-28649224D01*
X101587509Y-27350729D01*
X125676299Y-27350729D01*
X125723543Y-27728951D01*
X125843667Y-28090690D01*
X125975688Y-28337683D01*
X126270776Y-28469619D01*
X127440395Y-27300000D01*
X127799605Y-27300000D01*
X128969224Y-28469619D01*
X129264312Y-28337683D01*
X129435159Y-27996955D01*
X129536250Y-27629443D01*
X129563701Y-27249271D01*
X129516457Y-26871049D01*
X129396333Y-26509310D01*
X129264312Y-26262317D01*
X128969224Y-26130381D01*
X127799605Y-27300000D01*
X127440395Y-27300000D01*
X126270776Y-26130381D01*
X125975688Y-26262317D01*
X125804841Y-26603045D01*
X125703750Y-26970557D01*
X125676299Y-27350729D01*
X101587509Y-27350729D01*
X102987462Y-25950776D01*
X126450381Y-25950776D01*
X127620000Y-27120395D01*
X128789619Y-25950776D01*
X128657683Y-25655688D01*
X128316955Y-25484841D01*
X127949443Y-25383750D01*
X127569271Y-25356299D01*
X127191049Y-25403543D01*
X126829310Y-25523667D01*
X126582317Y-25655688D01*
X126450381Y-25950776D01*
X102987462Y-25950776D01*
X107762915Y-21175324D01*
X107916030Y-20988753D01*
X108067851Y-20704715D01*
X108161342Y-20396517D01*
X108192911Y-20076001D01*
X108161342Y-19755484D01*
X108067851Y-19447286D01*
X107916030Y-19163248D01*
X107711713Y-18914287D01*
X107462752Y-18709970D01*
X107178714Y-18558149D01*
X106870516Y-18464658D01*
X106549999Y-18433089D01*
X106229483Y-18464658D01*
X105921285Y-18558149D01*
X105637247Y-18709970D01*
X105450676Y-18863085D01*
X98398762Y-25915000D01*
X57753869Y-25915000D01*
X57702435Y-25893695D01*
X57369651Y-25827500D01*
X57030349Y-25827500D01*
X56697565Y-25893695D01*
X56384091Y-26023541D01*
X56101971Y-26212047D01*
X55862047Y-26451971D01*
X55673541Y-26734091D01*
X55543695Y-27047565D01*
X55477500Y-27380349D01*
X34283808Y-27380349D01*
X34248879Y-27269554D01*
X34099316Y-26996911D01*
X33899437Y-26758685D01*
X33656923Y-26564031D01*
X33381094Y-26420429D01*
X33162980Y-26349437D01*
X32917000Y-26469406D01*
X32663000Y-26469406D01*
X32417020Y-26349437D01*
X32198906Y-26420429D01*
X31923077Y-26564031D01*
X31680563Y-26758685D01*
X31525163Y-26943899D01*
X31377963Y-26764537D01*
X31136234Y-26566155D01*
X30860448Y-26418745D01*
X30561203Y-26327970D01*
X30250000Y-26297319D01*
X29938796Y-26327970D01*
X29639551Y-26418745D01*
X29363765Y-26566155D01*
X29345000Y-26581555D01*
X29345000Y-25319268D01*
X43165000Y-25319268D01*
X43165000Y-25680732D01*
X43235518Y-26035250D01*
X43373844Y-26369199D01*
X43574662Y-26669744D01*
X43830256Y-26925338D01*
X44130801Y-27126156D01*
X44464750Y-27264482D01*
X44819268Y-27335000D01*
X45180732Y-27335000D01*
X45535250Y-27264482D01*
X45869199Y-27126156D01*
X46169744Y-26925338D01*
X46425338Y-26669744D01*
X46626156Y-26369199D01*
X46764482Y-26035250D01*
X46835000Y-25680732D01*
X46835000Y-25319268D01*
X46764482Y-24964750D01*
X46626156Y-24630801D01*
X46425338Y-24330256D01*
X46169744Y-24074662D01*
X45869199Y-23873844D01*
X45535250Y-23735518D01*
X45180732Y-23665000D01*
X44819268Y-23665000D01*
X44464750Y-23735518D01*
X44130801Y-23873844D01*
X43830256Y-24074662D01*
X43574662Y-24330256D01*
X43373844Y-24630801D01*
X43235518Y-24964750D01*
X43165000Y-25319268D01*
X29345000Y-25319268D01*
X29345000Y-24635000D01*
X36719681Y-24635000D01*
X36800000Y-24642911D01*
X36880319Y-24635000D01*
X36880322Y-24635000D01*
X37120516Y-24611343D01*
X37428715Y-24517852D01*
X37712752Y-24366031D01*
X37961714Y-24161714D01*
X38012925Y-24099313D01*
X39831889Y-22280349D01*
X55477500Y-22280349D01*
X55477500Y-22619651D01*
X55543695Y-22952435D01*
X55673541Y-23265909D01*
X55862047Y-23548029D01*
X56101971Y-23787953D01*
X56384091Y-23976459D01*
X56697565Y-24106305D01*
X57030349Y-24172500D01*
X57369651Y-24172500D01*
X57702435Y-24106305D01*
X57753869Y-24085000D01*
X73615681Y-24085000D01*
X73696000Y-24092911D01*
X73776319Y-24085000D01*
X73776322Y-24085000D01*
X74016516Y-24061343D01*
X74324715Y-23967852D01*
X74608752Y-23816031D01*
X74857714Y-23611714D01*
X74908925Y-23549313D01*
X77282915Y-21175324D01*
X77436030Y-20988753D01*
X77587852Y-20704715D01*
X77681342Y-20396517D01*
X77712911Y-20076000D01*
X84587089Y-20076000D01*
X84618657Y-20396516D01*
X84712148Y-20704715D01*
X84863969Y-20988752D01*
X85068286Y-21237714D01*
X85317248Y-21442031D01*
X85601285Y-21593852D01*
X85909484Y-21687343D01*
X86149678Y-21711000D01*
X96470322Y-21711000D01*
X96710516Y-21687343D01*
X97018715Y-21593852D01*
X97302752Y-21442031D01*
X97551714Y-21237714D01*
X97756031Y-20988752D01*
X97907852Y-20704715D01*
X98001343Y-20396516D01*
X98032911Y-20076000D01*
X98001343Y-19755484D01*
X97907852Y-19447285D01*
X97756031Y-19163248D01*
X97551714Y-18914286D01*
X97302752Y-18709969D01*
X97018715Y-18558148D01*
X96710516Y-18464657D01*
X96470322Y-18441000D01*
X86149678Y-18441000D01*
X85909484Y-18464657D01*
X85601285Y-18558148D01*
X85317248Y-18709969D01*
X85068286Y-18914286D01*
X84863969Y-19163248D01*
X84712148Y-19447285D01*
X84618657Y-19755484D01*
X84587089Y-20076000D01*
X77712911Y-20076000D01*
X77681342Y-19755484D01*
X77587852Y-19447286D01*
X77436030Y-19163248D01*
X77231713Y-18914287D01*
X76982752Y-18709970D01*
X76698714Y-18558148D01*
X76390516Y-18464658D01*
X76070000Y-18433089D01*
X75749483Y-18464658D01*
X75441285Y-18558148D01*
X75157247Y-18709970D01*
X74970676Y-18863085D01*
X73018762Y-20815000D01*
X57753869Y-20815000D01*
X57702435Y-20793695D01*
X57369651Y-20727500D01*
X57030349Y-20727500D01*
X56697565Y-20793695D01*
X56384091Y-20923541D01*
X56101971Y-21112047D01*
X55862047Y-21351971D01*
X55673541Y-21634091D01*
X55543695Y-21947565D01*
X55477500Y-22280349D01*
X39831889Y-22280349D01*
X42477239Y-19635000D01*
X43335532Y-19635000D01*
X43348815Y-19651185D01*
X43445506Y-19730537D01*
X43555820Y-19789502D01*
X43675518Y-19825812D01*
X43800000Y-19838072D01*
X46200000Y-19838072D01*
X46324482Y-19825812D01*
X46444180Y-19789502D01*
X46554494Y-19730537D01*
X46651185Y-19651185D01*
X46730537Y-19554494D01*
X46789502Y-19444180D01*
X46825812Y-19324482D01*
X46838072Y-19200000D01*
X46838072Y-18985000D01*
X56646131Y-18985000D01*
X56697565Y-19006305D01*
X57030349Y-19072500D01*
X57369651Y-19072500D01*
X57702435Y-19006305D01*
X58015909Y-18876459D01*
X58298029Y-18687953D01*
X58537953Y-18448029D01*
X58726459Y-18165909D01*
X58778316Y-18040715D01*
X125084216Y-18040715D01*
X125147655Y-18606285D01*
X125319739Y-19148761D01*
X125593913Y-19647482D01*
X125959734Y-20083451D01*
X126403268Y-20440062D01*
X126907622Y-20703731D01*
X127453583Y-20864416D01*
X128020358Y-20915997D01*
X128586357Y-20856508D01*
X129130022Y-20688216D01*
X129630645Y-20417530D01*
X130069157Y-20054761D01*
X130428855Y-19613727D01*
X130696039Y-19111227D01*
X130860532Y-18566401D01*
X130916068Y-18000000D01*
X130914931Y-17918579D01*
X130843602Y-17353950D01*
X130663961Y-16813928D01*
X130382850Y-16319084D01*
X130010977Y-15888266D01*
X129562507Y-15537882D01*
X129054522Y-15281280D01*
X128506370Y-15128234D01*
X127938930Y-15084572D01*
X127373817Y-15151957D01*
X126832555Y-15327824D01*
X126335760Y-15605473D01*
X125902356Y-15974329D01*
X125548851Y-16420342D01*
X125288709Y-16926524D01*
X125131839Y-17473594D01*
X125084216Y-18040715D01*
X58778316Y-18040715D01*
X58856305Y-17852435D01*
X58922500Y-17519651D01*
X58922500Y-17180349D01*
X58856305Y-16847565D01*
X58726459Y-16534091D01*
X58537953Y-16251971D01*
X58298029Y-16012047D01*
X58015909Y-15823541D01*
X57702435Y-15693695D01*
X57369651Y-15627500D01*
X57030349Y-15627500D01*
X56697565Y-15693695D01*
X56646131Y-15715000D01*
X45730322Y-15715000D01*
X45650000Y-15707089D01*
X45329483Y-15738657D01*
X45021285Y-15832148D01*
X44737248Y-15983969D01*
X44520403Y-16161928D01*
X43800000Y-16161928D01*
X43675518Y-16174188D01*
X43555820Y-16210498D01*
X43445506Y-16269463D01*
X43348815Y-16348815D01*
X43335532Y-16365000D01*
X41880322Y-16365000D01*
X41800000Y-16357089D01*
X41479483Y-16388657D01*
X41271171Y-16451848D01*
X41171285Y-16482148D01*
X40887248Y-16633969D01*
X40638286Y-16838286D01*
X40587080Y-16900681D01*
X36122762Y-21365000D01*
X27080319Y-21365000D01*
X27000000Y-21357089D01*
X26919681Y-21365000D01*
X18760319Y-21365000D01*
X18679999Y-21357089D01*
X18599680Y-21365000D01*
X18599678Y-21365000D01*
X18359484Y-21388657D01*
X18051285Y-21482148D01*
X17767248Y-21633969D01*
X17518286Y-21838286D01*
X17467080Y-21900682D01*
X15570687Y-23797075D01*
X15508286Y-23848286D01*
X15303969Y-24097249D01*
X15152148Y-24381286D01*
X15058657Y-24689485D01*
X15040709Y-24871713D01*
X15027089Y-25010000D01*
X14127000Y-25010000D01*
X14127000Y-18040715D01*
X15084216Y-18040715D01*
X15147655Y-18606285D01*
X15319739Y-19148761D01*
X15593913Y-19647482D01*
X15959734Y-20083451D01*
X16403268Y-20440062D01*
X16907622Y-20703731D01*
X17453583Y-20864416D01*
X18020358Y-20915997D01*
X18586357Y-20856508D01*
X19130022Y-20688216D01*
X19630645Y-20417530D01*
X20069157Y-20054761D01*
X20428855Y-19613727D01*
X20696039Y-19111227D01*
X20860532Y-18566401D01*
X20916068Y-18000000D01*
X20914931Y-17918579D01*
X20843602Y-17353950D01*
X20663961Y-16813928D01*
X20382850Y-16319084D01*
X20010977Y-15888266D01*
X19562507Y-15537882D01*
X19054522Y-15281280D01*
X18506370Y-15128234D01*
X17938930Y-15084572D01*
X17373817Y-15151957D01*
X16832555Y-15327824D01*
X16335760Y-15605473D01*
X15902356Y-15974329D01*
X15548851Y-16420342D01*
X15288709Y-16926524D01*
X15131839Y-17473594D01*
X15084216Y-18040715D01*
X14127000Y-18040715D01*
X14127000Y-14127000D01*
X131873000Y-14127000D01*
X131873000Y-47873000D01*
X131873000Y-47873000D01*
G37*
X131873000Y-47873000D02*
X70671457Y-47873000D01*
X75109458Y-43435000D01*
X125681928Y-43435000D01*
X125681928Y-43600000D01*
X125694188Y-43724482D01*
X125730498Y-43844180D01*
X125789463Y-43954494D01*
X125868815Y-44051185D01*
X125965506Y-44130537D01*
X126075820Y-44189502D01*
X126195518Y-44225812D01*
X126320000Y-44238072D01*
X128920000Y-44238072D01*
X129044482Y-44225812D01*
X129164180Y-44189502D01*
X129274494Y-44130537D01*
X129371185Y-44051185D01*
X129450537Y-43954494D01*
X129509502Y-43844180D01*
X129545812Y-43724482D01*
X129558072Y-43600000D01*
X129558072Y-41000000D01*
X129545812Y-40875518D01*
X129509502Y-40755820D01*
X129450537Y-40645506D01*
X129371185Y-40548815D01*
X129274494Y-40469463D01*
X129164180Y-40410498D01*
X129044482Y-40374188D01*
X128920000Y-40361928D01*
X126320000Y-40361928D01*
X126195518Y-40374188D01*
X126075820Y-40410498D01*
X125965506Y-40469463D01*
X125868815Y-40548815D01*
X125789463Y-40645506D01*
X125730498Y-40755820D01*
X125694188Y-40875518D01*
X125681928Y-41000000D01*
X125681928Y-41165000D01*
X74695067Y-41165000D01*
X74639325Y-41159510D01*
X74583583Y-41165000D01*
X74583574Y-41165000D01*
X74416827Y-41181423D01*
X74202879Y-41246324D01*
X74005703Y-41351716D01*
X73832877Y-41493551D01*
X73797335Y-41536859D01*
X67461195Y-47873000D01*
X66000000Y-47873000D01*
X65975224Y-47875440D01*
X65951399Y-47882667D01*
X65929443Y-47894403D01*
X65910197Y-47910197D01*
X65894403Y-47929443D01*
X65882667Y-47951399D01*
X65875440Y-47975224D01*
X65873000Y-48000000D01*
X65873000Y-49461195D01*
X63816860Y-51517335D01*
X63773552Y-51552877D01*
X63631717Y-51725703D01*
X63600333Y-51784419D01*
X63526324Y-51922880D01*
X63461423Y-52136828D01*
X63439509Y-52359326D01*
X63445001Y-52415087D01*
X63445000Y-61119868D01*
X60585000Y-63979868D01*
X60585000Y-42580131D01*
X64515907Y-38649224D01*
X126450381Y-38649224D01*
X126582317Y-38944312D01*
X126923045Y-39115159D01*
X127290557Y-39216250D01*
X127670729Y-39243701D01*
X128048951Y-39196457D01*
X128410690Y-39076333D01*
X128657683Y-38944312D01*
X128789619Y-38649224D01*
X127620000Y-37479605D01*
X126450381Y-38649224D01*
X64515907Y-38649224D01*
X65814403Y-37350729D01*
X125676299Y-37350729D01*
X125723543Y-37728951D01*
X125843667Y-38090690D01*
X125975688Y-38337683D01*
X126270776Y-38469619D01*
X127440395Y-37300000D01*
X127799605Y-37300000D01*
X128969224Y-38469619D01*
X129264312Y-38337683D01*
X129435159Y-37996955D01*
X129536250Y-37629443D01*
X129563701Y-37249271D01*
X129516457Y-36871049D01*
X129396333Y-36509310D01*
X129264312Y-36262317D01*
X128969224Y-36130381D01*
X127799605Y-37300000D01*
X127440395Y-37300000D01*
X126270776Y-36130381D01*
X125975688Y-36262317D01*
X125804841Y-36603045D01*
X125703750Y-36970557D01*
X125676299Y-37350729D01*
X65814403Y-37350729D01*
X67214356Y-35950776D01*
X126450381Y-35950776D01*
X127620000Y-37120395D01*
X128789619Y-35950776D01*
X128657683Y-35655688D01*
X128316955Y-35484841D01*
X127949443Y-35383750D01*
X127569271Y-35356299D01*
X127191049Y-35403543D01*
X126829310Y-35523667D01*
X126582317Y-35655688D01*
X126450381Y-35950776D01*
X67214356Y-35950776D01*
X69730133Y-33435000D01*
X126051178Y-33435000D01*
X126116987Y-33533491D01*
X126386509Y-33803013D01*
X126703434Y-34014775D01*
X127055581Y-34160639D01*
X127429419Y-34235000D01*
X127810581Y-34235000D01*
X128184419Y-34160639D01*
X128536566Y-34014775D01*
X128853491Y-33803013D01*
X129123013Y-33533491D01*
X129334775Y-33216566D01*
X129480639Y-32864419D01*
X129555000Y-32490581D01*
X129555000Y-32109419D01*
X129480639Y-31735581D01*
X129334775Y-31383434D01*
X129123013Y-31066509D01*
X128853491Y-30796987D01*
X128536566Y-30585225D01*
X128184419Y-30439361D01*
X127810581Y-30365000D01*
X127429419Y-30365000D01*
X127055581Y-30439361D01*
X126703434Y-30585225D01*
X126386509Y-30796987D01*
X126116987Y-31066509D01*
X126051178Y-31165000D01*
X69888805Y-31165000D01*
X69816447Y-31126324D01*
X69602499Y-31061423D01*
X69380000Y-31039509D01*
X69157501Y-31061423D01*
X68943553Y-31126324D01*
X68746377Y-31231716D01*
X68616856Y-31338011D01*
X68616844Y-31338023D01*
X68573552Y-31373552D01*
X68538023Y-31416844D01*
X58686860Y-41268009D01*
X58643552Y-41303551D01*
X58501717Y-41476377D01*
X58475225Y-41525941D01*
X58396324Y-41673554D01*
X58331423Y-41887502D01*
X58309509Y-42110000D01*
X58315001Y-42165762D01*
X58315000Y-63709868D01*
X51288139Y-70736729D01*
X51252182Y-70618192D01*
X51118932Y-70368899D01*
X50939608Y-70150392D01*
X50721101Y-69971068D01*
X50588142Y-69900000D01*
X50721101Y-69828932D01*
X50939608Y-69649608D01*
X51118932Y-69431101D01*
X51252182Y-69181808D01*
X51334236Y-68911309D01*
X51361943Y-68630000D01*
X51334236Y-68348691D01*
X51252182Y-68078192D01*
X51118932Y-67828899D01*
X50939608Y-67610392D01*
X50721101Y-67431068D01*
X50588142Y-67360000D01*
X50721101Y-67288932D01*
X50939608Y-67109608D01*
X51118932Y-66891101D01*
X51252182Y-66641808D01*
X51334236Y-66371309D01*
X51361943Y-66090000D01*
X51334236Y-65808691D01*
X51252182Y-65538192D01*
X51118932Y-65288899D01*
X50939608Y-65070392D01*
X50721101Y-64891068D01*
X50588142Y-64820000D01*
X50721101Y-64748932D01*
X50939608Y-64569608D01*
X51118932Y-64351101D01*
X51252182Y-64101808D01*
X51334236Y-63831309D01*
X51361943Y-63550000D01*
X51334236Y-63268691D01*
X51252182Y-62998192D01*
X51118932Y-62748899D01*
X50939608Y-62530392D01*
X50721101Y-62351068D01*
X50588142Y-62280000D01*
X50721101Y-62208932D01*
X50939608Y-62029608D01*
X51118932Y-61811101D01*
X51252182Y-61561808D01*
X51334236Y-61291309D01*
X51361943Y-61010000D01*
X51334236Y-60728691D01*
X51252182Y-60458192D01*
X51118932Y-60208899D01*
X50939608Y-59990392D01*
X50721101Y-59811068D01*
X50471808Y-59677818D01*
X50201309Y-59595764D01*
X49990492Y-59575000D01*
X49849508Y-59575000D01*
X49638691Y-59595764D01*
X49368192Y-59677818D01*
X49118899Y-59811068D01*
X48900392Y-59990392D01*
X48721068Y-60208899D01*
X48587818Y-60458192D01*
X48505764Y-60728691D01*
X48478057Y-61010000D01*
X48505764Y-61291309D01*
X48587818Y-61561808D01*
X48721068Y-61811101D01*
X48900392Y-62029608D01*
X49118899Y-62208932D01*
X49251858Y-62280000D01*
X49118899Y-62351068D01*
X48900392Y-62530392D01*
X48721068Y-62748899D01*
X48587818Y-62998192D01*
X48505764Y-63268691D01*
X48478057Y-63550000D01*
X48505764Y-63831309D01*
X48587818Y-64101808D01*
X48721068Y-64351101D01*
X48900392Y-64569608D01*
X49118899Y-64748932D01*
X49251858Y-64820000D01*
X49118899Y-64891068D01*
X48900392Y-65070392D01*
X48721068Y-65288899D01*
X48587818Y-65538192D01*
X48505764Y-65808691D01*
X48495886Y-65908982D01*
X43906865Y-70498004D01*
X43863551Y-70533551D01*
X43721716Y-70706377D01*
X43681663Y-70781311D01*
X43632182Y-70618192D01*
X43498932Y-70368899D01*
X43319608Y-70150392D01*
X43101101Y-69971068D01*
X42968142Y-69900000D01*
X43101101Y-69828932D01*
X43319608Y-69649608D01*
X43498932Y-69431101D01*
X43632182Y-69181808D01*
X43714236Y-68911309D01*
X43741943Y-68630000D01*
X43714236Y-68348691D01*
X43632182Y-68078192D01*
X43498932Y-67828899D01*
X43319608Y-67610392D01*
X43101101Y-67431068D01*
X42968142Y-67360000D01*
X43101101Y-67288932D01*
X43319608Y-67109608D01*
X43498932Y-66891101D01*
X43632182Y-66641808D01*
X43714236Y-66371309D01*
X43741943Y-66090000D01*
X43714236Y-65808691D01*
X43632182Y-65538192D01*
X43498932Y-65288899D01*
X43319608Y-65070392D01*
X43101101Y-64891068D01*
X42968142Y-64820000D01*
X43101101Y-64748932D01*
X43319608Y-64569608D01*
X43498932Y-64351101D01*
X43632182Y-64101808D01*
X43714236Y-63831309D01*
X43741943Y-63550000D01*
X43714236Y-63268691D01*
X43632182Y-62998192D01*
X43498932Y-62748899D01*
X43319608Y-62530392D01*
X43206518Y-62437581D01*
X43224482Y-62435812D01*
X43344180Y-62399502D01*
X43454494Y-62340537D01*
X43551185Y-62261185D01*
X43630537Y-62164494D01*
X43689502Y-62054180D01*
X43725812Y-61934482D01*
X43738072Y-61810000D01*
X43738072Y-60210000D01*
X43725812Y-60085518D01*
X43689502Y-59965820D01*
X43630537Y-59855506D01*
X43551185Y-59758815D01*
X43454494Y-59679463D01*
X43344180Y-59620498D01*
X43224482Y-59584188D01*
X43100000Y-59571928D01*
X41500000Y-59571928D01*
X41375518Y-59584188D01*
X41255820Y-59620498D01*
X41145506Y-59679463D01*
X41048815Y-59758815D01*
X40969463Y-59855506D01*
X40910498Y-59965820D01*
X40874188Y-60085518D01*
X40861928Y-60210000D01*
X40861928Y-61810000D01*
X40874188Y-61934482D01*
X40910498Y-62054180D01*
X40969463Y-62164494D01*
X41048815Y-62261185D01*
X41145506Y-62340537D01*
X41255820Y-62399502D01*
X41375518Y-62435812D01*
X41393482Y-62437581D01*
X41280392Y-62530392D01*
X41101068Y-62748899D01*
X40967818Y-62998192D01*
X40885764Y-63268691D01*
X40858057Y-63550000D01*
X40885764Y-63831309D01*
X40967818Y-64101808D01*
X41101068Y-64351101D01*
X41280392Y-64569608D01*
X41498899Y-64748932D01*
X41631858Y-64820000D01*
X41498899Y-64891068D01*
X41280392Y-65070392D01*
X41169922Y-65205000D01*
X39416579Y-65205000D01*
X38134875Y-63923296D01*
X38151943Y-63750000D01*
X38124236Y-63468691D01*
X38042182Y-63198192D01*
X37908932Y-62948899D01*
X37729608Y-62730392D01*
X37511101Y-62551068D01*
X37378142Y-62480000D01*
X37511101Y-62408932D01*
X37729608Y-62229608D01*
X37908932Y-62011101D01*
X38042182Y-61761808D01*
X38124236Y-61491309D01*
X38151943Y-61210000D01*
X38124236Y-60928691D01*
X38042182Y-60658192D01*
X37908932Y-60408899D01*
X37729608Y-60190392D01*
X37511101Y-60011068D01*
X37378142Y-59940000D01*
X37511101Y-59868932D01*
X37729608Y-59689608D01*
X37908932Y-59471101D01*
X38042182Y-59221808D01*
X38124236Y-58951309D01*
X38151943Y-58670000D01*
X38124236Y-58388691D01*
X38042182Y-58118192D01*
X37908932Y-57868899D01*
X37729608Y-57650392D01*
X37511101Y-57471068D01*
X37261808Y-57337818D01*
X36991309Y-57255764D01*
X36780492Y-57235000D01*
X36639508Y-57235000D01*
X36428691Y-57255764D01*
X36158192Y-57337818D01*
X35908899Y-57471068D01*
X35690392Y-57650392D01*
X35511068Y-57868899D01*
X35377818Y-58118192D01*
X35295764Y-58388691D01*
X35268057Y-58670000D01*
X35295764Y-58951309D01*
X35377818Y-59221808D01*
X35511068Y-59471101D01*
X35690392Y-59689608D01*
X35908899Y-59868932D01*
X36041858Y-59940000D01*
X35908899Y-60011068D01*
X35690392Y-60190392D01*
X35511068Y-60408899D01*
X35377818Y-60658192D01*
X35295764Y-60928691D01*
X35268057Y-61210000D01*
X35295764Y-61491309D01*
X35377818Y-61761808D01*
X35511068Y-62011101D01*
X35690392Y-62229608D01*
X35908899Y-62408932D01*
X36041858Y-62480000D01*
X35908899Y-62551068D01*
X35690392Y-62730392D01*
X35511068Y-62948899D01*
X35377818Y-63198192D01*
X35295764Y-63468691D01*
X35268057Y-63750000D01*
X35295764Y-64031309D01*
X35377818Y-64301808D01*
X35511068Y-64551101D01*
X35690392Y-64769608D01*
X35908899Y-64948932D01*
X36041858Y-65020000D01*
X35908899Y-65091068D01*
X35690392Y-65270392D01*
X35511068Y-65488899D01*
X35377818Y-65738192D01*
X35295764Y-66008691D01*
X35268057Y-66290000D01*
X35295764Y-66571309D01*
X35377818Y-66841808D01*
X35511068Y-67091101D01*
X35690392Y-67309608D01*
X35908899Y-67488932D01*
X36041858Y-67560000D01*
X35908899Y-67631068D01*
X35690392Y-67810392D01*
X35511068Y-68028899D01*
X35377818Y-68278192D01*
X35295764Y-68548691D01*
X35268057Y-68830000D01*
X35295764Y-69111309D01*
X35377818Y-69381808D01*
X35511068Y-69631101D01*
X35690392Y-69849608D01*
X35908899Y-70028932D01*
X36041858Y-70100000D01*
X35908899Y-70171068D01*
X35690392Y-70350392D01*
X35511068Y-70568899D01*
X35377818Y-70818192D01*
X35295764Y-71088691D01*
X35268057Y-71370000D01*
X35295764Y-71651309D01*
X35377818Y-71921808D01*
X35511068Y-72171101D01*
X35690392Y-72389608D01*
X35908899Y-72568932D01*
X36041858Y-72640000D01*
X35908899Y-72711068D01*
X35690392Y-72890392D01*
X35511068Y-73108899D01*
X35377818Y-73358192D01*
X35295764Y-73628691D01*
X35268057Y-73910000D01*
X35295764Y-74191309D01*
X35377818Y-74461808D01*
X35511068Y-74711101D01*
X35690392Y-74929608D01*
X35908899Y-75108932D01*
X36041858Y-75180000D01*
X35908899Y-75251068D01*
X35690392Y-75430392D01*
X35511068Y-75648899D01*
X35377818Y-75898192D01*
X35295764Y-76168691D01*
X35268057Y-76450000D01*
X35295764Y-76731309D01*
X35377818Y-77001808D01*
X35511068Y-77251101D01*
X35690392Y-77469608D01*
X35908899Y-77648932D01*
X36041858Y-77720000D01*
X35908899Y-77791068D01*
X35690392Y-77970392D01*
X35511068Y-78188899D01*
X35377818Y-78438192D01*
X35295764Y-78708691D01*
X35268057Y-78990000D01*
X35295764Y-79271309D01*
X35377818Y-79541808D01*
X35511068Y-79791101D01*
X35690392Y-80009608D01*
X35803482Y-80102419D01*
X35785518Y-80104188D01*
X35665820Y-80140498D01*
X35555506Y-80199463D01*
X35458815Y-80278815D01*
X35379463Y-80375506D01*
X35320498Y-80485820D01*
X35284188Y-80605518D01*
X35271928Y-80730000D01*
X35271928Y-82330000D01*
X35284188Y-82454482D01*
X35320498Y-82574180D01*
X35379463Y-82684494D01*
X35458815Y-82781185D01*
X35555506Y-82860537D01*
X35665820Y-82919502D01*
X35785518Y-82955812D01*
X35910000Y-82968072D01*
X37510000Y-82968072D01*
X37634482Y-82955812D01*
X37754180Y-82919502D01*
X37864494Y-82860537D01*
X37961185Y-82781185D01*
X38040537Y-82684494D01*
X38099502Y-82574180D01*
X38135812Y-82454482D01*
X38148072Y-82330000D01*
X38148072Y-80730000D01*
X38135812Y-80605518D01*
X38099502Y-80485820D01*
X38040537Y-80375506D01*
X37961185Y-80278815D01*
X37864494Y-80199463D01*
X37754180Y-80140498D01*
X37634482Y-80104188D01*
X37616518Y-80102419D01*
X37729608Y-80009608D01*
X37840078Y-79875000D01*
X39516531Y-79875000D01*
X39560000Y-79879281D01*
X39603469Y-79875000D01*
X39603477Y-79875000D01*
X39733490Y-79862195D01*
X39900313Y-79811589D01*
X40054059Y-79729411D01*
X40188817Y-79618817D01*
X40216534Y-79585044D01*
X40871822Y-78929756D01*
X40885764Y-79071309D01*
X40967818Y-79341808D01*
X41101068Y-79591101D01*
X41280392Y-79809608D01*
X41498899Y-79988932D01*
X41748192Y-80122182D01*
X42018691Y-80204236D01*
X42229508Y-80225000D01*
X42370492Y-80225000D01*
X42581309Y-80204236D01*
X42851808Y-80122182D01*
X43101101Y-79988932D01*
X43319608Y-79809608D01*
X43498932Y-79591101D01*
X43535000Y-79523622D01*
X43535001Y-94531562D01*
X43379314Y-94822832D01*
X43280105Y-95149881D01*
X43246606Y-95490000D01*
X43259003Y-95615865D01*
X39976865Y-98898004D01*
X39933551Y-98933551D01*
X39791716Y-99106377D01*
X39696241Y-99285000D01*
X39686324Y-99303554D01*
X39621423Y-99517502D01*
X39599509Y-99740000D01*
X39605000Y-99795752D01*
X39605001Y-102201177D01*
X39506509Y-102266987D01*
X39236987Y-102536509D01*
X39025225Y-102853434D01*
X38879361Y-103205581D01*
X38805000Y-103579419D01*
X38805000Y-103960581D01*
X38879361Y-104334419D01*
X39025225Y-104686566D01*
X39236987Y-105003491D01*
X39506509Y-105273013D01*
X39823434Y-105484775D01*
X40175581Y-105630639D01*
X40549419Y-105705000D01*
X40930581Y-105705000D01*
X41304419Y-105630639D01*
X41656566Y-105484775D01*
X41973491Y-105273013D01*
X42243013Y-105003491D01*
X42454775Y-104686566D01*
X42600639Y-104334419D01*
X42675000Y-103960581D01*
X42675000Y-103579419D01*
X42600639Y-103205581D01*
X42454775Y-102853434D01*
X42243013Y-102536509D01*
X41973491Y-102266987D01*
X41875000Y-102201178D01*
X41875000Y-100210131D01*
X44864135Y-97220997D01*
X44904775Y-97225000D01*
X45075225Y-97225000D01*
X45330119Y-97199895D01*
X45657168Y-97100686D01*
X45958578Y-96939579D01*
X46222766Y-96722766D01*
X46439579Y-96458578D01*
X46600686Y-96157168D01*
X46699895Y-95830119D01*
X46733394Y-95490000D01*
X46699895Y-95149881D01*
X46600686Y-94822832D01*
X46439579Y-94521422D01*
X46222766Y-94257234D01*
X45958578Y-94040421D01*
X45805000Y-93958332D01*
X45805000Y-85720131D01*
X61658009Y-101573141D01*
X61693551Y-101616449D01*
X61866377Y-101758284D01*
X62063553Y-101863676D01*
X62277501Y-101928577D01*
X62444248Y-101945000D01*
X62444257Y-101945000D01*
X62499999Y-101950490D01*
X62555741Y-101945000D01*
X84602050Y-101945000D01*
X84775875Y-102118825D01*
X85051853Y-102303228D01*
X85358504Y-102430246D01*
X85684042Y-102495000D01*
X86015958Y-102495000D01*
X86341496Y-102430246D01*
X86648147Y-102303228D01*
X86924125Y-102118825D01*
X87158825Y-101884125D01*
X87343228Y-101608147D01*
X87470246Y-101301496D01*
X87535000Y-100975958D01*
X87535000Y-100644042D01*
X87470246Y-100318504D01*
X87343228Y-100011853D01*
X87158825Y-99735875D01*
X86924125Y-99501175D01*
X86648147Y-99316772D01*
X86341496Y-99189754D01*
X86015958Y-99125000D01*
X85684042Y-99125000D01*
X85358504Y-99189754D01*
X85051853Y-99316772D01*
X84775875Y-99501175D01*
X84602050Y-99675000D01*
X62970132Y-99675000D01*
X58136198Y-94841066D01*
X84788539Y-94841066D01*
X84890339Y-95110579D01*
X85188477Y-95256463D01*
X85509346Y-95341380D01*
X85840617Y-95362066D01*
X86169557Y-95317728D01*
X86483527Y-95210069D01*
X86669661Y-95110579D01*
X86771461Y-94841066D01*
X85780000Y-93849605D01*
X84788539Y-94841066D01*
X58136198Y-94841066D01*
X57025749Y-93730617D01*
X84087934Y-93730617D01*
X84132272Y-94059557D01*
X84239931Y-94373527D01*
X84339421Y-94559661D01*
X84608934Y-94661461D01*
X85600395Y-93670000D01*
X85959605Y-93670000D01*
X86951066Y-94661461D01*
X87220579Y-94559661D01*
X87366463Y-94261523D01*
X87451380Y-93940654D01*
X87472066Y-93609383D01*
X87427728Y-93280443D01*
X87320069Y-92966473D01*
X87220579Y-92780339D01*
X86951066Y-92678539D01*
X85959605Y-93670000D01*
X85600395Y-93670000D01*
X84608934Y-92678539D01*
X84339421Y-92780339D01*
X84193537Y-93078477D01*
X84108620Y-93399346D01*
X84087934Y-93730617D01*
X57025749Y-93730617D01*
X55794066Y-92498934D01*
X84788539Y-92498934D01*
X85780000Y-93490395D01*
X86771461Y-92498934D01*
X86669661Y-92229421D01*
X86371523Y-92083537D01*
X86050654Y-91998620D01*
X85719383Y-91977934D01*
X85390443Y-92022272D01*
X85076473Y-92129931D01*
X84890339Y-92229421D01*
X84788539Y-92498934D01*
X55794066Y-92498934D01*
X47535000Y-84239869D01*
X47535000Y-80230133D01*
X54238007Y-86933141D01*
X54273549Y-86976449D01*
X54446375Y-87118284D01*
X54643551Y-87223676D01*
X54857499Y-87288577D01*
X55024246Y-87305000D01*
X55024255Y-87305000D01*
X55079997Y-87310490D01*
X55135739Y-87305000D01*
X78873000Y-87305000D01*
X78873000Y-89000000D01*
X78875440Y-89024776D01*
X78882667Y-89048601D01*
X78894403Y-89070557D01*
X78910197Y-89089803D01*
X78929443Y-89105597D01*
X78951399Y-89117333D01*
X78975224Y-89124560D01*
X79000000Y-89127000D01*
X87873000Y-89127000D01*
X87873000Y-111873000D01*
X14127000Y-111873000D01*
X14127000Y-108040715D01*
X15084216Y-108040715D01*
X15147655Y-108606285D01*
X15319739Y-109148761D01*
X15593913Y-109647482D01*
X15959734Y-110083451D01*
X16403268Y-110440062D01*
X16907622Y-110703731D01*
X17453583Y-110864416D01*
X18020358Y-110915997D01*
X18586357Y-110856508D01*
X19130022Y-110688216D01*
X19630645Y-110417530D01*
X20069157Y-110054761D01*
X20428855Y-109613727D01*
X20499392Y-109481066D01*
X84858539Y-109481066D01*
X84960339Y-109750579D01*
X85258477Y-109896463D01*
X85579346Y-109981380D01*
X85910617Y-110002066D01*
X86239557Y-109957728D01*
X86553527Y-109850069D01*
X86739661Y-109750579D01*
X86841461Y-109481066D01*
X85850000Y-108489605D01*
X84858539Y-109481066D01*
X20499392Y-109481066D01*
X20696039Y-109111227D01*
X20860532Y-108566401D01*
X20879728Y-108370617D01*
X84157934Y-108370617D01*
X84202272Y-108699557D01*
X84309931Y-109013527D01*
X84409421Y-109199661D01*
X84678934Y-109301461D01*
X85670395Y-108310000D01*
X86029605Y-108310000D01*
X87021066Y-109301461D01*
X87290579Y-109199661D01*
X87436463Y-108901523D01*
X87521380Y-108580654D01*
X87542066Y-108249383D01*
X87497728Y-107920443D01*
X87390069Y-107606473D01*
X87290579Y-107420339D01*
X87021066Y-107318539D01*
X86029605Y-108310000D01*
X85670395Y-108310000D01*
X84678934Y-107318539D01*
X84409421Y-107420339D01*
X84263537Y-107718477D01*
X84178620Y-108039346D01*
X84157934Y-108370617D01*
X20879728Y-108370617D01*
X20916068Y-108000000D01*
X20914931Y-107918579D01*
X20843602Y-107353950D01*
X20772076Y-107138934D01*
X84858539Y-107138934D01*
X85850000Y-108130395D01*
X86841461Y-107138934D01*
X86739661Y-106869421D01*
X86441523Y-106723537D01*
X86120654Y-106638620D01*
X85789383Y-106617934D01*
X85460443Y-106662272D01*
X85146473Y-106769931D01*
X84960339Y-106869421D01*
X84858539Y-107138934D01*
X20772076Y-107138934D01*
X20663961Y-106813928D01*
X20382850Y-106319084D01*
X20010977Y-105888266D01*
X19562507Y-105537882D01*
X19054522Y-105281280D01*
X18506370Y-105128234D01*
X17938930Y-105084572D01*
X17373817Y-105151957D01*
X16832555Y-105327824D01*
X16335760Y-105605473D01*
X15902356Y-105974329D01*
X15548851Y-106420342D01*
X15288709Y-106926524D01*
X15131839Y-107473594D01*
X15084216Y-108040715D01*
X14127000Y-108040715D01*
X14127000Y-105070000D01*
X33801928Y-105070000D01*
X33814188Y-105194482D01*
X33850498Y-105314180D01*
X33909463Y-105424494D01*
X33988815Y-105521185D01*
X34085506Y-105600537D01*
X34195820Y-105659502D01*
X34315518Y-105695812D01*
X34440000Y-105708072D01*
X35454250Y-105705000D01*
X35613000Y-105546250D01*
X35613000Y-103897000D01*
X35867000Y-103897000D01*
X35867000Y-105546250D01*
X36025750Y-105705000D01*
X37040000Y-105708072D01*
X37164482Y-105695812D01*
X37284180Y-105659502D01*
X37394494Y-105600537D01*
X37491185Y-105521185D01*
X37570537Y-105424494D01*
X37629502Y-105314180D01*
X37665812Y-105194482D01*
X37678072Y-105070000D01*
X37675000Y-104055750D01*
X37516250Y-103897000D01*
X35867000Y-103897000D01*
X35613000Y-103897000D01*
X33963750Y-103897000D01*
X33805000Y-104055750D01*
X33801928Y-105070000D01*
X14127000Y-105070000D01*
X14127000Y-86029419D01*
X16355000Y-86029419D01*
X16355000Y-86410581D01*
X16429361Y-86784419D01*
X16575225Y-87136566D01*
X16786987Y-87453491D01*
X17056509Y-87723013D01*
X17373434Y-87934775D01*
X17725581Y-88080639D01*
X18099419Y-88155000D01*
X18480581Y-88155000D01*
X18854419Y-88080639D01*
X19206566Y-87934775D01*
X19523491Y-87723013D01*
X19793013Y-87453491D01*
X20004775Y-87136566D01*
X20150639Y-86784419D01*
X20225000Y-86410581D01*
X20225000Y-86029419D01*
X20150639Y-85655581D01*
X20004775Y-85303434D01*
X19793013Y-84986509D01*
X19523491Y-84716987D01*
X19206566Y-84505225D01*
X18854419Y-84359361D01*
X18480581Y-84285000D01*
X18099419Y-84285000D01*
X17725581Y-84359361D01*
X17373434Y-84505225D01*
X17056509Y-84716987D01*
X16786987Y-84986509D01*
X16575225Y-85303434D01*
X16429361Y-85655581D01*
X16355000Y-86029419D01*
X14127000Y-86029419D01*
X14127000Y-66029419D01*
X16355000Y-66029419D01*
X16355000Y-66410581D01*
X16429361Y-66784419D01*
X16575225Y-67136566D01*
X16786987Y-67453491D01*
X17056509Y-67723013D01*
X17373434Y-67934775D01*
X17725581Y-68080639D01*
X18099419Y-68155000D01*
X18480581Y-68155000D01*
X18854419Y-68080639D01*
X19206566Y-67934775D01*
X19523491Y-67723013D01*
X19793013Y-67453491D01*
X20004775Y-67136566D01*
X20150639Y-66784419D01*
X20225000Y-66410581D01*
X20225000Y-66029419D01*
X20150639Y-65655581D01*
X20004775Y-65303434D01*
X19793013Y-64986509D01*
X19523491Y-64716987D01*
X19206566Y-64505225D01*
X18854419Y-64359361D01*
X18480581Y-64285000D01*
X18099419Y-64285000D01*
X17725581Y-64359361D01*
X17373434Y-64505225D01*
X17056509Y-64716987D01*
X16786987Y-64986509D01*
X16575225Y-65303434D01*
X16429361Y-65655581D01*
X16355000Y-66029419D01*
X14127000Y-66029419D01*
X14127000Y-56029419D01*
X16355000Y-56029419D01*
X16355000Y-56410581D01*
X16429361Y-56784419D01*
X16575225Y-57136566D01*
X16786987Y-57453491D01*
X17056509Y-57723013D01*
X17373434Y-57934775D01*
X17725581Y-58080639D01*
X18099419Y-58155000D01*
X18480581Y-58155000D01*
X18854419Y-58080639D01*
X19206566Y-57934775D01*
X19523491Y-57723013D01*
X19793013Y-57453491D01*
X20004775Y-57136566D01*
X20150639Y-56784419D01*
X20225000Y-56410581D01*
X20225000Y-56029419D01*
X20150639Y-55655581D01*
X20004775Y-55303434D01*
X19793013Y-54986509D01*
X19523491Y-54716987D01*
X19206566Y-54505225D01*
X18854419Y-54359361D01*
X18480581Y-54285000D01*
X18099419Y-54285000D01*
X17725581Y-54359361D01*
X17373434Y-54505225D01*
X17056509Y-54716987D01*
X16786987Y-54986509D01*
X16575225Y-55303434D01*
X16429361Y-55655581D01*
X16355000Y-56029419D01*
X14127000Y-56029419D01*
X14127000Y-44920000D01*
X16351928Y-44920000D01*
X16351928Y-47520000D01*
X16364188Y-47644482D01*
X16400498Y-47764180D01*
X16459463Y-47874494D01*
X16538815Y-47971185D01*
X16635506Y-48050537D01*
X16745820Y-48109502D01*
X16865518Y-48145812D01*
X16990000Y-48158072D01*
X19590000Y-48158072D01*
X19714482Y-48145812D01*
X19834180Y-48109502D01*
X19944494Y-48050537D01*
X20041185Y-47971185D01*
X20120537Y-47874494D01*
X20179502Y-47764180D01*
X20215812Y-47644482D01*
X20228072Y-47520000D01*
X20228072Y-44920000D01*
X20215812Y-44795518D01*
X20179502Y-44675820D01*
X20120537Y-44565506D01*
X20041185Y-44468815D01*
X19944494Y-44389463D01*
X19834180Y-44330498D01*
X19714482Y-44294188D01*
X19590000Y-44281928D01*
X16990000Y-44281928D01*
X16865518Y-44294188D01*
X16745820Y-44330498D01*
X16635506Y-44389463D01*
X16538815Y-44468815D01*
X16459463Y-44565506D01*
X16400498Y-44675820D01*
X16364188Y-44795518D01*
X16351928Y-44920000D01*
X14127000Y-44920000D01*
X14127000Y-25010000D01*
X15027089Y-25010000D01*
X15035000Y-25090320D01*
X15035001Y-28090322D01*
X15058658Y-28330516D01*
X15079428Y-28398986D01*
X15079428Y-29010000D01*
X15091688Y-29134482D01*
X15127998Y-29254180D01*
X15186963Y-29364494D01*
X15266315Y-29461185D01*
X15363006Y-29540537D01*
X15473320Y-29599502D01*
X15593018Y-29635812D01*
X15717500Y-29648072D01*
X16620869Y-29648072D01*
X16670000Y-29652911D01*
X16719131Y-29648072D01*
X17622500Y-29648072D01*
X17746982Y-29635812D01*
X17866680Y-29599502D01*
X17976994Y-29540537D01*
X18073685Y-29461185D01*
X18153037Y-29364494D01*
X18197905Y-29280553D01*
X18323766Y-29383845D01*
X18599552Y-29531255D01*
X18898797Y-29622030D01*
X19210000Y-29652681D01*
X19521204Y-29622030D01*
X19820449Y-29531255D01*
X20096235Y-29383845D01*
X20337963Y-29185463D01*
X20480000Y-29012391D01*
X20622037Y-29185463D01*
X20863766Y-29383845D01*
X21139552Y-29531255D01*
X21438797Y-29622030D01*
X21750000Y-29652681D01*
X22061204Y-29622030D01*
X22360449Y-29531255D01*
X22636235Y-29383845D01*
X22877963Y-29185463D01*
X22911170Y-29145000D01*
X24009869Y-29145000D01*
X27157774Y-32292906D01*
X27145506Y-32299463D01*
X27048815Y-32378815D01*
X27035210Y-32395393D01*
X26979727Y-32358320D01*
X26718574Y-32250147D01*
X26441335Y-32195000D01*
X26158665Y-32195000D01*
X25881426Y-32250147D01*
X25620273Y-32358320D01*
X25385241Y-32515363D01*
X25185363Y-32715241D01*
X25028320Y-32950273D01*
X24920147Y-33211426D01*
X24865000Y-33488665D01*
X24865000Y-33771335D01*
X24920147Y-34048574D01*
X25028320Y-34309727D01*
X25185363Y-34544759D01*
X25385241Y-34744637D01*
X25620273Y-34901680D01*
X25881426Y-35009853D01*
X26158665Y-35065000D01*
X26441335Y-35065000D01*
X26718574Y-35009853D01*
X26979727Y-34901680D01*
X27035210Y-34864607D01*
X27048815Y-34881185D01*
X27145506Y-34960537D01*
X27165000Y-34970957D01*
X27165001Y-38944498D01*
X27098815Y-38998815D01*
X27085210Y-39015393D01*
X27029727Y-38978320D01*
X26768574Y-38870147D01*
X26491335Y-38815000D01*
X26208665Y-38815000D01*
X25931426Y-38870147D01*
X25670273Y-38978320D01*
X25435241Y-39135363D01*
X25235363Y-39335241D01*
X25078320Y-39570273D01*
X24970147Y-39831426D01*
X24915000Y-40108665D01*
X24915000Y-40391335D01*
X24970147Y-40668574D01*
X25078320Y-40929727D01*
X25235363Y-41164759D01*
X25435241Y-41364637D01*
X25670273Y-41521680D01*
X25931426Y-41629853D01*
X26208665Y-41685000D01*
X26491335Y-41685000D01*
X26768574Y-41629853D01*
X27029727Y-41521680D01*
X27085210Y-41484607D01*
X27098815Y-41501185D01*
X27195506Y-41580537D01*
X27215000Y-41590957D01*
X27215001Y-43159867D01*
X26806864Y-43568005D01*
X26763551Y-43603551D01*
X26621716Y-43776377D01*
X26542984Y-43923676D01*
X26516324Y-43973554D01*
X26451423Y-44187502D01*
X26429509Y-44410000D01*
X26435000Y-44465752D01*
X26435001Y-48840997D01*
X26371068Y-48918899D01*
X26237818Y-49168192D01*
X26155764Y-49438691D01*
X26128057Y-49720000D01*
X26155764Y-50001309D01*
X26237818Y-50271808D01*
X26371068Y-50521101D01*
X26435000Y-50599003D01*
X26435001Y-52064239D01*
X26429509Y-52120000D01*
X26451423Y-52342498D01*
X26516324Y-52556446D01*
X26549008Y-52617593D01*
X26621717Y-52753623D01*
X26763552Y-52926449D01*
X26806860Y-52961991D01*
X30015000Y-56170133D01*
X30015000Y-57572749D01*
X29891101Y-57471068D01*
X29641808Y-57337818D01*
X29371309Y-57255764D01*
X29160492Y-57235000D01*
X29019508Y-57235000D01*
X28916704Y-57245125D01*
X24635000Y-52963422D01*
X24635000Y-42063466D01*
X24639281Y-42019999D01*
X24635000Y-41976533D01*
X24635000Y-41976523D01*
X24622195Y-41846510D01*
X24571589Y-41679687D01*
X24489411Y-41525941D01*
X24433663Y-41458012D01*
X24406532Y-41424953D01*
X24406530Y-41424951D01*
X24378817Y-41391183D01*
X24345051Y-41363472D01*
X19671612Y-36690034D01*
X19714482Y-36685812D01*
X19834180Y-36649502D01*
X19944494Y-36590537D01*
X20041185Y-36511185D01*
X20120537Y-36414494D01*
X20179502Y-36304180D01*
X20215812Y-36184482D01*
X20228072Y-36060000D01*
X20228072Y-33460000D01*
X20215812Y-33335518D01*
X20179502Y-33215820D01*
X20120537Y-33105506D01*
X20041185Y-33008815D01*
X19944494Y-32929463D01*
X19834180Y-32870498D01*
X19714482Y-32834188D01*
X19590000Y-32821928D01*
X16990000Y-32821928D01*
X16865518Y-32834188D01*
X16745820Y-32870498D01*
X16635506Y-32929463D01*
X16538815Y-33008815D01*
X16459463Y-33105506D01*
X16400498Y-33215820D01*
X16364188Y-33335518D01*
X16351928Y-33460000D01*
X16351928Y-36060000D01*
X16364188Y-36184482D01*
X16400498Y-36304180D01*
X16459463Y-36414494D01*
X16538815Y-36511185D01*
X16635506Y-36590537D01*
X16745820Y-36649502D01*
X16865518Y-36685812D01*
X16990000Y-36698072D01*
X17414317Y-36698072D01*
X17417805Y-36733490D01*
X17468412Y-36900313D01*
X17550590Y-37054059D01*
X17633468Y-37155046D01*
X17633471Y-37155049D01*
X17661184Y-37188817D01*
X17694952Y-37216530D01*
X18303422Y-37825000D01*
X18099419Y-37825000D01*
X17725581Y-37899361D01*
X17373434Y-38045225D01*
X17056509Y-38256987D01*
X16786987Y-38526509D01*
X16575225Y-38843434D01*
X16429361Y-39195581D01*
X16355000Y-39569419D01*
X16355000Y-39950581D01*
X16429361Y-40324419D01*
X16575225Y-40676566D01*
X16786987Y-40993491D01*
X17056509Y-41263013D01*
X17373434Y-41474775D01*
X17725581Y-41620639D01*
X18099419Y-41695000D01*
X18480581Y-41695000D01*
X18854419Y-41620639D01*
X19206566Y-41474775D01*
X19523491Y-41263013D01*
X19793013Y-40993491D01*
X20004775Y-40676566D01*
X20150639Y-40324419D01*
X20225000Y-39950581D01*
X20225000Y-39746578D01*
X22865000Y-42386579D01*
X22865001Y-53286521D01*
X22860719Y-53330000D01*
X22877805Y-53503490D01*
X22928412Y-53670313D01*
X23010590Y-53824059D01*
X23093468Y-53925046D01*
X23093471Y-53925049D01*
X23121184Y-53958817D01*
X23154952Y-53986530D01*
X27665125Y-58496704D01*
X27648057Y-58670000D01*
X27675764Y-58951309D01*
X27757818Y-59221808D01*
X27891068Y-59471101D01*
X28070392Y-59689608D01*
X28288899Y-59868932D01*
X28421858Y-59940000D01*
X28317408Y-59995829D01*
X20137564Y-51815986D01*
X20150639Y-51784419D01*
X20225000Y-51410581D01*
X20225000Y-51029419D01*
X20150639Y-50655581D01*
X20004775Y-50303434D01*
X19793013Y-49986509D01*
X19523491Y-49716987D01*
X19206566Y-49505225D01*
X18854419Y-49359361D01*
X18480581Y-49285000D01*
X18099419Y-49285000D01*
X17725581Y-49359361D01*
X17373434Y-49505225D01*
X17056509Y-49716987D01*
X16786987Y-49986509D01*
X16575225Y-50303434D01*
X16429361Y-50655581D01*
X16355000Y-51029419D01*
X16355000Y-51410581D01*
X16429361Y-51784419D01*
X16575225Y-52136566D01*
X16786987Y-52453491D01*
X17056509Y-52723013D01*
X17373434Y-52934775D01*
X17725581Y-53080639D01*
X18099419Y-53155000D01*
X18480581Y-53155000D01*
X18854419Y-53080639D01*
X18885986Y-53067564D01*
X27623470Y-61805049D01*
X27651183Y-61838817D01*
X27684951Y-61866530D01*
X27684953Y-61866532D01*
X27756452Y-61925210D01*
X27785941Y-61949411D01*
X27886953Y-62003402D01*
X27891068Y-62011101D01*
X28070392Y-62229608D01*
X28288899Y-62408932D01*
X28421858Y-62480000D01*
X28288899Y-62551068D01*
X28070392Y-62730392D01*
X27959922Y-62865000D01*
X21186579Y-62865000D01*
X20137564Y-61815985D01*
X20150639Y-61784419D01*
X20225000Y-61410581D01*
X20225000Y-61029419D01*
X20150639Y-60655581D01*
X20004775Y-60303434D01*
X19793013Y-59986509D01*
X19523491Y-59716987D01*
X19206566Y-59505225D01*
X18854419Y-59359361D01*
X18480581Y-59285000D01*
X18099419Y-59285000D01*
X17725581Y-59359361D01*
X17373434Y-59505225D01*
X17056509Y-59716987D01*
X16786987Y-59986509D01*
X16575225Y-60303434D01*
X16429361Y-60655581D01*
X16355000Y-61029419D01*
X16355000Y-61410581D01*
X16429361Y-61784419D01*
X16575225Y-62136566D01*
X16786987Y-62453491D01*
X17056509Y-62723013D01*
X17373434Y-62934775D01*
X17725581Y-63080639D01*
X18099419Y-63155000D01*
X18480581Y-63155000D01*
X18854419Y-63080639D01*
X18885985Y-63067564D01*
X20163470Y-64345049D01*
X20191183Y-64378817D01*
X20224951Y-64406530D01*
X20224953Y-64406532D01*
X20296452Y-64465210D01*
X20325941Y-64489411D01*
X20479687Y-64571589D01*
X20646510Y-64622195D01*
X20776523Y-64635000D01*
X20776533Y-64635000D01*
X20819999Y-64639281D01*
X20863465Y-64635000D01*
X27959922Y-64635000D01*
X28070392Y-64769608D01*
X28288899Y-64948932D01*
X28421858Y-65020000D01*
X28288899Y-65091068D01*
X28070392Y-65270392D01*
X27959922Y-65405000D01*
X23263469Y-65405000D01*
X23220000Y-65400719D01*
X23176531Y-65405000D01*
X23176523Y-65405000D01*
X23046510Y-65417805D01*
X22879687Y-65468411D01*
X22725941Y-65550589D01*
X22624953Y-65633468D01*
X22624951Y-65633470D01*
X22591183Y-65661183D01*
X22563470Y-65694951D01*
X18885985Y-69372436D01*
X18854419Y-69359361D01*
X18480581Y-69285000D01*
X18099419Y-69285000D01*
X17725581Y-69359361D01*
X17373434Y-69505225D01*
X17056509Y-69716987D01*
X16786987Y-69986509D01*
X16575225Y-70303434D01*
X16429361Y-70655581D01*
X16355000Y-71029419D01*
X16355000Y-71410581D01*
X16429361Y-71784419D01*
X16575225Y-72136566D01*
X16786987Y-72453491D01*
X17056509Y-72723013D01*
X17373434Y-72934775D01*
X17725581Y-73080639D01*
X18099419Y-73155000D01*
X18480581Y-73155000D01*
X18854419Y-73080639D01*
X19206566Y-72934775D01*
X19523491Y-72723013D01*
X19793013Y-72453491D01*
X20004775Y-72136566D01*
X20150639Y-71784419D01*
X20225000Y-71410581D01*
X20225000Y-71029419D01*
X20150639Y-70655581D01*
X20137564Y-70624015D01*
X23586579Y-67175000D01*
X27959922Y-67175000D01*
X28070392Y-67309608D01*
X28288899Y-67488932D01*
X28421858Y-67560000D01*
X28288899Y-67631068D01*
X28070392Y-67810392D01*
X27959922Y-67945000D01*
X25723465Y-67945000D01*
X25679999Y-67940719D01*
X25636533Y-67945000D01*
X25636523Y-67945000D01*
X25506510Y-67957805D01*
X25339687Y-68008411D01*
X25185941Y-68090589D01*
X25156452Y-68114790D01*
X25084953Y-68173468D01*
X25084951Y-68173470D01*
X25051183Y-68201183D01*
X25023470Y-68234951D01*
X18885986Y-74372436D01*
X18854419Y-74359361D01*
X18480581Y-74285000D01*
X18099419Y-74285000D01*
X17725581Y-74359361D01*
X17373434Y-74505225D01*
X17056509Y-74716987D01*
X16786987Y-74986509D01*
X16575225Y-75303434D01*
X16429361Y-75655581D01*
X16355000Y-76029419D01*
X16355000Y-76410581D01*
X16429361Y-76784419D01*
X16575225Y-77136566D01*
X16786987Y-77453491D01*
X17056509Y-77723013D01*
X17373434Y-77934775D01*
X17725581Y-78080639D01*
X18099419Y-78155000D01*
X18480581Y-78155000D01*
X18854419Y-78080639D01*
X19206566Y-77934775D01*
X19523491Y-77723013D01*
X19793013Y-77453491D01*
X20004775Y-77136566D01*
X20150639Y-76784419D01*
X20225000Y-76410581D01*
X20225000Y-76029419D01*
X20150639Y-75655581D01*
X20137564Y-75624014D01*
X26046579Y-69715000D01*
X27959922Y-69715000D01*
X28070392Y-69849608D01*
X28288899Y-70028932D01*
X28421858Y-70100000D01*
X28288899Y-70171068D01*
X28070392Y-70350392D01*
X27943746Y-70504710D01*
X27799686Y-70548411D01*
X27645941Y-70630589D01*
X27544953Y-70713468D01*
X27544951Y-70713470D01*
X27511183Y-70741183D01*
X27483470Y-70774951D01*
X18885986Y-79372436D01*
X18854419Y-79359361D01*
X18480581Y-79285000D01*
X18099419Y-79285000D01*
X17725581Y-79359361D01*
X17373434Y-79505225D01*
X17056509Y-79716987D01*
X16786987Y-79986509D01*
X16575225Y-80303434D01*
X16429361Y-80655581D01*
X16355000Y-81029419D01*
X16355000Y-81410581D01*
X16429361Y-81784419D01*
X16575225Y-82136566D01*
X16786987Y-82453491D01*
X17056509Y-82723013D01*
X17373434Y-82934775D01*
X17725581Y-83080639D01*
X18099419Y-83155000D01*
X18480581Y-83155000D01*
X18854419Y-83080639D01*
X19206566Y-82934775D01*
X19523491Y-82723013D01*
X19793013Y-82453491D01*
X20004775Y-82136566D01*
X20150639Y-81784419D01*
X20225000Y-81410581D01*
X20225000Y-81029419D01*
X20150639Y-80655581D01*
X20137564Y-80624014D01*
X28236033Y-72525546D01*
X28288899Y-72568932D01*
X28421858Y-72640000D01*
X28288899Y-72711068D01*
X28070392Y-72890392D01*
X27891068Y-73108899D01*
X27757818Y-73358192D01*
X27675764Y-73628691D01*
X27648057Y-73910000D01*
X27665125Y-74083296D01*
X21724952Y-80023470D01*
X21691184Y-80051183D01*
X21663471Y-80084951D01*
X21663468Y-80084954D01*
X21580590Y-80185941D01*
X21498412Y-80339687D01*
X21447805Y-80506510D01*
X21430719Y-80680000D01*
X21435001Y-80723479D01*
X21435000Y-86823421D01*
X18885985Y-89372436D01*
X18854419Y-89359361D01*
X18480581Y-89285000D01*
X18099419Y-89285000D01*
X17725581Y-89359361D01*
X17373434Y-89505225D01*
X17056509Y-89716987D01*
X16786987Y-89986509D01*
X16575225Y-90303434D01*
X16429361Y-90655581D01*
X16355000Y-91029419D01*
X16355000Y-91410581D01*
X16429361Y-91784419D01*
X16575225Y-92136566D01*
X16786987Y-92453491D01*
X17056509Y-92723013D01*
X17373434Y-92934775D01*
X17725581Y-93080639D01*
X18099419Y-93155000D01*
X18480581Y-93155000D01*
X18854419Y-93080639D01*
X19206566Y-92934775D01*
X19523491Y-92723013D01*
X19793013Y-92453491D01*
X20004775Y-92136566D01*
X20150639Y-91784419D01*
X20225000Y-91410581D01*
X20225000Y-91029419D01*
X20150639Y-90655581D01*
X20137564Y-90624015D01*
X22565000Y-88196579D01*
X22565000Y-90693421D01*
X18885985Y-94372436D01*
X18854419Y-94359361D01*
X18480581Y-94285000D01*
X18099419Y-94285000D01*
X17725581Y-94359361D01*
X17373434Y-94505225D01*
X17056509Y-94716987D01*
X16786987Y-94986509D01*
X16575225Y-95303434D01*
X16429361Y-95655581D01*
X16355000Y-96029419D01*
X16355000Y-96410581D01*
X16429361Y-96784419D01*
X16575225Y-97136566D01*
X16786987Y-97453491D01*
X17056509Y-97723013D01*
X17373434Y-97934775D01*
X17725581Y-98080639D01*
X18099419Y-98155000D01*
X18480581Y-98155000D01*
X18854419Y-98080639D01*
X19206566Y-97934775D01*
X19523491Y-97723013D01*
X19793013Y-97453491D01*
X20004775Y-97136566D01*
X20150639Y-96784419D01*
X20225000Y-96410581D01*
X20225000Y-96029419D01*
X20150639Y-95655581D01*
X20137564Y-95624015D01*
X23765000Y-91996579D01*
X23765000Y-94493421D01*
X18885986Y-99372436D01*
X18854419Y-99359361D01*
X18480581Y-99285000D01*
X18099419Y-99285000D01*
X17725581Y-99359361D01*
X17373434Y-99505225D01*
X17056509Y-99716987D01*
X16786987Y-99986509D01*
X16575225Y-100303434D01*
X16429361Y-100655581D01*
X16355000Y-101029419D01*
X16355000Y-101410581D01*
X16429361Y-101784419D01*
X16575225Y-102136566D01*
X16786987Y-102453491D01*
X17056509Y-102723013D01*
X17373434Y-102934775D01*
X17725581Y-103080639D01*
X18099419Y-103155000D01*
X18480581Y-103155000D01*
X18854419Y-103080639D01*
X19206566Y-102934775D01*
X19523491Y-102723013D01*
X19776504Y-102470000D01*
X33801928Y-102470000D01*
X33805000Y-103484250D01*
X33963750Y-103643000D01*
X35613000Y-103643000D01*
X35613000Y-101993750D01*
X35867000Y-101993750D01*
X35867000Y-103643000D01*
X37516250Y-103643000D01*
X37675000Y-103484250D01*
X37678072Y-102470000D01*
X37665812Y-102345518D01*
X37629502Y-102225820D01*
X37570537Y-102115506D01*
X37491185Y-102018815D01*
X37394494Y-101939463D01*
X37284180Y-101880498D01*
X37164482Y-101844188D01*
X37040000Y-101831928D01*
X36025750Y-101835000D01*
X35867000Y-101993750D01*
X35613000Y-101993750D01*
X35454250Y-101835000D01*
X34440000Y-101831928D01*
X34315518Y-101844188D01*
X34195820Y-101880498D01*
X34085506Y-101939463D01*
X33988815Y-102018815D01*
X33909463Y-102115506D01*
X33850498Y-102225820D01*
X33814188Y-102345518D01*
X33801928Y-102470000D01*
X19776504Y-102470000D01*
X19793013Y-102453491D01*
X20004775Y-102136566D01*
X20150639Y-101784419D01*
X20225000Y-101410581D01*
X20225000Y-101029419D01*
X20150639Y-100655581D01*
X20137564Y-100624014D01*
X24171578Y-96590000D01*
X30551928Y-96590000D01*
X30564188Y-96714482D01*
X30600498Y-96834180D01*
X30659463Y-96944494D01*
X30738815Y-97041185D01*
X30835506Y-97120537D01*
X30945820Y-97179502D01*
X31065518Y-97215812D01*
X31190000Y-97228072D01*
X32004250Y-97225000D01*
X32163000Y-97066250D01*
X32163000Y-95617000D01*
X32417000Y-95617000D01*
X32417000Y-97066250D01*
X32575750Y-97225000D01*
X33390000Y-97228072D01*
X33514482Y-97215812D01*
X33634180Y-97179502D01*
X33744494Y-97120537D01*
X33841185Y-97041185D01*
X33920537Y-96944494D01*
X33979502Y-96834180D01*
X34015812Y-96714482D01*
X34028072Y-96590000D01*
X34025000Y-95775750D01*
X33866250Y-95617000D01*
X32417000Y-95617000D01*
X32163000Y-95617000D01*
X30713750Y-95617000D01*
X30555000Y-95775750D01*
X30551928Y-96590000D01*
X24171578Y-96590000D01*
X25245051Y-95516528D01*
X25278817Y-95488817D01*
X25389411Y-95354059D01*
X25471589Y-95200313D01*
X25522195Y-95033490D01*
X25535000Y-94903477D01*
X25535000Y-94903467D01*
X25539281Y-94860001D01*
X25535000Y-94816535D01*
X25535000Y-94390000D01*
X30551928Y-94390000D01*
X30555000Y-95204250D01*
X30713750Y-95363000D01*
X32163000Y-95363000D01*
X32163000Y-93913750D01*
X32417000Y-93913750D01*
X32417000Y-95363000D01*
X33866250Y-95363000D01*
X34025000Y-95204250D01*
X34028072Y-94390000D01*
X34015812Y-94265518D01*
X33979502Y-94145820D01*
X33920537Y-94035506D01*
X33841185Y-93938815D01*
X33744494Y-93859463D01*
X33634180Y-93800498D01*
X33514482Y-93764188D01*
X33390000Y-93751928D01*
X32575750Y-93755000D01*
X32417000Y-93913750D01*
X32163000Y-93913750D01*
X32004250Y-93755000D01*
X31190000Y-93751928D01*
X31065518Y-93764188D01*
X30945820Y-93800498D01*
X30835506Y-93859463D01*
X30738815Y-93938815D01*
X30659463Y-94035506D01*
X30600498Y-94145820D01*
X30564188Y-94265518D01*
X30551928Y-94390000D01*
X25535000Y-94390000D01*
X25535000Y-83796578D01*
X27661822Y-81669757D01*
X27675764Y-81811309D01*
X27757818Y-82081808D01*
X27891068Y-82331101D01*
X28070392Y-82549608D01*
X28288899Y-82728932D01*
X28538192Y-82862182D01*
X28808691Y-82944236D01*
X29019508Y-82965000D01*
X29160492Y-82965000D01*
X29371309Y-82944236D01*
X29641808Y-82862182D01*
X29891101Y-82728932D01*
X30109608Y-82549608D01*
X30288932Y-82331101D01*
X30422182Y-82081808D01*
X30504236Y-81811309D01*
X30514114Y-81711018D01*
X30731987Y-81493145D01*
X30731991Y-81493140D01*
X31913146Y-80311987D01*
X31956449Y-80276449D01*
X31998673Y-80225000D01*
X32098284Y-80103623D01*
X32203676Y-79906447D01*
X32268577Y-79692499D01*
X32290491Y-79470000D01*
X32285000Y-79414248D01*
X32285000Y-55755752D01*
X32290491Y-55700000D01*
X32268577Y-55477501D01*
X32203676Y-55263553D01*
X32098284Y-55066377D01*
X31991989Y-54936856D01*
X31991987Y-54936854D01*
X31956449Y-54893551D01*
X31913146Y-54858013D01*
X28705000Y-51649869D01*
X28705000Y-50599002D01*
X28768932Y-50521101D01*
X28902182Y-50271808D01*
X28984236Y-50001309D01*
X29011943Y-49720000D01*
X28998023Y-49578665D01*
X38835000Y-49578665D01*
X38835000Y-49861335D01*
X38890147Y-50138574D01*
X38998320Y-50399727D01*
X39155363Y-50634759D01*
X39355241Y-50834637D01*
X39590273Y-50991680D01*
X39851426Y-51099853D01*
X40128665Y-51155000D01*
X40411335Y-51155000D01*
X40688574Y-51099853D01*
X40949727Y-50991680D01*
X41184759Y-50834637D01*
X41384637Y-50634759D01*
X41541680Y-50399727D01*
X41649853Y-50138574D01*
X41705000Y-49861335D01*
X41705000Y-49578665D01*
X41698017Y-49543561D01*
X42136579Y-49105000D01*
X44885210Y-49105000D01*
X44947688Y-49198505D01*
X45014127Y-49264944D01*
X44995820Y-49270498D01*
X44885506Y-49329463D01*
X44788815Y-49408815D01*
X44709463Y-49505506D01*
X44650498Y-49615820D01*
X44614188Y-49735518D01*
X44601928Y-49860000D01*
X44601928Y-51660000D01*
X44614188Y-51784482D01*
X44650498Y-51904180D01*
X44709463Y-52014494D01*
X44788815Y-52111185D01*
X44885506Y-52190537D01*
X44995820Y-52249502D01*
X45115518Y-52285812D01*
X45240000Y-52298072D01*
X47040000Y-52298072D01*
X47164482Y-52285812D01*
X47284180Y-52249502D01*
X47394494Y-52190537D01*
X47491185Y-52111185D01*
X47570537Y-52014494D01*
X47629502Y-51904180D01*
X47665812Y-51784482D01*
X47678072Y-51660000D01*
X47678072Y-49860000D01*
X47665812Y-49735518D01*
X47629502Y-49615820D01*
X47570537Y-49505506D01*
X47491185Y-49408815D01*
X47394494Y-49329463D01*
X47284180Y-49270498D01*
X47265873Y-49264944D01*
X47332312Y-49198505D01*
X47500299Y-48947095D01*
X47616011Y-48667743D01*
X47627496Y-48610000D01*
X50611928Y-48610000D01*
X50611928Y-50410000D01*
X50624188Y-50534482D01*
X50660498Y-50654180D01*
X50719463Y-50764494D01*
X50798815Y-50861185D01*
X50895506Y-50940537D01*
X51005820Y-50999502D01*
X51125518Y-51035812D01*
X51250000Y-51048072D01*
X53050000Y-51048072D01*
X53174482Y-51035812D01*
X53294180Y-50999502D01*
X53404494Y-50940537D01*
X53501185Y-50861185D01*
X53580537Y-50764494D01*
X53639502Y-50654180D01*
X53645056Y-50635873D01*
X53711495Y-50702312D01*
X53962905Y-50870299D01*
X54242257Y-50986011D01*
X54538816Y-51045000D01*
X54841184Y-51045000D01*
X55137743Y-50986011D01*
X55417095Y-50870299D01*
X55668505Y-50702312D01*
X55882312Y-50488505D01*
X56050299Y-50237095D01*
X56166011Y-49957743D01*
X56225000Y-49661184D01*
X56225000Y-49358816D01*
X56166011Y-49062257D01*
X56050299Y-48782905D01*
X55882312Y-48531495D01*
X55825000Y-48474183D01*
X55825000Y-42925752D01*
X55830491Y-42870000D01*
X55808577Y-42647501D01*
X55743676Y-42433553D01*
X55638284Y-42236377D01*
X55603087Y-42193490D01*
X55496449Y-42063551D01*
X55453140Y-42028009D01*
X54437850Y-41012718D01*
X54389853Y-40771426D01*
X54281680Y-40510273D01*
X54124637Y-40275241D01*
X53924759Y-40075363D01*
X53689727Y-39918320D01*
X53428574Y-39810147D01*
X53151335Y-39755000D01*
X52868665Y-39755000D01*
X52591426Y-39810147D01*
X52330273Y-39918320D01*
X52095241Y-40075363D01*
X51895363Y-40275241D01*
X51738320Y-40510273D01*
X51630147Y-40771426D01*
X51575000Y-41048665D01*
X51575000Y-41331335D01*
X51630147Y-41608574D01*
X51738320Y-41869727D01*
X51895363Y-42104759D01*
X52095241Y-42304637D01*
X52330273Y-42461680D01*
X52591426Y-42569853D01*
X52832718Y-42617850D01*
X53555000Y-43340132D01*
X53555001Y-48224390D01*
X53501185Y-48158815D01*
X53404494Y-48079463D01*
X53294180Y-48020498D01*
X53174482Y-47984188D01*
X53050000Y-47971928D01*
X51250000Y-47971928D01*
X51125518Y-47984188D01*
X51005820Y-48020498D01*
X50895506Y-48079463D01*
X50798815Y-48158815D01*
X50719463Y-48255506D01*
X50660498Y-48365820D01*
X50624188Y-48485518D01*
X50611928Y-48610000D01*
X47627496Y-48610000D01*
X47675000Y-48371184D01*
X47675000Y-48068816D01*
X47616011Y-47772257D01*
X47500299Y-47492905D01*
X47332312Y-47241495D01*
X47118505Y-47027688D01*
X46867095Y-46859701D01*
X46587743Y-46743989D01*
X46291184Y-46685000D01*
X45988816Y-46685000D01*
X45692257Y-46743989D01*
X45412905Y-46859701D01*
X45161495Y-47027688D01*
X44947688Y-47241495D01*
X44885210Y-47335000D01*
X41813465Y-47335000D01*
X41769999Y-47330719D01*
X41726533Y-47335000D01*
X41726523Y-47335000D01*
X41596510Y-47347805D01*
X41429687Y-47398411D01*
X41275941Y-47480589D01*
X41275939Y-47480590D01*
X41275940Y-47480590D01*
X41174953Y-47563468D01*
X41174951Y-47563470D01*
X41141183Y-47591183D01*
X41113470Y-47624951D01*
X40446439Y-48291983D01*
X40411335Y-48285000D01*
X40128665Y-48285000D01*
X39851426Y-48340147D01*
X39590273Y-48448320D01*
X39355241Y-48605363D01*
X39155363Y-48805241D01*
X38998320Y-49040273D01*
X38890147Y-49301426D01*
X38835000Y-49578665D01*
X28998023Y-49578665D01*
X28984236Y-49438691D01*
X28902182Y-49168192D01*
X28768932Y-48918899D01*
X28705000Y-48840998D01*
X28705000Y-44880132D01*
X29113145Y-44471988D01*
X29156449Y-44436449D01*
X29298284Y-44263623D01*
X29403676Y-44066447D01*
X29468577Y-43852499D01*
X29485000Y-43685752D01*
X29490491Y-43630000D01*
X29485000Y-43574248D01*
X29485000Y-41590957D01*
X29504494Y-41580537D01*
X29555059Y-41539039D01*
X38918096Y-41539039D01*
X38958754Y-41673087D01*
X39078963Y-41927420D01*
X39246481Y-42153414D01*
X39454869Y-42342385D01*
X39696119Y-42487070D01*
X39960960Y-42581909D01*
X40183000Y-42460624D01*
X40183000Y-41317000D01*
X40437000Y-41317000D01*
X40437000Y-42460624D01*
X40659040Y-42581909D01*
X40923881Y-42487070D01*
X41165131Y-42342385D01*
X41373519Y-42153414D01*
X41541037Y-41927420D01*
X41661246Y-41673087D01*
X41701904Y-41539039D01*
X41579915Y-41317000D01*
X40437000Y-41317000D01*
X40183000Y-41317000D01*
X39040085Y-41317000D01*
X38918096Y-41539039D01*
X29555059Y-41539039D01*
X29601185Y-41501185D01*
X29680537Y-41404494D01*
X29739502Y-41294180D01*
X29775812Y-41174482D01*
X29788072Y-41050000D01*
X29788072Y-39958665D01*
X33135000Y-39958665D01*
X33135000Y-40241335D01*
X33190147Y-40518574D01*
X33298320Y-40779727D01*
X33455363Y-41014759D01*
X33655241Y-41214637D01*
X33890273Y-41371680D01*
X34151426Y-41479853D01*
X34428665Y-41535000D01*
X34711335Y-41535000D01*
X34988574Y-41479853D01*
X35249727Y-41371680D01*
X35305210Y-41334607D01*
X35318815Y-41351185D01*
X35415506Y-41430537D01*
X35525820Y-41489502D01*
X35645518Y-41525812D01*
X35770000Y-41538072D01*
X36284250Y-41535000D01*
X36443000Y-41376250D01*
X36443000Y-40227000D01*
X36697000Y-40227000D01*
X36697000Y-41376250D01*
X36855750Y-41535000D01*
X37370000Y-41538072D01*
X37494482Y-41525812D01*
X37614180Y-41489502D01*
X37724494Y-41430537D01*
X37821185Y-41351185D01*
X37900537Y-41254494D01*
X37959502Y-41144180D01*
X37995812Y-41024482D01*
X38008072Y-40900000D01*
X38007720Y-40840961D01*
X38918096Y-40840961D01*
X39040085Y-41063000D01*
X40183000Y-41063000D01*
X40183000Y-39919376D01*
X40437000Y-39919376D01*
X40437000Y-41063000D01*
X41579915Y-41063000D01*
X41701904Y-40840961D01*
X41661246Y-40706913D01*
X41541037Y-40452580D01*
X41373519Y-40226586D01*
X41165131Y-40037615D01*
X40923881Y-39892930D01*
X40659040Y-39798091D01*
X40437000Y-39919376D01*
X40183000Y-39919376D01*
X39960960Y-39798091D01*
X39696119Y-39892930D01*
X39454869Y-40037615D01*
X39246481Y-40226586D01*
X39078963Y-40452580D01*
X38958754Y-40706913D01*
X38918096Y-40840961D01*
X38007720Y-40840961D01*
X38005000Y-40385750D01*
X37846250Y-40227000D01*
X36697000Y-40227000D01*
X36443000Y-40227000D01*
X36423000Y-40227000D01*
X36423000Y-39973000D01*
X36443000Y-39973000D01*
X36443000Y-38823750D01*
X36697000Y-38823750D01*
X36697000Y-39973000D01*
X37846250Y-39973000D01*
X38005000Y-39814250D01*
X38008072Y-39300000D01*
X37995812Y-39175518D01*
X37959502Y-39055820D01*
X37900537Y-38945506D01*
X37821185Y-38848815D01*
X37724494Y-38769463D01*
X37614180Y-38710498D01*
X37494482Y-38674188D01*
X37370000Y-38661928D01*
X36855750Y-38665000D01*
X36697000Y-38823750D01*
X36443000Y-38823750D01*
X36284250Y-38665000D01*
X35770000Y-38661928D01*
X35645518Y-38674188D01*
X35525820Y-38710498D01*
X35415506Y-38769463D01*
X35318815Y-38848815D01*
X35305210Y-38865393D01*
X35249727Y-38828320D01*
X34988574Y-38720147D01*
X34711335Y-38665000D01*
X34428665Y-38665000D01*
X34151426Y-38720147D01*
X33890273Y-38828320D01*
X33655241Y-38985363D01*
X33455363Y-39185241D01*
X33298320Y-39420273D01*
X33190147Y-39681426D01*
X33135000Y-39958665D01*
X29788072Y-39958665D01*
X29788072Y-39450000D01*
X29775812Y-39325518D01*
X29739502Y-39205820D01*
X29680537Y-39095506D01*
X29601185Y-38998815D01*
X29504494Y-38919463D01*
X29435000Y-38882317D01*
X29435000Y-34970957D01*
X29454494Y-34960537D01*
X29551185Y-34881185D01*
X29630537Y-34784494D01*
X29689502Y-34674180D01*
X29725812Y-34554482D01*
X29738072Y-34430000D01*
X29738072Y-33308665D01*
X33155000Y-33308665D01*
X33155000Y-33591335D01*
X33210147Y-33868574D01*
X33318320Y-34129727D01*
X33475363Y-34364759D01*
X33675241Y-34564637D01*
X33910273Y-34721680D01*
X34171426Y-34829853D01*
X34448665Y-34885000D01*
X34731335Y-34885000D01*
X35008574Y-34829853D01*
X35269727Y-34721680D01*
X35325210Y-34684607D01*
X35338815Y-34701185D01*
X35435506Y-34780537D01*
X35545820Y-34839502D01*
X35665518Y-34875812D01*
X35790000Y-34888072D01*
X36304250Y-34885000D01*
X36463000Y-34726250D01*
X36463000Y-33577000D01*
X36717000Y-33577000D01*
X36717000Y-34726250D01*
X36875750Y-34885000D01*
X37390000Y-34888072D01*
X37514482Y-34875812D01*
X37634180Y-34839502D01*
X37744494Y-34780537D01*
X37841185Y-34701185D01*
X37920537Y-34604494D01*
X37979502Y-34494180D01*
X38015812Y-34374482D01*
X38028072Y-34250000D01*
X38025000Y-33735750D01*
X37866250Y-33577000D01*
X36717000Y-33577000D01*
X36463000Y-33577000D01*
X36443000Y-33577000D01*
X36443000Y-33323000D01*
X36463000Y-33323000D01*
X36463000Y-32173750D01*
X36717000Y-32173750D01*
X36717000Y-33323000D01*
X37866250Y-33323000D01*
X38025000Y-33164250D01*
X38028072Y-32650000D01*
X38015812Y-32525518D01*
X38002111Y-32480349D01*
X55477500Y-32480349D01*
X55477500Y-32819651D01*
X55543695Y-33152435D01*
X55673541Y-33465909D01*
X55862047Y-33748029D01*
X56101971Y-33987953D01*
X56384091Y-34176459D01*
X56697565Y-34306305D01*
X57030349Y-34372500D01*
X57369651Y-34372500D01*
X57702435Y-34306305D01*
X58015909Y-34176459D01*
X58298029Y-33987953D01*
X58537953Y-33748029D01*
X58726459Y-33465909D01*
X58856305Y-33152435D01*
X58922500Y-32819651D01*
X58922500Y-32480349D01*
X58856305Y-32147565D01*
X58726459Y-31834091D01*
X58537953Y-31551971D01*
X58298029Y-31312047D01*
X58015909Y-31123541D01*
X57702435Y-30993695D01*
X57369651Y-30927500D01*
X57030349Y-30927500D01*
X56697565Y-30993695D01*
X56384091Y-31123541D01*
X56101971Y-31312047D01*
X55862047Y-31551971D01*
X55673541Y-31834091D01*
X55543695Y-32147565D01*
X55477500Y-32480349D01*
X38002111Y-32480349D01*
X37979502Y-32405820D01*
X37920537Y-32295506D01*
X37841185Y-32198815D01*
X37744494Y-32119463D01*
X37634180Y-32060498D01*
X37514482Y-32024188D01*
X37390000Y-32011928D01*
X36875750Y-32015000D01*
X36717000Y-32173750D01*
X36463000Y-32173750D01*
X36304250Y-32015000D01*
X35790000Y-32011928D01*
X35665518Y-32024188D01*
X35545820Y-32060498D01*
X35435506Y-32119463D01*
X35338815Y-32198815D01*
X35325210Y-32215393D01*
X35269727Y-32178320D01*
X35008574Y-32070147D01*
X34731335Y-32015000D01*
X34448665Y-32015000D01*
X34171426Y-32070147D01*
X33910273Y-32178320D01*
X33675241Y-32335363D01*
X33475363Y-32535241D01*
X33318320Y-32770273D01*
X33210147Y-33031426D01*
X33155000Y-33308665D01*
X29738072Y-33308665D01*
X29738072Y-32830000D01*
X29725812Y-32705518D01*
X29689502Y-32585820D01*
X29630537Y-32475506D01*
X29551185Y-32378815D01*
X29454494Y-32299463D01*
X29435000Y-32289043D01*
X29435000Y-31885752D01*
X29440491Y-31830000D01*
X29418577Y-31607501D01*
X29353676Y-31393553D01*
X29248284Y-31196377D01*
X29106449Y-31023551D01*
X29063141Y-30988009D01*
X27653204Y-29578072D01*
X27660869Y-29578072D01*
X27710000Y-29582911D01*
X27759131Y-29578072D01*
X28662500Y-29578072D01*
X28786982Y-29565812D01*
X28906680Y-29529502D01*
X29016994Y-29470537D01*
X29113685Y-29391185D01*
X29193037Y-29294494D01*
X29237905Y-29210553D01*
X29363766Y-29313845D01*
X29639552Y-29461255D01*
X29938797Y-29552030D01*
X30250000Y-29582681D01*
X30561204Y-29552030D01*
X30860449Y-29461255D01*
X31136235Y-29313845D01*
X31377963Y-29115463D01*
X31525162Y-28936100D01*
X31680563Y-29121315D01*
X31923077Y-29315969D01*
X32198906Y-29459571D01*
X32417020Y-29530563D01*
X32663000Y-29410594D01*
X32663000Y-28067000D01*
X32917000Y-28067000D01*
X32917000Y-29410594D01*
X33162980Y-29530563D01*
X33381094Y-29459571D01*
X33656923Y-29315969D01*
X33899437Y-29121315D01*
X34099316Y-28883089D01*
X34248879Y-28610446D01*
X34342378Y-28313863D01*
X34215570Y-28067000D01*
X32917000Y-28067000D01*
X32663000Y-28067000D01*
X32643000Y-28067000D01*
X32643000Y-27813000D01*
X32663000Y-27813000D01*
X32663000Y-26469406D01*
X32917000Y-26469406D01*
X32917000Y-27813000D01*
X34215570Y-27813000D01*
X34342378Y-27566137D01*
X34283808Y-27380349D01*
X55477500Y-27380349D01*
X55477500Y-27719651D01*
X55543695Y-28052435D01*
X55673541Y-28365909D01*
X55862047Y-28648029D01*
X56101971Y-28887953D01*
X56384091Y-29076459D01*
X56697565Y-29206305D01*
X57030349Y-29272500D01*
X57369651Y-29272500D01*
X57702435Y-29206305D01*
X57753869Y-29185000D01*
X98995681Y-29185000D01*
X99076000Y-29192911D01*
X99156319Y-29185000D01*
X99156322Y-29185000D01*
X99396516Y-29161343D01*
X99704715Y-29067852D01*
X99988752Y-28916031D01*
X100237714Y-28711714D01*
X100288925Y-28649313D01*
X100289014Y-28649224D01*
X126450381Y-28649224D01*
X126582317Y-28944312D01*
X126923045Y-29115159D01*
X127290557Y-29216250D01*
X127670729Y-29243701D01*
X128048951Y-29196457D01*
X128410690Y-29076333D01*
X128657683Y-28944312D01*
X128789619Y-28649224D01*
X127620000Y-27479605D01*
X126450381Y-28649224D01*
X100289014Y-28649224D01*
X101587509Y-27350729D01*
X125676299Y-27350729D01*
X125723543Y-27728951D01*
X125843667Y-28090690D01*
X125975688Y-28337683D01*
X126270776Y-28469619D01*
X127440395Y-27300000D01*
X127799605Y-27300000D01*
X128969224Y-28469619D01*
X129264312Y-28337683D01*
X129435159Y-27996955D01*
X129536250Y-27629443D01*
X129563701Y-27249271D01*
X129516457Y-26871049D01*
X129396333Y-26509310D01*
X129264312Y-26262317D01*
X128969224Y-26130381D01*
X127799605Y-27300000D01*
X127440395Y-27300000D01*
X126270776Y-26130381D01*
X125975688Y-26262317D01*
X125804841Y-26603045D01*
X125703750Y-26970557D01*
X125676299Y-27350729D01*
X101587509Y-27350729D01*
X102987462Y-25950776D01*
X126450381Y-25950776D01*
X127620000Y-27120395D01*
X128789619Y-25950776D01*
X128657683Y-25655688D01*
X128316955Y-25484841D01*
X127949443Y-25383750D01*
X127569271Y-25356299D01*
X127191049Y-25403543D01*
X126829310Y-25523667D01*
X126582317Y-25655688D01*
X126450381Y-25950776D01*
X102987462Y-25950776D01*
X107762915Y-21175324D01*
X107916030Y-20988753D01*
X108067851Y-20704715D01*
X108161342Y-20396517D01*
X108192911Y-20076001D01*
X108161342Y-19755484D01*
X108067851Y-19447286D01*
X107916030Y-19163248D01*
X107711713Y-18914287D01*
X107462752Y-18709970D01*
X107178714Y-18558149D01*
X106870516Y-18464658D01*
X106549999Y-18433089D01*
X106229483Y-18464658D01*
X105921285Y-18558149D01*
X105637247Y-18709970D01*
X105450676Y-18863085D01*
X98398762Y-25915000D01*
X57753869Y-25915000D01*
X57702435Y-25893695D01*
X57369651Y-25827500D01*
X57030349Y-25827500D01*
X56697565Y-25893695D01*
X56384091Y-26023541D01*
X56101971Y-26212047D01*
X55862047Y-26451971D01*
X55673541Y-26734091D01*
X55543695Y-27047565D01*
X55477500Y-27380349D01*
X34283808Y-27380349D01*
X34248879Y-27269554D01*
X34099316Y-26996911D01*
X33899437Y-26758685D01*
X33656923Y-26564031D01*
X33381094Y-26420429D01*
X33162980Y-26349437D01*
X32917000Y-26469406D01*
X32663000Y-26469406D01*
X32417020Y-26349437D01*
X32198906Y-26420429D01*
X31923077Y-26564031D01*
X31680563Y-26758685D01*
X31525163Y-26943899D01*
X31377963Y-26764537D01*
X31136234Y-26566155D01*
X30860448Y-26418745D01*
X30561203Y-26327970D01*
X30250000Y-26297319D01*
X29938796Y-26327970D01*
X29639551Y-26418745D01*
X29363765Y-26566155D01*
X29345000Y-26581555D01*
X29345000Y-25319268D01*
X43165000Y-25319268D01*
X43165000Y-25680732D01*
X43235518Y-26035250D01*
X43373844Y-26369199D01*
X43574662Y-26669744D01*
X43830256Y-26925338D01*
X44130801Y-27126156D01*
X44464750Y-27264482D01*
X44819268Y-27335000D01*
X45180732Y-27335000D01*
X45535250Y-27264482D01*
X45869199Y-27126156D01*
X46169744Y-26925338D01*
X46425338Y-26669744D01*
X46626156Y-26369199D01*
X46764482Y-26035250D01*
X46835000Y-25680732D01*
X46835000Y-25319268D01*
X46764482Y-24964750D01*
X46626156Y-24630801D01*
X46425338Y-24330256D01*
X46169744Y-24074662D01*
X45869199Y-23873844D01*
X45535250Y-23735518D01*
X45180732Y-23665000D01*
X44819268Y-23665000D01*
X44464750Y-23735518D01*
X44130801Y-23873844D01*
X43830256Y-24074662D01*
X43574662Y-24330256D01*
X43373844Y-24630801D01*
X43235518Y-24964750D01*
X43165000Y-25319268D01*
X29345000Y-25319268D01*
X29345000Y-24635000D01*
X36719681Y-24635000D01*
X36800000Y-24642911D01*
X36880319Y-24635000D01*
X36880322Y-24635000D01*
X37120516Y-24611343D01*
X37428715Y-24517852D01*
X37712752Y-24366031D01*
X37961714Y-24161714D01*
X38012925Y-24099313D01*
X39831889Y-22280349D01*
X55477500Y-22280349D01*
X55477500Y-22619651D01*
X55543695Y-22952435D01*
X55673541Y-23265909D01*
X55862047Y-23548029D01*
X56101971Y-23787953D01*
X56384091Y-23976459D01*
X56697565Y-24106305D01*
X57030349Y-24172500D01*
X57369651Y-24172500D01*
X57702435Y-24106305D01*
X57753869Y-24085000D01*
X73615681Y-24085000D01*
X73696000Y-24092911D01*
X73776319Y-24085000D01*
X73776322Y-24085000D01*
X74016516Y-24061343D01*
X74324715Y-23967852D01*
X74608752Y-23816031D01*
X74857714Y-23611714D01*
X74908925Y-23549313D01*
X77282915Y-21175324D01*
X77436030Y-20988753D01*
X77587852Y-20704715D01*
X77681342Y-20396517D01*
X77712911Y-20076000D01*
X84587089Y-20076000D01*
X84618657Y-20396516D01*
X84712148Y-20704715D01*
X84863969Y-20988752D01*
X85068286Y-21237714D01*
X85317248Y-21442031D01*
X85601285Y-21593852D01*
X85909484Y-21687343D01*
X86149678Y-21711000D01*
X96470322Y-21711000D01*
X96710516Y-21687343D01*
X97018715Y-21593852D01*
X97302752Y-21442031D01*
X97551714Y-21237714D01*
X97756031Y-20988752D01*
X97907852Y-20704715D01*
X98001343Y-20396516D01*
X98032911Y-20076000D01*
X98001343Y-19755484D01*
X97907852Y-19447285D01*
X97756031Y-19163248D01*
X97551714Y-18914286D01*
X97302752Y-18709969D01*
X97018715Y-18558148D01*
X96710516Y-18464657D01*
X96470322Y-18441000D01*
X86149678Y-18441000D01*
X85909484Y-18464657D01*
X85601285Y-18558148D01*
X85317248Y-18709969D01*
X85068286Y-18914286D01*
X84863969Y-19163248D01*
X84712148Y-19447285D01*
X84618657Y-19755484D01*
X84587089Y-20076000D01*
X77712911Y-20076000D01*
X77681342Y-19755484D01*
X77587852Y-19447286D01*
X77436030Y-19163248D01*
X77231713Y-18914287D01*
X76982752Y-18709970D01*
X76698714Y-18558148D01*
X76390516Y-18464658D01*
X76070000Y-18433089D01*
X75749483Y-18464658D01*
X75441285Y-18558148D01*
X75157247Y-18709970D01*
X74970676Y-18863085D01*
X73018762Y-20815000D01*
X57753869Y-20815000D01*
X57702435Y-20793695D01*
X57369651Y-20727500D01*
X57030349Y-20727500D01*
X56697565Y-20793695D01*
X56384091Y-20923541D01*
X56101971Y-21112047D01*
X55862047Y-21351971D01*
X55673541Y-21634091D01*
X55543695Y-21947565D01*
X55477500Y-22280349D01*
X39831889Y-22280349D01*
X42477239Y-19635000D01*
X43335532Y-19635000D01*
X43348815Y-19651185D01*
X43445506Y-19730537D01*
X43555820Y-19789502D01*
X43675518Y-19825812D01*
X43800000Y-19838072D01*
X46200000Y-19838072D01*
X46324482Y-19825812D01*
X46444180Y-19789502D01*
X46554494Y-19730537D01*
X46651185Y-19651185D01*
X46730537Y-19554494D01*
X46789502Y-19444180D01*
X46825812Y-19324482D01*
X46838072Y-19200000D01*
X46838072Y-18985000D01*
X56646131Y-18985000D01*
X56697565Y-19006305D01*
X57030349Y-19072500D01*
X57369651Y-19072500D01*
X57702435Y-19006305D01*
X58015909Y-18876459D01*
X58298029Y-18687953D01*
X58537953Y-18448029D01*
X58726459Y-18165909D01*
X58778316Y-18040715D01*
X125084216Y-18040715D01*
X125147655Y-18606285D01*
X125319739Y-19148761D01*
X125593913Y-19647482D01*
X125959734Y-20083451D01*
X126403268Y-20440062D01*
X126907622Y-20703731D01*
X127453583Y-20864416D01*
X128020358Y-20915997D01*
X128586357Y-20856508D01*
X129130022Y-20688216D01*
X129630645Y-20417530D01*
X130069157Y-20054761D01*
X130428855Y-19613727D01*
X130696039Y-19111227D01*
X130860532Y-18566401D01*
X130916068Y-18000000D01*
X130914931Y-17918579D01*
X130843602Y-17353950D01*
X130663961Y-16813928D01*
X130382850Y-16319084D01*
X130010977Y-15888266D01*
X129562507Y-15537882D01*
X129054522Y-15281280D01*
X128506370Y-15128234D01*
X127938930Y-15084572D01*
X127373817Y-15151957D01*
X126832555Y-15327824D01*
X126335760Y-15605473D01*
X125902356Y-15974329D01*
X125548851Y-16420342D01*
X125288709Y-16926524D01*
X125131839Y-17473594D01*
X125084216Y-18040715D01*
X58778316Y-18040715D01*
X58856305Y-17852435D01*
X58922500Y-17519651D01*
X58922500Y-17180349D01*
X58856305Y-16847565D01*
X58726459Y-16534091D01*
X58537953Y-16251971D01*
X58298029Y-16012047D01*
X58015909Y-15823541D01*
X57702435Y-15693695D01*
X57369651Y-15627500D01*
X57030349Y-15627500D01*
X56697565Y-15693695D01*
X56646131Y-15715000D01*
X45730322Y-15715000D01*
X45650000Y-15707089D01*
X45329483Y-15738657D01*
X45021285Y-15832148D01*
X44737248Y-15983969D01*
X44520403Y-16161928D01*
X43800000Y-16161928D01*
X43675518Y-16174188D01*
X43555820Y-16210498D01*
X43445506Y-16269463D01*
X43348815Y-16348815D01*
X43335532Y-16365000D01*
X41880322Y-16365000D01*
X41800000Y-16357089D01*
X41479483Y-16388657D01*
X41271171Y-16451848D01*
X41171285Y-16482148D01*
X40887248Y-16633969D01*
X40638286Y-16838286D01*
X40587080Y-16900681D01*
X36122762Y-21365000D01*
X27080319Y-21365000D01*
X27000000Y-21357089D01*
X26919681Y-21365000D01*
X18760319Y-21365000D01*
X18679999Y-21357089D01*
X18599680Y-21365000D01*
X18599678Y-21365000D01*
X18359484Y-21388657D01*
X18051285Y-21482148D01*
X17767248Y-21633969D01*
X17518286Y-21838286D01*
X17467080Y-21900682D01*
X15570687Y-23797075D01*
X15508286Y-23848286D01*
X15303969Y-24097249D01*
X15152148Y-24381286D01*
X15058657Y-24689485D01*
X15040709Y-24871713D01*
X15027089Y-25010000D01*
X14127000Y-25010000D01*
X14127000Y-18040715D01*
X15084216Y-18040715D01*
X15147655Y-18606285D01*
X15319739Y-19148761D01*
X15593913Y-19647482D01*
X15959734Y-20083451D01*
X16403268Y-20440062D01*
X16907622Y-20703731D01*
X17453583Y-20864416D01*
X18020358Y-20915997D01*
X18586357Y-20856508D01*
X19130022Y-20688216D01*
X19630645Y-20417530D01*
X20069157Y-20054761D01*
X20428855Y-19613727D01*
X20696039Y-19111227D01*
X20860532Y-18566401D01*
X20916068Y-18000000D01*
X20914931Y-17918579D01*
X20843602Y-17353950D01*
X20663961Y-16813928D01*
X20382850Y-16319084D01*
X20010977Y-15888266D01*
X19562507Y-15537882D01*
X19054522Y-15281280D01*
X18506370Y-15128234D01*
X17938930Y-15084572D01*
X17373817Y-15151957D01*
X16832555Y-15327824D01*
X16335760Y-15605473D01*
X15902356Y-15974329D01*
X15548851Y-16420342D01*
X15288709Y-16926524D01*
X15131839Y-17473594D01*
X15084216Y-18040715D01*
X14127000Y-18040715D01*
X14127000Y-14127000D01*
X131873000Y-14127000D01*
X131873000Y-47873000D01*
M02*
