G04 #@! TF.GenerationSoftware,KiCad,Pcbnew,(5.1.2)-2*
G04 #@! TF.CreationDate,2020-01-13T23:24:32+05:30*
G04 #@! TF.ProjectId,controller,636f6e74-726f-46c6-9c65-722e6b696361,rev?*
G04 #@! TF.SameCoordinates,Original*
G04 #@! TF.FileFunction,Legend,Top*
G04 #@! TF.FilePolarity,Positive*
%FSLAX46Y46*%
G04 Gerber Fmt 4.6, Leading zero omitted, Abs format (unit mm)*
G04 Created by KiCad (PCBNEW (5.1.2)-2) date 2020-01-13 23:24:32*
%MOMM*%
%LPD*%
G04 APERTURE LIST*
%ADD10C,0.500000*%
%ADD11C,0.100000*%
%ADD12C,0.120000*%
%ADD13C,0.254000*%
%ADD14C,0.400000*%
%ADD15C,0.200000*%
%ADD16C,0.150000*%
G04 APERTURE END LIST*
D10*
X58785714Y-107960714D02*
X58785714Y-108960714D01*
X60357142Y-108960714D02*
X57357142Y-108960714D01*
X57357142Y-107532142D01*
X57357142Y-106389285D02*
X59785714Y-106389285D01*
X60071428Y-106246428D01*
X60214285Y-106103571D01*
X60357142Y-105817857D01*
X60357142Y-105246428D01*
X60214285Y-104960714D01*
X60071428Y-104817857D01*
X59785714Y-104675000D01*
X57357142Y-104675000D01*
X60357142Y-101817857D02*
X60357142Y-103246428D01*
X57357142Y-103246428D01*
X60357142Y-99389285D02*
X60357142Y-100817857D01*
X57357142Y-100817857D01*
X58928571Y-97817857D02*
X60357142Y-97817857D01*
X57357142Y-98817857D02*
X58928571Y-97817857D01*
X57357142Y-96817857D01*
X59500000Y-93675000D02*
X59500000Y-92246428D01*
X60357142Y-93960714D02*
X57357142Y-92960714D01*
X60357142Y-91960714D01*
X57357142Y-90960714D02*
X59785714Y-90960714D01*
X60071428Y-90817857D01*
X60214285Y-90675000D01*
X60357142Y-90389285D01*
X60357142Y-89817857D01*
X60214285Y-89532142D01*
X60071428Y-89389285D01*
X59785714Y-89246428D01*
X57357142Y-89246428D01*
X57357142Y-88246428D02*
X57357142Y-86532142D01*
X60357142Y-87389285D02*
X57357142Y-87389285D01*
X57357142Y-84960714D02*
X57357142Y-84389285D01*
X57500000Y-84103571D01*
X57785714Y-83817857D01*
X58357142Y-83675000D01*
X59357142Y-83675000D01*
X59928571Y-83817857D01*
X60214285Y-84103571D01*
X60357142Y-84389285D01*
X60357142Y-84960714D01*
X60214285Y-85246428D01*
X59928571Y-85532142D01*
X59357142Y-85675000D01*
X58357142Y-85675000D01*
X57785714Y-85532142D01*
X57500000Y-85246428D01*
X57357142Y-84960714D01*
X60357142Y-82389285D02*
X57357142Y-82389285D01*
X59500000Y-81389285D01*
X57357142Y-80389285D01*
X60357142Y-80389285D01*
X58785714Y-78960714D02*
X58785714Y-77960714D01*
X60357142Y-77532142D02*
X60357142Y-78960714D01*
X57357142Y-78960714D01*
X57357142Y-77532142D01*
X57357142Y-76675000D02*
X57357142Y-74960714D01*
X60357142Y-75817857D02*
X57357142Y-75817857D01*
X60357142Y-73960714D02*
X57357142Y-73960714D01*
X60071428Y-70817857D02*
X60214285Y-70960714D01*
X60357142Y-71389285D01*
X60357142Y-71675000D01*
X60214285Y-72103571D01*
X59928571Y-72389285D01*
X59642857Y-72532142D01*
X59071428Y-72675000D01*
X58642857Y-72675000D01*
X58071428Y-72532142D01*
X57785714Y-72389285D01*
X57500000Y-72103571D01*
X57357142Y-71675000D01*
X57357142Y-71389285D01*
X57500000Y-70960714D01*
X57642857Y-70817857D01*
X65357142Y-108960714D02*
X62357142Y-108960714D01*
X64500000Y-107960714D01*
X62357142Y-106960714D01*
X65357142Y-106960714D01*
X62357142Y-104960714D02*
X62357142Y-104389285D01*
X62500000Y-104103571D01*
X62785714Y-103817857D01*
X63357142Y-103675000D01*
X64357142Y-103675000D01*
X64928571Y-103817857D01*
X65214285Y-104103571D01*
X65357142Y-104389285D01*
X65357142Y-104960714D01*
X65214285Y-105246428D01*
X64928571Y-105532142D01*
X64357142Y-105675000D01*
X63357142Y-105675000D01*
X62785714Y-105532142D01*
X62500000Y-105246428D01*
X62357142Y-104960714D01*
X62357142Y-102817857D02*
X62357142Y-101103571D01*
X65357142Y-101960714D02*
X62357142Y-101960714D01*
X62357142Y-99532142D02*
X62357142Y-98960714D01*
X62500000Y-98675000D01*
X62785714Y-98389285D01*
X63357142Y-98246428D01*
X64357142Y-98246428D01*
X64928571Y-98389285D01*
X65214285Y-98675000D01*
X65357142Y-98960714D01*
X65357142Y-99532142D01*
X65214285Y-99817857D01*
X64928571Y-100103571D01*
X64357142Y-100246428D01*
X63357142Y-100246428D01*
X62785714Y-100103571D01*
X62500000Y-99817857D01*
X62357142Y-99532142D01*
X65357142Y-95246428D02*
X63928571Y-96246428D01*
X65357142Y-96960714D02*
X62357142Y-96960714D01*
X62357142Y-95817857D01*
X62500000Y-95532142D01*
X62642857Y-95389285D01*
X62928571Y-95246428D01*
X63357142Y-95246428D01*
X63642857Y-95389285D01*
X63785714Y-95532142D01*
X63928571Y-95817857D01*
X63928571Y-96960714D01*
X65071428Y-89960714D02*
X65214285Y-90103571D01*
X65357142Y-90532142D01*
X65357142Y-90817857D01*
X65214285Y-91246428D01*
X64928571Y-91532142D01*
X64642857Y-91675000D01*
X64071428Y-91817857D01*
X63642857Y-91817857D01*
X63071428Y-91675000D01*
X62785714Y-91532142D01*
X62500000Y-91246428D01*
X62357142Y-90817857D01*
X62357142Y-90532142D01*
X62500000Y-90103571D01*
X62642857Y-89960714D01*
X62357142Y-88103571D02*
X62357142Y-87532142D01*
X62500000Y-87246428D01*
X62785714Y-86960714D01*
X63357142Y-86817857D01*
X64357142Y-86817857D01*
X64928571Y-86960714D01*
X65214285Y-87246428D01*
X65357142Y-87532142D01*
X65357142Y-88103571D01*
X65214285Y-88389285D01*
X64928571Y-88675000D01*
X64357142Y-88817857D01*
X63357142Y-88817857D01*
X62785714Y-88675000D01*
X62500000Y-88389285D01*
X62357142Y-88103571D01*
X65357142Y-85532142D02*
X62357142Y-85532142D01*
X65357142Y-83817857D01*
X62357142Y-83817857D01*
X62357142Y-82817857D02*
X62357142Y-81103571D01*
X65357142Y-81960714D02*
X62357142Y-81960714D01*
X65357142Y-78389285D02*
X63928571Y-79389285D01*
X65357142Y-80103571D02*
X62357142Y-80103571D01*
X62357142Y-78960714D01*
X62500000Y-78675000D01*
X62642857Y-78532142D01*
X62928571Y-78389285D01*
X63357142Y-78389285D01*
X63642857Y-78532142D01*
X63785714Y-78675000D01*
X63928571Y-78960714D01*
X63928571Y-80103571D01*
X62357142Y-76532142D02*
X62357142Y-75960714D01*
X62500000Y-75675000D01*
X62785714Y-75389285D01*
X63357142Y-75246428D01*
X64357142Y-75246428D01*
X64928571Y-75389285D01*
X65214285Y-75675000D01*
X65357142Y-75960714D01*
X65357142Y-76532142D01*
X65214285Y-76817857D01*
X64928571Y-77103571D01*
X64357142Y-77246428D01*
X63357142Y-77246428D01*
X62785714Y-77103571D01*
X62500000Y-76817857D01*
X62357142Y-76532142D01*
X65357142Y-72532142D02*
X65357142Y-73960714D01*
X62357142Y-73960714D01*
X65357142Y-70103571D02*
X65357142Y-71532142D01*
X62357142Y-71532142D01*
X63785714Y-69103571D02*
X63785714Y-68103571D01*
X65357142Y-67675000D02*
X65357142Y-69103571D01*
X62357142Y-69103571D01*
X62357142Y-67675000D01*
X65357142Y-64675000D02*
X63928571Y-65675000D01*
X65357142Y-66389285D02*
X62357142Y-66389285D01*
X62357142Y-65246428D01*
X62500000Y-64960714D01*
X62642857Y-64817857D01*
X62928571Y-64675000D01*
X63357142Y-64675000D01*
X63642857Y-64817857D01*
X63785714Y-64960714D01*
X63928571Y-65246428D01*
X63928571Y-66389285D01*
X70357142Y-107246428D02*
X68928571Y-108246428D01*
X70357142Y-108960714D02*
X67357142Y-108960714D01*
X67357142Y-107817857D01*
X67500000Y-107532142D01*
X67642857Y-107389285D01*
X67928571Y-107246428D01*
X68357142Y-107246428D01*
X68642857Y-107389285D01*
X68785714Y-107532142D01*
X68928571Y-107817857D01*
X68928571Y-108960714D01*
X68785714Y-105960714D02*
X68785714Y-104960714D01*
X70357142Y-104532142D02*
X70357142Y-105960714D01*
X67357142Y-105960714D01*
X67357142Y-104532142D01*
X67357142Y-103675000D02*
X70357142Y-102675000D01*
X67357142Y-101675000D01*
X70357142Y-96817857D02*
X70357142Y-98532142D01*
X70357142Y-97675000D02*
X67357142Y-97675000D01*
X67785714Y-97960714D01*
X68071428Y-98246428D01*
X68214285Y-98532142D01*
X70071428Y-95532142D02*
X70214285Y-95389285D01*
X70357142Y-95532142D01*
X70214285Y-95675000D01*
X70071428Y-95532142D01*
X70357142Y-95532142D01*
X67357142Y-93532142D02*
X67357142Y-93246428D01*
X67500000Y-92960714D01*
X67642857Y-92817857D01*
X67928571Y-92675000D01*
X68500000Y-92532142D01*
X69214285Y-92532142D01*
X69785714Y-92675000D01*
X70071428Y-92817857D01*
X70214285Y-92960714D01*
X70357142Y-93246428D01*
X70357142Y-93532142D01*
X70214285Y-93817857D01*
X70071428Y-93960714D01*
X69785714Y-94103571D01*
X69214285Y-94246428D01*
X68500000Y-94246428D01*
X67928571Y-94103571D01*
X67642857Y-93960714D01*
X67500000Y-93817857D01*
X67357142Y-93532142D01*
D11*
X58950000Y-15000000D02*
X58950000Y-35000000D01*
X58950000Y-35000000D02*
X55450000Y-35000000D01*
X55450000Y-35000000D02*
X55450000Y-15000000D01*
X55450000Y-15000000D02*
X58950000Y-15000000D01*
X55100000Y-17300000D02*
X55100000Y-17300000D01*
X55100000Y-17400000D02*
X55100000Y-17400000D01*
X55100000Y-17400000D02*
G75*
G03X55100000Y-17300000I0J50000D01*
G01*
X55100000Y-17300000D02*
G75*
G03X55100000Y-17400000I0J-50000D01*
G01*
D12*
X53120000Y-21750000D02*
G75*
G03X53120000Y-21750000I-8120000J0D01*
G01*
X53081000Y-21750000D02*
X36919000Y-21750000D01*
X53080000Y-21790000D02*
X36920000Y-21790000D01*
X53080000Y-21830000D02*
X36920000Y-21830000D01*
X53080000Y-21870000D02*
X36920000Y-21870000D01*
X53079000Y-21910000D02*
X36921000Y-21910000D01*
X53078000Y-21950000D02*
X36922000Y-21950000D01*
X53077000Y-21990000D02*
X36923000Y-21990000D01*
X53076000Y-22030000D02*
X36924000Y-22030000D01*
X53074000Y-22070000D02*
X36926000Y-22070000D01*
X53073000Y-22110000D02*
X36927000Y-22110000D01*
X53071000Y-22150000D02*
X36929000Y-22150000D01*
X53069000Y-22190000D02*
X36931000Y-22190000D01*
X53066000Y-22230000D02*
X36934000Y-22230000D01*
X53064000Y-22270000D02*
X36936000Y-22270000D01*
X53061000Y-22310000D02*
X36939000Y-22310000D01*
X53058000Y-22350000D02*
X36942000Y-22350000D01*
X53055000Y-22390000D02*
X36945000Y-22390000D01*
X53052000Y-22430000D02*
X36948000Y-22430000D01*
X53049000Y-22471000D02*
X36951000Y-22471000D01*
X53045000Y-22511000D02*
X36955000Y-22511000D01*
X53041000Y-22551000D02*
X36959000Y-22551000D01*
X53037000Y-22591000D02*
X36963000Y-22591000D01*
X53033000Y-22631000D02*
X36967000Y-22631000D01*
X53028000Y-22671000D02*
X36972000Y-22671000D01*
X53024000Y-22711000D02*
X36976000Y-22711000D01*
X53019000Y-22751000D02*
X36981000Y-22751000D01*
X53014000Y-22791000D02*
X36986000Y-22791000D01*
X53008000Y-22831000D02*
X36992000Y-22831000D01*
X53003000Y-22871000D02*
X36997000Y-22871000D01*
X52997000Y-22911000D02*
X37003000Y-22911000D01*
X52991000Y-22951000D02*
X37009000Y-22951000D01*
X52985000Y-22991000D02*
X37015000Y-22991000D01*
X52979000Y-23031000D02*
X37021000Y-23031000D01*
X52972000Y-23071000D02*
X37028000Y-23071000D01*
X52966000Y-23111000D02*
X37034000Y-23111000D01*
X52959000Y-23151000D02*
X37041000Y-23151000D01*
X52952000Y-23191000D02*
X37048000Y-23191000D01*
X52944000Y-23231000D02*
X37056000Y-23231000D01*
X52937000Y-23271000D02*
X37063000Y-23271000D01*
X52929000Y-23311000D02*
X37071000Y-23311000D01*
X52921000Y-23351000D02*
X37079000Y-23351000D01*
X52913000Y-23391000D02*
X37087000Y-23391000D01*
X52905000Y-23431000D02*
X37095000Y-23431000D01*
X52896000Y-23471000D02*
X37104000Y-23471000D01*
X52887000Y-23511000D02*
X37113000Y-23511000D01*
X52878000Y-23551000D02*
X37122000Y-23551000D01*
X52869000Y-23591000D02*
X37131000Y-23591000D01*
X52860000Y-23631000D02*
X37140000Y-23631000D01*
X52850000Y-23671000D02*
X37150000Y-23671000D01*
X52840000Y-23711000D02*
X37160000Y-23711000D01*
X52830000Y-23751000D02*
X37170000Y-23751000D01*
X52820000Y-23791000D02*
X37180000Y-23791000D01*
X52810000Y-23831000D02*
X37190000Y-23831000D01*
X52799000Y-23871000D02*
X37201000Y-23871000D01*
X52788000Y-23911000D02*
X37212000Y-23911000D01*
X52777000Y-23951000D02*
X37223000Y-23951000D01*
X52765000Y-23991000D02*
X37235000Y-23991000D01*
X52754000Y-24031000D02*
X37246000Y-24031000D01*
X52742000Y-24071000D02*
X46440000Y-24071000D01*
X43560000Y-24071000D02*
X37258000Y-24071000D01*
X52730000Y-24111000D02*
X46440000Y-24111000D01*
X43560000Y-24111000D02*
X37270000Y-24111000D01*
X52718000Y-24151000D02*
X46440000Y-24151000D01*
X43560000Y-24151000D02*
X37282000Y-24151000D01*
X52705000Y-24191000D02*
X46440000Y-24191000D01*
X43560000Y-24191000D02*
X37295000Y-24191000D01*
X52693000Y-24231000D02*
X46440000Y-24231000D01*
X43560000Y-24231000D02*
X37307000Y-24231000D01*
X52680000Y-24271000D02*
X46440000Y-24271000D01*
X43560000Y-24271000D02*
X37320000Y-24271000D01*
X52666000Y-24311000D02*
X46440000Y-24311000D01*
X43560000Y-24311000D02*
X37334000Y-24311000D01*
X52653000Y-24351000D02*
X46440000Y-24351000D01*
X43560000Y-24351000D02*
X37347000Y-24351000D01*
X52639000Y-24391000D02*
X46440000Y-24391000D01*
X43560000Y-24391000D02*
X37361000Y-24391000D01*
X52625000Y-24431000D02*
X46440000Y-24431000D01*
X43560000Y-24431000D02*
X37375000Y-24431000D01*
X52611000Y-24471000D02*
X46440000Y-24471000D01*
X43560000Y-24471000D02*
X37389000Y-24471000D01*
X52597000Y-24511000D02*
X46440000Y-24511000D01*
X43560000Y-24511000D02*
X37403000Y-24511000D01*
X52582000Y-24551000D02*
X46440000Y-24551000D01*
X43560000Y-24551000D02*
X37418000Y-24551000D01*
X52568000Y-24591000D02*
X46440000Y-24591000D01*
X43560000Y-24591000D02*
X37432000Y-24591000D01*
X52553000Y-24631000D02*
X46440000Y-24631000D01*
X43560000Y-24631000D02*
X37447000Y-24631000D01*
X52537000Y-24671000D02*
X46440000Y-24671000D01*
X43560000Y-24671000D02*
X37463000Y-24671000D01*
X52522000Y-24711000D02*
X46440000Y-24711000D01*
X43560000Y-24711000D02*
X37478000Y-24711000D01*
X52506000Y-24751000D02*
X46440000Y-24751000D01*
X43560000Y-24751000D02*
X37494000Y-24751000D01*
X52490000Y-24791000D02*
X46440000Y-24791000D01*
X43560000Y-24791000D02*
X37510000Y-24791000D01*
X52474000Y-24831000D02*
X46440000Y-24831000D01*
X43560000Y-24831000D02*
X37526000Y-24831000D01*
X52457000Y-24871000D02*
X46440000Y-24871000D01*
X43560000Y-24871000D02*
X37543000Y-24871000D01*
X52440000Y-24911000D02*
X46440000Y-24911000D01*
X43560000Y-24911000D02*
X37560000Y-24911000D01*
X52423000Y-24951000D02*
X46440000Y-24951000D01*
X43560000Y-24951000D02*
X37577000Y-24951000D01*
X52406000Y-24991000D02*
X46440000Y-24991000D01*
X43560000Y-24991000D02*
X37594000Y-24991000D01*
X52389000Y-25031000D02*
X46440000Y-25031000D01*
X43560000Y-25031000D02*
X37611000Y-25031000D01*
X52371000Y-25071000D02*
X46440000Y-25071000D01*
X43560000Y-25071000D02*
X37629000Y-25071000D01*
X52353000Y-25111000D02*
X46440000Y-25111000D01*
X43560000Y-25111000D02*
X37647000Y-25111000D01*
X52334000Y-25151000D02*
X46440000Y-25151000D01*
X43560000Y-25151000D02*
X37666000Y-25151000D01*
X52316000Y-25191000D02*
X46440000Y-25191000D01*
X43560000Y-25191000D02*
X37684000Y-25191000D01*
X52297000Y-25231000D02*
X46440000Y-25231000D01*
X43560000Y-25231000D02*
X37703000Y-25231000D01*
X52278000Y-25271000D02*
X46440000Y-25271000D01*
X43560000Y-25271000D02*
X37722000Y-25271000D01*
X52258000Y-25311000D02*
X46440000Y-25311000D01*
X43560000Y-25311000D02*
X37742000Y-25311000D01*
X52239000Y-25351000D02*
X46440000Y-25351000D01*
X43560000Y-25351000D02*
X37761000Y-25351000D01*
X52219000Y-25391000D02*
X46440000Y-25391000D01*
X43560000Y-25391000D02*
X37781000Y-25391000D01*
X52199000Y-25431000D02*
X46440000Y-25431000D01*
X43560000Y-25431000D02*
X37801000Y-25431000D01*
X52178000Y-25471000D02*
X46440000Y-25471000D01*
X43560000Y-25471000D02*
X37822000Y-25471000D01*
X52157000Y-25511000D02*
X46440000Y-25511000D01*
X43560000Y-25511000D02*
X37843000Y-25511000D01*
X52136000Y-25551000D02*
X46440000Y-25551000D01*
X43560000Y-25551000D02*
X37864000Y-25551000D01*
X52115000Y-25591000D02*
X46440000Y-25591000D01*
X43560000Y-25591000D02*
X37885000Y-25591000D01*
X52094000Y-25631000D02*
X46440000Y-25631000D01*
X43560000Y-25631000D02*
X37906000Y-25631000D01*
X52072000Y-25671000D02*
X46440000Y-25671000D01*
X43560000Y-25671000D02*
X37928000Y-25671000D01*
X52049000Y-25711000D02*
X46440000Y-25711000D01*
X43560000Y-25711000D02*
X37951000Y-25711000D01*
X52027000Y-25751000D02*
X46440000Y-25751000D01*
X43560000Y-25751000D02*
X37973000Y-25751000D01*
X52004000Y-25791000D02*
X46440000Y-25791000D01*
X43560000Y-25791000D02*
X37996000Y-25791000D01*
X51981000Y-25831000D02*
X46440000Y-25831000D01*
X43560000Y-25831000D02*
X38019000Y-25831000D01*
X51958000Y-25871000D02*
X46440000Y-25871000D01*
X43560000Y-25871000D02*
X38042000Y-25871000D01*
X51934000Y-25911000D02*
X46440000Y-25911000D01*
X43560000Y-25911000D02*
X38066000Y-25911000D01*
X51910000Y-25951000D02*
X46440000Y-25951000D01*
X43560000Y-25951000D02*
X38090000Y-25951000D01*
X51886000Y-25991000D02*
X46440000Y-25991000D01*
X43560000Y-25991000D02*
X38114000Y-25991000D01*
X51861000Y-26031000D02*
X46440000Y-26031000D01*
X43560000Y-26031000D02*
X38139000Y-26031000D01*
X51836000Y-26071000D02*
X46440000Y-26071000D01*
X43560000Y-26071000D02*
X38164000Y-26071000D01*
X51811000Y-26111000D02*
X46440000Y-26111000D01*
X43560000Y-26111000D02*
X38189000Y-26111000D01*
X51785000Y-26151000D02*
X46440000Y-26151000D01*
X43560000Y-26151000D02*
X38215000Y-26151000D01*
X51759000Y-26191000D02*
X46440000Y-26191000D01*
X43560000Y-26191000D02*
X38241000Y-26191000D01*
X51733000Y-26231000D02*
X46440000Y-26231000D01*
X43560000Y-26231000D02*
X38267000Y-26231000D01*
X51706000Y-26271000D02*
X46440000Y-26271000D01*
X43560000Y-26271000D02*
X38294000Y-26271000D01*
X51679000Y-26311000D02*
X46440000Y-26311000D01*
X43560000Y-26311000D02*
X38321000Y-26311000D01*
X51652000Y-26351000D02*
X46440000Y-26351000D01*
X43560000Y-26351000D02*
X38348000Y-26351000D01*
X51624000Y-26391000D02*
X46440000Y-26391000D01*
X43560000Y-26391000D02*
X38376000Y-26391000D01*
X51596000Y-26431000D02*
X46440000Y-26431000D01*
X43560000Y-26431000D02*
X38404000Y-26431000D01*
X51568000Y-26471000D02*
X46440000Y-26471000D01*
X43560000Y-26471000D02*
X38432000Y-26471000D01*
X51539000Y-26511000D02*
X46440000Y-26511000D01*
X43560000Y-26511000D02*
X38461000Y-26511000D01*
X51510000Y-26551000D02*
X46440000Y-26551000D01*
X43560000Y-26551000D02*
X38490000Y-26551000D01*
X51480000Y-26591000D02*
X46440000Y-26591000D01*
X43560000Y-26591000D02*
X38520000Y-26591000D01*
X51450000Y-26631000D02*
X46440000Y-26631000D01*
X43560000Y-26631000D02*
X38550000Y-26631000D01*
X51420000Y-26671000D02*
X46440000Y-26671000D01*
X43560000Y-26671000D02*
X38580000Y-26671000D01*
X51390000Y-26711000D02*
X46440000Y-26711000D01*
X43560000Y-26711000D02*
X38610000Y-26711000D01*
X51358000Y-26751000D02*
X46440000Y-26751000D01*
X43560000Y-26751000D02*
X38642000Y-26751000D01*
X51327000Y-26791000D02*
X46440000Y-26791000D01*
X43560000Y-26791000D02*
X38673000Y-26791000D01*
X51295000Y-26831000D02*
X46440000Y-26831000D01*
X43560000Y-26831000D02*
X38705000Y-26831000D01*
X51263000Y-26871000D02*
X46440000Y-26871000D01*
X43560000Y-26871000D02*
X38737000Y-26871000D01*
X51230000Y-26911000D02*
X46440000Y-26911000D01*
X43560000Y-26911000D02*
X38770000Y-26911000D01*
X51197000Y-26951000D02*
X38803000Y-26951000D01*
X51163000Y-26991000D02*
X38837000Y-26991000D01*
X51129000Y-27031000D02*
X38871000Y-27031000D01*
X51095000Y-27071000D02*
X38905000Y-27071000D01*
X51060000Y-27111000D02*
X38940000Y-27111000D01*
X51025000Y-27151000D02*
X38975000Y-27151000D01*
X50989000Y-27191000D02*
X39011000Y-27191000D01*
X50952000Y-27231000D02*
X39048000Y-27231000D01*
X50916000Y-27271000D02*
X39084000Y-27271000D01*
X50878000Y-27311000D02*
X39122000Y-27311000D01*
X50840000Y-27351000D02*
X39160000Y-27351000D01*
X50802000Y-27391000D02*
X39198000Y-27391000D01*
X50763000Y-27431000D02*
X39237000Y-27431000D01*
X50724000Y-27471000D02*
X39276000Y-27471000D01*
X50684000Y-27511000D02*
X39316000Y-27511000D01*
X50643000Y-27551000D02*
X39357000Y-27551000D01*
X50602000Y-27591000D02*
X39398000Y-27591000D01*
X50560000Y-27631000D02*
X39440000Y-27631000D01*
X50518000Y-27671000D02*
X39482000Y-27671000D01*
X50475000Y-27711000D02*
X39525000Y-27711000D01*
X50432000Y-27751000D02*
X39568000Y-27751000D01*
X50388000Y-27791000D02*
X39612000Y-27791000D01*
X50343000Y-27831000D02*
X39657000Y-27831000D01*
X50297000Y-27871000D02*
X39703000Y-27871000D01*
X50251000Y-27911000D02*
X39749000Y-27911000D01*
X50204000Y-27951000D02*
X39796000Y-27951000D01*
X50156000Y-27991000D02*
X39844000Y-27991000D01*
X50108000Y-28031000D02*
X39892000Y-28031000D01*
X50059000Y-28071000D02*
X39941000Y-28071000D01*
X50009000Y-28111000D02*
X39991000Y-28111000D01*
X49958000Y-28151000D02*
X40042000Y-28151000D01*
X49906000Y-28191000D02*
X40094000Y-28191000D01*
X49854000Y-28231000D02*
X40146000Y-28231000D01*
X49800000Y-28271000D02*
X40200000Y-28271000D01*
X49746000Y-28311000D02*
X40254000Y-28311000D01*
X49691000Y-28351000D02*
X40309000Y-28351000D01*
X49634000Y-28391000D02*
X40366000Y-28391000D01*
X49577000Y-28431000D02*
X40423000Y-28431000D01*
X49519000Y-28471000D02*
X40481000Y-28471000D01*
X49459000Y-28511000D02*
X40541000Y-28511000D01*
X49398000Y-28551000D02*
X40602000Y-28551000D01*
X49336000Y-28591000D02*
X40664000Y-28591000D01*
X49273000Y-28631000D02*
X40727000Y-28631000D01*
X49209000Y-28671000D02*
X40791000Y-28671000D01*
X49143000Y-28711000D02*
X40857000Y-28711000D01*
X49076000Y-28751000D02*
X40924000Y-28751000D01*
X49007000Y-28791000D02*
X40993000Y-28791000D01*
X48936000Y-28831000D02*
X41064000Y-28831000D01*
X48864000Y-28871000D02*
X41136000Y-28871000D01*
X48790000Y-28911000D02*
X41210000Y-28911000D01*
X48715000Y-28951000D02*
X41285000Y-28951000D01*
X48637000Y-28991000D02*
X41363000Y-28991000D01*
X48557000Y-29031000D02*
X41443000Y-29031000D01*
X48475000Y-29071000D02*
X41525000Y-29071000D01*
X48390000Y-29111000D02*
X41610000Y-29111000D01*
X48303000Y-29151000D02*
X41697000Y-29151000D01*
X48213000Y-29191000D02*
X41787000Y-29191000D01*
X48120000Y-29231000D02*
X41880000Y-29231000D01*
X48024000Y-29271000D02*
X41976000Y-29271000D01*
X47924000Y-29311000D02*
X42076000Y-29311000D01*
X47820000Y-29351000D02*
X42180000Y-29351000D01*
X47711000Y-29391000D02*
X42289000Y-29391000D01*
X47597000Y-29431000D02*
X42403000Y-29431000D01*
X47478000Y-29471000D02*
X42522000Y-29471000D01*
X47351000Y-29511000D02*
X42649000Y-29511000D01*
X47218000Y-29551000D02*
X42782000Y-29551000D01*
X47074000Y-29591000D02*
X42926000Y-29591000D01*
X46920000Y-29631000D02*
X43080000Y-29631000D01*
X46752000Y-29671000D02*
X43248000Y-29671000D01*
X46564000Y-29711000D02*
X43436000Y-29711000D01*
X46351000Y-29751000D02*
X43649000Y-29751000D01*
X46098000Y-29791000D02*
X43902000Y-29791000D01*
X45765000Y-29831000D02*
X44235000Y-29831000D01*
X49555000Y-13060509D02*
X49555000Y-14660509D01*
X50355000Y-13860509D02*
X48755000Y-13860509D01*
X29854775Y-35355000D02*
X29854775Y-34855000D01*
X30104775Y-35105000D02*
X29604775Y-35105000D01*
X24699000Y-33914000D02*
X24699000Y-33346000D01*
X24739000Y-34148000D02*
X24739000Y-33112000D01*
X24779000Y-34307000D02*
X24779000Y-32953000D01*
X24819000Y-34435000D02*
X24819000Y-32825000D01*
X24859000Y-34545000D02*
X24859000Y-32715000D01*
X24899000Y-34641000D02*
X24899000Y-32619000D01*
X24939000Y-34728000D02*
X24939000Y-32532000D01*
X24979000Y-34808000D02*
X24979000Y-32452000D01*
X25019000Y-34881000D02*
X25019000Y-32379000D01*
X25059000Y-34949000D02*
X25059000Y-32311000D01*
X25099000Y-35013000D02*
X25099000Y-32247000D01*
X25139000Y-35073000D02*
X25139000Y-32187000D01*
X25179000Y-35130000D02*
X25179000Y-32130000D01*
X25219000Y-35184000D02*
X25219000Y-32076000D01*
X25259000Y-35235000D02*
X25259000Y-32025000D01*
X25299000Y-32590000D02*
X25299000Y-31977000D01*
X25299000Y-35283000D02*
X25299000Y-34670000D01*
X25339000Y-32590000D02*
X25339000Y-31931000D01*
X25339000Y-35329000D02*
X25339000Y-34670000D01*
X25379000Y-32590000D02*
X25379000Y-31887000D01*
X25379000Y-35373000D02*
X25379000Y-34670000D01*
X25419000Y-32590000D02*
X25419000Y-31845000D01*
X25419000Y-35415000D02*
X25419000Y-34670000D01*
X25459000Y-32590000D02*
X25459000Y-31804000D01*
X25459000Y-35456000D02*
X25459000Y-34670000D01*
X25499000Y-32590000D02*
X25499000Y-31766000D01*
X25499000Y-35494000D02*
X25499000Y-34670000D01*
X25539000Y-32590000D02*
X25539000Y-31729000D01*
X25539000Y-35531000D02*
X25539000Y-34670000D01*
X25579000Y-32590000D02*
X25579000Y-31693000D01*
X25579000Y-35567000D02*
X25579000Y-34670000D01*
X25619000Y-32590000D02*
X25619000Y-31659000D01*
X25619000Y-35601000D02*
X25619000Y-34670000D01*
X25659000Y-32590000D02*
X25659000Y-31626000D01*
X25659000Y-35634000D02*
X25659000Y-34670000D01*
X25699000Y-32590000D02*
X25699000Y-31595000D01*
X25699000Y-35665000D02*
X25699000Y-34670000D01*
X25739000Y-32590000D02*
X25739000Y-31565000D01*
X25739000Y-35695000D02*
X25739000Y-34670000D01*
X25779000Y-32590000D02*
X25779000Y-31535000D01*
X25779000Y-35725000D02*
X25779000Y-34670000D01*
X25819000Y-32590000D02*
X25819000Y-31508000D01*
X25819000Y-35752000D02*
X25819000Y-34670000D01*
X25859000Y-32590000D02*
X25859000Y-31481000D01*
X25859000Y-35779000D02*
X25859000Y-34670000D01*
X25899000Y-32590000D02*
X25899000Y-31455000D01*
X25899000Y-35805000D02*
X25899000Y-34670000D01*
X25939000Y-32590000D02*
X25939000Y-31430000D01*
X25939000Y-35830000D02*
X25939000Y-34670000D01*
X25979000Y-32590000D02*
X25979000Y-31406000D01*
X25979000Y-35854000D02*
X25979000Y-34670000D01*
X26019000Y-32590000D02*
X26019000Y-31383000D01*
X26019000Y-35877000D02*
X26019000Y-34670000D01*
X26059000Y-32590000D02*
X26059000Y-31362000D01*
X26059000Y-35898000D02*
X26059000Y-34670000D01*
X26099000Y-32590000D02*
X26099000Y-31340000D01*
X26099000Y-35920000D02*
X26099000Y-34670000D01*
X26139000Y-32590000D02*
X26139000Y-31320000D01*
X26139000Y-35940000D02*
X26139000Y-34670000D01*
X26179000Y-32590000D02*
X26179000Y-31301000D01*
X26179000Y-35959000D02*
X26179000Y-34670000D01*
X26219000Y-32590000D02*
X26219000Y-31282000D01*
X26219000Y-35978000D02*
X26219000Y-34670000D01*
X26259000Y-32590000D02*
X26259000Y-31265000D01*
X26259000Y-35995000D02*
X26259000Y-34670000D01*
X26299000Y-32590000D02*
X26299000Y-31248000D01*
X26299000Y-36012000D02*
X26299000Y-34670000D01*
X26339000Y-32590000D02*
X26339000Y-31232000D01*
X26339000Y-36028000D02*
X26339000Y-34670000D01*
X26379000Y-32590000D02*
X26379000Y-31216000D01*
X26379000Y-36044000D02*
X26379000Y-34670000D01*
X26419000Y-32590000D02*
X26419000Y-31202000D01*
X26419000Y-36058000D02*
X26419000Y-34670000D01*
X26459000Y-32590000D02*
X26459000Y-31188000D01*
X26459000Y-36072000D02*
X26459000Y-34670000D01*
X26499000Y-32590000D02*
X26499000Y-31175000D01*
X26499000Y-36085000D02*
X26499000Y-34670000D01*
X26539000Y-32590000D02*
X26539000Y-31162000D01*
X26539000Y-36098000D02*
X26539000Y-34670000D01*
X26579000Y-32590000D02*
X26579000Y-31150000D01*
X26579000Y-36110000D02*
X26579000Y-34670000D01*
X26620000Y-32590000D02*
X26620000Y-31139000D01*
X26620000Y-36121000D02*
X26620000Y-34670000D01*
X26660000Y-32590000D02*
X26660000Y-31129000D01*
X26660000Y-36131000D02*
X26660000Y-34670000D01*
X26700000Y-32590000D02*
X26700000Y-31119000D01*
X26700000Y-36141000D02*
X26700000Y-34670000D01*
X26740000Y-32590000D02*
X26740000Y-31110000D01*
X26740000Y-36150000D02*
X26740000Y-34670000D01*
X26780000Y-32590000D02*
X26780000Y-31102000D01*
X26780000Y-36158000D02*
X26780000Y-34670000D01*
X26820000Y-32590000D02*
X26820000Y-31094000D01*
X26820000Y-36166000D02*
X26820000Y-34670000D01*
X26860000Y-32590000D02*
X26860000Y-31087000D01*
X26860000Y-36173000D02*
X26860000Y-34670000D01*
X26900000Y-32590000D02*
X26900000Y-31080000D01*
X26900000Y-36180000D02*
X26900000Y-34670000D01*
X26940000Y-32590000D02*
X26940000Y-31074000D01*
X26940000Y-36186000D02*
X26940000Y-34670000D01*
X26980000Y-32590000D02*
X26980000Y-31069000D01*
X26980000Y-36191000D02*
X26980000Y-34670000D01*
X27020000Y-32590000D02*
X27020000Y-31065000D01*
X27020000Y-36195000D02*
X27020000Y-34670000D01*
X27060000Y-32590000D02*
X27060000Y-31061000D01*
X27060000Y-36199000D02*
X27060000Y-34670000D01*
X27100000Y-32590000D02*
X27100000Y-31057000D01*
X27100000Y-36203000D02*
X27100000Y-34670000D01*
X27140000Y-32590000D02*
X27140000Y-31054000D01*
X27140000Y-36206000D02*
X27140000Y-34670000D01*
X27180000Y-32590000D02*
X27180000Y-31052000D01*
X27180000Y-36208000D02*
X27180000Y-34670000D01*
X27220000Y-32590000D02*
X27220000Y-31051000D01*
X27220000Y-36209000D02*
X27220000Y-34670000D01*
X27260000Y-36210000D02*
X27260000Y-34670000D01*
X27260000Y-32590000D02*
X27260000Y-31050000D01*
X27300000Y-36210000D02*
X27300000Y-34670000D01*
X27300000Y-32590000D02*
X27300000Y-31050000D01*
X29920000Y-33630000D02*
G75*
G03X29920000Y-33630000I-2620000J0D01*
G01*
X38144775Y-35175000D02*
X38144775Y-34675000D01*
X38394775Y-34925000D02*
X37894775Y-34925000D01*
X32989000Y-33734000D02*
X32989000Y-33166000D01*
X33029000Y-33968000D02*
X33029000Y-32932000D01*
X33069000Y-34127000D02*
X33069000Y-32773000D01*
X33109000Y-34255000D02*
X33109000Y-32645000D01*
X33149000Y-34365000D02*
X33149000Y-32535000D01*
X33189000Y-34461000D02*
X33189000Y-32439000D01*
X33229000Y-34548000D02*
X33229000Y-32352000D01*
X33269000Y-34628000D02*
X33269000Y-32272000D01*
X33309000Y-34701000D02*
X33309000Y-32199000D01*
X33349000Y-34769000D02*
X33349000Y-32131000D01*
X33389000Y-34833000D02*
X33389000Y-32067000D01*
X33429000Y-34893000D02*
X33429000Y-32007000D01*
X33469000Y-34950000D02*
X33469000Y-31950000D01*
X33509000Y-35004000D02*
X33509000Y-31896000D01*
X33549000Y-35055000D02*
X33549000Y-31845000D01*
X33589000Y-32410000D02*
X33589000Y-31797000D01*
X33589000Y-35103000D02*
X33589000Y-34490000D01*
X33629000Y-32410000D02*
X33629000Y-31751000D01*
X33629000Y-35149000D02*
X33629000Y-34490000D01*
X33669000Y-32410000D02*
X33669000Y-31707000D01*
X33669000Y-35193000D02*
X33669000Y-34490000D01*
X33709000Y-32410000D02*
X33709000Y-31665000D01*
X33709000Y-35235000D02*
X33709000Y-34490000D01*
X33749000Y-32410000D02*
X33749000Y-31624000D01*
X33749000Y-35276000D02*
X33749000Y-34490000D01*
X33789000Y-32410000D02*
X33789000Y-31586000D01*
X33789000Y-35314000D02*
X33789000Y-34490000D01*
X33829000Y-32410000D02*
X33829000Y-31549000D01*
X33829000Y-35351000D02*
X33829000Y-34490000D01*
X33869000Y-32410000D02*
X33869000Y-31513000D01*
X33869000Y-35387000D02*
X33869000Y-34490000D01*
X33909000Y-32410000D02*
X33909000Y-31479000D01*
X33909000Y-35421000D02*
X33909000Y-34490000D01*
X33949000Y-32410000D02*
X33949000Y-31446000D01*
X33949000Y-35454000D02*
X33949000Y-34490000D01*
X33989000Y-32410000D02*
X33989000Y-31415000D01*
X33989000Y-35485000D02*
X33989000Y-34490000D01*
X34029000Y-32410000D02*
X34029000Y-31385000D01*
X34029000Y-35515000D02*
X34029000Y-34490000D01*
X34069000Y-32410000D02*
X34069000Y-31355000D01*
X34069000Y-35545000D02*
X34069000Y-34490000D01*
X34109000Y-32410000D02*
X34109000Y-31328000D01*
X34109000Y-35572000D02*
X34109000Y-34490000D01*
X34149000Y-32410000D02*
X34149000Y-31301000D01*
X34149000Y-35599000D02*
X34149000Y-34490000D01*
X34189000Y-32410000D02*
X34189000Y-31275000D01*
X34189000Y-35625000D02*
X34189000Y-34490000D01*
X34229000Y-32410000D02*
X34229000Y-31250000D01*
X34229000Y-35650000D02*
X34229000Y-34490000D01*
X34269000Y-32410000D02*
X34269000Y-31226000D01*
X34269000Y-35674000D02*
X34269000Y-34490000D01*
X34309000Y-32410000D02*
X34309000Y-31203000D01*
X34309000Y-35697000D02*
X34309000Y-34490000D01*
X34349000Y-32410000D02*
X34349000Y-31182000D01*
X34349000Y-35718000D02*
X34349000Y-34490000D01*
X34389000Y-32410000D02*
X34389000Y-31160000D01*
X34389000Y-35740000D02*
X34389000Y-34490000D01*
X34429000Y-32410000D02*
X34429000Y-31140000D01*
X34429000Y-35760000D02*
X34429000Y-34490000D01*
X34469000Y-32410000D02*
X34469000Y-31121000D01*
X34469000Y-35779000D02*
X34469000Y-34490000D01*
X34509000Y-32410000D02*
X34509000Y-31102000D01*
X34509000Y-35798000D02*
X34509000Y-34490000D01*
X34549000Y-32410000D02*
X34549000Y-31085000D01*
X34549000Y-35815000D02*
X34549000Y-34490000D01*
X34589000Y-32410000D02*
X34589000Y-31068000D01*
X34589000Y-35832000D02*
X34589000Y-34490000D01*
X34629000Y-32410000D02*
X34629000Y-31052000D01*
X34629000Y-35848000D02*
X34629000Y-34490000D01*
X34669000Y-32410000D02*
X34669000Y-31036000D01*
X34669000Y-35864000D02*
X34669000Y-34490000D01*
X34709000Y-32410000D02*
X34709000Y-31022000D01*
X34709000Y-35878000D02*
X34709000Y-34490000D01*
X34749000Y-32410000D02*
X34749000Y-31008000D01*
X34749000Y-35892000D02*
X34749000Y-34490000D01*
X34789000Y-32410000D02*
X34789000Y-30995000D01*
X34789000Y-35905000D02*
X34789000Y-34490000D01*
X34829000Y-32410000D02*
X34829000Y-30982000D01*
X34829000Y-35918000D02*
X34829000Y-34490000D01*
X34869000Y-32410000D02*
X34869000Y-30970000D01*
X34869000Y-35930000D02*
X34869000Y-34490000D01*
X34910000Y-32410000D02*
X34910000Y-30959000D01*
X34910000Y-35941000D02*
X34910000Y-34490000D01*
X34950000Y-32410000D02*
X34950000Y-30949000D01*
X34950000Y-35951000D02*
X34950000Y-34490000D01*
X34990000Y-32410000D02*
X34990000Y-30939000D01*
X34990000Y-35961000D02*
X34990000Y-34490000D01*
X35030000Y-32410000D02*
X35030000Y-30930000D01*
X35030000Y-35970000D02*
X35030000Y-34490000D01*
X35070000Y-32410000D02*
X35070000Y-30922000D01*
X35070000Y-35978000D02*
X35070000Y-34490000D01*
X35110000Y-32410000D02*
X35110000Y-30914000D01*
X35110000Y-35986000D02*
X35110000Y-34490000D01*
X35150000Y-32410000D02*
X35150000Y-30907000D01*
X35150000Y-35993000D02*
X35150000Y-34490000D01*
X35190000Y-32410000D02*
X35190000Y-30900000D01*
X35190000Y-36000000D02*
X35190000Y-34490000D01*
X35230000Y-32410000D02*
X35230000Y-30894000D01*
X35230000Y-36006000D02*
X35230000Y-34490000D01*
X35270000Y-32410000D02*
X35270000Y-30889000D01*
X35270000Y-36011000D02*
X35270000Y-34490000D01*
X35310000Y-32410000D02*
X35310000Y-30885000D01*
X35310000Y-36015000D02*
X35310000Y-34490000D01*
X35350000Y-32410000D02*
X35350000Y-30881000D01*
X35350000Y-36019000D02*
X35350000Y-34490000D01*
X35390000Y-32410000D02*
X35390000Y-30877000D01*
X35390000Y-36023000D02*
X35390000Y-34490000D01*
X35430000Y-32410000D02*
X35430000Y-30874000D01*
X35430000Y-36026000D02*
X35430000Y-34490000D01*
X35470000Y-32410000D02*
X35470000Y-30872000D01*
X35470000Y-36028000D02*
X35470000Y-34490000D01*
X35510000Y-32410000D02*
X35510000Y-30871000D01*
X35510000Y-36029000D02*
X35510000Y-34490000D01*
X35550000Y-36030000D02*
X35550000Y-34490000D01*
X35550000Y-32410000D02*
X35550000Y-30870000D01*
X35590000Y-36030000D02*
X35590000Y-34490000D01*
X35590000Y-32410000D02*
X35590000Y-30870000D01*
X38210000Y-33450000D02*
G75*
G03X38210000Y-33450000I-2620000J0D01*
G01*
X29970000Y-40250000D02*
G75*
G03X29970000Y-40250000I-2620000J0D01*
G01*
X27350000Y-39210000D02*
X27350000Y-37670000D01*
X27350000Y-42830000D02*
X27350000Y-41290000D01*
X27310000Y-39210000D02*
X27310000Y-37670000D01*
X27310000Y-42830000D02*
X27310000Y-41290000D01*
X27270000Y-42829000D02*
X27270000Y-41290000D01*
X27270000Y-39210000D02*
X27270000Y-37671000D01*
X27230000Y-42828000D02*
X27230000Y-41290000D01*
X27230000Y-39210000D02*
X27230000Y-37672000D01*
X27190000Y-42826000D02*
X27190000Y-41290000D01*
X27190000Y-39210000D02*
X27190000Y-37674000D01*
X27150000Y-42823000D02*
X27150000Y-41290000D01*
X27150000Y-39210000D02*
X27150000Y-37677000D01*
X27110000Y-42819000D02*
X27110000Y-41290000D01*
X27110000Y-39210000D02*
X27110000Y-37681000D01*
X27070000Y-42815000D02*
X27070000Y-41290000D01*
X27070000Y-39210000D02*
X27070000Y-37685000D01*
X27030000Y-42811000D02*
X27030000Y-41290000D01*
X27030000Y-39210000D02*
X27030000Y-37689000D01*
X26990000Y-42806000D02*
X26990000Y-41290000D01*
X26990000Y-39210000D02*
X26990000Y-37694000D01*
X26950000Y-42800000D02*
X26950000Y-41290000D01*
X26950000Y-39210000D02*
X26950000Y-37700000D01*
X26910000Y-42793000D02*
X26910000Y-41290000D01*
X26910000Y-39210000D02*
X26910000Y-37707000D01*
X26870000Y-42786000D02*
X26870000Y-41290000D01*
X26870000Y-39210000D02*
X26870000Y-37714000D01*
X26830000Y-42778000D02*
X26830000Y-41290000D01*
X26830000Y-39210000D02*
X26830000Y-37722000D01*
X26790000Y-42770000D02*
X26790000Y-41290000D01*
X26790000Y-39210000D02*
X26790000Y-37730000D01*
X26750000Y-42761000D02*
X26750000Y-41290000D01*
X26750000Y-39210000D02*
X26750000Y-37739000D01*
X26710000Y-42751000D02*
X26710000Y-41290000D01*
X26710000Y-39210000D02*
X26710000Y-37749000D01*
X26670000Y-42741000D02*
X26670000Y-41290000D01*
X26670000Y-39210000D02*
X26670000Y-37759000D01*
X26629000Y-42730000D02*
X26629000Y-41290000D01*
X26629000Y-39210000D02*
X26629000Y-37770000D01*
X26589000Y-42718000D02*
X26589000Y-41290000D01*
X26589000Y-39210000D02*
X26589000Y-37782000D01*
X26549000Y-42705000D02*
X26549000Y-41290000D01*
X26549000Y-39210000D02*
X26549000Y-37795000D01*
X26509000Y-42692000D02*
X26509000Y-41290000D01*
X26509000Y-39210000D02*
X26509000Y-37808000D01*
X26469000Y-42678000D02*
X26469000Y-41290000D01*
X26469000Y-39210000D02*
X26469000Y-37822000D01*
X26429000Y-42664000D02*
X26429000Y-41290000D01*
X26429000Y-39210000D02*
X26429000Y-37836000D01*
X26389000Y-42648000D02*
X26389000Y-41290000D01*
X26389000Y-39210000D02*
X26389000Y-37852000D01*
X26349000Y-42632000D02*
X26349000Y-41290000D01*
X26349000Y-39210000D02*
X26349000Y-37868000D01*
X26309000Y-42615000D02*
X26309000Y-41290000D01*
X26309000Y-39210000D02*
X26309000Y-37885000D01*
X26269000Y-42598000D02*
X26269000Y-41290000D01*
X26269000Y-39210000D02*
X26269000Y-37902000D01*
X26229000Y-42579000D02*
X26229000Y-41290000D01*
X26229000Y-39210000D02*
X26229000Y-37921000D01*
X26189000Y-42560000D02*
X26189000Y-41290000D01*
X26189000Y-39210000D02*
X26189000Y-37940000D01*
X26149000Y-42540000D02*
X26149000Y-41290000D01*
X26149000Y-39210000D02*
X26149000Y-37960000D01*
X26109000Y-42518000D02*
X26109000Y-41290000D01*
X26109000Y-39210000D02*
X26109000Y-37982000D01*
X26069000Y-42497000D02*
X26069000Y-41290000D01*
X26069000Y-39210000D02*
X26069000Y-38003000D01*
X26029000Y-42474000D02*
X26029000Y-41290000D01*
X26029000Y-39210000D02*
X26029000Y-38026000D01*
X25989000Y-42450000D02*
X25989000Y-41290000D01*
X25989000Y-39210000D02*
X25989000Y-38050000D01*
X25949000Y-42425000D02*
X25949000Y-41290000D01*
X25949000Y-39210000D02*
X25949000Y-38075000D01*
X25909000Y-42399000D02*
X25909000Y-41290000D01*
X25909000Y-39210000D02*
X25909000Y-38101000D01*
X25869000Y-42372000D02*
X25869000Y-41290000D01*
X25869000Y-39210000D02*
X25869000Y-38128000D01*
X25829000Y-42345000D02*
X25829000Y-41290000D01*
X25829000Y-39210000D02*
X25829000Y-38155000D01*
X25789000Y-42315000D02*
X25789000Y-41290000D01*
X25789000Y-39210000D02*
X25789000Y-38185000D01*
X25749000Y-42285000D02*
X25749000Y-41290000D01*
X25749000Y-39210000D02*
X25749000Y-38215000D01*
X25709000Y-42254000D02*
X25709000Y-41290000D01*
X25709000Y-39210000D02*
X25709000Y-38246000D01*
X25669000Y-42221000D02*
X25669000Y-41290000D01*
X25669000Y-39210000D02*
X25669000Y-38279000D01*
X25629000Y-42187000D02*
X25629000Y-41290000D01*
X25629000Y-39210000D02*
X25629000Y-38313000D01*
X25589000Y-42151000D02*
X25589000Y-41290000D01*
X25589000Y-39210000D02*
X25589000Y-38349000D01*
X25549000Y-42114000D02*
X25549000Y-41290000D01*
X25549000Y-39210000D02*
X25549000Y-38386000D01*
X25509000Y-42076000D02*
X25509000Y-41290000D01*
X25509000Y-39210000D02*
X25509000Y-38424000D01*
X25469000Y-42035000D02*
X25469000Y-41290000D01*
X25469000Y-39210000D02*
X25469000Y-38465000D01*
X25429000Y-41993000D02*
X25429000Y-41290000D01*
X25429000Y-39210000D02*
X25429000Y-38507000D01*
X25389000Y-41949000D02*
X25389000Y-41290000D01*
X25389000Y-39210000D02*
X25389000Y-38551000D01*
X25349000Y-41903000D02*
X25349000Y-41290000D01*
X25349000Y-39210000D02*
X25349000Y-38597000D01*
X25309000Y-41855000D02*
X25309000Y-38645000D01*
X25269000Y-41804000D02*
X25269000Y-38696000D01*
X25229000Y-41750000D02*
X25229000Y-38750000D01*
X25189000Y-41693000D02*
X25189000Y-38807000D01*
X25149000Y-41633000D02*
X25149000Y-38867000D01*
X25109000Y-41569000D02*
X25109000Y-38931000D01*
X25069000Y-41501000D02*
X25069000Y-38999000D01*
X25029000Y-41428000D02*
X25029000Y-39072000D01*
X24989000Y-41348000D02*
X24989000Y-39152000D01*
X24949000Y-41261000D02*
X24949000Y-39239000D01*
X24909000Y-41165000D02*
X24909000Y-39335000D01*
X24869000Y-41055000D02*
X24869000Y-39445000D01*
X24829000Y-40927000D02*
X24829000Y-39573000D01*
X24789000Y-40768000D02*
X24789000Y-39732000D01*
X24749000Y-40534000D02*
X24749000Y-39966000D01*
X30154775Y-41725000D02*
X29654775Y-41725000D01*
X29904775Y-41975000D02*
X29904775Y-41475000D01*
X38190000Y-40100000D02*
G75*
G03X38190000Y-40100000I-2620000J0D01*
G01*
X35570000Y-39060000D02*
X35570000Y-37520000D01*
X35570000Y-42680000D02*
X35570000Y-41140000D01*
X35530000Y-39060000D02*
X35530000Y-37520000D01*
X35530000Y-42680000D02*
X35530000Y-41140000D01*
X35490000Y-42679000D02*
X35490000Y-41140000D01*
X35490000Y-39060000D02*
X35490000Y-37521000D01*
X35450000Y-42678000D02*
X35450000Y-41140000D01*
X35450000Y-39060000D02*
X35450000Y-37522000D01*
X35410000Y-42676000D02*
X35410000Y-41140000D01*
X35410000Y-39060000D02*
X35410000Y-37524000D01*
X35370000Y-42673000D02*
X35370000Y-41140000D01*
X35370000Y-39060000D02*
X35370000Y-37527000D01*
X35330000Y-42669000D02*
X35330000Y-41140000D01*
X35330000Y-39060000D02*
X35330000Y-37531000D01*
X35290000Y-42665000D02*
X35290000Y-41140000D01*
X35290000Y-39060000D02*
X35290000Y-37535000D01*
X35250000Y-42661000D02*
X35250000Y-41140000D01*
X35250000Y-39060000D02*
X35250000Y-37539000D01*
X35210000Y-42656000D02*
X35210000Y-41140000D01*
X35210000Y-39060000D02*
X35210000Y-37544000D01*
X35170000Y-42650000D02*
X35170000Y-41140000D01*
X35170000Y-39060000D02*
X35170000Y-37550000D01*
X35130000Y-42643000D02*
X35130000Y-41140000D01*
X35130000Y-39060000D02*
X35130000Y-37557000D01*
X35090000Y-42636000D02*
X35090000Y-41140000D01*
X35090000Y-39060000D02*
X35090000Y-37564000D01*
X35050000Y-42628000D02*
X35050000Y-41140000D01*
X35050000Y-39060000D02*
X35050000Y-37572000D01*
X35010000Y-42620000D02*
X35010000Y-41140000D01*
X35010000Y-39060000D02*
X35010000Y-37580000D01*
X34970000Y-42611000D02*
X34970000Y-41140000D01*
X34970000Y-39060000D02*
X34970000Y-37589000D01*
X34930000Y-42601000D02*
X34930000Y-41140000D01*
X34930000Y-39060000D02*
X34930000Y-37599000D01*
X34890000Y-42591000D02*
X34890000Y-41140000D01*
X34890000Y-39060000D02*
X34890000Y-37609000D01*
X34849000Y-42580000D02*
X34849000Y-41140000D01*
X34849000Y-39060000D02*
X34849000Y-37620000D01*
X34809000Y-42568000D02*
X34809000Y-41140000D01*
X34809000Y-39060000D02*
X34809000Y-37632000D01*
X34769000Y-42555000D02*
X34769000Y-41140000D01*
X34769000Y-39060000D02*
X34769000Y-37645000D01*
X34729000Y-42542000D02*
X34729000Y-41140000D01*
X34729000Y-39060000D02*
X34729000Y-37658000D01*
X34689000Y-42528000D02*
X34689000Y-41140000D01*
X34689000Y-39060000D02*
X34689000Y-37672000D01*
X34649000Y-42514000D02*
X34649000Y-41140000D01*
X34649000Y-39060000D02*
X34649000Y-37686000D01*
X34609000Y-42498000D02*
X34609000Y-41140000D01*
X34609000Y-39060000D02*
X34609000Y-37702000D01*
X34569000Y-42482000D02*
X34569000Y-41140000D01*
X34569000Y-39060000D02*
X34569000Y-37718000D01*
X34529000Y-42465000D02*
X34529000Y-41140000D01*
X34529000Y-39060000D02*
X34529000Y-37735000D01*
X34489000Y-42448000D02*
X34489000Y-41140000D01*
X34489000Y-39060000D02*
X34489000Y-37752000D01*
X34449000Y-42429000D02*
X34449000Y-41140000D01*
X34449000Y-39060000D02*
X34449000Y-37771000D01*
X34409000Y-42410000D02*
X34409000Y-41140000D01*
X34409000Y-39060000D02*
X34409000Y-37790000D01*
X34369000Y-42390000D02*
X34369000Y-41140000D01*
X34369000Y-39060000D02*
X34369000Y-37810000D01*
X34329000Y-42368000D02*
X34329000Y-41140000D01*
X34329000Y-39060000D02*
X34329000Y-37832000D01*
X34289000Y-42347000D02*
X34289000Y-41140000D01*
X34289000Y-39060000D02*
X34289000Y-37853000D01*
X34249000Y-42324000D02*
X34249000Y-41140000D01*
X34249000Y-39060000D02*
X34249000Y-37876000D01*
X34209000Y-42300000D02*
X34209000Y-41140000D01*
X34209000Y-39060000D02*
X34209000Y-37900000D01*
X34169000Y-42275000D02*
X34169000Y-41140000D01*
X34169000Y-39060000D02*
X34169000Y-37925000D01*
X34129000Y-42249000D02*
X34129000Y-41140000D01*
X34129000Y-39060000D02*
X34129000Y-37951000D01*
X34089000Y-42222000D02*
X34089000Y-41140000D01*
X34089000Y-39060000D02*
X34089000Y-37978000D01*
X34049000Y-42195000D02*
X34049000Y-41140000D01*
X34049000Y-39060000D02*
X34049000Y-38005000D01*
X34009000Y-42165000D02*
X34009000Y-41140000D01*
X34009000Y-39060000D02*
X34009000Y-38035000D01*
X33969000Y-42135000D02*
X33969000Y-41140000D01*
X33969000Y-39060000D02*
X33969000Y-38065000D01*
X33929000Y-42104000D02*
X33929000Y-41140000D01*
X33929000Y-39060000D02*
X33929000Y-38096000D01*
X33889000Y-42071000D02*
X33889000Y-41140000D01*
X33889000Y-39060000D02*
X33889000Y-38129000D01*
X33849000Y-42037000D02*
X33849000Y-41140000D01*
X33849000Y-39060000D02*
X33849000Y-38163000D01*
X33809000Y-42001000D02*
X33809000Y-41140000D01*
X33809000Y-39060000D02*
X33809000Y-38199000D01*
X33769000Y-41964000D02*
X33769000Y-41140000D01*
X33769000Y-39060000D02*
X33769000Y-38236000D01*
X33729000Y-41926000D02*
X33729000Y-41140000D01*
X33729000Y-39060000D02*
X33729000Y-38274000D01*
X33689000Y-41885000D02*
X33689000Y-41140000D01*
X33689000Y-39060000D02*
X33689000Y-38315000D01*
X33649000Y-41843000D02*
X33649000Y-41140000D01*
X33649000Y-39060000D02*
X33649000Y-38357000D01*
X33609000Y-41799000D02*
X33609000Y-41140000D01*
X33609000Y-39060000D02*
X33609000Y-38401000D01*
X33569000Y-41753000D02*
X33569000Y-41140000D01*
X33569000Y-39060000D02*
X33569000Y-38447000D01*
X33529000Y-41705000D02*
X33529000Y-38495000D01*
X33489000Y-41654000D02*
X33489000Y-38546000D01*
X33449000Y-41600000D02*
X33449000Y-38600000D01*
X33409000Y-41543000D02*
X33409000Y-38657000D01*
X33369000Y-41483000D02*
X33369000Y-38717000D01*
X33329000Y-41419000D02*
X33329000Y-38781000D01*
X33289000Y-41351000D02*
X33289000Y-38849000D01*
X33249000Y-41278000D02*
X33249000Y-38922000D01*
X33209000Y-41198000D02*
X33209000Y-39002000D01*
X33169000Y-41111000D02*
X33169000Y-39089000D01*
X33129000Y-41015000D02*
X33129000Y-39185000D01*
X33089000Y-40905000D02*
X33089000Y-39295000D01*
X33049000Y-40777000D02*
X33049000Y-39423000D01*
X33009000Y-40618000D02*
X33009000Y-39582000D01*
X32969000Y-40384000D02*
X32969000Y-39816000D01*
X38374775Y-41575000D02*
X37874775Y-41575000D01*
X38124775Y-41825000D02*
X38124775Y-41325000D01*
X35920000Y-94020000D02*
X35920000Y-96960000D01*
X35920000Y-96960000D02*
X41360000Y-96960000D01*
X41360000Y-96960000D02*
X41360000Y-94020000D01*
X41360000Y-94020000D02*
X35920000Y-94020000D01*
X33630000Y-95490000D02*
X35920000Y-95490000D01*
X43650000Y-95490000D02*
X41360000Y-95490000D01*
X36820000Y-94020000D02*
X36820000Y-96960000D01*
X36940000Y-94020000D02*
X36940000Y-96960000D01*
X36700000Y-94020000D02*
X36700000Y-96960000D01*
X46140462Y-46500000D02*
G75*
G03X44595170Y-52050000I-462J-2990000D01*
G01*
X46139538Y-46500000D02*
G75*
G02X47684830Y-52050000I462J-2990000D01*
G01*
X48640000Y-49490000D02*
G75*
G03X48640000Y-49490000I-2500000J0D01*
G01*
X44595000Y-52050000D02*
X47685000Y-52050000D01*
X50860000Y-47965000D02*
X50860000Y-51055000D01*
X55920000Y-49510000D02*
G75*
G03X55920000Y-49510000I-2500000J0D01*
G01*
X56410000Y-49509538D02*
G75*
G02X50860000Y-51054830I-2990000J-462D01*
G01*
X56410000Y-49510462D02*
G75*
G03X50860000Y-47965170I-2990000J462D01*
G01*
D13*
X92490000Y-81450000D02*
X92490000Y-73950000D01*
X118290000Y-81450000D02*
X92490000Y-81450000D01*
X118290000Y-73950000D02*
X118290000Y-81450000D01*
X92490000Y-73950000D02*
X118290000Y-73950000D01*
X92470000Y-65040000D02*
X118270000Y-65040000D01*
X118270000Y-65040000D02*
X118270000Y-72540000D01*
X118270000Y-72540000D02*
X92470000Y-72540000D01*
X92470000Y-72540000D02*
X92470000Y-65040000D01*
D12*
X16755244Y-46903318D02*
G75*
G02X16610000Y-46220000I1534756J683318D01*
G01*
X18973042Y-47755426D02*
G75*
G02X17606000Y-47755000I-683042J1535426D01*
G01*
X19825426Y-45536958D02*
G75*
G02X19825000Y-46904000I-1535426J-683042D01*
G01*
X17606958Y-44684574D02*
G75*
G02X18974000Y-44685000I683042J-1535426D01*
G01*
X16609747Y-46248805D02*
G75*
G02X16755000Y-45536000I1680253J28805D01*
G01*
X19970000Y-51220000D02*
G75*
G03X19970000Y-51220000I-1680000J0D01*
G01*
X19970000Y-56220000D02*
G75*
G03X19970000Y-56220000I-1680000J0D01*
G01*
X19970000Y-61220000D02*
G75*
G03X19970000Y-61220000I-1680000J0D01*
G01*
X19970000Y-66220000D02*
G75*
G03X19970000Y-66220000I-1680000J0D01*
G01*
X19970000Y-71220000D02*
G75*
G03X19970000Y-71220000I-1680000J0D01*
G01*
X19970000Y-76220000D02*
G75*
G03X19970000Y-76220000I-1680000J0D01*
G01*
X19970000Y-81220000D02*
G75*
G03X19970000Y-81220000I-1680000J0D01*
G01*
X19970000Y-86220000D02*
G75*
G03X19970000Y-86220000I-1680000J0D01*
G01*
X19970000Y-91220000D02*
G75*
G03X19970000Y-91220000I-1680000J0D01*
G01*
X19970000Y-96220000D02*
G75*
G03X19970000Y-96220000I-1680000J0D01*
G01*
X19970000Y-101220000D02*
G75*
G03X19970000Y-101220000I-1680000J0D01*
G01*
X14190000Y-43660000D02*
X14190000Y-103780000D01*
X15690000Y-43660000D02*
X15690000Y-103780000D01*
X20591000Y-43660000D02*
X20591000Y-103780000D01*
X23551000Y-43660000D02*
X23551000Y-103780000D01*
X13630000Y-43660000D02*
X13630000Y-103780000D01*
X23551000Y-43660000D02*
X13630000Y-43660000D01*
X23551000Y-103780000D02*
X13630000Y-103780000D01*
X19359000Y-52495000D02*
X19313000Y-52448000D01*
X17051000Y-50186000D02*
X17016000Y-50151000D01*
X19565000Y-52290000D02*
X19529000Y-52255000D01*
X17267000Y-49993000D02*
X17221000Y-49946000D01*
X19359000Y-57495000D02*
X19313000Y-57448000D01*
X17051000Y-55186000D02*
X17016000Y-55151000D01*
X19565000Y-57290000D02*
X19529000Y-57255000D01*
X17267000Y-54993000D02*
X17221000Y-54946000D01*
X19359000Y-62495000D02*
X19313000Y-62448000D01*
X17051000Y-60186000D02*
X17016000Y-60151000D01*
X19565000Y-62290000D02*
X19529000Y-62255000D01*
X17267000Y-59993000D02*
X17221000Y-59946000D01*
X19359000Y-67495000D02*
X19313000Y-67448000D01*
X17051000Y-65186000D02*
X17016000Y-65151000D01*
X19565000Y-67290000D02*
X19529000Y-67255000D01*
X17267000Y-64993000D02*
X17221000Y-64946000D01*
X19359000Y-72495000D02*
X19313000Y-72448000D01*
X17051000Y-70186000D02*
X17016000Y-70151000D01*
X19565000Y-72290000D02*
X19529000Y-72255000D01*
X17267000Y-69993000D02*
X17221000Y-69946000D01*
X19359000Y-77495000D02*
X19313000Y-77448000D01*
X17051000Y-75186000D02*
X17016000Y-75151000D01*
X19565000Y-77290000D02*
X19529000Y-77255000D01*
X17267000Y-74993000D02*
X17221000Y-74946000D01*
X19359000Y-82495000D02*
X19313000Y-82448000D01*
X17051000Y-80186000D02*
X17016000Y-80151000D01*
X19565000Y-82290000D02*
X19529000Y-82255000D01*
X17267000Y-79993000D02*
X17221000Y-79946000D01*
X19359000Y-87495000D02*
X19313000Y-87448000D01*
X17051000Y-85186000D02*
X17016000Y-85151000D01*
X19565000Y-87290000D02*
X19529000Y-87255000D01*
X17267000Y-84993000D02*
X17221000Y-84946000D01*
X19359000Y-92495000D02*
X19313000Y-92448000D01*
X17051000Y-90186000D02*
X17016000Y-90151000D01*
X19565000Y-92290000D02*
X19529000Y-92255000D01*
X17267000Y-89993000D02*
X17221000Y-89946000D01*
X19359000Y-97495000D02*
X19313000Y-97448000D01*
X17051000Y-95186000D02*
X17016000Y-95151000D01*
X19565000Y-97290000D02*
X19529000Y-97255000D01*
X17267000Y-94993000D02*
X17221000Y-94946000D01*
X19359000Y-102495000D02*
X19313000Y-102448000D01*
X17051000Y-100186000D02*
X17016000Y-100151000D01*
X19565000Y-102290000D02*
X19529000Y-102255000D01*
X17267000Y-99993000D02*
X17221000Y-99946000D01*
X14130000Y-43420000D02*
X13390000Y-43420000D01*
X13390000Y-43420000D02*
X13390000Y-43920000D01*
X129154756Y-59506682D02*
G75*
G02X129300000Y-60190000I-1534756J-683318D01*
G01*
X126936958Y-58654574D02*
G75*
G02X128304000Y-58655000I683042J-1535426D01*
G01*
X126084574Y-60873042D02*
G75*
G02X126085000Y-59506000I1535426J683042D01*
G01*
X128303042Y-61725426D02*
G75*
G02X126936000Y-61725000I-683042J1535426D01*
G01*
X129300253Y-60161195D02*
G75*
G02X129155000Y-60874000I-1680253J-28805D01*
G01*
X129300000Y-55190000D02*
G75*
G03X129300000Y-55190000I-1680000J0D01*
G01*
X131720000Y-62750000D02*
X131720000Y-52630000D01*
X130220000Y-62750000D02*
X130220000Y-52630000D01*
X125319000Y-62750000D02*
X125319000Y-52630000D01*
X122359000Y-62750000D02*
X122359000Y-52630000D01*
X132280000Y-62750000D02*
X132280000Y-52630000D01*
X122359000Y-62750000D02*
X132280000Y-62750000D01*
X122359000Y-52630000D02*
X132280000Y-52630000D01*
X126551000Y-53915000D02*
X126597000Y-53962000D01*
X128859000Y-56224000D02*
X128894000Y-56259000D01*
X126345000Y-54120000D02*
X126381000Y-54155000D01*
X128643000Y-56417000D02*
X128689000Y-56464000D01*
X131780000Y-62990000D02*
X132520000Y-62990000D01*
X132520000Y-62990000D02*
X132520000Y-62490000D01*
X36423318Y-105304756D02*
G75*
G02X35740000Y-105450000I-683318J1534756D01*
G01*
X37275426Y-103086958D02*
G75*
G02X37275000Y-104454000I-1535426J-683042D01*
G01*
X35056958Y-102234574D02*
G75*
G02X36424000Y-102235000I683042J-1535426D01*
G01*
X34204574Y-104453042D02*
G75*
G02X34205000Y-103086000I1535426J683042D01*
G01*
X35768805Y-105450253D02*
G75*
G02X35056000Y-105305000I-28805J1680253D01*
G01*
X42420000Y-103770000D02*
G75*
G03X42420000Y-103770000I-1680000J0D01*
G01*
X33180000Y-107870000D02*
X43300000Y-107870000D01*
X33180000Y-106370000D02*
X43300000Y-106370000D01*
X33180000Y-101469000D02*
X43300000Y-101469000D01*
X33180000Y-98509000D02*
X43300000Y-98509000D01*
X33180000Y-108430000D02*
X43300000Y-108430000D01*
X33180000Y-98509000D02*
X33180000Y-108430000D01*
X43300000Y-98509000D02*
X43300000Y-108430000D01*
X42015000Y-102701000D02*
X41968000Y-102747000D01*
X39706000Y-105009000D02*
X39671000Y-105044000D01*
X41810000Y-102495000D02*
X41775000Y-102531000D01*
X39513000Y-104793000D02*
X39466000Y-104839000D01*
X32940000Y-107930000D02*
X32940000Y-108670000D01*
X32940000Y-108670000D02*
X33440000Y-108670000D01*
X132590000Y-99120000D02*
X132590000Y-98620000D01*
X131850000Y-99120000D02*
X132590000Y-99120000D01*
X128713000Y-92547000D02*
X128759000Y-92594000D01*
X126415000Y-90250000D02*
X126451000Y-90285000D01*
X128929000Y-92354000D02*
X128964000Y-92389000D01*
X126621000Y-90045000D02*
X126667000Y-90092000D01*
X122429000Y-88760000D02*
X132350000Y-88760000D01*
X122429000Y-98880000D02*
X132350000Y-98880000D01*
X132350000Y-98880000D02*
X132350000Y-88760000D01*
X122429000Y-98880000D02*
X122429000Y-88760000D01*
X125389000Y-98880000D02*
X125389000Y-88760000D01*
X130290000Y-98880000D02*
X130290000Y-88760000D01*
X131790000Y-98880000D02*
X131790000Y-88760000D01*
X129370000Y-91320000D02*
G75*
G03X129370000Y-91320000I-1680000J0D01*
G01*
X129370253Y-96291195D02*
G75*
G02X129225000Y-97004000I-1680253J-28805D01*
G01*
X128373042Y-97855426D02*
G75*
G02X127006000Y-97855000I-683042J1535426D01*
G01*
X126154574Y-97003042D02*
G75*
G02X126155000Y-95636000I1535426J683042D01*
G01*
X127006958Y-94784574D02*
G75*
G02X128374000Y-94785000I683042J-1535426D01*
G01*
X129224756Y-95636682D02*
G75*
G02X129370000Y-96320000I-1534756J-683318D01*
G01*
X129154756Y-41616682D02*
G75*
G02X129300000Y-42300000I-1534756J-683318D01*
G01*
X126936958Y-40764574D02*
G75*
G02X128304000Y-40765000I683042J-1535426D01*
G01*
X126084574Y-42983042D02*
G75*
G02X126085000Y-41616000I1535426J683042D01*
G01*
X128303042Y-43835426D02*
G75*
G02X126936000Y-43835000I-683042J1535426D01*
G01*
X129300253Y-42271195D02*
G75*
G02X129155000Y-42984000I-1680253J-28805D01*
G01*
X129300000Y-37300000D02*
G75*
G03X129300000Y-37300000I-1680000J0D01*
G01*
X129300000Y-32300000D02*
G75*
G03X129300000Y-32300000I-1680000J0D01*
G01*
X129300000Y-27300000D02*
G75*
G03X129300000Y-27300000I-1680000J0D01*
G01*
X131720000Y-44860000D02*
X131720000Y-24739000D01*
X130220000Y-44860000D02*
X130220000Y-24739000D01*
X125319000Y-44860000D02*
X125319000Y-24739000D01*
X122359000Y-44860000D02*
X122359000Y-24739000D01*
X132280000Y-44860000D02*
X132280000Y-24739000D01*
X122359000Y-44860000D02*
X132280000Y-44860000D01*
X122359000Y-24739000D02*
X132280000Y-24739000D01*
X126551000Y-36025000D02*
X126597000Y-36072000D01*
X128859000Y-38334000D02*
X128894000Y-38369000D01*
X126345000Y-36230000D02*
X126381000Y-36265000D01*
X128643000Y-38527000D02*
X128689000Y-38574000D01*
X126551000Y-31025000D02*
X126597000Y-31072000D01*
X128859000Y-33334000D02*
X128894000Y-33369000D01*
X126345000Y-31230000D02*
X126381000Y-31265000D01*
X128643000Y-33527000D02*
X128689000Y-33574000D01*
X126551000Y-26025000D02*
X126597000Y-26072000D01*
X128859000Y-28334000D02*
X128894000Y-28369000D01*
X126345000Y-26230000D02*
X126381000Y-26265000D01*
X128643000Y-28527000D02*
X128689000Y-28574000D01*
X131780000Y-45100000D02*
X132520000Y-45100000D01*
X132520000Y-45100000D02*
X132520000Y-44600000D01*
X13390000Y-31960000D02*
X13390000Y-32460000D01*
X14130000Y-31960000D02*
X13390000Y-31960000D01*
X17267000Y-38533000D02*
X17221000Y-38486000D01*
X19565000Y-40830000D02*
X19529000Y-40795000D01*
X17051000Y-38726000D02*
X17016000Y-38691000D01*
X19359000Y-41035000D02*
X19313000Y-40988000D01*
X23551000Y-42320000D02*
X13630000Y-42320000D01*
X23551000Y-32200000D02*
X13630000Y-32200000D01*
X13630000Y-32200000D02*
X13630000Y-42320000D01*
X23551000Y-32200000D02*
X23551000Y-42320000D01*
X20591000Y-32200000D02*
X20591000Y-42320000D01*
X15690000Y-32200000D02*
X15690000Y-42320000D01*
X14190000Y-32200000D02*
X14190000Y-42320000D01*
X19970000Y-39760000D02*
G75*
G03X19970000Y-39760000I-1680000J0D01*
G01*
X16609747Y-34788805D02*
G75*
G02X16755000Y-34076000I1680253J28805D01*
G01*
X17606958Y-33224574D02*
G75*
G02X18974000Y-33225000I683042J-1535426D01*
G01*
X19825426Y-34076958D02*
G75*
G02X19825000Y-35444000I-1535426J-683042D01*
G01*
X18973042Y-36295426D02*
G75*
G02X17606000Y-36295000I-683042J1535426D01*
G01*
X16755244Y-35443318D02*
G75*
G02X16610000Y-34760000I1534756J683318D01*
G01*
D14*
X85044000Y-97561000D02*
G75*
G03X85044000Y-97561000I-175000J0D01*
G01*
D13*
X112480000Y-83570000D02*
X83480000Y-83570000D01*
X112480000Y-96270000D02*
X112480000Y-83570000D01*
X83480000Y-96270000D02*
X112480000Y-96270000D01*
X83480000Y-83570000D02*
X83480000Y-96270000D01*
X83550000Y-98210000D02*
X83550000Y-110910000D01*
X83550000Y-110910000D02*
X112550000Y-110910000D01*
X112550000Y-110910000D02*
X112550000Y-98210000D01*
X112550000Y-98210000D02*
X83550000Y-98210000D01*
D14*
X85114000Y-112201000D02*
G75*
G03X85114000Y-112201000I-175000J0D01*
G01*
D12*
X38540000Y-51440000D02*
X38540000Y-48000000D01*
X38540000Y-48000000D02*
X29300000Y-48000000D01*
X29300000Y-48000000D02*
X29300000Y-51440000D01*
X29300000Y-51440000D02*
X38540000Y-51440000D01*
X39230000Y-49720000D02*
X38540000Y-49720000D01*
X28610000Y-49720000D02*
X29300000Y-49720000D01*
X41350000Y-41190000D02*
X42040000Y-41190000D01*
X51970000Y-41190000D02*
X51280000Y-41190000D01*
X42040000Y-42910000D02*
X51280000Y-42910000D01*
X42040000Y-39470000D02*
X42040000Y-42910000D01*
X51280000Y-39470000D02*
X42040000Y-39470000D01*
X51280000Y-42910000D02*
X51280000Y-39470000D01*
D11*
X62735000Y-62430000D02*
X62735000Y-14805000D01*
X62735000Y-14805000D02*
X119885000Y-14805000D01*
X119885000Y-14805000D02*
X119885000Y-62430000D01*
X119885000Y-62430000D02*
X62735000Y-62430000D01*
D15*
X75970000Y-62960000D02*
X75970000Y-62960000D01*
X76170000Y-62960000D02*
X76170000Y-62960000D01*
X76170000Y-62960000D02*
G75*
G02X75970000Y-62960000I-100000J0D01*
G01*
X75970000Y-62960000D02*
G75*
G02X76170000Y-62960000I100000J0D01*
G01*
D12*
X31900000Y-82860000D02*
G75*
G02X33900000Y-82860000I1000000J0D01*
G01*
X33900000Y-82860000D02*
X35550000Y-82860000D01*
X35550000Y-82860000D02*
X35550000Y-57340000D01*
X35550000Y-57340000D02*
X30250000Y-57340000D01*
X30250000Y-57340000D02*
X30250000Y-82860000D01*
X30250000Y-82860000D02*
X31900000Y-82860000D01*
X38040000Y-82920000D02*
X38040000Y-57280000D01*
X38040000Y-57280000D02*
X27760000Y-57280000D01*
X27760000Y-57280000D02*
X27760000Y-82920000D01*
X27760000Y-82920000D02*
X38040000Y-82920000D01*
X47110000Y-59680000D02*
G75*
G02X45110000Y-59680000I-1000000J0D01*
G01*
X45110000Y-59680000D02*
X43460000Y-59680000D01*
X43460000Y-59680000D02*
X43460000Y-80120000D01*
X43460000Y-80120000D02*
X48760000Y-80120000D01*
X48760000Y-80120000D02*
X48760000Y-59680000D01*
X48760000Y-59680000D02*
X47110000Y-59680000D01*
X40970000Y-59620000D02*
X40970000Y-80180000D01*
X40970000Y-80180000D02*
X51250000Y-80180000D01*
X51250000Y-80180000D02*
X51250000Y-59620000D01*
X51250000Y-59620000D02*
X40970000Y-59620000D01*
X21061000Y-24740000D02*
X21061000Y-26250000D01*
X17360000Y-24740000D02*
X17360000Y-26250000D01*
X14090000Y-26250000D02*
X24330000Y-26250000D01*
X24330000Y-24740000D02*
X24330000Y-29381000D01*
X14090000Y-24740000D02*
X14090000Y-29381000D01*
X14090000Y-29381000D02*
X24330000Y-29381000D01*
X14090000Y-24740000D02*
X24330000Y-24740000D01*
X25130000Y-24670000D02*
X35370000Y-24670000D01*
X25130000Y-29311000D02*
X35370000Y-29311000D01*
X25130000Y-24670000D02*
X25130000Y-29311000D01*
X35370000Y-24670000D02*
X35370000Y-29311000D01*
X25130000Y-26180000D02*
X35370000Y-26180000D01*
X28400000Y-24670000D02*
X28400000Y-26180000D01*
X32101000Y-24670000D02*
X32101000Y-26180000D01*
X129164756Y-80916682D02*
G75*
G02X129310000Y-81600000I-1534756J-683318D01*
G01*
X126946958Y-80064574D02*
G75*
G02X128314000Y-80065000I683042J-1535426D01*
G01*
X126094574Y-82283042D02*
G75*
G02X126095000Y-80916000I1535426J683042D01*
G01*
X128313042Y-83135426D02*
G75*
G02X126946000Y-83135000I-683042J1535426D01*
G01*
X129310253Y-81571195D02*
G75*
G02X129165000Y-82284000I-1680253J-28805D01*
G01*
X129310000Y-76600000D02*
G75*
G03X129310000Y-76600000I-1680000J0D01*
G01*
X129310000Y-71600000D02*
G75*
G03X129310000Y-71600000I-1680000J0D01*
G01*
X129310000Y-66600000D02*
G75*
G03X129310000Y-66600000I-1680000J0D01*
G01*
X131730000Y-84160000D02*
X131730000Y-64039000D01*
X130230000Y-84160000D02*
X130230000Y-64039000D01*
X125329000Y-84160000D02*
X125329000Y-64039000D01*
X122369000Y-84160000D02*
X122369000Y-64039000D01*
X132290000Y-84160000D02*
X132290000Y-64039000D01*
X122369000Y-84160000D02*
X132290000Y-84160000D01*
X122369000Y-64039000D02*
X132290000Y-64039000D01*
X126561000Y-75325000D02*
X126607000Y-75372000D01*
X128869000Y-77634000D02*
X128904000Y-77669000D01*
X126355000Y-75530000D02*
X126391000Y-75565000D01*
X128653000Y-77827000D02*
X128699000Y-77874000D01*
X126561000Y-70325000D02*
X126607000Y-70372000D01*
X128869000Y-72634000D02*
X128904000Y-72669000D01*
X126355000Y-70530000D02*
X126391000Y-70565000D01*
X128653000Y-72827000D02*
X128699000Y-72874000D01*
X126561000Y-65325000D02*
X126607000Y-65372000D01*
X128869000Y-67634000D02*
X128904000Y-67669000D01*
X126355000Y-65530000D02*
X126391000Y-65565000D01*
X128653000Y-67827000D02*
X128699000Y-67874000D01*
X131790000Y-84400000D02*
X132530000Y-84400000D01*
X132530000Y-84400000D02*
X132530000Y-83900000D01*
D13*
X53909285Y-33149047D02*
X53969761Y-32967619D01*
X54030238Y-32907142D01*
X54151190Y-32846666D01*
X54332619Y-32846666D01*
X54453571Y-32907142D01*
X54514047Y-32967619D01*
X54574523Y-33088571D01*
X54574523Y-33572380D01*
X53304523Y-33572380D01*
X53304523Y-33149047D01*
X53365000Y-33028095D01*
X53425476Y-32967619D01*
X53546428Y-32907142D01*
X53667380Y-32907142D01*
X53788333Y-32967619D01*
X53848809Y-33028095D01*
X53909285Y-33149047D01*
X53909285Y-33572380D01*
X54574523Y-31576666D02*
X53969761Y-32000000D01*
X54574523Y-32302380D02*
X53304523Y-32302380D01*
X53304523Y-31818571D01*
X53365000Y-31697619D01*
X53425476Y-31637142D01*
X53546428Y-31576666D01*
X53727857Y-31576666D01*
X53848809Y-31637142D01*
X53909285Y-31697619D01*
X53969761Y-31818571D01*
X53969761Y-32302380D01*
X54574523Y-30367142D02*
X54574523Y-31092857D01*
X54574523Y-30730000D02*
X53304523Y-30730000D01*
X53485952Y-30850952D01*
X53606904Y-30971904D01*
X53667380Y-31092857D01*
D16*
X46367142Y-31556666D02*
X46414761Y-31604285D01*
X46462380Y-31747142D01*
X46462380Y-31842380D01*
X46414761Y-31985238D01*
X46319523Y-32080476D01*
X46224285Y-32128095D01*
X46033809Y-32175714D01*
X45890952Y-32175714D01*
X45700476Y-32128095D01*
X45605238Y-32080476D01*
X45510000Y-31985238D01*
X45462380Y-31842380D01*
X45462380Y-31747142D01*
X45510000Y-31604285D01*
X45557619Y-31556666D01*
X46462380Y-30604285D02*
X46462380Y-31175714D01*
X46462380Y-30890000D02*
X45462380Y-30890000D01*
X45605238Y-30985238D01*
X45700476Y-31080476D01*
X45748095Y-31175714D01*
X29443333Y-36757142D02*
X29395714Y-36804761D01*
X29252857Y-36852380D01*
X29157619Y-36852380D01*
X29014761Y-36804761D01*
X28919523Y-36709523D01*
X28871904Y-36614285D01*
X28824285Y-36423809D01*
X28824285Y-36280952D01*
X28871904Y-36090476D01*
X28919523Y-35995238D01*
X29014761Y-35900000D01*
X29157619Y-35852380D01*
X29252857Y-35852380D01*
X29395714Y-35900000D01*
X29443333Y-35947619D01*
X29824285Y-35947619D02*
X29871904Y-35900000D01*
X29967142Y-35852380D01*
X30205238Y-35852380D01*
X30300476Y-35900000D01*
X30348095Y-35947619D01*
X30395714Y-36042857D01*
X30395714Y-36138095D01*
X30348095Y-36280952D01*
X29776666Y-36852380D01*
X30395714Y-36852380D01*
X37773333Y-36687142D02*
X37725714Y-36734761D01*
X37582857Y-36782380D01*
X37487619Y-36782380D01*
X37344761Y-36734761D01*
X37249523Y-36639523D01*
X37201904Y-36544285D01*
X37154285Y-36353809D01*
X37154285Y-36210952D01*
X37201904Y-36020476D01*
X37249523Y-35925238D01*
X37344761Y-35830000D01*
X37487619Y-35782380D01*
X37582857Y-35782380D01*
X37725714Y-35830000D01*
X37773333Y-35877619D01*
X38106666Y-35782380D02*
X38725714Y-35782380D01*
X38392380Y-36163333D01*
X38535238Y-36163333D01*
X38630476Y-36210952D01*
X38678095Y-36258571D01*
X38725714Y-36353809D01*
X38725714Y-36591904D01*
X38678095Y-36687142D01*
X38630476Y-36734761D01*
X38535238Y-36782380D01*
X38249523Y-36782380D01*
X38154285Y-36734761D01*
X38106666Y-36687142D01*
X29313333Y-43677142D02*
X29265714Y-43724761D01*
X29122857Y-43772380D01*
X29027619Y-43772380D01*
X28884761Y-43724761D01*
X28789523Y-43629523D01*
X28741904Y-43534285D01*
X28694285Y-43343809D01*
X28694285Y-43200952D01*
X28741904Y-43010476D01*
X28789523Y-42915238D01*
X28884761Y-42820000D01*
X29027619Y-42772380D01*
X29122857Y-42772380D01*
X29265714Y-42820000D01*
X29313333Y-42867619D01*
X30170476Y-43105714D02*
X30170476Y-43772380D01*
X29932380Y-42724761D02*
X29694285Y-43439047D01*
X30313333Y-43439047D01*
X36973333Y-43947142D02*
X36925714Y-43994761D01*
X36782857Y-44042380D01*
X36687619Y-44042380D01*
X36544761Y-43994761D01*
X36449523Y-43899523D01*
X36401904Y-43804285D01*
X36354285Y-43613809D01*
X36354285Y-43470952D01*
X36401904Y-43280476D01*
X36449523Y-43185238D01*
X36544761Y-43090000D01*
X36687619Y-43042380D01*
X36782857Y-43042380D01*
X36925714Y-43090000D01*
X36973333Y-43137619D01*
X37878095Y-43042380D02*
X37401904Y-43042380D01*
X37354285Y-43518571D01*
X37401904Y-43470952D01*
X37497142Y-43423333D01*
X37735238Y-43423333D01*
X37830476Y-43470952D01*
X37878095Y-43518571D01*
X37925714Y-43613809D01*
X37925714Y-43851904D01*
X37878095Y-43947142D01*
X37830476Y-43994761D01*
X37735238Y-44042380D01*
X37497142Y-44042380D01*
X37401904Y-43994761D01*
X37354285Y-43947142D01*
X37901904Y-93472380D02*
X37901904Y-92472380D01*
X38140000Y-92472380D01*
X38282857Y-92520000D01*
X38378095Y-92615238D01*
X38425714Y-92710476D01*
X38473333Y-92900952D01*
X38473333Y-93043809D01*
X38425714Y-93234285D01*
X38378095Y-93329523D01*
X38282857Y-93424761D01*
X38140000Y-93472380D01*
X37901904Y-93472380D01*
X39425714Y-93472380D02*
X38854285Y-93472380D01*
X39140000Y-93472380D02*
X39140000Y-92472380D01*
X39044761Y-92615238D01*
X38949523Y-92710476D01*
X38854285Y-92758095D01*
X32028095Y-93842380D02*
X32028095Y-92842380D01*
X32599523Y-93842380D02*
X32170952Y-93270952D01*
X32599523Y-92842380D02*
X32028095Y-93413809D01*
X45261904Y-53982380D02*
X45261904Y-52982380D01*
X45500000Y-52982380D01*
X45642857Y-53030000D01*
X45738095Y-53125238D01*
X45785714Y-53220476D01*
X45833333Y-53410952D01*
X45833333Y-53553809D01*
X45785714Y-53744285D01*
X45738095Y-53839523D01*
X45642857Y-53934761D01*
X45500000Y-53982380D01*
X45261904Y-53982380D01*
X46214285Y-53077619D02*
X46261904Y-53030000D01*
X46357142Y-52982380D01*
X46595238Y-52982380D01*
X46690476Y-53030000D01*
X46738095Y-53077619D01*
X46785714Y-53172857D01*
X46785714Y-53268095D01*
X46738095Y-53410952D01*
X46166666Y-53982380D01*
X46785714Y-53982380D01*
X52591904Y-53982380D02*
X52591904Y-52982380D01*
X52830000Y-52982380D01*
X52972857Y-53030000D01*
X53068095Y-53125238D01*
X53115714Y-53220476D01*
X53163333Y-53410952D01*
X53163333Y-53553809D01*
X53115714Y-53744285D01*
X53068095Y-53839523D01*
X52972857Y-53934761D01*
X52830000Y-53982380D01*
X52591904Y-53982380D01*
X53496666Y-52982380D02*
X54115714Y-52982380D01*
X53782380Y-53363333D01*
X53925238Y-53363333D01*
X54020476Y-53410952D01*
X54068095Y-53458571D01*
X54115714Y-53553809D01*
X54115714Y-53791904D01*
X54068095Y-53887142D01*
X54020476Y-53934761D01*
X53925238Y-53982380D01*
X53639523Y-53982380D01*
X53544285Y-53934761D01*
X53496666Y-53887142D01*
D13*
X90646666Y-76989285D02*
X90223333Y-76989285D01*
X90223333Y-77654523D02*
X90223333Y-76384523D01*
X90828095Y-76384523D01*
X91977142Y-77654523D02*
X91251428Y-77654523D01*
X91614285Y-77654523D02*
X91614285Y-76384523D01*
X91493333Y-76565952D01*
X91372380Y-76686904D01*
X91251428Y-76747380D01*
X90366666Y-68069285D02*
X89943333Y-68069285D01*
X89943333Y-68734523D02*
X89943333Y-67464523D01*
X90548095Y-67464523D01*
X90971428Y-67585476D02*
X91031904Y-67525000D01*
X91152857Y-67464523D01*
X91455238Y-67464523D01*
X91576190Y-67525000D01*
X91636666Y-67585476D01*
X91697142Y-67706428D01*
X91697142Y-67827380D01*
X91636666Y-68008809D01*
X90910952Y-68734523D01*
X91697142Y-68734523D01*
D16*
X24002380Y-74053333D02*
X24716666Y-74053333D01*
X24859523Y-74100952D01*
X24954761Y-74196190D01*
X25002380Y-74339047D01*
X25002380Y-74434285D01*
X25002380Y-73053333D02*
X25002380Y-73624761D01*
X25002380Y-73339047D02*
X24002380Y-73339047D01*
X24145238Y-73434285D01*
X24240476Y-73529523D01*
X24288095Y-73624761D01*
X120812380Y-58023333D02*
X121526666Y-58023333D01*
X121669523Y-58070952D01*
X121764761Y-58166190D01*
X121812380Y-58309047D01*
X121812380Y-58404285D01*
X120812380Y-57642380D02*
X120812380Y-57023333D01*
X121193333Y-57356666D01*
X121193333Y-57213809D01*
X121240952Y-57118571D01*
X121288571Y-57070952D01*
X121383809Y-57023333D01*
X121621904Y-57023333D01*
X121717142Y-57070952D01*
X121764761Y-57118571D01*
X121812380Y-57213809D01*
X121812380Y-57499523D01*
X121764761Y-57594761D01*
X121717142Y-57642380D01*
X31446666Y-102492380D02*
X31446666Y-103206666D01*
X31399047Y-103349523D01*
X31303809Y-103444761D01*
X31160952Y-103492380D01*
X31065714Y-103492380D01*
X32351428Y-102825714D02*
X32351428Y-103492380D01*
X32113333Y-102444761D02*
X31875238Y-103159047D01*
X32494285Y-103159047D01*
X120882380Y-94153333D02*
X121596666Y-94153333D01*
X121739523Y-94200952D01*
X121834761Y-94296190D01*
X121882380Y-94439047D01*
X121882380Y-94534285D01*
X120882380Y-93200952D02*
X120882380Y-93677142D01*
X121358571Y-93724761D01*
X121310952Y-93677142D01*
X121263333Y-93581904D01*
X121263333Y-93343809D01*
X121310952Y-93248571D01*
X121358571Y-93200952D01*
X121453809Y-93153333D01*
X121691904Y-93153333D01*
X121787142Y-93200952D01*
X121834761Y-93248571D01*
X121882380Y-93343809D01*
X121882380Y-93581904D01*
X121834761Y-93677142D01*
X121787142Y-93724761D01*
X120812380Y-35133333D02*
X121526666Y-35133333D01*
X121669523Y-35180952D01*
X121764761Y-35276190D01*
X121812380Y-35419047D01*
X121812380Y-35514285D01*
X120812380Y-34228571D02*
X120812380Y-34419047D01*
X120860000Y-34514285D01*
X120907619Y-34561904D01*
X121050476Y-34657142D01*
X121240952Y-34704761D01*
X121621904Y-34704761D01*
X121717142Y-34657142D01*
X121764761Y-34609523D01*
X121812380Y-34514285D01*
X121812380Y-34323809D01*
X121764761Y-34228571D01*
X121717142Y-34180952D01*
X121621904Y-34133333D01*
X121383809Y-34133333D01*
X121288571Y-34180952D01*
X121240952Y-34228571D01*
X121193333Y-34323809D01*
X121193333Y-34514285D01*
X121240952Y-34609523D01*
X121288571Y-34657142D01*
X121383809Y-34704761D01*
X18282380Y-31503333D02*
X18996666Y-31503333D01*
X19139523Y-31550952D01*
X19234761Y-31646190D01*
X19282380Y-31789047D01*
X19282380Y-31884285D01*
X18282380Y-31122380D02*
X18282380Y-30455714D01*
X19282380Y-30884285D01*
D13*
X80542619Y-91604523D02*
X80542619Y-90334523D01*
X81268333Y-91604523D02*
X80724047Y-90878809D01*
X81268333Y-90334523D02*
X80542619Y-91060238D01*
X82477857Y-91604523D02*
X81752142Y-91604523D01*
X82115000Y-91604523D02*
X82115000Y-90334523D01*
X81994047Y-90515952D01*
X81873095Y-90636904D01*
X81752142Y-90697380D01*
X80372619Y-104604523D02*
X80372619Y-103334523D01*
X81098333Y-104604523D02*
X80554047Y-103878809D01*
X81098333Y-103334523D02*
X80372619Y-104060238D01*
X81582142Y-103455476D02*
X81642619Y-103395000D01*
X81763571Y-103334523D01*
X82065952Y-103334523D01*
X82186904Y-103395000D01*
X82247380Y-103455476D01*
X82307857Y-103576428D01*
X82307857Y-103697380D01*
X82247380Y-103878809D01*
X81521666Y-104604523D01*
X82307857Y-104604523D01*
D16*
X33753333Y-52892380D02*
X33420000Y-52416190D01*
X33181904Y-52892380D02*
X33181904Y-51892380D01*
X33562857Y-51892380D01*
X33658095Y-51940000D01*
X33705714Y-51987619D01*
X33753333Y-52082857D01*
X33753333Y-52225714D01*
X33705714Y-52320952D01*
X33658095Y-52368571D01*
X33562857Y-52416190D01*
X33181904Y-52416190D01*
X34705714Y-52892380D02*
X34134285Y-52892380D01*
X34420000Y-52892380D02*
X34420000Y-51892380D01*
X34324761Y-52035238D01*
X34229523Y-52130476D01*
X34134285Y-52178095D01*
X46493333Y-44362380D02*
X46160000Y-43886190D01*
X45921904Y-44362380D02*
X45921904Y-43362380D01*
X46302857Y-43362380D01*
X46398095Y-43410000D01*
X46445714Y-43457619D01*
X46493333Y-43552857D01*
X46493333Y-43695714D01*
X46445714Y-43790952D01*
X46398095Y-43838571D01*
X46302857Y-43886190D01*
X45921904Y-43886190D01*
X46874285Y-43457619D02*
X46921904Y-43410000D01*
X47017142Y-43362380D01*
X47255238Y-43362380D01*
X47350476Y-43410000D01*
X47398095Y-43457619D01*
X47445714Y-43552857D01*
X47445714Y-43648095D01*
X47398095Y-43790952D01*
X46826666Y-44362380D01*
X47445714Y-44362380D01*
D13*
X74354523Y-65807619D02*
X74354523Y-65081904D01*
X75624523Y-65444761D02*
X74354523Y-65444761D01*
X75624523Y-63993333D02*
X75624523Y-64719047D01*
X75624523Y-64356190D02*
X74354523Y-64356190D01*
X74535952Y-64477142D01*
X74656904Y-64598095D01*
X74717380Y-64719047D01*
D16*
X32138095Y-83312380D02*
X32138095Y-84121904D01*
X32185714Y-84217142D01*
X32233333Y-84264761D01*
X32328571Y-84312380D01*
X32519047Y-84312380D01*
X32614285Y-84264761D01*
X32661904Y-84217142D01*
X32709523Y-84121904D01*
X32709523Y-83312380D01*
X33709523Y-84312380D02*
X33138095Y-84312380D01*
X33423809Y-84312380D02*
X33423809Y-83312380D01*
X33328571Y-83455238D01*
X33233333Y-83550476D01*
X33138095Y-83598095D01*
X45348095Y-58132380D02*
X45348095Y-58941904D01*
X45395714Y-59037142D01*
X45443333Y-59084761D01*
X45538571Y-59132380D01*
X45729047Y-59132380D01*
X45824285Y-59084761D01*
X45871904Y-59037142D01*
X45919523Y-58941904D01*
X45919523Y-58132380D01*
X46348095Y-58227619D02*
X46395714Y-58180000D01*
X46490952Y-58132380D01*
X46729047Y-58132380D01*
X46824285Y-58180000D01*
X46871904Y-58227619D01*
X46919523Y-58322857D01*
X46919523Y-58418095D01*
X46871904Y-58560952D01*
X46300476Y-59132380D01*
X46919523Y-59132380D01*
X18448095Y-23192380D02*
X18448095Y-24001904D01*
X18495714Y-24097142D01*
X18543333Y-24144761D01*
X18638571Y-24192380D01*
X18829047Y-24192380D01*
X18924285Y-24144761D01*
X18971904Y-24097142D01*
X19019523Y-24001904D01*
X19019523Y-23192380D01*
X19400476Y-23192380D02*
X20019523Y-23192380D01*
X19686190Y-23573333D01*
X19829047Y-23573333D01*
X19924285Y-23620952D01*
X19971904Y-23668571D01*
X20019523Y-23763809D01*
X20019523Y-24001904D01*
X19971904Y-24097142D01*
X19924285Y-24144761D01*
X19829047Y-24192380D01*
X19543333Y-24192380D01*
X19448095Y-24144761D01*
X19400476Y-24097142D01*
X29488095Y-23122380D02*
X29488095Y-23931904D01*
X29535714Y-24027142D01*
X29583333Y-24074761D01*
X29678571Y-24122380D01*
X29869047Y-24122380D01*
X29964285Y-24074761D01*
X30011904Y-24027142D01*
X30059523Y-23931904D01*
X30059523Y-23122380D01*
X30964285Y-23455714D02*
X30964285Y-24122380D01*
X30726190Y-23074761D02*
X30488095Y-23789047D01*
X31107142Y-23789047D01*
X120822380Y-74433333D02*
X121536666Y-74433333D01*
X121679523Y-74480952D01*
X121774761Y-74576190D01*
X121822380Y-74719047D01*
X121822380Y-74814285D01*
X120917619Y-74004761D02*
X120870000Y-73957142D01*
X120822380Y-73861904D01*
X120822380Y-73623809D01*
X120870000Y-73528571D01*
X120917619Y-73480952D01*
X121012857Y-73433333D01*
X121108095Y-73433333D01*
X121250952Y-73480952D01*
X121822380Y-74052380D01*
X121822380Y-73433333D01*
M02*
