M48
; DRILL file {KiCad (5.1.2)-2} date 13-Jan-20 11:24:26 PM
; FORMAT={-:-/ absolute / metric / decimal}
; #@! TF.CreationDate,2020-01-13T23:24:26+05:30
; #@! TF.GenerationSoftware,Kicad,Pcbnew,(5.1.2)-2
; #@! TF.FileFunction,Plated,1,2,PTH
FMAT,2
METRIC
T1C0.800
T2C0.900
T3C1.014
T4C1.100
T5C1.200
T6C1.300
T7C1.400
T8C1.450
T9C1.600
%
G90
G05
T1
X27.57Y-49.72
X40.27Y-49.72
X29.09Y-58.67
X29.09Y-61.21
X29.09Y-63.75
X29.09Y-66.29
X29.09Y-68.83
X29.09Y-71.37
X29.09Y-73.91
X29.09Y-76.45
X29.09Y-78.99
X29.09Y-81.53
X36.71Y-58.67
X36.71Y-61.21
X36.71Y-63.75
X36.71Y-66.29
X36.71Y-68.83
X36.71Y-71.37
X36.71Y-73.91
X36.71Y-76.45
X36.71Y-78.99
X36.71Y-81.53
X34.59Y-33.45
X36.59Y-33.45
X26.3Y-33.63
X28.3Y-33.63
X34.57Y-40.1
X36.57Y-40.1
X42.3Y-61.01
X42.3Y-63.55
X42.3Y-66.09
X42.3Y-68.63
X42.3Y-71.17
X42.3Y-73.71
X42.3Y-76.25
X42.3Y-78.79
X49.92Y-61.01
X49.92Y-63.55
X49.92Y-66.09
X49.92Y-68.63
X49.92Y-71.17
X49.92Y-73.71
X49.92Y-76.25
X49.92Y-78.79
X40.31Y-41.19
X53.01Y-41.19
X26.35Y-40.25
X28.35Y-40.25
T2
X46.14Y-48.22
X46.14Y-50.76
X52.15Y-49.51
X54.69Y-49.51
T3
X76.07Y-20.076
X76.07Y-57.16
X86.23Y-20.076
X86.23Y-57.16
X96.39Y-20.076
X96.39Y-57.16
X106.55Y-20.076
X106.55Y-57.16
T4
X16.67Y-28.01
X19.21Y-28.01
X21.75Y-28.01
X27.71Y-27.94
X30.25Y-27.94
X32.79Y-27.94
X32.29Y-95.49
X44.99Y-95.49
T5
X45.0Y-18.0
X45.0Y-25.5
T6
X35.74Y-103.77
X40.74Y-103.77
X127.63Y-66.6
X127.63Y-71.6
X127.63Y-76.6
X127.63Y-81.6
X18.29Y-34.76
X18.29Y-39.76
X127.62Y-55.19
X127.62Y-60.19
X18.29Y-46.22
X18.29Y-51.22
X18.29Y-56.22
X18.29Y-61.22
X18.29Y-66.22
X18.29Y-71.22
X18.29Y-76.22
X18.29Y-81.22
X18.29Y-86.22
X18.29Y-91.22
X18.29Y-96.22
X18.29Y-101.22
X127.62Y-27.3
X127.62Y-32.3
X127.62Y-37.3
X127.62Y-42.3
X127.69Y-91.32
X127.69Y-96.32
T7
X85.78Y-86.17
X85.78Y-93.67
X100.78Y-86.17
X100.78Y-93.67
X105.78Y-86.17
X105.78Y-93.67
X110.78Y-86.17
X110.78Y-93.67
X85.85Y-100.81
X85.85Y-108.31
X100.85Y-100.81
X100.85Y-108.31
X105.85Y-100.81
X105.85Y-108.31
X110.85Y-100.81
X110.85Y-108.31
T8
X57.2Y-17.35
X57.2Y-22.45
X57.2Y-27.55
X57.2Y-32.65
T9
X94.09Y-77.7
X116.69Y-77.7
X94.07Y-68.79
X116.67Y-68.79
T0
M30
