G04 #@! TF.GenerationSoftware,KiCad,Pcbnew,(5.1.2)-2*
G04 #@! TF.CreationDate,2020-01-13T23:24:32+05:30*
G04 #@! TF.ProjectId,controller,636f6e74-726f-46c6-9c65-722e6b696361,rev?*
G04 #@! TF.SameCoordinates,Original*
G04 #@! TF.FileFunction,Soldermask,Bot*
G04 #@! TF.FilePolarity,Negative*
%FSLAX46Y46*%
G04 Gerber Fmt 4.6, Leading zero omitted, Abs format (unit mm)*
G04 Created by KiCad (PCBNEW (5.1.2)-2) date 2020-01-13 23:24:32*
%MOMM*%
%LPD*%
G04 APERTURE LIST*
%ADD10C,0.100000*%
G04 APERTURE END LIST*
D10*
G36*
X86064794Y-107230155D02*
G01*
X86171150Y-107251311D01*
X86371520Y-107334307D01*
X86551844Y-107454795D01*
X86705205Y-107608156D01*
X86825693Y-107788480D01*
X86908689Y-107988851D01*
X86951000Y-108201560D01*
X86951000Y-108418440D01*
X86908689Y-108631149D01*
X86825693Y-108831520D01*
X86705205Y-109011844D01*
X86551844Y-109165205D01*
X86371520Y-109285693D01*
X86271334Y-109327191D01*
X86171150Y-109368689D01*
X86064794Y-109389845D01*
X85958440Y-109411000D01*
X85741560Y-109411000D01*
X85635206Y-109389845D01*
X85528850Y-109368689D01*
X85428666Y-109327191D01*
X85328480Y-109285693D01*
X85148156Y-109165205D01*
X84994795Y-109011844D01*
X84874307Y-108831520D01*
X84791311Y-108631149D01*
X84749000Y-108418440D01*
X84749000Y-108201560D01*
X84791311Y-107988851D01*
X84874307Y-107788480D01*
X84994795Y-107608156D01*
X85148156Y-107454795D01*
X85328480Y-107334307D01*
X85528850Y-107251311D01*
X85635206Y-107230155D01*
X85741560Y-107209000D01*
X85958440Y-107209000D01*
X86064794Y-107230155D01*
X86064794Y-107230155D01*
G37*
G36*
X106064794Y-107230155D02*
G01*
X106171150Y-107251311D01*
X106371520Y-107334307D01*
X106551844Y-107454795D01*
X106705205Y-107608156D01*
X106825693Y-107788480D01*
X106908689Y-107988851D01*
X106951000Y-108201560D01*
X106951000Y-108418440D01*
X106908689Y-108631149D01*
X106825693Y-108831520D01*
X106705205Y-109011844D01*
X106551844Y-109165205D01*
X106371520Y-109285693D01*
X106271334Y-109327191D01*
X106171150Y-109368689D01*
X106064794Y-109389845D01*
X105958440Y-109411000D01*
X105741560Y-109411000D01*
X105635206Y-109389845D01*
X105528850Y-109368689D01*
X105428666Y-109327191D01*
X105328480Y-109285693D01*
X105148156Y-109165205D01*
X104994795Y-109011844D01*
X104874307Y-108831520D01*
X104791311Y-108631149D01*
X104749000Y-108418440D01*
X104749000Y-108201560D01*
X104791311Y-107988851D01*
X104874307Y-107788480D01*
X104994795Y-107608156D01*
X105148156Y-107454795D01*
X105328480Y-107334307D01*
X105528850Y-107251311D01*
X105635206Y-107230155D01*
X105741560Y-107209000D01*
X105958440Y-107209000D01*
X106064794Y-107230155D01*
X106064794Y-107230155D01*
G37*
G36*
X111064794Y-107230155D02*
G01*
X111171150Y-107251311D01*
X111371520Y-107334307D01*
X111551844Y-107454795D01*
X111705205Y-107608156D01*
X111825693Y-107788480D01*
X111908689Y-107988851D01*
X111951000Y-108201560D01*
X111951000Y-108418440D01*
X111908689Y-108631149D01*
X111825693Y-108831520D01*
X111705205Y-109011844D01*
X111551844Y-109165205D01*
X111371520Y-109285693D01*
X111271334Y-109327191D01*
X111171150Y-109368689D01*
X111064794Y-109389845D01*
X110958440Y-109411000D01*
X110741560Y-109411000D01*
X110635206Y-109389845D01*
X110528850Y-109368689D01*
X110428666Y-109327191D01*
X110328480Y-109285693D01*
X110148156Y-109165205D01*
X109994795Y-109011844D01*
X109874307Y-108831520D01*
X109791311Y-108631149D01*
X109749000Y-108418440D01*
X109749000Y-108201560D01*
X109791311Y-107988851D01*
X109874307Y-107788480D01*
X109994795Y-107608156D01*
X110148156Y-107454795D01*
X110328480Y-107334307D01*
X110528850Y-107251311D01*
X110635206Y-107230155D01*
X110741560Y-107209000D01*
X110958440Y-107209000D01*
X111064794Y-107230155D01*
X111064794Y-107230155D01*
G37*
G36*
X101064794Y-107230155D02*
G01*
X101171150Y-107251311D01*
X101371520Y-107334307D01*
X101551844Y-107454795D01*
X101705205Y-107608156D01*
X101825693Y-107788480D01*
X101908689Y-107988851D01*
X101951000Y-108201560D01*
X101951000Y-108418440D01*
X101908689Y-108631149D01*
X101825693Y-108831520D01*
X101705205Y-109011844D01*
X101551844Y-109165205D01*
X101371520Y-109285693D01*
X101271334Y-109327191D01*
X101171150Y-109368689D01*
X101064794Y-109389845D01*
X100958440Y-109411000D01*
X100741560Y-109411000D01*
X100635206Y-109389845D01*
X100528850Y-109368689D01*
X100428666Y-109327191D01*
X100328480Y-109285693D01*
X100148156Y-109165205D01*
X99994795Y-109011844D01*
X99874307Y-108831520D01*
X99791311Y-108631149D01*
X99749000Y-108418440D01*
X99749000Y-108201560D01*
X99791311Y-107988851D01*
X99874307Y-107788480D01*
X99994795Y-107608156D01*
X100148156Y-107454795D01*
X100328480Y-107334307D01*
X100528850Y-107251311D01*
X100635206Y-107230155D01*
X100741560Y-107209000D01*
X100958440Y-107209000D01*
X101064794Y-107230155D01*
X101064794Y-107230155D01*
G37*
G36*
X37091000Y-105121000D02*
G01*
X34389000Y-105121000D01*
X34389000Y-102419000D01*
X37091000Y-102419000D01*
X37091000Y-105121000D01*
X37091000Y-105121000D01*
G37*
G36*
X41134072Y-102470918D02*
G01*
X41375693Y-102571000D01*
X41379939Y-102572759D01*
X41601212Y-102720610D01*
X41789390Y-102908788D01*
X41937241Y-103130061D01*
X42039082Y-103375928D01*
X42091000Y-103636938D01*
X42091000Y-103903062D01*
X42039082Y-104164072D01*
X41937241Y-104409939D01*
X41789390Y-104631212D01*
X41601212Y-104819390D01*
X41379939Y-104967241D01*
X41379938Y-104967242D01*
X41379937Y-104967242D01*
X41134072Y-105069082D01*
X40873063Y-105121000D01*
X40606937Y-105121000D01*
X40345928Y-105069082D01*
X40100063Y-104967242D01*
X40100062Y-104967242D01*
X40100061Y-104967241D01*
X39878788Y-104819390D01*
X39690610Y-104631212D01*
X39542759Y-104409939D01*
X39440918Y-104164072D01*
X39389000Y-103903062D01*
X39389000Y-103636938D01*
X39440918Y-103375928D01*
X39542759Y-103130061D01*
X39690610Y-102908788D01*
X39878788Y-102720610D01*
X40100061Y-102572759D01*
X40104308Y-102571000D01*
X40345928Y-102470918D01*
X40606937Y-102419000D01*
X40873063Y-102419000D01*
X41134072Y-102470918D01*
X41134072Y-102470918D01*
G37*
G36*
X18684072Y-99920918D02*
G01*
X18929939Y-100022759D01*
X19151212Y-100170610D01*
X19339390Y-100358788D01*
X19487241Y-100580061D01*
X19589082Y-100825928D01*
X19641000Y-101086938D01*
X19641000Y-101353062D01*
X19589082Y-101614072D01*
X19487241Y-101859939D01*
X19339390Y-102081212D01*
X19151212Y-102269390D01*
X18929939Y-102417241D01*
X18929938Y-102417242D01*
X18929937Y-102417242D01*
X18684072Y-102519082D01*
X18423063Y-102571000D01*
X18156937Y-102571000D01*
X17895928Y-102519082D01*
X17650063Y-102417242D01*
X17650062Y-102417242D01*
X17650061Y-102417241D01*
X17428788Y-102269390D01*
X17240610Y-102081212D01*
X17092759Y-101859939D01*
X16990918Y-101614072D01*
X16939000Y-101353062D01*
X16939000Y-101086938D01*
X16990918Y-100825928D01*
X17092759Y-100580061D01*
X17240610Y-100358788D01*
X17428788Y-100170610D01*
X17650061Y-100022759D01*
X17895928Y-99920918D01*
X18156937Y-99869000D01*
X18423063Y-99869000D01*
X18684072Y-99920918D01*
X18684072Y-99920918D01*
G37*
G36*
X86064794Y-99730155D02*
G01*
X86171150Y-99751311D01*
X86271334Y-99792809D01*
X86371520Y-99834307D01*
X86551844Y-99954795D01*
X86705205Y-100108156D01*
X86825693Y-100288480D01*
X86825693Y-100288481D01*
X86908689Y-100488850D01*
X86951000Y-100701561D01*
X86951000Y-100918439D01*
X86917484Y-101086937D01*
X86908689Y-101131149D01*
X86825693Y-101331520D01*
X86705205Y-101511844D01*
X86551844Y-101665205D01*
X86371520Y-101785693D01*
X86171150Y-101868689D01*
X86064794Y-101889845D01*
X85958440Y-101911000D01*
X85741560Y-101911000D01*
X85635206Y-101889845D01*
X85528850Y-101868689D01*
X85328480Y-101785693D01*
X85148156Y-101665205D01*
X84994795Y-101511844D01*
X84874307Y-101331520D01*
X84791311Y-101131149D01*
X84782517Y-101086937D01*
X84749000Y-100918439D01*
X84749000Y-100701561D01*
X84791311Y-100488850D01*
X84874307Y-100288481D01*
X84874307Y-100288480D01*
X84994795Y-100108156D01*
X85148156Y-99954795D01*
X85328480Y-99834307D01*
X85428666Y-99792809D01*
X85528850Y-99751311D01*
X85635206Y-99730155D01*
X85741560Y-99709000D01*
X85958440Y-99709000D01*
X86064794Y-99730155D01*
X86064794Y-99730155D01*
G37*
G36*
X101064794Y-99730155D02*
G01*
X101171150Y-99751311D01*
X101271334Y-99792809D01*
X101371520Y-99834307D01*
X101551844Y-99954795D01*
X101705205Y-100108156D01*
X101825693Y-100288480D01*
X101825693Y-100288481D01*
X101908689Y-100488850D01*
X101951000Y-100701561D01*
X101951000Y-100918439D01*
X101917484Y-101086937D01*
X101908689Y-101131149D01*
X101825693Y-101331520D01*
X101705205Y-101511844D01*
X101551844Y-101665205D01*
X101371520Y-101785693D01*
X101171150Y-101868689D01*
X101064794Y-101889845D01*
X100958440Y-101911000D01*
X100741560Y-101911000D01*
X100635206Y-101889845D01*
X100528850Y-101868689D01*
X100328480Y-101785693D01*
X100148156Y-101665205D01*
X99994795Y-101511844D01*
X99874307Y-101331520D01*
X99791311Y-101131149D01*
X99782517Y-101086937D01*
X99749000Y-100918439D01*
X99749000Y-100701561D01*
X99791311Y-100488850D01*
X99874307Y-100288481D01*
X99874307Y-100288480D01*
X99994795Y-100108156D01*
X100148156Y-99954795D01*
X100328480Y-99834307D01*
X100428666Y-99792809D01*
X100528850Y-99751311D01*
X100635206Y-99730155D01*
X100741560Y-99709000D01*
X100958440Y-99709000D01*
X101064794Y-99730155D01*
X101064794Y-99730155D01*
G37*
G36*
X106064794Y-99730155D02*
G01*
X106171150Y-99751311D01*
X106271334Y-99792809D01*
X106371520Y-99834307D01*
X106551844Y-99954795D01*
X106705205Y-100108156D01*
X106825693Y-100288480D01*
X106825693Y-100288481D01*
X106908689Y-100488850D01*
X106951000Y-100701561D01*
X106951000Y-100918439D01*
X106917484Y-101086937D01*
X106908689Y-101131149D01*
X106825693Y-101331520D01*
X106705205Y-101511844D01*
X106551844Y-101665205D01*
X106371520Y-101785693D01*
X106171150Y-101868689D01*
X106064794Y-101889845D01*
X105958440Y-101911000D01*
X105741560Y-101911000D01*
X105635206Y-101889845D01*
X105528850Y-101868689D01*
X105328480Y-101785693D01*
X105148156Y-101665205D01*
X104994795Y-101511844D01*
X104874307Y-101331520D01*
X104791311Y-101131149D01*
X104782517Y-101086937D01*
X104749000Y-100918439D01*
X104749000Y-100701561D01*
X104791311Y-100488850D01*
X104874307Y-100288481D01*
X104874307Y-100288480D01*
X104994795Y-100108156D01*
X105148156Y-99954795D01*
X105328480Y-99834307D01*
X105428666Y-99792809D01*
X105528850Y-99751311D01*
X105635206Y-99730155D01*
X105741560Y-99709000D01*
X105958440Y-99709000D01*
X106064794Y-99730155D01*
X106064794Y-99730155D01*
G37*
G36*
X111064794Y-99730155D02*
G01*
X111171150Y-99751311D01*
X111271334Y-99792809D01*
X111371520Y-99834307D01*
X111551844Y-99954795D01*
X111705205Y-100108156D01*
X111825693Y-100288480D01*
X111825693Y-100288481D01*
X111908689Y-100488850D01*
X111951000Y-100701561D01*
X111951000Y-100918439D01*
X111917484Y-101086937D01*
X111908689Y-101131149D01*
X111825693Y-101331520D01*
X111705205Y-101511844D01*
X111551844Y-101665205D01*
X111371520Y-101785693D01*
X111171150Y-101868689D01*
X111064794Y-101889845D01*
X110958440Y-101911000D01*
X110741560Y-101911000D01*
X110635206Y-101889845D01*
X110528850Y-101868689D01*
X110328480Y-101785693D01*
X110148156Y-101665205D01*
X109994795Y-101511844D01*
X109874307Y-101331520D01*
X109791311Y-101131149D01*
X109782517Y-101086937D01*
X109749000Y-100918439D01*
X109749000Y-100701561D01*
X109791311Y-100488850D01*
X109874307Y-100288481D01*
X109874307Y-100288480D01*
X109994795Y-100108156D01*
X110148156Y-99954795D01*
X110328480Y-99834307D01*
X110428666Y-99792809D01*
X110528850Y-99751311D01*
X110635206Y-99730155D01*
X110741560Y-99709000D01*
X110958440Y-99709000D01*
X111064794Y-99730155D01*
X111064794Y-99730155D01*
G37*
G36*
X129041000Y-97671000D02*
G01*
X126339000Y-97671000D01*
X126339000Y-94969000D01*
X129041000Y-94969000D01*
X129041000Y-97671000D01*
X129041000Y-97671000D01*
G37*
G36*
X18684072Y-94920918D02*
G01*
X18929939Y-95022759D01*
X19151212Y-95170610D01*
X19339390Y-95358788D01*
X19487241Y-95580061D01*
X19589082Y-95825928D01*
X19641000Y-96086938D01*
X19641000Y-96353062D01*
X19589082Y-96614072D01*
X19487241Y-96859939D01*
X19339390Y-97081212D01*
X19151212Y-97269390D01*
X18929939Y-97417241D01*
X18929938Y-97417242D01*
X18929937Y-97417242D01*
X18684072Y-97519082D01*
X18423063Y-97571000D01*
X18156937Y-97571000D01*
X17895928Y-97519082D01*
X17650063Y-97417242D01*
X17650062Y-97417242D01*
X17650061Y-97417241D01*
X17428788Y-97269390D01*
X17240610Y-97081212D01*
X17092759Y-96859939D01*
X16990918Y-96614072D01*
X16939000Y-96353062D01*
X16939000Y-96086938D01*
X16990918Y-95825928D01*
X17092759Y-95580061D01*
X17240610Y-95358788D01*
X17428788Y-95170610D01*
X17650061Y-95022759D01*
X17895928Y-94920918D01*
X18156937Y-94869000D01*
X18423063Y-94869000D01*
X18684072Y-94920918D01*
X18684072Y-94920918D01*
G37*
G36*
X45159271Y-94350103D02*
G01*
X45215635Y-94355654D01*
X45432600Y-94421470D01*
X45432602Y-94421471D01*
X45632555Y-94528347D01*
X45807818Y-94672182D01*
X45951653Y-94847445D01*
X46045359Y-95022758D01*
X46058530Y-95047400D01*
X46124346Y-95264365D01*
X46146569Y-95490000D01*
X46124346Y-95715635D01*
X46090889Y-95825928D01*
X46058529Y-95932602D01*
X45951653Y-96132555D01*
X45807818Y-96307818D01*
X45632555Y-96451653D01*
X45432602Y-96558529D01*
X45432600Y-96558530D01*
X45215635Y-96624346D01*
X45159271Y-96629897D01*
X45046545Y-96641000D01*
X44933455Y-96641000D01*
X44820729Y-96629897D01*
X44764365Y-96624346D01*
X44547400Y-96558530D01*
X44547398Y-96558529D01*
X44347445Y-96451653D01*
X44172182Y-96307818D01*
X44028347Y-96132555D01*
X43921471Y-95932602D01*
X43889112Y-95825928D01*
X43855654Y-95715635D01*
X43833431Y-95490000D01*
X43855654Y-95264365D01*
X43921470Y-95047400D01*
X43934641Y-95022758D01*
X44028347Y-94847445D01*
X44172182Y-94672182D01*
X44347445Y-94528347D01*
X44547398Y-94421471D01*
X44547400Y-94421470D01*
X44764365Y-94355654D01*
X44820729Y-94350103D01*
X44933455Y-94339000D01*
X45046545Y-94339000D01*
X45159271Y-94350103D01*
X45159271Y-94350103D01*
G37*
G36*
X33441000Y-96641000D02*
G01*
X31139000Y-96641000D01*
X31139000Y-94339000D01*
X33441000Y-94339000D01*
X33441000Y-96641000D01*
X33441000Y-96641000D01*
G37*
G36*
X85994794Y-92590155D02*
G01*
X86101150Y-92611311D01*
X86201334Y-92652809D01*
X86301520Y-92694307D01*
X86481844Y-92814795D01*
X86635205Y-92968156D01*
X86755693Y-93148480D01*
X86838689Y-93348851D01*
X86881000Y-93561560D01*
X86881000Y-93778440D01*
X86838689Y-93991149D01*
X86755693Y-94191520D01*
X86635205Y-94371844D01*
X86481844Y-94525205D01*
X86301520Y-94645693D01*
X86101150Y-94728689D01*
X85994794Y-94749845D01*
X85888440Y-94771000D01*
X85671560Y-94771000D01*
X85565206Y-94749845D01*
X85458850Y-94728689D01*
X85258480Y-94645693D01*
X85078156Y-94525205D01*
X84924795Y-94371844D01*
X84804307Y-94191520D01*
X84721311Y-93991149D01*
X84679000Y-93778440D01*
X84679000Y-93561560D01*
X84721311Y-93348851D01*
X84804307Y-93148480D01*
X84924795Y-92968156D01*
X85078156Y-92814795D01*
X85258480Y-92694307D01*
X85358666Y-92652809D01*
X85458850Y-92611311D01*
X85565206Y-92590155D01*
X85671560Y-92569000D01*
X85888440Y-92569000D01*
X85994794Y-92590155D01*
X85994794Y-92590155D01*
G37*
G36*
X100994794Y-92590155D02*
G01*
X101101150Y-92611311D01*
X101201334Y-92652809D01*
X101301520Y-92694307D01*
X101481844Y-92814795D01*
X101635205Y-92968156D01*
X101755693Y-93148480D01*
X101838689Y-93348851D01*
X101881000Y-93561560D01*
X101881000Y-93778440D01*
X101838689Y-93991149D01*
X101755693Y-94191520D01*
X101635205Y-94371844D01*
X101481844Y-94525205D01*
X101301520Y-94645693D01*
X101101150Y-94728689D01*
X100994794Y-94749845D01*
X100888440Y-94771000D01*
X100671560Y-94771000D01*
X100565206Y-94749845D01*
X100458850Y-94728689D01*
X100258480Y-94645693D01*
X100078156Y-94525205D01*
X99924795Y-94371844D01*
X99804307Y-94191520D01*
X99721311Y-93991149D01*
X99679000Y-93778440D01*
X99679000Y-93561560D01*
X99721311Y-93348851D01*
X99804307Y-93148480D01*
X99924795Y-92968156D01*
X100078156Y-92814795D01*
X100258480Y-92694307D01*
X100358666Y-92652809D01*
X100458850Y-92611311D01*
X100565206Y-92590155D01*
X100671560Y-92569000D01*
X100888440Y-92569000D01*
X100994794Y-92590155D01*
X100994794Y-92590155D01*
G37*
G36*
X105994794Y-92590155D02*
G01*
X106101150Y-92611311D01*
X106201334Y-92652809D01*
X106301520Y-92694307D01*
X106481844Y-92814795D01*
X106635205Y-92968156D01*
X106755693Y-93148480D01*
X106838689Y-93348851D01*
X106881000Y-93561560D01*
X106881000Y-93778440D01*
X106838689Y-93991149D01*
X106755693Y-94191520D01*
X106635205Y-94371844D01*
X106481844Y-94525205D01*
X106301520Y-94645693D01*
X106101150Y-94728689D01*
X105994794Y-94749845D01*
X105888440Y-94771000D01*
X105671560Y-94771000D01*
X105565206Y-94749845D01*
X105458850Y-94728689D01*
X105258480Y-94645693D01*
X105078156Y-94525205D01*
X104924795Y-94371844D01*
X104804307Y-94191520D01*
X104721311Y-93991149D01*
X104679000Y-93778440D01*
X104679000Y-93561560D01*
X104721311Y-93348851D01*
X104804307Y-93148480D01*
X104924795Y-92968156D01*
X105078156Y-92814795D01*
X105258480Y-92694307D01*
X105358666Y-92652809D01*
X105458850Y-92611311D01*
X105565206Y-92590155D01*
X105671560Y-92569000D01*
X105888440Y-92569000D01*
X105994794Y-92590155D01*
X105994794Y-92590155D01*
G37*
G36*
X110994794Y-92590155D02*
G01*
X111101150Y-92611311D01*
X111201334Y-92652809D01*
X111301520Y-92694307D01*
X111481844Y-92814795D01*
X111635205Y-92968156D01*
X111755693Y-93148480D01*
X111838689Y-93348851D01*
X111881000Y-93561560D01*
X111881000Y-93778440D01*
X111838689Y-93991149D01*
X111755693Y-94191520D01*
X111635205Y-94371844D01*
X111481844Y-94525205D01*
X111301520Y-94645693D01*
X111101150Y-94728689D01*
X110994794Y-94749845D01*
X110888440Y-94771000D01*
X110671560Y-94771000D01*
X110565206Y-94749845D01*
X110458850Y-94728689D01*
X110258480Y-94645693D01*
X110078156Y-94525205D01*
X109924795Y-94371844D01*
X109804307Y-94191520D01*
X109721311Y-93991149D01*
X109679000Y-93778440D01*
X109679000Y-93561560D01*
X109721311Y-93348851D01*
X109804307Y-93148480D01*
X109924795Y-92968156D01*
X110078156Y-92814795D01*
X110258480Y-92694307D01*
X110358666Y-92652809D01*
X110458850Y-92611311D01*
X110565206Y-92590155D01*
X110671560Y-92569000D01*
X110888440Y-92569000D01*
X110994794Y-92590155D01*
X110994794Y-92590155D01*
G37*
G36*
X128084072Y-90020918D02*
G01*
X128329939Y-90122759D01*
X128441328Y-90197187D01*
X128551211Y-90270609D01*
X128739391Y-90458789D01*
X128887242Y-90680063D01*
X128989082Y-90925928D01*
X129041000Y-91186937D01*
X129041000Y-91453063D01*
X128989082Y-91714072D01*
X128887242Y-91959937D01*
X128739391Y-92181211D01*
X128551211Y-92369391D01*
X128479597Y-92417242D01*
X128329939Y-92517241D01*
X128329938Y-92517242D01*
X128329937Y-92517242D01*
X128084072Y-92619082D01*
X127823063Y-92671000D01*
X127556937Y-92671000D01*
X127295928Y-92619082D01*
X127050063Y-92517242D01*
X127050062Y-92517242D01*
X127050061Y-92517241D01*
X126900403Y-92417242D01*
X126828789Y-92369391D01*
X126640609Y-92181211D01*
X126492758Y-91959937D01*
X126390918Y-91714072D01*
X126339000Y-91453063D01*
X126339000Y-91186937D01*
X126390918Y-90925928D01*
X126492758Y-90680063D01*
X126640609Y-90458789D01*
X126828789Y-90270609D01*
X126938672Y-90197187D01*
X127050061Y-90122759D01*
X127295928Y-90020918D01*
X127556937Y-89969000D01*
X127823063Y-89969000D01*
X128084072Y-90020918D01*
X128084072Y-90020918D01*
G37*
G36*
X18684072Y-89920918D02*
G01*
X18925495Y-90020918D01*
X18929939Y-90022759D01*
X19041328Y-90097187D01*
X19079599Y-90122759D01*
X19151212Y-90170610D01*
X19339390Y-90358788D01*
X19487241Y-90580061D01*
X19589082Y-90825928D01*
X19641000Y-91086938D01*
X19641000Y-91353062D01*
X19589082Y-91614072D01*
X19487241Y-91859939D01*
X19339390Y-92081212D01*
X19151212Y-92269390D01*
X18929939Y-92417241D01*
X18929938Y-92417242D01*
X18929937Y-92417242D01*
X18684072Y-92519082D01*
X18423063Y-92571000D01*
X18156937Y-92571000D01*
X17895928Y-92519082D01*
X17650063Y-92417242D01*
X17650062Y-92417242D01*
X17650061Y-92417241D01*
X17428788Y-92269390D01*
X17240610Y-92081212D01*
X17092759Y-91859939D01*
X16990918Y-91614072D01*
X16939000Y-91353062D01*
X16939000Y-91086938D01*
X16990918Y-90825928D01*
X17092759Y-90580061D01*
X17240610Y-90358788D01*
X17428788Y-90170610D01*
X17500402Y-90122759D01*
X17538672Y-90097187D01*
X17650061Y-90022759D01*
X17654506Y-90020918D01*
X17895928Y-89920918D01*
X18156937Y-89869000D01*
X18423063Y-89869000D01*
X18684072Y-89920918D01*
X18684072Y-89920918D01*
G37*
G36*
X18684072Y-84920918D02*
G01*
X18929939Y-85022759D01*
X18999143Y-85069000D01*
X19151211Y-85170609D01*
X19339391Y-85358789D01*
X19487242Y-85580063D01*
X19589082Y-85825928D01*
X19641000Y-86086937D01*
X19641000Y-86353063D01*
X19589082Y-86614072D01*
X19487242Y-86859937D01*
X19339391Y-87081211D01*
X19151211Y-87269391D01*
X19041328Y-87342813D01*
X18929939Y-87417241D01*
X18929938Y-87417242D01*
X18929937Y-87417242D01*
X18684072Y-87519082D01*
X18423063Y-87571000D01*
X18156937Y-87571000D01*
X17895928Y-87519082D01*
X17650063Y-87417242D01*
X17650062Y-87417242D01*
X17650061Y-87417241D01*
X17538672Y-87342813D01*
X17428789Y-87269391D01*
X17240609Y-87081211D01*
X17092758Y-86859937D01*
X16990918Y-86614072D01*
X16939000Y-86353063D01*
X16939000Y-86086937D01*
X16990918Y-85825928D01*
X17092758Y-85580063D01*
X17240609Y-85358789D01*
X17428789Y-85170609D01*
X17580857Y-85069000D01*
X17650061Y-85022759D01*
X17895928Y-84920918D01*
X18156937Y-84869000D01*
X18423063Y-84869000D01*
X18684072Y-84920918D01*
X18684072Y-84920918D01*
G37*
G36*
X100994795Y-85090156D02*
G01*
X101101150Y-85111311D01*
X101301520Y-85194307D01*
X101481844Y-85314795D01*
X101635205Y-85468156D01*
X101755693Y-85648480D01*
X101838689Y-85848851D01*
X101881000Y-86061560D01*
X101881000Y-86278440D01*
X101838689Y-86491149D01*
X101755693Y-86691520D01*
X101635205Y-86871844D01*
X101481844Y-87025205D01*
X101301520Y-87145693D01*
X101201334Y-87187191D01*
X101101150Y-87228689D01*
X100994794Y-87249845D01*
X100888440Y-87271000D01*
X100671560Y-87271000D01*
X100565206Y-87249845D01*
X100458850Y-87228689D01*
X100258480Y-87145693D01*
X100078156Y-87025205D01*
X99924795Y-86871844D01*
X99804307Y-86691520D01*
X99721311Y-86491149D01*
X99679000Y-86278440D01*
X99679000Y-86061560D01*
X99721311Y-85848851D01*
X99804307Y-85648480D01*
X99924795Y-85468156D01*
X100078156Y-85314795D01*
X100258480Y-85194307D01*
X100458850Y-85111311D01*
X100565205Y-85090156D01*
X100671560Y-85069000D01*
X100888440Y-85069000D01*
X100994795Y-85090156D01*
X100994795Y-85090156D01*
G37*
G36*
X105994795Y-85090156D02*
G01*
X106101150Y-85111311D01*
X106301520Y-85194307D01*
X106481844Y-85314795D01*
X106635205Y-85468156D01*
X106755693Y-85648480D01*
X106838689Y-85848851D01*
X106881000Y-86061560D01*
X106881000Y-86278440D01*
X106838689Y-86491149D01*
X106755693Y-86691520D01*
X106635205Y-86871844D01*
X106481844Y-87025205D01*
X106301520Y-87145693D01*
X106201334Y-87187191D01*
X106101150Y-87228689D01*
X105994794Y-87249845D01*
X105888440Y-87271000D01*
X105671560Y-87271000D01*
X105565206Y-87249845D01*
X105458850Y-87228689D01*
X105258480Y-87145693D01*
X105078156Y-87025205D01*
X104924795Y-86871844D01*
X104804307Y-86691520D01*
X104721311Y-86491149D01*
X104679000Y-86278440D01*
X104679000Y-86061560D01*
X104721311Y-85848851D01*
X104804307Y-85648480D01*
X104924795Y-85468156D01*
X105078156Y-85314795D01*
X105258480Y-85194307D01*
X105458850Y-85111311D01*
X105565205Y-85090156D01*
X105671560Y-85069000D01*
X105888440Y-85069000D01*
X105994795Y-85090156D01*
X105994795Y-85090156D01*
G37*
G36*
X110994795Y-85090156D02*
G01*
X111101150Y-85111311D01*
X111301520Y-85194307D01*
X111481844Y-85314795D01*
X111635205Y-85468156D01*
X111755693Y-85648480D01*
X111838689Y-85848851D01*
X111881000Y-86061560D01*
X111881000Y-86278440D01*
X111838689Y-86491149D01*
X111755693Y-86691520D01*
X111635205Y-86871844D01*
X111481844Y-87025205D01*
X111301520Y-87145693D01*
X111201334Y-87187191D01*
X111101150Y-87228689D01*
X110994794Y-87249845D01*
X110888440Y-87271000D01*
X110671560Y-87271000D01*
X110565206Y-87249845D01*
X110458850Y-87228689D01*
X110258480Y-87145693D01*
X110078156Y-87025205D01*
X109924795Y-86871844D01*
X109804307Y-86691520D01*
X109721311Y-86491149D01*
X109679000Y-86278440D01*
X109679000Y-86061560D01*
X109721311Y-85848851D01*
X109804307Y-85648480D01*
X109924795Y-85468156D01*
X110078156Y-85314795D01*
X110258480Y-85194307D01*
X110458850Y-85111311D01*
X110565205Y-85090156D01*
X110671560Y-85069000D01*
X110888440Y-85069000D01*
X110994795Y-85090156D01*
X110994795Y-85090156D01*
G37*
G36*
X85994795Y-85090156D02*
G01*
X86101150Y-85111311D01*
X86301520Y-85194307D01*
X86481844Y-85314795D01*
X86635205Y-85468156D01*
X86755693Y-85648480D01*
X86838689Y-85848851D01*
X86881000Y-86061560D01*
X86881000Y-86278440D01*
X86838689Y-86491149D01*
X86755693Y-86691520D01*
X86635205Y-86871844D01*
X86481844Y-87025205D01*
X86301520Y-87145693D01*
X86201334Y-87187191D01*
X86101150Y-87228689D01*
X85994794Y-87249845D01*
X85888440Y-87271000D01*
X85671560Y-87271000D01*
X85565206Y-87249845D01*
X85458850Y-87228689D01*
X85258480Y-87145693D01*
X85078156Y-87025205D01*
X84924795Y-86871844D01*
X84804307Y-86691520D01*
X84721311Y-86491149D01*
X84679000Y-86278440D01*
X84679000Y-86061560D01*
X84721311Y-85848851D01*
X84804307Y-85648480D01*
X84924795Y-85468156D01*
X85078156Y-85314795D01*
X85258480Y-85194307D01*
X85458850Y-85111311D01*
X85565205Y-85090156D01*
X85671560Y-85069000D01*
X85888440Y-85069000D01*
X85994795Y-85090156D01*
X85994795Y-85090156D01*
G37*
G36*
X128981000Y-82951000D02*
G01*
X126279000Y-82951000D01*
X126279000Y-80249000D01*
X128981000Y-80249000D01*
X128981000Y-82951000D01*
X128981000Y-82951000D01*
G37*
G36*
X18684072Y-79920918D02*
G01*
X18929939Y-80022759D01*
X19041328Y-80097187D01*
X19151211Y-80170609D01*
X19339391Y-80358789D01*
X19487242Y-80580063D01*
X19589082Y-80825928D01*
X19641000Y-81086937D01*
X19641000Y-81353063D01*
X19589082Y-81614072D01*
X19487242Y-81859937D01*
X19339391Y-82081211D01*
X19151211Y-82269391D01*
X19075432Y-82320025D01*
X18929939Y-82417241D01*
X18929938Y-82417242D01*
X18929937Y-82417242D01*
X18684072Y-82519082D01*
X18423063Y-82571000D01*
X18156937Y-82571000D01*
X17895928Y-82519082D01*
X17650063Y-82417242D01*
X17650062Y-82417242D01*
X17650061Y-82417241D01*
X17504568Y-82320025D01*
X17428789Y-82269391D01*
X17240609Y-82081211D01*
X17092758Y-81859937D01*
X16990918Y-81614072D01*
X16939000Y-81353063D01*
X16939000Y-81086937D01*
X16990918Y-80825928D01*
X17092758Y-80580063D01*
X17240609Y-80358789D01*
X17428789Y-80170609D01*
X17538672Y-80097187D01*
X17650061Y-80022759D01*
X17895928Y-79920918D01*
X18156937Y-79869000D01*
X18423063Y-79869000D01*
X18684072Y-79920918D01*
X18684072Y-79920918D01*
G37*
G36*
X29256823Y-80691313D02*
G01*
X29417242Y-80739976D01*
X29549906Y-80810886D01*
X29565078Y-80818996D01*
X29694659Y-80925341D01*
X29801004Y-81054922D01*
X29801005Y-81054924D01*
X29880024Y-81202758D01*
X29928687Y-81363177D01*
X29945117Y-81530000D01*
X29928687Y-81696823D01*
X29880024Y-81857242D01*
X29878583Y-81859937D01*
X29801004Y-82005078D01*
X29694659Y-82134659D01*
X29565078Y-82241004D01*
X29565076Y-82241005D01*
X29417242Y-82320024D01*
X29256823Y-82368687D01*
X29131804Y-82381000D01*
X29048196Y-82381000D01*
X28923177Y-82368687D01*
X28762758Y-82320024D01*
X28614924Y-82241005D01*
X28614922Y-82241004D01*
X28485341Y-82134659D01*
X28378996Y-82005078D01*
X28301417Y-81859937D01*
X28299976Y-81857242D01*
X28251313Y-81696823D01*
X28234883Y-81530000D01*
X28251313Y-81363177D01*
X28299976Y-81202758D01*
X28378995Y-81054924D01*
X28378996Y-81054922D01*
X28485341Y-80925341D01*
X28614922Y-80818996D01*
X28630094Y-80810886D01*
X28762758Y-80739976D01*
X28923177Y-80691313D01*
X29048196Y-80679000D01*
X29131804Y-80679000D01*
X29256823Y-80691313D01*
X29256823Y-80691313D01*
G37*
G36*
X37561000Y-82381000D02*
G01*
X35859000Y-82381000D01*
X35859000Y-80679000D01*
X37561000Y-80679000D01*
X37561000Y-82381000D01*
X37561000Y-82381000D01*
G37*
G36*
X36876823Y-78151313D02*
G01*
X37037242Y-78199976D01*
X37169906Y-78270886D01*
X37185078Y-78278996D01*
X37314659Y-78385341D01*
X37421004Y-78514922D01*
X37421005Y-78514924D01*
X37500024Y-78662758D01*
X37548687Y-78823177D01*
X37565117Y-78990000D01*
X37548687Y-79156823D01*
X37500024Y-79317242D01*
X37429114Y-79449906D01*
X37421004Y-79465078D01*
X37314659Y-79594659D01*
X37185078Y-79701004D01*
X37185076Y-79701005D01*
X37037242Y-79780024D01*
X36876823Y-79828687D01*
X36751804Y-79841000D01*
X36668196Y-79841000D01*
X36543177Y-79828687D01*
X36382758Y-79780024D01*
X36234924Y-79701005D01*
X36234922Y-79701004D01*
X36105341Y-79594659D01*
X35998996Y-79465078D01*
X35990886Y-79449906D01*
X35919976Y-79317242D01*
X35871313Y-79156823D01*
X35854883Y-78990000D01*
X35871313Y-78823177D01*
X35919976Y-78662758D01*
X35998995Y-78514924D01*
X35998996Y-78514922D01*
X36105341Y-78385341D01*
X36234922Y-78278996D01*
X36250094Y-78270886D01*
X36382758Y-78199976D01*
X36543177Y-78151313D01*
X36668196Y-78139000D01*
X36751804Y-78139000D01*
X36876823Y-78151313D01*
X36876823Y-78151313D01*
G37*
G36*
X29256823Y-78151313D02*
G01*
X29417242Y-78199976D01*
X29549906Y-78270886D01*
X29565078Y-78278996D01*
X29694659Y-78385341D01*
X29801004Y-78514922D01*
X29801005Y-78514924D01*
X29880024Y-78662758D01*
X29928687Y-78823177D01*
X29945117Y-78990000D01*
X29928687Y-79156823D01*
X29880024Y-79317242D01*
X29809114Y-79449906D01*
X29801004Y-79465078D01*
X29694659Y-79594659D01*
X29565078Y-79701004D01*
X29565076Y-79701005D01*
X29417242Y-79780024D01*
X29256823Y-79828687D01*
X29131804Y-79841000D01*
X29048196Y-79841000D01*
X28923177Y-79828687D01*
X28762758Y-79780024D01*
X28614924Y-79701005D01*
X28614922Y-79701004D01*
X28485341Y-79594659D01*
X28378996Y-79465078D01*
X28370886Y-79449906D01*
X28299976Y-79317242D01*
X28251313Y-79156823D01*
X28234883Y-78990000D01*
X28251313Y-78823177D01*
X28299976Y-78662758D01*
X28378995Y-78514924D01*
X28378996Y-78514922D01*
X28485341Y-78385341D01*
X28614922Y-78278996D01*
X28630094Y-78270886D01*
X28762758Y-78199976D01*
X28923177Y-78151313D01*
X29048196Y-78139000D01*
X29131804Y-78139000D01*
X29256823Y-78151313D01*
X29256823Y-78151313D01*
G37*
G36*
X42466823Y-77951313D02*
G01*
X42627242Y-77999976D01*
X42748712Y-78064903D01*
X42775078Y-78078996D01*
X42904659Y-78185341D01*
X43011004Y-78314922D01*
X43011005Y-78314924D01*
X43090024Y-78462758D01*
X43138687Y-78623177D01*
X43155117Y-78790000D01*
X43138687Y-78956823D01*
X43090024Y-79117242D01*
X43068867Y-79156823D01*
X43011004Y-79265078D01*
X42904659Y-79394659D01*
X42775078Y-79501004D01*
X42775076Y-79501005D01*
X42627242Y-79580024D01*
X42466823Y-79628687D01*
X42341804Y-79641000D01*
X42258196Y-79641000D01*
X42133177Y-79628687D01*
X41972758Y-79580024D01*
X41824924Y-79501005D01*
X41824922Y-79501004D01*
X41695341Y-79394659D01*
X41588996Y-79265078D01*
X41531133Y-79156823D01*
X41509976Y-79117242D01*
X41461313Y-78956823D01*
X41444883Y-78790000D01*
X41461313Y-78623177D01*
X41509976Y-78462758D01*
X41588995Y-78314924D01*
X41588996Y-78314922D01*
X41695341Y-78185341D01*
X41824922Y-78078996D01*
X41851288Y-78064903D01*
X41972758Y-77999976D01*
X42133177Y-77951313D01*
X42258196Y-77939000D01*
X42341804Y-77939000D01*
X42466823Y-77951313D01*
X42466823Y-77951313D01*
G37*
G36*
X50086823Y-77951313D02*
G01*
X50247242Y-77999976D01*
X50368712Y-78064903D01*
X50395078Y-78078996D01*
X50524659Y-78185341D01*
X50631004Y-78314922D01*
X50631005Y-78314924D01*
X50710024Y-78462758D01*
X50758687Y-78623177D01*
X50775117Y-78790000D01*
X50758687Y-78956823D01*
X50710024Y-79117242D01*
X50688867Y-79156823D01*
X50631004Y-79265078D01*
X50524659Y-79394659D01*
X50395078Y-79501004D01*
X50395076Y-79501005D01*
X50247242Y-79580024D01*
X50086823Y-79628687D01*
X49961804Y-79641000D01*
X49878196Y-79641000D01*
X49753177Y-79628687D01*
X49592758Y-79580024D01*
X49444924Y-79501005D01*
X49444922Y-79501004D01*
X49315341Y-79394659D01*
X49208996Y-79265078D01*
X49151133Y-79156823D01*
X49129976Y-79117242D01*
X49081313Y-78956823D01*
X49064883Y-78790000D01*
X49081313Y-78623177D01*
X49129976Y-78462758D01*
X49208995Y-78314924D01*
X49208996Y-78314922D01*
X49315341Y-78185341D01*
X49444922Y-78078996D01*
X49471288Y-78064903D01*
X49592758Y-77999976D01*
X49753177Y-77951313D01*
X49878196Y-77939000D01*
X49961804Y-77939000D01*
X50086823Y-77951313D01*
X50086823Y-77951313D01*
G37*
G36*
X117054903Y-76497075D02*
G01*
X117248437Y-76577239D01*
X117282571Y-76591378D01*
X117487466Y-76728285D01*
X117661715Y-76902534D01*
X117781104Y-77081212D01*
X117798623Y-77107431D01*
X117892925Y-77335097D01*
X117941000Y-77576786D01*
X117941000Y-77823214D01*
X117892925Y-78064903D01*
X117804246Y-78278995D01*
X117798622Y-78292571D01*
X117661715Y-78497466D01*
X117487466Y-78671715D01*
X117282571Y-78808622D01*
X117282570Y-78808623D01*
X117282569Y-78808623D01*
X117054903Y-78902925D01*
X116813214Y-78951000D01*
X116566786Y-78951000D01*
X116325097Y-78902925D01*
X116097431Y-78808623D01*
X116097430Y-78808623D01*
X116097429Y-78808622D01*
X115892534Y-78671715D01*
X115718285Y-78497466D01*
X115581378Y-78292571D01*
X115575755Y-78278995D01*
X115487075Y-78064903D01*
X115439000Y-77823214D01*
X115439000Y-77576786D01*
X115487075Y-77335097D01*
X115581377Y-77107431D01*
X115598896Y-77081212D01*
X115718285Y-76902534D01*
X115892534Y-76728285D01*
X116097429Y-76591378D01*
X116131564Y-76577239D01*
X116325097Y-76497075D01*
X116566786Y-76449000D01*
X116813214Y-76449000D01*
X117054903Y-76497075D01*
X117054903Y-76497075D01*
G37*
G36*
X94454903Y-76497075D02*
G01*
X94648437Y-76577239D01*
X94682571Y-76591378D01*
X94887466Y-76728285D01*
X95061715Y-76902534D01*
X95181104Y-77081212D01*
X95198623Y-77107431D01*
X95292925Y-77335097D01*
X95341000Y-77576786D01*
X95341000Y-77823214D01*
X95292925Y-78064903D01*
X95204246Y-78278995D01*
X95198622Y-78292571D01*
X95061715Y-78497466D01*
X94887466Y-78671715D01*
X94682571Y-78808622D01*
X94682570Y-78808623D01*
X94682569Y-78808623D01*
X94454903Y-78902925D01*
X94213214Y-78951000D01*
X93966786Y-78951000D01*
X93725097Y-78902925D01*
X93497431Y-78808623D01*
X93497430Y-78808623D01*
X93497429Y-78808622D01*
X93292534Y-78671715D01*
X93118285Y-78497466D01*
X92981378Y-78292571D01*
X92975755Y-78278995D01*
X92887075Y-78064903D01*
X92839000Y-77823214D01*
X92839000Y-77576786D01*
X92887075Y-77335097D01*
X92981377Y-77107431D01*
X92998896Y-77081212D01*
X93118285Y-76902534D01*
X93292534Y-76728285D01*
X93497429Y-76591378D01*
X93531564Y-76577239D01*
X93725097Y-76497075D01*
X93966786Y-76449000D01*
X94213214Y-76449000D01*
X94454903Y-76497075D01*
X94454903Y-76497075D01*
G37*
G36*
X128024072Y-75300918D02*
G01*
X128269939Y-75402759D01*
X128282742Y-75411314D01*
X128491211Y-75550609D01*
X128679391Y-75738789D01*
X128827242Y-75960063D01*
X128929082Y-76205928D01*
X128981000Y-76466937D01*
X128981000Y-76733063D01*
X128929082Y-76994072D01*
X128859937Y-77161005D01*
X128827241Y-77239939D01*
X128679390Y-77461212D01*
X128491212Y-77649390D01*
X128269939Y-77797241D01*
X128269938Y-77797242D01*
X128269937Y-77797242D01*
X128024072Y-77899082D01*
X127763063Y-77951000D01*
X127496937Y-77951000D01*
X127235928Y-77899082D01*
X126990063Y-77797242D01*
X126990062Y-77797242D01*
X126990061Y-77797241D01*
X126768788Y-77649390D01*
X126580610Y-77461212D01*
X126432759Y-77239939D01*
X126400064Y-77161005D01*
X126330918Y-76994072D01*
X126279000Y-76733063D01*
X126279000Y-76466937D01*
X126330918Y-76205928D01*
X126432758Y-75960063D01*
X126580609Y-75738789D01*
X126768789Y-75550609D01*
X126977258Y-75411314D01*
X126990061Y-75402759D01*
X127235928Y-75300918D01*
X127496937Y-75249000D01*
X127763063Y-75249000D01*
X128024072Y-75300918D01*
X128024072Y-75300918D01*
G37*
G36*
X18684072Y-74920918D02*
G01*
X18929939Y-75022759D01*
X19041328Y-75097187D01*
X19151211Y-75170609D01*
X19339391Y-75358789D01*
X19407002Y-75459976D01*
X19467562Y-75550609D01*
X19487242Y-75580063D01*
X19589082Y-75825928D01*
X19640252Y-76083175D01*
X19641000Y-76086938D01*
X19641000Y-76353062D01*
X19589082Y-76614072D01*
X19487241Y-76859939D01*
X19443716Y-76925078D01*
X19339391Y-77081211D01*
X19151211Y-77269391D01*
X19103905Y-77301000D01*
X18929939Y-77417241D01*
X18929938Y-77417242D01*
X18929937Y-77417242D01*
X18684072Y-77519082D01*
X18423063Y-77571000D01*
X18156937Y-77571000D01*
X17895928Y-77519082D01*
X17650063Y-77417242D01*
X17650062Y-77417242D01*
X17650061Y-77417241D01*
X17476095Y-77301000D01*
X17428789Y-77269391D01*
X17240609Y-77081211D01*
X17136284Y-76925078D01*
X17092759Y-76859939D01*
X16990918Y-76614072D01*
X16939000Y-76353062D01*
X16939000Y-76086938D01*
X16939749Y-76083175D01*
X16990918Y-75825928D01*
X17092758Y-75580063D01*
X17112439Y-75550609D01*
X17172998Y-75459976D01*
X17240609Y-75358789D01*
X17428789Y-75170609D01*
X17538672Y-75097187D01*
X17650061Y-75022759D01*
X17895928Y-74920918D01*
X18156937Y-74869000D01*
X18423063Y-74869000D01*
X18684072Y-74920918D01*
X18684072Y-74920918D01*
G37*
G36*
X29256823Y-75611313D02*
G01*
X29417242Y-75659976D01*
X29549906Y-75730886D01*
X29565078Y-75738996D01*
X29694659Y-75845341D01*
X29801004Y-75974922D01*
X29801005Y-75974924D01*
X29880024Y-76122758D01*
X29928687Y-76283177D01*
X29945117Y-76450000D01*
X29928687Y-76616823D01*
X29880024Y-76777242D01*
X29835821Y-76859939D01*
X29801004Y-76925078D01*
X29694659Y-77054659D01*
X29565078Y-77161004D01*
X29565076Y-77161005D01*
X29417242Y-77240024D01*
X29256823Y-77288687D01*
X29131804Y-77301000D01*
X29048196Y-77301000D01*
X28923177Y-77288687D01*
X28762758Y-77240024D01*
X28614924Y-77161005D01*
X28614922Y-77161004D01*
X28485341Y-77054659D01*
X28378996Y-76925078D01*
X28344179Y-76859939D01*
X28299976Y-76777242D01*
X28251313Y-76616823D01*
X28234883Y-76450000D01*
X28251313Y-76283177D01*
X28299976Y-76122758D01*
X28378995Y-75974924D01*
X28378996Y-75974922D01*
X28485341Y-75845341D01*
X28614922Y-75738996D01*
X28630094Y-75730886D01*
X28762758Y-75659976D01*
X28923177Y-75611313D01*
X29048196Y-75599000D01*
X29131804Y-75599000D01*
X29256823Y-75611313D01*
X29256823Y-75611313D01*
G37*
G36*
X36876823Y-75611313D02*
G01*
X37037242Y-75659976D01*
X37169906Y-75730886D01*
X37185078Y-75738996D01*
X37314659Y-75845341D01*
X37421004Y-75974922D01*
X37421005Y-75974924D01*
X37500024Y-76122758D01*
X37548687Y-76283177D01*
X37565117Y-76450000D01*
X37548687Y-76616823D01*
X37500024Y-76777242D01*
X37455821Y-76859939D01*
X37421004Y-76925078D01*
X37314659Y-77054659D01*
X37185078Y-77161004D01*
X37185076Y-77161005D01*
X37037242Y-77240024D01*
X36876823Y-77288687D01*
X36751804Y-77301000D01*
X36668196Y-77301000D01*
X36543177Y-77288687D01*
X36382758Y-77240024D01*
X36234924Y-77161005D01*
X36234922Y-77161004D01*
X36105341Y-77054659D01*
X35998996Y-76925078D01*
X35964179Y-76859939D01*
X35919976Y-76777242D01*
X35871313Y-76616823D01*
X35854883Y-76450000D01*
X35871313Y-76283177D01*
X35919976Y-76122758D01*
X35998995Y-75974924D01*
X35998996Y-75974922D01*
X36105341Y-75845341D01*
X36234922Y-75738996D01*
X36250094Y-75730886D01*
X36382758Y-75659976D01*
X36543177Y-75611313D01*
X36668196Y-75599000D01*
X36751804Y-75599000D01*
X36876823Y-75611313D01*
X36876823Y-75611313D01*
G37*
G36*
X42466823Y-75411313D02*
G01*
X42627242Y-75459976D01*
X42759906Y-75530886D01*
X42775078Y-75538996D01*
X42904659Y-75645341D01*
X43011004Y-75774922D01*
X43011005Y-75774924D01*
X43090024Y-75922758D01*
X43138687Y-76083177D01*
X43155117Y-76250000D01*
X43138687Y-76416823D01*
X43090024Y-76577242D01*
X43068867Y-76616823D01*
X43011004Y-76725078D01*
X42904659Y-76854659D01*
X42775078Y-76961004D01*
X42775076Y-76961005D01*
X42627242Y-77040024D01*
X42466823Y-77088687D01*
X42341804Y-77101000D01*
X42258196Y-77101000D01*
X42133177Y-77088687D01*
X41972758Y-77040024D01*
X41824924Y-76961005D01*
X41824922Y-76961004D01*
X41695341Y-76854659D01*
X41588996Y-76725078D01*
X41531133Y-76616823D01*
X41509976Y-76577242D01*
X41461313Y-76416823D01*
X41444883Y-76250000D01*
X41461313Y-76083177D01*
X41509976Y-75922758D01*
X41588995Y-75774924D01*
X41588996Y-75774922D01*
X41695341Y-75645341D01*
X41824922Y-75538996D01*
X41840094Y-75530886D01*
X41972758Y-75459976D01*
X42133177Y-75411313D01*
X42258196Y-75399000D01*
X42341804Y-75399000D01*
X42466823Y-75411313D01*
X42466823Y-75411313D01*
G37*
G36*
X50086823Y-75411313D02*
G01*
X50247242Y-75459976D01*
X50379906Y-75530886D01*
X50395078Y-75538996D01*
X50524659Y-75645341D01*
X50631004Y-75774922D01*
X50631005Y-75774924D01*
X50710024Y-75922758D01*
X50758687Y-76083177D01*
X50775117Y-76250000D01*
X50758687Y-76416823D01*
X50710024Y-76577242D01*
X50688867Y-76616823D01*
X50631004Y-76725078D01*
X50524659Y-76854659D01*
X50395078Y-76961004D01*
X50395076Y-76961005D01*
X50247242Y-77040024D01*
X50086823Y-77088687D01*
X49961804Y-77101000D01*
X49878196Y-77101000D01*
X49753177Y-77088687D01*
X49592758Y-77040024D01*
X49444924Y-76961005D01*
X49444922Y-76961004D01*
X49315341Y-76854659D01*
X49208996Y-76725078D01*
X49151133Y-76616823D01*
X49129976Y-76577242D01*
X49081313Y-76416823D01*
X49064883Y-76250000D01*
X49081313Y-76083177D01*
X49129976Y-75922758D01*
X49208995Y-75774924D01*
X49208996Y-75774922D01*
X49315341Y-75645341D01*
X49444922Y-75538996D01*
X49460094Y-75530886D01*
X49592758Y-75459976D01*
X49753177Y-75411313D01*
X49878196Y-75399000D01*
X49961804Y-75399000D01*
X50086823Y-75411313D01*
X50086823Y-75411313D01*
G37*
G36*
X29256823Y-73071313D02*
G01*
X29417242Y-73119976D01*
X29549906Y-73190886D01*
X29565078Y-73198996D01*
X29694659Y-73305341D01*
X29801004Y-73434922D01*
X29801005Y-73434924D01*
X29880024Y-73582758D01*
X29928687Y-73743177D01*
X29945117Y-73910000D01*
X29928687Y-74076823D01*
X29880024Y-74237242D01*
X29809114Y-74369906D01*
X29801004Y-74385078D01*
X29694659Y-74514659D01*
X29565078Y-74621004D01*
X29565076Y-74621005D01*
X29417242Y-74700024D01*
X29256823Y-74748687D01*
X29131804Y-74761000D01*
X29048196Y-74761000D01*
X28923177Y-74748687D01*
X28762758Y-74700024D01*
X28614924Y-74621005D01*
X28614922Y-74621004D01*
X28485341Y-74514659D01*
X28378996Y-74385078D01*
X28370886Y-74369906D01*
X28299976Y-74237242D01*
X28251313Y-74076823D01*
X28234883Y-73910000D01*
X28251313Y-73743177D01*
X28299976Y-73582758D01*
X28378995Y-73434924D01*
X28378996Y-73434922D01*
X28485341Y-73305341D01*
X28614922Y-73198996D01*
X28630094Y-73190886D01*
X28762758Y-73119976D01*
X28923177Y-73071313D01*
X29048196Y-73059000D01*
X29131804Y-73059000D01*
X29256823Y-73071313D01*
X29256823Y-73071313D01*
G37*
G36*
X36876823Y-73071313D02*
G01*
X37037242Y-73119976D01*
X37169906Y-73190886D01*
X37185078Y-73198996D01*
X37314659Y-73305341D01*
X37421004Y-73434922D01*
X37421005Y-73434924D01*
X37500024Y-73582758D01*
X37548687Y-73743177D01*
X37565117Y-73910000D01*
X37548687Y-74076823D01*
X37500024Y-74237242D01*
X37429114Y-74369906D01*
X37421004Y-74385078D01*
X37314659Y-74514659D01*
X37185078Y-74621004D01*
X37185076Y-74621005D01*
X37037242Y-74700024D01*
X36876823Y-74748687D01*
X36751804Y-74761000D01*
X36668196Y-74761000D01*
X36543177Y-74748687D01*
X36382758Y-74700024D01*
X36234924Y-74621005D01*
X36234922Y-74621004D01*
X36105341Y-74514659D01*
X35998996Y-74385078D01*
X35990886Y-74369906D01*
X35919976Y-74237242D01*
X35871313Y-74076823D01*
X35854883Y-73910000D01*
X35871313Y-73743177D01*
X35919976Y-73582758D01*
X35998995Y-73434924D01*
X35998996Y-73434922D01*
X36105341Y-73305341D01*
X36234922Y-73198996D01*
X36250094Y-73190886D01*
X36382758Y-73119976D01*
X36543177Y-73071313D01*
X36668196Y-73059000D01*
X36751804Y-73059000D01*
X36876823Y-73071313D01*
X36876823Y-73071313D01*
G37*
G36*
X50086823Y-72871313D02*
G01*
X50247242Y-72919976D01*
X50379906Y-72990886D01*
X50395078Y-72998996D01*
X50524659Y-73105341D01*
X50631004Y-73234922D01*
X50631005Y-73234924D01*
X50710024Y-73382758D01*
X50758687Y-73543177D01*
X50775117Y-73710000D01*
X50758687Y-73876823D01*
X50710024Y-74037242D01*
X50688867Y-74076823D01*
X50631004Y-74185078D01*
X50524659Y-74314659D01*
X50395078Y-74421004D01*
X50395076Y-74421005D01*
X50247242Y-74500024D01*
X50086823Y-74548687D01*
X49961804Y-74561000D01*
X49878196Y-74561000D01*
X49753177Y-74548687D01*
X49592758Y-74500024D01*
X49444924Y-74421005D01*
X49444922Y-74421004D01*
X49315341Y-74314659D01*
X49208996Y-74185078D01*
X49151133Y-74076823D01*
X49129976Y-74037242D01*
X49081313Y-73876823D01*
X49064883Y-73710000D01*
X49081313Y-73543177D01*
X49129976Y-73382758D01*
X49208995Y-73234924D01*
X49208996Y-73234922D01*
X49315341Y-73105341D01*
X49444922Y-72998996D01*
X49460094Y-72990886D01*
X49592758Y-72919976D01*
X49753177Y-72871313D01*
X49878196Y-72859000D01*
X49961804Y-72859000D01*
X50086823Y-72871313D01*
X50086823Y-72871313D01*
G37*
G36*
X42466823Y-72871313D02*
G01*
X42627242Y-72919976D01*
X42759906Y-72990886D01*
X42775078Y-72998996D01*
X42904659Y-73105341D01*
X43011004Y-73234922D01*
X43011005Y-73234924D01*
X43090024Y-73382758D01*
X43138687Y-73543177D01*
X43155117Y-73710000D01*
X43138687Y-73876823D01*
X43090024Y-74037242D01*
X43068867Y-74076823D01*
X43011004Y-74185078D01*
X42904659Y-74314659D01*
X42775078Y-74421004D01*
X42775076Y-74421005D01*
X42627242Y-74500024D01*
X42466823Y-74548687D01*
X42341804Y-74561000D01*
X42258196Y-74561000D01*
X42133177Y-74548687D01*
X41972758Y-74500024D01*
X41824924Y-74421005D01*
X41824922Y-74421004D01*
X41695341Y-74314659D01*
X41588996Y-74185078D01*
X41531133Y-74076823D01*
X41509976Y-74037242D01*
X41461313Y-73876823D01*
X41444883Y-73710000D01*
X41461313Y-73543177D01*
X41509976Y-73382758D01*
X41588995Y-73234924D01*
X41588996Y-73234922D01*
X41695341Y-73105341D01*
X41824922Y-72998996D01*
X41840094Y-72990886D01*
X41972758Y-72919976D01*
X42133177Y-72871313D01*
X42258196Y-72859000D01*
X42341804Y-72859000D01*
X42466823Y-72871313D01*
X42466823Y-72871313D01*
G37*
G36*
X128024072Y-70300918D02*
G01*
X128214934Y-70379975D01*
X128269939Y-70402759D01*
X128354101Y-70458995D01*
X128491211Y-70550609D01*
X128679391Y-70738789D01*
X128737616Y-70825928D01*
X128783718Y-70894924D01*
X128827242Y-70960063D01*
X128929082Y-71205928D01*
X128981000Y-71466937D01*
X128981000Y-71733063D01*
X128929082Y-71994072D01*
X128840187Y-72208686D01*
X128827241Y-72239939D01*
X128679390Y-72461212D01*
X128491212Y-72649390D01*
X128269939Y-72797241D01*
X128269938Y-72797242D01*
X128269937Y-72797242D01*
X128024072Y-72899082D01*
X127763063Y-72951000D01*
X127496937Y-72951000D01*
X127235928Y-72899082D01*
X126990063Y-72797242D01*
X126990062Y-72797242D01*
X126990061Y-72797241D01*
X126768788Y-72649390D01*
X126580610Y-72461212D01*
X126432759Y-72239939D01*
X126419814Y-72208686D01*
X126330918Y-71994072D01*
X126279000Y-71733063D01*
X126279000Y-71466937D01*
X126330918Y-71205928D01*
X126432758Y-70960063D01*
X126476283Y-70894924D01*
X126522384Y-70825928D01*
X126580609Y-70738789D01*
X126768789Y-70550609D01*
X126905899Y-70458995D01*
X126990061Y-70402759D01*
X127045067Y-70379975D01*
X127235928Y-70300918D01*
X127496937Y-70249000D01*
X127763063Y-70249000D01*
X128024072Y-70300918D01*
X128024072Y-70300918D01*
G37*
G36*
X18684072Y-69920918D02*
G01*
X18929939Y-70022759D01*
X18957238Y-70041000D01*
X19151211Y-70170609D01*
X19339391Y-70358789D01*
X19368770Y-70402758D01*
X19487184Y-70579975D01*
X19487242Y-70580063D01*
X19589082Y-70825928D01*
X19641000Y-71086937D01*
X19641000Y-71353063D01*
X19589082Y-71614072D01*
X19493398Y-71845076D01*
X19487241Y-71859939D01*
X19473165Y-71881005D01*
X19339529Y-72081005D01*
X19339390Y-72081212D01*
X19151212Y-72269390D01*
X18929939Y-72417241D01*
X18929938Y-72417242D01*
X18929937Y-72417242D01*
X18684072Y-72519082D01*
X18423063Y-72571000D01*
X18156937Y-72571000D01*
X17895928Y-72519082D01*
X17650063Y-72417242D01*
X17650062Y-72417242D01*
X17650061Y-72417241D01*
X17428788Y-72269390D01*
X17240610Y-72081212D01*
X17240472Y-72081005D01*
X17106835Y-71881005D01*
X17092759Y-71859939D01*
X17086603Y-71845076D01*
X16990918Y-71614072D01*
X16939000Y-71353063D01*
X16939000Y-71086937D01*
X16990918Y-70825928D01*
X17092758Y-70580063D01*
X17092817Y-70579975D01*
X17211230Y-70402758D01*
X17240609Y-70358789D01*
X17428789Y-70170609D01*
X17622762Y-70041000D01*
X17650061Y-70022759D01*
X17895928Y-69920918D01*
X18156937Y-69869000D01*
X18423063Y-69869000D01*
X18684072Y-69920918D01*
X18684072Y-69920918D01*
G37*
G36*
X36876823Y-70531313D02*
G01*
X37037242Y-70579976D01*
X37169906Y-70650886D01*
X37185078Y-70658996D01*
X37314659Y-70765341D01*
X37421004Y-70894922D01*
X37421005Y-70894924D01*
X37500024Y-71042758D01*
X37548687Y-71203177D01*
X37565117Y-71370000D01*
X37548687Y-71536823D01*
X37500024Y-71697242D01*
X37429114Y-71829906D01*
X37421004Y-71845078D01*
X37314659Y-71974659D01*
X37185078Y-72081004D01*
X37185076Y-72081005D01*
X37037242Y-72160024D01*
X36876823Y-72208687D01*
X36751804Y-72221000D01*
X36668196Y-72221000D01*
X36543177Y-72208687D01*
X36382758Y-72160024D01*
X36234924Y-72081005D01*
X36234922Y-72081004D01*
X36105341Y-71974659D01*
X35998996Y-71845078D01*
X35990886Y-71829906D01*
X35919976Y-71697242D01*
X35871313Y-71536823D01*
X35854883Y-71370000D01*
X35871313Y-71203177D01*
X35919976Y-71042758D01*
X35998995Y-70894924D01*
X35998996Y-70894922D01*
X36105341Y-70765341D01*
X36234922Y-70658996D01*
X36250094Y-70650886D01*
X36382758Y-70579976D01*
X36543177Y-70531313D01*
X36668196Y-70519000D01*
X36751804Y-70519000D01*
X36876823Y-70531313D01*
X36876823Y-70531313D01*
G37*
G36*
X29256823Y-70531313D02*
G01*
X29417242Y-70579976D01*
X29549906Y-70650886D01*
X29565078Y-70658996D01*
X29694659Y-70765341D01*
X29801004Y-70894922D01*
X29801005Y-70894924D01*
X29880024Y-71042758D01*
X29928687Y-71203177D01*
X29945117Y-71370000D01*
X29928687Y-71536823D01*
X29880024Y-71697242D01*
X29809114Y-71829906D01*
X29801004Y-71845078D01*
X29694659Y-71974659D01*
X29565078Y-72081004D01*
X29565076Y-72081005D01*
X29417242Y-72160024D01*
X29256823Y-72208687D01*
X29131804Y-72221000D01*
X29048196Y-72221000D01*
X28923177Y-72208687D01*
X28762758Y-72160024D01*
X28614924Y-72081005D01*
X28614922Y-72081004D01*
X28485341Y-71974659D01*
X28378996Y-71845078D01*
X28370886Y-71829906D01*
X28299976Y-71697242D01*
X28251313Y-71536823D01*
X28234883Y-71370000D01*
X28251313Y-71203177D01*
X28299976Y-71042758D01*
X28378995Y-70894924D01*
X28378996Y-70894922D01*
X28485341Y-70765341D01*
X28614922Y-70658996D01*
X28630094Y-70650886D01*
X28762758Y-70579976D01*
X28923177Y-70531313D01*
X29048196Y-70519000D01*
X29131804Y-70519000D01*
X29256823Y-70531313D01*
X29256823Y-70531313D01*
G37*
G36*
X42466823Y-70331313D02*
G01*
X42627242Y-70379976D01*
X42759906Y-70450886D01*
X42775078Y-70458996D01*
X42904659Y-70565341D01*
X43011004Y-70694922D01*
X43011005Y-70694924D01*
X43090024Y-70842758D01*
X43138687Y-71003177D01*
X43155117Y-71170000D01*
X43138687Y-71336823D01*
X43090024Y-71497242D01*
X43068867Y-71536823D01*
X43011004Y-71645078D01*
X42904659Y-71774659D01*
X42775078Y-71881004D01*
X42775076Y-71881005D01*
X42627242Y-71960024D01*
X42466823Y-72008687D01*
X42341804Y-72021000D01*
X42258196Y-72021000D01*
X42133177Y-72008687D01*
X41972758Y-71960024D01*
X41824924Y-71881005D01*
X41824922Y-71881004D01*
X41695341Y-71774659D01*
X41588996Y-71645078D01*
X41531133Y-71536823D01*
X41509976Y-71497242D01*
X41461313Y-71336823D01*
X41444883Y-71170000D01*
X41461313Y-71003177D01*
X41509976Y-70842758D01*
X41588995Y-70694924D01*
X41588996Y-70694922D01*
X41695341Y-70565341D01*
X41824922Y-70458996D01*
X41840094Y-70450886D01*
X41972758Y-70379976D01*
X42133177Y-70331313D01*
X42258196Y-70319000D01*
X42341804Y-70319000D01*
X42466823Y-70331313D01*
X42466823Y-70331313D01*
G37*
G36*
X50086823Y-70331313D02*
G01*
X50247242Y-70379976D01*
X50379906Y-70450886D01*
X50395078Y-70458996D01*
X50524659Y-70565341D01*
X50631004Y-70694922D01*
X50631005Y-70694924D01*
X50710024Y-70842758D01*
X50758687Y-71003177D01*
X50775117Y-71170000D01*
X50758687Y-71336823D01*
X50710024Y-71497242D01*
X50688867Y-71536823D01*
X50631004Y-71645078D01*
X50524659Y-71774659D01*
X50395078Y-71881004D01*
X50395076Y-71881005D01*
X50247242Y-71960024D01*
X50086823Y-72008687D01*
X49961804Y-72021000D01*
X49878196Y-72021000D01*
X49753177Y-72008687D01*
X49592758Y-71960024D01*
X49444924Y-71881005D01*
X49444922Y-71881004D01*
X49315341Y-71774659D01*
X49208996Y-71645078D01*
X49151133Y-71536823D01*
X49129976Y-71497242D01*
X49081313Y-71336823D01*
X49064883Y-71170000D01*
X49081313Y-71003177D01*
X49129976Y-70842758D01*
X49208995Y-70694924D01*
X49208996Y-70694922D01*
X49315341Y-70565341D01*
X49444922Y-70458996D01*
X49460094Y-70450886D01*
X49592758Y-70379976D01*
X49753177Y-70331313D01*
X49878196Y-70319000D01*
X49961804Y-70319000D01*
X50086823Y-70331313D01*
X50086823Y-70331313D01*
G37*
G36*
X94434903Y-67587075D02*
G01*
X94585348Y-67649391D01*
X94662571Y-67681378D01*
X94867466Y-67818285D01*
X95041715Y-67992534D01*
X95150221Y-68154924D01*
X95178623Y-68197431D01*
X95272925Y-68425097D01*
X95321000Y-68666786D01*
X95321000Y-68913214D01*
X95272925Y-69154903D01*
X95210722Y-69305076D01*
X95178622Y-69382571D01*
X95041715Y-69587466D01*
X94867466Y-69761715D01*
X94662571Y-69898622D01*
X94662570Y-69898623D01*
X94662569Y-69898623D01*
X94434903Y-69992925D01*
X94193214Y-70041000D01*
X93946786Y-70041000D01*
X93705097Y-69992925D01*
X93477431Y-69898623D01*
X93477430Y-69898623D01*
X93477429Y-69898622D01*
X93272534Y-69761715D01*
X93098285Y-69587466D01*
X92961378Y-69382571D01*
X92929279Y-69305076D01*
X92867075Y-69154903D01*
X92819000Y-68913214D01*
X92819000Y-68666786D01*
X92867075Y-68425097D01*
X92961377Y-68197431D01*
X92989779Y-68154924D01*
X93098285Y-67992534D01*
X93272534Y-67818285D01*
X93477429Y-67681378D01*
X93554653Y-67649391D01*
X93705097Y-67587075D01*
X93946786Y-67539000D01*
X94193214Y-67539000D01*
X94434903Y-67587075D01*
X94434903Y-67587075D01*
G37*
G36*
X117034903Y-67587075D02*
G01*
X117185348Y-67649391D01*
X117262571Y-67681378D01*
X117467466Y-67818285D01*
X117641715Y-67992534D01*
X117750221Y-68154924D01*
X117778623Y-68197431D01*
X117872925Y-68425097D01*
X117921000Y-68666786D01*
X117921000Y-68913214D01*
X117872925Y-69154903D01*
X117810722Y-69305076D01*
X117778622Y-69382571D01*
X117641715Y-69587466D01*
X117467466Y-69761715D01*
X117262571Y-69898622D01*
X117262570Y-69898623D01*
X117262569Y-69898623D01*
X117034903Y-69992925D01*
X116793214Y-70041000D01*
X116546786Y-70041000D01*
X116305097Y-69992925D01*
X116077431Y-69898623D01*
X116077430Y-69898623D01*
X116077429Y-69898622D01*
X115872534Y-69761715D01*
X115698285Y-69587466D01*
X115561378Y-69382571D01*
X115529279Y-69305076D01*
X115467075Y-69154903D01*
X115419000Y-68913214D01*
X115419000Y-68666786D01*
X115467075Y-68425097D01*
X115561377Y-68197431D01*
X115589779Y-68154924D01*
X115698285Y-67992534D01*
X115872534Y-67818285D01*
X116077429Y-67681378D01*
X116154653Y-67649391D01*
X116305097Y-67587075D01*
X116546786Y-67539000D01*
X116793214Y-67539000D01*
X117034903Y-67587075D01*
X117034903Y-67587075D01*
G37*
G36*
X36876823Y-67991313D02*
G01*
X37037242Y-68039976D01*
X37169906Y-68110886D01*
X37185078Y-68118996D01*
X37314659Y-68225341D01*
X37421004Y-68354922D01*
X37421005Y-68354924D01*
X37500024Y-68502758D01*
X37548687Y-68663177D01*
X37565117Y-68830000D01*
X37548687Y-68996823D01*
X37500024Y-69157242D01*
X37429114Y-69289906D01*
X37421004Y-69305078D01*
X37314659Y-69434659D01*
X37185078Y-69541004D01*
X37185076Y-69541005D01*
X37037242Y-69620024D01*
X36876823Y-69668687D01*
X36751804Y-69681000D01*
X36668196Y-69681000D01*
X36543177Y-69668687D01*
X36382758Y-69620024D01*
X36234924Y-69541005D01*
X36234922Y-69541004D01*
X36105341Y-69434659D01*
X35998996Y-69305078D01*
X35990886Y-69289906D01*
X35919976Y-69157242D01*
X35871313Y-68996823D01*
X35854883Y-68830000D01*
X35871313Y-68663177D01*
X35919976Y-68502758D01*
X35998995Y-68354924D01*
X35998996Y-68354922D01*
X36105341Y-68225341D01*
X36234922Y-68118996D01*
X36250094Y-68110886D01*
X36382758Y-68039976D01*
X36543177Y-67991313D01*
X36668196Y-67979000D01*
X36751804Y-67979000D01*
X36876823Y-67991313D01*
X36876823Y-67991313D01*
G37*
G36*
X29256823Y-67991313D02*
G01*
X29417242Y-68039976D01*
X29549906Y-68110886D01*
X29565078Y-68118996D01*
X29694659Y-68225341D01*
X29801004Y-68354922D01*
X29801005Y-68354924D01*
X29880024Y-68502758D01*
X29928687Y-68663177D01*
X29945117Y-68830000D01*
X29928687Y-68996823D01*
X29880024Y-69157242D01*
X29809114Y-69289906D01*
X29801004Y-69305078D01*
X29694659Y-69434659D01*
X29565078Y-69541004D01*
X29565076Y-69541005D01*
X29417242Y-69620024D01*
X29256823Y-69668687D01*
X29131804Y-69681000D01*
X29048196Y-69681000D01*
X28923177Y-69668687D01*
X28762758Y-69620024D01*
X28614924Y-69541005D01*
X28614922Y-69541004D01*
X28485341Y-69434659D01*
X28378996Y-69305078D01*
X28370886Y-69289906D01*
X28299976Y-69157242D01*
X28251313Y-68996823D01*
X28234883Y-68830000D01*
X28251313Y-68663177D01*
X28299976Y-68502758D01*
X28378995Y-68354924D01*
X28378996Y-68354922D01*
X28485341Y-68225341D01*
X28614922Y-68118996D01*
X28630094Y-68110886D01*
X28762758Y-68039976D01*
X28923177Y-67991313D01*
X29048196Y-67979000D01*
X29131804Y-67979000D01*
X29256823Y-67991313D01*
X29256823Y-67991313D01*
G37*
G36*
X50086823Y-67791313D02*
G01*
X50247242Y-67839976D01*
X50357821Y-67899082D01*
X50395078Y-67918996D01*
X50524659Y-68025341D01*
X50631004Y-68154922D01*
X50631005Y-68154924D01*
X50710024Y-68302758D01*
X50758687Y-68463177D01*
X50775117Y-68630000D01*
X50758687Y-68796823D01*
X50710024Y-68957242D01*
X50688867Y-68996823D01*
X50631004Y-69105078D01*
X50524659Y-69234659D01*
X50395078Y-69341004D01*
X50395076Y-69341005D01*
X50247242Y-69420024D01*
X50086823Y-69468687D01*
X49961804Y-69481000D01*
X49878196Y-69481000D01*
X49753177Y-69468687D01*
X49592758Y-69420024D01*
X49444924Y-69341005D01*
X49444922Y-69341004D01*
X49315341Y-69234659D01*
X49208996Y-69105078D01*
X49151133Y-68996823D01*
X49129976Y-68957242D01*
X49081313Y-68796823D01*
X49064883Y-68630000D01*
X49081313Y-68463177D01*
X49129976Y-68302758D01*
X49208995Y-68154924D01*
X49208996Y-68154922D01*
X49315341Y-68025341D01*
X49444922Y-67918996D01*
X49482179Y-67899082D01*
X49592758Y-67839976D01*
X49753177Y-67791313D01*
X49878196Y-67779000D01*
X49961804Y-67779000D01*
X50086823Y-67791313D01*
X50086823Y-67791313D01*
G37*
G36*
X42466823Y-67791313D02*
G01*
X42627242Y-67839976D01*
X42737821Y-67899082D01*
X42775078Y-67918996D01*
X42904659Y-68025341D01*
X43011004Y-68154922D01*
X43011005Y-68154924D01*
X43090024Y-68302758D01*
X43138687Y-68463177D01*
X43155117Y-68630000D01*
X43138687Y-68796823D01*
X43090024Y-68957242D01*
X43068867Y-68996823D01*
X43011004Y-69105078D01*
X42904659Y-69234659D01*
X42775078Y-69341004D01*
X42775076Y-69341005D01*
X42627242Y-69420024D01*
X42466823Y-69468687D01*
X42341804Y-69481000D01*
X42258196Y-69481000D01*
X42133177Y-69468687D01*
X41972758Y-69420024D01*
X41824924Y-69341005D01*
X41824922Y-69341004D01*
X41695341Y-69234659D01*
X41588996Y-69105078D01*
X41531133Y-68996823D01*
X41509976Y-68957242D01*
X41461313Y-68796823D01*
X41444883Y-68630000D01*
X41461313Y-68463177D01*
X41509976Y-68302758D01*
X41588995Y-68154924D01*
X41588996Y-68154922D01*
X41695341Y-68025341D01*
X41824922Y-67918996D01*
X41862179Y-67899082D01*
X41972758Y-67839976D01*
X42133177Y-67791313D01*
X42258196Y-67779000D01*
X42341804Y-67779000D01*
X42466823Y-67791313D01*
X42466823Y-67791313D01*
G37*
G36*
X128024072Y-65300918D02*
G01*
X128212568Y-65378995D01*
X128269939Y-65402759D01*
X128342606Y-65451314D01*
X128491211Y-65550609D01*
X128679391Y-65738789D01*
X128730263Y-65814924D01*
X128802596Y-65923177D01*
X128827242Y-65960063D01*
X128929082Y-66205928D01*
X128981000Y-66466937D01*
X128981000Y-66733063D01*
X128942088Y-66928686D01*
X128929082Y-66994072D01*
X128827241Y-67239939D01*
X128752813Y-67351328D01*
X128679391Y-67461211D01*
X128491211Y-67649391D01*
X128443339Y-67681378D01*
X128269939Y-67797241D01*
X128269938Y-67797242D01*
X128269937Y-67797242D01*
X128024072Y-67899082D01*
X127763063Y-67951000D01*
X127496937Y-67951000D01*
X127235928Y-67899082D01*
X126990063Y-67797242D01*
X126990062Y-67797242D01*
X126990061Y-67797241D01*
X126816661Y-67681378D01*
X126768789Y-67649391D01*
X126580609Y-67461211D01*
X126507187Y-67351328D01*
X126432759Y-67239939D01*
X126330918Y-66994072D01*
X126317912Y-66928686D01*
X126279000Y-66733063D01*
X126279000Y-66466937D01*
X126330918Y-66205928D01*
X126432758Y-65960063D01*
X126457405Y-65923177D01*
X126529737Y-65814924D01*
X126580609Y-65738789D01*
X126768789Y-65550609D01*
X126917394Y-65451314D01*
X126990061Y-65402759D01*
X127047433Y-65378995D01*
X127235928Y-65300918D01*
X127496937Y-65249000D01*
X127763063Y-65249000D01*
X128024072Y-65300918D01*
X128024072Y-65300918D01*
G37*
G36*
X18684072Y-64920918D02*
G01*
X18929939Y-65022759D01*
X19151212Y-65170610D01*
X19339390Y-65358788D01*
X19486529Y-65578995D01*
X19487242Y-65580063D01*
X19589082Y-65825928D01*
X19641000Y-66086937D01*
X19641000Y-66353063D01*
X19589082Y-66614072D01*
X19487241Y-66859939D01*
X19339390Y-67081212D01*
X19151212Y-67269390D01*
X18929939Y-67417241D01*
X18929938Y-67417242D01*
X18929937Y-67417242D01*
X18684072Y-67519082D01*
X18423063Y-67571000D01*
X18156937Y-67571000D01*
X17895928Y-67519082D01*
X17650063Y-67417242D01*
X17650062Y-67417242D01*
X17650061Y-67417241D01*
X17428788Y-67269390D01*
X17240610Y-67081212D01*
X17092759Y-66859939D01*
X16990918Y-66614072D01*
X16939000Y-66353063D01*
X16939000Y-66086937D01*
X16990918Y-65825928D01*
X17092758Y-65580063D01*
X17093472Y-65578995D01*
X17240610Y-65358788D01*
X17428788Y-65170610D01*
X17650061Y-65022759D01*
X17895928Y-64920918D01*
X18156937Y-64869000D01*
X18423063Y-64869000D01*
X18684072Y-64920918D01*
X18684072Y-64920918D01*
G37*
G36*
X36876823Y-65451313D02*
G01*
X37037242Y-65499976D01*
X37131971Y-65550610D01*
X37185078Y-65578996D01*
X37314659Y-65685341D01*
X37421004Y-65814922D01*
X37421005Y-65814924D01*
X37500024Y-65962758D01*
X37548687Y-66123177D01*
X37565117Y-66290000D01*
X37548687Y-66456823D01*
X37500024Y-66617242D01*
X37438117Y-66733062D01*
X37421004Y-66765078D01*
X37314659Y-66894659D01*
X37185078Y-67001004D01*
X37185076Y-67001005D01*
X37037242Y-67080024D01*
X36876823Y-67128687D01*
X36751804Y-67141000D01*
X36668196Y-67141000D01*
X36543177Y-67128687D01*
X36382758Y-67080024D01*
X36234924Y-67001005D01*
X36234922Y-67001004D01*
X36105341Y-66894659D01*
X35998996Y-66765078D01*
X35981883Y-66733062D01*
X35919976Y-66617242D01*
X35871313Y-66456823D01*
X35854883Y-66290000D01*
X35871313Y-66123177D01*
X35919976Y-65962758D01*
X35998995Y-65814924D01*
X35998996Y-65814922D01*
X36105341Y-65685341D01*
X36234922Y-65578996D01*
X36288029Y-65550610D01*
X36382758Y-65499976D01*
X36543177Y-65451313D01*
X36668196Y-65439000D01*
X36751804Y-65439000D01*
X36876823Y-65451313D01*
X36876823Y-65451313D01*
G37*
G36*
X29256823Y-65451313D02*
G01*
X29417242Y-65499976D01*
X29511971Y-65550610D01*
X29565078Y-65578996D01*
X29694659Y-65685341D01*
X29801004Y-65814922D01*
X29801005Y-65814924D01*
X29880024Y-65962758D01*
X29928687Y-66123177D01*
X29945117Y-66290000D01*
X29928687Y-66456823D01*
X29880024Y-66617242D01*
X29818117Y-66733062D01*
X29801004Y-66765078D01*
X29694659Y-66894659D01*
X29565078Y-67001004D01*
X29565076Y-67001005D01*
X29417242Y-67080024D01*
X29256823Y-67128687D01*
X29131804Y-67141000D01*
X29048196Y-67141000D01*
X28923177Y-67128687D01*
X28762758Y-67080024D01*
X28614924Y-67001005D01*
X28614922Y-67001004D01*
X28485341Y-66894659D01*
X28378996Y-66765078D01*
X28361883Y-66733062D01*
X28299976Y-66617242D01*
X28251313Y-66456823D01*
X28234883Y-66290000D01*
X28251313Y-66123177D01*
X28299976Y-65962758D01*
X28378995Y-65814924D01*
X28378996Y-65814922D01*
X28485341Y-65685341D01*
X28614922Y-65578996D01*
X28668029Y-65550610D01*
X28762758Y-65499976D01*
X28923177Y-65451313D01*
X29048196Y-65439000D01*
X29131804Y-65439000D01*
X29256823Y-65451313D01*
X29256823Y-65451313D01*
G37*
G36*
X50086823Y-65251313D02*
G01*
X50247242Y-65299976D01*
X50357271Y-65358788D01*
X50395078Y-65378996D01*
X50524659Y-65485341D01*
X50631004Y-65614922D01*
X50631005Y-65614924D01*
X50710024Y-65762758D01*
X50758687Y-65923177D01*
X50775117Y-66090000D01*
X50758687Y-66256823D01*
X50710024Y-66417242D01*
X50688867Y-66456823D01*
X50631004Y-66565078D01*
X50524659Y-66694659D01*
X50395078Y-66801004D01*
X50395076Y-66801005D01*
X50247242Y-66880024D01*
X50086823Y-66928687D01*
X49961804Y-66941000D01*
X49878196Y-66941000D01*
X49753177Y-66928687D01*
X49592758Y-66880024D01*
X49444924Y-66801005D01*
X49444922Y-66801004D01*
X49315341Y-66694659D01*
X49208996Y-66565078D01*
X49151133Y-66456823D01*
X49129976Y-66417242D01*
X49081313Y-66256823D01*
X49064883Y-66090000D01*
X49081313Y-65923177D01*
X49129976Y-65762758D01*
X49208995Y-65614924D01*
X49208996Y-65614922D01*
X49315341Y-65485341D01*
X49444922Y-65378996D01*
X49482729Y-65358788D01*
X49592758Y-65299976D01*
X49753177Y-65251313D01*
X49878196Y-65239000D01*
X49961804Y-65239000D01*
X50086823Y-65251313D01*
X50086823Y-65251313D01*
G37*
G36*
X42466823Y-65251313D02*
G01*
X42627242Y-65299976D01*
X42737271Y-65358788D01*
X42775078Y-65378996D01*
X42904659Y-65485341D01*
X43011004Y-65614922D01*
X43011005Y-65614924D01*
X43090024Y-65762758D01*
X43138687Y-65923177D01*
X43155117Y-66090000D01*
X43138687Y-66256823D01*
X43090024Y-66417242D01*
X43068867Y-66456823D01*
X43011004Y-66565078D01*
X42904659Y-66694659D01*
X42775078Y-66801004D01*
X42775076Y-66801005D01*
X42627242Y-66880024D01*
X42466823Y-66928687D01*
X42341804Y-66941000D01*
X42258196Y-66941000D01*
X42133177Y-66928687D01*
X41972758Y-66880024D01*
X41824924Y-66801005D01*
X41824922Y-66801004D01*
X41695341Y-66694659D01*
X41588996Y-66565078D01*
X41531133Y-66456823D01*
X41509976Y-66417242D01*
X41461313Y-66256823D01*
X41444883Y-66090000D01*
X41461313Y-65923177D01*
X41509976Y-65762758D01*
X41588995Y-65614924D01*
X41588996Y-65614922D01*
X41695341Y-65485341D01*
X41824922Y-65378996D01*
X41862729Y-65358788D01*
X41972758Y-65299976D01*
X42133177Y-65251313D01*
X42258196Y-65239000D01*
X42341804Y-65239000D01*
X42466823Y-65251313D01*
X42466823Y-65251313D01*
G37*
G36*
X29256823Y-62911313D02*
G01*
X29417242Y-62959976D01*
X29549906Y-63030886D01*
X29565078Y-63038996D01*
X29694659Y-63145341D01*
X29801004Y-63274922D01*
X29801005Y-63274924D01*
X29880024Y-63422758D01*
X29928687Y-63583177D01*
X29945117Y-63750000D01*
X29928687Y-63916823D01*
X29880024Y-64077242D01*
X29809114Y-64209906D01*
X29801004Y-64225078D01*
X29694659Y-64354659D01*
X29565078Y-64461004D01*
X29565076Y-64461005D01*
X29417242Y-64540024D01*
X29256823Y-64588687D01*
X29131804Y-64601000D01*
X29048196Y-64601000D01*
X28923177Y-64588687D01*
X28762758Y-64540024D01*
X28614924Y-64461005D01*
X28614922Y-64461004D01*
X28485341Y-64354659D01*
X28378996Y-64225078D01*
X28370886Y-64209906D01*
X28299976Y-64077242D01*
X28251313Y-63916823D01*
X28234883Y-63750000D01*
X28251313Y-63583177D01*
X28299976Y-63422758D01*
X28378995Y-63274924D01*
X28378996Y-63274922D01*
X28485341Y-63145341D01*
X28614922Y-63038996D01*
X28630094Y-63030886D01*
X28762758Y-62959976D01*
X28923177Y-62911313D01*
X29048196Y-62899000D01*
X29131804Y-62899000D01*
X29256823Y-62911313D01*
X29256823Y-62911313D01*
G37*
G36*
X36876823Y-62911313D02*
G01*
X37037242Y-62959976D01*
X37169906Y-63030886D01*
X37185078Y-63038996D01*
X37314659Y-63145341D01*
X37421004Y-63274922D01*
X37421005Y-63274924D01*
X37500024Y-63422758D01*
X37548687Y-63583177D01*
X37565117Y-63750000D01*
X37548687Y-63916823D01*
X37500024Y-64077242D01*
X37429114Y-64209906D01*
X37421004Y-64225078D01*
X37314659Y-64354659D01*
X37185078Y-64461004D01*
X37185076Y-64461005D01*
X37037242Y-64540024D01*
X36876823Y-64588687D01*
X36751804Y-64601000D01*
X36668196Y-64601000D01*
X36543177Y-64588687D01*
X36382758Y-64540024D01*
X36234924Y-64461005D01*
X36234922Y-64461004D01*
X36105341Y-64354659D01*
X35998996Y-64225078D01*
X35990886Y-64209906D01*
X35919976Y-64077242D01*
X35871313Y-63916823D01*
X35854883Y-63750000D01*
X35871313Y-63583177D01*
X35919976Y-63422758D01*
X35998995Y-63274924D01*
X35998996Y-63274922D01*
X36105341Y-63145341D01*
X36234922Y-63038996D01*
X36250094Y-63030886D01*
X36382758Y-62959976D01*
X36543177Y-62911313D01*
X36668196Y-62899000D01*
X36751804Y-62899000D01*
X36876823Y-62911313D01*
X36876823Y-62911313D01*
G37*
G36*
X50086823Y-62711313D02*
G01*
X50247242Y-62759976D01*
X50379906Y-62830886D01*
X50395078Y-62838996D01*
X50524659Y-62945341D01*
X50631004Y-63074922D01*
X50631005Y-63074924D01*
X50710024Y-63222758D01*
X50758687Y-63383177D01*
X50775117Y-63550000D01*
X50758687Y-63716823D01*
X50710024Y-63877242D01*
X50688867Y-63916823D01*
X50631004Y-64025078D01*
X50524659Y-64154659D01*
X50395078Y-64261004D01*
X50395076Y-64261005D01*
X50247242Y-64340024D01*
X50086823Y-64388687D01*
X49961804Y-64401000D01*
X49878196Y-64401000D01*
X49753177Y-64388687D01*
X49592758Y-64340024D01*
X49444924Y-64261005D01*
X49444922Y-64261004D01*
X49315341Y-64154659D01*
X49208996Y-64025078D01*
X49151133Y-63916823D01*
X49129976Y-63877242D01*
X49081313Y-63716823D01*
X49064883Y-63550000D01*
X49081313Y-63383177D01*
X49129976Y-63222758D01*
X49208995Y-63074924D01*
X49208996Y-63074922D01*
X49315341Y-62945341D01*
X49444922Y-62838996D01*
X49460094Y-62830886D01*
X49592758Y-62759976D01*
X49753177Y-62711313D01*
X49878196Y-62699000D01*
X49961804Y-62699000D01*
X50086823Y-62711313D01*
X50086823Y-62711313D01*
G37*
G36*
X42466823Y-62711313D02*
G01*
X42627242Y-62759976D01*
X42759906Y-62830886D01*
X42775078Y-62838996D01*
X42904659Y-62945341D01*
X43011004Y-63074922D01*
X43011005Y-63074924D01*
X43090024Y-63222758D01*
X43138687Y-63383177D01*
X43155117Y-63550000D01*
X43138687Y-63716823D01*
X43090024Y-63877242D01*
X43068867Y-63916823D01*
X43011004Y-64025078D01*
X42904659Y-64154659D01*
X42775078Y-64261004D01*
X42775076Y-64261005D01*
X42627242Y-64340024D01*
X42466823Y-64388687D01*
X42341804Y-64401000D01*
X42258196Y-64401000D01*
X42133177Y-64388687D01*
X41972758Y-64340024D01*
X41824924Y-64261005D01*
X41824922Y-64261004D01*
X41695341Y-64154659D01*
X41588996Y-64025078D01*
X41531133Y-63916823D01*
X41509976Y-63877242D01*
X41461313Y-63716823D01*
X41444883Y-63550000D01*
X41461313Y-63383177D01*
X41509976Y-63222758D01*
X41588995Y-63074924D01*
X41588996Y-63074922D01*
X41695341Y-62945341D01*
X41824922Y-62838996D01*
X41840094Y-62830886D01*
X41972758Y-62759976D01*
X42133177Y-62711313D01*
X42258196Y-62699000D01*
X42341804Y-62699000D01*
X42466823Y-62711313D01*
X42466823Y-62711313D01*
G37*
G36*
X18684072Y-59920918D02*
G01*
X18929939Y-60022759D01*
X19041328Y-60097187D01*
X19151211Y-60170609D01*
X19339391Y-60358789D01*
X19487242Y-60580063D01*
X19589082Y-60825928D01*
X19641000Y-61086937D01*
X19641000Y-61353063D01*
X19589082Y-61614072D01*
X19487242Y-61859937D01*
X19352896Y-62061000D01*
X19339390Y-62081212D01*
X19151212Y-62269390D01*
X18929939Y-62417241D01*
X18929938Y-62417242D01*
X18929937Y-62417242D01*
X18684072Y-62519082D01*
X18423063Y-62571000D01*
X18156937Y-62571000D01*
X17895928Y-62519082D01*
X17650063Y-62417242D01*
X17650062Y-62417242D01*
X17650061Y-62417241D01*
X17428788Y-62269390D01*
X17240610Y-62081212D01*
X17227105Y-62061000D01*
X17092758Y-61859937D01*
X16990918Y-61614072D01*
X16939000Y-61353063D01*
X16939000Y-61086937D01*
X16990918Y-60825928D01*
X17092758Y-60580063D01*
X17240609Y-60358789D01*
X17428789Y-60170609D01*
X17538672Y-60097187D01*
X17650061Y-60022759D01*
X17895928Y-59920918D01*
X18156937Y-59869000D01*
X18423063Y-59869000D01*
X18684072Y-59920918D01*
X18684072Y-59920918D01*
G37*
G36*
X36876823Y-60371313D02*
G01*
X37037242Y-60419976D01*
X37169906Y-60490886D01*
X37185078Y-60498996D01*
X37314659Y-60605341D01*
X37421004Y-60734922D01*
X37421005Y-60734924D01*
X37500024Y-60882758D01*
X37548687Y-61043177D01*
X37565117Y-61210000D01*
X37548687Y-61376823D01*
X37500024Y-61537242D01*
X37429114Y-61669906D01*
X37421004Y-61685078D01*
X37314659Y-61814659D01*
X37185078Y-61921004D01*
X37185076Y-61921005D01*
X37037242Y-62000024D01*
X36876823Y-62048687D01*
X36751804Y-62061000D01*
X36668196Y-62061000D01*
X36543177Y-62048687D01*
X36382758Y-62000024D01*
X36234924Y-61921005D01*
X36234922Y-61921004D01*
X36105341Y-61814659D01*
X35998996Y-61685078D01*
X35990886Y-61669906D01*
X35919976Y-61537242D01*
X35871313Y-61376823D01*
X35854883Y-61210000D01*
X35871313Y-61043177D01*
X35919976Y-60882758D01*
X35998995Y-60734924D01*
X35998996Y-60734922D01*
X36105341Y-60605341D01*
X36234922Y-60498996D01*
X36250094Y-60490886D01*
X36382758Y-60419976D01*
X36543177Y-60371313D01*
X36668196Y-60359000D01*
X36751804Y-60359000D01*
X36876823Y-60371313D01*
X36876823Y-60371313D01*
G37*
G36*
X29256823Y-60371313D02*
G01*
X29417242Y-60419976D01*
X29549906Y-60490886D01*
X29565078Y-60498996D01*
X29694659Y-60605341D01*
X29801004Y-60734922D01*
X29801005Y-60734924D01*
X29880024Y-60882758D01*
X29928687Y-61043177D01*
X29945117Y-61210000D01*
X29928687Y-61376823D01*
X29880024Y-61537242D01*
X29809114Y-61669906D01*
X29801004Y-61685078D01*
X29694659Y-61814659D01*
X29565078Y-61921004D01*
X29565076Y-61921005D01*
X29417242Y-62000024D01*
X29256823Y-62048687D01*
X29131804Y-62061000D01*
X29048196Y-62061000D01*
X28923177Y-62048687D01*
X28762758Y-62000024D01*
X28614924Y-61921005D01*
X28614922Y-61921004D01*
X28485341Y-61814659D01*
X28378996Y-61685078D01*
X28370886Y-61669906D01*
X28299976Y-61537242D01*
X28251313Y-61376823D01*
X28234883Y-61210000D01*
X28251313Y-61043177D01*
X28299976Y-60882758D01*
X28378995Y-60734924D01*
X28378996Y-60734922D01*
X28485341Y-60605341D01*
X28614922Y-60498996D01*
X28630094Y-60490886D01*
X28762758Y-60419976D01*
X28923177Y-60371313D01*
X29048196Y-60359000D01*
X29131804Y-60359000D01*
X29256823Y-60371313D01*
X29256823Y-60371313D01*
G37*
G36*
X43151000Y-61861000D02*
G01*
X41449000Y-61861000D01*
X41449000Y-60159000D01*
X43151000Y-60159000D01*
X43151000Y-61861000D01*
X43151000Y-61861000D01*
G37*
G36*
X50086823Y-60171313D02*
G01*
X50247242Y-60219976D01*
X50379906Y-60290886D01*
X50395078Y-60298996D01*
X50524659Y-60405341D01*
X50631004Y-60534922D01*
X50631005Y-60534924D01*
X50710024Y-60682758D01*
X50758687Y-60843177D01*
X50775117Y-61010000D01*
X50758687Y-61176823D01*
X50710024Y-61337242D01*
X50701567Y-61353063D01*
X50631004Y-61485078D01*
X50524659Y-61614659D01*
X50395078Y-61721004D01*
X50395076Y-61721005D01*
X50247242Y-61800024D01*
X50086823Y-61848687D01*
X49961804Y-61861000D01*
X49878196Y-61861000D01*
X49753177Y-61848687D01*
X49592758Y-61800024D01*
X49444924Y-61721005D01*
X49444922Y-61721004D01*
X49315341Y-61614659D01*
X49208996Y-61485078D01*
X49138433Y-61353063D01*
X49129976Y-61337242D01*
X49081313Y-61176823D01*
X49064883Y-61010000D01*
X49081313Y-60843177D01*
X49129976Y-60682758D01*
X49208995Y-60534924D01*
X49208996Y-60534922D01*
X49315341Y-60405341D01*
X49444922Y-60298996D01*
X49460094Y-60290886D01*
X49592758Y-60219976D01*
X49753177Y-60171313D01*
X49878196Y-60159000D01*
X49961804Y-60159000D01*
X50086823Y-60171313D01*
X50086823Y-60171313D01*
G37*
G36*
X128971000Y-61541000D02*
G01*
X126269000Y-61541000D01*
X126269000Y-58839000D01*
X128971000Y-58839000D01*
X128971000Y-61541000D01*
X128971000Y-61541000D01*
G37*
G36*
X36876823Y-57831313D02*
G01*
X37007380Y-57870917D01*
X37035957Y-57879586D01*
X37037242Y-57879976D01*
X37151026Y-57940795D01*
X37185078Y-57958996D01*
X37314659Y-58065341D01*
X37421004Y-58194922D01*
X37421005Y-58194924D01*
X37500024Y-58342758D01*
X37548687Y-58503177D01*
X37565117Y-58670000D01*
X37548687Y-58836823D01*
X37500024Y-58997242D01*
X37429114Y-59129906D01*
X37421004Y-59145078D01*
X37314659Y-59274659D01*
X37185078Y-59381004D01*
X37185076Y-59381005D01*
X37037242Y-59460024D01*
X36876823Y-59508687D01*
X36751804Y-59521000D01*
X36668196Y-59521000D01*
X36543177Y-59508687D01*
X36382758Y-59460024D01*
X36234924Y-59381005D01*
X36234922Y-59381004D01*
X36105341Y-59274659D01*
X35998996Y-59145078D01*
X35990886Y-59129906D01*
X35919976Y-58997242D01*
X35871313Y-58836823D01*
X35854883Y-58670000D01*
X35871313Y-58503177D01*
X35919976Y-58342758D01*
X35998995Y-58194924D01*
X35998996Y-58194922D01*
X36105341Y-58065341D01*
X36234922Y-57958996D01*
X36268974Y-57940795D01*
X36382758Y-57879976D01*
X36384044Y-57879586D01*
X36412620Y-57870917D01*
X36543177Y-57831313D01*
X36668196Y-57819000D01*
X36751804Y-57819000D01*
X36876823Y-57831313D01*
X36876823Y-57831313D01*
G37*
G36*
X29256823Y-57831313D02*
G01*
X29387380Y-57870917D01*
X29415957Y-57879586D01*
X29417242Y-57879976D01*
X29531026Y-57940795D01*
X29565078Y-57958996D01*
X29694659Y-58065341D01*
X29801004Y-58194922D01*
X29801005Y-58194924D01*
X29880024Y-58342758D01*
X29928687Y-58503177D01*
X29945117Y-58670000D01*
X29928687Y-58836823D01*
X29880024Y-58997242D01*
X29809114Y-59129906D01*
X29801004Y-59145078D01*
X29694659Y-59274659D01*
X29565078Y-59381004D01*
X29565076Y-59381005D01*
X29417242Y-59460024D01*
X29256823Y-59508687D01*
X29131804Y-59521000D01*
X29048196Y-59521000D01*
X28923177Y-59508687D01*
X28762758Y-59460024D01*
X28614924Y-59381005D01*
X28614922Y-59381004D01*
X28485341Y-59274659D01*
X28378996Y-59145078D01*
X28370886Y-59129906D01*
X28299976Y-58997242D01*
X28251313Y-58836823D01*
X28234883Y-58670000D01*
X28251313Y-58503177D01*
X28299976Y-58342758D01*
X28378995Y-58194924D01*
X28378996Y-58194922D01*
X28485341Y-58065341D01*
X28614922Y-57958996D01*
X28648974Y-57940795D01*
X28762758Y-57879976D01*
X28764044Y-57879586D01*
X28792620Y-57870917D01*
X28923177Y-57831313D01*
X29048196Y-57819000D01*
X29131804Y-57819000D01*
X29256823Y-57831313D01*
X29256823Y-57831313D01*
G37*
G36*
X106786852Y-56379204D02*
G01*
X106934625Y-56440414D01*
X106934626Y-56440415D01*
X107067620Y-56529278D01*
X107180722Y-56642380D01*
X107240099Y-56731244D01*
X107269586Y-56775375D01*
X107330796Y-56923148D01*
X107362000Y-57080024D01*
X107362000Y-57239976D01*
X107330796Y-57396852D01*
X107269586Y-57544625D01*
X107269585Y-57544626D01*
X107180722Y-57677620D01*
X107067620Y-57790722D01*
X107006869Y-57831314D01*
X106934625Y-57879586D01*
X106786852Y-57940796D01*
X106629976Y-57972000D01*
X106470024Y-57972000D01*
X106313148Y-57940796D01*
X106165375Y-57879586D01*
X106093131Y-57831314D01*
X106032380Y-57790722D01*
X105919278Y-57677620D01*
X105830415Y-57544626D01*
X105830414Y-57544625D01*
X105769204Y-57396852D01*
X105738000Y-57239976D01*
X105738000Y-57080024D01*
X105769204Y-56923148D01*
X105830414Y-56775375D01*
X105859901Y-56731244D01*
X105919278Y-56642380D01*
X106032380Y-56529278D01*
X106165374Y-56440415D01*
X106165375Y-56440414D01*
X106313148Y-56379204D01*
X106470024Y-56348000D01*
X106629976Y-56348000D01*
X106786852Y-56379204D01*
X106786852Y-56379204D01*
G37*
G36*
X96626852Y-56379204D02*
G01*
X96774625Y-56440414D01*
X96774626Y-56440415D01*
X96907620Y-56529278D01*
X97020722Y-56642380D01*
X97080099Y-56731244D01*
X97109586Y-56775375D01*
X97170796Y-56923148D01*
X97202000Y-57080024D01*
X97202000Y-57239976D01*
X97170796Y-57396852D01*
X97109586Y-57544625D01*
X97109585Y-57544626D01*
X97020722Y-57677620D01*
X96907620Y-57790722D01*
X96846869Y-57831314D01*
X96774625Y-57879586D01*
X96626852Y-57940796D01*
X96469976Y-57972000D01*
X96310024Y-57972000D01*
X96153148Y-57940796D01*
X96005375Y-57879586D01*
X95933131Y-57831314D01*
X95872380Y-57790722D01*
X95759278Y-57677620D01*
X95670415Y-57544626D01*
X95670414Y-57544625D01*
X95609204Y-57396852D01*
X95578000Y-57239976D01*
X95578000Y-57080024D01*
X95609204Y-56923148D01*
X95670414Y-56775375D01*
X95699901Y-56731244D01*
X95759278Y-56642380D01*
X95872380Y-56529278D01*
X96005374Y-56440415D01*
X96005375Y-56440414D01*
X96153148Y-56379204D01*
X96310024Y-56348000D01*
X96469976Y-56348000D01*
X96626852Y-56379204D01*
X96626852Y-56379204D01*
G37*
G36*
X86466852Y-56379204D02*
G01*
X86614625Y-56440414D01*
X86614626Y-56440415D01*
X86747620Y-56529278D01*
X86860722Y-56642380D01*
X86920099Y-56731244D01*
X86949586Y-56775375D01*
X87010796Y-56923148D01*
X87042000Y-57080024D01*
X87042000Y-57239976D01*
X87010796Y-57396852D01*
X86949586Y-57544625D01*
X86949585Y-57544626D01*
X86860722Y-57677620D01*
X86747620Y-57790722D01*
X86686869Y-57831314D01*
X86614625Y-57879586D01*
X86466852Y-57940796D01*
X86309976Y-57972000D01*
X86150024Y-57972000D01*
X85993148Y-57940796D01*
X85845375Y-57879586D01*
X85773131Y-57831314D01*
X85712380Y-57790722D01*
X85599278Y-57677620D01*
X85510415Y-57544626D01*
X85510414Y-57544625D01*
X85449204Y-57396852D01*
X85418000Y-57239976D01*
X85418000Y-57080024D01*
X85449204Y-56923148D01*
X85510414Y-56775375D01*
X85539901Y-56731244D01*
X85599278Y-56642380D01*
X85712380Y-56529278D01*
X85845374Y-56440415D01*
X85845375Y-56440414D01*
X85993148Y-56379204D01*
X86150024Y-56348000D01*
X86309976Y-56348000D01*
X86466852Y-56379204D01*
X86466852Y-56379204D01*
G37*
G36*
X76306852Y-56379204D02*
G01*
X76454625Y-56440414D01*
X76454626Y-56440415D01*
X76587620Y-56529278D01*
X76700722Y-56642380D01*
X76760099Y-56731244D01*
X76789586Y-56775375D01*
X76850796Y-56923148D01*
X76882000Y-57080024D01*
X76882000Y-57239976D01*
X76850796Y-57396852D01*
X76789586Y-57544625D01*
X76789585Y-57544626D01*
X76700722Y-57677620D01*
X76587620Y-57790722D01*
X76526869Y-57831314D01*
X76454625Y-57879586D01*
X76306852Y-57940796D01*
X76149976Y-57972000D01*
X75990024Y-57972000D01*
X75833148Y-57940796D01*
X75685375Y-57879586D01*
X75613131Y-57831314D01*
X75552380Y-57790722D01*
X75439278Y-57677620D01*
X75350415Y-57544626D01*
X75350414Y-57544625D01*
X75289204Y-57396852D01*
X75258000Y-57239976D01*
X75258000Y-57080024D01*
X75289204Y-56923148D01*
X75350414Y-56775375D01*
X75379901Y-56731244D01*
X75439278Y-56642380D01*
X75552380Y-56529278D01*
X75685374Y-56440415D01*
X75685375Y-56440414D01*
X75833148Y-56379204D01*
X75990024Y-56348000D01*
X76149976Y-56348000D01*
X76306852Y-56379204D01*
X76306852Y-56379204D01*
G37*
G36*
X18684072Y-54920918D02*
G01*
X18929939Y-55022759D01*
X18981091Y-55056938D01*
X19151211Y-55170609D01*
X19339391Y-55358789D01*
X19487242Y-55580063D01*
X19589082Y-55825928D01*
X19641000Y-56086937D01*
X19641000Y-56353063D01*
X19589082Y-56614072D01*
X19522269Y-56775375D01*
X19487241Y-56859939D01*
X19339390Y-57081212D01*
X19151212Y-57269390D01*
X18929939Y-57417241D01*
X18929938Y-57417242D01*
X18929937Y-57417242D01*
X18684072Y-57519082D01*
X18423063Y-57571000D01*
X18156937Y-57571000D01*
X17895928Y-57519082D01*
X17650063Y-57417242D01*
X17650062Y-57417242D01*
X17650061Y-57417241D01*
X17428788Y-57269390D01*
X17240610Y-57081212D01*
X17092759Y-56859939D01*
X17057732Y-56775375D01*
X16990918Y-56614072D01*
X16939000Y-56353063D01*
X16939000Y-56086937D01*
X16990918Y-55825928D01*
X17092758Y-55580063D01*
X17240609Y-55358789D01*
X17428789Y-55170609D01*
X17598909Y-55056938D01*
X17650061Y-55022759D01*
X17895928Y-54920918D01*
X18156937Y-54869000D01*
X18423063Y-54869000D01*
X18684072Y-54920918D01*
X18684072Y-54920918D01*
G37*
G36*
X128014072Y-53890918D02*
G01*
X128259939Y-53992759D01*
X128371328Y-54067187D01*
X128481211Y-54140609D01*
X128669391Y-54328789D01*
X128817242Y-54550063D01*
X128919082Y-54795928D01*
X128971000Y-55056937D01*
X128971000Y-55323063D01*
X128919082Y-55584072D01*
X128818903Y-55825928D01*
X128817241Y-55829939D01*
X128669390Y-56051212D01*
X128481212Y-56239390D01*
X128259939Y-56387241D01*
X128259938Y-56387242D01*
X128259937Y-56387242D01*
X128014072Y-56489082D01*
X127753063Y-56541000D01*
X127486937Y-56541000D01*
X127225928Y-56489082D01*
X126980063Y-56387242D01*
X126980062Y-56387242D01*
X126980061Y-56387241D01*
X126758788Y-56239390D01*
X126570610Y-56051212D01*
X126422759Y-55829939D01*
X126421098Y-55825928D01*
X126320918Y-55584072D01*
X126269000Y-55323063D01*
X126269000Y-55056937D01*
X126320918Y-54795928D01*
X126422758Y-54550063D01*
X126570609Y-54328789D01*
X126758789Y-54140609D01*
X126868672Y-54067187D01*
X126980061Y-53992759D01*
X127225928Y-53890918D01*
X127486937Y-53839000D01*
X127753063Y-53839000D01*
X128014072Y-53890918D01*
X128014072Y-53890918D01*
G37*
G36*
X18684072Y-49920918D02*
G01*
X18798292Y-49968229D01*
X18929939Y-50022759D01*
X19151212Y-50170610D01*
X19339390Y-50358788D01*
X19487241Y-50580061D01*
X19589082Y-50825928D01*
X19641000Y-51086938D01*
X19641000Y-51353062D01*
X19589082Y-51614072D01*
X19487241Y-51859939D01*
X19339390Y-52081212D01*
X19151212Y-52269390D01*
X18929939Y-52417241D01*
X18929938Y-52417242D01*
X18929937Y-52417242D01*
X18684072Y-52519082D01*
X18423063Y-52571000D01*
X18156937Y-52571000D01*
X17895928Y-52519082D01*
X17650063Y-52417242D01*
X17650062Y-52417242D01*
X17650061Y-52417241D01*
X17428788Y-52269390D01*
X17240610Y-52081212D01*
X17092759Y-51859939D01*
X16990918Y-51614072D01*
X16939000Y-51353062D01*
X16939000Y-51086938D01*
X16990918Y-50825928D01*
X17092759Y-50580061D01*
X17240610Y-50358788D01*
X17428788Y-50170610D01*
X17650061Y-50022759D01*
X17781709Y-49968229D01*
X17895928Y-49920918D01*
X18156937Y-49869000D01*
X18423063Y-49869000D01*
X18684072Y-49920918D01*
X18684072Y-49920918D01*
G37*
G36*
X47091000Y-51711000D02*
G01*
X45189000Y-51711000D01*
X45189000Y-49809000D01*
X47091000Y-49809000D01*
X47091000Y-51711000D01*
X47091000Y-51711000D01*
G37*
G36*
X27736823Y-48881313D02*
G01*
X27897242Y-48929976D01*
X27964361Y-48965852D01*
X28045078Y-49008996D01*
X28174659Y-49115341D01*
X28281004Y-49244922D01*
X28281005Y-49244924D01*
X28360024Y-49392758D01*
X28408687Y-49553177D01*
X28425117Y-49720000D01*
X28408687Y-49886823D01*
X28360024Y-50047242D01*
X28319477Y-50123100D01*
X28281004Y-50195078D01*
X28174659Y-50324659D01*
X28045078Y-50431004D01*
X28045076Y-50431005D01*
X27897242Y-50510024D01*
X27736823Y-50558687D01*
X27611804Y-50571000D01*
X27528196Y-50571000D01*
X27403177Y-50558687D01*
X27242758Y-50510024D01*
X27094924Y-50431005D01*
X27094922Y-50431004D01*
X26965341Y-50324659D01*
X26858996Y-50195078D01*
X26820523Y-50123100D01*
X26779976Y-50047242D01*
X26731313Y-49886823D01*
X26714883Y-49720000D01*
X26731313Y-49553177D01*
X26779976Y-49392758D01*
X26858995Y-49244924D01*
X26858996Y-49244922D01*
X26965341Y-49115341D01*
X27094922Y-49008996D01*
X27175639Y-48965852D01*
X27242758Y-48929976D01*
X27403177Y-48881313D01*
X27528196Y-48869000D01*
X27611804Y-48869000D01*
X27736823Y-48881313D01*
X27736823Y-48881313D01*
G37*
G36*
X40518228Y-48901703D02*
G01*
X40673100Y-48965853D01*
X40812481Y-49058985D01*
X40931015Y-49177519D01*
X41024147Y-49316900D01*
X41088297Y-49471772D01*
X41121000Y-49636184D01*
X41121000Y-49803816D01*
X41088297Y-49968228D01*
X41024147Y-50123100D01*
X40931015Y-50262481D01*
X40812481Y-50381015D01*
X40673100Y-50474147D01*
X40518228Y-50538297D01*
X40353816Y-50571000D01*
X40186184Y-50571000D01*
X40021772Y-50538297D01*
X39866900Y-50474147D01*
X39727519Y-50381015D01*
X39608985Y-50262481D01*
X39515853Y-50123100D01*
X39451703Y-49968228D01*
X39419000Y-49803816D01*
X39419000Y-49636184D01*
X39451703Y-49471772D01*
X39515853Y-49316900D01*
X39608985Y-49177519D01*
X39727519Y-49058985D01*
X39866900Y-48965853D01*
X40021772Y-48901703D01*
X40186184Y-48869000D01*
X40353816Y-48869000D01*
X40518228Y-48901703D01*
X40518228Y-48901703D01*
G37*
G36*
X53101000Y-50461000D02*
G01*
X51199000Y-50461000D01*
X51199000Y-48559000D01*
X53101000Y-48559000D01*
X53101000Y-50461000D01*
X53101000Y-50461000D01*
G37*
G36*
X54967395Y-48595546D02*
G01*
X55140466Y-48667234D01*
X55217818Y-48718919D01*
X55296227Y-48771310D01*
X55428690Y-48903773D01*
X55446198Y-48929976D01*
X55532766Y-49059534D01*
X55604454Y-49232605D01*
X55641000Y-49416333D01*
X55641000Y-49603667D01*
X55604454Y-49787395D01*
X55532766Y-49960466D01*
X55527579Y-49968229D01*
X55428690Y-50116227D01*
X55296227Y-50248690D01*
X55275587Y-50262481D01*
X55140466Y-50352766D01*
X54967395Y-50424454D01*
X54783667Y-50461000D01*
X54596333Y-50461000D01*
X54412605Y-50424454D01*
X54239534Y-50352766D01*
X54104413Y-50262481D01*
X54083773Y-50248690D01*
X53951310Y-50116227D01*
X53852421Y-49968229D01*
X53847234Y-49960466D01*
X53775546Y-49787395D01*
X53739000Y-49603667D01*
X53739000Y-49416333D01*
X53775546Y-49232605D01*
X53847234Y-49059534D01*
X53933802Y-48929976D01*
X53951310Y-48903773D01*
X54083773Y-48771310D01*
X54162182Y-48718919D01*
X54239534Y-48667234D01*
X54412605Y-48595546D01*
X54596333Y-48559000D01*
X54783667Y-48559000D01*
X54967395Y-48595546D01*
X54967395Y-48595546D01*
G37*
G36*
X46417395Y-47305546D02*
G01*
X46590466Y-47377234D01*
X46590467Y-47377235D01*
X46746227Y-47481310D01*
X46878690Y-47613773D01*
X46878691Y-47613775D01*
X46982766Y-47769534D01*
X47054454Y-47942605D01*
X47091000Y-48126333D01*
X47091000Y-48313667D01*
X47054454Y-48497395D01*
X46982766Y-48670466D01*
X46982765Y-48670467D01*
X46878690Y-48826227D01*
X46746227Y-48958690D01*
X46670940Y-49008995D01*
X46590466Y-49062766D01*
X46417395Y-49134454D01*
X46233667Y-49171000D01*
X46046333Y-49171000D01*
X45862605Y-49134454D01*
X45689534Y-49062766D01*
X45609060Y-49008995D01*
X45533773Y-48958690D01*
X45401310Y-48826227D01*
X45297235Y-48670467D01*
X45297234Y-48670466D01*
X45225546Y-48497395D01*
X45189000Y-48313667D01*
X45189000Y-48126333D01*
X45225546Y-47942605D01*
X45297234Y-47769534D01*
X45401309Y-47613775D01*
X45401310Y-47613773D01*
X45533773Y-47481310D01*
X45689533Y-47377235D01*
X45689534Y-47377234D01*
X45862605Y-47305546D01*
X46046333Y-47269000D01*
X46233667Y-47269000D01*
X46417395Y-47305546D01*
X46417395Y-47305546D01*
G37*
G36*
X19641000Y-47571000D02*
G01*
X16939000Y-47571000D01*
X16939000Y-44869000D01*
X19641000Y-44869000D01*
X19641000Y-47571000D01*
X19641000Y-47571000D01*
G37*
G36*
X128971000Y-43651000D02*
G01*
X126269000Y-43651000D01*
X126269000Y-40949000D01*
X128971000Y-40949000D01*
X128971000Y-43651000D01*
X128971000Y-43651000D01*
G37*
G36*
X53258228Y-40371703D02*
G01*
X53413100Y-40435853D01*
X53552481Y-40528985D01*
X53671015Y-40647519D01*
X53764147Y-40786900D01*
X53828297Y-40941772D01*
X53861000Y-41106184D01*
X53861000Y-41273816D01*
X53828297Y-41438228D01*
X53764147Y-41593100D01*
X53671015Y-41732481D01*
X53552481Y-41851015D01*
X53413100Y-41944147D01*
X53258228Y-42008297D01*
X53093816Y-42041000D01*
X52926184Y-42041000D01*
X52761772Y-42008297D01*
X52606900Y-41944147D01*
X52467519Y-41851015D01*
X52348985Y-41732481D01*
X52255853Y-41593100D01*
X52191703Y-41438228D01*
X52159000Y-41273816D01*
X52159000Y-41106184D01*
X52191703Y-40941772D01*
X52255853Y-40786900D01*
X52348985Y-40647519D01*
X52467519Y-40528985D01*
X52606900Y-40435853D01*
X52761772Y-40371703D01*
X52926184Y-40339000D01*
X53093816Y-40339000D01*
X53258228Y-40371703D01*
X53258228Y-40371703D01*
G37*
G36*
X40476823Y-40351313D02*
G01*
X40607380Y-40390917D01*
X40637114Y-40399937D01*
X40637242Y-40399976D01*
X40704361Y-40435852D01*
X40785078Y-40478996D01*
X40914659Y-40585341D01*
X41021004Y-40714922D01*
X41021005Y-40714924D01*
X41100024Y-40862758D01*
X41148687Y-41023177D01*
X41165117Y-41190000D01*
X41148687Y-41356823D01*
X41100024Y-41517242D01*
X41059477Y-41593100D01*
X41021004Y-41665078D01*
X40914659Y-41794659D01*
X40785078Y-41901004D01*
X40785076Y-41901005D01*
X40637242Y-41980024D01*
X40476823Y-42028687D01*
X40351804Y-42041000D01*
X40268196Y-42041000D01*
X40143177Y-42028687D01*
X39982758Y-41980024D01*
X39834924Y-41901005D01*
X39834922Y-41901004D01*
X39705341Y-41794659D01*
X39598996Y-41665078D01*
X39560523Y-41593100D01*
X39519976Y-41517242D01*
X39471313Y-41356823D01*
X39454883Y-41190000D01*
X39471313Y-41023177D01*
X39519976Y-40862758D01*
X39598995Y-40714924D01*
X39598996Y-40714922D01*
X39705341Y-40585341D01*
X39834922Y-40478996D01*
X39915639Y-40435852D01*
X39982758Y-40399976D01*
X39982887Y-40399937D01*
X40012620Y-40390917D01*
X40143177Y-40351313D01*
X40268196Y-40339000D01*
X40351804Y-40339000D01*
X40476823Y-40351313D01*
X40476823Y-40351313D01*
G37*
G36*
X18684072Y-38460918D02*
G01*
X18929939Y-38562759D01*
X18984300Y-38599082D01*
X19151211Y-38710609D01*
X19339391Y-38898789D01*
X19487242Y-39120063D01*
X19589082Y-39365928D01*
X19641000Y-39626937D01*
X19641000Y-39893063D01*
X19589082Y-40154072D01*
X19507383Y-40351313D01*
X19487241Y-40399939D01*
X19412813Y-40511328D01*
X19339391Y-40621211D01*
X19151211Y-40809391D01*
X19071342Y-40862758D01*
X18929939Y-40957241D01*
X18929938Y-40957242D01*
X18929937Y-40957242D01*
X18684072Y-41059082D01*
X18423063Y-41111000D01*
X18156937Y-41111000D01*
X17895928Y-41059082D01*
X17650063Y-40957242D01*
X17650062Y-40957242D01*
X17650061Y-40957241D01*
X17508658Y-40862758D01*
X17428789Y-40809391D01*
X17240609Y-40621211D01*
X17167187Y-40511328D01*
X17092759Y-40399939D01*
X17072618Y-40351313D01*
X16990918Y-40154072D01*
X16939000Y-39893063D01*
X16939000Y-39626937D01*
X16990918Y-39365928D01*
X17092758Y-39120063D01*
X17240609Y-38898789D01*
X17428789Y-38710609D01*
X17595700Y-38599082D01*
X17650061Y-38562759D01*
X17895928Y-38460918D01*
X18156937Y-38409000D01*
X18423063Y-38409000D01*
X18684072Y-38460918D01*
X18684072Y-38460918D01*
G37*
G36*
X26598228Y-39431703D02*
G01*
X26753100Y-39495853D01*
X26892481Y-39588985D01*
X27011015Y-39707519D01*
X27104147Y-39846900D01*
X27168297Y-40001772D01*
X27201000Y-40166184D01*
X27201000Y-40333816D01*
X27168297Y-40498228D01*
X27104147Y-40653100D01*
X27011015Y-40792481D01*
X26892481Y-40911015D01*
X26753100Y-41004147D01*
X26598228Y-41068297D01*
X26433816Y-41101000D01*
X26266184Y-41101000D01*
X26101772Y-41068297D01*
X25946900Y-41004147D01*
X25807519Y-40911015D01*
X25688985Y-40792481D01*
X25595853Y-40653100D01*
X25531703Y-40498228D01*
X25499000Y-40333816D01*
X25499000Y-40166184D01*
X25531703Y-40001772D01*
X25595853Y-39846900D01*
X25688985Y-39707519D01*
X25807519Y-39588985D01*
X25946900Y-39495853D01*
X26101772Y-39431703D01*
X26266184Y-39399000D01*
X26433816Y-39399000D01*
X26598228Y-39431703D01*
X26598228Y-39431703D01*
G37*
G36*
X29201000Y-41101000D02*
G01*
X27499000Y-41101000D01*
X27499000Y-39399000D01*
X29201000Y-39399000D01*
X29201000Y-41101000D01*
X29201000Y-41101000D01*
G37*
G36*
X34818228Y-39281703D02*
G01*
X34973100Y-39345853D01*
X35112481Y-39438985D01*
X35231015Y-39557519D01*
X35324147Y-39696900D01*
X35388297Y-39851772D01*
X35421000Y-40016184D01*
X35421000Y-40183816D01*
X35388297Y-40348228D01*
X35324147Y-40503100D01*
X35231015Y-40642481D01*
X35112481Y-40761015D01*
X34973100Y-40854147D01*
X34818228Y-40918297D01*
X34653816Y-40951000D01*
X34486184Y-40951000D01*
X34321772Y-40918297D01*
X34166900Y-40854147D01*
X34027519Y-40761015D01*
X33908985Y-40642481D01*
X33815853Y-40503100D01*
X33751703Y-40348228D01*
X33719000Y-40183816D01*
X33719000Y-40016184D01*
X33751703Y-39851772D01*
X33815853Y-39696900D01*
X33908985Y-39557519D01*
X34027519Y-39438985D01*
X34166900Y-39345853D01*
X34321772Y-39281703D01*
X34486184Y-39249000D01*
X34653816Y-39249000D01*
X34818228Y-39281703D01*
X34818228Y-39281703D01*
G37*
G36*
X37421000Y-40951000D02*
G01*
X35719000Y-40951000D01*
X35719000Y-39249000D01*
X37421000Y-39249000D01*
X37421000Y-40951000D01*
X37421000Y-40951000D01*
G37*
G36*
X128014072Y-36000918D02*
G01*
X128259939Y-36102759D01*
X128481212Y-36250610D01*
X128669390Y-36438788D01*
X128817241Y-36660061D01*
X128919082Y-36905928D01*
X128971000Y-37166938D01*
X128971000Y-37433062D01*
X128919082Y-37694072D01*
X128817241Y-37939939D01*
X128669390Y-38161212D01*
X128481212Y-38349390D01*
X128259939Y-38497241D01*
X128259938Y-38497242D01*
X128259937Y-38497242D01*
X128014072Y-38599082D01*
X127753063Y-38651000D01*
X127486937Y-38651000D01*
X127225928Y-38599082D01*
X126980063Y-38497242D01*
X126980062Y-38497242D01*
X126980061Y-38497241D01*
X126758788Y-38349390D01*
X126570610Y-38161212D01*
X126422759Y-37939939D01*
X126320918Y-37694072D01*
X126269000Y-37433062D01*
X126269000Y-37166938D01*
X126320918Y-36905928D01*
X126422759Y-36660061D01*
X126570610Y-36438788D01*
X126758788Y-36250610D01*
X126980061Y-36102759D01*
X127225928Y-36000918D01*
X127486937Y-35949000D01*
X127753063Y-35949000D01*
X128014072Y-36000918D01*
X128014072Y-36000918D01*
G37*
G36*
X19641000Y-36111000D02*
G01*
X16939000Y-36111000D01*
X16939000Y-33409000D01*
X19641000Y-33409000D01*
X19641000Y-36111000D01*
X19641000Y-36111000D01*
G37*
G36*
X26548228Y-32811703D02*
G01*
X26703100Y-32875853D01*
X26842481Y-32968985D01*
X26961015Y-33087519D01*
X27054147Y-33226900D01*
X27118297Y-33381772D01*
X27151000Y-33546184D01*
X27151000Y-33713816D01*
X27118297Y-33878228D01*
X27054147Y-34033100D01*
X26961015Y-34172481D01*
X26842481Y-34291015D01*
X26703100Y-34384147D01*
X26548228Y-34448297D01*
X26383816Y-34481000D01*
X26216184Y-34481000D01*
X26051772Y-34448297D01*
X25896900Y-34384147D01*
X25757519Y-34291015D01*
X25638985Y-34172481D01*
X25545853Y-34033100D01*
X25481703Y-33878228D01*
X25449000Y-33713816D01*
X25449000Y-33546184D01*
X25481703Y-33381772D01*
X25545853Y-33226900D01*
X25638985Y-33087519D01*
X25757519Y-32968985D01*
X25896900Y-32875853D01*
X26051772Y-32811703D01*
X26216184Y-32779000D01*
X26383816Y-32779000D01*
X26548228Y-32811703D01*
X26548228Y-32811703D01*
G37*
G36*
X29151000Y-34481000D02*
G01*
X27449000Y-34481000D01*
X27449000Y-32779000D01*
X29151000Y-32779000D01*
X29151000Y-34481000D01*
X29151000Y-34481000D01*
G37*
G36*
X37441000Y-34301000D02*
G01*
X35739000Y-34301000D01*
X35739000Y-32599000D01*
X37441000Y-32599000D01*
X37441000Y-34301000D01*
X37441000Y-34301000D01*
G37*
G36*
X34838228Y-32631703D02*
G01*
X34993100Y-32695853D01*
X35132481Y-32788985D01*
X35251015Y-32907519D01*
X35344147Y-33046900D01*
X35408297Y-33201772D01*
X35441000Y-33366184D01*
X35441000Y-33533816D01*
X35408297Y-33698228D01*
X35344147Y-33853100D01*
X35251015Y-33992481D01*
X35132481Y-34111015D01*
X34993100Y-34204147D01*
X34838228Y-34268297D01*
X34673816Y-34301000D01*
X34506184Y-34301000D01*
X34341772Y-34268297D01*
X34186900Y-34204147D01*
X34047519Y-34111015D01*
X33928985Y-33992481D01*
X33835853Y-33853100D01*
X33771703Y-33698228D01*
X33739000Y-33533816D01*
X33739000Y-33366184D01*
X33771703Y-33201772D01*
X33835853Y-33046900D01*
X33928985Y-32907519D01*
X34047519Y-32788985D01*
X34186900Y-32695853D01*
X34341772Y-32631703D01*
X34506184Y-32599000D01*
X34673816Y-32599000D01*
X34838228Y-32631703D01*
X34838228Y-32631703D01*
G37*
G36*
X57532088Y-31555251D02*
G01*
X57739280Y-31641073D01*
X57739282Y-31641074D01*
X57925752Y-31765669D01*
X58084331Y-31924248D01*
X58208926Y-32110718D01*
X58208927Y-32110720D01*
X58294749Y-32317912D01*
X58338500Y-32537866D01*
X58338500Y-32762134D01*
X58294749Y-32982088D01*
X58220553Y-33161212D01*
X58208926Y-33189282D01*
X58084331Y-33375752D01*
X57925752Y-33534331D01*
X57739282Y-33658926D01*
X57739281Y-33658927D01*
X57739280Y-33658927D01*
X57532088Y-33744749D01*
X57312134Y-33788500D01*
X57087866Y-33788500D01*
X56867912Y-33744749D01*
X56660720Y-33658927D01*
X56660719Y-33658927D01*
X56660718Y-33658926D01*
X56474248Y-33534331D01*
X56315669Y-33375752D01*
X56191074Y-33189282D01*
X56179447Y-33161212D01*
X56105251Y-32982088D01*
X56061500Y-32762134D01*
X56061500Y-32537866D01*
X56105251Y-32317912D01*
X56191073Y-32110720D01*
X56191074Y-32110718D01*
X56315669Y-31924248D01*
X56474248Y-31765669D01*
X56660718Y-31641074D01*
X56660720Y-31641073D01*
X56867912Y-31555251D01*
X57087866Y-31511500D01*
X57312134Y-31511500D01*
X57532088Y-31555251D01*
X57532088Y-31555251D01*
G37*
G36*
X128014072Y-31000918D02*
G01*
X128259939Y-31102759D01*
X128481212Y-31250610D01*
X128669390Y-31438788D01*
X128804554Y-31641073D01*
X128817242Y-31660063D01*
X128919082Y-31905928D01*
X128971000Y-32166937D01*
X128971000Y-32433063D01*
X128919082Y-32694072D01*
X128817242Y-32939937D01*
X128669391Y-33161211D01*
X128481211Y-33349391D01*
X128392000Y-33409000D01*
X128259939Y-33497241D01*
X128259938Y-33497242D01*
X128259937Y-33497242D01*
X128014072Y-33599082D01*
X127753063Y-33651000D01*
X127486937Y-33651000D01*
X127225928Y-33599082D01*
X126980063Y-33497242D01*
X126980062Y-33497242D01*
X126980061Y-33497241D01*
X126848000Y-33409000D01*
X126758789Y-33349391D01*
X126570609Y-33161211D01*
X126422758Y-32939937D01*
X126320918Y-32694072D01*
X126269000Y-32433063D01*
X126269000Y-32166937D01*
X126320918Y-31905928D01*
X126422758Y-31660063D01*
X126435447Y-31641073D01*
X126570610Y-31438788D01*
X126758788Y-31250610D01*
X126980061Y-31102759D01*
X127225928Y-31000918D01*
X127486937Y-30949000D01*
X127753063Y-30949000D01*
X128014072Y-31000918D01*
X128014072Y-31000918D01*
G37*
G36*
X19406719Y-26973520D02*
G01*
X19595880Y-27030901D01*
X19595883Y-27030902D01*
X19639251Y-27054083D01*
X19770212Y-27124083D01*
X19923015Y-27249485D01*
X20048417Y-27402288D01*
X20141599Y-27576619D01*
X20198980Y-27765780D01*
X20213500Y-27913206D01*
X20213500Y-28106793D01*
X20198980Y-28254219D01*
X20192448Y-28275751D01*
X20141598Y-28443383D01*
X20092182Y-28535833D01*
X20048417Y-28617712D01*
X19923015Y-28770515D01*
X19770212Y-28895917D01*
X19595881Y-28989099D01*
X19406720Y-29046480D01*
X19210000Y-29065855D01*
X19013281Y-29046480D01*
X18824120Y-28989099D01*
X18649788Y-28895917D01*
X18496985Y-28770515D01*
X18371583Y-28617712D01*
X18278401Y-28443381D01*
X18221020Y-28254220D01*
X18206500Y-28106794D01*
X18206500Y-27913207D01*
X18221020Y-27765781D01*
X18278401Y-27576620D01*
X18278402Y-27576617D01*
X18352565Y-27437868D01*
X18371583Y-27402288D01*
X18496985Y-27249485D01*
X18649788Y-27124083D01*
X18824119Y-27030901D01*
X19013280Y-26973520D01*
X19210000Y-26954145D01*
X19406719Y-26973520D01*
X19406719Y-26973520D01*
G37*
G36*
X21946719Y-26973520D02*
G01*
X22135880Y-27030901D01*
X22135883Y-27030902D01*
X22179251Y-27054083D01*
X22310212Y-27124083D01*
X22463015Y-27249485D01*
X22588417Y-27402288D01*
X22681599Y-27576619D01*
X22738980Y-27765780D01*
X22753500Y-27913206D01*
X22753500Y-28106793D01*
X22738980Y-28254219D01*
X22732448Y-28275751D01*
X22681598Y-28443383D01*
X22632182Y-28535833D01*
X22588417Y-28617712D01*
X22463015Y-28770515D01*
X22310212Y-28895917D01*
X22135881Y-28989099D01*
X21946720Y-29046480D01*
X21750000Y-29065855D01*
X21553281Y-29046480D01*
X21364120Y-28989099D01*
X21189788Y-28895917D01*
X21036985Y-28770515D01*
X20911583Y-28617712D01*
X20818401Y-28443381D01*
X20761020Y-28254220D01*
X20746500Y-28106794D01*
X20746500Y-27913207D01*
X20761020Y-27765781D01*
X20818401Y-27576620D01*
X20818402Y-27576617D01*
X20892565Y-27437868D01*
X20911583Y-27402288D01*
X21036985Y-27249485D01*
X21189788Y-27124083D01*
X21364119Y-27030901D01*
X21553280Y-26973520D01*
X21750000Y-26954145D01*
X21946719Y-26973520D01*
X21946719Y-26973520D01*
G37*
G36*
X17673500Y-29061000D02*
G01*
X15666500Y-29061000D01*
X15666500Y-26959000D01*
X17673500Y-26959000D01*
X17673500Y-29061000D01*
X17673500Y-29061000D01*
G37*
G36*
X30446719Y-26903520D02*
G01*
X30613608Y-26954145D01*
X30635883Y-26960902D01*
X30659489Y-26973520D01*
X30810212Y-27054083D01*
X30963015Y-27179485D01*
X31088417Y-27332288D01*
X31181599Y-27506619D01*
X31238980Y-27695780D01*
X31253500Y-27843206D01*
X31253500Y-28036793D01*
X31238980Y-28184219D01*
X31211214Y-28275751D01*
X31181598Y-28373383D01*
X31144183Y-28443381D01*
X31088417Y-28547712D01*
X30963015Y-28700515D01*
X30810212Y-28825917D01*
X30635881Y-28919099D01*
X30446720Y-28976480D01*
X30250000Y-28995855D01*
X30053281Y-28976480D01*
X29864120Y-28919099D01*
X29689788Y-28825917D01*
X29536985Y-28700515D01*
X29411583Y-28547712D01*
X29318401Y-28373381D01*
X29261020Y-28184220D01*
X29246500Y-28036794D01*
X29246500Y-27843207D01*
X29261020Y-27695781D01*
X29318401Y-27506620D01*
X29318402Y-27506617D01*
X29374167Y-27402288D01*
X29411583Y-27332288D01*
X29536985Y-27179485D01*
X29689788Y-27054083D01*
X29864119Y-26960901D01*
X30053280Y-26903520D01*
X30250000Y-26884145D01*
X30446719Y-26903520D01*
X30446719Y-26903520D01*
G37*
G36*
X32986719Y-26903520D02*
G01*
X33153608Y-26954145D01*
X33175883Y-26960902D01*
X33199489Y-26973520D01*
X33350212Y-27054083D01*
X33503015Y-27179485D01*
X33628417Y-27332288D01*
X33721599Y-27506619D01*
X33778980Y-27695780D01*
X33793500Y-27843206D01*
X33793500Y-28036793D01*
X33778980Y-28184219D01*
X33751214Y-28275751D01*
X33721598Y-28373383D01*
X33684183Y-28443381D01*
X33628417Y-28547712D01*
X33503015Y-28700515D01*
X33350212Y-28825917D01*
X33175881Y-28919099D01*
X32986720Y-28976480D01*
X32790000Y-28995855D01*
X32593281Y-28976480D01*
X32404120Y-28919099D01*
X32229788Y-28825917D01*
X32076985Y-28700515D01*
X31951583Y-28547712D01*
X31858401Y-28373381D01*
X31801020Y-28184220D01*
X31786500Y-28036794D01*
X31786500Y-27843207D01*
X31801020Y-27695781D01*
X31858401Y-27506620D01*
X31858402Y-27506617D01*
X31914167Y-27402288D01*
X31951583Y-27332288D01*
X32076985Y-27179485D01*
X32229788Y-27054083D01*
X32404119Y-26960901D01*
X32593280Y-26903520D01*
X32790000Y-26884145D01*
X32986719Y-26903520D01*
X32986719Y-26903520D01*
G37*
G36*
X28713500Y-28991000D02*
G01*
X26706500Y-28991000D01*
X26706500Y-26889000D01*
X28713500Y-26889000D01*
X28713500Y-28991000D01*
X28713500Y-28991000D01*
G37*
G36*
X57532088Y-26455251D02*
G01*
X57739280Y-26541073D01*
X57739282Y-26541074D01*
X57925752Y-26665669D01*
X58084331Y-26824248D01*
X58171125Y-26954145D01*
X58208927Y-27010720D01*
X58294749Y-27217912D01*
X58338500Y-27437866D01*
X58338500Y-27662134D01*
X58294749Y-27882088D01*
X58230668Y-28036793D01*
X58208926Y-28089282D01*
X58084331Y-28275752D01*
X57925752Y-28434331D01*
X57739282Y-28558926D01*
X57739281Y-28558927D01*
X57739280Y-28558927D01*
X57532088Y-28644749D01*
X57312134Y-28688500D01*
X57087866Y-28688500D01*
X56867912Y-28644749D01*
X56660720Y-28558927D01*
X56660719Y-28558927D01*
X56660718Y-28558926D01*
X56474248Y-28434331D01*
X56315669Y-28275752D01*
X56191074Y-28089282D01*
X56169332Y-28036793D01*
X56105251Y-27882088D01*
X56061500Y-27662134D01*
X56061500Y-27437866D01*
X56105251Y-27217912D01*
X56191073Y-27010720D01*
X56228875Y-26954145D01*
X56315669Y-26824248D01*
X56474248Y-26665669D01*
X56660718Y-26541074D01*
X56660720Y-26541073D01*
X56867912Y-26455251D01*
X57087866Y-26411500D01*
X57312134Y-26411500D01*
X57532088Y-26455251D01*
X57532088Y-26455251D01*
G37*
G36*
X128014072Y-26000918D02*
G01*
X128259939Y-26102759D01*
X128371328Y-26177187D01*
X128481211Y-26250609D01*
X128669391Y-26438789D01*
X128817242Y-26660063D01*
X128919082Y-26905928D01*
X128971000Y-27166937D01*
X128971000Y-27433063D01*
X128919082Y-27694072D01*
X128817242Y-27939937D01*
X128669391Y-28161211D01*
X128481211Y-28349391D01*
X128371328Y-28422813D01*
X128259939Y-28497241D01*
X128259938Y-28497242D01*
X128259937Y-28497242D01*
X128014072Y-28599082D01*
X127753063Y-28651000D01*
X127486937Y-28651000D01*
X127225928Y-28599082D01*
X126980063Y-28497242D01*
X126980062Y-28497242D01*
X126980061Y-28497241D01*
X126868672Y-28422813D01*
X126758789Y-28349391D01*
X126570609Y-28161211D01*
X126422758Y-27939937D01*
X126320918Y-27694072D01*
X126269000Y-27433063D01*
X126269000Y-27166937D01*
X126320918Y-26905928D01*
X126422758Y-26660063D01*
X126570609Y-26438789D01*
X126758789Y-26250609D01*
X126868672Y-26177187D01*
X126980061Y-26102759D01*
X127225928Y-26000918D01*
X127486937Y-25949000D01*
X127753063Y-25949000D01*
X128014072Y-26000918D01*
X128014072Y-26000918D01*
G37*
G36*
X45364903Y-24297075D02*
G01*
X45592571Y-24391378D01*
X45797466Y-24528285D01*
X45971715Y-24702534D01*
X46108622Y-24907429D01*
X46202925Y-25135097D01*
X46251000Y-25376787D01*
X46251000Y-25623213D01*
X46202925Y-25864903D01*
X46108622Y-26092571D01*
X45971715Y-26297466D01*
X45797466Y-26471715D01*
X45592571Y-26608622D01*
X45592570Y-26608623D01*
X45592569Y-26608623D01*
X45364903Y-26702925D01*
X45123214Y-26751000D01*
X44876786Y-26751000D01*
X44635097Y-26702925D01*
X44407431Y-26608623D01*
X44407430Y-26608623D01*
X44407429Y-26608622D01*
X44202534Y-26471715D01*
X44028285Y-26297466D01*
X43891378Y-26092571D01*
X43797075Y-25864903D01*
X43749000Y-25623213D01*
X43749000Y-25376787D01*
X43797075Y-25135097D01*
X43891378Y-24907429D01*
X44028285Y-24702534D01*
X44202534Y-24528285D01*
X44407429Y-24391378D01*
X44635097Y-24297075D01*
X44876786Y-24249000D01*
X45123214Y-24249000D01*
X45364903Y-24297075D01*
X45364903Y-24297075D01*
G37*
G36*
X57532088Y-21355251D02*
G01*
X57739280Y-21441073D01*
X57739282Y-21441074D01*
X57925752Y-21565669D01*
X58084331Y-21724248D01*
X58208926Y-21910718D01*
X58208927Y-21910720D01*
X58294749Y-22117912D01*
X58338500Y-22337866D01*
X58338500Y-22562134D01*
X58294749Y-22782088D01*
X58208927Y-22989280D01*
X58208926Y-22989282D01*
X58084331Y-23175752D01*
X57925752Y-23334331D01*
X57739282Y-23458926D01*
X57739281Y-23458927D01*
X57739280Y-23458927D01*
X57532088Y-23544749D01*
X57312134Y-23588500D01*
X57087866Y-23588500D01*
X56867912Y-23544749D01*
X56660720Y-23458927D01*
X56660719Y-23458927D01*
X56660718Y-23458926D01*
X56474248Y-23334331D01*
X56315669Y-23175752D01*
X56191074Y-22989282D01*
X56191073Y-22989280D01*
X56105251Y-22782088D01*
X56061500Y-22562134D01*
X56061500Y-22337866D01*
X56105251Y-22117912D01*
X56191073Y-21910720D01*
X56191074Y-21910718D01*
X56315669Y-21724248D01*
X56474248Y-21565669D01*
X56660718Y-21441074D01*
X56660720Y-21441073D01*
X56867912Y-21355251D01*
X57087866Y-21311500D01*
X57312134Y-21311500D01*
X57532088Y-21355251D01*
X57532088Y-21355251D01*
G37*
G36*
X86466852Y-19295204D02*
G01*
X86614625Y-19356414D01*
X86614626Y-19356415D01*
X86747620Y-19445278D01*
X86860722Y-19558380D01*
X86920099Y-19647244D01*
X86949586Y-19691375D01*
X87010796Y-19839148D01*
X87042000Y-19996024D01*
X87042000Y-20155976D01*
X87010796Y-20312852D01*
X86949586Y-20460625D01*
X86949585Y-20460626D01*
X86860722Y-20593620D01*
X86747620Y-20706722D01*
X86658756Y-20766099D01*
X86614625Y-20795586D01*
X86466852Y-20856796D01*
X86309976Y-20888000D01*
X86150024Y-20888000D01*
X85993148Y-20856796D01*
X85845375Y-20795586D01*
X85801244Y-20766099D01*
X85712380Y-20706722D01*
X85599278Y-20593620D01*
X85510415Y-20460626D01*
X85510414Y-20460625D01*
X85449204Y-20312852D01*
X85418000Y-20155976D01*
X85418000Y-19996024D01*
X85449204Y-19839148D01*
X85510414Y-19691375D01*
X85539901Y-19647244D01*
X85599278Y-19558380D01*
X85712380Y-19445278D01*
X85845374Y-19356415D01*
X85845375Y-19356414D01*
X85993148Y-19295204D01*
X86150024Y-19264000D01*
X86309976Y-19264000D01*
X86466852Y-19295204D01*
X86466852Y-19295204D01*
G37*
G36*
X76306852Y-19295204D02*
G01*
X76454625Y-19356414D01*
X76454626Y-19356415D01*
X76587620Y-19445278D01*
X76700722Y-19558380D01*
X76760099Y-19647244D01*
X76789586Y-19691375D01*
X76850796Y-19839148D01*
X76882000Y-19996024D01*
X76882000Y-20155976D01*
X76850796Y-20312852D01*
X76789586Y-20460625D01*
X76789585Y-20460626D01*
X76700722Y-20593620D01*
X76587620Y-20706722D01*
X76498756Y-20766099D01*
X76454625Y-20795586D01*
X76306852Y-20856796D01*
X76149976Y-20888000D01*
X75990024Y-20888000D01*
X75833148Y-20856796D01*
X75685375Y-20795586D01*
X75641244Y-20766099D01*
X75552380Y-20706722D01*
X75439278Y-20593620D01*
X75350415Y-20460626D01*
X75350414Y-20460625D01*
X75289204Y-20312852D01*
X75258000Y-20155976D01*
X75258000Y-19996024D01*
X75289204Y-19839148D01*
X75350414Y-19691375D01*
X75379901Y-19647244D01*
X75439278Y-19558380D01*
X75552380Y-19445278D01*
X75685374Y-19356415D01*
X75685375Y-19356414D01*
X75833148Y-19295204D01*
X75990024Y-19264000D01*
X76149976Y-19264000D01*
X76306852Y-19295204D01*
X76306852Y-19295204D01*
G37*
G36*
X106786852Y-19295204D02*
G01*
X106934625Y-19356414D01*
X106934626Y-19356415D01*
X107067620Y-19445278D01*
X107180722Y-19558380D01*
X107240099Y-19647244D01*
X107269586Y-19691375D01*
X107330796Y-19839148D01*
X107362000Y-19996024D01*
X107362000Y-20155976D01*
X107330796Y-20312852D01*
X107269586Y-20460625D01*
X107269585Y-20460626D01*
X107180722Y-20593620D01*
X107067620Y-20706722D01*
X106978756Y-20766099D01*
X106934625Y-20795586D01*
X106786852Y-20856796D01*
X106629976Y-20888000D01*
X106470024Y-20888000D01*
X106313148Y-20856796D01*
X106165375Y-20795586D01*
X106121244Y-20766099D01*
X106032380Y-20706722D01*
X105919278Y-20593620D01*
X105830415Y-20460626D01*
X105830414Y-20460625D01*
X105769204Y-20312852D01*
X105738000Y-20155976D01*
X105738000Y-19996024D01*
X105769204Y-19839148D01*
X105830414Y-19691375D01*
X105859901Y-19647244D01*
X105919278Y-19558380D01*
X106032380Y-19445278D01*
X106165374Y-19356415D01*
X106165375Y-19356414D01*
X106313148Y-19295204D01*
X106470024Y-19264000D01*
X106629976Y-19264000D01*
X106786852Y-19295204D01*
X106786852Y-19295204D01*
G37*
G36*
X96626852Y-19295204D02*
G01*
X96774625Y-19356414D01*
X96774626Y-19356415D01*
X96907620Y-19445278D01*
X97020722Y-19558380D01*
X97080099Y-19647244D01*
X97109586Y-19691375D01*
X97170796Y-19839148D01*
X97202000Y-19996024D01*
X97202000Y-20155976D01*
X97170796Y-20312852D01*
X97109586Y-20460625D01*
X97109585Y-20460626D01*
X97020722Y-20593620D01*
X96907620Y-20706722D01*
X96818756Y-20766099D01*
X96774625Y-20795586D01*
X96626852Y-20856796D01*
X96469976Y-20888000D01*
X96310024Y-20888000D01*
X96153148Y-20856796D01*
X96005375Y-20795586D01*
X95961244Y-20766099D01*
X95872380Y-20706722D01*
X95759278Y-20593620D01*
X95670415Y-20460626D01*
X95670414Y-20460625D01*
X95609204Y-20312852D01*
X95578000Y-20155976D01*
X95578000Y-19996024D01*
X95609204Y-19839148D01*
X95670414Y-19691375D01*
X95699901Y-19647244D01*
X95759278Y-19558380D01*
X95872380Y-19445278D01*
X96005374Y-19356415D01*
X96005375Y-19356414D01*
X96153148Y-19295204D01*
X96310024Y-19264000D01*
X96469976Y-19264000D01*
X96626852Y-19295204D01*
X96626852Y-19295204D01*
G37*
G36*
X46251000Y-19251000D02*
G01*
X43749000Y-19251000D01*
X43749000Y-16749000D01*
X46251000Y-16749000D01*
X46251000Y-19251000D01*
X46251000Y-19251000D01*
G37*
G36*
X57532088Y-16255251D02*
G01*
X57739280Y-16341073D01*
X57739282Y-16341074D01*
X57925752Y-16465669D01*
X58084331Y-16624248D01*
X58167687Y-16749000D01*
X58208927Y-16810720D01*
X58294749Y-17017912D01*
X58338500Y-17237866D01*
X58338500Y-17462134D01*
X58294749Y-17682088D01*
X58208927Y-17889280D01*
X58208926Y-17889282D01*
X58084331Y-18075752D01*
X57925752Y-18234331D01*
X57739282Y-18358926D01*
X57739281Y-18358927D01*
X57739280Y-18358927D01*
X57532088Y-18444749D01*
X57312134Y-18488500D01*
X57087866Y-18488500D01*
X56867912Y-18444749D01*
X56660720Y-18358927D01*
X56660719Y-18358927D01*
X56660718Y-18358926D01*
X56474248Y-18234331D01*
X56315669Y-18075752D01*
X56191074Y-17889282D01*
X56191073Y-17889280D01*
X56105251Y-17682088D01*
X56061500Y-17462134D01*
X56061500Y-17237866D01*
X56105251Y-17017912D01*
X56191073Y-16810720D01*
X56232313Y-16749000D01*
X56315669Y-16624248D01*
X56474248Y-16465669D01*
X56660718Y-16341074D01*
X56660720Y-16341073D01*
X56867912Y-16255251D01*
X57087866Y-16211500D01*
X57312134Y-16211500D01*
X57532088Y-16255251D01*
X57532088Y-16255251D01*
G37*
M02*
