G04 #@! TF.GenerationSoftware,KiCad,Pcbnew,(5.1.2)-2*
G04 #@! TF.CreationDate,2020-01-13T23:24:32+05:30*
G04 #@! TF.ProjectId,controller,636f6e74-726f-46c6-9c65-722e6b696361,rev?*
G04 #@! TF.SameCoordinates,Original*
G04 #@! TF.FileFunction,Profile,NP*
%FSLAX46Y46*%
G04 Gerber Fmt 4.6, Leading zero omitted, Abs format (unit mm)*
G04 Created by KiCad (PCBNEW (5.1.2)-2) date 2020-01-13 23:24:32*
%MOMM*%
%LPD*%
G04 APERTURE LIST*
%ADD10C,0.050000*%
%ADD11C,0.100000*%
G04 APERTURE END LIST*
D10*
X81000000Y-75000000D02*
X91000000Y-85000000D01*
X80000000Y-76000000D02*
X81000000Y-75000000D01*
X89000000Y-85000000D02*
X80000000Y-76000000D01*
D11*
X68000000Y-67000000D02*
X71000000Y-67000000D01*
X68000000Y-50000000D02*
X68000000Y-67000000D01*
X117000000Y-50000000D02*
X68000000Y-50000000D01*
X117000000Y-53000000D02*
X117000000Y-50000000D01*
X71000000Y-53000000D02*
X117000000Y-53000000D01*
X71000000Y-67000000D02*
X71000000Y-53000000D01*
X91000000Y-110000000D02*
X91000000Y-85000000D01*
X89000000Y-110000000D02*
X91000000Y-110000000D01*
X89000000Y-85000000D02*
X89000000Y-110000000D01*
D10*
X130236068Y-18000000D02*
G75*
G03X130236068Y-18000000I-2236068J0D01*
G01*
X130236068Y-108000000D02*
G75*
G03X130236068Y-108000000I-2236068J0D01*
G01*
X20236068Y-108000000D02*
G75*
G03X20236068Y-108000000I-2236068J0D01*
G01*
X20236068Y-18000000D02*
G75*
G03X20236068Y-18000000I-2236068J0D01*
G01*
X133000000Y-13000000D02*
X13000000Y-13000000D01*
X133000000Y-113000000D02*
X133000000Y-13000000D01*
X13000000Y-113000000D02*
X133000000Y-113000000D01*
X13000000Y-13000000D02*
X13000000Y-113000000D01*
M02*
