G04 #@! TF.GenerationSoftware,KiCad,Pcbnew,(5.1.2)-2*
G04 #@! TF.CreationDate,2020-06-20T22:42:11+05:30*
G04 #@! TF.ProjectId,motor controller v-4,6d6f746f-7220-4636-9f6e-74726f6c6c65,rev?*
G04 #@! TF.SameCoordinates,Original*
G04 #@! TF.FileFunction,Copper,L2,Bot*
G04 #@! TF.FilePolarity,Positive*
%FSLAX46Y46*%
G04 Gerber Fmt 4.6, Leading zero omitted, Abs format (unit mm)*
G04 Created by KiCad (PCBNEW (5.1.2)-2) date 2020-06-20 22:42:11*
%MOMM*%
%LPD*%
G04 APERTURE LIST*
%ADD10C,1.600000*%
%ADD11O,2.500000X3.000000*%
%ADD12O,3.000000X2.500000*%
%ADD13R,1.600000X1.600000*%
%ADD14C,2.000000*%
%ADD15O,1.600000X1.600000*%
%ADD16C,2.300000*%
%ADD17O,2.400000X1.600000*%
%ADD18R,2.400000X1.600000*%
%ADD19C,2.400000*%
%ADD20O,2.400000X2.400000*%
%ADD21R,2.500000X2.500000*%
%ADD22O,2.500000X2.500000*%
%ADD23R,1.700000X1.700000*%
%ADD24O,1.700000X1.700000*%
%ADD25C,3.000000*%
%ADD26R,3.000000X3.000000*%
%ADD27C,4.000000*%
%ADD28R,1.800000X1.800000*%
%ADD29C,1.800000*%
%ADD30C,1.000000*%
%ADD31C,2.000000*%
%ADD32C,0.254000*%
G04 APERTURE END LIST*
D10*
X124920000Y-95280000D03*
X127420000Y-95280000D03*
X89210000Y-72160000D03*
X86710000Y-72160000D03*
X89220000Y-69120000D03*
X86720000Y-69120000D03*
X86360000Y-101830000D03*
X86360000Y-99330000D03*
X91260000Y-101830000D03*
X91260000Y-99330000D03*
X78290000Y-94610000D03*
X80790000Y-94610000D03*
X37900000Y-76700000D03*
X37900000Y-79200000D03*
X78290000Y-97670000D03*
X80790000Y-97670000D03*
X42290000Y-107480000D03*
X44790000Y-107480000D03*
D11*
X31000000Y-101600000D03*
X35000000Y-101600000D03*
X39000000Y-101600000D03*
X104470000Y-36240000D03*
X108470000Y-36240000D03*
X112470000Y-36240000D03*
X120190000Y-36240000D03*
X124190000Y-36240000D03*
X128190000Y-36240000D03*
D12*
X52000000Y-111990000D03*
X52000000Y-115990000D03*
X52000000Y-119990000D03*
D10*
X42600000Y-112400000D03*
D13*
X44600000Y-112400000D03*
D14*
X34000000Y-74600000D03*
X34000000Y-79100000D03*
X27500000Y-74600000D03*
X27500000Y-79100000D03*
D15*
X88380000Y-58340000D03*
D10*
X78220000Y-58340000D03*
D15*
X85380000Y-61340000D03*
D10*
X75220000Y-61340000D03*
D15*
X82380000Y-64340000D03*
D10*
X72220000Y-64340000D03*
D15*
X82400000Y-45640000D03*
D10*
X82400000Y-55800000D03*
D15*
X85400000Y-45640000D03*
D10*
X85400000Y-55800000D03*
D15*
X88400000Y-45640000D03*
D10*
X88400000Y-55800000D03*
D15*
X56280000Y-64340000D03*
D10*
X66440000Y-64340000D03*
D15*
X53320000Y-61340000D03*
D10*
X63480000Y-61340000D03*
D15*
X50280000Y-58340000D03*
D10*
X60440000Y-58340000D03*
D15*
X50300000Y-45640000D03*
D10*
X50300000Y-55800000D03*
D15*
X53300000Y-45640000D03*
D10*
X53300000Y-55800000D03*
D15*
X56300000Y-45640000D03*
D10*
X56300000Y-55800000D03*
D16*
X86400000Y-94600000D03*
X91300000Y-94600000D03*
D17*
X129800000Y-73520000D03*
X122180000Y-91300000D03*
X129800000Y-76060000D03*
X122180000Y-88760000D03*
X129800000Y-78600000D03*
X122180000Y-86220000D03*
X129800000Y-81140000D03*
X122180000Y-83680000D03*
X129800000Y-83680000D03*
X122180000Y-81140000D03*
X129800000Y-86220000D03*
X122180000Y-78600000D03*
X129800000Y-88760000D03*
X122180000Y-76060000D03*
X129800000Y-91300000D03*
D18*
X122180000Y-73520000D03*
D13*
X59600000Y-90000000D03*
D15*
X107860000Y-74760000D03*
X62140000Y-90000000D03*
X105320000Y-74760000D03*
X64680000Y-90000000D03*
X102780000Y-74760000D03*
X67220000Y-90000000D03*
X100240000Y-74760000D03*
X69760000Y-90000000D03*
X97700000Y-74760000D03*
X72300000Y-90000000D03*
X95160000Y-74760000D03*
X74840000Y-90000000D03*
X92620000Y-74760000D03*
X77380000Y-90000000D03*
X90080000Y-74760000D03*
X79920000Y-90000000D03*
X87540000Y-74760000D03*
X82460000Y-90000000D03*
X85000000Y-74760000D03*
X85000000Y-90000000D03*
X82460000Y-74760000D03*
X87540000Y-90000000D03*
X79920000Y-74760000D03*
X90080000Y-90000000D03*
X77380000Y-74760000D03*
X92620000Y-90000000D03*
X74840000Y-74760000D03*
X95160000Y-90000000D03*
X72300000Y-74760000D03*
X97700000Y-90000000D03*
X69760000Y-74760000D03*
X100240000Y-90000000D03*
X67220000Y-74760000D03*
X102780000Y-90000000D03*
X64680000Y-74760000D03*
X105320000Y-90000000D03*
X62140000Y-74760000D03*
X107860000Y-90000000D03*
X59600000Y-74760000D03*
D19*
X59800000Y-122000000D03*
D20*
X59800000Y-114380000D03*
D14*
X95520000Y-63540000D03*
X91520000Y-63540000D03*
D21*
X153765000Y-44879775D03*
D22*
X155765000Y-50879775D03*
X167965000Y-50879775D03*
X167965000Y-38879775D03*
X155765000Y-38879775D03*
D21*
X153765000Y-62929775D03*
D22*
X155765000Y-68929775D03*
X167965000Y-68929775D03*
X167965000Y-56929775D03*
X155765000Y-56929775D03*
D21*
X153900000Y-81000000D03*
D22*
X155900000Y-87000000D03*
X168100000Y-87000000D03*
X168100000Y-75000000D03*
X155900000Y-75000000D03*
D23*
X34670000Y-85020000D03*
D24*
X32130000Y-85020000D03*
X34670000Y-87560000D03*
X32130000Y-87560000D03*
X34670000Y-90100000D03*
X32130000Y-90100000D03*
D25*
X170050000Y-106020000D03*
X170050000Y-100940000D03*
D26*
X170050000Y-111100000D03*
D25*
X170050000Y-95860000D03*
D26*
X30200000Y-54800000D03*
D25*
X30200000Y-59880000D03*
D13*
X88390000Y-32850000D03*
D10*
X85620000Y-32850000D03*
X82850000Y-32850000D03*
X80080000Y-32850000D03*
X77310000Y-32850000D03*
X87005000Y-30010000D03*
X84235000Y-30010000D03*
X81465000Y-30010000D03*
X78695000Y-30010000D03*
D27*
X95350000Y-32550000D03*
X70350000Y-32550000D03*
D13*
X56000000Y-32850000D03*
D10*
X53230000Y-32850000D03*
X50460000Y-32850000D03*
X47690000Y-32850000D03*
X44920000Y-32850000D03*
X54615000Y-30010000D03*
X51845000Y-30010000D03*
X49075000Y-30010000D03*
X46305000Y-30010000D03*
D27*
X62960000Y-32550000D03*
X37960000Y-32550000D03*
D25*
X45080000Y-120000000D03*
D26*
X40000000Y-120000000D03*
D28*
X65300000Y-117900000D03*
D29*
X67840000Y-117900000D03*
D28*
X119400000Y-117100000D03*
D29*
X119400000Y-119640000D03*
D28*
X132800000Y-117100000D03*
D29*
X132800000Y-119640000D03*
D14*
X65000000Y-98000000D03*
X67000000Y-98000000D03*
X69000000Y-98000000D03*
X65000000Y-107000000D03*
X67000000Y-107000000D03*
X69000000Y-107000000D03*
X45000000Y-91000000D03*
X45000000Y-102000000D03*
X30000000Y-109000000D03*
X30000000Y-111000000D03*
X30000000Y-113000000D03*
X58000000Y-106000000D03*
X58000000Y-108000000D03*
X58000000Y-110000000D03*
X93000000Y-111000000D03*
X118000000Y-42000000D03*
X128000000Y-42000000D03*
X114000000Y-63000000D03*
X114000000Y-65000000D03*
X97000000Y-68000000D03*
X95000000Y-68000000D03*
X108000000Y-52000000D03*
X114000000Y-57000000D03*
X91000000Y-111000000D03*
X147540000Y-112080000D03*
X147390000Y-77130000D03*
X149000000Y-40000000D03*
X149000001Y-59080001D03*
X75000000Y-45000000D03*
X32000000Y-47000000D03*
X53410000Y-103620000D03*
X95530000Y-57880000D03*
X44000000Y-78000000D03*
X67480000Y-47480000D03*
X134720000Y-65110000D03*
X94720000Y-51190000D03*
X121960000Y-60990000D03*
X48070000Y-86670000D03*
X40000004Y-85000000D03*
D30*
X112470000Y-38490000D02*
X115980000Y-42000000D01*
X112470000Y-36240000D02*
X112470000Y-38490000D01*
X115980000Y-42000000D02*
X118000000Y-42000000D01*
X122180000Y-92540000D02*
X124920000Y-95280000D01*
X122180000Y-91300000D02*
X122180000Y-92540000D01*
D31*
X119400000Y-119640000D02*
X120672792Y-119640000D01*
D30*
X127700001Y-119539999D02*
X127600000Y-119640000D01*
D31*
X127600000Y-119640000D02*
X132800000Y-119640000D01*
X132800000Y-119640000D02*
X139980000Y-119640000D01*
X139980000Y-119640000D02*
X147540000Y-112080000D01*
D30*
X149520000Y-75000000D02*
X147390000Y-77130000D01*
X155900000Y-75000000D02*
X149520000Y-75000000D01*
D31*
X115970000Y-123070000D02*
X119400000Y-119640000D01*
X59800000Y-122000000D02*
X60870000Y-123070000D01*
D30*
X155765000Y-38879775D02*
X150120225Y-38879775D01*
X150120225Y-38879775D02*
X149499999Y-39500001D01*
X149500000Y-58580002D02*
X149000001Y-59080001D01*
X155765000Y-56929775D02*
X151150227Y-56929775D01*
X151150227Y-56929775D02*
X149500000Y-58580002D01*
X149499999Y-39500001D02*
X149000000Y-40000000D01*
D31*
X120672792Y-119640000D02*
X127600000Y-119640000D01*
X53790000Y-115990000D02*
X59800000Y-122000000D01*
X52000000Y-115990000D02*
X53790000Y-115990000D01*
D30*
X48190000Y-115990000D02*
X44600000Y-112400000D01*
X52000000Y-115990000D02*
X48190000Y-115990000D01*
X44600000Y-107670000D02*
X44790000Y-107480000D01*
X44600000Y-112400000D02*
X44600000Y-107670000D01*
X40330000Y-101600000D02*
X39000000Y-101600000D01*
X44790000Y-107480000D02*
X44790000Y-106060000D01*
X44790000Y-106060000D02*
X40330000Y-101600000D01*
X127420000Y-93680000D02*
X129800000Y-91300000D01*
X127420000Y-95280000D02*
X127420000Y-93680000D01*
D31*
X60870000Y-123070000D02*
X105520000Y-123070000D01*
X105520000Y-123070000D02*
X115970000Y-123070000D01*
D30*
X127420000Y-98500000D02*
X127420000Y-95280000D01*
X105520000Y-123070000D02*
X105520000Y-120400000D01*
X105520000Y-120400000D02*
X127420000Y-98500000D01*
X44745000Y-28450000D02*
X46305000Y-30010000D01*
X36360000Y-28450000D02*
X44745000Y-28450000D01*
X33860000Y-30950000D02*
X36360000Y-28450000D01*
X32000000Y-47000000D02*
X33860000Y-45140000D01*
X33860000Y-45140000D02*
X33860000Y-30950000D01*
X76280000Y-30010000D02*
X78695000Y-30010000D01*
X75000000Y-45000000D02*
X75000000Y-31290000D01*
X75000000Y-31290000D02*
X76280000Y-30010000D01*
X80790000Y-97670000D02*
X80790000Y-94610000D01*
X58150000Y-98050000D02*
X61980000Y-101880000D01*
X76580000Y-101880000D02*
X80790000Y-97670000D01*
X61980000Y-101880000D02*
X76580000Y-101880000D01*
X82460000Y-90530000D02*
X82460000Y-90000000D01*
X80790000Y-94610000D02*
X80790000Y-92200000D01*
X80790000Y-92200000D02*
X82460000Y-90530000D01*
X47840000Y-98050000D02*
X53410000Y-103620000D01*
X43760000Y-98050000D02*
X47840000Y-98050000D01*
X43760000Y-98050000D02*
X58150000Y-98050000D01*
X95530000Y-63530000D02*
X95520000Y-63540000D01*
X95530000Y-57880000D02*
X95530000Y-63530000D01*
X36050000Y-98050000D02*
X43760000Y-98050000D01*
X35000000Y-99100000D02*
X36050000Y-98050000D01*
X35000000Y-101600000D02*
X35000000Y-99100000D01*
X37800000Y-79100000D02*
X37900000Y-79200000D01*
X34000000Y-79100000D02*
X37800000Y-79100000D01*
X34000000Y-79100000D02*
X27500000Y-79100000D01*
X79920000Y-87160000D02*
X79920000Y-90000000D01*
X75150000Y-82390000D02*
X79920000Y-87160000D01*
X37900000Y-79200000D02*
X41090000Y-82390000D01*
X41090000Y-82390000D02*
X75150000Y-82390000D01*
X37900000Y-79200000D02*
X42800000Y-79200000D01*
X42800000Y-79200000D02*
X44000000Y-78000000D01*
X90080000Y-93380000D02*
X91300000Y-94600000D01*
X90080000Y-90000000D02*
X90080000Y-93380000D01*
X91300000Y-99290000D02*
X91260000Y-99330000D01*
X91300000Y-94600000D02*
X91300000Y-99290000D01*
X87540000Y-93460000D02*
X86400000Y-94600000D01*
X87540000Y-90000000D02*
X87540000Y-93460000D01*
X86400000Y-99290000D02*
X86360000Y-99330000D01*
X86400000Y-94600000D02*
X86400000Y-99290000D01*
X85000000Y-73870000D02*
X86710000Y-72160000D01*
X85000000Y-74760000D02*
X85000000Y-73870000D01*
X86710000Y-69130000D02*
X86720000Y-69120000D01*
X86710000Y-72160000D02*
X86710000Y-69130000D01*
X86720000Y-68340000D02*
X91520000Y-63540000D01*
X86720000Y-69120000D02*
X86720000Y-68340000D01*
X133590000Y-86220000D02*
X129800000Y-86220000D01*
X136120000Y-88750000D02*
X133590000Y-86220000D01*
X132800000Y-117100000D02*
X136120000Y-113780000D01*
X136120000Y-113780000D02*
X136120000Y-88750000D01*
X131770000Y-88760000D02*
X129800000Y-88760000D01*
X133760000Y-90750000D02*
X131770000Y-88760000D01*
X133760000Y-100840000D02*
X133760000Y-90750000D01*
X119400000Y-117100000D02*
X119400000Y-115200000D01*
X119400000Y-115200000D02*
X133760000Y-100840000D01*
X59800000Y-114380000D02*
X67020000Y-114380000D01*
X67840000Y-115200000D02*
X67840000Y-117900000D01*
X67020000Y-114380000D02*
X67840000Y-115200000D01*
D31*
X51990000Y-120000000D02*
X52000000Y-119990000D01*
X45080000Y-120000000D02*
X51990000Y-120000000D01*
D30*
X102780000Y-61900000D02*
X102780000Y-74760000D01*
X124190000Y-36240000D02*
X124190000Y-40490000D01*
X124190000Y-40490000D02*
X102780000Y-61900000D01*
X52644999Y-29210001D02*
X51845000Y-30010000D01*
X52644999Y-28105001D02*
X52644999Y-29210001D01*
X54620000Y-26130000D02*
X52644999Y-28105001D01*
X118330000Y-26130000D02*
X54620000Y-26130000D01*
X124190000Y-36240000D02*
X124190000Y-31990000D01*
X124190000Y-31990000D02*
X118330000Y-26130000D01*
X134720000Y-65110000D02*
X134720000Y-71190000D01*
X132390000Y-73520000D02*
X129800000Y-73520000D01*
X134720000Y-71190000D02*
X132390000Y-73520000D01*
X55746370Y-30010000D02*
X54615000Y-30010000D01*
X57380000Y-30010000D02*
X55746370Y-30010000D01*
X59290000Y-31920000D02*
X57380000Y-30010000D01*
X59290000Y-43400000D02*
X59290000Y-31920000D01*
X67480000Y-47480000D02*
X63370000Y-47480000D01*
X63370000Y-47480000D02*
X59290000Y-43400000D01*
X76030000Y-64340000D02*
X82380000Y-64340000D01*
X67220000Y-74760000D02*
X67220000Y-73150000D01*
X67220000Y-73150000D02*
X76030000Y-64340000D01*
X82380000Y-55820000D02*
X82400000Y-55800000D01*
X82380000Y-64340000D02*
X82380000Y-55820000D01*
X85380000Y-62471370D02*
X85380000Y-61340000D01*
X82550000Y-67070000D02*
X85380000Y-64240000D01*
X76110000Y-67070000D02*
X82550000Y-67070000D01*
X69760000Y-74760000D02*
X69760000Y-73420000D01*
X69760000Y-73420000D02*
X76110000Y-67070000D01*
X85380000Y-55820000D02*
X85400000Y-55800000D01*
X85380000Y-61340000D02*
X85380000Y-55820000D01*
X85380000Y-64240000D02*
X85380000Y-62471370D01*
X88380000Y-59471370D02*
X88380000Y-58340000D01*
X83520000Y-68910000D02*
X88380000Y-64050000D01*
X77020000Y-68910000D02*
X83520000Y-68910000D01*
X72300000Y-74760000D02*
X72300000Y-73630000D01*
X72300000Y-73630000D02*
X77020000Y-68910000D01*
X88380000Y-55820000D02*
X88400000Y-55800000D01*
X88380000Y-58340000D02*
X88380000Y-55820000D01*
X88380000Y-64050000D02*
X88380000Y-59471370D01*
X108470000Y-47270000D02*
X108470000Y-36240000D01*
X100240000Y-74760000D02*
X100240000Y-55500000D01*
X100240000Y-55500000D02*
X108470000Y-47270000D01*
X85034999Y-29210001D02*
X84235000Y-30010000D01*
X86245000Y-28000000D02*
X85034999Y-29210001D01*
X108470000Y-36240000D02*
X100230000Y-28000000D01*
X100230000Y-28000000D02*
X86245000Y-28000000D01*
X127520000Y-76060000D02*
X129800000Y-76060000D01*
X125630000Y-74170000D02*
X127520000Y-76060000D01*
X121960000Y-60990000D02*
X125630000Y-64660000D01*
X125630000Y-64660000D02*
X125630000Y-74170000D01*
X88136370Y-30010000D02*
X87005000Y-30010000D01*
X89940000Y-30010000D02*
X88136370Y-30010000D01*
X91400000Y-31470000D02*
X89940000Y-30010000D01*
X94720000Y-51190000D02*
X91400000Y-47870000D01*
X91400000Y-47870000D02*
X91400000Y-31470000D01*
X74840000Y-77970000D02*
X74840000Y-74760000D01*
X73320000Y-79490000D02*
X74840000Y-77970000D01*
X30200000Y-59880000D02*
X49810000Y-79490000D01*
X49810000Y-79490000D02*
X73320000Y-79490000D01*
X169214999Y-52129774D02*
X167965000Y-50879775D01*
X173370000Y-56284775D02*
X169214999Y-52129774D01*
X170050000Y-95860000D02*
X173370000Y-92540000D01*
X173370000Y-92540000D02*
X173370000Y-56284775D01*
X167550000Y-111100000D02*
X159510000Y-103060000D01*
X170050000Y-111100000D02*
X167550000Y-111100000D01*
X158119775Y-44879775D02*
X153765000Y-44879775D01*
X159510000Y-46270000D02*
X158119775Y-44879775D01*
X158275225Y-65190000D02*
X159510000Y-65190000D01*
X156015000Y-62929775D02*
X158275225Y-65190000D01*
X153765000Y-62929775D02*
X156015000Y-62929775D01*
X159510000Y-65190000D02*
X159510000Y-46270000D01*
X158180000Y-83030000D02*
X159510000Y-83030000D01*
X156150000Y-81000000D02*
X158180000Y-83030000D01*
X153900000Y-81000000D02*
X156150000Y-81000000D01*
X159510000Y-103060000D02*
X159510000Y-83030000D01*
X159510000Y-83030000D02*
X159510000Y-65190000D01*
X169214999Y-70179774D02*
X167965000Y-68929775D01*
X171220000Y-72184775D02*
X169214999Y-70179774D01*
X171220000Y-76940000D02*
X171220000Y-72184775D01*
X164870000Y-83290000D02*
X171220000Y-76940000D01*
X170050000Y-100940000D02*
X164870000Y-95760000D01*
X164870000Y-95760000D02*
X164870000Y-83290000D01*
X165040000Y-75000000D02*
X168100000Y-75000000D01*
X162330000Y-77710000D02*
X165040000Y-75000000D01*
X170050000Y-106020000D02*
X162330000Y-98300000D01*
X162330000Y-98300000D02*
X162330000Y-77710000D01*
X72300000Y-92230000D02*
X72300000Y-90000000D01*
X30340000Y-87560000D02*
X29400000Y-88500000D01*
X32130000Y-87560000D02*
X30340000Y-87560000D01*
X29400000Y-88500000D02*
X29400000Y-92060000D01*
X29400000Y-92060000D02*
X32450000Y-95110000D01*
X32450000Y-95110000D02*
X69420000Y-95110000D01*
X69420000Y-95110000D02*
X72300000Y-92230000D01*
X42240000Y-87560000D02*
X34670000Y-87560000D01*
X45520000Y-84280000D02*
X42240000Y-87560000D01*
X74120000Y-84280000D02*
X45520000Y-84280000D01*
X77380000Y-90000000D02*
X77380000Y-87540000D01*
X77380000Y-87540000D02*
X74120000Y-84280000D01*
X32130000Y-85020000D02*
X28980000Y-85020000D01*
X28980000Y-85020000D02*
X27000000Y-87000000D01*
X31000000Y-99100000D02*
X31000000Y-101600000D01*
X27000000Y-95100000D02*
X31000000Y-99100000D01*
X27000000Y-87000000D02*
X27000000Y-95100000D01*
X74840000Y-88630000D02*
X74840000Y-90000000D01*
X72630000Y-86420000D02*
X74840000Y-88630000D01*
X48070000Y-86670000D02*
X48320000Y-86420000D01*
X48320000Y-86420000D02*
X72630000Y-86420000D01*
X34670000Y-85020000D02*
X39980004Y-85020000D01*
X39980004Y-85020000D02*
X40000004Y-85000000D01*
X140210000Y-87000000D02*
X155900000Y-87000000D01*
X129800000Y-83680000D02*
X136890000Y-83680000D01*
X136890000Y-83680000D02*
X140210000Y-87000000D01*
X135943998Y-81140000D02*
X148154223Y-68929775D01*
X129800000Y-81140000D02*
X135943998Y-81140000D01*
X153997234Y-68929775D02*
X155765000Y-68929775D01*
X148154223Y-68929775D02*
X153997234Y-68929775D01*
X151100225Y-50879775D02*
X155765000Y-50879775D01*
X144870000Y-57110000D02*
X151100225Y-50879775D01*
X144870000Y-65730000D02*
X144870000Y-57110000D01*
X129800000Y-78600000D02*
X132000000Y-78600000D01*
X132000000Y-78600000D02*
X144870000Y-65730000D01*
X50280000Y-65440000D02*
X50280000Y-58340000D01*
X59600000Y-74760000D02*
X50280000Y-65440000D01*
X50280000Y-55820000D02*
X50300000Y-55800000D01*
X50280000Y-58340000D02*
X50280000Y-55820000D01*
X53320000Y-62471370D02*
X53320000Y-61340000D01*
X62140000Y-73628630D02*
X53320000Y-64808630D01*
X62140000Y-74760000D02*
X62140000Y-73628630D01*
X53320000Y-55820000D02*
X53300000Y-55800000D01*
X53320000Y-61340000D02*
X53320000Y-55820000D01*
X53320000Y-64808630D02*
X53320000Y-62471370D01*
X64680000Y-72740000D02*
X56280000Y-64340000D01*
X64680000Y-74760000D02*
X64680000Y-72740000D01*
X56280000Y-55820000D02*
X56300000Y-55800000D01*
X56280000Y-64340000D02*
X56280000Y-55820000D01*
X107860000Y-90000000D02*
X117250000Y-90000000D01*
X118490000Y-88760000D02*
X122180000Y-88760000D01*
X117250000Y-90000000D02*
X118490000Y-88760000D01*
X117550000Y-86220000D02*
X122180000Y-86220000D01*
X115850000Y-87920000D02*
X117550000Y-86220000D01*
X106130000Y-87920000D02*
X115850000Y-87920000D01*
X105320000Y-90000000D02*
X105320000Y-88730000D01*
X105320000Y-88730000D02*
X106130000Y-87920000D01*
X116230000Y-83680000D02*
X122180000Y-83680000D01*
X114060000Y-85850000D02*
X116230000Y-83680000D01*
X105090000Y-85850000D02*
X114060000Y-85850000D01*
X102780000Y-90000000D02*
X102780000Y-88160000D01*
X102780000Y-88160000D02*
X105090000Y-85850000D01*
X115260000Y-81140000D02*
X122180000Y-81140000D01*
X112690000Y-83710000D02*
X115260000Y-81140000D01*
X104130000Y-83710000D02*
X112690000Y-83710000D01*
X100240000Y-90000000D02*
X100240000Y-87600000D01*
X100240000Y-87600000D02*
X104130000Y-83710000D01*
X114440000Y-78600000D02*
X122180000Y-78600000D01*
X111470000Y-81570000D02*
X114440000Y-78600000D01*
X103340000Y-81570000D02*
X111470000Y-81570000D01*
X97700000Y-90000000D02*
X97700000Y-87210000D01*
X97700000Y-87210000D02*
X103340000Y-81570000D01*
X113470000Y-76060000D02*
X122180000Y-76060000D01*
X110020000Y-79510000D02*
X113470000Y-76060000D01*
X102350000Y-79510000D02*
X110020000Y-79510000D01*
X95160000Y-90000000D02*
X95160000Y-86700000D01*
X95160000Y-86700000D02*
X102350000Y-79510000D01*
X113100000Y-73520000D02*
X122180000Y-73520000D01*
X109110000Y-77510000D02*
X113100000Y-73520000D01*
X101310000Y-77510000D02*
X109110000Y-77510000D01*
X92620000Y-90000000D02*
X92620000Y-86200000D01*
X92620000Y-86200000D02*
X101310000Y-77510000D01*
X50300000Y-33010000D02*
X50460000Y-32850000D01*
X50300000Y-45640000D02*
X50300000Y-33010000D01*
X53300000Y-32920000D02*
X53230000Y-32850000D01*
X53300000Y-45640000D02*
X53300000Y-32920000D01*
X56300000Y-33150000D02*
X56000000Y-32850000D01*
X56300000Y-45640000D02*
X56300000Y-33150000D01*
X82400000Y-33300000D02*
X82850000Y-32850000D01*
X82400000Y-45640000D02*
X82400000Y-33300000D01*
X85400000Y-33070000D02*
X85620000Y-32850000D01*
X85400000Y-45640000D02*
X85400000Y-33070000D01*
X88400000Y-32860000D02*
X88390000Y-32850000D01*
X88400000Y-45640000D02*
X88400000Y-32860000D01*
D32*
G36*
X29288120Y-99689046D02*
G01*
X29014034Y-100023020D01*
X28793313Y-100435960D01*
X28657393Y-100884027D01*
X28623000Y-101233228D01*
X28623000Y-101966771D01*
X28657393Y-102315972D01*
X28793313Y-102764039D01*
X29014034Y-103176979D01*
X29311075Y-103538925D01*
X29673020Y-103835966D01*
X30085960Y-104056687D01*
X30534027Y-104192607D01*
X31000000Y-104238501D01*
X31465972Y-104192607D01*
X31914039Y-104056687D01*
X32326979Y-103835966D01*
X32688925Y-103538925D01*
X32985966Y-103176980D01*
X33000000Y-103150724D01*
X33014034Y-103176979D01*
X33311075Y-103538925D01*
X33673020Y-103835966D01*
X34085960Y-104056687D01*
X34534027Y-104192607D01*
X35000000Y-104238501D01*
X35465972Y-104192607D01*
X35914039Y-104056687D01*
X36326979Y-103835966D01*
X36688925Y-103538925D01*
X36985966Y-103176980D01*
X37000000Y-103150724D01*
X37014034Y-103176979D01*
X37311075Y-103538925D01*
X37673020Y-103835966D01*
X38085960Y-104056687D01*
X38534027Y-104192607D01*
X39000000Y-104238501D01*
X39465972Y-104192607D01*
X39914039Y-104056687D01*
X40286616Y-103857541D01*
X42484380Y-106055305D01*
X42252463Y-106038546D01*
X41971970Y-106073566D01*
X41773059Y-106133906D01*
X41685576Y-106348074D01*
X42290000Y-106952498D01*
X42304142Y-106938356D01*
X42831644Y-107465858D01*
X42817502Y-107480000D01*
X42831644Y-107494142D01*
X42304142Y-108021644D01*
X42290000Y-108007502D01*
X41685576Y-108611926D01*
X41773059Y-108826094D01*
X42045602Y-108901080D01*
X42327537Y-108921454D01*
X42608030Y-108886434D01*
X42806941Y-108826094D01*
X42894423Y-108611928D01*
X42973001Y-108690506D01*
X42973000Y-110831202D01*
X42858400Y-110970843D01*
X42852841Y-110981243D01*
X42844398Y-110978920D01*
X42562463Y-110958546D01*
X42281970Y-110993566D01*
X42083059Y-111053906D01*
X41995576Y-111268074D01*
X42600000Y-111872498D01*
X42614142Y-111858356D01*
X42667547Y-111911761D01*
X42667547Y-112888239D01*
X42614142Y-112941644D01*
X42600000Y-112927502D01*
X41995576Y-113531926D01*
X42083059Y-113746094D01*
X42355602Y-113821080D01*
X42637537Y-113841454D01*
X42850745Y-113814835D01*
X42858400Y-113829157D01*
X42999235Y-114000765D01*
X43170843Y-114141600D01*
X43366629Y-114246250D01*
X43579069Y-114310693D01*
X43800000Y-114332453D01*
X44231528Y-114332453D01*
X46983025Y-117083951D01*
X47033971Y-117146029D01*
X47096049Y-117196975D01*
X47096052Y-117196978D01*
X47242276Y-117316980D01*
X47281714Y-117349346D01*
X47564362Y-117500425D01*
X47871052Y-117593458D01*
X48190000Y-117624872D01*
X48269925Y-117617000D01*
X50010254Y-117617000D01*
X50061075Y-117678925D01*
X50297556Y-117873000D01*
X46625194Y-117873000D01*
X46324351Y-117671983D01*
X45846268Y-117473954D01*
X45338737Y-117373000D01*
X44821263Y-117373000D01*
X44313732Y-117473954D01*
X43835649Y-117671983D01*
X43405385Y-117959476D01*
X43039476Y-118325385D01*
X42751983Y-118755649D01*
X42553954Y-119233732D01*
X42453000Y-119741263D01*
X42453000Y-120258737D01*
X42553954Y-120766268D01*
X42751983Y-121244351D01*
X43039476Y-121674615D01*
X43405385Y-122040524D01*
X43835649Y-122328017D01*
X44313732Y-122526046D01*
X44821263Y-122627000D01*
X45338737Y-122627000D01*
X45846268Y-122526046D01*
X46324351Y-122328017D01*
X46625194Y-122127000D01*
X50705585Y-122127000D01*
X50835960Y-122196687D01*
X51284027Y-122332607D01*
X51633228Y-122367000D01*
X52366772Y-122367000D01*
X52715973Y-122332607D01*
X53164040Y-122196687D01*
X53576980Y-121975966D01*
X53938925Y-121678925D01*
X54235966Y-121316980D01*
X54456687Y-120904040D01*
X54592607Y-120455973D01*
X54638501Y-119990000D01*
X54622827Y-119830858D01*
X57627265Y-122835297D01*
X57642882Y-122873000D01*
X32260333Y-122873000D01*
X32605544Y-122587417D01*
X33058487Y-122032054D01*
X33341384Y-121500000D01*
X37861928Y-121500000D01*
X37874188Y-121624482D01*
X37910498Y-121744180D01*
X37969463Y-121854494D01*
X38048815Y-121951185D01*
X38145506Y-122030537D01*
X38255820Y-122089502D01*
X38375518Y-122125812D01*
X38500000Y-122138072D01*
X39468250Y-122135000D01*
X39627000Y-121976250D01*
X39627000Y-120373000D01*
X40373000Y-120373000D01*
X40373000Y-121976250D01*
X40531750Y-122135000D01*
X41500000Y-122138072D01*
X41624482Y-122125812D01*
X41744180Y-122089502D01*
X41854494Y-122030537D01*
X41951185Y-121951185D01*
X42030537Y-121854494D01*
X42089502Y-121744180D01*
X42125812Y-121624482D01*
X42138072Y-121500000D01*
X42135000Y-120531750D01*
X41976250Y-120373000D01*
X40373000Y-120373000D01*
X39627000Y-120373000D01*
X38023750Y-120373000D01*
X37865000Y-120531750D01*
X37861928Y-121500000D01*
X33341384Y-121500000D01*
X33394933Y-121399290D01*
X33602067Y-120713229D01*
X33672000Y-120000000D01*
X33670568Y-119897472D01*
X33580748Y-119186474D01*
X33354539Y-118506463D01*
X33350868Y-118500000D01*
X37861928Y-118500000D01*
X37865000Y-119468250D01*
X38023750Y-119627000D01*
X39627000Y-119627000D01*
X39627000Y-118023750D01*
X40373000Y-118023750D01*
X40373000Y-119627000D01*
X41976250Y-119627000D01*
X42135000Y-119468250D01*
X42138072Y-118500000D01*
X42125812Y-118375518D01*
X42089502Y-118255820D01*
X42030537Y-118145506D01*
X41951185Y-118048815D01*
X41854494Y-117969463D01*
X41744180Y-117910498D01*
X41624482Y-117874188D01*
X41500000Y-117861928D01*
X40531750Y-117865000D01*
X40373000Y-118023750D01*
X39627000Y-118023750D01*
X39468250Y-117865000D01*
X38500000Y-117861928D01*
X38375518Y-117874188D01*
X38255820Y-117910498D01*
X38145506Y-117969463D01*
X38048815Y-118048815D01*
X37969463Y-118145506D01*
X37910498Y-118255820D01*
X37874188Y-118375518D01*
X37861928Y-118500000D01*
X33350868Y-118500000D01*
X33000556Y-117883341D01*
X32532283Y-117340841D01*
X31967556Y-116899628D01*
X31327885Y-116576507D01*
X30637636Y-116383786D01*
X29923099Y-116328805D01*
X29211492Y-116413659D01*
X28529918Y-116635116D01*
X27904340Y-116984740D01*
X27358584Y-117449214D01*
X27127000Y-117741400D01*
X27127000Y-112437537D01*
X41158546Y-112437537D01*
X41193566Y-112718030D01*
X41253906Y-112916941D01*
X41468074Y-113004424D01*
X42072498Y-112400000D01*
X41468074Y-111795576D01*
X41253906Y-111883059D01*
X41178920Y-112155602D01*
X41158546Y-112437537D01*
X27127000Y-112437537D01*
X27127000Y-107517537D01*
X40848546Y-107517537D01*
X40883566Y-107798030D01*
X40943906Y-107996941D01*
X41158074Y-108084424D01*
X41762498Y-107480000D01*
X41158074Y-106875576D01*
X40943906Y-106963059D01*
X40868920Y-107235602D01*
X40848546Y-107517537D01*
X27127000Y-107517537D01*
X27127000Y-97527925D01*
X29288120Y-99689046D01*
X29288120Y-99689046D01*
G37*
X29288120Y-99689046D02*
X29014034Y-100023020D01*
X28793313Y-100435960D01*
X28657393Y-100884027D01*
X28623000Y-101233228D01*
X28623000Y-101966771D01*
X28657393Y-102315972D01*
X28793313Y-102764039D01*
X29014034Y-103176979D01*
X29311075Y-103538925D01*
X29673020Y-103835966D01*
X30085960Y-104056687D01*
X30534027Y-104192607D01*
X31000000Y-104238501D01*
X31465972Y-104192607D01*
X31914039Y-104056687D01*
X32326979Y-103835966D01*
X32688925Y-103538925D01*
X32985966Y-103176980D01*
X33000000Y-103150724D01*
X33014034Y-103176979D01*
X33311075Y-103538925D01*
X33673020Y-103835966D01*
X34085960Y-104056687D01*
X34534027Y-104192607D01*
X35000000Y-104238501D01*
X35465972Y-104192607D01*
X35914039Y-104056687D01*
X36326979Y-103835966D01*
X36688925Y-103538925D01*
X36985966Y-103176980D01*
X37000000Y-103150724D01*
X37014034Y-103176979D01*
X37311075Y-103538925D01*
X37673020Y-103835966D01*
X38085960Y-104056687D01*
X38534027Y-104192607D01*
X39000000Y-104238501D01*
X39465972Y-104192607D01*
X39914039Y-104056687D01*
X40286616Y-103857541D01*
X42484380Y-106055305D01*
X42252463Y-106038546D01*
X41971970Y-106073566D01*
X41773059Y-106133906D01*
X41685576Y-106348074D01*
X42290000Y-106952498D01*
X42304142Y-106938356D01*
X42831644Y-107465858D01*
X42817502Y-107480000D01*
X42831644Y-107494142D01*
X42304142Y-108021644D01*
X42290000Y-108007502D01*
X41685576Y-108611926D01*
X41773059Y-108826094D01*
X42045602Y-108901080D01*
X42327537Y-108921454D01*
X42608030Y-108886434D01*
X42806941Y-108826094D01*
X42894423Y-108611928D01*
X42973001Y-108690506D01*
X42973000Y-110831202D01*
X42858400Y-110970843D01*
X42852841Y-110981243D01*
X42844398Y-110978920D01*
X42562463Y-110958546D01*
X42281970Y-110993566D01*
X42083059Y-111053906D01*
X41995576Y-111268074D01*
X42600000Y-111872498D01*
X42614142Y-111858356D01*
X42667547Y-111911761D01*
X42667547Y-112888239D01*
X42614142Y-112941644D01*
X42600000Y-112927502D01*
X41995576Y-113531926D01*
X42083059Y-113746094D01*
X42355602Y-113821080D01*
X42637537Y-113841454D01*
X42850745Y-113814835D01*
X42858400Y-113829157D01*
X42999235Y-114000765D01*
X43170843Y-114141600D01*
X43366629Y-114246250D01*
X43579069Y-114310693D01*
X43800000Y-114332453D01*
X44231528Y-114332453D01*
X46983025Y-117083951D01*
X47033971Y-117146029D01*
X47096049Y-117196975D01*
X47096052Y-117196978D01*
X47242276Y-117316980D01*
X47281714Y-117349346D01*
X47564362Y-117500425D01*
X47871052Y-117593458D01*
X48190000Y-117624872D01*
X48269925Y-117617000D01*
X50010254Y-117617000D01*
X50061075Y-117678925D01*
X50297556Y-117873000D01*
X46625194Y-117873000D01*
X46324351Y-117671983D01*
X45846268Y-117473954D01*
X45338737Y-117373000D01*
X44821263Y-117373000D01*
X44313732Y-117473954D01*
X43835649Y-117671983D01*
X43405385Y-117959476D01*
X43039476Y-118325385D01*
X42751983Y-118755649D01*
X42553954Y-119233732D01*
X42453000Y-119741263D01*
X42453000Y-120258737D01*
X42553954Y-120766268D01*
X42751983Y-121244351D01*
X43039476Y-121674615D01*
X43405385Y-122040524D01*
X43835649Y-122328017D01*
X44313732Y-122526046D01*
X44821263Y-122627000D01*
X45338737Y-122627000D01*
X45846268Y-122526046D01*
X46324351Y-122328017D01*
X46625194Y-122127000D01*
X50705585Y-122127000D01*
X50835960Y-122196687D01*
X51284027Y-122332607D01*
X51633228Y-122367000D01*
X52366772Y-122367000D01*
X52715973Y-122332607D01*
X53164040Y-122196687D01*
X53576980Y-121975966D01*
X53938925Y-121678925D01*
X54235966Y-121316980D01*
X54456687Y-120904040D01*
X54592607Y-120455973D01*
X54638501Y-119990000D01*
X54622827Y-119830858D01*
X57627265Y-122835297D01*
X57642882Y-122873000D01*
X32260333Y-122873000D01*
X32605544Y-122587417D01*
X33058487Y-122032054D01*
X33341384Y-121500000D01*
X37861928Y-121500000D01*
X37874188Y-121624482D01*
X37910498Y-121744180D01*
X37969463Y-121854494D01*
X38048815Y-121951185D01*
X38145506Y-122030537D01*
X38255820Y-122089502D01*
X38375518Y-122125812D01*
X38500000Y-122138072D01*
X39468250Y-122135000D01*
X39627000Y-121976250D01*
X39627000Y-120373000D01*
X40373000Y-120373000D01*
X40373000Y-121976250D01*
X40531750Y-122135000D01*
X41500000Y-122138072D01*
X41624482Y-122125812D01*
X41744180Y-122089502D01*
X41854494Y-122030537D01*
X41951185Y-121951185D01*
X42030537Y-121854494D01*
X42089502Y-121744180D01*
X42125812Y-121624482D01*
X42138072Y-121500000D01*
X42135000Y-120531750D01*
X41976250Y-120373000D01*
X40373000Y-120373000D01*
X39627000Y-120373000D01*
X38023750Y-120373000D01*
X37865000Y-120531750D01*
X37861928Y-121500000D01*
X33341384Y-121500000D01*
X33394933Y-121399290D01*
X33602067Y-120713229D01*
X33672000Y-120000000D01*
X33670568Y-119897472D01*
X33580748Y-119186474D01*
X33354539Y-118506463D01*
X33350868Y-118500000D01*
X37861928Y-118500000D01*
X37865000Y-119468250D01*
X38023750Y-119627000D01*
X39627000Y-119627000D01*
X39627000Y-118023750D01*
X40373000Y-118023750D01*
X40373000Y-119627000D01*
X41976250Y-119627000D01*
X42135000Y-119468250D01*
X42138072Y-118500000D01*
X42125812Y-118375518D01*
X42089502Y-118255820D01*
X42030537Y-118145506D01*
X41951185Y-118048815D01*
X41854494Y-117969463D01*
X41744180Y-117910498D01*
X41624482Y-117874188D01*
X41500000Y-117861928D01*
X40531750Y-117865000D01*
X40373000Y-118023750D01*
X39627000Y-118023750D01*
X39468250Y-117865000D01*
X38500000Y-117861928D01*
X38375518Y-117874188D01*
X38255820Y-117910498D01*
X38145506Y-117969463D01*
X38048815Y-118048815D01*
X37969463Y-118145506D01*
X37910498Y-118255820D01*
X37874188Y-118375518D01*
X37861928Y-118500000D01*
X33350868Y-118500000D01*
X33000556Y-117883341D01*
X32532283Y-117340841D01*
X31967556Y-116899628D01*
X31327885Y-116576507D01*
X30637636Y-116383786D01*
X29923099Y-116328805D01*
X29211492Y-116413659D01*
X28529918Y-116635116D01*
X27904340Y-116984740D01*
X27358584Y-117449214D01*
X27127000Y-117741400D01*
X27127000Y-112437537D01*
X41158546Y-112437537D01*
X41193566Y-112718030D01*
X41253906Y-112916941D01*
X41468074Y-113004424D01*
X42072498Y-112400000D01*
X41468074Y-111795576D01*
X41253906Y-111883059D01*
X41178920Y-112155602D01*
X41158546Y-112437537D01*
X27127000Y-112437537D01*
X27127000Y-107517537D01*
X40848546Y-107517537D01*
X40883566Y-107798030D01*
X40943906Y-107996941D01*
X41158074Y-108084424D01*
X41762498Y-107480000D01*
X41158074Y-106875576D01*
X40943906Y-106963059D01*
X40868920Y-107235602D01*
X40848546Y-107517537D01*
X27127000Y-107517537D01*
X27127000Y-97527925D01*
X29288120Y-99689046D01*
G36*
X85012315Y-70032777D02*
G01*
X85083001Y-70138566D01*
X85083000Y-71126469D01*
X85002315Y-71247223D01*
X84857053Y-71597915D01*
X84828720Y-71740354D01*
X83906050Y-72663025D01*
X83843972Y-72713971D01*
X83793025Y-72776050D01*
X83793022Y-72776053D01*
X83764823Y-72810414D01*
X83640654Y-72961714D01*
X83489575Y-73244362D01*
X83396542Y-73551052D01*
X83384826Y-73670009D01*
X83224351Y-73545490D01*
X83045175Y-73449735D01*
X82833000Y-73539473D01*
X82833000Y-74387000D01*
X82853000Y-74387000D01*
X82853000Y-75133000D01*
X82833000Y-75133000D01*
X82833000Y-75980527D01*
X83045175Y-76070265D01*
X83224351Y-75974510D01*
X83395125Y-75842000D01*
X83630813Y-76129187D01*
X83924237Y-76369994D01*
X84259001Y-76548929D01*
X84622242Y-76659117D01*
X84905342Y-76687000D01*
X85094658Y-76687000D01*
X85377758Y-76659117D01*
X85740999Y-76548929D01*
X86075763Y-76369994D01*
X86270000Y-76210588D01*
X86464237Y-76369994D01*
X86799001Y-76548929D01*
X87162242Y-76659117D01*
X87445342Y-76687000D01*
X87634658Y-76687000D01*
X87917758Y-76659117D01*
X88280999Y-76548929D01*
X88615763Y-76369994D01*
X88810000Y-76210588D01*
X89004237Y-76369994D01*
X89339001Y-76548929D01*
X89702242Y-76659117D01*
X89985342Y-76687000D01*
X90174658Y-76687000D01*
X90457758Y-76659117D01*
X90820999Y-76548929D01*
X91155763Y-76369994D01*
X91350000Y-76210588D01*
X91544237Y-76369994D01*
X91879001Y-76548929D01*
X92242242Y-76659117D01*
X92525342Y-76687000D01*
X92714658Y-76687000D01*
X92997758Y-76659117D01*
X93360999Y-76548929D01*
X93695763Y-76369994D01*
X93890000Y-76210588D01*
X94084237Y-76369994D01*
X94419001Y-76548929D01*
X94782242Y-76659117D01*
X95065342Y-76687000D01*
X95254658Y-76687000D01*
X95537758Y-76659117D01*
X95900999Y-76548929D01*
X96235763Y-76369994D01*
X96430000Y-76210588D01*
X96624237Y-76369994D01*
X96959001Y-76548929D01*
X97322242Y-76659117D01*
X97605342Y-76687000D01*
X97794658Y-76687000D01*
X98077758Y-76659117D01*
X98440999Y-76548929D01*
X98775763Y-76369994D01*
X98970000Y-76210588D01*
X99164237Y-76369994D01*
X99499001Y-76548929D01*
X99860489Y-76658585D01*
X91526050Y-84993025D01*
X91463972Y-85043971D01*
X91413026Y-85106049D01*
X91413022Y-85106053D01*
X91260654Y-85291715D01*
X91216700Y-85373947D01*
X91109576Y-85574362D01*
X91016543Y-85881052D01*
X90993397Y-86116053D01*
X90985129Y-86200000D01*
X90993001Y-86279924D01*
X90993000Y-88303008D01*
X90820999Y-88211071D01*
X90457758Y-88100883D01*
X90174658Y-88073000D01*
X89985342Y-88073000D01*
X89702242Y-88100883D01*
X89339001Y-88211071D01*
X89004237Y-88390006D01*
X88810000Y-88549412D01*
X88615763Y-88390006D01*
X88280999Y-88211071D01*
X87917758Y-88100883D01*
X87634658Y-88073000D01*
X87445342Y-88073000D01*
X87162242Y-88100883D01*
X86799001Y-88211071D01*
X86464237Y-88390006D01*
X86170813Y-88630813D01*
X85935125Y-88918000D01*
X85764351Y-88785490D01*
X85585175Y-88689735D01*
X85373000Y-88779473D01*
X85373000Y-89627000D01*
X85393000Y-89627000D01*
X85393000Y-90373000D01*
X85373000Y-90373000D01*
X85373000Y-91220527D01*
X85585175Y-91310265D01*
X85764351Y-91214510D01*
X85913000Y-91099167D01*
X85913001Y-92375261D01*
X85735824Y-92410504D01*
X85321436Y-92582149D01*
X84948497Y-92831339D01*
X84631339Y-93148497D01*
X84382149Y-93521436D01*
X84210504Y-93935824D01*
X84123000Y-94375735D01*
X84123000Y-94824265D01*
X84210504Y-95264176D01*
X84382149Y-95678564D01*
X84631339Y-96051503D01*
X84773000Y-96193164D01*
X84773001Y-98236604D01*
X84652315Y-98417223D01*
X84507053Y-98767915D01*
X84433000Y-99140207D01*
X84433000Y-99519793D01*
X84507053Y-99892085D01*
X84652315Y-100242777D01*
X84863201Y-100558391D01*
X85131609Y-100826799D01*
X85247451Y-100904202D01*
X85077074Y-101074579D01*
X85228072Y-101225577D01*
X85013906Y-101313059D01*
X84938920Y-101585602D01*
X84918546Y-101867537D01*
X84953566Y-102148030D01*
X85013906Y-102346941D01*
X85228074Y-102434424D01*
X85832498Y-101830000D01*
X85818356Y-101815858D01*
X86345858Y-101288356D01*
X86360000Y-101302498D01*
X86374142Y-101288356D01*
X86901644Y-101815858D01*
X86887502Y-101830000D01*
X87491926Y-102434424D01*
X87706094Y-102346941D01*
X87781080Y-102074398D01*
X87801454Y-101792463D01*
X87766434Y-101511970D01*
X87706094Y-101313059D01*
X87491928Y-101225577D01*
X87642926Y-101074579D01*
X87472549Y-100904202D01*
X87588391Y-100826799D01*
X87856799Y-100558391D01*
X88067685Y-100242777D01*
X88212947Y-99892085D01*
X88287000Y-99519793D01*
X88287000Y-99140207D01*
X88212947Y-98767915D01*
X88067685Y-98417223D01*
X88027000Y-98356333D01*
X88027000Y-96193164D01*
X88168661Y-96051503D01*
X88417851Y-95678564D01*
X88589496Y-95264176D01*
X88677000Y-94824265D01*
X88677000Y-94631646D01*
X88696029Y-94616029D01*
X88842827Y-94437154D01*
X88873022Y-94473947D01*
X88873026Y-94473951D01*
X88923972Y-94536029D01*
X88986050Y-94586975D01*
X89023000Y-94623925D01*
X89023000Y-94824265D01*
X89110504Y-95264176D01*
X89282149Y-95678564D01*
X89531339Y-96051503D01*
X89673000Y-96193164D01*
X89673001Y-98236604D01*
X89552315Y-98417223D01*
X89407053Y-98767915D01*
X89333000Y-99140207D01*
X89333000Y-99519793D01*
X89407053Y-99892085D01*
X89552315Y-100242777D01*
X89763201Y-100558391D01*
X90031609Y-100826799D01*
X90147451Y-100904202D01*
X89977074Y-101074579D01*
X90128072Y-101225577D01*
X89913906Y-101313059D01*
X89838920Y-101585602D01*
X89818546Y-101867537D01*
X89853566Y-102148030D01*
X89913906Y-102346941D01*
X90128074Y-102434424D01*
X90732498Y-101830000D01*
X90718356Y-101815858D01*
X91245858Y-101288356D01*
X91260000Y-101302498D01*
X91274142Y-101288356D01*
X91801644Y-101815858D01*
X91787502Y-101830000D01*
X92391926Y-102434424D01*
X92606094Y-102346941D01*
X92681080Y-102074398D01*
X92701454Y-101792463D01*
X92666434Y-101511970D01*
X92606094Y-101313059D01*
X92391928Y-101225577D01*
X92542926Y-101074579D01*
X92372549Y-100904202D01*
X92488391Y-100826799D01*
X92756799Y-100558391D01*
X92967685Y-100242777D01*
X93112947Y-99892085D01*
X93187000Y-99519793D01*
X93187000Y-99140207D01*
X93112947Y-98767915D01*
X92967685Y-98417223D01*
X92927000Y-98356333D01*
X92927000Y-96193164D01*
X93068661Y-96051503D01*
X93317851Y-95678564D01*
X93467393Y-95317537D01*
X123478546Y-95317537D01*
X123513566Y-95598030D01*
X123573906Y-95796941D01*
X123788074Y-95884424D01*
X124392498Y-95280000D01*
X123788074Y-94675576D01*
X123573906Y-94763059D01*
X123498920Y-95035602D01*
X123478546Y-95317537D01*
X93467393Y-95317537D01*
X93489496Y-95264176D01*
X93577000Y-94824265D01*
X93577000Y-94375735D01*
X93489496Y-93935824D01*
X93317851Y-93521436D01*
X93068661Y-93148497D01*
X92751503Y-92831339D01*
X92378564Y-92582149D01*
X91964176Y-92410504D01*
X91707000Y-92359348D01*
X91707000Y-91696993D01*
X91879001Y-91788929D01*
X92242242Y-91899117D01*
X92525342Y-91927000D01*
X92714658Y-91927000D01*
X92997758Y-91899117D01*
X93360999Y-91788929D01*
X93695763Y-91609994D01*
X93890000Y-91450588D01*
X94084237Y-91609994D01*
X94419001Y-91788929D01*
X94782242Y-91899117D01*
X95065342Y-91927000D01*
X95254658Y-91927000D01*
X95537758Y-91899117D01*
X95900999Y-91788929D01*
X96235763Y-91609994D01*
X96430000Y-91450588D01*
X96624237Y-91609994D01*
X96959001Y-91788929D01*
X97322242Y-91899117D01*
X97605342Y-91927000D01*
X97794658Y-91927000D01*
X98077758Y-91899117D01*
X98440999Y-91788929D01*
X98775763Y-91609994D01*
X98970000Y-91450588D01*
X99164237Y-91609994D01*
X99499001Y-91788929D01*
X99862242Y-91899117D01*
X100145342Y-91927000D01*
X100334658Y-91927000D01*
X100617758Y-91899117D01*
X100980999Y-91788929D01*
X101315763Y-91609994D01*
X101510000Y-91450588D01*
X101704237Y-91609994D01*
X102039001Y-91788929D01*
X102402242Y-91899117D01*
X102685342Y-91927000D01*
X102874658Y-91927000D01*
X103157758Y-91899117D01*
X103520999Y-91788929D01*
X103855763Y-91609994D01*
X104050000Y-91450588D01*
X104244237Y-91609994D01*
X104579001Y-91788929D01*
X104942242Y-91899117D01*
X105225342Y-91927000D01*
X105414658Y-91927000D01*
X105697758Y-91899117D01*
X106060999Y-91788929D01*
X106395763Y-91609994D01*
X106590000Y-91450588D01*
X106784237Y-91609994D01*
X107119001Y-91788929D01*
X107482242Y-91899117D01*
X107765342Y-91927000D01*
X107954658Y-91927000D01*
X108237758Y-91899117D01*
X108283718Y-91885175D01*
X120469735Y-91885175D01*
X120484936Y-91926764D01*
X120632096Y-92167375D01*
X120823369Y-92374654D01*
X121051405Y-92540634D01*
X121307440Y-92658937D01*
X121581636Y-92725017D01*
X121807000Y-92579754D01*
X121807000Y-91673000D01*
X122553000Y-91673000D01*
X122553000Y-92579754D01*
X122778364Y-92725017D01*
X123052560Y-92658937D01*
X123308595Y-92540634D01*
X123536631Y-92374654D01*
X123727904Y-92167375D01*
X123875064Y-91926764D01*
X123890265Y-91885175D01*
X123800527Y-91673000D01*
X122553000Y-91673000D01*
X121807000Y-91673000D01*
X120559473Y-91673000D01*
X120469735Y-91885175D01*
X108283718Y-91885175D01*
X108600999Y-91788929D01*
X108903947Y-91627000D01*
X117170086Y-91627000D01*
X117250000Y-91634871D01*
X117329914Y-91627000D01*
X117329925Y-91627000D01*
X117568948Y-91603458D01*
X117875638Y-91510425D01*
X118158286Y-91359346D01*
X118406029Y-91156029D01*
X118456979Y-91093946D01*
X119163926Y-90387000D01*
X120674198Y-90387000D01*
X120632096Y-90432625D01*
X120484936Y-90673236D01*
X120469735Y-90714825D01*
X120559473Y-90927000D01*
X121807000Y-90927000D01*
X121807000Y-90907000D01*
X122553000Y-90907000D01*
X122553000Y-90927000D01*
X123800527Y-90927000D01*
X123890265Y-90714825D01*
X123875064Y-90673236D01*
X123727904Y-90432625D01*
X123663927Y-90363294D01*
X123949187Y-90129187D01*
X124189994Y-89835763D01*
X124368929Y-89500999D01*
X124479117Y-89137758D01*
X124516323Y-88760000D01*
X124479117Y-88382242D01*
X124368929Y-88019001D01*
X124189994Y-87684237D01*
X124030588Y-87490000D01*
X124189994Y-87295763D01*
X124368929Y-86960999D01*
X124479117Y-86597758D01*
X124516323Y-86220000D01*
X124479117Y-85842242D01*
X124368929Y-85479001D01*
X124189994Y-85144237D01*
X124030588Y-84950000D01*
X124189994Y-84755763D01*
X124368929Y-84420999D01*
X124479117Y-84057758D01*
X124516323Y-83680000D01*
X124479117Y-83302242D01*
X124368929Y-82939001D01*
X124189994Y-82604237D01*
X124030588Y-82410000D01*
X124189994Y-82215763D01*
X124368929Y-81880999D01*
X124479117Y-81517758D01*
X124516323Y-81140000D01*
X124479117Y-80762242D01*
X124368929Y-80399001D01*
X124189994Y-80064237D01*
X124030588Y-79870000D01*
X124189994Y-79675763D01*
X124368929Y-79340999D01*
X124479117Y-78977758D01*
X124516323Y-78600000D01*
X124479117Y-78222242D01*
X124368929Y-77859001D01*
X124189994Y-77524237D01*
X124030588Y-77330000D01*
X124189994Y-77135763D01*
X124368929Y-76800999D01*
X124479117Y-76437758D01*
X124516323Y-76060000D01*
X124479117Y-75682242D01*
X124368929Y-75319001D01*
X124230547Y-75060106D01*
X124248951Y-75037681D01*
X124270654Y-75078285D01*
X124423022Y-75263947D01*
X124423026Y-75263951D01*
X124473972Y-75326029D01*
X124536050Y-75376975D01*
X126313020Y-77153945D01*
X126363971Y-77216029D01*
X126611714Y-77419346D01*
X126894362Y-77570425D01*
X127091003Y-77630075D01*
X127201052Y-77663458D01*
X127520000Y-77694872D01*
X127599925Y-77687000D01*
X127703007Y-77687000D01*
X127611071Y-77859001D01*
X127500883Y-78222242D01*
X127463677Y-78600000D01*
X127500883Y-78977758D01*
X127611071Y-79340999D01*
X127790006Y-79675763D01*
X127949412Y-79870000D01*
X127790006Y-80064237D01*
X127611071Y-80399001D01*
X127500883Y-80762242D01*
X127463677Y-81140000D01*
X127500883Y-81517758D01*
X127611071Y-81880999D01*
X127790006Y-82215763D01*
X127949412Y-82410000D01*
X127790006Y-82604237D01*
X127611071Y-82939001D01*
X127500883Y-83302242D01*
X127463677Y-83680000D01*
X127500883Y-84057758D01*
X127611071Y-84420999D01*
X127790006Y-84755763D01*
X127949412Y-84950000D01*
X127790006Y-85144237D01*
X127611071Y-85479001D01*
X127500883Y-85842242D01*
X127463677Y-86220000D01*
X127500883Y-86597758D01*
X127611071Y-86960999D01*
X127790006Y-87295763D01*
X127949412Y-87490000D01*
X127790006Y-87684237D01*
X127611071Y-88019001D01*
X127500883Y-88382242D01*
X127463677Y-88760000D01*
X127500883Y-89137758D01*
X127611071Y-89500999D01*
X127790006Y-89835763D01*
X127949412Y-90030000D01*
X127790006Y-90224237D01*
X127611071Y-90559001D01*
X127500883Y-90922242D01*
X127463677Y-91300000D01*
X127466851Y-91332224D01*
X126326050Y-92473025D01*
X126263972Y-92523971D01*
X126213026Y-92586049D01*
X126213022Y-92586053D01*
X126060654Y-92771715D01*
X125935136Y-93006542D01*
X125909576Y-93054362D01*
X125816543Y-93361052D01*
X125793000Y-93600075D01*
X125793000Y-93600086D01*
X125785129Y-93680000D01*
X125793000Y-93759914D01*
X125793000Y-94114653D01*
X125675421Y-93997074D01*
X125524423Y-94148072D01*
X125436941Y-93933906D01*
X125164398Y-93858920D01*
X124882463Y-93838546D01*
X124601970Y-93873566D01*
X124403059Y-93933906D01*
X124315576Y-94148074D01*
X124920000Y-94752498D01*
X124934142Y-94738356D01*
X125461644Y-95265858D01*
X125447502Y-95280000D01*
X125461644Y-95294142D01*
X124934142Y-95821644D01*
X124920000Y-95807502D01*
X124315576Y-96411926D01*
X124403059Y-96626094D01*
X124675602Y-96701080D01*
X124957537Y-96721454D01*
X125238030Y-96686434D01*
X125436941Y-96626094D01*
X125524423Y-96411928D01*
X125675421Y-96562926D01*
X125793001Y-96445346D01*
X125793000Y-97826074D01*
X104426050Y-119193025D01*
X104363972Y-119243971D01*
X104313026Y-119306049D01*
X104313022Y-119306053D01*
X104160654Y-119491715D01*
X104088343Y-119627000D01*
X104009576Y-119774362D01*
X103916543Y-120081052D01*
X103893001Y-120320075D01*
X103885129Y-120400000D01*
X103893001Y-120479924D01*
X103893001Y-120943000D01*
X61880902Y-120943000D01*
X61862160Y-120897752D01*
X61607499Y-120516624D01*
X61283376Y-120192501D01*
X60902248Y-119937840D01*
X60635297Y-119827265D01*
X59608032Y-118800000D01*
X63761928Y-118800000D01*
X63774188Y-118924482D01*
X63810498Y-119044180D01*
X63869463Y-119154494D01*
X63948815Y-119251185D01*
X64045506Y-119330537D01*
X64155820Y-119389502D01*
X64275518Y-119425812D01*
X64400000Y-119438072D01*
X64768250Y-119435000D01*
X64927000Y-119276250D01*
X64927000Y-118273000D01*
X63923750Y-118273000D01*
X63765000Y-118431750D01*
X63761928Y-118800000D01*
X59608032Y-118800000D01*
X57808032Y-117000000D01*
X63761928Y-117000000D01*
X63765000Y-117368250D01*
X63923750Y-117527000D01*
X64927000Y-117527000D01*
X64927000Y-116523750D01*
X64768250Y-116365000D01*
X64400000Y-116361928D01*
X64275518Y-116374188D01*
X64155820Y-116410498D01*
X64045506Y-116469463D01*
X63948815Y-116548815D01*
X63869463Y-116645506D01*
X63810498Y-116755820D01*
X63774188Y-116875518D01*
X63761928Y-117000000D01*
X57808032Y-117000000D01*
X55367905Y-114559874D01*
X55301293Y-114478707D01*
X55181019Y-114380000D01*
X57461741Y-114380000D01*
X57506670Y-114836172D01*
X57639730Y-115274813D01*
X57855809Y-115679067D01*
X58146601Y-116033399D01*
X58500933Y-116324191D01*
X58905187Y-116540270D01*
X59343828Y-116673330D01*
X59685685Y-116707000D01*
X59914315Y-116707000D01*
X60256172Y-116673330D01*
X60694813Y-116540270D01*
X61099067Y-116324191D01*
X61453399Y-116033399D01*
X61475064Y-116007000D01*
X66213000Y-116007000D01*
X66213000Y-116363208D01*
X66200000Y-116361928D01*
X65831750Y-116365000D01*
X65673000Y-116523750D01*
X65673000Y-117527000D01*
X65693000Y-117527000D01*
X65693000Y-118273000D01*
X65673000Y-118273000D01*
X65673000Y-119276250D01*
X65831750Y-119435000D01*
X66200000Y-119438072D01*
X66324482Y-119425812D01*
X66444180Y-119389502D01*
X66456373Y-119382984D01*
X66547863Y-119474474D01*
X66879855Y-119696304D01*
X67248746Y-119849104D01*
X67640358Y-119927000D01*
X68039642Y-119927000D01*
X68431254Y-119849104D01*
X68800145Y-119696304D01*
X69132137Y-119474474D01*
X69414474Y-119192137D01*
X69636304Y-118860145D01*
X69789104Y-118491254D01*
X69867000Y-118099642D01*
X69867000Y-117700358D01*
X69789104Y-117308746D01*
X69636304Y-116939855D01*
X69467000Y-116686474D01*
X69467000Y-115279914D01*
X69474871Y-115199999D01*
X69467000Y-115120085D01*
X69467000Y-115120075D01*
X69443458Y-114881052D01*
X69350425Y-114574362D01*
X69199346Y-114291714D01*
X68996029Y-114043971D01*
X68933947Y-113993022D01*
X68226980Y-113286055D01*
X68176029Y-113223971D01*
X67928286Y-113020654D01*
X67645638Y-112869575D01*
X67338948Y-112776542D01*
X67099925Y-112753000D01*
X67099914Y-112753000D01*
X67020000Y-112745129D01*
X66940086Y-112753000D01*
X61475064Y-112753000D01*
X61453399Y-112726601D01*
X61099067Y-112435809D01*
X60694813Y-112219730D01*
X60256172Y-112086670D01*
X59914315Y-112053000D01*
X59685685Y-112053000D01*
X59343828Y-112086670D01*
X58905187Y-112219730D01*
X58500933Y-112435809D01*
X58146601Y-112726601D01*
X57855809Y-113080933D01*
X57639730Y-113485187D01*
X57506670Y-113923828D01*
X57461741Y-114380000D01*
X55181019Y-114380000D01*
X54977415Y-114212907D01*
X54607906Y-114015401D01*
X54206965Y-113893776D01*
X53894487Y-113863000D01*
X53894485Y-113863000D01*
X53790000Y-113852709D01*
X53718600Y-113859741D01*
X53938925Y-113678925D01*
X54235966Y-113316980D01*
X54456687Y-112904040D01*
X54592607Y-112455973D01*
X54638501Y-111990000D01*
X54592607Y-111524027D01*
X54456687Y-111075960D01*
X54235966Y-110663020D01*
X53938925Y-110301075D01*
X53576980Y-110004034D01*
X53164040Y-109783313D01*
X52715973Y-109647393D01*
X52366772Y-109613000D01*
X51633228Y-109613000D01*
X51284027Y-109647393D01*
X50835960Y-109783313D01*
X50423020Y-110004034D01*
X50061075Y-110301075D01*
X49764034Y-110663020D01*
X49543313Y-111075960D01*
X49407393Y-111524027D01*
X49361499Y-111990000D01*
X49407393Y-112455973D01*
X49543313Y-112904040D01*
X49764034Y-113316980D01*
X50061075Y-113678925D01*
X50423020Y-113975966D01*
X50449276Y-113990000D01*
X50423020Y-114004034D01*
X50061075Y-114301075D01*
X50010254Y-114363000D01*
X48863926Y-114363000D01*
X46532453Y-112031528D01*
X46532453Y-111600000D01*
X46510693Y-111379069D01*
X46446250Y-111166629D01*
X46341600Y-110970843D01*
X46227000Y-110831202D01*
X46227000Y-108768190D01*
X46286799Y-108708391D01*
X46497685Y-108392777D01*
X46642947Y-108042085D01*
X46717000Y-107669793D01*
X46717000Y-107290207D01*
X46642947Y-106917915D01*
X46497685Y-106567223D01*
X46417000Y-106446469D01*
X46417000Y-106139914D01*
X46424871Y-106059999D01*
X46417000Y-105980085D01*
X46417000Y-105980075D01*
X46393458Y-105741052D01*
X46300425Y-105434362D01*
X46149346Y-105151714D01*
X45946029Y-104903971D01*
X45883945Y-104853020D01*
X41536980Y-100506055D01*
X41486029Y-100443971D01*
X41238286Y-100240654D01*
X41047899Y-100138890D01*
X40985966Y-100023021D01*
X40701994Y-99677000D01*
X47166075Y-99677000D01*
X51283000Y-103793925D01*
X51283000Y-103829491D01*
X51364739Y-104240423D01*
X51525077Y-104627512D01*
X51757851Y-104975884D01*
X52054116Y-105272149D01*
X52402488Y-105504923D01*
X52789577Y-105665261D01*
X53200509Y-105747000D01*
X53619491Y-105747000D01*
X54030423Y-105665261D01*
X54417512Y-105504923D01*
X54765884Y-105272149D01*
X55062149Y-104975884D01*
X55294923Y-104627512D01*
X55455261Y-104240423D01*
X55537000Y-103829491D01*
X55537000Y-103410509D01*
X55455261Y-102999577D01*
X55294923Y-102612488D01*
X55062149Y-102264116D01*
X54765884Y-101967851D01*
X54417512Y-101735077D01*
X54030423Y-101574739D01*
X53619491Y-101493000D01*
X53583925Y-101493000D01*
X51767925Y-99677000D01*
X57476075Y-99677000D01*
X60773025Y-102973951D01*
X60823971Y-103036029D01*
X60886049Y-103086975D01*
X60886052Y-103086978D01*
X61027984Y-103203458D01*
X61071714Y-103239346D01*
X61354362Y-103390425D01*
X61661052Y-103483458D01*
X61900075Y-103507000D01*
X61900083Y-103507000D01*
X61980000Y-103514871D01*
X62059917Y-103507000D01*
X76500086Y-103507000D01*
X76580000Y-103514871D01*
X76659914Y-103507000D01*
X76659925Y-103507000D01*
X76898948Y-103483458D01*
X77205638Y-103390425D01*
X77488286Y-103239346D01*
X77736029Y-103036029D01*
X77786979Y-102973946D01*
X77798999Y-102961926D01*
X85755576Y-102961926D01*
X85843059Y-103176094D01*
X86115602Y-103251080D01*
X86397537Y-103271454D01*
X86678030Y-103236434D01*
X86876941Y-103176094D01*
X86964424Y-102961926D01*
X90655576Y-102961926D01*
X90743059Y-103176094D01*
X91015602Y-103251080D01*
X91297537Y-103271454D01*
X91578030Y-103236434D01*
X91776941Y-103176094D01*
X91864424Y-102961926D01*
X91260000Y-102357502D01*
X90655576Y-102961926D01*
X86964424Y-102961926D01*
X86360000Y-102357502D01*
X85755576Y-102961926D01*
X77798999Y-102961926D01*
X81209646Y-99551280D01*
X81352085Y-99522947D01*
X81702777Y-99377685D01*
X82018391Y-99166799D01*
X82286799Y-98898391D01*
X82497685Y-98582777D01*
X82642947Y-98232085D01*
X82717000Y-97859793D01*
X82717000Y-97480207D01*
X82642947Y-97107915D01*
X82497685Y-96757223D01*
X82417000Y-96636469D01*
X82417000Y-95643531D01*
X82497685Y-95522777D01*
X82642947Y-95172085D01*
X82717000Y-94799793D01*
X82717000Y-94420207D01*
X82642947Y-94047915D01*
X82497685Y-93697223D01*
X82417000Y-93576469D01*
X82417000Y-92873925D01*
X83553947Y-91736978D01*
X83616029Y-91686029D01*
X83819346Y-91438286D01*
X83906886Y-91274510D01*
X84064875Y-91082000D01*
X84235649Y-91214510D01*
X84414825Y-91310265D01*
X84627000Y-91220527D01*
X84627000Y-90373000D01*
X84607000Y-90373000D01*
X84607000Y-89627000D01*
X84627000Y-89627000D01*
X84627000Y-88779473D01*
X84414825Y-88689735D01*
X84235649Y-88785490D01*
X84064875Y-88918000D01*
X83829187Y-88630813D01*
X83535763Y-88390006D01*
X83200999Y-88211071D01*
X82837758Y-88100883D01*
X82554658Y-88073000D01*
X82365342Y-88073000D01*
X82082242Y-88100883D01*
X81719001Y-88211071D01*
X81547000Y-88303007D01*
X81547000Y-87239925D01*
X81554872Y-87160000D01*
X81523458Y-86841052D01*
X81511203Y-86800654D01*
X81430425Y-86534362D01*
X81279346Y-86251714D01*
X81200210Y-86155286D01*
X81126978Y-86066052D01*
X81126975Y-86066049D01*
X81076029Y-86003971D01*
X81013952Y-85953026D01*
X76356977Y-81296052D01*
X76306029Y-81233971D01*
X76058286Y-81030654D01*
X75775638Y-80879575D01*
X75468948Y-80786542D01*
X75229925Y-80763000D01*
X75229914Y-80763000D01*
X75150000Y-80755129D01*
X75070086Y-80763000D01*
X74333499Y-80763000D01*
X74476029Y-80646029D01*
X74526980Y-80583945D01*
X75933947Y-79176978D01*
X75996029Y-79126029D01*
X76199346Y-78878286D01*
X76350425Y-78595638D01*
X76443458Y-78288948D01*
X76467000Y-78049925D01*
X76467000Y-78049924D01*
X76474872Y-77970000D01*
X76467000Y-77890075D01*
X76467000Y-76456993D01*
X76639001Y-76548929D01*
X77002242Y-76659117D01*
X77285342Y-76687000D01*
X77474658Y-76687000D01*
X77757758Y-76659117D01*
X78120999Y-76548929D01*
X78455763Y-76369994D01*
X78650000Y-76210588D01*
X78844237Y-76369994D01*
X79179001Y-76548929D01*
X79542242Y-76659117D01*
X79825342Y-76687000D01*
X80014658Y-76687000D01*
X80297758Y-76659117D01*
X80660999Y-76548929D01*
X80995763Y-76369994D01*
X81289187Y-76129187D01*
X81524875Y-75842000D01*
X81695649Y-75974510D01*
X81874825Y-76070265D01*
X82087000Y-75980527D01*
X82087000Y-75133000D01*
X82067000Y-75133000D01*
X82067000Y-74387000D01*
X82087000Y-74387000D01*
X82087000Y-73539473D01*
X81874825Y-73449735D01*
X81695649Y-73545490D01*
X81524875Y-73678000D01*
X81289187Y-73390813D01*
X80995763Y-73150006D01*
X80660999Y-72971071D01*
X80297758Y-72860883D01*
X80014658Y-72833000D01*
X79825342Y-72833000D01*
X79542242Y-72860883D01*
X79179001Y-72971071D01*
X78844237Y-73150006D01*
X78650000Y-73309412D01*
X78455763Y-73150006D01*
X78120999Y-72971071D01*
X77757758Y-72860883D01*
X77474658Y-72833000D01*
X77285342Y-72833000D01*
X77002242Y-72860883D01*
X76639001Y-72971071D01*
X76304237Y-73150006D01*
X76110000Y-73309412D01*
X75915763Y-73150006D01*
X75580999Y-72971071D01*
X75334599Y-72896326D01*
X77693926Y-70537000D01*
X83440086Y-70537000D01*
X83520000Y-70544871D01*
X83599914Y-70537000D01*
X83599925Y-70537000D01*
X83838948Y-70513458D01*
X84145638Y-70420425D01*
X84428286Y-70269346D01*
X84676029Y-70066029D01*
X84726979Y-70003946D01*
X84920297Y-69810628D01*
X85012315Y-70032777D01*
X85012315Y-70032777D01*
G37*
X85012315Y-70032777D02*
X85083001Y-70138566D01*
X85083000Y-71126469D01*
X85002315Y-71247223D01*
X84857053Y-71597915D01*
X84828720Y-71740354D01*
X83906050Y-72663025D01*
X83843972Y-72713971D01*
X83793025Y-72776050D01*
X83793022Y-72776053D01*
X83764823Y-72810414D01*
X83640654Y-72961714D01*
X83489575Y-73244362D01*
X83396542Y-73551052D01*
X83384826Y-73670009D01*
X83224351Y-73545490D01*
X83045175Y-73449735D01*
X82833000Y-73539473D01*
X82833000Y-74387000D01*
X82853000Y-74387000D01*
X82853000Y-75133000D01*
X82833000Y-75133000D01*
X82833000Y-75980527D01*
X83045175Y-76070265D01*
X83224351Y-75974510D01*
X83395125Y-75842000D01*
X83630813Y-76129187D01*
X83924237Y-76369994D01*
X84259001Y-76548929D01*
X84622242Y-76659117D01*
X84905342Y-76687000D01*
X85094658Y-76687000D01*
X85377758Y-76659117D01*
X85740999Y-76548929D01*
X86075763Y-76369994D01*
X86270000Y-76210588D01*
X86464237Y-76369994D01*
X86799001Y-76548929D01*
X87162242Y-76659117D01*
X87445342Y-76687000D01*
X87634658Y-76687000D01*
X87917758Y-76659117D01*
X88280999Y-76548929D01*
X88615763Y-76369994D01*
X88810000Y-76210588D01*
X89004237Y-76369994D01*
X89339001Y-76548929D01*
X89702242Y-76659117D01*
X89985342Y-76687000D01*
X90174658Y-76687000D01*
X90457758Y-76659117D01*
X90820999Y-76548929D01*
X91155763Y-76369994D01*
X91350000Y-76210588D01*
X91544237Y-76369994D01*
X91879001Y-76548929D01*
X92242242Y-76659117D01*
X92525342Y-76687000D01*
X92714658Y-76687000D01*
X92997758Y-76659117D01*
X93360999Y-76548929D01*
X93695763Y-76369994D01*
X93890000Y-76210588D01*
X94084237Y-76369994D01*
X94419001Y-76548929D01*
X94782242Y-76659117D01*
X95065342Y-76687000D01*
X95254658Y-76687000D01*
X95537758Y-76659117D01*
X95900999Y-76548929D01*
X96235763Y-76369994D01*
X96430000Y-76210588D01*
X96624237Y-76369994D01*
X96959001Y-76548929D01*
X97322242Y-76659117D01*
X97605342Y-76687000D01*
X97794658Y-76687000D01*
X98077758Y-76659117D01*
X98440999Y-76548929D01*
X98775763Y-76369994D01*
X98970000Y-76210588D01*
X99164237Y-76369994D01*
X99499001Y-76548929D01*
X99860489Y-76658585D01*
X91526050Y-84993025D01*
X91463972Y-85043971D01*
X91413026Y-85106049D01*
X91413022Y-85106053D01*
X91260654Y-85291715D01*
X91216700Y-85373947D01*
X91109576Y-85574362D01*
X91016543Y-85881052D01*
X90993397Y-86116053D01*
X90985129Y-86200000D01*
X90993001Y-86279924D01*
X90993000Y-88303008D01*
X90820999Y-88211071D01*
X90457758Y-88100883D01*
X90174658Y-88073000D01*
X89985342Y-88073000D01*
X89702242Y-88100883D01*
X89339001Y-88211071D01*
X89004237Y-88390006D01*
X88810000Y-88549412D01*
X88615763Y-88390006D01*
X88280999Y-88211071D01*
X87917758Y-88100883D01*
X87634658Y-88073000D01*
X87445342Y-88073000D01*
X87162242Y-88100883D01*
X86799001Y-88211071D01*
X86464237Y-88390006D01*
X86170813Y-88630813D01*
X85935125Y-88918000D01*
X85764351Y-88785490D01*
X85585175Y-88689735D01*
X85373000Y-88779473D01*
X85373000Y-89627000D01*
X85393000Y-89627000D01*
X85393000Y-90373000D01*
X85373000Y-90373000D01*
X85373000Y-91220527D01*
X85585175Y-91310265D01*
X85764351Y-91214510D01*
X85913000Y-91099167D01*
X85913001Y-92375261D01*
X85735824Y-92410504D01*
X85321436Y-92582149D01*
X84948497Y-92831339D01*
X84631339Y-93148497D01*
X84382149Y-93521436D01*
X84210504Y-93935824D01*
X84123000Y-94375735D01*
X84123000Y-94824265D01*
X84210504Y-95264176D01*
X84382149Y-95678564D01*
X84631339Y-96051503D01*
X84773000Y-96193164D01*
X84773001Y-98236604D01*
X84652315Y-98417223D01*
X84507053Y-98767915D01*
X84433000Y-99140207D01*
X84433000Y-99519793D01*
X84507053Y-99892085D01*
X84652315Y-100242777D01*
X84863201Y-100558391D01*
X85131609Y-100826799D01*
X85247451Y-100904202D01*
X85077074Y-101074579D01*
X85228072Y-101225577D01*
X85013906Y-101313059D01*
X84938920Y-101585602D01*
X84918546Y-101867537D01*
X84953566Y-102148030D01*
X85013906Y-102346941D01*
X85228074Y-102434424D01*
X85832498Y-101830000D01*
X85818356Y-101815858D01*
X86345858Y-101288356D01*
X86360000Y-101302498D01*
X86374142Y-101288356D01*
X86901644Y-101815858D01*
X86887502Y-101830000D01*
X87491926Y-102434424D01*
X87706094Y-102346941D01*
X87781080Y-102074398D01*
X87801454Y-101792463D01*
X87766434Y-101511970D01*
X87706094Y-101313059D01*
X87491928Y-101225577D01*
X87642926Y-101074579D01*
X87472549Y-100904202D01*
X87588391Y-100826799D01*
X87856799Y-100558391D01*
X88067685Y-100242777D01*
X88212947Y-99892085D01*
X88287000Y-99519793D01*
X88287000Y-99140207D01*
X88212947Y-98767915D01*
X88067685Y-98417223D01*
X88027000Y-98356333D01*
X88027000Y-96193164D01*
X88168661Y-96051503D01*
X88417851Y-95678564D01*
X88589496Y-95264176D01*
X88677000Y-94824265D01*
X88677000Y-94631646D01*
X88696029Y-94616029D01*
X88842827Y-94437154D01*
X88873022Y-94473947D01*
X88873026Y-94473951D01*
X88923972Y-94536029D01*
X88986050Y-94586975D01*
X89023000Y-94623925D01*
X89023000Y-94824265D01*
X89110504Y-95264176D01*
X89282149Y-95678564D01*
X89531339Y-96051503D01*
X89673000Y-96193164D01*
X89673001Y-98236604D01*
X89552315Y-98417223D01*
X89407053Y-98767915D01*
X89333000Y-99140207D01*
X89333000Y-99519793D01*
X89407053Y-99892085D01*
X89552315Y-100242777D01*
X89763201Y-100558391D01*
X90031609Y-100826799D01*
X90147451Y-100904202D01*
X89977074Y-101074579D01*
X90128072Y-101225577D01*
X89913906Y-101313059D01*
X89838920Y-101585602D01*
X89818546Y-101867537D01*
X89853566Y-102148030D01*
X89913906Y-102346941D01*
X90128074Y-102434424D01*
X90732498Y-101830000D01*
X90718356Y-101815858D01*
X91245858Y-101288356D01*
X91260000Y-101302498D01*
X91274142Y-101288356D01*
X91801644Y-101815858D01*
X91787502Y-101830000D01*
X92391926Y-102434424D01*
X92606094Y-102346941D01*
X92681080Y-102074398D01*
X92701454Y-101792463D01*
X92666434Y-101511970D01*
X92606094Y-101313059D01*
X92391928Y-101225577D01*
X92542926Y-101074579D01*
X92372549Y-100904202D01*
X92488391Y-100826799D01*
X92756799Y-100558391D01*
X92967685Y-100242777D01*
X93112947Y-99892085D01*
X93187000Y-99519793D01*
X93187000Y-99140207D01*
X93112947Y-98767915D01*
X92967685Y-98417223D01*
X92927000Y-98356333D01*
X92927000Y-96193164D01*
X93068661Y-96051503D01*
X93317851Y-95678564D01*
X93467393Y-95317537D01*
X123478546Y-95317537D01*
X123513566Y-95598030D01*
X123573906Y-95796941D01*
X123788074Y-95884424D01*
X124392498Y-95280000D01*
X123788074Y-94675576D01*
X123573906Y-94763059D01*
X123498920Y-95035602D01*
X123478546Y-95317537D01*
X93467393Y-95317537D01*
X93489496Y-95264176D01*
X93577000Y-94824265D01*
X93577000Y-94375735D01*
X93489496Y-93935824D01*
X93317851Y-93521436D01*
X93068661Y-93148497D01*
X92751503Y-92831339D01*
X92378564Y-92582149D01*
X91964176Y-92410504D01*
X91707000Y-92359348D01*
X91707000Y-91696993D01*
X91879001Y-91788929D01*
X92242242Y-91899117D01*
X92525342Y-91927000D01*
X92714658Y-91927000D01*
X92997758Y-91899117D01*
X93360999Y-91788929D01*
X93695763Y-91609994D01*
X93890000Y-91450588D01*
X94084237Y-91609994D01*
X94419001Y-91788929D01*
X94782242Y-91899117D01*
X95065342Y-91927000D01*
X95254658Y-91927000D01*
X95537758Y-91899117D01*
X95900999Y-91788929D01*
X96235763Y-91609994D01*
X96430000Y-91450588D01*
X96624237Y-91609994D01*
X96959001Y-91788929D01*
X97322242Y-91899117D01*
X97605342Y-91927000D01*
X97794658Y-91927000D01*
X98077758Y-91899117D01*
X98440999Y-91788929D01*
X98775763Y-91609994D01*
X98970000Y-91450588D01*
X99164237Y-91609994D01*
X99499001Y-91788929D01*
X99862242Y-91899117D01*
X100145342Y-91927000D01*
X100334658Y-91927000D01*
X100617758Y-91899117D01*
X100980999Y-91788929D01*
X101315763Y-91609994D01*
X101510000Y-91450588D01*
X101704237Y-91609994D01*
X102039001Y-91788929D01*
X102402242Y-91899117D01*
X102685342Y-91927000D01*
X102874658Y-91927000D01*
X103157758Y-91899117D01*
X103520999Y-91788929D01*
X103855763Y-91609994D01*
X104050000Y-91450588D01*
X104244237Y-91609994D01*
X104579001Y-91788929D01*
X104942242Y-91899117D01*
X105225342Y-91927000D01*
X105414658Y-91927000D01*
X105697758Y-91899117D01*
X106060999Y-91788929D01*
X106395763Y-91609994D01*
X106590000Y-91450588D01*
X106784237Y-91609994D01*
X107119001Y-91788929D01*
X107482242Y-91899117D01*
X107765342Y-91927000D01*
X107954658Y-91927000D01*
X108237758Y-91899117D01*
X108283718Y-91885175D01*
X120469735Y-91885175D01*
X120484936Y-91926764D01*
X120632096Y-92167375D01*
X120823369Y-92374654D01*
X121051405Y-92540634D01*
X121307440Y-92658937D01*
X121581636Y-92725017D01*
X121807000Y-92579754D01*
X121807000Y-91673000D01*
X122553000Y-91673000D01*
X122553000Y-92579754D01*
X122778364Y-92725017D01*
X123052560Y-92658937D01*
X123308595Y-92540634D01*
X123536631Y-92374654D01*
X123727904Y-92167375D01*
X123875064Y-91926764D01*
X123890265Y-91885175D01*
X123800527Y-91673000D01*
X122553000Y-91673000D01*
X121807000Y-91673000D01*
X120559473Y-91673000D01*
X120469735Y-91885175D01*
X108283718Y-91885175D01*
X108600999Y-91788929D01*
X108903947Y-91627000D01*
X117170086Y-91627000D01*
X117250000Y-91634871D01*
X117329914Y-91627000D01*
X117329925Y-91627000D01*
X117568948Y-91603458D01*
X117875638Y-91510425D01*
X118158286Y-91359346D01*
X118406029Y-91156029D01*
X118456979Y-91093946D01*
X119163926Y-90387000D01*
X120674198Y-90387000D01*
X120632096Y-90432625D01*
X120484936Y-90673236D01*
X120469735Y-90714825D01*
X120559473Y-90927000D01*
X121807000Y-90927000D01*
X121807000Y-90907000D01*
X122553000Y-90907000D01*
X122553000Y-90927000D01*
X123800527Y-90927000D01*
X123890265Y-90714825D01*
X123875064Y-90673236D01*
X123727904Y-90432625D01*
X123663927Y-90363294D01*
X123949187Y-90129187D01*
X124189994Y-89835763D01*
X124368929Y-89500999D01*
X124479117Y-89137758D01*
X124516323Y-88760000D01*
X124479117Y-88382242D01*
X124368929Y-88019001D01*
X124189994Y-87684237D01*
X124030588Y-87490000D01*
X124189994Y-87295763D01*
X124368929Y-86960999D01*
X124479117Y-86597758D01*
X124516323Y-86220000D01*
X124479117Y-85842242D01*
X124368929Y-85479001D01*
X124189994Y-85144237D01*
X124030588Y-84950000D01*
X124189994Y-84755763D01*
X124368929Y-84420999D01*
X124479117Y-84057758D01*
X124516323Y-83680000D01*
X124479117Y-83302242D01*
X124368929Y-82939001D01*
X124189994Y-82604237D01*
X124030588Y-82410000D01*
X124189994Y-82215763D01*
X124368929Y-81880999D01*
X124479117Y-81517758D01*
X124516323Y-81140000D01*
X124479117Y-80762242D01*
X124368929Y-80399001D01*
X124189994Y-80064237D01*
X124030588Y-79870000D01*
X124189994Y-79675763D01*
X124368929Y-79340999D01*
X124479117Y-78977758D01*
X124516323Y-78600000D01*
X124479117Y-78222242D01*
X124368929Y-77859001D01*
X124189994Y-77524237D01*
X124030588Y-77330000D01*
X124189994Y-77135763D01*
X124368929Y-76800999D01*
X124479117Y-76437758D01*
X124516323Y-76060000D01*
X124479117Y-75682242D01*
X124368929Y-75319001D01*
X124230547Y-75060106D01*
X124248951Y-75037681D01*
X124270654Y-75078285D01*
X124423022Y-75263947D01*
X124423026Y-75263951D01*
X124473972Y-75326029D01*
X124536050Y-75376975D01*
X126313020Y-77153945D01*
X126363971Y-77216029D01*
X126611714Y-77419346D01*
X126894362Y-77570425D01*
X127091003Y-77630075D01*
X127201052Y-77663458D01*
X127520000Y-77694872D01*
X127599925Y-77687000D01*
X127703007Y-77687000D01*
X127611071Y-77859001D01*
X127500883Y-78222242D01*
X127463677Y-78600000D01*
X127500883Y-78977758D01*
X127611071Y-79340999D01*
X127790006Y-79675763D01*
X127949412Y-79870000D01*
X127790006Y-80064237D01*
X127611071Y-80399001D01*
X127500883Y-80762242D01*
X127463677Y-81140000D01*
X127500883Y-81517758D01*
X127611071Y-81880999D01*
X127790006Y-82215763D01*
X127949412Y-82410000D01*
X127790006Y-82604237D01*
X127611071Y-82939001D01*
X127500883Y-83302242D01*
X127463677Y-83680000D01*
X127500883Y-84057758D01*
X127611071Y-84420999D01*
X127790006Y-84755763D01*
X127949412Y-84950000D01*
X127790006Y-85144237D01*
X127611071Y-85479001D01*
X127500883Y-85842242D01*
X127463677Y-86220000D01*
X127500883Y-86597758D01*
X127611071Y-86960999D01*
X127790006Y-87295763D01*
X127949412Y-87490000D01*
X127790006Y-87684237D01*
X127611071Y-88019001D01*
X127500883Y-88382242D01*
X127463677Y-88760000D01*
X127500883Y-89137758D01*
X127611071Y-89500999D01*
X127790006Y-89835763D01*
X127949412Y-90030000D01*
X127790006Y-90224237D01*
X127611071Y-90559001D01*
X127500883Y-90922242D01*
X127463677Y-91300000D01*
X127466851Y-91332224D01*
X126326050Y-92473025D01*
X126263972Y-92523971D01*
X126213026Y-92586049D01*
X126213022Y-92586053D01*
X126060654Y-92771715D01*
X125935136Y-93006542D01*
X125909576Y-93054362D01*
X125816543Y-93361052D01*
X125793000Y-93600075D01*
X125793000Y-93600086D01*
X125785129Y-93680000D01*
X125793000Y-93759914D01*
X125793000Y-94114653D01*
X125675421Y-93997074D01*
X125524423Y-94148072D01*
X125436941Y-93933906D01*
X125164398Y-93858920D01*
X124882463Y-93838546D01*
X124601970Y-93873566D01*
X124403059Y-93933906D01*
X124315576Y-94148074D01*
X124920000Y-94752498D01*
X124934142Y-94738356D01*
X125461644Y-95265858D01*
X125447502Y-95280000D01*
X125461644Y-95294142D01*
X124934142Y-95821644D01*
X124920000Y-95807502D01*
X124315576Y-96411926D01*
X124403059Y-96626094D01*
X124675602Y-96701080D01*
X124957537Y-96721454D01*
X125238030Y-96686434D01*
X125436941Y-96626094D01*
X125524423Y-96411928D01*
X125675421Y-96562926D01*
X125793001Y-96445346D01*
X125793000Y-97826074D01*
X104426050Y-119193025D01*
X104363972Y-119243971D01*
X104313026Y-119306049D01*
X104313022Y-119306053D01*
X104160654Y-119491715D01*
X104088343Y-119627000D01*
X104009576Y-119774362D01*
X103916543Y-120081052D01*
X103893001Y-120320075D01*
X103885129Y-120400000D01*
X103893001Y-120479924D01*
X103893001Y-120943000D01*
X61880902Y-120943000D01*
X61862160Y-120897752D01*
X61607499Y-120516624D01*
X61283376Y-120192501D01*
X60902248Y-119937840D01*
X60635297Y-119827265D01*
X59608032Y-118800000D01*
X63761928Y-118800000D01*
X63774188Y-118924482D01*
X63810498Y-119044180D01*
X63869463Y-119154494D01*
X63948815Y-119251185D01*
X64045506Y-119330537D01*
X64155820Y-119389502D01*
X64275518Y-119425812D01*
X64400000Y-119438072D01*
X64768250Y-119435000D01*
X64927000Y-119276250D01*
X64927000Y-118273000D01*
X63923750Y-118273000D01*
X63765000Y-118431750D01*
X63761928Y-118800000D01*
X59608032Y-118800000D01*
X57808032Y-117000000D01*
X63761928Y-117000000D01*
X63765000Y-117368250D01*
X63923750Y-117527000D01*
X64927000Y-117527000D01*
X64927000Y-116523750D01*
X64768250Y-116365000D01*
X64400000Y-116361928D01*
X64275518Y-116374188D01*
X64155820Y-116410498D01*
X64045506Y-116469463D01*
X63948815Y-116548815D01*
X63869463Y-116645506D01*
X63810498Y-116755820D01*
X63774188Y-116875518D01*
X63761928Y-117000000D01*
X57808032Y-117000000D01*
X55367905Y-114559874D01*
X55301293Y-114478707D01*
X55181019Y-114380000D01*
X57461741Y-114380000D01*
X57506670Y-114836172D01*
X57639730Y-115274813D01*
X57855809Y-115679067D01*
X58146601Y-116033399D01*
X58500933Y-116324191D01*
X58905187Y-116540270D01*
X59343828Y-116673330D01*
X59685685Y-116707000D01*
X59914315Y-116707000D01*
X60256172Y-116673330D01*
X60694813Y-116540270D01*
X61099067Y-116324191D01*
X61453399Y-116033399D01*
X61475064Y-116007000D01*
X66213000Y-116007000D01*
X66213000Y-116363208D01*
X66200000Y-116361928D01*
X65831750Y-116365000D01*
X65673000Y-116523750D01*
X65673000Y-117527000D01*
X65693000Y-117527000D01*
X65693000Y-118273000D01*
X65673000Y-118273000D01*
X65673000Y-119276250D01*
X65831750Y-119435000D01*
X66200000Y-119438072D01*
X66324482Y-119425812D01*
X66444180Y-119389502D01*
X66456373Y-119382984D01*
X66547863Y-119474474D01*
X66879855Y-119696304D01*
X67248746Y-119849104D01*
X67640358Y-119927000D01*
X68039642Y-119927000D01*
X68431254Y-119849104D01*
X68800145Y-119696304D01*
X69132137Y-119474474D01*
X69414474Y-119192137D01*
X69636304Y-118860145D01*
X69789104Y-118491254D01*
X69867000Y-118099642D01*
X69867000Y-117700358D01*
X69789104Y-117308746D01*
X69636304Y-116939855D01*
X69467000Y-116686474D01*
X69467000Y-115279914D01*
X69474871Y-115199999D01*
X69467000Y-115120085D01*
X69467000Y-115120075D01*
X69443458Y-114881052D01*
X69350425Y-114574362D01*
X69199346Y-114291714D01*
X68996029Y-114043971D01*
X68933947Y-113993022D01*
X68226980Y-113286055D01*
X68176029Y-113223971D01*
X67928286Y-113020654D01*
X67645638Y-112869575D01*
X67338948Y-112776542D01*
X67099925Y-112753000D01*
X67099914Y-112753000D01*
X67020000Y-112745129D01*
X66940086Y-112753000D01*
X61475064Y-112753000D01*
X61453399Y-112726601D01*
X61099067Y-112435809D01*
X60694813Y-112219730D01*
X60256172Y-112086670D01*
X59914315Y-112053000D01*
X59685685Y-112053000D01*
X59343828Y-112086670D01*
X58905187Y-112219730D01*
X58500933Y-112435809D01*
X58146601Y-112726601D01*
X57855809Y-113080933D01*
X57639730Y-113485187D01*
X57506670Y-113923828D01*
X57461741Y-114380000D01*
X55181019Y-114380000D01*
X54977415Y-114212907D01*
X54607906Y-114015401D01*
X54206965Y-113893776D01*
X53894487Y-113863000D01*
X53894485Y-113863000D01*
X53790000Y-113852709D01*
X53718600Y-113859741D01*
X53938925Y-113678925D01*
X54235966Y-113316980D01*
X54456687Y-112904040D01*
X54592607Y-112455973D01*
X54638501Y-111990000D01*
X54592607Y-111524027D01*
X54456687Y-111075960D01*
X54235966Y-110663020D01*
X53938925Y-110301075D01*
X53576980Y-110004034D01*
X53164040Y-109783313D01*
X52715973Y-109647393D01*
X52366772Y-109613000D01*
X51633228Y-109613000D01*
X51284027Y-109647393D01*
X50835960Y-109783313D01*
X50423020Y-110004034D01*
X50061075Y-110301075D01*
X49764034Y-110663020D01*
X49543313Y-111075960D01*
X49407393Y-111524027D01*
X49361499Y-111990000D01*
X49407393Y-112455973D01*
X49543313Y-112904040D01*
X49764034Y-113316980D01*
X50061075Y-113678925D01*
X50423020Y-113975966D01*
X50449276Y-113990000D01*
X50423020Y-114004034D01*
X50061075Y-114301075D01*
X50010254Y-114363000D01*
X48863926Y-114363000D01*
X46532453Y-112031528D01*
X46532453Y-111600000D01*
X46510693Y-111379069D01*
X46446250Y-111166629D01*
X46341600Y-110970843D01*
X46227000Y-110831202D01*
X46227000Y-108768190D01*
X46286799Y-108708391D01*
X46497685Y-108392777D01*
X46642947Y-108042085D01*
X46717000Y-107669793D01*
X46717000Y-107290207D01*
X46642947Y-106917915D01*
X46497685Y-106567223D01*
X46417000Y-106446469D01*
X46417000Y-106139914D01*
X46424871Y-106059999D01*
X46417000Y-105980085D01*
X46417000Y-105980075D01*
X46393458Y-105741052D01*
X46300425Y-105434362D01*
X46149346Y-105151714D01*
X45946029Y-104903971D01*
X45883945Y-104853020D01*
X41536980Y-100506055D01*
X41486029Y-100443971D01*
X41238286Y-100240654D01*
X41047899Y-100138890D01*
X40985966Y-100023021D01*
X40701994Y-99677000D01*
X47166075Y-99677000D01*
X51283000Y-103793925D01*
X51283000Y-103829491D01*
X51364739Y-104240423D01*
X51525077Y-104627512D01*
X51757851Y-104975884D01*
X52054116Y-105272149D01*
X52402488Y-105504923D01*
X52789577Y-105665261D01*
X53200509Y-105747000D01*
X53619491Y-105747000D01*
X54030423Y-105665261D01*
X54417512Y-105504923D01*
X54765884Y-105272149D01*
X55062149Y-104975884D01*
X55294923Y-104627512D01*
X55455261Y-104240423D01*
X55537000Y-103829491D01*
X55537000Y-103410509D01*
X55455261Y-102999577D01*
X55294923Y-102612488D01*
X55062149Y-102264116D01*
X54765884Y-101967851D01*
X54417512Y-101735077D01*
X54030423Y-101574739D01*
X53619491Y-101493000D01*
X53583925Y-101493000D01*
X51767925Y-99677000D01*
X57476075Y-99677000D01*
X60773025Y-102973951D01*
X60823971Y-103036029D01*
X60886049Y-103086975D01*
X60886052Y-103086978D01*
X61027984Y-103203458D01*
X61071714Y-103239346D01*
X61354362Y-103390425D01*
X61661052Y-103483458D01*
X61900075Y-103507000D01*
X61900083Y-103507000D01*
X61980000Y-103514871D01*
X62059917Y-103507000D01*
X76500086Y-103507000D01*
X76580000Y-103514871D01*
X76659914Y-103507000D01*
X76659925Y-103507000D01*
X76898948Y-103483458D01*
X77205638Y-103390425D01*
X77488286Y-103239346D01*
X77736029Y-103036029D01*
X77786979Y-102973946D01*
X77798999Y-102961926D01*
X85755576Y-102961926D01*
X85843059Y-103176094D01*
X86115602Y-103251080D01*
X86397537Y-103271454D01*
X86678030Y-103236434D01*
X86876941Y-103176094D01*
X86964424Y-102961926D01*
X90655576Y-102961926D01*
X90743059Y-103176094D01*
X91015602Y-103251080D01*
X91297537Y-103271454D01*
X91578030Y-103236434D01*
X91776941Y-103176094D01*
X91864424Y-102961926D01*
X91260000Y-102357502D01*
X90655576Y-102961926D01*
X86964424Y-102961926D01*
X86360000Y-102357502D01*
X85755576Y-102961926D01*
X77798999Y-102961926D01*
X81209646Y-99551280D01*
X81352085Y-99522947D01*
X81702777Y-99377685D01*
X82018391Y-99166799D01*
X82286799Y-98898391D01*
X82497685Y-98582777D01*
X82642947Y-98232085D01*
X82717000Y-97859793D01*
X82717000Y-97480207D01*
X82642947Y-97107915D01*
X82497685Y-96757223D01*
X82417000Y-96636469D01*
X82417000Y-95643531D01*
X82497685Y-95522777D01*
X82642947Y-95172085D01*
X82717000Y-94799793D01*
X82717000Y-94420207D01*
X82642947Y-94047915D01*
X82497685Y-93697223D01*
X82417000Y-93576469D01*
X82417000Y-92873925D01*
X83553947Y-91736978D01*
X83616029Y-91686029D01*
X83819346Y-91438286D01*
X83906886Y-91274510D01*
X84064875Y-91082000D01*
X84235649Y-91214510D01*
X84414825Y-91310265D01*
X84627000Y-91220527D01*
X84627000Y-90373000D01*
X84607000Y-90373000D01*
X84607000Y-89627000D01*
X84627000Y-89627000D01*
X84627000Y-88779473D01*
X84414825Y-88689735D01*
X84235649Y-88785490D01*
X84064875Y-88918000D01*
X83829187Y-88630813D01*
X83535763Y-88390006D01*
X83200999Y-88211071D01*
X82837758Y-88100883D01*
X82554658Y-88073000D01*
X82365342Y-88073000D01*
X82082242Y-88100883D01*
X81719001Y-88211071D01*
X81547000Y-88303007D01*
X81547000Y-87239925D01*
X81554872Y-87160000D01*
X81523458Y-86841052D01*
X81511203Y-86800654D01*
X81430425Y-86534362D01*
X81279346Y-86251714D01*
X81200210Y-86155286D01*
X81126978Y-86066052D01*
X81126975Y-86066049D01*
X81076029Y-86003971D01*
X81013952Y-85953026D01*
X76356977Y-81296052D01*
X76306029Y-81233971D01*
X76058286Y-81030654D01*
X75775638Y-80879575D01*
X75468948Y-80786542D01*
X75229925Y-80763000D01*
X75229914Y-80763000D01*
X75150000Y-80755129D01*
X75070086Y-80763000D01*
X74333499Y-80763000D01*
X74476029Y-80646029D01*
X74526980Y-80583945D01*
X75933947Y-79176978D01*
X75996029Y-79126029D01*
X76199346Y-78878286D01*
X76350425Y-78595638D01*
X76443458Y-78288948D01*
X76467000Y-78049925D01*
X76467000Y-78049924D01*
X76474872Y-77970000D01*
X76467000Y-77890075D01*
X76467000Y-76456993D01*
X76639001Y-76548929D01*
X77002242Y-76659117D01*
X77285342Y-76687000D01*
X77474658Y-76687000D01*
X77757758Y-76659117D01*
X78120999Y-76548929D01*
X78455763Y-76369994D01*
X78650000Y-76210588D01*
X78844237Y-76369994D01*
X79179001Y-76548929D01*
X79542242Y-76659117D01*
X79825342Y-76687000D01*
X80014658Y-76687000D01*
X80297758Y-76659117D01*
X80660999Y-76548929D01*
X80995763Y-76369994D01*
X81289187Y-76129187D01*
X81524875Y-75842000D01*
X81695649Y-75974510D01*
X81874825Y-76070265D01*
X82087000Y-75980527D01*
X82087000Y-75133000D01*
X82067000Y-75133000D01*
X82067000Y-74387000D01*
X82087000Y-74387000D01*
X82087000Y-73539473D01*
X81874825Y-73449735D01*
X81695649Y-73545490D01*
X81524875Y-73678000D01*
X81289187Y-73390813D01*
X80995763Y-73150006D01*
X80660999Y-72971071D01*
X80297758Y-72860883D01*
X80014658Y-72833000D01*
X79825342Y-72833000D01*
X79542242Y-72860883D01*
X79179001Y-72971071D01*
X78844237Y-73150006D01*
X78650000Y-73309412D01*
X78455763Y-73150006D01*
X78120999Y-72971071D01*
X77757758Y-72860883D01*
X77474658Y-72833000D01*
X77285342Y-72833000D01*
X77002242Y-72860883D01*
X76639001Y-72971071D01*
X76304237Y-73150006D01*
X76110000Y-73309412D01*
X75915763Y-73150006D01*
X75580999Y-72971071D01*
X75334599Y-72896326D01*
X77693926Y-70537000D01*
X83440086Y-70537000D01*
X83520000Y-70544871D01*
X83599914Y-70537000D01*
X83599925Y-70537000D01*
X83838948Y-70513458D01*
X84145638Y-70420425D01*
X84428286Y-70269346D01*
X84676029Y-70066029D01*
X84726979Y-70003946D01*
X84920297Y-69810628D01*
X85012315Y-70032777D01*
G36*
X78844237Y-91609994D02*
G01*
X79179001Y-91788929D01*
X79211498Y-91798787D01*
X79186543Y-91881052D01*
X79181480Y-91932453D01*
X79155129Y-92200000D01*
X79163001Y-92279924D01*
X79163000Y-93444653D01*
X79045421Y-93327074D01*
X78894423Y-93478072D01*
X78806941Y-93263906D01*
X78534398Y-93188920D01*
X78252463Y-93168546D01*
X77971970Y-93203566D01*
X77773059Y-93263906D01*
X77685576Y-93478074D01*
X78290000Y-94082498D01*
X78304142Y-94068356D01*
X78831644Y-94595858D01*
X78817502Y-94610000D01*
X78831644Y-94624142D01*
X78304142Y-95151644D01*
X78290000Y-95137502D01*
X77685576Y-95741926D01*
X77773059Y-95956094D01*
X78045602Y-96031080D01*
X78327537Y-96051454D01*
X78608030Y-96016434D01*
X78806941Y-95956094D01*
X78894423Y-95741928D01*
X79045421Y-95892926D01*
X79163001Y-95775346D01*
X79163000Y-96504653D01*
X79045421Y-96387074D01*
X78894423Y-96538072D01*
X78806941Y-96323906D01*
X78534398Y-96248920D01*
X78252463Y-96228546D01*
X77971970Y-96263566D01*
X77773059Y-96323906D01*
X77685576Y-96538074D01*
X78290000Y-97142498D01*
X78304142Y-97128356D01*
X78667430Y-97491644D01*
X75906075Y-100253000D01*
X62653926Y-100253000D01*
X60108463Y-97707537D01*
X76848546Y-97707537D01*
X76883566Y-97988030D01*
X76943906Y-98186941D01*
X77158074Y-98274424D01*
X77762498Y-97670000D01*
X77158074Y-97065576D01*
X76943906Y-97153059D01*
X76868920Y-97425602D01*
X76848546Y-97707537D01*
X60108463Y-97707537D01*
X59356979Y-96956054D01*
X59306029Y-96893971D01*
X59114759Y-96737000D01*
X69340086Y-96737000D01*
X69420000Y-96744871D01*
X69499914Y-96737000D01*
X69499925Y-96737000D01*
X69738948Y-96713458D01*
X70045638Y-96620425D01*
X70328286Y-96469346D01*
X70576029Y-96266029D01*
X70626979Y-96203946D01*
X72183388Y-94647537D01*
X76848546Y-94647537D01*
X76883566Y-94928030D01*
X76943906Y-95126941D01*
X77158074Y-95214424D01*
X77762498Y-94610000D01*
X77158074Y-94005576D01*
X76943906Y-94093059D01*
X76868920Y-94365602D01*
X76848546Y-94647537D01*
X72183388Y-94647537D01*
X73393952Y-93436974D01*
X73456029Y-93386029D01*
X73506975Y-93323951D01*
X73506978Y-93323948D01*
X73659346Y-93138286D01*
X73675382Y-93108285D01*
X73810425Y-92855638D01*
X73903458Y-92548948D01*
X73927000Y-92309925D01*
X73927000Y-92309915D01*
X73934871Y-92230001D01*
X73927000Y-92150086D01*
X73927000Y-91696993D01*
X74099001Y-91788929D01*
X74462242Y-91899117D01*
X74745342Y-91927000D01*
X74934658Y-91927000D01*
X75217758Y-91899117D01*
X75580999Y-91788929D01*
X75915763Y-91609994D01*
X76110000Y-91450588D01*
X76304237Y-91609994D01*
X76639001Y-91788929D01*
X77002242Y-91899117D01*
X77285342Y-91927000D01*
X77474658Y-91927000D01*
X77757758Y-91899117D01*
X78120999Y-91788929D01*
X78455763Y-91609994D01*
X78650000Y-91450588D01*
X78844237Y-91609994D01*
X78844237Y-91609994D01*
G37*
X78844237Y-91609994D02*
X79179001Y-91788929D01*
X79211498Y-91798787D01*
X79186543Y-91881052D01*
X79181480Y-91932453D01*
X79155129Y-92200000D01*
X79163001Y-92279924D01*
X79163000Y-93444653D01*
X79045421Y-93327074D01*
X78894423Y-93478072D01*
X78806941Y-93263906D01*
X78534398Y-93188920D01*
X78252463Y-93168546D01*
X77971970Y-93203566D01*
X77773059Y-93263906D01*
X77685576Y-93478074D01*
X78290000Y-94082498D01*
X78304142Y-94068356D01*
X78831644Y-94595858D01*
X78817502Y-94610000D01*
X78831644Y-94624142D01*
X78304142Y-95151644D01*
X78290000Y-95137502D01*
X77685576Y-95741926D01*
X77773059Y-95956094D01*
X78045602Y-96031080D01*
X78327537Y-96051454D01*
X78608030Y-96016434D01*
X78806941Y-95956094D01*
X78894423Y-95741928D01*
X79045421Y-95892926D01*
X79163001Y-95775346D01*
X79163000Y-96504653D01*
X79045421Y-96387074D01*
X78894423Y-96538072D01*
X78806941Y-96323906D01*
X78534398Y-96248920D01*
X78252463Y-96228546D01*
X77971970Y-96263566D01*
X77773059Y-96323906D01*
X77685576Y-96538074D01*
X78290000Y-97142498D01*
X78304142Y-97128356D01*
X78667430Y-97491644D01*
X75906075Y-100253000D01*
X62653926Y-100253000D01*
X60108463Y-97707537D01*
X76848546Y-97707537D01*
X76883566Y-97988030D01*
X76943906Y-98186941D01*
X77158074Y-98274424D01*
X77762498Y-97670000D01*
X77158074Y-97065576D01*
X76943906Y-97153059D01*
X76868920Y-97425602D01*
X76848546Y-97707537D01*
X60108463Y-97707537D01*
X59356979Y-96956054D01*
X59306029Y-96893971D01*
X59114759Y-96737000D01*
X69340086Y-96737000D01*
X69420000Y-96744871D01*
X69499914Y-96737000D01*
X69499925Y-96737000D01*
X69738948Y-96713458D01*
X70045638Y-96620425D01*
X70328286Y-96469346D01*
X70576029Y-96266029D01*
X70626979Y-96203946D01*
X72183388Y-94647537D01*
X76848546Y-94647537D01*
X76883566Y-94928030D01*
X76943906Y-95126941D01*
X77158074Y-95214424D01*
X77762498Y-94610000D01*
X77158074Y-94005576D01*
X76943906Y-94093059D01*
X76868920Y-94365602D01*
X76848546Y-94647537D01*
X72183388Y-94647537D01*
X73393952Y-93436974D01*
X73456029Y-93386029D01*
X73506975Y-93323951D01*
X73506978Y-93323948D01*
X73659346Y-93138286D01*
X73675382Y-93108285D01*
X73810425Y-92855638D01*
X73903458Y-92548948D01*
X73927000Y-92309925D01*
X73927000Y-92309915D01*
X73934871Y-92230001D01*
X73927000Y-92150086D01*
X73927000Y-91696993D01*
X74099001Y-91788929D01*
X74462242Y-91899117D01*
X74745342Y-91927000D01*
X74934658Y-91927000D01*
X75217758Y-91899117D01*
X75580999Y-91788929D01*
X75915763Y-91609994D01*
X76110000Y-91450588D01*
X76304237Y-91609994D01*
X76639001Y-91788929D01*
X77002242Y-91899117D01*
X77285342Y-91927000D01*
X77474658Y-91927000D01*
X77757758Y-91899117D01*
X78120999Y-91788929D01*
X78455763Y-91609994D01*
X78650000Y-91450588D01*
X78844237Y-91609994D01*
G36*
X45943000Y-86460509D02*
G01*
X45943000Y-86879491D01*
X46024739Y-87290423D01*
X46185077Y-87677512D01*
X46417851Y-88025884D01*
X46714116Y-88322149D01*
X47062488Y-88554923D01*
X47449577Y-88715261D01*
X47860509Y-88797000D01*
X48279491Y-88797000D01*
X48690423Y-88715261D01*
X49077512Y-88554923D01*
X49425884Y-88322149D01*
X49701033Y-88047000D01*
X71956075Y-88047000D01*
X72002093Y-88093018D01*
X71922242Y-88100883D01*
X71559001Y-88211071D01*
X71224237Y-88390006D01*
X71030000Y-88549412D01*
X70835763Y-88390006D01*
X70500999Y-88211071D01*
X70137758Y-88100883D01*
X69854658Y-88073000D01*
X69665342Y-88073000D01*
X69382242Y-88100883D01*
X69019001Y-88211071D01*
X68684237Y-88390006D01*
X68490000Y-88549412D01*
X68295763Y-88390006D01*
X67960999Y-88211071D01*
X67597758Y-88100883D01*
X67314658Y-88073000D01*
X67125342Y-88073000D01*
X66842242Y-88100883D01*
X66479001Y-88211071D01*
X66144237Y-88390006D01*
X65950000Y-88549412D01*
X65755763Y-88390006D01*
X65420999Y-88211071D01*
X65057758Y-88100883D01*
X64774658Y-88073000D01*
X64585342Y-88073000D01*
X64302242Y-88100883D01*
X63939001Y-88211071D01*
X63604237Y-88390006D01*
X63410000Y-88549412D01*
X63215763Y-88390006D01*
X62880999Y-88211071D01*
X62517758Y-88100883D01*
X62234658Y-88073000D01*
X62045342Y-88073000D01*
X61762242Y-88100883D01*
X61399001Y-88211071D01*
X61140106Y-88349453D01*
X61029157Y-88258400D01*
X60833371Y-88153750D01*
X60620931Y-88089307D01*
X60400000Y-88067547D01*
X58800000Y-88067547D01*
X58579069Y-88089307D01*
X58366629Y-88153750D01*
X58170843Y-88258400D01*
X57999235Y-88399235D01*
X57858400Y-88570843D01*
X57753750Y-88766629D01*
X57689307Y-88979069D01*
X57667547Y-89200000D01*
X57667547Y-90800000D01*
X57689307Y-91020931D01*
X57753750Y-91233371D01*
X57858400Y-91429157D01*
X57999235Y-91600765D01*
X58170843Y-91741600D01*
X58366629Y-91846250D01*
X58579069Y-91910693D01*
X58800000Y-91932453D01*
X60400000Y-91932453D01*
X60620931Y-91910693D01*
X60833371Y-91846250D01*
X61029157Y-91741600D01*
X61140106Y-91650547D01*
X61399001Y-91788929D01*
X61762242Y-91899117D01*
X62045342Y-91927000D01*
X62234658Y-91927000D01*
X62517758Y-91899117D01*
X62880999Y-91788929D01*
X63215763Y-91609994D01*
X63410000Y-91450588D01*
X63604237Y-91609994D01*
X63939001Y-91788929D01*
X64302242Y-91899117D01*
X64585342Y-91927000D01*
X64774658Y-91927000D01*
X65057758Y-91899117D01*
X65420999Y-91788929D01*
X65755763Y-91609994D01*
X65950000Y-91450588D01*
X66144237Y-91609994D01*
X66479001Y-91788929D01*
X66842242Y-91899117D01*
X67125342Y-91927000D01*
X67314658Y-91927000D01*
X67597758Y-91899117D01*
X67960999Y-91788929D01*
X68295763Y-91609994D01*
X68490000Y-91450588D01*
X68684237Y-91609994D01*
X69019001Y-91788929D01*
X69382242Y-91899117D01*
X69665342Y-91927000D01*
X69854658Y-91927000D01*
X70137758Y-91899117D01*
X70413647Y-91815427D01*
X68746075Y-93483000D01*
X33123925Y-93483000D01*
X31027000Y-91386075D01*
X31027000Y-91087789D01*
X31060922Y-91130699D01*
X31282543Y-91319461D01*
X31536732Y-91461360D01*
X31757000Y-91378657D01*
X31757000Y-90473000D01*
X31737000Y-90473000D01*
X31737000Y-89727000D01*
X31757000Y-89727000D01*
X31757000Y-89707000D01*
X32503000Y-89707000D01*
X32503000Y-89727000D01*
X32523000Y-89727000D01*
X32523000Y-90473000D01*
X32503000Y-90473000D01*
X32503000Y-91378657D01*
X32723268Y-91461360D01*
X32977457Y-91319461D01*
X33057385Y-91251384D01*
X33265286Y-91504714D01*
X33566324Y-91751768D01*
X33909774Y-91935347D01*
X34282440Y-92048394D01*
X34572884Y-92077000D01*
X34767116Y-92077000D01*
X35057560Y-92048394D01*
X35430226Y-91935347D01*
X35773676Y-91751768D01*
X36074714Y-91504714D01*
X36321768Y-91203676D01*
X36505347Y-90860226D01*
X36618394Y-90487560D01*
X36656565Y-90100000D01*
X36618394Y-89712440D01*
X36505347Y-89339774D01*
X36423687Y-89187000D01*
X42160086Y-89187000D01*
X42240000Y-89194871D01*
X42319914Y-89187000D01*
X42319925Y-89187000D01*
X42558948Y-89163458D01*
X42865638Y-89070425D01*
X43148286Y-88919346D01*
X43396029Y-88716029D01*
X43446980Y-88653945D01*
X46018132Y-86082793D01*
X45943000Y-86460509D01*
X45943000Y-86460509D01*
G37*
X45943000Y-86460509D02*
X45943000Y-86879491D01*
X46024739Y-87290423D01*
X46185077Y-87677512D01*
X46417851Y-88025884D01*
X46714116Y-88322149D01*
X47062488Y-88554923D01*
X47449577Y-88715261D01*
X47860509Y-88797000D01*
X48279491Y-88797000D01*
X48690423Y-88715261D01*
X49077512Y-88554923D01*
X49425884Y-88322149D01*
X49701033Y-88047000D01*
X71956075Y-88047000D01*
X72002093Y-88093018D01*
X71922242Y-88100883D01*
X71559001Y-88211071D01*
X71224237Y-88390006D01*
X71030000Y-88549412D01*
X70835763Y-88390006D01*
X70500999Y-88211071D01*
X70137758Y-88100883D01*
X69854658Y-88073000D01*
X69665342Y-88073000D01*
X69382242Y-88100883D01*
X69019001Y-88211071D01*
X68684237Y-88390006D01*
X68490000Y-88549412D01*
X68295763Y-88390006D01*
X67960999Y-88211071D01*
X67597758Y-88100883D01*
X67314658Y-88073000D01*
X67125342Y-88073000D01*
X66842242Y-88100883D01*
X66479001Y-88211071D01*
X66144237Y-88390006D01*
X65950000Y-88549412D01*
X65755763Y-88390006D01*
X65420999Y-88211071D01*
X65057758Y-88100883D01*
X64774658Y-88073000D01*
X64585342Y-88073000D01*
X64302242Y-88100883D01*
X63939001Y-88211071D01*
X63604237Y-88390006D01*
X63410000Y-88549412D01*
X63215763Y-88390006D01*
X62880999Y-88211071D01*
X62517758Y-88100883D01*
X62234658Y-88073000D01*
X62045342Y-88073000D01*
X61762242Y-88100883D01*
X61399001Y-88211071D01*
X61140106Y-88349453D01*
X61029157Y-88258400D01*
X60833371Y-88153750D01*
X60620931Y-88089307D01*
X60400000Y-88067547D01*
X58800000Y-88067547D01*
X58579069Y-88089307D01*
X58366629Y-88153750D01*
X58170843Y-88258400D01*
X57999235Y-88399235D01*
X57858400Y-88570843D01*
X57753750Y-88766629D01*
X57689307Y-88979069D01*
X57667547Y-89200000D01*
X57667547Y-90800000D01*
X57689307Y-91020931D01*
X57753750Y-91233371D01*
X57858400Y-91429157D01*
X57999235Y-91600765D01*
X58170843Y-91741600D01*
X58366629Y-91846250D01*
X58579069Y-91910693D01*
X58800000Y-91932453D01*
X60400000Y-91932453D01*
X60620931Y-91910693D01*
X60833371Y-91846250D01*
X61029157Y-91741600D01*
X61140106Y-91650547D01*
X61399001Y-91788929D01*
X61762242Y-91899117D01*
X62045342Y-91927000D01*
X62234658Y-91927000D01*
X62517758Y-91899117D01*
X62880999Y-91788929D01*
X63215763Y-91609994D01*
X63410000Y-91450588D01*
X63604237Y-91609994D01*
X63939001Y-91788929D01*
X64302242Y-91899117D01*
X64585342Y-91927000D01*
X64774658Y-91927000D01*
X65057758Y-91899117D01*
X65420999Y-91788929D01*
X65755763Y-91609994D01*
X65950000Y-91450588D01*
X66144237Y-91609994D01*
X66479001Y-91788929D01*
X66842242Y-91899117D01*
X67125342Y-91927000D01*
X67314658Y-91927000D01*
X67597758Y-91899117D01*
X67960999Y-91788929D01*
X68295763Y-91609994D01*
X68490000Y-91450588D01*
X68684237Y-91609994D01*
X69019001Y-91788929D01*
X69382242Y-91899117D01*
X69665342Y-91927000D01*
X69854658Y-91927000D01*
X70137758Y-91899117D01*
X70413647Y-91815427D01*
X68746075Y-93483000D01*
X33123925Y-93483000D01*
X31027000Y-91386075D01*
X31027000Y-91087789D01*
X31060922Y-91130699D01*
X31282543Y-91319461D01*
X31536732Y-91461360D01*
X31757000Y-91378657D01*
X31757000Y-90473000D01*
X31737000Y-90473000D01*
X31737000Y-89727000D01*
X31757000Y-89727000D01*
X31757000Y-89707000D01*
X32503000Y-89707000D01*
X32503000Y-89727000D01*
X32523000Y-89727000D01*
X32523000Y-90473000D01*
X32503000Y-90473000D01*
X32503000Y-91378657D01*
X32723268Y-91461360D01*
X32977457Y-91319461D01*
X33057385Y-91251384D01*
X33265286Y-91504714D01*
X33566324Y-91751768D01*
X33909774Y-91935347D01*
X34282440Y-92048394D01*
X34572884Y-92077000D01*
X34767116Y-92077000D01*
X35057560Y-92048394D01*
X35430226Y-91935347D01*
X35773676Y-91751768D01*
X36074714Y-91504714D01*
X36321768Y-91203676D01*
X36505347Y-90860226D01*
X36618394Y-90487560D01*
X36656565Y-90100000D01*
X36618394Y-89712440D01*
X36505347Y-89339774D01*
X36423687Y-89187000D01*
X42160086Y-89187000D01*
X42240000Y-89194871D01*
X42319914Y-89187000D01*
X42319925Y-89187000D01*
X42558948Y-89163458D01*
X42865638Y-89070425D01*
X43148286Y-88919346D01*
X43396029Y-88716029D01*
X43446980Y-88653945D01*
X46018132Y-86082793D01*
X45943000Y-86460509D01*
G36*
X83828021Y-28116054D02*
G01*
X83828017Y-28116059D01*
X83815356Y-28128720D01*
X83672915Y-28157053D01*
X83322223Y-28302315D01*
X83006609Y-28513201D01*
X82850000Y-28669810D01*
X82693391Y-28513201D01*
X82377777Y-28302315D01*
X82027085Y-28157053D01*
X81654793Y-28083000D01*
X81275207Y-28083000D01*
X80902915Y-28157053D01*
X80552223Y-28302315D01*
X80236609Y-28513201D01*
X80080000Y-28669810D01*
X79923391Y-28513201D01*
X79607777Y-28302315D01*
X79257085Y-28157053D01*
X78884793Y-28083000D01*
X78505207Y-28083000D01*
X78132915Y-28157053D01*
X77782223Y-28302315D01*
X77661469Y-28383000D01*
X76359914Y-28383000D01*
X76279999Y-28375129D01*
X76200085Y-28383000D01*
X76200075Y-28383000D01*
X75961052Y-28406542D01*
X75654362Y-28499575D01*
X75654360Y-28499576D01*
X75628870Y-28513201D01*
X75371714Y-28650654D01*
X75123971Y-28853971D01*
X75073023Y-28916052D01*
X73906050Y-30083025D01*
X73843972Y-30133971D01*
X73793026Y-30196049D01*
X73793022Y-30196053D01*
X73640654Y-30381715D01*
X73551623Y-30548281D01*
X73489576Y-30664362D01*
X73396543Y-30971052D01*
X73392538Y-31011714D01*
X73365129Y-31290000D01*
X73373001Y-31369924D01*
X73373001Y-31719180D01*
X73356831Y-31637888D01*
X73121111Y-31068810D01*
X72778899Y-30556654D01*
X72343346Y-30121101D01*
X71831190Y-29778889D01*
X71262112Y-29543169D01*
X70657983Y-29423000D01*
X70042017Y-29423000D01*
X69437888Y-29543169D01*
X68868810Y-29778889D01*
X68356654Y-30121101D01*
X67921101Y-30556654D01*
X67578889Y-31068810D01*
X67343169Y-31637888D01*
X67223000Y-32242017D01*
X67223000Y-32857983D01*
X67343169Y-33462112D01*
X67578889Y-34031190D01*
X67921101Y-34543346D01*
X68356654Y-34978899D01*
X68868810Y-35321111D01*
X69437888Y-35556831D01*
X70042017Y-35677000D01*
X70657983Y-35677000D01*
X71262112Y-35556831D01*
X71831190Y-35321111D01*
X72343346Y-34978899D01*
X72778899Y-34543346D01*
X73121111Y-34031190D01*
X73356831Y-33462112D01*
X73373001Y-33380821D01*
X73373000Y-43618967D01*
X73347851Y-43644116D01*
X73115077Y-43992488D01*
X72954739Y-44379577D01*
X72873000Y-44790509D01*
X72873000Y-45209491D01*
X72954739Y-45620423D01*
X73115077Y-46007512D01*
X73347851Y-46355884D01*
X73644116Y-46652149D01*
X73992488Y-46884923D01*
X74379577Y-47045261D01*
X74790509Y-47127000D01*
X75209491Y-47127000D01*
X75620423Y-47045261D01*
X76007512Y-46884923D01*
X76355884Y-46652149D01*
X76652149Y-46355884D01*
X76884923Y-46007512D01*
X77045261Y-45620423D01*
X77127000Y-45209491D01*
X77127000Y-44790509D01*
X77045261Y-44379577D01*
X76884923Y-43992488D01*
X76652149Y-43644116D01*
X76627000Y-43618967D01*
X76627000Y-34060505D01*
X76705577Y-33981928D01*
X76793059Y-34196094D01*
X77065602Y-34271080D01*
X77347537Y-34291454D01*
X77628030Y-34256434D01*
X77826941Y-34196094D01*
X77914424Y-33981926D01*
X77310000Y-33377502D01*
X77295858Y-33391644D01*
X76768356Y-32864142D01*
X76782498Y-32850000D01*
X76768356Y-32835858D01*
X77295858Y-32308356D01*
X77310000Y-32322498D01*
X77324142Y-32308356D01*
X77851644Y-32835858D01*
X77837502Y-32850000D01*
X78184213Y-33196711D01*
X78227053Y-33412085D01*
X78372315Y-33762777D01*
X78583201Y-34078391D01*
X78851609Y-34346799D01*
X79167223Y-34557685D01*
X79517915Y-34702947D01*
X79890207Y-34777000D01*
X80269793Y-34777000D01*
X80642085Y-34702947D01*
X80773001Y-34648720D01*
X80773000Y-44596053D01*
X80611071Y-44899001D01*
X80500883Y-45262242D01*
X80463677Y-45640000D01*
X80500883Y-46017758D01*
X80611071Y-46380999D01*
X80790006Y-46715763D01*
X81030813Y-47009187D01*
X81324237Y-47249994D01*
X81659001Y-47428929D01*
X82022242Y-47539117D01*
X82305342Y-47567000D01*
X82494658Y-47567000D01*
X82777758Y-47539117D01*
X83140999Y-47428929D01*
X83475763Y-47249994D01*
X83769187Y-47009187D01*
X83900000Y-46849791D01*
X84030813Y-47009187D01*
X84324237Y-47249994D01*
X84659001Y-47428929D01*
X85022242Y-47539117D01*
X85305342Y-47567000D01*
X85494658Y-47567000D01*
X85777758Y-47539117D01*
X86140999Y-47428929D01*
X86475763Y-47249994D01*
X86769187Y-47009187D01*
X86900000Y-46849791D01*
X87030813Y-47009187D01*
X87324237Y-47249994D01*
X87659001Y-47428929D01*
X88022242Y-47539117D01*
X88305342Y-47567000D01*
X88494658Y-47567000D01*
X88777758Y-47539117D01*
X89140999Y-47428929D01*
X89475763Y-47249994D01*
X89769187Y-47009187D01*
X89773000Y-47004541D01*
X89773000Y-47790085D01*
X89765129Y-47870000D01*
X89773000Y-47949914D01*
X89773000Y-47949924D01*
X89796542Y-48188947D01*
X89889575Y-48495637D01*
X90040654Y-48778285D01*
X90243971Y-49026029D01*
X90306054Y-49076979D01*
X92593000Y-51363926D01*
X92593000Y-51399491D01*
X92674739Y-51810423D01*
X92835077Y-52197512D01*
X93067851Y-52545884D01*
X93364116Y-52842149D01*
X93712488Y-53074923D01*
X94099577Y-53235261D01*
X94510509Y-53317000D01*
X94929491Y-53317000D01*
X95340423Y-53235261D01*
X95727512Y-53074923D01*
X96075884Y-52842149D01*
X96372149Y-52545884D01*
X96604923Y-52197512D01*
X96765261Y-51810423D01*
X96847000Y-51399491D01*
X96847000Y-50980509D01*
X96765261Y-50569577D01*
X96604923Y-50182488D01*
X96372149Y-49834116D01*
X96075884Y-49537851D01*
X95727512Y-49305077D01*
X95340423Y-49144739D01*
X94929491Y-49063000D01*
X94893926Y-49063000D01*
X93027000Y-47196075D01*
X93027000Y-34649245D01*
X93356654Y-34978899D01*
X93868810Y-35321111D01*
X94437888Y-35556831D01*
X95042017Y-35677000D01*
X95657983Y-35677000D01*
X96262112Y-35556831D01*
X96831190Y-35321111D01*
X97343346Y-34978899D01*
X97778899Y-34543346D01*
X98121111Y-34031190D01*
X98356831Y-33462112D01*
X98477000Y-32857983D01*
X98477000Y-32242017D01*
X98356831Y-31637888D01*
X98121111Y-31068810D01*
X97778899Y-30556654D01*
X97343346Y-30121101D01*
X96831190Y-29778889D01*
X96464498Y-29627000D01*
X99556075Y-29627000D01*
X103675980Y-33746906D01*
X103555961Y-33783313D01*
X103143021Y-34004034D01*
X102781076Y-34301075D01*
X102484034Y-34663020D01*
X102263313Y-35075960D01*
X102127393Y-35524027D01*
X102093000Y-35873228D01*
X102093000Y-36606771D01*
X102127393Y-36955972D01*
X102263313Y-37404039D01*
X102484034Y-37816979D01*
X102781075Y-38178925D01*
X103143020Y-38475966D01*
X103555960Y-38696687D01*
X104004027Y-38832607D01*
X104470000Y-38878501D01*
X104935972Y-38832607D01*
X105384039Y-38696687D01*
X105796979Y-38475966D01*
X106158925Y-38178925D01*
X106455966Y-37816980D01*
X106470000Y-37790724D01*
X106484034Y-37816979D01*
X106781075Y-38178925D01*
X106843001Y-38229746D01*
X106843000Y-46596075D01*
X99146050Y-54293025D01*
X99083972Y-54343971D01*
X99033026Y-54406049D01*
X99033022Y-54406053D01*
X98880654Y-54591715D01*
X98832761Y-54681317D01*
X98729576Y-54874362D01*
X98636543Y-55181052D01*
X98622235Y-55326318D01*
X98605129Y-55500000D01*
X98613001Y-55579924D01*
X98613000Y-73063007D01*
X98440999Y-72971071D01*
X98077758Y-72860883D01*
X97794658Y-72833000D01*
X97605342Y-72833000D01*
X97322242Y-72860883D01*
X96959001Y-72971071D01*
X96624237Y-73150006D01*
X96430000Y-73309412D01*
X96235763Y-73150006D01*
X95900999Y-72971071D01*
X95537758Y-72860883D01*
X95254658Y-72833000D01*
X95065342Y-72833000D01*
X94782242Y-72860883D01*
X94419001Y-72971071D01*
X94084237Y-73150006D01*
X93890000Y-73309412D01*
X93695763Y-73150006D01*
X93360999Y-72971071D01*
X92997758Y-72860883D01*
X92714658Y-72833000D01*
X92525342Y-72833000D01*
X92242242Y-72860883D01*
X91879001Y-72971071D01*
X91544237Y-73150006D01*
X91350000Y-73309412D01*
X91155763Y-73150006D01*
X90820999Y-72971071D01*
X90457758Y-72860883D01*
X90436272Y-72858767D01*
X90341928Y-72764423D01*
X90556094Y-72676941D01*
X90631080Y-72404398D01*
X90651454Y-72122463D01*
X90616434Y-71841970D01*
X90556094Y-71643059D01*
X90341926Y-71555576D01*
X89737502Y-72160000D01*
X89751644Y-72174142D01*
X89224142Y-72701644D01*
X89210000Y-72687502D01*
X89195858Y-72701644D01*
X88668356Y-72174142D01*
X88682498Y-72160000D01*
X88668356Y-72145858D01*
X89195858Y-71618356D01*
X89210000Y-71632498D01*
X89814424Y-71028074D01*
X89726941Y-70813906D01*
X89454398Y-70738920D01*
X89172463Y-70718546D01*
X88891970Y-70753566D01*
X88693059Y-70813906D01*
X88605577Y-71028072D01*
X88454579Y-70877074D01*
X88337000Y-70994653D01*
X88337000Y-70275347D01*
X88464579Y-70402926D01*
X88615577Y-70251928D01*
X88703059Y-70466094D01*
X88975602Y-70541080D01*
X89257537Y-70561454D01*
X89538030Y-70526434D01*
X89736941Y-70466094D01*
X89824424Y-70251926D01*
X89220000Y-69647502D01*
X89205858Y-69661644D01*
X88678356Y-69134142D01*
X88692498Y-69120000D01*
X89747502Y-69120000D01*
X90351926Y-69724424D01*
X90566094Y-69636941D01*
X90641080Y-69364398D01*
X90661454Y-69082463D01*
X90626434Y-68801970D01*
X90566094Y-68603059D01*
X90351926Y-68515576D01*
X89747502Y-69120000D01*
X88692498Y-69120000D01*
X88678356Y-69105858D01*
X89205858Y-68578356D01*
X89220000Y-68592498D01*
X89824424Y-67988074D01*
X89736941Y-67773906D01*
X89619368Y-67741558D01*
X91693926Y-65667000D01*
X91729491Y-65667000D01*
X92140423Y-65585261D01*
X92527512Y-65424923D01*
X92875884Y-65192149D01*
X93172149Y-64895884D01*
X93404923Y-64547512D01*
X93520000Y-64269692D01*
X93635077Y-64547512D01*
X93867851Y-64895884D01*
X94164116Y-65192149D01*
X94512488Y-65424923D01*
X94899577Y-65585261D01*
X95310509Y-65667000D01*
X95729491Y-65667000D01*
X96140423Y-65585261D01*
X96527512Y-65424923D01*
X96875884Y-65192149D01*
X97172149Y-64895884D01*
X97404923Y-64547512D01*
X97565261Y-64160423D01*
X97647000Y-63749491D01*
X97647000Y-63330509D01*
X97565261Y-62919577D01*
X97404923Y-62532488D01*
X97172149Y-62184116D01*
X97157000Y-62168967D01*
X97157000Y-59261033D01*
X97182149Y-59235884D01*
X97414923Y-58887512D01*
X97575261Y-58500423D01*
X97657000Y-58089491D01*
X97657000Y-57670509D01*
X97575261Y-57259577D01*
X97414923Y-56872488D01*
X97182149Y-56524116D01*
X96885884Y-56227851D01*
X96537512Y-55995077D01*
X96150423Y-55834739D01*
X95739491Y-55753000D01*
X95320509Y-55753000D01*
X94909577Y-55834739D01*
X94522488Y-55995077D01*
X94174116Y-56227851D01*
X93877851Y-56524116D01*
X93645077Y-56872488D01*
X93484739Y-57259577D01*
X93403000Y-57670509D01*
X93403000Y-58089491D01*
X93484739Y-58500423D01*
X93645077Y-58887512D01*
X93877851Y-59235884D01*
X93903000Y-59261033D01*
X93903001Y-62148966D01*
X93867851Y-62184116D01*
X93635077Y-62532488D01*
X93520000Y-62810308D01*
X93404923Y-62532488D01*
X93172149Y-62184116D01*
X92875884Y-61887851D01*
X92527512Y-61655077D01*
X92140423Y-61494739D01*
X91729491Y-61413000D01*
X91310509Y-61413000D01*
X90899577Y-61494739D01*
X90512488Y-61655077D01*
X90164116Y-61887851D01*
X90007000Y-62044967D01*
X90007000Y-59383947D01*
X90168929Y-59080999D01*
X90279117Y-58717758D01*
X90316323Y-58340000D01*
X90279117Y-57962242D01*
X90168929Y-57599001D01*
X90007000Y-57296053D01*
X90007000Y-56863463D01*
X90107685Y-56712777D01*
X90252947Y-56362085D01*
X90327000Y-55989793D01*
X90327000Y-55610207D01*
X90252947Y-55237915D01*
X90107685Y-54887223D01*
X89896799Y-54571609D01*
X89628391Y-54303201D01*
X89312777Y-54092315D01*
X88962085Y-53947053D01*
X88589793Y-53873000D01*
X88210207Y-53873000D01*
X87837915Y-53947053D01*
X87487223Y-54092315D01*
X87171609Y-54303201D01*
X86903201Y-54571609D01*
X86900000Y-54576400D01*
X86896799Y-54571609D01*
X86628391Y-54303201D01*
X86312777Y-54092315D01*
X85962085Y-53947053D01*
X85589793Y-53873000D01*
X85210207Y-53873000D01*
X84837915Y-53947053D01*
X84487223Y-54092315D01*
X84171609Y-54303201D01*
X83903201Y-54571609D01*
X83900000Y-54576400D01*
X83896799Y-54571609D01*
X83628391Y-54303201D01*
X83312777Y-54092315D01*
X82962085Y-53947053D01*
X82589793Y-53873000D01*
X82210207Y-53873000D01*
X81837915Y-53947053D01*
X81487223Y-54092315D01*
X81171609Y-54303201D01*
X80903201Y-54571609D01*
X80692315Y-54887223D01*
X80547053Y-55237915D01*
X80473000Y-55610207D01*
X80473000Y-55989793D01*
X80547053Y-56362085D01*
X80692315Y-56712777D01*
X80753001Y-56803600D01*
X80753000Y-62713000D01*
X76109914Y-62713000D01*
X76029999Y-62705129D01*
X75950085Y-62713000D01*
X75950075Y-62713000D01*
X75711052Y-62736542D01*
X75404362Y-62829575D01*
X75404360Y-62829576D01*
X75367860Y-62849086D01*
X75121714Y-62980654D01*
X74873971Y-63183971D01*
X74823020Y-63246055D01*
X73653263Y-64415812D01*
X73661454Y-64302463D01*
X73626434Y-64021970D01*
X73566094Y-63823059D01*
X73351926Y-63735576D01*
X72747502Y-64340000D01*
X72761644Y-64354142D01*
X72234142Y-64881644D01*
X72220000Y-64867502D01*
X71615576Y-65471926D01*
X71703059Y-65686094D01*
X71975602Y-65761080D01*
X72257537Y-65781454D01*
X72291913Y-65777162D01*
X66126050Y-71943025D01*
X66107139Y-71958545D01*
X66039346Y-71831714D01*
X65999558Y-71783232D01*
X65886978Y-71646052D01*
X65886975Y-71646049D01*
X65836029Y-71583971D01*
X65773951Y-71533025D01*
X59712852Y-65471926D01*
X65835576Y-65471926D01*
X65923059Y-65686094D01*
X66195602Y-65761080D01*
X66477537Y-65781454D01*
X66758030Y-65746434D01*
X66956941Y-65686094D01*
X67044424Y-65471926D01*
X66440000Y-64867502D01*
X65835576Y-65471926D01*
X59712852Y-65471926D01*
X58618463Y-64377537D01*
X64998546Y-64377537D01*
X65033566Y-64658030D01*
X65093906Y-64856941D01*
X65308074Y-64944424D01*
X65912498Y-64340000D01*
X66967502Y-64340000D01*
X67571926Y-64944424D01*
X67786094Y-64856941D01*
X67861080Y-64584398D01*
X67876028Y-64377537D01*
X70778546Y-64377537D01*
X70813566Y-64658030D01*
X70873906Y-64856941D01*
X71088074Y-64944424D01*
X71692498Y-64340000D01*
X71088074Y-63735576D01*
X70873906Y-63823059D01*
X70798920Y-64095602D01*
X70778546Y-64377537D01*
X67876028Y-64377537D01*
X67881454Y-64302463D01*
X67846434Y-64021970D01*
X67786094Y-63823059D01*
X67571926Y-63735576D01*
X66967502Y-64340000D01*
X65912498Y-64340000D01*
X65308074Y-63735576D01*
X65093906Y-63823059D01*
X65018920Y-64095602D01*
X64998546Y-64377537D01*
X58618463Y-64377537D01*
X58168645Y-63927720D01*
X58068929Y-63599001D01*
X57907000Y-63296053D01*
X57907000Y-63208074D01*
X65835576Y-63208074D01*
X66440000Y-63812498D01*
X67044424Y-63208074D01*
X71615576Y-63208074D01*
X72220000Y-63812498D01*
X72824424Y-63208074D01*
X72736941Y-62993906D01*
X72464398Y-62918920D01*
X72182463Y-62898546D01*
X71901970Y-62933566D01*
X71703059Y-62993906D01*
X71615576Y-63208074D01*
X67044424Y-63208074D01*
X66956941Y-62993906D01*
X66684398Y-62918920D01*
X66402463Y-62898546D01*
X66121970Y-62933566D01*
X65923059Y-62993906D01*
X65835576Y-63208074D01*
X57907000Y-63208074D01*
X57907000Y-62471926D01*
X62875576Y-62471926D01*
X62963059Y-62686094D01*
X63235602Y-62761080D01*
X63517537Y-62781454D01*
X63798030Y-62746434D01*
X63996941Y-62686094D01*
X64084424Y-62471926D01*
X74615576Y-62471926D01*
X74703059Y-62686094D01*
X74975602Y-62761080D01*
X75257537Y-62781454D01*
X75538030Y-62746434D01*
X75736941Y-62686094D01*
X75824424Y-62471926D01*
X75220000Y-61867502D01*
X74615576Y-62471926D01*
X64084424Y-62471926D01*
X63480000Y-61867502D01*
X62875576Y-62471926D01*
X57907000Y-62471926D01*
X57907000Y-61377537D01*
X62038546Y-61377537D01*
X62073566Y-61658030D01*
X62133906Y-61856941D01*
X62348074Y-61944424D01*
X62952498Y-61340000D01*
X64007502Y-61340000D01*
X64611926Y-61944424D01*
X64826094Y-61856941D01*
X64901080Y-61584398D01*
X64916028Y-61377537D01*
X73778546Y-61377537D01*
X73813566Y-61658030D01*
X73873906Y-61856941D01*
X74088074Y-61944424D01*
X74692498Y-61340000D01*
X75747502Y-61340000D01*
X76351926Y-61944424D01*
X76566094Y-61856941D01*
X76641080Y-61584398D01*
X76661454Y-61302463D01*
X76626434Y-61021970D01*
X76566094Y-60823059D01*
X76351926Y-60735576D01*
X75747502Y-61340000D01*
X74692498Y-61340000D01*
X74088074Y-60735576D01*
X73873906Y-60823059D01*
X73798920Y-61095602D01*
X73778546Y-61377537D01*
X64916028Y-61377537D01*
X64921454Y-61302463D01*
X64886434Y-61021970D01*
X64826094Y-60823059D01*
X64611926Y-60735576D01*
X64007502Y-61340000D01*
X62952498Y-61340000D01*
X62348074Y-60735576D01*
X62133906Y-60823059D01*
X62058920Y-61095602D01*
X62038546Y-61377537D01*
X57907000Y-61377537D01*
X57907000Y-60208074D01*
X62875576Y-60208074D01*
X63480000Y-60812498D01*
X64084424Y-60208074D01*
X74615576Y-60208074D01*
X75220000Y-60812498D01*
X75824424Y-60208074D01*
X75736941Y-59993906D01*
X75464398Y-59918920D01*
X75182463Y-59898546D01*
X74901970Y-59933566D01*
X74703059Y-59993906D01*
X74615576Y-60208074D01*
X64084424Y-60208074D01*
X63996941Y-59993906D01*
X63724398Y-59918920D01*
X63442463Y-59898546D01*
X63161970Y-59933566D01*
X62963059Y-59993906D01*
X62875576Y-60208074D01*
X57907000Y-60208074D01*
X57907000Y-59471926D01*
X59835576Y-59471926D01*
X59923059Y-59686094D01*
X60195602Y-59761080D01*
X60477537Y-59781454D01*
X60758030Y-59746434D01*
X60956941Y-59686094D01*
X61044424Y-59471926D01*
X77615576Y-59471926D01*
X77703059Y-59686094D01*
X77975602Y-59761080D01*
X78257537Y-59781454D01*
X78538030Y-59746434D01*
X78736941Y-59686094D01*
X78824424Y-59471926D01*
X78220000Y-58867502D01*
X77615576Y-59471926D01*
X61044424Y-59471926D01*
X60440000Y-58867502D01*
X59835576Y-59471926D01*
X57907000Y-59471926D01*
X57907000Y-58377537D01*
X58998546Y-58377537D01*
X59033566Y-58658030D01*
X59093906Y-58856941D01*
X59308074Y-58944424D01*
X59912498Y-58340000D01*
X60967502Y-58340000D01*
X61571926Y-58944424D01*
X61786094Y-58856941D01*
X61861080Y-58584398D01*
X61876028Y-58377537D01*
X76778546Y-58377537D01*
X76813566Y-58658030D01*
X76873906Y-58856941D01*
X77088074Y-58944424D01*
X77692498Y-58340000D01*
X78747502Y-58340000D01*
X79351926Y-58944424D01*
X79566094Y-58856941D01*
X79641080Y-58584398D01*
X79661454Y-58302463D01*
X79626434Y-58021970D01*
X79566094Y-57823059D01*
X79351926Y-57735576D01*
X78747502Y-58340000D01*
X77692498Y-58340000D01*
X77088074Y-57735576D01*
X76873906Y-57823059D01*
X76798920Y-58095602D01*
X76778546Y-58377537D01*
X61876028Y-58377537D01*
X61881454Y-58302463D01*
X61846434Y-58021970D01*
X61786094Y-57823059D01*
X61571926Y-57735576D01*
X60967502Y-58340000D01*
X59912498Y-58340000D01*
X59308074Y-57735576D01*
X59093906Y-57823059D01*
X59018920Y-58095602D01*
X58998546Y-58377537D01*
X57907000Y-58377537D01*
X57907000Y-57208074D01*
X59835576Y-57208074D01*
X60440000Y-57812498D01*
X61044424Y-57208074D01*
X77615576Y-57208074D01*
X78220000Y-57812498D01*
X78824424Y-57208074D01*
X78736941Y-56993906D01*
X78464398Y-56918920D01*
X78182463Y-56898546D01*
X77901970Y-56933566D01*
X77703059Y-56993906D01*
X77615576Y-57208074D01*
X61044424Y-57208074D01*
X60956941Y-56993906D01*
X60684398Y-56918920D01*
X60402463Y-56898546D01*
X60121970Y-56933566D01*
X59923059Y-56993906D01*
X59835576Y-57208074D01*
X57907000Y-57208074D01*
X57907000Y-56863463D01*
X58007685Y-56712777D01*
X58152947Y-56362085D01*
X58227000Y-55989793D01*
X58227000Y-55610207D01*
X58152947Y-55237915D01*
X58007685Y-54887223D01*
X57796799Y-54571609D01*
X57528391Y-54303201D01*
X57212777Y-54092315D01*
X56862085Y-53947053D01*
X56489793Y-53873000D01*
X56110207Y-53873000D01*
X55737915Y-53947053D01*
X55387223Y-54092315D01*
X55071609Y-54303201D01*
X54803201Y-54571609D01*
X54800000Y-54576400D01*
X54796799Y-54571609D01*
X54528391Y-54303201D01*
X54212777Y-54092315D01*
X53862085Y-53947053D01*
X53489793Y-53873000D01*
X53110207Y-53873000D01*
X52737915Y-53947053D01*
X52387223Y-54092315D01*
X52071609Y-54303201D01*
X51803201Y-54571609D01*
X51800000Y-54576400D01*
X51796799Y-54571609D01*
X51528391Y-54303201D01*
X51212777Y-54092315D01*
X50862085Y-53947053D01*
X50489793Y-53873000D01*
X50110207Y-53873000D01*
X49737915Y-53947053D01*
X49387223Y-54092315D01*
X49071609Y-54303201D01*
X48803201Y-54571609D01*
X48592315Y-54887223D01*
X48447053Y-55237915D01*
X48373000Y-55610207D01*
X48373000Y-55989793D01*
X48447053Y-56362085D01*
X48592315Y-56712777D01*
X48653001Y-56803600D01*
X48653000Y-57296052D01*
X48491071Y-57599001D01*
X48380883Y-57962242D01*
X48343677Y-58340000D01*
X48380883Y-58717758D01*
X48491071Y-59080999D01*
X48653001Y-59383949D01*
X48653000Y-65360085D01*
X48645129Y-65440000D01*
X48653000Y-65519914D01*
X48653000Y-65519924D01*
X48676542Y-65758947D01*
X48769575Y-66065637D01*
X48920654Y-66348285D01*
X49123971Y-66596029D01*
X49186055Y-66646980D01*
X57711355Y-75172280D01*
X57811071Y-75500999D01*
X57990006Y-75835763D01*
X58230813Y-76129187D01*
X58524237Y-76369994D01*
X58859001Y-76548929D01*
X59222242Y-76659117D01*
X59505342Y-76687000D01*
X59694658Y-76687000D01*
X59977758Y-76659117D01*
X60340999Y-76548929D01*
X60675763Y-76369994D01*
X60870000Y-76210588D01*
X61064237Y-76369994D01*
X61399001Y-76548929D01*
X61762242Y-76659117D01*
X62045342Y-76687000D01*
X62234658Y-76687000D01*
X62517758Y-76659117D01*
X62880999Y-76548929D01*
X63215763Y-76369994D01*
X63410000Y-76210588D01*
X63604237Y-76369994D01*
X63939001Y-76548929D01*
X64302242Y-76659117D01*
X64585342Y-76687000D01*
X64774658Y-76687000D01*
X65057758Y-76659117D01*
X65420999Y-76548929D01*
X65755763Y-76369994D01*
X65950000Y-76210588D01*
X66144237Y-76369994D01*
X66479001Y-76548929D01*
X66842242Y-76659117D01*
X67125342Y-76687000D01*
X67314658Y-76687000D01*
X67597758Y-76659117D01*
X67960999Y-76548929D01*
X68295763Y-76369994D01*
X68490000Y-76210588D01*
X68684237Y-76369994D01*
X69019001Y-76548929D01*
X69382242Y-76659117D01*
X69665342Y-76687000D01*
X69854658Y-76687000D01*
X70137758Y-76659117D01*
X70500999Y-76548929D01*
X70835763Y-76369994D01*
X71030000Y-76210588D01*
X71224237Y-76369994D01*
X71559001Y-76548929D01*
X71922242Y-76659117D01*
X72205342Y-76687000D01*
X72394658Y-76687000D01*
X72677758Y-76659117D01*
X73040999Y-76548929D01*
X73213000Y-76456992D01*
X73213000Y-77296075D01*
X72646075Y-77863000D01*
X50483926Y-77863000D01*
X32815828Y-60194903D01*
X32827000Y-60138737D01*
X32827000Y-59621263D01*
X32726046Y-59113732D01*
X32528017Y-58635649D01*
X32240524Y-58205385D01*
X31874615Y-57839476D01*
X31444351Y-57551983D01*
X30966268Y-57353954D01*
X30458737Y-57253000D01*
X29941263Y-57253000D01*
X29433732Y-57353954D01*
X28955649Y-57551983D01*
X28525385Y-57839476D01*
X28159476Y-58205385D01*
X27871983Y-58635649D01*
X27673954Y-59113732D01*
X27573000Y-59621263D01*
X27573000Y-60138737D01*
X27673954Y-60646268D01*
X27871983Y-61124351D01*
X28159476Y-61554615D01*
X28525385Y-61920524D01*
X28955649Y-62208017D01*
X29433732Y-62406046D01*
X29941263Y-62507000D01*
X30458737Y-62507000D01*
X30514903Y-62495828D01*
X43892074Y-75873000D01*
X43790509Y-75873000D01*
X43379577Y-75954739D01*
X42992488Y-76115077D01*
X42644116Y-76347851D01*
X42347851Y-76644116D01*
X42115077Y-76992488D01*
X41954739Y-77379577D01*
X41916265Y-77573000D01*
X39065347Y-77573000D01*
X39182926Y-77455421D01*
X39031928Y-77304423D01*
X39246094Y-77216941D01*
X39321080Y-76944398D01*
X39341454Y-76662463D01*
X39306434Y-76381970D01*
X39246094Y-76183059D01*
X39031926Y-76095576D01*
X38427502Y-76700000D01*
X38441644Y-76714142D01*
X37914142Y-77241644D01*
X37900000Y-77227502D01*
X37885858Y-77241644D01*
X37358356Y-76714142D01*
X37372498Y-76700000D01*
X36768074Y-76095576D01*
X36553906Y-76183059D01*
X36478920Y-76455602D01*
X36458546Y-76737537D01*
X36493566Y-77018030D01*
X36553906Y-77216941D01*
X36768072Y-77304423D01*
X36617074Y-77455421D01*
X36634653Y-77473000D01*
X35381033Y-77473000D01*
X35355884Y-77447851D01*
X35007512Y-77215077D01*
X34620423Y-77054739D01*
X34209491Y-76973000D01*
X33790509Y-76973000D01*
X33379577Y-77054739D01*
X32992488Y-77215077D01*
X32644116Y-77447851D01*
X32618967Y-77473000D01*
X28881033Y-77473000D01*
X28855884Y-77447851D01*
X28507512Y-77215077D01*
X28120423Y-77054739D01*
X27709491Y-76973000D01*
X27290509Y-76973000D01*
X27127000Y-77005524D01*
X27127000Y-76196192D01*
X27168877Y-76209197D01*
X27489178Y-76242875D01*
X27809895Y-76213418D01*
X28118703Y-76121960D01*
X28138698Y-76113678D01*
X28252026Y-75879527D01*
X33247974Y-75879527D01*
X33361302Y-76113678D01*
X33668877Y-76209197D01*
X33989178Y-76242875D01*
X34309895Y-76213418D01*
X34618703Y-76121960D01*
X34638698Y-76113678D01*
X34752026Y-75879527D01*
X34440573Y-75568074D01*
X37295576Y-75568074D01*
X37900000Y-76172498D01*
X38504424Y-75568074D01*
X38416941Y-75353906D01*
X38144398Y-75278920D01*
X37862463Y-75258546D01*
X37581970Y-75293566D01*
X37383059Y-75353906D01*
X37295576Y-75568074D01*
X34440573Y-75568074D01*
X34000000Y-75127502D01*
X33247974Y-75879527D01*
X28252026Y-75879527D01*
X27500000Y-75127502D01*
X27485858Y-75141644D01*
X27127000Y-74782786D01*
X27127000Y-74600000D01*
X28027502Y-74600000D01*
X28779527Y-75352026D01*
X29013678Y-75238698D01*
X29109197Y-74931123D01*
X29142875Y-74610822D01*
X29140888Y-74589178D01*
X32357125Y-74589178D01*
X32386582Y-74909895D01*
X32478040Y-75218703D01*
X32486322Y-75238698D01*
X32720473Y-75352026D01*
X33472498Y-74600000D01*
X34527502Y-74600000D01*
X35279527Y-75352026D01*
X35513678Y-75238698D01*
X35609197Y-74931123D01*
X35642875Y-74610822D01*
X35613418Y-74290105D01*
X35521960Y-73981297D01*
X35513678Y-73961302D01*
X35279527Y-73847974D01*
X34527502Y-74600000D01*
X33472498Y-74600000D01*
X32720473Y-73847974D01*
X32486322Y-73961302D01*
X32390803Y-74268877D01*
X32357125Y-74589178D01*
X29140888Y-74589178D01*
X29113418Y-74290105D01*
X29021960Y-73981297D01*
X29013678Y-73961302D01*
X28779527Y-73847974D01*
X28027502Y-74600000D01*
X27127000Y-74600000D01*
X27127000Y-74417214D01*
X27485858Y-74058356D01*
X27500000Y-74072498D01*
X28252026Y-73320473D01*
X33247974Y-73320473D01*
X34000000Y-74072498D01*
X34752026Y-73320473D01*
X34638698Y-73086322D01*
X34331123Y-72990803D01*
X34010822Y-72957125D01*
X33690105Y-72986582D01*
X33381297Y-73078040D01*
X33361302Y-73086322D01*
X33247974Y-73320473D01*
X28252026Y-73320473D01*
X28138698Y-73086322D01*
X27831123Y-72990803D01*
X27510822Y-72957125D01*
X27190105Y-72986582D01*
X27127000Y-73005271D01*
X27127000Y-56300000D01*
X28061928Y-56300000D01*
X28074188Y-56424482D01*
X28110498Y-56544180D01*
X28169463Y-56654494D01*
X28248815Y-56751185D01*
X28345506Y-56830537D01*
X28455820Y-56889502D01*
X28575518Y-56925812D01*
X28700000Y-56938072D01*
X29668250Y-56935000D01*
X29827000Y-56776250D01*
X29827000Y-55173000D01*
X30573000Y-55173000D01*
X30573000Y-56776250D01*
X30731750Y-56935000D01*
X31700000Y-56938072D01*
X31824482Y-56925812D01*
X31944180Y-56889502D01*
X32054494Y-56830537D01*
X32151185Y-56751185D01*
X32230537Y-56654494D01*
X32289502Y-56544180D01*
X32325812Y-56424482D01*
X32338072Y-56300000D01*
X32335000Y-55331750D01*
X32176250Y-55173000D01*
X30573000Y-55173000D01*
X29827000Y-55173000D01*
X28223750Y-55173000D01*
X28065000Y-55331750D01*
X28061928Y-56300000D01*
X27127000Y-56300000D01*
X27127000Y-53300000D01*
X28061928Y-53300000D01*
X28065000Y-54268250D01*
X28223750Y-54427000D01*
X29827000Y-54427000D01*
X29827000Y-52823750D01*
X30573000Y-52823750D01*
X30573000Y-54427000D01*
X32176250Y-54427000D01*
X32335000Y-54268250D01*
X32338072Y-53300000D01*
X32325812Y-53175518D01*
X32289502Y-53055820D01*
X32230537Y-52945506D01*
X32151185Y-52848815D01*
X32054494Y-52769463D01*
X31944180Y-52710498D01*
X31824482Y-52674188D01*
X31700000Y-52661928D01*
X30731750Y-52665000D01*
X30573000Y-52823750D01*
X29827000Y-52823750D01*
X29668250Y-52665000D01*
X28700000Y-52661928D01*
X28575518Y-52674188D01*
X28455820Y-52710498D01*
X28345506Y-52769463D01*
X28248815Y-52848815D01*
X28169463Y-52945506D01*
X28110498Y-53055820D01*
X28074188Y-53175518D01*
X28061928Y-53300000D01*
X27127000Y-53300000D01*
X27127000Y-32261446D01*
X27430836Y-32623544D01*
X27989348Y-33072599D01*
X28624445Y-33404619D01*
X29311936Y-33606959D01*
X30025635Y-33671911D01*
X30738358Y-33597000D01*
X31422957Y-33385081D01*
X32053356Y-33044226D01*
X32233001Y-32895611D01*
X32233000Y-44466074D01*
X31826074Y-44873000D01*
X31790509Y-44873000D01*
X31379577Y-44954739D01*
X30992488Y-45115077D01*
X30644116Y-45347851D01*
X30347851Y-45644116D01*
X30115077Y-45992488D01*
X29954739Y-46379577D01*
X29873000Y-46790509D01*
X29873000Y-47209491D01*
X29954739Y-47620423D01*
X30115077Y-48007512D01*
X30347851Y-48355884D01*
X30644116Y-48652149D01*
X30992488Y-48884923D01*
X31379577Y-49045261D01*
X31790509Y-49127000D01*
X32209491Y-49127000D01*
X32620423Y-49045261D01*
X33007512Y-48884923D01*
X33355884Y-48652149D01*
X33652149Y-48355884D01*
X33884923Y-48007512D01*
X34045261Y-47620423D01*
X34127000Y-47209491D01*
X34127000Y-47173926D01*
X34953952Y-46346974D01*
X35016029Y-46296029D01*
X35066975Y-46233951D01*
X35066978Y-46233948D01*
X35219346Y-46048286D01*
X35370424Y-45765640D01*
X35370425Y-45765637D01*
X35463458Y-45458948D01*
X35487000Y-45219925D01*
X35487000Y-45219915D01*
X35494871Y-45140001D01*
X35487000Y-45060086D01*
X35487000Y-34477344D01*
X35531101Y-34543346D01*
X35966654Y-34978899D01*
X36478810Y-35321111D01*
X37047888Y-35556831D01*
X37652017Y-35677000D01*
X38267983Y-35677000D01*
X38872112Y-35556831D01*
X39441190Y-35321111D01*
X39953346Y-34978899D01*
X40388899Y-34543346D01*
X40731111Y-34031190D01*
X40751516Y-33981926D01*
X44315576Y-33981926D01*
X44403059Y-34196094D01*
X44675602Y-34271080D01*
X44957537Y-34291454D01*
X45238030Y-34256434D01*
X45436941Y-34196094D01*
X45524424Y-33981926D01*
X44920000Y-33377502D01*
X44315576Y-33981926D01*
X40751516Y-33981926D01*
X40966831Y-33462112D01*
X41081121Y-32887537D01*
X43478546Y-32887537D01*
X43513566Y-33168030D01*
X43573906Y-33366941D01*
X43788074Y-33454424D01*
X44392498Y-32850000D01*
X43788074Y-32245576D01*
X43573906Y-32333059D01*
X43498920Y-32605602D01*
X43478546Y-32887537D01*
X41081121Y-32887537D01*
X41087000Y-32857983D01*
X41087000Y-32242017D01*
X40966831Y-31637888D01*
X40731111Y-31068810D01*
X40388899Y-30556654D01*
X39953346Y-30121101D01*
X39887344Y-30077000D01*
X44071075Y-30077000D01*
X44423720Y-30429646D01*
X44452053Y-30572085D01*
X44597315Y-30922777D01*
X44808201Y-31238391D01*
X44985825Y-31416015D01*
X44882463Y-31408546D01*
X44601970Y-31443566D01*
X44403059Y-31503906D01*
X44315576Y-31718074D01*
X44920000Y-32322498D01*
X44934142Y-32308356D01*
X45461644Y-32835858D01*
X45447502Y-32850000D01*
X45794213Y-33196711D01*
X45837053Y-33412085D01*
X45982315Y-33762777D01*
X46193201Y-34078391D01*
X46461609Y-34346799D01*
X46777223Y-34557685D01*
X47127915Y-34702947D01*
X47500207Y-34777000D01*
X47879793Y-34777000D01*
X48252085Y-34702947D01*
X48602777Y-34557685D01*
X48673001Y-34510763D01*
X48673000Y-44596053D01*
X48511071Y-44899001D01*
X48400883Y-45262242D01*
X48363677Y-45640000D01*
X48400883Y-46017758D01*
X48511071Y-46380999D01*
X48690006Y-46715763D01*
X48930813Y-47009187D01*
X49224237Y-47249994D01*
X49559001Y-47428929D01*
X49922242Y-47539117D01*
X50205342Y-47567000D01*
X50394658Y-47567000D01*
X50677758Y-47539117D01*
X51040999Y-47428929D01*
X51375763Y-47249994D01*
X51669187Y-47009187D01*
X51800000Y-46849791D01*
X51930813Y-47009187D01*
X52224237Y-47249994D01*
X52559001Y-47428929D01*
X52922242Y-47539117D01*
X53205342Y-47567000D01*
X53394658Y-47567000D01*
X53677758Y-47539117D01*
X54040999Y-47428929D01*
X54375763Y-47249994D01*
X54669187Y-47009187D01*
X54800000Y-46849791D01*
X54930813Y-47009187D01*
X55224237Y-47249994D01*
X55559001Y-47428929D01*
X55922242Y-47539117D01*
X56205342Y-47567000D01*
X56394658Y-47567000D01*
X56677758Y-47539117D01*
X57040999Y-47428929D01*
X57375763Y-47249994D01*
X57669187Y-47009187D01*
X57909994Y-46715763D01*
X58088929Y-46380999D01*
X58199117Y-46017758D01*
X58236323Y-45640000D01*
X58199117Y-45262242D01*
X58088929Y-44899001D01*
X57927000Y-44596053D01*
X57927000Y-44301449D01*
X57930654Y-44308285D01*
X58133971Y-44556029D01*
X58196054Y-44606979D01*
X62163025Y-48573951D01*
X62213971Y-48636029D01*
X62276049Y-48686975D01*
X62276052Y-48686978D01*
X62387311Y-48778285D01*
X62461714Y-48839346D01*
X62744362Y-48990425D01*
X63051052Y-49083458D01*
X63290075Y-49107000D01*
X63290085Y-49107000D01*
X63369999Y-49114871D01*
X63449914Y-49107000D01*
X66098967Y-49107000D01*
X66124116Y-49132149D01*
X66472488Y-49364923D01*
X66859577Y-49525261D01*
X67270509Y-49607000D01*
X67689491Y-49607000D01*
X68100423Y-49525261D01*
X68487512Y-49364923D01*
X68835884Y-49132149D01*
X69132149Y-48835884D01*
X69364923Y-48487512D01*
X69525261Y-48100423D01*
X69607000Y-47689491D01*
X69607000Y-47270509D01*
X69525261Y-46859577D01*
X69364923Y-46472488D01*
X69132149Y-46124116D01*
X68835884Y-45827851D01*
X68487512Y-45595077D01*
X68100423Y-45434739D01*
X67689491Y-45353000D01*
X67270509Y-45353000D01*
X66859577Y-45434739D01*
X66472488Y-45595077D01*
X66124116Y-45827851D01*
X66098967Y-45853000D01*
X64043926Y-45853000D01*
X60917000Y-42726075D01*
X60917000Y-34929245D01*
X60966654Y-34978899D01*
X61478810Y-35321111D01*
X62047888Y-35556831D01*
X62652017Y-35677000D01*
X63267983Y-35677000D01*
X63872112Y-35556831D01*
X64441190Y-35321111D01*
X64953346Y-34978899D01*
X65388899Y-34543346D01*
X65731111Y-34031190D01*
X65966831Y-33462112D01*
X66087000Y-32857983D01*
X66087000Y-32242017D01*
X65966831Y-31637888D01*
X65731111Y-31068810D01*
X65388899Y-30556654D01*
X64953346Y-30121101D01*
X64441190Y-29778889D01*
X63872112Y-29543169D01*
X63267983Y-29423000D01*
X62652017Y-29423000D01*
X62047888Y-29543169D01*
X61478810Y-29778889D01*
X60966654Y-30121101D01*
X60531101Y-30556654D01*
X60411507Y-30735639D01*
X60383951Y-30713025D01*
X58586977Y-28916052D01*
X58536029Y-28853971D01*
X58288286Y-28650654D01*
X58005638Y-28499575D01*
X57698948Y-28406542D01*
X57459925Y-28383000D01*
X57459914Y-28383000D01*
X57380000Y-28375129D01*
X57300086Y-28383000D01*
X55648531Y-28383000D01*
X55527777Y-28302315D01*
X55177085Y-28157053D01*
X54940860Y-28110065D01*
X55293926Y-27757000D01*
X84187075Y-27757000D01*
X83828021Y-28116054D01*
X83828021Y-28116054D01*
G37*
X83828021Y-28116054D02*
X83828017Y-28116059D01*
X83815356Y-28128720D01*
X83672915Y-28157053D01*
X83322223Y-28302315D01*
X83006609Y-28513201D01*
X82850000Y-28669810D01*
X82693391Y-28513201D01*
X82377777Y-28302315D01*
X82027085Y-28157053D01*
X81654793Y-28083000D01*
X81275207Y-28083000D01*
X80902915Y-28157053D01*
X80552223Y-28302315D01*
X80236609Y-28513201D01*
X80080000Y-28669810D01*
X79923391Y-28513201D01*
X79607777Y-28302315D01*
X79257085Y-28157053D01*
X78884793Y-28083000D01*
X78505207Y-28083000D01*
X78132915Y-28157053D01*
X77782223Y-28302315D01*
X77661469Y-28383000D01*
X76359914Y-28383000D01*
X76279999Y-28375129D01*
X76200085Y-28383000D01*
X76200075Y-28383000D01*
X75961052Y-28406542D01*
X75654362Y-28499575D01*
X75654360Y-28499576D01*
X75628870Y-28513201D01*
X75371714Y-28650654D01*
X75123971Y-28853971D01*
X75073023Y-28916052D01*
X73906050Y-30083025D01*
X73843972Y-30133971D01*
X73793026Y-30196049D01*
X73793022Y-30196053D01*
X73640654Y-30381715D01*
X73551623Y-30548281D01*
X73489576Y-30664362D01*
X73396543Y-30971052D01*
X73392538Y-31011714D01*
X73365129Y-31290000D01*
X73373001Y-31369924D01*
X73373001Y-31719180D01*
X73356831Y-31637888D01*
X73121111Y-31068810D01*
X72778899Y-30556654D01*
X72343346Y-30121101D01*
X71831190Y-29778889D01*
X71262112Y-29543169D01*
X70657983Y-29423000D01*
X70042017Y-29423000D01*
X69437888Y-29543169D01*
X68868810Y-29778889D01*
X68356654Y-30121101D01*
X67921101Y-30556654D01*
X67578889Y-31068810D01*
X67343169Y-31637888D01*
X67223000Y-32242017D01*
X67223000Y-32857983D01*
X67343169Y-33462112D01*
X67578889Y-34031190D01*
X67921101Y-34543346D01*
X68356654Y-34978899D01*
X68868810Y-35321111D01*
X69437888Y-35556831D01*
X70042017Y-35677000D01*
X70657983Y-35677000D01*
X71262112Y-35556831D01*
X71831190Y-35321111D01*
X72343346Y-34978899D01*
X72778899Y-34543346D01*
X73121111Y-34031190D01*
X73356831Y-33462112D01*
X73373001Y-33380821D01*
X73373000Y-43618967D01*
X73347851Y-43644116D01*
X73115077Y-43992488D01*
X72954739Y-44379577D01*
X72873000Y-44790509D01*
X72873000Y-45209491D01*
X72954739Y-45620423D01*
X73115077Y-46007512D01*
X73347851Y-46355884D01*
X73644116Y-46652149D01*
X73992488Y-46884923D01*
X74379577Y-47045261D01*
X74790509Y-47127000D01*
X75209491Y-47127000D01*
X75620423Y-47045261D01*
X76007512Y-46884923D01*
X76355884Y-46652149D01*
X76652149Y-46355884D01*
X76884923Y-46007512D01*
X77045261Y-45620423D01*
X77127000Y-45209491D01*
X77127000Y-44790509D01*
X77045261Y-44379577D01*
X76884923Y-43992488D01*
X76652149Y-43644116D01*
X76627000Y-43618967D01*
X76627000Y-34060505D01*
X76705577Y-33981928D01*
X76793059Y-34196094D01*
X77065602Y-34271080D01*
X77347537Y-34291454D01*
X77628030Y-34256434D01*
X77826941Y-34196094D01*
X77914424Y-33981926D01*
X77310000Y-33377502D01*
X77295858Y-33391644D01*
X76768356Y-32864142D01*
X76782498Y-32850000D01*
X76768356Y-32835858D01*
X77295858Y-32308356D01*
X77310000Y-32322498D01*
X77324142Y-32308356D01*
X77851644Y-32835858D01*
X77837502Y-32850000D01*
X78184213Y-33196711D01*
X78227053Y-33412085D01*
X78372315Y-33762777D01*
X78583201Y-34078391D01*
X78851609Y-34346799D01*
X79167223Y-34557685D01*
X79517915Y-34702947D01*
X79890207Y-34777000D01*
X80269793Y-34777000D01*
X80642085Y-34702947D01*
X80773001Y-34648720D01*
X80773000Y-44596053D01*
X80611071Y-44899001D01*
X80500883Y-45262242D01*
X80463677Y-45640000D01*
X80500883Y-46017758D01*
X80611071Y-46380999D01*
X80790006Y-46715763D01*
X81030813Y-47009187D01*
X81324237Y-47249994D01*
X81659001Y-47428929D01*
X82022242Y-47539117D01*
X82305342Y-47567000D01*
X82494658Y-47567000D01*
X82777758Y-47539117D01*
X83140999Y-47428929D01*
X83475763Y-47249994D01*
X83769187Y-47009187D01*
X83900000Y-46849791D01*
X84030813Y-47009187D01*
X84324237Y-47249994D01*
X84659001Y-47428929D01*
X85022242Y-47539117D01*
X85305342Y-47567000D01*
X85494658Y-47567000D01*
X85777758Y-47539117D01*
X86140999Y-47428929D01*
X86475763Y-47249994D01*
X86769187Y-47009187D01*
X86900000Y-46849791D01*
X87030813Y-47009187D01*
X87324237Y-47249994D01*
X87659001Y-47428929D01*
X88022242Y-47539117D01*
X88305342Y-47567000D01*
X88494658Y-47567000D01*
X88777758Y-47539117D01*
X89140999Y-47428929D01*
X89475763Y-47249994D01*
X89769187Y-47009187D01*
X89773000Y-47004541D01*
X89773000Y-47790085D01*
X89765129Y-47870000D01*
X89773000Y-47949914D01*
X89773000Y-47949924D01*
X89796542Y-48188947D01*
X89889575Y-48495637D01*
X90040654Y-48778285D01*
X90243971Y-49026029D01*
X90306054Y-49076979D01*
X92593000Y-51363926D01*
X92593000Y-51399491D01*
X92674739Y-51810423D01*
X92835077Y-52197512D01*
X93067851Y-52545884D01*
X93364116Y-52842149D01*
X93712488Y-53074923D01*
X94099577Y-53235261D01*
X94510509Y-53317000D01*
X94929491Y-53317000D01*
X95340423Y-53235261D01*
X95727512Y-53074923D01*
X96075884Y-52842149D01*
X96372149Y-52545884D01*
X96604923Y-52197512D01*
X96765261Y-51810423D01*
X96847000Y-51399491D01*
X96847000Y-50980509D01*
X96765261Y-50569577D01*
X96604923Y-50182488D01*
X96372149Y-49834116D01*
X96075884Y-49537851D01*
X95727512Y-49305077D01*
X95340423Y-49144739D01*
X94929491Y-49063000D01*
X94893926Y-49063000D01*
X93027000Y-47196075D01*
X93027000Y-34649245D01*
X93356654Y-34978899D01*
X93868810Y-35321111D01*
X94437888Y-35556831D01*
X95042017Y-35677000D01*
X95657983Y-35677000D01*
X96262112Y-35556831D01*
X96831190Y-35321111D01*
X97343346Y-34978899D01*
X97778899Y-34543346D01*
X98121111Y-34031190D01*
X98356831Y-33462112D01*
X98477000Y-32857983D01*
X98477000Y-32242017D01*
X98356831Y-31637888D01*
X98121111Y-31068810D01*
X97778899Y-30556654D01*
X97343346Y-30121101D01*
X96831190Y-29778889D01*
X96464498Y-29627000D01*
X99556075Y-29627000D01*
X103675980Y-33746906D01*
X103555961Y-33783313D01*
X103143021Y-34004034D01*
X102781076Y-34301075D01*
X102484034Y-34663020D01*
X102263313Y-35075960D01*
X102127393Y-35524027D01*
X102093000Y-35873228D01*
X102093000Y-36606771D01*
X102127393Y-36955972D01*
X102263313Y-37404039D01*
X102484034Y-37816979D01*
X102781075Y-38178925D01*
X103143020Y-38475966D01*
X103555960Y-38696687D01*
X104004027Y-38832607D01*
X104470000Y-38878501D01*
X104935972Y-38832607D01*
X105384039Y-38696687D01*
X105796979Y-38475966D01*
X106158925Y-38178925D01*
X106455966Y-37816980D01*
X106470000Y-37790724D01*
X106484034Y-37816979D01*
X106781075Y-38178925D01*
X106843001Y-38229746D01*
X106843000Y-46596075D01*
X99146050Y-54293025D01*
X99083972Y-54343971D01*
X99033026Y-54406049D01*
X99033022Y-54406053D01*
X98880654Y-54591715D01*
X98832761Y-54681317D01*
X98729576Y-54874362D01*
X98636543Y-55181052D01*
X98622235Y-55326318D01*
X98605129Y-55500000D01*
X98613001Y-55579924D01*
X98613000Y-73063007D01*
X98440999Y-72971071D01*
X98077758Y-72860883D01*
X97794658Y-72833000D01*
X97605342Y-72833000D01*
X97322242Y-72860883D01*
X96959001Y-72971071D01*
X96624237Y-73150006D01*
X96430000Y-73309412D01*
X96235763Y-73150006D01*
X95900999Y-72971071D01*
X95537758Y-72860883D01*
X95254658Y-72833000D01*
X95065342Y-72833000D01*
X94782242Y-72860883D01*
X94419001Y-72971071D01*
X94084237Y-73150006D01*
X93890000Y-73309412D01*
X93695763Y-73150006D01*
X93360999Y-72971071D01*
X92997758Y-72860883D01*
X92714658Y-72833000D01*
X92525342Y-72833000D01*
X92242242Y-72860883D01*
X91879001Y-72971071D01*
X91544237Y-73150006D01*
X91350000Y-73309412D01*
X91155763Y-73150006D01*
X90820999Y-72971071D01*
X90457758Y-72860883D01*
X90436272Y-72858767D01*
X90341928Y-72764423D01*
X90556094Y-72676941D01*
X90631080Y-72404398D01*
X90651454Y-72122463D01*
X90616434Y-71841970D01*
X90556094Y-71643059D01*
X90341926Y-71555576D01*
X89737502Y-72160000D01*
X89751644Y-72174142D01*
X89224142Y-72701644D01*
X89210000Y-72687502D01*
X89195858Y-72701644D01*
X88668356Y-72174142D01*
X88682498Y-72160000D01*
X88668356Y-72145858D01*
X89195858Y-71618356D01*
X89210000Y-71632498D01*
X89814424Y-71028074D01*
X89726941Y-70813906D01*
X89454398Y-70738920D01*
X89172463Y-70718546D01*
X88891970Y-70753566D01*
X88693059Y-70813906D01*
X88605577Y-71028072D01*
X88454579Y-70877074D01*
X88337000Y-70994653D01*
X88337000Y-70275347D01*
X88464579Y-70402926D01*
X88615577Y-70251928D01*
X88703059Y-70466094D01*
X88975602Y-70541080D01*
X89257537Y-70561454D01*
X89538030Y-70526434D01*
X89736941Y-70466094D01*
X89824424Y-70251926D01*
X89220000Y-69647502D01*
X89205858Y-69661644D01*
X88678356Y-69134142D01*
X88692498Y-69120000D01*
X89747502Y-69120000D01*
X90351926Y-69724424D01*
X90566094Y-69636941D01*
X90641080Y-69364398D01*
X90661454Y-69082463D01*
X90626434Y-68801970D01*
X90566094Y-68603059D01*
X90351926Y-68515576D01*
X89747502Y-69120000D01*
X88692498Y-69120000D01*
X88678356Y-69105858D01*
X89205858Y-68578356D01*
X89220000Y-68592498D01*
X89824424Y-67988074D01*
X89736941Y-67773906D01*
X89619368Y-67741558D01*
X91693926Y-65667000D01*
X91729491Y-65667000D01*
X92140423Y-65585261D01*
X92527512Y-65424923D01*
X92875884Y-65192149D01*
X93172149Y-64895884D01*
X93404923Y-64547512D01*
X93520000Y-64269692D01*
X93635077Y-64547512D01*
X93867851Y-64895884D01*
X94164116Y-65192149D01*
X94512488Y-65424923D01*
X94899577Y-65585261D01*
X95310509Y-65667000D01*
X95729491Y-65667000D01*
X96140423Y-65585261D01*
X96527512Y-65424923D01*
X96875884Y-65192149D01*
X97172149Y-64895884D01*
X97404923Y-64547512D01*
X97565261Y-64160423D01*
X97647000Y-63749491D01*
X97647000Y-63330509D01*
X97565261Y-62919577D01*
X97404923Y-62532488D01*
X97172149Y-62184116D01*
X97157000Y-62168967D01*
X97157000Y-59261033D01*
X97182149Y-59235884D01*
X97414923Y-58887512D01*
X97575261Y-58500423D01*
X97657000Y-58089491D01*
X97657000Y-57670509D01*
X97575261Y-57259577D01*
X97414923Y-56872488D01*
X97182149Y-56524116D01*
X96885884Y-56227851D01*
X96537512Y-55995077D01*
X96150423Y-55834739D01*
X95739491Y-55753000D01*
X95320509Y-55753000D01*
X94909577Y-55834739D01*
X94522488Y-55995077D01*
X94174116Y-56227851D01*
X93877851Y-56524116D01*
X93645077Y-56872488D01*
X93484739Y-57259577D01*
X93403000Y-57670509D01*
X93403000Y-58089491D01*
X93484739Y-58500423D01*
X93645077Y-58887512D01*
X93877851Y-59235884D01*
X93903000Y-59261033D01*
X93903001Y-62148966D01*
X93867851Y-62184116D01*
X93635077Y-62532488D01*
X93520000Y-62810308D01*
X93404923Y-62532488D01*
X93172149Y-62184116D01*
X92875884Y-61887851D01*
X92527512Y-61655077D01*
X92140423Y-61494739D01*
X91729491Y-61413000D01*
X91310509Y-61413000D01*
X90899577Y-61494739D01*
X90512488Y-61655077D01*
X90164116Y-61887851D01*
X90007000Y-62044967D01*
X90007000Y-59383947D01*
X90168929Y-59080999D01*
X90279117Y-58717758D01*
X90316323Y-58340000D01*
X90279117Y-57962242D01*
X90168929Y-57599001D01*
X90007000Y-57296053D01*
X90007000Y-56863463D01*
X90107685Y-56712777D01*
X90252947Y-56362085D01*
X90327000Y-55989793D01*
X90327000Y-55610207D01*
X90252947Y-55237915D01*
X90107685Y-54887223D01*
X89896799Y-54571609D01*
X89628391Y-54303201D01*
X89312777Y-54092315D01*
X88962085Y-53947053D01*
X88589793Y-53873000D01*
X88210207Y-53873000D01*
X87837915Y-53947053D01*
X87487223Y-54092315D01*
X87171609Y-54303201D01*
X86903201Y-54571609D01*
X86900000Y-54576400D01*
X86896799Y-54571609D01*
X86628391Y-54303201D01*
X86312777Y-54092315D01*
X85962085Y-53947053D01*
X85589793Y-53873000D01*
X85210207Y-53873000D01*
X84837915Y-53947053D01*
X84487223Y-54092315D01*
X84171609Y-54303201D01*
X83903201Y-54571609D01*
X83900000Y-54576400D01*
X83896799Y-54571609D01*
X83628391Y-54303201D01*
X83312777Y-54092315D01*
X82962085Y-53947053D01*
X82589793Y-53873000D01*
X82210207Y-53873000D01*
X81837915Y-53947053D01*
X81487223Y-54092315D01*
X81171609Y-54303201D01*
X80903201Y-54571609D01*
X80692315Y-54887223D01*
X80547053Y-55237915D01*
X80473000Y-55610207D01*
X80473000Y-55989793D01*
X80547053Y-56362085D01*
X80692315Y-56712777D01*
X80753001Y-56803600D01*
X80753000Y-62713000D01*
X76109914Y-62713000D01*
X76029999Y-62705129D01*
X75950085Y-62713000D01*
X75950075Y-62713000D01*
X75711052Y-62736542D01*
X75404362Y-62829575D01*
X75404360Y-62829576D01*
X75367860Y-62849086D01*
X75121714Y-62980654D01*
X74873971Y-63183971D01*
X74823020Y-63246055D01*
X73653263Y-64415812D01*
X73661454Y-64302463D01*
X73626434Y-64021970D01*
X73566094Y-63823059D01*
X73351926Y-63735576D01*
X72747502Y-64340000D01*
X72761644Y-64354142D01*
X72234142Y-64881644D01*
X72220000Y-64867502D01*
X71615576Y-65471926D01*
X71703059Y-65686094D01*
X71975602Y-65761080D01*
X72257537Y-65781454D01*
X72291913Y-65777162D01*
X66126050Y-71943025D01*
X66107139Y-71958545D01*
X66039346Y-71831714D01*
X65999558Y-71783232D01*
X65886978Y-71646052D01*
X65886975Y-71646049D01*
X65836029Y-71583971D01*
X65773951Y-71533025D01*
X59712852Y-65471926D01*
X65835576Y-65471926D01*
X65923059Y-65686094D01*
X66195602Y-65761080D01*
X66477537Y-65781454D01*
X66758030Y-65746434D01*
X66956941Y-65686094D01*
X67044424Y-65471926D01*
X66440000Y-64867502D01*
X65835576Y-65471926D01*
X59712852Y-65471926D01*
X58618463Y-64377537D01*
X64998546Y-64377537D01*
X65033566Y-64658030D01*
X65093906Y-64856941D01*
X65308074Y-64944424D01*
X65912498Y-64340000D01*
X66967502Y-64340000D01*
X67571926Y-64944424D01*
X67786094Y-64856941D01*
X67861080Y-64584398D01*
X67876028Y-64377537D01*
X70778546Y-64377537D01*
X70813566Y-64658030D01*
X70873906Y-64856941D01*
X71088074Y-64944424D01*
X71692498Y-64340000D01*
X71088074Y-63735576D01*
X70873906Y-63823059D01*
X70798920Y-64095602D01*
X70778546Y-64377537D01*
X67876028Y-64377537D01*
X67881454Y-64302463D01*
X67846434Y-64021970D01*
X67786094Y-63823059D01*
X67571926Y-63735576D01*
X66967502Y-64340000D01*
X65912498Y-64340000D01*
X65308074Y-63735576D01*
X65093906Y-63823059D01*
X65018920Y-64095602D01*
X64998546Y-64377537D01*
X58618463Y-64377537D01*
X58168645Y-63927720D01*
X58068929Y-63599001D01*
X57907000Y-63296053D01*
X57907000Y-63208074D01*
X65835576Y-63208074D01*
X66440000Y-63812498D01*
X67044424Y-63208074D01*
X71615576Y-63208074D01*
X72220000Y-63812498D01*
X72824424Y-63208074D01*
X72736941Y-62993906D01*
X72464398Y-62918920D01*
X72182463Y-62898546D01*
X71901970Y-62933566D01*
X71703059Y-62993906D01*
X71615576Y-63208074D01*
X67044424Y-63208074D01*
X66956941Y-62993906D01*
X66684398Y-62918920D01*
X66402463Y-62898546D01*
X66121970Y-62933566D01*
X65923059Y-62993906D01*
X65835576Y-63208074D01*
X57907000Y-63208074D01*
X57907000Y-62471926D01*
X62875576Y-62471926D01*
X62963059Y-62686094D01*
X63235602Y-62761080D01*
X63517537Y-62781454D01*
X63798030Y-62746434D01*
X63996941Y-62686094D01*
X64084424Y-62471926D01*
X74615576Y-62471926D01*
X74703059Y-62686094D01*
X74975602Y-62761080D01*
X75257537Y-62781454D01*
X75538030Y-62746434D01*
X75736941Y-62686094D01*
X75824424Y-62471926D01*
X75220000Y-61867502D01*
X74615576Y-62471926D01*
X64084424Y-62471926D01*
X63480000Y-61867502D01*
X62875576Y-62471926D01*
X57907000Y-62471926D01*
X57907000Y-61377537D01*
X62038546Y-61377537D01*
X62073566Y-61658030D01*
X62133906Y-61856941D01*
X62348074Y-61944424D01*
X62952498Y-61340000D01*
X64007502Y-61340000D01*
X64611926Y-61944424D01*
X64826094Y-61856941D01*
X64901080Y-61584398D01*
X64916028Y-61377537D01*
X73778546Y-61377537D01*
X73813566Y-61658030D01*
X73873906Y-61856941D01*
X74088074Y-61944424D01*
X74692498Y-61340000D01*
X75747502Y-61340000D01*
X76351926Y-61944424D01*
X76566094Y-61856941D01*
X76641080Y-61584398D01*
X76661454Y-61302463D01*
X76626434Y-61021970D01*
X76566094Y-60823059D01*
X76351926Y-60735576D01*
X75747502Y-61340000D01*
X74692498Y-61340000D01*
X74088074Y-60735576D01*
X73873906Y-60823059D01*
X73798920Y-61095602D01*
X73778546Y-61377537D01*
X64916028Y-61377537D01*
X64921454Y-61302463D01*
X64886434Y-61021970D01*
X64826094Y-60823059D01*
X64611926Y-60735576D01*
X64007502Y-61340000D01*
X62952498Y-61340000D01*
X62348074Y-60735576D01*
X62133906Y-60823059D01*
X62058920Y-61095602D01*
X62038546Y-61377537D01*
X57907000Y-61377537D01*
X57907000Y-60208074D01*
X62875576Y-60208074D01*
X63480000Y-60812498D01*
X64084424Y-60208074D01*
X74615576Y-60208074D01*
X75220000Y-60812498D01*
X75824424Y-60208074D01*
X75736941Y-59993906D01*
X75464398Y-59918920D01*
X75182463Y-59898546D01*
X74901970Y-59933566D01*
X74703059Y-59993906D01*
X74615576Y-60208074D01*
X64084424Y-60208074D01*
X63996941Y-59993906D01*
X63724398Y-59918920D01*
X63442463Y-59898546D01*
X63161970Y-59933566D01*
X62963059Y-59993906D01*
X62875576Y-60208074D01*
X57907000Y-60208074D01*
X57907000Y-59471926D01*
X59835576Y-59471926D01*
X59923059Y-59686094D01*
X60195602Y-59761080D01*
X60477537Y-59781454D01*
X60758030Y-59746434D01*
X60956941Y-59686094D01*
X61044424Y-59471926D01*
X77615576Y-59471926D01*
X77703059Y-59686094D01*
X77975602Y-59761080D01*
X78257537Y-59781454D01*
X78538030Y-59746434D01*
X78736941Y-59686094D01*
X78824424Y-59471926D01*
X78220000Y-58867502D01*
X77615576Y-59471926D01*
X61044424Y-59471926D01*
X60440000Y-58867502D01*
X59835576Y-59471926D01*
X57907000Y-59471926D01*
X57907000Y-58377537D01*
X58998546Y-58377537D01*
X59033566Y-58658030D01*
X59093906Y-58856941D01*
X59308074Y-58944424D01*
X59912498Y-58340000D01*
X60967502Y-58340000D01*
X61571926Y-58944424D01*
X61786094Y-58856941D01*
X61861080Y-58584398D01*
X61876028Y-58377537D01*
X76778546Y-58377537D01*
X76813566Y-58658030D01*
X76873906Y-58856941D01*
X77088074Y-58944424D01*
X77692498Y-58340000D01*
X78747502Y-58340000D01*
X79351926Y-58944424D01*
X79566094Y-58856941D01*
X79641080Y-58584398D01*
X79661454Y-58302463D01*
X79626434Y-58021970D01*
X79566094Y-57823059D01*
X79351926Y-57735576D01*
X78747502Y-58340000D01*
X77692498Y-58340000D01*
X77088074Y-57735576D01*
X76873906Y-57823059D01*
X76798920Y-58095602D01*
X76778546Y-58377537D01*
X61876028Y-58377537D01*
X61881454Y-58302463D01*
X61846434Y-58021970D01*
X61786094Y-57823059D01*
X61571926Y-57735576D01*
X60967502Y-58340000D01*
X59912498Y-58340000D01*
X59308074Y-57735576D01*
X59093906Y-57823059D01*
X59018920Y-58095602D01*
X58998546Y-58377537D01*
X57907000Y-58377537D01*
X57907000Y-57208074D01*
X59835576Y-57208074D01*
X60440000Y-57812498D01*
X61044424Y-57208074D01*
X77615576Y-57208074D01*
X78220000Y-57812498D01*
X78824424Y-57208074D01*
X78736941Y-56993906D01*
X78464398Y-56918920D01*
X78182463Y-56898546D01*
X77901970Y-56933566D01*
X77703059Y-56993906D01*
X77615576Y-57208074D01*
X61044424Y-57208074D01*
X60956941Y-56993906D01*
X60684398Y-56918920D01*
X60402463Y-56898546D01*
X60121970Y-56933566D01*
X59923059Y-56993906D01*
X59835576Y-57208074D01*
X57907000Y-57208074D01*
X57907000Y-56863463D01*
X58007685Y-56712777D01*
X58152947Y-56362085D01*
X58227000Y-55989793D01*
X58227000Y-55610207D01*
X58152947Y-55237915D01*
X58007685Y-54887223D01*
X57796799Y-54571609D01*
X57528391Y-54303201D01*
X57212777Y-54092315D01*
X56862085Y-53947053D01*
X56489793Y-53873000D01*
X56110207Y-53873000D01*
X55737915Y-53947053D01*
X55387223Y-54092315D01*
X55071609Y-54303201D01*
X54803201Y-54571609D01*
X54800000Y-54576400D01*
X54796799Y-54571609D01*
X54528391Y-54303201D01*
X54212777Y-54092315D01*
X53862085Y-53947053D01*
X53489793Y-53873000D01*
X53110207Y-53873000D01*
X52737915Y-53947053D01*
X52387223Y-54092315D01*
X52071609Y-54303201D01*
X51803201Y-54571609D01*
X51800000Y-54576400D01*
X51796799Y-54571609D01*
X51528391Y-54303201D01*
X51212777Y-54092315D01*
X50862085Y-53947053D01*
X50489793Y-53873000D01*
X50110207Y-53873000D01*
X49737915Y-53947053D01*
X49387223Y-54092315D01*
X49071609Y-54303201D01*
X48803201Y-54571609D01*
X48592315Y-54887223D01*
X48447053Y-55237915D01*
X48373000Y-55610207D01*
X48373000Y-55989793D01*
X48447053Y-56362085D01*
X48592315Y-56712777D01*
X48653001Y-56803600D01*
X48653000Y-57296052D01*
X48491071Y-57599001D01*
X48380883Y-57962242D01*
X48343677Y-58340000D01*
X48380883Y-58717758D01*
X48491071Y-59080999D01*
X48653001Y-59383949D01*
X48653000Y-65360085D01*
X48645129Y-65440000D01*
X48653000Y-65519914D01*
X48653000Y-65519924D01*
X48676542Y-65758947D01*
X48769575Y-66065637D01*
X48920654Y-66348285D01*
X49123971Y-66596029D01*
X49186055Y-66646980D01*
X57711355Y-75172280D01*
X57811071Y-75500999D01*
X57990006Y-75835763D01*
X58230813Y-76129187D01*
X58524237Y-76369994D01*
X58859001Y-76548929D01*
X59222242Y-76659117D01*
X59505342Y-76687000D01*
X59694658Y-76687000D01*
X59977758Y-76659117D01*
X60340999Y-76548929D01*
X60675763Y-76369994D01*
X60870000Y-76210588D01*
X61064237Y-76369994D01*
X61399001Y-76548929D01*
X61762242Y-76659117D01*
X62045342Y-76687000D01*
X62234658Y-76687000D01*
X62517758Y-76659117D01*
X62880999Y-76548929D01*
X63215763Y-76369994D01*
X63410000Y-76210588D01*
X63604237Y-76369994D01*
X63939001Y-76548929D01*
X64302242Y-76659117D01*
X64585342Y-76687000D01*
X64774658Y-76687000D01*
X65057758Y-76659117D01*
X65420999Y-76548929D01*
X65755763Y-76369994D01*
X65950000Y-76210588D01*
X66144237Y-76369994D01*
X66479001Y-76548929D01*
X66842242Y-76659117D01*
X67125342Y-76687000D01*
X67314658Y-76687000D01*
X67597758Y-76659117D01*
X67960999Y-76548929D01*
X68295763Y-76369994D01*
X68490000Y-76210588D01*
X68684237Y-76369994D01*
X69019001Y-76548929D01*
X69382242Y-76659117D01*
X69665342Y-76687000D01*
X69854658Y-76687000D01*
X70137758Y-76659117D01*
X70500999Y-76548929D01*
X70835763Y-76369994D01*
X71030000Y-76210588D01*
X71224237Y-76369994D01*
X71559001Y-76548929D01*
X71922242Y-76659117D01*
X72205342Y-76687000D01*
X72394658Y-76687000D01*
X72677758Y-76659117D01*
X73040999Y-76548929D01*
X73213000Y-76456992D01*
X73213000Y-77296075D01*
X72646075Y-77863000D01*
X50483926Y-77863000D01*
X32815828Y-60194903D01*
X32827000Y-60138737D01*
X32827000Y-59621263D01*
X32726046Y-59113732D01*
X32528017Y-58635649D01*
X32240524Y-58205385D01*
X31874615Y-57839476D01*
X31444351Y-57551983D01*
X30966268Y-57353954D01*
X30458737Y-57253000D01*
X29941263Y-57253000D01*
X29433732Y-57353954D01*
X28955649Y-57551983D01*
X28525385Y-57839476D01*
X28159476Y-58205385D01*
X27871983Y-58635649D01*
X27673954Y-59113732D01*
X27573000Y-59621263D01*
X27573000Y-60138737D01*
X27673954Y-60646268D01*
X27871983Y-61124351D01*
X28159476Y-61554615D01*
X28525385Y-61920524D01*
X28955649Y-62208017D01*
X29433732Y-62406046D01*
X29941263Y-62507000D01*
X30458737Y-62507000D01*
X30514903Y-62495828D01*
X43892074Y-75873000D01*
X43790509Y-75873000D01*
X43379577Y-75954739D01*
X42992488Y-76115077D01*
X42644116Y-76347851D01*
X42347851Y-76644116D01*
X42115077Y-76992488D01*
X41954739Y-77379577D01*
X41916265Y-77573000D01*
X39065347Y-77573000D01*
X39182926Y-77455421D01*
X39031928Y-77304423D01*
X39246094Y-77216941D01*
X39321080Y-76944398D01*
X39341454Y-76662463D01*
X39306434Y-76381970D01*
X39246094Y-76183059D01*
X39031926Y-76095576D01*
X38427502Y-76700000D01*
X38441644Y-76714142D01*
X37914142Y-77241644D01*
X37900000Y-77227502D01*
X37885858Y-77241644D01*
X37358356Y-76714142D01*
X37372498Y-76700000D01*
X36768074Y-76095576D01*
X36553906Y-76183059D01*
X36478920Y-76455602D01*
X36458546Y-76737537D01*
X36493566Y-77018030D01*
X36553906Y-77216941D01*
X36768072Y-77304423D01*
X36617074Y-77455421D01*
X36634653Y-77473000D01*
X35381033Y-77473000D01*
X35355884Y-77447851D01*
X35007512Y-77215077D01*
X34620423Y-77054739D01*
X34209491Y-76973000D01*
X33790509Y-76973000D01*
X33379577Y-77054739D01*
X32992488Y-77215077D01*
X32644116Y-77447851D01*
X32618967Y-77473000D01*
X28881033Y-77473000D01*
X28855884Y-77447851D01*
X28507512Y-77215077D01*
X28120423Y-77054739D01*
X27709491Y-76973000D01*
X27290509Y-76973000D01*
X27127000Y-77005524D01*
X27127000Y-76196192D01*
X27168877Y-76209197D01*
X27489178Y-76242875D01*
X27809895Y-76213418D01*
X28118703Y-76121960D01*
X28138698Y-76113678D01*
X28252026Y-75879527D01*
X33247974Y-75879527D01*
X33361302Y-76113678D01*
X33668877Y-76209197D01*
X33989178Y-76242875D01*
X34309895Y-76213418D01*
X34618703Y-76121960D01*
X34638698Y-76113678D01*
X34752026Y-75879527D01*
X34440573Y-75568074D01*
X37295576Y-75568074D01*
X37900000Y-76172498D01*
X38504424Y-75568074D01*
X38416941Y-75353906D01*
X38144398Y-75278920D01*
X37862463Y-75258546D01*
X37581970Y-75293566D01*
X37383059Y-75353906D01*
X37295576Y-75568074D01*
X34440573Y-75568074D01*
X34000000Y-75127502D01*
X33247974Y-75879527D01*
X28252026Y-75879527D01*
X27500000Y-75127502D01*
X27485858Y-75141644D01*
X27127000Y-74782786D01*
X27127000Y-74600000D01*
X28027502Y-74600000D01*
X28779527Y-75352026D01*
X29013678Y-75238698D01*
X29109197Y-74931123D01*
X29142875Y-74610822D01*
X29140888Y-74589178D01*
X32357125Y-74589178D01*
X32386582Y-74909895D01*
X32478040Y-75218703D01*
X32486322Y-75238698D01*
X32720473Y-75352026D01*
X33472498Y-74600000D01*
X34527502Y-74600000D01*
X35279527Y-75352026D01*
X35513678Y-75238698D01*
X35609197Y-74931123D01*
X35642875Y-74610822D01*
X35613418Y-74290105D01*
X35521960Y-73981297D01*
X35513678Y-73961302D01*
X35279527Y-73847974D01*
X34527502Y-74600000D01*
X33472498Y-74600000D01*
X32720473Y-73847974D01*
X32486322Y-73961302D01*
X32390803Y-74268877D01*
X32357125Y-74589178D01*
X29140888Y-74589178D01*
X29113418Y-74290105D01*
X29021960Y-73981297D01*
X29013678Y-73961302D01*
X28779527Y-73847974D01*
X28027502Y-74600000D01*
X27127000Y-74600000D01*
X27127000Y-74417214D01*
X27485858Y-74058356D01*
X27500000Y-74072498D01*
X28252026Y-73320473D01*
X33247974Y-73320473D01*
X34000000Y-74072498D01*
X34752026Y-73320473D01*
X34638698Y-73086322D01*
X34331123Y-72990803D01*
X34010822Y-72957125D01*
X33690105Y-72986582D01*
X33381297Y-73078040D01*
X33361302Y-73086322D01*
X33247974Y-73320473D01*
X28252026Y-73320473D01*
X28138698Y-73086322D01*
X27831123Y-72990803D01*
X27510822Y-72957125D01*
X27190105Y-72986582D01*
X27127000Y-73005271D01*
X27127000Y-56300000D01*
X28061928Y-56300000D01*
X28074188Y-56424482D01*
X28110498Y-56544180D01*
X28169463Y-56654494D01*
X28248815Y-56751185D01*
X28345506Y-56830537D01*
X28455820Y-56889502D01*
X28575518Y-56925812D01*
X28700000Y-56938072D01*
X29668250Y-56935000D01*
X29827000Y-56776250D01*
X29827000Y-55173000D01*
X30573000Y-55173000D01*
X30573000Y-56776250D01*
X30731750Y-56935000D01*
X31700000Y-56938072D01*
X31824482Y-56925812D01*
X31944180Y-56889502D01*
X32054494Y-56830537D01*
X32151185Y-56751185D01*
X32230537Y-56654494D01*
X32289502Y-56544180D01*
X32325812Y-56424482D01*
X32338072Y-56300000D01*
X32335000Y-55331750D01*
X32176250Y-55173000D01*
X30573000Y-55173000D01*
X29827000Y-55173000D01*
X28223750Y-55173000D01*
X28065000Y-55331750D01*
X28061928Y-56300000D01*
X27127000Y-56300000D01*
X27127000Y-53300000D01*
X28061928Y-53300000D01*
X28065000Y-54268250D01*
X28223750Y-54427000D01*
X29827000Y-54427000D01*
X29827000Y-52823750D01*
X30573000Y-52823750D01*
X30573000Y-54427000D01*
X32176250Y-54427000D01*
X32335000Y-54268250D01*
X32338072Y-53300000D01*
X32325812Y-53175518D01*
X32289502Y-53055820D01*
X32230537Y-52945506D01*
X32151185Y-52848815D01*
X32054494Y-52769463D01*
X31944180Y-52710498D01*
X31824482Y-52674188D01*
X31700000Y-52661928D01*
X30731750Y-52665000D01*
X30573000Y-52823750D01*
X29827000Y-52823750D01*
X29668250Y-52665000D01*
X28700000Y-52661928D01*
X28575518Y-52674188D01*
X28455820Y-52710498D01*
X28345506Y-52769463D01*
X28248815Y-52848815D01*
X28169463Y-52945506D01*
X28110498Y-53055820D01*
X28074188Y-53175518D01*
X28061928Y-53300000D01*
X27127000Y-53300000D01*
X27127000Y-32261446D01*
X27430836Y-32623544D01*
X27989348Y-33072599D01*
X28624445Y-33404619D01*
X29311936Y-33606959D01*
X30025635Y-33671911D01*
X30738358Y-33597000D01*
X31422957Y-33385081D01*
X32053356Y-33044226D01*
X32233001Y-32895611D01*
X32233000Y-44466074D01*
X31826074Y-44873000D01*
X31790509Y-44873000D01*
X31379577Y-44954739D01*
X30992488Y-45115077D01*
X30644116Y-45347851D01*
X30347851Y-45644116D01*
X30115077Y-45992488D01*
X29954739Y-46379577D01*
X29873000Y-46790509D01*
X29873000Y-47209491D01*
X29954739Y-47620423D01*
X30115077Y-48007512D01*
X30347851Y-48355884D01*
X30644116Y-48652149D01*
X30992488Y-48884923D01*
X31379577Y-49045261D01*
X31790509Y-49127000D01*
X32209491Y-49127000D01*
X32620423Y-49045261D01*
X33007512Y-48884923D01*
X33355884Y-48652149D01*
X33652149Y-48355884D01*
X33884923Y-48007512D01*
X34045261Y-47620423D01*
X34127000Y-47209491D01*
X34127000Y-47173926D01*
X34953952Y-46346974D01*
X35016029Y-46296029D01*
X35066975Y-46233951D01*
X35066978Y-46233948D01*
X35219346Y-46048286D01*
X35370424Y-45765640D01*
X35370425Y-45765637D01*
X35463458Y-45458948D01*
X35487000Y-45219925D01*
X35487000Y-45219915D01*
X35494871Y-45140001D01*
X35487000Y-45060086D01*
X35487000Y-34477344D01*
X35531101Y-34543346D01*
X35966654Y-34978899D01*
X36478810Y-35321111D01*
X37047888Y-35556831D01*
X37652017Y-35677000D01*
X38267983Y-35677000D01*
X38872112Y-35556831D01*
X39441190Y-35321111D01*
X39953346Y-34978899D01*
X40388899Y-34543346D01*
X40731111Y-34031190D01*
X40751516Y-33981926D01*
X44315576Y-33981926D01*
X44403059Y-34196094D01*
X44675602Y-34271080D01*
X44957537Y-34291454D01*
X45238030Y-34256434D01*
X45436941Y-34196094D01*
X45524424Y-33981926D01*
X44920000Y-33377502D01*
X44315576Y-33981926D01*
X40751516Y-33981926D01*
X40966831Y-33462112D01*
X41081121Y-32887537D01*
X43478546Y-32887537D01*
X43513566Y-33168030D01*
X43573906Y-33366941D01*
X43788074Y-33454424D01*
X44392498Y-32850000D01*
X43788074Y-32245576D01*
X43573906Y-32333059D01*
X43498920Y-32605602D01*
X43478546Y-32887537D01*
X41081121Y-32887537D01*
X41087000Y-32857983D01*
X41087000Y-32242017D01*
X40966831Y-31637888D01*
X40731111Y-31068810D01*
X40388899Y-30556654D01*
X39953346Y-30121101D01*
X39887344Y-30077000D01*
X44071075Y-30077000D01*
X44423720Y-30429646D01*
X44452053Y-30572085D01*
X44597315Y-30922777D01*
X44808201Y-31238391D01*
X44985825Y-31416015D01*
X44882463Y-31408546D01*
X44601970Y-31443566D01*
X44403059Y-31503906D01*
X44315576Y-31718074D01*
X44920000Y-32322498D01*
X44934142Y-32308356D01*
X45461644Y-32835858D01*
X45447502Y-32850000D01*
X45794213Y-33196711D01*
X45837053Y-33412085D01*
X45982315Y-33762777D01*
X46193201Y-34078391D01*
X46461609Y-34346799D01*
X46777223Y-34557685D01*
X47127915Y-34702947D01*
X47500207Y-34777000D01*
X47879793Y-34777000D01*
X48252085Y-34702947D01*
X48602777Y-34557685D01*
X48673001Y-34510763D01*
X48673000Y-44596053D01*
X48511071Y-44899001D01*
X48400883Y-45262242D01*
X48363677Y-45640000D01*
X48400883Y-46017758D01*
X48511071Y-46380999D01*
X48690006Y-46715763D01*
X48930813Y-47009187D01*
X49224237Y-47249994D01*
X49559001Y-47428929D01*
X49922242Y-47539117D01*
X50205342Y-47567000D01*
X50394658Y-47567000D01*
X50677758Y-47539117D01*
X51040999Y-47428929D01*
X51375763Y-47249994D01*
X51669187Y-47009187D01*
X51800000Y-46849791D01*
X51930813Y-47009187D01*
X52224237Y-47249994D01*
X52559001Y-47428929D01*
X52922242Y-47539117D01*
X53205342Y-47567000D01*
X53394658Y-47567000D01*
X53677758Y-47539117D01*
X54040999Y-47428929D01*
X54375763Y-47249994D01*
X54669187Y-47009187D01*
X54800000Y-46849791D01*
X54930813Y-47009187D01*
X55224237Y-47249994D01*
X55559001Y-47428929D01*
X55922242Y-47539117D01*
X56205342Y-47567000D01*
X56394658Y-47567000D01*
X56677758Y-47539117D01*
X57040999Y-47428929D01*
X57375763Y-47249994D01*
X57669187Y-47009187D01*
X57909994Y-46715763D01*
X58088929Y-46380999D01*
X58199117Y-46017758D01*
X58236323Y-45640000D01*
X58199117Y-45262242D01*
X58088929Y-44899001D01*
X57927000Y-44596053D01*
X57927000Y-44301449D01*
X57930654Y-44308285D01*
X58133971Y-44556029D01*
X58196054Y-44606979D01*
X62163025Y-48573951D01*
X62213971Y-48636029D01*
X62276049Y-48686975D01*
X62276052Y-48686978D01*
X62387311Y-48778285D01*
X62461714Y-48839346D01*
X62744362Y-48990425D01*
X63051052Y-49083458D01*
X63290075Y-49107000D01*
X63290085Y-49107000D01*
X63369999Y-49114871D01*
X63449914Y-49107000D01*
X66098967Y-49107000D01*
X66124116Y-49132149D01*
X66472488Y-49364923D01*
X66859577Y-49525261D01*
X67270509Y-49607000D01*
X67689491Y-49607000D01*
X68100423Y-49525261D01*
X68487512Y-49364923D01*
X68835884Y-49132149D01*
X69132149Y-48835884D01*
X69364923Y-48487512D01*
X69525261Y-48100423D01*
X69607000Y-47689491D01*
X69607000Y-47270509D01*
X69525261Y-46859577D01*
X69364923Y-46472488D01*
X69132149Y-46124116D01*
X68835884Y-45827851D01*
X68487512Y-45595077D01*
X68100423Y-45434739D01*
X67689491Y-45353000D01*
X67270509Y-45353000D01*
X66859577Y-45434739D01*
X66472488Y-45595077D01*
X66124116Y-45827851D01*
X66098967Y-45853000D01*
X64043926Y-45853000D01*
X60917000Y-42726075D01*
X60917000Y-34929245D01*
X60966654Y-34978899D01*
X61478810Y-35321111D01*
X62047888Y-35556831D01*
X62652017Y-35677000D01*
X63267983Y-35677000D01*
X63872112Y-35556831D01*
X64441190Y-35321111D01*
X64953346Y-34978899D01*
X65388899Y-34543346D01*
X65731111Y-34031190D01*
X65966831Y-33462112D01*
X66087000Y-32857983D01*
X66087000Y-32242017D01*
X65966831Y-31637888D01*
X65731111Y-31068810D01*
X65388899Y-30556654D01*
X64953346Y-30121101D01*
X64441190Y-29778889D01*
X63872112Y-29543169D01*
X63267983Y-29423000D01*
X62652017Y-29423000D01*
X62047888Y-29543169D01*
X61478810Y-29778889D01*
X60966654Y-30121101D01*
X60531101Y-30556654D01*
X60411507Y-30735639D01*
X60383951Y-30713025D01*
X58586977Y-28916052D01*
X58536029Y-28853971D01*
X58288286Y-28650654D01*
X58005638Y-28499575D01*
X57698948Y-28406542D01*
X57459925Y-28383000D01*
X57459914Y-28383000D01*
X57380000Y-28375129D01*
X57300086Y-28383000D01*
X55648531Y-28383000D01*
X55527777Y-28302315D01*
X55177085Y-28157053D01*
X54940860Y-28110065D01*
X55293926Y-27757000D01*
X84187075Y-27757000D01*
X83828021Y-28116054D01*
G36*
X167358584Y-27449214D02*
G01*
X166913439Y-28010847D01*
X166585861Y-28648247D01*
X166388326Y-29337134D01*
X166328358Y-30051269D01*
X166408242Y-30763452D01*
X166624935Y-31446555D01*
X166970183Y-32074559D01*
X167430836Y-32623544D01*
X167741097Y-32873000D01*
X138000000Y-32873000D01*
X137975224Y-32875440D01*
X137951399Y-32882667D01*
X137929443Y-32894403D01*
X137910197Y-32910197D01*
X137894403Y-32929443D01*
X137882667Y-32951399D01*
X137875440Y-32975224D01*
X137873000Y-33000000D01*
X137873000Y-70426075D01*
X132125097Y-76173978D01*
X132136323Y-76060000D01*
X132099117Y-75682242D01*
X131988929Y-75319001D01*
X131896993Y-75147000D01*
X132310086Y-75147000D01*
X132390000Y-75154871D01*
X132469914Y-75147000D01*
X132469925Y-75147000D01*
X132708948Y-75123458D01*
X133015638Y-75030425D01*
X133298286Y-74879346D01*
X133546029Y-74676029D01*
X133596980Y-74613945D01*
X135813945Y-72396980D01*
X135876029Y-72346029D01*
X136079346Y-72098286D01*
X136230425Y-71815638D01*
X136323458Y-71508948D01*
X136347000Y-71269925D01*
X136354872Y-71190000D01*
X136347000Y-71110075D01*
X136347000Y-66491033D01*
X136372149Y-66465884D01*
X136604923Y-66117512D01*
X136765261Y-65730423D01*
X136847000Y-65319491D01*
X136847000Y-64900509D01*
X136765261Y-64489577D01*
X136604923Y-64102488D01*
X136372149Y-63754116D01*
X136075884Y-63457851D01*
X135727512Y-63225077D01*
X135340423Y-63064739D01*
X134929491Y-62983000D01*
X134510509Y-62983000D01*
X134099577Y-63064739D01*
X133712488Y-63225077D01*
X133364116Y-63457851D01*
X133067851Y-63754116D01*
X132835077Y-64102488D01*
X132674739Y-64489577D01*
X132593000Y-64900509D01*
X132593000Y-65319491D01*
X132674739Y-65730423D01*
X132835077Y-66117512D01*
X133067851Y-66465884D01*
X133093000Y-66491033D01*
X133093001Y-70516074D01*
X131716075Y-71893000D01*
X131243947Y-71893000D01*
X130940999Y-71731071D01*
X130577758Y-71620883D01*
X130294658Y-71593000D01*
X129305342Y-71593000D01*
X129022242Y-71620883D01*
X128659001Y-71731071D01*
X128324237Y-71910006D01*
X128030813Y-72150813D01*
X127790006Y-72444237D01*
X127611071Y-72779001D01*
X127500883Y-73142242D01*
X127463677Y-73520000D01*
X127483643Y-73722718D01*
X127257000Y-73496075D01*
X127257000Y-64739925D01*
X127264872Y-64660000D01*
X127233458Y-64341052D01*
X127215458Y-64281714D01*
X127140425Y-64034362D01*
X126989346Y-63751714D01*
X126930143Y-63679575D01*
X126836978Y-63566052D01*
X126836975Y-63566049D01*
X126786029Y-63503971D01*
X126723952Y-63453026D01*
X124087000Y-60816075D01*
X124087000Y-60780509D01*
X124005261Y-60369577D01*
X123844923Y-59982488D01*
X123612149Y-59634116D01*
X123315884Y-59337851D01*
X122967512Y-59105077D01*
X122580423Y-58944739D01*
X122169491Y-58863000D01*
X121750509Y-58863000D01*
X121339577Y-58944739D01*
X120952488Y-59105077D01*
X120604116Y-59337851D01*
X120307851Y-59634116D01*
X120075077Y-59982488D01*
X119914739Y-60369577D01*
X119833000Y-60780509D01*
X119833000Y-61199491D01*
X119914739Y-61610423D01*
X120075077Y-61997512D01*
X120307851Y-62345884D01*
X120604116Y-62642149D01*
X120952488Y-62874923D01*
X121339577Y-63035261D01*
X121750509Y-63117000D01*
X121786075Y-63117000D01*
X124003000Y-65333926D01*
X124003001Y-71775109D01*
X123813371Y-71673750D01*
X123600931Y-71609307D01*
X123380000Y-71587547D01*
X120980000Y-71587547D01*
X120759069Y-71609307D01*
X120546629Y-71673750D01*
X120350843Y-71778400D01*
X120211202Y-71893000D01*
X113179914Y-71893000D01*
X113099999Y-71885129D01*
X113020085Y-71893000D01*
X113020075Y-71893000D01*
X112781052Y-71916542D01*
X112474362Y-72009575D01*
X112322321Y-72090843D01*
X112191714Y-72160654D01*
X112006052Y-72313022D01*
X112006049Y-72313025D01*
X111943971Y-72363971D01*
X111893025Y-72426049D01*
X109775051Y-74544023D01*
X109759117Y-74382242D01*
X109648929Y-74019001D01*
X109469994Y-73684237D01*
X109229187Y-73390813D01*
X108935763Y-73150006D01*
X108600999Y-72971071D01*
X108237758Y-72860883D01*
X107954658Y-72833000D01*
X107765342Y-72833000D01*
X107482242Y-72860883D01*
X107119001Y-72971071D01*
X106784237Y-73150006D01*
X106590000Y-73309412D01*
X106395763Y-73150006D01*
X106060999Y-72971071D01*
X105697758Y-72860883D01*
X105414658Y-72833000D01*
X105225342Y-72833000D01*
X104942242Y-72860883D01*
X104579001Y-72971071D01*
X104407000Y-73063007D01*
X104407000Y-62573925D01*
X125283945Y-41696980D01*
X125346029Y-41646029D01*
X125549346Y-41398286D01*
X125651603Y-41206978D01*
X125700424Y-41115640D01*
X125700425Y-41115638D01*
X125793458Y-40808948D01*
X125817000Y-40569925D01*
X125817000Y-40569915D01*
X125824871Y-40490001D01*
X125817000Y-40410086D01*
X125817000Y-38229745D01*
X125878925Y-38178925D01*
X126175966Y-37816980D01*
X126396687Y-37404040D01*
X126458170Y-37201357D01*
X126475533Y-37253603D01*
X126657448Y-37573407D01*
X126898258Y-37851576D01*
X127188709Y-38077420D01*
X127517639Y-38242260D01*
X127532544Y-38256628D01*
X127817000Y-38175470D01*
X127817000Y-36613000D01*
X128563000Y-36613000D01*
X128563000Y-38175470D01*
X128847456Y-38256628D01*
X128862361Y-38242260D01*
X129191291Y-38077420D01*
X129481742Y-37851576D01*
X129722552Y-37573407D01*
X129904467Y-37253603D01*
X130020496Y-36904455D01*
X129904045Y-36613000D01*
X128563000Y-36613000D01*
X127817000Y-36613000D01*
X127797000Y-36613000D01*
X127797000Y-35867000D01*
X127817000Y-35867000D01*
X127817000Y-34304530D01*
X128563000Y-34304530D01*
X128563000Y-35867000D01*
X129904045Y-35867000D01*
X130020496Y-35575545D01*
X129904467Y-35226397D01*
X129722552Y-34906593D01*
X129481742Y-34628424D01*
X129191291Y-34402580D01*
X128862361Y-34237740D01*
X128847456Y-34223372D01*
X128563000Y-34304530D01*
X127817000Y-34304530D01*
X127532544Y-34223372D01*
X127517639Y-34237740D01*
X127188709Y-34402580D01*
X126898258Y-34628424D01*
X126657448Y-34906593D01*
X126475533Y-35226397D01*
X126458170Y-35278644D01*
X126396687Y-35075961D01*
X126175966Y-34663021D01*
X125878925Y-34301075D01*
X125817000Y-34250254D01*
X125817000Y-32069914D01*
X125824871Y-31989999D01*
X125817000Y-31910085D01*
X125817000Y-31910075D01*
X125793458Y-31671052D01*
X125700425Y-31364362D01*
X125549346Y-31081714D01*
X125346029Y-30833971D01*
X125283945Y-30783020D01*
X121627925Y-27127000D01*
X167737185Y-27127000D01*
X167358584Y-27449214D01*
X167358584Y-27449214D01*
G37*
X167358584Y-27449214D02*
X166913439Y-28010847D01*
X166585861Y-28648247D01*
X166388326Y-29337134D01*
X166328358Y-30051269D01*
X166408242Y-30763452D01*
X166624935Y-31446555D01*
X166970183Y-32074559D01*
X167430836Y-32623544D01*
X167741097Y-32873000D01*
X138000000Y-32873000D01*
X137975224Y-32875440D01*
X137951399Y-32882667D01*
X137929443Y-32894403D01*
X137910197Y-32910197D01*
X137894403Y-32929443D01*
X137882667Y-32951399D01*
X137875440Y-32975224D01*
X137873000Y-33000000D01*
X137873000Y-70426075D01*
X132125097Y-76173978D01*
X132136323Y-76060000D01*
X132099117Y-75682242D01*
X131988929Y-75319001D01*
X131896993Y-75147000D01*
X132310086Y-75147000D01*
X132390000Y-75154871D01*
X132469914Y-75147000D01*
X132469925Y-75147000D01*
X132708948Y-75123458D01*
X133015638Y-75030425D01*
X133298286Y-74879346D01*
X133546029Y-74676029D01*
X133596980Y-74613945D01*
X135813945Y-72396980D01*
X135876029Y-72346029D01*
X136079346Y-72098286D01*
X136230425Y-71815638D01*
X136323458Y-71508948D01*
X136347000Y-71269925D01*
X136354872Y-71190000D01*
X136347000Y-71110075D01*
X136347000Y-66491033D01*
X136372149Y-66465884D01*
X136604923Y-66117512D01*
X136765261Y-65730423D01*
X136847000Y-65319491D01*
X136847000Y-64900509D01*
X136765261Y-64489577D01*
X136604923Y-64102488D01*
X136372149Y-63754116D01*
X136075884Y-63457851D01*
X135727512Y-63225077D01*
X135340423Y-63064739D01*
X134929491Y-62983000D01*
X134510509Y-62983000D01*
X134099577Y-63064739D01*
X133712488Y-63225077D01*
X133364116Y-63457851D01*
X133067851Y-63754116D01*
X132835077Y-64102488D01*
X132674739Y-64489577D01*
X132593000Y-64900509D01*
X132593000Y-65319491D01*
X132674739Y-65730423D01*
X132835077Y-66117512D01*
X133067851Y-66465884D01*
X133093000Y-66491033D01*
X133093001Y-70516074D01*
X131716075Y-71893000D01*
X131243947Y-71893000D01*
X130940999Y-71731071D01*
X130577758Y-71620883D01*
X130294658Y-71593000D01*
X129305342Y-71593000D01*
X129022242Y-71620883D01*
X128659001Y-71731071D01*
X128324237Y-71910006D01*
X128030813Y-72150813D01*
X127790006Y-72444237D01*
X127611071Y-72779001D01*
X127500883Y-73142242D01*
X127463677Y-73520000D01*
X127483643Y-73722718D01*
X127257000Y-73496075D01*
X127257000Y-64739925D01*
X127264872Y-64660000D01*
X127233458Y-64341052D01*
X127215458Y-64281714D01*
X127140425Y-64034362D01*
X126989346Y-63751714D01*
X126930143Y-63679575D01*
X126836978Y-63566052D01*
X126836975Y-63566049D01*
X126786029Y-63503971D01*
X126723952Y-63453026D01*
X124087000Y-60816075D01*
X124087000Y-60780509D01*
X124005261Y-60369577D01*
X123844923Y-59982488D01*
X123612149Y-59634116D01*
X123315884Y-59337851D01*
X122967512Y-59105077D01*
X122580423Y-58944739D01*
X122169491Y-58863000D01*
X121750509Y-58863000D01*
X121339577Y-58944739D01*
X120952488Y-59105077D01*
X120604116Y-59337851D01*
X120307851Y-59634116D01*
X120075077Y-59982488D01*
X119914739Y-60369577D01*
X119833000Y-60780509D01*
X119833000Y-61199491D01*
X119914739Y-61610423D01*
X120075077Y-61997512D01*
X120307851Y-62345884D01*
X120604116Y-62642149D01*
X120952488Y-62874923D01*
X121339577Y-63035261D01*
X121750509Y-63117000D01*
X121786075Y-63117000D01*
X124003000Y-65333926D01*
X124003001Y-71775109D01*
X123813371Y-71673750D01*
X123600931Y-71609307D01*
X123380000Y-71587547D01*
X120980000Y-71587547D01*
X120759069Y-71609307D01*
X120546629Y-71673750D01*
X120350843Y-71778400D01*
X120211202Y-71893000D01*
X113179914Y-71893000D01*
X113099999Y-71885129D01*
X113020085Y-71893000D01*
X113020075Y-71893000D01*
X112781052Y-71916542D01*
X112474362Y-72009575D01*
X112322321Y-72090843D01*
X112191714Y-72160654D01*
X112006052Y-72313022D01*
X112006049Y-72313025D01*
X111943971Y-72363971D01*
X111893025Y-72426049D01*
X109775051Y-74544023D01*
X109759117Y-74382242D01*
X109648929Y-74019001D01*
X109469994Y-73684237D01*
X109229187Y-73390813D01*
X108935763Y-73150006D01*
X108600999Y-72971071D01*
X108237758Y-72860883D01*
X107954658Y-72833000D01*
X107765342Y-72833000D01*
X107482242Y-72860883D01*
X107119001Y-72971071D01*
X106784237Y-73150006D01*
X106590000Y-73309412D01*
X106395763Y-73150006D01*
X106060999Y-72971071D01*
X105697758Y-72860883D01*
X105414658Y-72833000D01*
X105225342Y-72833000D01*
X104942242Y-72860883D01*
X104579001Y-72971071D01*
X104407000Y-73063007D01*
X104407000Y-62573925D01*
X125283945Y-41696980D01*
X125346029Y-41646029D01*
X125549346Y-41398286D01*
X125651603Y-41206978D01*
X125700424Y-41115640D01*
X125700425Y-41115638D01*
X125793458Y-40808948D01*
X125817000Y-40569925D01*
X125817000Y-40569915D01*
X125824871Y-40490001D01*
X125817000Y-40410086D01*
X125817000Y-38229745D01*
X125878925Y-38178925D01*
X126175966Y-37816980D01*
X126396687Y-37404040D01*
X126458170Y-37201357D01*
X126475533Y-37253603D01*
X126657448Y-37573407D01*
X126898258Y-37851576D01*
X127188709Y-38077420D01*
X127517639Y-38242260D01*
X127532544Y-38256628D01*
X127817000Y-38175470D01*
X127817000Y-36613000D01*
X128563000Y-36613000D01*
X128563000Y-38175470D01*
X128847456Y-38256628D01*
X128862361Y-38242260D01*
X129191291Y-38077420D01*
X129481742Y-37851576D01*
X129722552Y-37573407D01*
X129904467Y-37253603D01*
X130020496Y-36904455D01*
X129904045Y-36613000D01*
X128563000Y-36613000D01*
X127817000Y-36613000D01*
X127797000Y-36613000D01*
X127797000Y-35867000D01*
X127817000Y-35867000D01*
X127817000Y-34304530D01*
X128563000Y-34304530D01*
X128563000Y-35867000D01*
X129904045Y-35867000D01*
X130020496Y-35575545D01*
X129904467Y-35226397D01*
X129722552Y-34906593D01*
X129481742Y-34628424D01*
X129191291Y-34402580D01*
X128862361Y-34237740D01*
X128847456Y-34223372D01*
X128563000Y-34304530D01*
X127817000Y-34304530D01*
X127532544Y-34223372D01*
X127517639Y-34237740D01*
X127188709Y-34402580D01*
X126898258Y-34628424D01*
X126657448Y-34906593D01*
X126475533Y-35226397D01*
X126458170Y-35278644D01*
X126396687Y-35075961D01*
X126175966Y-34663021D01*
X125878925Y-34301075D01*
X125817000Y-34250254D01*
X125817000Y-32069914D01*
X125824871Y-31989999D01*
X125817000Y-31910085D01*
X125817000Y-31910075D01*
X125793458Y-31671052D01*
X125700425Y-31364362D01*
X125549346Y-31081714D01*
X125346029Y-30833971D01*
X125283945Y-30783020D01*
X121627925Y-27127000D01*
X167737185Y-27127000D01*
X167358584Y-27449214D01*
G36*
X122563001Y-32663926D02*
G01*
X122563000Y-34250255D01*
X122501076Y-34301075D01*
X122204034Y-34663020D01*
X122190000Y-34689276D01*
X122175966Y-34663021D01*
X121878925Y-34301075D01*
X121516980Y-34004034D01*
X121104040Y-33783313D01*
X120655973Y-33647393D01*
X120190000Y-33601499D01*
X119724028Y-33647393D01*
X119275961Y-33783313D01*
X118863021Y-34004034D01*
X118501076Y-34301075D01*
X118204034Y-34663020D01*
X117983313Y-35075960D01*
X117847393Y-35524027D01*
X117813000Y-35873228D01*
X117813000Y-36606771D01*
X117847393Y-36955972D01*
X117983313Y-37404039D01*
X118204034Y-37816979D01*
X118501075Y-38178925D01*
X118863020Y-38475966D01*
X119275960Y-38696687D01*
X119724027Y-38832607D01*
X120190000Y-38878501D01*
X120655972Y-38832607D01*
X121104039Y-38696687D01*
X121516979Y-38475966D01*
X121878925Y-38178925D01*
X122175966Y-37816980D01*
X122190000Y-37790724D01*
X122204034Y-37816979D01*
X122501075Y-38178925D01*
X122563000Y-38229746D01*
X122563001Y-39816074D01*
X101867000Y-60512075D01*
X101867000Y-56173925D01*
X109563947Y-48476978D01*
X109626029Y-48426029D01*
X109829346Y-48178286D01*
X109980425Y-47895638D01*
X110073458Y-47588948D01*
X110097000Y-47349925D01*
X110097000Y-47349924D01*
X110104872Y-47270000D01*
X110097000Y-47190075D01*
X110097000Y-38229745D01*
X110158925Y-38178925D01*
X110455966Y-37816980D01*
X110676687Y-37404040D01*
X110738170Y-37201357D01*
X110755533Y-37253603D01*
X110937448Y-37573407D01*
X111178258Y-37851576D01*
X111468709Y-38077420D01*
X111797639Y-38242260D01*
X111812544Y-38256628D01*
X112097000Y-38175470D01*
X112097000Y-36613000D01*
X112843000Y-36613000D01*
X112843000Y-38175470D01*
X113127456Y-38256628D01*
X113142361Y-38242260D01*
X113471291Y-38077420D01*
X113761742Y-37851576D01*
X114002552Y-37573407D01*
X114184467Y-37253603D01*
X114300496Y-36904455D01*
X114184045Y-36613000D01*
X112843000Y-36613000D01*
X112097000Y-36613000D01*
X112077000Y-36613000D01*
X112077000Y-35867000D01*
X112097000Y-35867000D01*
X112097000Y-34304530D01*
X112843000Y-34304530D01*
X112843000Y-35867000D01*
X114184045Y-35867000D01*
X114300496Y-35575545D01*
X114184467Y-35226397D01*
X114002552Y-34906593D01*
X113761742Y-34628424D01*
X113471291Y-34402580D01*
X113142361Y-34237740D01*
X113127456Y-34223372D01*
X112843000Y-34304530D01*
X112097000Y-34304530D01*
X111812544Y-34223372D01*
X111797639Y-34237740D01*
X111468709Y-34402580D01*
X111178258Y-34628424D01*
X110937448Y-34906593D01*
X110755533Y-35226397D01*
X110738170Y-35278644D01*
X110676687Y-35075961D01*
X110455966Y-34663021D01*
X110158925Y-34301075D01*
X109796980Y-34004034D01*
X109384040Y-33783313D01*
X108935973Y-33647393D01*
X108470000Y-33601499D01*
X108162692Y-33631766D01*
X102287925Y-27757000D01*
X117656075Y-27757000D01*
X122563001Y-32663926D01*
X122563001Y-32663926D01*
G37*
X122563001Y-32663926D02*
X122563000Y-34250255D01*
X122501076Y-34301075D01*
X122204034Y-34663020D01*
X122190000Y-34689276D01*
X122175966Y-34663021D01*
X121878925Y-34301075D01*
X121516980Y-34004034D01*
X121104040Y-33783313D01*
X120655973Y-33647393D01*
X120190000Y-33601499D01*
X119724028Y-33647393D01*
X119275961Y-33783313D01*
X118863021Y-34004034D01*
X118501076Y-34301075D01*
X118204034Y-34663020D01*
X117983313Y-35075960D01*
X117847393Y-35524027D01*
X117813000Y-35873228D01*
X117813000Y-36606771D01*
X117847393Y-36955972D01*
X117983313Y-37404039D01*
X118204034Y-37816979D01*
X118501075Y-38178925D01*
X118863020Y-38475966D01*
X119275960Y-38696687D01*
X119724027Y-38832607D01*
X120190000Y-38878501D01*
X120655972Y-38832607D01*
X121104039Y-38696687D01*
X121516979Y-38475966D01*
X121878925Y-38178925D01*
X122175966Y-37816980D01*
X122190000Y-37790724D01*
X122204034Y-37816979D01*
X122501075Y-38178925D01*
X122563000Y-38229746D01*
X122563001Y-39816074D01*
X101867000Y-60512075D01*
X101867000Y-56173925D01*
X109563947Y-48476978D01*
X109626029Y-48426029D01*
X109829346Y-48178286D01*
X109980425Y-47895638D01*
X110073458Y-47588948D01*
X110097000Y-47349925D01*
X110097000Y-47349924D01*
X110104872Y-47270000D01*
X110097000Y-47190075D01*
X110097000Y-38229745D01*
X110158925Y-38178925D01*
X110455966Y-37816980D01*
X110676687Y-37404040D01*
X110738170Y-37201357D01*
X110755533Y-37253603D01*
X110937448Y-37573407D01*
X111178258Y-37851576D01*
X111468709Y-38077420D01*
X111797639Y-38242260D01*
X111812544Y-38256628D01*
X112097000Y-38175470D01*
X112097000Y-36613000D01*
X112843000Y-36613000D01*
X112843000Y-38175470D01*
X113127456Y-38256628D01*
X113142361Y-38242260D01*
X113471291Y-38077420D01*
X113761742Y-37851576D01*
X114002552Y-37573407D01*
X114184467Y-37253603D01*
X114300496Y-36904455D01*
X114184045Y-36613000D01*
X112843000Y-36613000D01*
X112097000Y-36613000D01*
X112077000Y-36613000D01*
X112077000Y-35867000D01*
X112097000Y-35867000D01*
X112097000Y-34304530D01*
X112843000Y-34304530D01*
X112843000Y-35867000D01*
X114184045Y-35867000D01*
X114300496Y-35575545D01*
X114184467Y-35226397D01*
X114002552Y-34906593D01*
X113761742Y-34628424D01*
X113471291Y-34402580D01*
X113142361Y-34237740D01*
X113127456Y-34223372D01*
X112843000Y-34304530D01*
X112097000Y-34304530D01*
X111812544Y-34223372D01*
X111797639Y-34237740D01*
X111468709Y-34402580D01*
X111178258Y-34628424D01*
X110937448Y-34906593D01*
X110755533Y-35226397D01*
X110738170Y-35278644D01*
X110676687Y-35075961D01*
X110455966Y-34663021D01*
X110158925Y-34301075D01*
X109796980Y-34004034D01*
X109384040Y-33783313D01*
X108935973Y-33647393D01*
X108470000Y-33601499D01*
X108162692Y-33631766D01*
X102287925Y-27757000D01*
X117656075Y-27757000D01*
X122563001Y-32663926D01*
M02*
