G04 #@! TF.GenerationSoftware,KiCad,Pcbnew,(5.1.2)-2*
G04 #@! TF.CreationDate,2020-06-20T22:42:11+05:30*
G04 #@! TF.ProjectId,motor controller v-4,6d6f746f-7220-4636-9f6e-74726f6c6c65,rev?*
G04 #@! TF.SameCoordinates,Original*
G04 #@! TF.FileFunction,Copper,L1,Top*
G04 #@! TF.FilePolarity,Positive*
%FSLAX46Y46*%
G04 Gerber Fmt 4.6, Leading zero omitted, Abs format (unit mm)*
G04 Created by KiCad (PCBNEW (5.1.2)-2) date 2020-06-20 22:42:11*
%MOMM*%
%LPD*%
G04 APERTURE LIST*
%ADD10C,1.600000*%
%ADD11O,2.500000X3.000000*%
%ADD12O,3.000000X2.500000*%
%ADD13R,1.600000X1.600000*%
%ADD14C,2.000000*%
%ADD15O,1.600000X1.600000*%
%ADD16C,2.300000*%
%ADD17O,2.400000X1.600000*%
%ADD18R,2.400000X1.600000*%
%ADD19C,2.400000*%
%ADD20O,2.400000X2.400000*%
%ADD21R,2.500000X2.500000*%
%ADD22O,2.500000X2.500000*%
%ADD23R,1.700000X1.700000*%
%ADD24O,1.700000X1.700000*%
%ADD25C,3.000000*%
%ADD26R,3.000000X3.000000*%
%ADD27C,4.000000*%
%ADD28R,1.800000X1.800000*%
%ADD29C,1.800000*%
%ADD30C,1.000000*%
G04 APERTURE END LIST*
D10*
X124920000Y-95280000D03*
X127420000Y-95280000D03*
X89210000Y-72160000D03*
X86710000Y-72160000D03*
X89220000Y-69120000D03*
X86720000Y-69120000D03*
X86360000Y-101830000D03*
X86360000Y-99330000D03*
X91260000Y-101830000D03*
X91260000Y-99330000D03*
X78290000Y-94610000D03*
X80790000Y-94610000D03*
X37900000Y-76700000D03*
X37900000Y-79200000D03*
X78290000Y-97670000D03*
X80790000Y-97670000D03*
X42290000Y-107480000D03*
X44790000Y-107480000D03*
D11*
X31000000Y-101600000D03*
X35000000Y-101600000D03*
X39000000Y-101600000D03*
X104470000Y-36240000D03*
X108470000Y-36240000D03*
X112470000Y-36240000D03*
X120190000Y-36240000D03*
X124190000Y-36240000D03*
X128190000Y-36240000D03*
D12*
X52000000Y-111990000D03*
X52000000Y-115990000D03*
X52000000Y-119990000D03*
D10*
X42600000Y-112400000D03*
D13*
X44600000Y-112400000D03*
D14*
X34000000Y-74600000D03*
X34000000Y-79100000D03*
X27500000Y-74600000D03*
X27500000Y-79100000D03*
D15*
X88380000Y-58340000D03*
D10*
X78220000Y-58340000D03*
D15*
X85380000Y-61340000D03*
D10*
X75220000Y-61340000D03*
D15*
X82380000Y-64340000D03*
D10*
X72220000Y-64340000D03*
D15*
X82400000Y-45640000D03*
D10*
X82400000Y-55800000D03*
D15*
X85400000Y-45640000D03*
D10*
X85400000Y-55800000D03*
D15*
X88400000Y-45640000D03*
D10*
X88400000Y-55800000D03*
D15*
X56280000Y-64340000D03*
D10*
X66440000Y-64340000D03*
D15*
X53320000Y-61340000D03*
D10*
X63480000Y-61340000D03*
D15*
X50280000Y-58340000D03*
D10*
X60440000Y-58340000D03*
D15*
X50300000Y-45640000D03*
D10*
X50300000Y-55800000D03*
D15*
X53300000Y-45640000D03*
D10*
X53300000Y-55800000D03*
D15*
X56300000Y-45640000D03*
D10*
X56300000Y-55800000D03*
D16*
X86400000Y-94600000D03*
X91300000Y-94600000D03*
D17*
X129800000Y-73520000D03*
X122180000Y-91300000D03*
X129800000Y-76060000D03*
X122180000Y-88760000D03*
X129800000Y-78600000D03*
X122180000Y-86220000D03*
X129800000Y-81140000D03*
X122180000Y-83680000D03*
X129800000Y-83680000D03*
X122180000Y-81140000D03*
X129800000Y-86220000D03*
X122180000Y-78600000D03*
X129800000Y-88760000D03*
X122180000Y-76060000D03*
X129800000Y-91300000D03*
D18*
X122180000Y-73520000D03*
D13*
X59600000Y-90000000D03*
D15*
X107860000Y-74760000D03*
X62140000Y-90000000D03*
X105320000Y-74760000D03*
X64680000Y-90000000D03*
X102780000Y-74760000D03*
X67220000Y-90000000D03*
X100240000Y-74760000D03*
X69760000Y-90000000D03*
X97700000Y-74760000D03*
X72300000Y-90000000D03*
X95160000Y-74760000D03*
X74840000Y-90000000D03*
X92620000Y-74760000D03*
X77380000Y-90000000D03*
X90080000Y-74760000D03*
X79920000Y-90000000D03*
X87540000Y-74760000D03*
X82460000Y-90000000D03*
X85000000Y-74760000D03*
X85000000Y-90000000D03*
X82460000Y-74760000D03*
X87540000Y-90000000D03*
X79920000Y-74760000D03*
X90080000Y-90000000D03*
X77380000Y-74760000D03*
X92620000Y-90000000D03*
X74840000Y-74760000D03*
X95160000Y-90000000D03*
X72300000Y-74760000D03*
X97700000Y-90000000D03*
X69760000Y-74760000D03*
X100240000Y-90000000D03*
X67220000Y-74760000D03*
X102780000Y-90000000D03*
X64680000Y-74760000D03*
X105320000Y-90000000D03*
X62140000Y-74760000D03*
X107860000Y-90000000D03*
X59600000Y-74760000D03*
D19*
X59800000Y-122000000D03*
D20*
X59800000Y-114380000D03*
D14*
X95520000Y-63540000D03*
X91520000Y-63540000D03*
D21*
X153765000Y-44879775D03*
D22*
X155765000Y-50879775D03*
X167965000Y-50879775D03*
X167965000Y-38879775D03*
X155765000Y-38879775D03*
D21*
X153765000Y-62929775D03*
D22*
X155765000Y-68929775D03*
X167965000Y-68929775D03*
X167965000Y-56929775D03*
X155765000Y-56929775D03*
D21*
X153900000Y-81000000D03*
D22*
X155900000Y-87000000D03*
X168100000Y-87000000D03*
X168100000Y-75000000D03*
X155900000Y-75000000D03*
D23*
X34670000Y-85020000D03*
D24*
X32130000Y-85020000D03*
X34670000Y-87560000D03*
X32130000Y-87560000D03*
X34670000Y-90100000D03*
X32130000Y-90100000D03*
D25*
X170050000Y-106020000D03*
X170050000Y-100940000D03*
D26*
X170050000Y-111100000D03*
D25*
X170050000Y-95860000D03*
D26*
X30200000Y-54800000D03*
D25*
X30200000Y-59880000D03*
D13*
X88390000Y-32850000D03*
D10*
X85620000Y-32850000D03*
X82850000Y-32850000D03*
X80080000Y-32850000D03*
X77310000Y-32850000D03*
X87005000Y-30010000D03*
X84235000Y-30010000D03*
X81465000Y-30010000D03*
X78695000Y-30010000D03*
D27*
X95350000Y-32550000D03*
X70350000Y-32550000D03*
D13*
X56000000Y-32850000D03*
D10*
X53230000Y-32850000D03*
X50460000Y-32850000D03*
X47690000Y-32850000D03*
X44920000Y-32850000D03*
X54615000Y-30010000D03*
X51845000Y-30010000D03*
X49075000Y-30010000D03*
X46305000Y-30010000D03*
D27*
X62960000Y-32550000D03*
X37960000Y-32550000D03*
D25*
X45080000Y-120000000D03*
D26*
X40000000Y-120000000D03*
D28*
X65300000Y-117900000D03*
D29*
X67840000Y-117900000D03*
D28*
X119400000Y-117100000D03*
D29*
X119400000Y-119640000D03*
D28*
X132800000Y-117100000D03*
D29*
X132800000Y-119640000D03*
D14*
X65000000Y-98000000D03*
X67000000Y-98000000D03*
X69000000Y-98000000D03*
X65000000Y-107000000D03*
X67000000Y-107000000D03*
X69000000Y-107000000D03*
X45000000Y-91000000D03*
X45000000Y-102000000D03*
X30000000Y-109000000D03*
X30000000Y-111000000D03*
X30000000Y-113000000D03*
X58000000Y-106000000D03*
X58000000Y-108000000D03*
X58000000Y-110000000D03*
X93000000Y-111000000D03*
X118000000Y-42000000D03*
X128000000Y-42000000D03*
X114000000Y-63000000D03*
X114000000Y-65000000D03*
X97000000Y-68000000D03*
X95000000Y-68000000D03*
X108000000Y-52000000D03*
X114000000Y-57000000D03*
X91000000Y-111000000D03*
X147540000Y-112080000D03*
X147390000Y-77130000D03*
X149000000Y-40000000D03*
X149000001Y-59080001D03*
X75000000Y-45000000D03*
X32000000Y-47000000D03*
X53410000Y-103620000D03*
X95530000Y-57880000D03*
X44000000Y-78000000D03*
X67480000Y-47480000D03*
X134720000Y-65110000D03*
X94720000Y-51190000D03*
X121960000Y-60990000D03*
X48070000Y-86670000D03*
X40000004Y-85000000D03*
D30*
X65000000Y-98000000D02*
X65000000Y-107000000D01*
X67000000Y-98000000D02*
X67000000Y-107000000D01*
X69000000Y-98000000D02*
X69000000Y-107000000D01*
X45000000Y-91000000D02*
X45000000Y-102000000D01*
X55000000Y-109000000D02*
X58000000Y-106000000D01*
X30000000Y-109000000D02*
X55000000Y-109000000D01*
X104000000Y-111000000D02*
X93000000Y-111000000D01*
X116000000Y-99000000D02*
X104000000Y-111000000D01*
X116000000Y-71000000D02*
X116000000Y-99000000D01*
X113000000Y-68000000D02*
X116000000Y-71000000D01*
X97000000Y-68000000D02*
X113000000Y-68000000D01*
X111000000Y-68000000D02*
X114000000Y-65000000D01*
X95000000Y-68000000D02*
X111000000Y-68000000D01*
X109000000Y-68000000D02*
X114000000Y-63000000D01*
X97000000Y-68000000D02*
X109000000Y-68000000D01*
X118000000Y-42000000D02*
X128000000Y-42000000D01*
X113000000Y-57000000D02*
X108000000Y-52000000D01*
X114000000Y-57000000D02*
X113000000Y-57000000D01*
X95000000Y-68000000D02*
X95000000Y-70000000D01*
X95000000Y-70000000D02*
X96000000Y-71000000D01*
X96000000Y-71000000D02*
X112000000Y-71000000D01*
X112000000Y-71000000D02*
X113000000Y-72000000D01*
X113000000Y-72000000D02*
X113000000Y-98000000D01*
X113000000Y-98000000D02*
X102000000Y-109000000D01*
X102000000Y-109000000D02*
X93000000Y-109000000D01*
X93000000Y-109000000D02*
X91499999Y-110500001D01*
X96000000Y-71000000D02*
X106320002Y-71000000D01*
X57500001Y-108499999D02*
X58000000Y-108000000D01*
X57000000Y-109000000D02*
X57500001Y-108499999D01*
X30000000Y-111000000D02*
X32000000Y-109000000D01*
X32000000Y-109000000D02*
X57000000Y-109000000D01*
X57292894Y-110000000D02*
X58000000Y-110000000D01*
X56292894Y-109000000D02*
X57292894Y-110000000D01*
X30900001Y-113900001D02*
X45960001Y-113900001D01*
X30000000Y-113000000D02*
X30900001Y-113900001D01*
X45960001Y-113900001D02*
X46100001Y-113760001D01*
X46100001Y-113760001D02*
X46100001Y-112899999D01*
X46100001Y-112899999D02*
X50000000Y-109000000D01*
X50000000Y-109000000D02*
X56292894Y-109000000D01*
X147540000Y-77280000D02*
X147390000Y-77130000D01*
X147540000Y-112080000D02*
X147540000Y-77280000D01*
X147390000Y-77130000D02*
X147390000Y-60690002D01*
X149000001Y-58372895D02*
X149000001Y-59080001D01*
X149000000Y-40000000D02*
X149000001Y-40707107D01*
X148500002Y-59580000D02*
X149000001Y-59080001D01*
X148500001Y-40499999D02*
X149000000Y-40000000D01*
X75860001Y-44139999D02*
X144860001Y-44139999D01*
X75000000Y-45000000D02*
X75860001Y-44139999D01*
X32499999Y-47499999D02*
X62500001Y-47499999D01*
X32000000Y-47000000D02*
X32499999Y-47499999D01*
X65000000Y-45000000D02*
X75000000Y-45000000D01*
X62500001Y-47499999D02*
X65000000Y-45000000D01*
X144860001Y-44139999D02*
X148500001Y-40499999D01*
X147390000Y-60690002D02*
X148500002Y-59580000D01*
X149000001Y-40707107D02*
X149000001Y-58372895D01*
X92750000Y-57880000D02*
X95530000Y-57880000D01*
X79860000Y-70770000D02*
X92750000Y-57880000D01*
X53410000Y-103620000D02*
X53410000Y-70770000D01*
X53410000Y-70770000D02*
X79860000Y-70770000D01*
X35519999Y-89250001D02*
X34670000Y-90100000D01*
X36220001Y-88549999D02*
X35519999Y-89250001D01*
X36220001Y-85779999D02*
X36220001Y-88549999D01*
X44000000Y-78000000D02*
X36220001Y-85779999D01*
X134220001Y-64610001D02*
X134720000Y-65110000D01*
X67480000Y-47480000D02*
X117090000Y-47480000D01*
X117090000Y-47480000D02*
X134220001Y-64610001D01*
X103812894Y-60990000D02*
X121960000Y-60990000D01*
X94720000Y-51190000D02*
X94720000Y-51897106D01*
X94720000Y-51897106D02*
X103812894Y-60990000D01*
X48070000Y-86670000D02*
X46400000Y-85000000D01*
X40707110Y-85000000D02*
X40000004Y-85000000D01*
X46400000Y-85000000D02*
X40707110Y-85000000D01*
M02*
